<svg width="195" height="234" viewBox="0 0 195 234" fill="none" xmlns="http://www.w3.org/2000/svg">
<path d="M40.8103 35.4569C40.8756 35.4961 40.9474 35.7965 41.0976 35.9206C41.2739 36.0643 41.5156 36.0904 41.6462 36.1949C41.8291 36.3451 41.9009 36.6456 42.0707 36.7305C42.5017 36.946 42.9785 36.6194 43.2462 36.7827C43.6315 37.0244 44.2519 38.1999 44.5524 38.3763C44.8528 38.5526 45.114 38.3306 45.3164 38.3632C45.3556 38.3632 46.0087 38.7224 46.0348 38.7486C46.1132 38.8465 46.0479 39.1143 46.1393 39.258C47.1189 40.8058 46.6879 40.5511 46.8969 42.2165C46.9556 42.6998 47.3801 43.5293 47.4455 44.006C47.5891 45.051 47.4193 46.0306 46.3287 46.3703C46.3156 47.1409 46.1916 48.7018 47.021 49.1068C47.3214 49.2504 47.7785 49.1329 48.1508 49.2112C48.634 49.3092 48.9149 49.799 49.0324 49.8382C49.2479 49.9101 50.9394 49.9101 51.2137 49.8578C51.6251 49.7794 51.7165 49.3615 51.9777 49.2439C52.8202 48.8651 53.6365 49.6684 54.5117 49.4529L54.8055 48.7737C55.3411 49.0872 56.1639 48.7541 56.5884 48.8129C56.8235 48.8455 57.0456 49.368 57.3003 49.4333C57.5288 49.4921 57.8946 49.0872 58.4954 49.1786C59.2595 49.2962 59.4227 50.0015 59.7754 50.106C60.9248 50.4391 60.8464 49.9166 61.4603 49.368C61.7477 49.1068 63.2367 47.9834 63.5305 47.8659C63.7657 47.7744 64.2881 48.0095 64.693 47.9377C65.013 47.8789 65.0587 47.5785 65.5159 47.5197C65.7706 47.4871 66.9722 47.4805 67.1551 47.5524C67.3118 47.6111 67.3184 47.8136 67.4294 47.8985C67.5077 47.9573 67.6906 47.9181 67.7494 47.9769C67.9779 48.212 67.8212 48.7606 68.7943 48.4994C68.9249 48.4667 68.9706 47.9181 69.787 48.1532C70.1657 48.2643 70.2245 48.7933 70.4988 48.8912C70.6947 48.9565 71.8898 48.9565 72.1249 48.9108C72.4254 48.852 72.5037 48.5908 72.7062 48.5255C73.0458 48.421 73.4703 48.5777 73.7511 48.4994C73.8948 48.4602 73.8948 48.2055 73.9862 48.1467C74.0384 48.114 74.8417 48.0683 75.1552 47.8136C75.5797 47.474 75.6515 46.958 75.9976 46.5858L84.4745 46.5727C84.7292 46.0764 85.7414 46.0894 86.2182 45.8086C86.3684 45.7237 86.4141 45.4298 86.5643 45.3188C86.7015 45.2208 86.8974 45.2926 87.0541 45.1424C87.4002 44.7963 87.5635 43.7252 87.7333 43.5946C87.8574 43.5031 88.0729 43.6664 88.2035 43.6403C88.3864 43.6011 88.4713 43.3268 88.7717 43.268C88.9872 43.2223 90.4893 43.2354 90.5937 43.2941C91.1293 44.3652 91.2011 45.7433 91.8346 46.7948C92.0631 47.1801 92.5138 47.4479 92.6705 47.7483C92.8599 48.1271 92.7619 48.4667 92.8926 48.7606C92.9709 48.9369 93.2713 49.0349 93.3432 49.27C93.5587 49.9754 93.1277 50.4521 93.1277 50.622C93.1277 50.7656 93.8395 51.0269 93.6371 52.1241C93.5195 52.7576 93.2452 53.0646 93.3628 53.9266C93.4542 54.6124 94.1007 54.4883 93.9113 55.6966C93.7873 56.4803 93.4607 56.1994 92.9644 56.4019C92.8142 56.4607 92.7554 56.6762 92.4746 56.735C92.0305 56.8264 91.2664 56.5782 91.0378 56.6697C90.4501 56.9048 89.9864 57.7799 89.588 58.1196C88.7651 58.8249 87.6157 59.1384 86.5512 60.0397C85.4214 60.9997 84.4745 62.0708 83.2337 62.9786C83.09 63.0831 83.09 63.377 82.8157 63.4619C82.3455 63.6056 82.0973 63.1876 81.6075 63.1876C81.1961 63.1876 81.0132 63.4358 80.654 63.4881C80.0728 63.5664 79.0279 63.3052 78.5707 63.6056C78.3095 63.7754 78.3552 64.1412 78.0352 64.1738C77.2254 64.2718 73.5225 64.3044 72.8107 64.1608C72.5168 64.102 72.4123 63.8211 72.2686 63.8016C72.0988 63.7754 71.8507 63.9583 71.5894 63.8734C71.4066 63.8146 71.4196 63.5077 71.2694 63.4685C71.0082 63.4032 69.271 63.4423 69.0294 63.5468C68.9118 63.5991 68.8139 63.8211 68.6506 63.8669C68.3959 63.9387 68.1478 63.7297 67.9975 63.7624C67.8343 63.795 67.8408 64.1216 67.6906 64.1608C67.5077 64.2065 66.5673 64.1934 66.3387 64.1608C66.0449 64.1216 64.3142 63.1158 63.8963 62.8872C63.7134 62.7892 63.6873 62.5411 63.5632 62.5084C63.0734 62.3713 62.0938 62.6194 61.5322 62.5084C61.2383 62.4496 61.1338 62.1753 60.9836 62.1492C60.6244 62.097 59.906 62.3908 59.4162 62.11C58.9852 62.7109 58.5542 63.6971 57.679 63.4685L55.8178 61.8814C55.5696 61.7769 55.1517 62.0447 54.8186 61.9598C54.7206 61.9337 54.6619 61.692 54.4855 61.581C54.0219 61.2871 53.3949 60.8234 53.1402 61.5418H52.9443C52.9378 61.4243 52.3369 60.8691 52.2847 60.8561C51.9843 60.7712 51.4618 60.9083 51.083 60.8561C50.8675 60.8234 50.7043 60.6275 50.3973 60.5818C49.7247 60.4838 48.8757 60.5818 48.3271 60.9997C48.1704 61.1173 48.1181 61.3981 47.9875 61.483C47.8177 61.5875 45.8781 61.6071 45.5842 61.5483C45.3164 61.4961 45.2446 61.2936 45.1009 61.2283C44.4479 60.954 44.4805 61.5092 44.3172 61.5549C43.7817 61.6986 43.6642 61.2936 43.4552 61.2153C43.305 61.163 43.1221 61.3002 42.985 61.2545C42.7695 61.1891 42.8217 60.5948 41.8944 60.8887C41.5417 60.9997 41.509 61.0455 41.0519 61.163C40.8299 61.2218 41.0323 61.6659 40.216 61.5549C39.5303 61.4634 39.5498 60.9018 39.367 60.8561C39.0274 60.7712 36.4282 60.8299 36.2192 60.9867C36.0624 61.1042 36.0298 61.4438 35.7947 61.5222C35.4616 61.6398 34.9457 61.4765 34.58 61.5483C34.273 61.6071 34.1816 61.888 33.9988 61.9402C33.6983 62.0251 33.4828 61.7312 33.202 61.9402C31.9155 62.9003 32.7906 65.8784 30.7922 65.4474C30.642 65.5715 30.6877 65.898 30.5832 66.0678C29.8387 67.2891 27.6705 68.0075 28.2126 69.8297C28.2321 69.895 29.0093 70.8616 29.0681 70.9008C29.3358 71.0902 29.9954 71.0771 30.335 71.3514C30.6746 71.6257 30.9881 71.9588 31.4387 72.3115C31.7261 72.5335 31.5824 72.8731 32.2355 72.958C33.4763 73.1278 33.1694 72.3833 33.7571 72.2658C34.4363 72.1286 34.6845 72.2462 35.1286 72.6903L36.082 72.2527C36.1865 72.5466 36.9114 73.0038 37.1792 72.9646C37.3098 72.945 37.2968 72.5988 37.4731 72.5531C37.6102 72.5205 37.9759 72.7295 38.2829 72.6772C38.5768 72.6315 38.6747 72.318 38.9751 72.2592C39.5825 72.1482 40.745 72.1221 41.287 71.9849C41.4437 71.9457 41.4176 71.6388 41.5939 71.5931C42.1229 71.4559 42.4691 71.8804 42.7107 71.9523C42.8805 72.0045 43.7948 72.2331 43.9254 72.2462C44.3172 72.2984 45.1728 72.3049 45.5581 72.2462C46.3483 72.1221 46.5965 71.2339 47.3932 71.0575C48.732 70.7571 50.8479 71.2012 52.2782 71.0249L53.4341 69.6664C53.9631 69.5097 54.1198 70.1236 54.368 70.0583C54.7272 68.8174 56.0464 69.6011 56.9541 69.3725C57.1109 69.3333 57.1239 68.9937 57.2545 68.9545C57.457 68.9023 57.6137 69.3007 57.9468 69.366C58.2537 69.4248 59.2725 69.4182 59.5991 69.379C59.7623 69.3595 60.3762 68.7455 60.6962 68.6868C61.0815 68.6084 65.444 68.6019 65.751 68.6868C65.8751 68.7194 65.8881 68.9415 65.9991 69.0133C66.4041 69.2745 66.7894 69.7317 66.8351 69.7644C67.1224 69.9276 67.7233 69.4378 67.9779 70.0713C68.0955 70.3587 68.102 71.3318 68.0563 71.6584C67.9518 72.416 67.6318 72.8862 67.769 73.8593C67.8147 74.1793 68.0106 74.3492 68.0563 74.6692C68.1804 75.577 67.9322 76.746 68.0629 77.6865L68.6049 77.9935C68.6637 78.7772 68.5788 79.3976 68.2392 80.0965C68.1282 80.3316 67.8277 80.3903 67.769 80.7365C67.6841 81.2329 67.9975 81.4092 68.0563 81.8206C68.1086 82.1864 68.1086 83.9693 68.0237 84.2763C67.8865 84.7465 67.2204 84.7139 67.2269 84.8576C68.2653 85.5694 67.5992 86.2683 67.4947 87.052C67.4424 87.4373 67.4555 88.5476 67.6057 88.8807C67.782 89.2856 68.1347 89.2399 68.0629 89.9518C68.0302 90.2522 67.8212 90.4089 67.782 90.644C67.6384 91.4604 67.6906 92.4727 67.4686 93.3544C67.2988 94.0271 66.5673 94.1186 66.4628 94.2753C66.4106 94.3602 65.862 96.0517 65.8489 96.1497C65.7967 96.535 66.0775 96.7244 66.1298 97.0902C66.1755 97.4102 66.1755 98.5792 66.1167 98.8797C66.0579 99.1801 65.3983 99.8136 65.3004 100.401C65.1371 101.394 65.5877 102.909 64.8236 103.778C64.6146 104.013 64.2555 104.013 64.2097 104.059C64.1052 104.176 64.2816 104.914 64.1183 105.274C64.0204 105.483 63.0146 106.279 62.7403 106.514C62.6032 106.632 62.3877 106.606 62.2505 106.743C62.2113 106.782 61.7477 107.631 61.7215 107.697C61.6432 107.945 61.9436 107.834 61.9828 107.977C62.3811 109.519 62.4334 110.766 61.5517 112.196C61.2905 112.621 60.6701 113.091 60.4154 113.535C60.0236 114.221 59.9517 115.612 58.8154 115.364C58.7435 115.645 57.8554 117.219 57.7248 117.31C57.3394 117.571 56.4578 117.199 56.3664 117.251C56.3076 117.284 55.7917 118.153 55.5435 118.329C54.9688 118.741 54.4594 118.492 53.9696 118.636C53.7802 118.695 53.6757 118.956 53.4994 119.002C53.2447 119.074 52.9965 118.865 52.8463 118.897C52.6831 118.93 52.6896 119.256 52.5394 119.296C52.2324 119.374 49.4047 119.354 48.9867 119.296C48.5687 119.237 48.4642 118.956 48.314 118.93C48.0463 118.891 47.4454 119.145 47.0863 118.995L46.9295 118.878C46.6814 117.944 46.4528 117.265 45.4928 116.879C46.0414 116.546 46.172 115.749 46.4463 115.364C46.6487 115.077 48.5034 112.836 48.6536 112.752C48.8038 112.667 48.9932 112.817 49.1173 112.791C49.3916 112.725 49.803 112.144 50.443 112.418L50.1687 111.458C51.0373 111.485 51.5337 110.538 50.9916 109.813C51.1549 109.8 51.292 109.734 51.403 109.61C52.6569 108.18 54.5508 104.856 54.8317 102.994C54.9166 102.433 54.7729 101.773 54.8317 101.211C54.9884 99.8659 55.1647 100.238 54.8447 98.7295C54.59 97.5343 55.0472 97.8151 53.8847 97.0706C53.7019 96.953 53.8716 96.7571 53.4014 96.731C52.4022 96.6787 51.9124 97.6714 51.3247 98.2527C51.1679 98.4094 50.8545 98.4094 50.7761 98.527C50.6585 98.7033 50.75 99.0756 50.639 99.3564C50.4888 99.7287 49.7965 100.258 49.5483 100.604C49.3459 100.898 49.2871 101.277 49.0389 101.61C48.7124 102.047 47.5695 103.399 47.132 103.549C46.2111 103.869 46.1263 103.308 45.8389 103.269C45.7671 103.262 44.6699 103.203 44.6046 103.21C44.487 103.223 44.5001 103.543 44.3042 103.608C44.0103 103.713 43.5793 103.549 43.2462 103.654C43.0372 103.719 42.9458 104.02 42.665 104.039C42.4821 104.052 42.2601 103.889 42.1229 103.915C42.0772 103.928 41.4503 104.425 41.3523 104.503C41.1695 104.66 40.758 105.26 40.7123 105.274C40.5099 105.326 39.1841 105.313 38.9555 105.274C38.6617 105.215 38.5572 104.94 38.4135 104.914C38.2241 104.888 37.891 105.058 37.5776 105.006C37.2641 104.954 37.3033 104.692 37.1204 104.594C36.8265 104.431 36.0167 104.085 35.7294 103.98C35.5661 103.922 35.3245 104.098 35.1677 103.98C34.9914 103.85 34.8347 102.811 34.7302 102.694C34.6779 102.628 33.5743 101.936 33.3783 101.779L32.144 100.388C31.6869 100.578 30.8379 100.303 30.5832 100.349C30.4722 100.369 29.5187 101.538 29.0093 101.44C28.9244 101.949 29.0485 102.485 28.9832 102.994C28.9048 103.582 28.3562 104.862 28.0362 105.345C27.2591 106.495 25.9072 107.572 25.1431 108.781C24.8884 108.937 22.1325 108.885 21.7145 108.768C20.8329 108.533 21.1594 108.258 20.9765 107.716C20.5978 106.612 20.1341 105.894 19.8794 104.692C19.8467 104.542 19.6443 104.411 19.6443 104.242C19.6443 104.072 20.0753 103.445 19.9839 103.066L20.1341 102.948C20.3104 102.962 20.4933 103.086 20.6696 103.073C21.2182 103.027 22.4068 101.061 22.6288 100.493C23.2362 98.9384 24.5423 94.7912 24.3203 93.2369C24.157 92.0809 23.8501 90.9314 24.0329 89.6644C24.0786 89.3313 24.3137 89.1419 24.3333 88.848C24.3594 88.4496 24.0852 88.2602 24.0329 87.8945C23.8631 86.6797 24.0786 84.4331 24.3529 83.2509C24.4313 82.9048 24.8101 82.5913 24.8754 82.1211C24.9733 81.3635 25.0256 80.116 24.3529 79.6458C24.7186 78.8621 24.9472 78.0261 24.8819 77.1575L24.3268 76.7526C24.686 76.4652 24.6533 75.799 24.6076 75.368C24.5358 74.7149 24.0329 73.5197 23.6933 72.9842C23.3537 72.4486 23.1251 72.1417 22.4721 72.2853C22.1651 72.3572 22.0802 72.6184 21.9039 72.6576C21.6296 72.7164 20.5847 72.9319 20.3431 73.0429C20.2647 73.0756 19.0304 73.9508 18.9716 74.0095C18.8084 74.1728 18.299 75.2308 17.8745 75.6619C16.4247 77.1314 16.3202 76.1778 14.9422 76.5828C14.1258 76.8244 13.7144 77.9086 13.3291 78.1371C13.0744 78.2874 12.7348 78.1502 12.4605 78.2351C12.2646 78.2939 12.1797 78.5617 11.8793 78.6204C11.0172 78.7902 10.534 78.5355 10.1029 77.7845C9.31926 76.4064 9.97886 73.6895 9.75681 72.0829C9.7111 71.7563 9.47599 71.5865 9.46946 71.4037C9.46946 71.3188 9.72416 71.3514 9.75028 71.2469C9.81559 70.9791 9.69804 70.6069 9.75028 70.3064C9.83518 69.8427 11.2981 68.6672 11.5397 68.099L13.7471 68.1186C13.8254 67.6549 14.1454 66.7013 14.5634 66.4531C14.7136 66.3682 14.903 66.5185 15.0271 66.4923C15.2165 66.4466 15.3014 66.1788 15.5953 66.1201C16.0328 66.0286 16.6532 66.2246 17.0777 66.0939C17.3651 66.0025 17.4826 65.5584 17.7112 65.3559C17.8941 65.1927 18.1488 65.1731 18.3316 65.0163C18.5145 64.8596 18.6843 64.3893 18.9651 64.2718C19.4353 64.0759 19.9708 64.2914 20.4476 64.1673C20.9831 63.5795 21.5774 62.5672 22.1259 62.0578C22.3676 61.8292 23.1382 61.7051 23.2296 61.1042C23.2296 60.6405 22.3023 60.5034 22.0019 60.2617C21.7994 60.0985 21.6557 59.6739 21.4468 59.5956C21.2835 59.5303 20.9896 59.7197 20.7153 59.6413C20.0165 59.4388 20.5716 59.3735 19.4484 59.3996C18.4492 59.4192 19.0043 59.4192 18.3186 59.6348C18.0247 59.7262 17.2018 59.7197 16.9602 59.5368C16.7708 59.3931 16.7447 58.9621 16.4247 58.9686C15.6671 59.4584 14.5308 60.6667 13.5511 60.3336C13.3422 60.2617 13.4271 59.9482 13.1267 59.9287C12.5846 59.8895 12.5258 60.2683 12.2842 60.3205C12.1536 60.3466 11.9707 60.1834 11.8205 60.2813C11.7226 60.3466 11.7226 60.6209 11.6115 60.6405C11.2523 60.7058 11.1217 60.2944 10.9389 60.2748C10.7756 60.2552 10.5274 60.425 10.2662 60.3466C10.0507 60.2813 10.005 59.9417 9.83518 59.8046C9.66538 59.6674 9.42375 59.6544 9.20823 59.4715C8.77721 59.0862 8.18292 57.4469 8.10455 56.8656C8.06536 56.5782 8.04577 54.2924 8.13067 54.1944C8.16332 54.1618 8.48333 54.1356 8.66619 53.9789C9.23436 53.5021 9.15599 53.0907 10.1095 52.8033C10.3054 52.7445 10.5731 52.8425 10.7625 52.8033C10.9193 52.7641 10.9062 52.4441 11.0695 52.4049C11.6442 52.2612 13.9691 52.7053 14.9095 52.5225C15.3406 52.4376 15.7389 51.8171 16.4247 51.8171C17.1887 51.8171 17.5871 52.5159 17.8026 52.5355C18.1879 52.5747 18.2924 52.1763 18.632 52.111C18.9716 52.0457 19.3635 52.1567 19.7227 52.098C20.1994 52.0261 22.2696 50.4717 22.3872 50.0864C22.6092 49.3419 22.237 49.0872 22.1455 48.5973C22.0933 48.3361 22.1913 48.0291 22.1325 47.7875C21.6427 45.8674 20.2059 44.1562 21.1137 42.0728C21.1921 41.8834 21.6623 41.5634 21.8451 41.2891C22.0802 40.943 22.2304 40.3552 22.4851 40.1331C22.8835 39.7805 23.6019 39.8262 23.9741 39.7347C24.0786 39.7086 24.0198 39.5584 24.6729 39.4147C24.8819 39.369 24.9864 39.0359 25.2411 39.0359L25.4305 39.062C25.5219 39.8523 26.9978 39.885 27.553 39.7347C27.7097 39.6956 27.6836 39.3886 27.8664 39.3429C28.5391 39.1731 28.7546 38.9445 29.2705 38.8008C29.5448 38.7224 29.9301 38.8269 30.0999 38.7355C30.1848 38.6898 30.8248 37.684 31.0208 37.5207C31.4322 37.168 32.1244 37.2138 32.5098 37.1223C32.6665 37.0831 32.6534 36.7631 32.8167 36.7239C33.1628 36.639 34.8673 36.9721 35.5596 36.8415C35.86 36.7827 36.3041 36.2994 36.6959 36.1949C36.9702 36.1231 37.3686 36.2276 37.5253 36.1296C37.5972 36.0839 37.6102 35.8031 37.767 35.7639C37.9041 35.7312 38.2698 35.9402 38.5768 35.888C38.8706 35.8422 38.9621 35.5353 39.2756 35.47C39.478 35.4308 40.7188 35.4308 40.8299 35.4961L40.8103 35.4569ZM35.5073 45.2861C35.442 45.2469 35.429 45.0053 35.2526 44.94C34.6845 44.731 33.4632 45.1881 33.0714 44.2346C32.9342 44.5481 32.5163 44.5612 32.3595 44.6918C32.1375 44.8812 31.6608 45.7106 31.491 45.8151C31.1383 46.0306 30.2697 45.7759 29.7995 45.9131C29.695 45.9457 28.0754 46.9058 27.984 46.9842C27.4289 47.4152 27.1415 48.421 26.8738 49.048C27.5334 49.8774 27.9775 50.4652 29.1922 50.1517C29.3489 50.1125 29.3358 49.7925 29.4991 49.7533C29.6689 49.7076 30.655 49.9688 31.1383 49.8709C31.5106 49.799 31.6412 49.3092 32.2159 49.4529L32.6534 49.8709C33.0845 49.2178 33.7441 49.5509 34.4037 49.4202C35.5269 49.1982 36.4216 46.7164 36.1343 45.7106C35.9971 45.2339 35.6314 45.3645 35.5073 45.2926V45.2861ZM56.5166 73.6569L55.7656 74.0683C55.7525 74.5777 54.3549 76.2431 53.9696 76.2758C53.7737 76.2954 53.4602 76.0864 53.3753 76.1452C53.3492 76.1648 53.2055 76.537 53.0227 76.6938C52.0039 77.5755 51.5206 77.0661 50.3908 77.2228C50.0839 77.2685 49.9336 77.4514 49.7051 77.4971C49.4112 77.5559 49.0847 77.4449 48.7777 77.5298C48.4185 77.6277 47.8177 78.431 47.5761 78.5355C47.4063 78.6074 47.2365 78.4768 47.1189 78.5029C46.812 78.5813 46.7336 79.0711 46.0283 78.849C45.754 78.7641 45.6822 78.3396 45.1989 78.4833L44.1997 79.5609L43.3834 78.8751C43.2723 79.3127 42.9523 79.0711 42.6389 79.2278C42.0511 79.5217 41.5548 80.0507 40.7776 80.1291C39.6674 80.2336 39.2037 78.9927 38.2306 78.738L37.7866 79.8091C37.3751 79.7568 37.0878 80.0377 36.7808 80.1095C36.4935 80.1748 35.122 80.3316 34.9326 80.4557C34.7171 80.5928 34.7694 81.0239 33.9726 80.8018C33.7767 80.9651 35.0502 81.7423 35.2722 81.7684C36.3955 81.9186 36.5196 81.1871 36.9441 81.1088C37.0616 81.0892 39.158 81.1088 39.269 81.1284C39.4192 81.1545 39.5107 81.4027 39.7066 81.4614C40.5948 81.7227 40.3596 81.7292 41.078 82.1407C43.0503 83.2836 42.7499 82.4542 44.0887 81.1022C44.7744 81.1871 45.8911 81.3373 46.5442 81.2067C46.8446 81.1479 46.9295 80.8802 47.1254 80.8214C47.3932 80.743 47.6806 80.8475 47.8961 80.8018C48.0528 80.7626 48.0267 80.4557 48.203 80.4099C48.3206 80.3773 48.7451 80.5275 48.9606 80.4557L49.1565 80.8018L49.5026 80.3903H49.6985C49.9271 80.4883 50.6324 81.2002 50.6977 81.2198C51.0243 81.3047 51.4096 81.1088 51.6382 81.1349C52.461 81.2459 52.4806 84.0934 52.3957 84.7269C52.2651 85.6935 51.7035 86.523 51.0177 87.2022C50.8153 87.4047 49.4569 88.3125 49.3916 88.3908C49.3132 88.4823 49.3785 88.7501 49.2871 88.9003C48.9802 89.3836 48.5034 89.7428 48.2357 90.2587C47.0079 90.311 45.9956 90.1738 44.8332 90.6375C44.6699 90.7028 44.5589 91.0294 44.3499 90.9771C44.1605 90.9314 44.0364 90.1738 43.5466 90.3044C42.9262 90.8792 42.3515 91.578 41.5156 91.8654C41.3197 91.9307 41.1172 91.7739 40.9735 91.8654C40.8886 91.9241 40.8756 92.1397 40.8103 92.1788C40.7123 92.2376 39.1972 92.2507 38.9817 92.2115C38.6878 92.1527 38.5833 91.8784 38.4331 91.8588C38.1392 91.8131 37.5123 92.0352 37.0551 91.9372C36.7482 91.8784 36.6437 91.5845 36.4869 91.5584C36.3041 91.5257 36.0494 91.7151 35.8404 91.676C35.6445 91.6433 33.9857 88.6521 33.9596 91.2514H33.411C33.3653 91.6302 33.842 91.7347 33.9334 92.0352C34.1555 92.7862 33.9139 93.5765 33.411 94.1381C34.1424 93.8573 34.26 94.4974 34.5735 94.5561C35.9318 94.8108 36.3171 94.0271 37.3359 93.8704C37.8519 93.792 38.6682 93.9749 39.0862 93.8704C39.2168 93.8377 39.1188 93.7006 39.7849 93.5504C40.0462 93.4916 40.1311 93.0475 40.7645 93.1716C40.8821 93.3675 40.8299 93.5569 40.967 93.7985C41.8944 95.4313 42.7891 94.0663 43.9385 93.8704C44.3564 93.7985 45.6887 93.9683 46.0283 94.1708C46.1067 94.2165 46.1132 94.4778 46.283 94.5365C46.5573 94.628 47.4977 94.5888 47.9548 94.8566C48.0267 94.9023 48.0332 95.1505 48.2095 95.2158C48.5687 95.3464 48.941 95.1178 49.163 95.1505C49.3328 95.1766 49.4438 95.4639 49.5875 95.5031C49.8096 95.5554 49.9402 95.1635 50.1361 95.1309C50.2863 95.1047 50.4953 95.255 50.6716 95.2419C50.959 95.2158 51.0439 94.9153 51.2528 94.8566C51.5206 94.7782 51.808 94.8827 52.0235 94.837C52.1802 94.7978 52.1671 94.4778 52.3304 94.4386C52.3892 94.4255 53.4994 94.4647 53.5712 94.4778C53.7541 94.5039 53.9566 94.9807 54.3223 94.837C54.1655 94.3014 54.6619 94.1512 54.7925 93.8638C55.0211 93.361 55.0537 92.7797 55.2235 92.3682C55.328 92.107 55.7394 91.7609 55.9811 91.5911C56.0464 91.1861 55.5958 91.0751 55.4913 90.8465C55.3868 90.6179 55.4455 90.3632 55.3868 90.1281C55.3476 89.9714 55.1517 89.8669 55.1386 89.684C55.1386 89.6122 55.3541 89.6383 55.4064 89.5011C56.1378 87.7247 56.1378 86.3401 56.5558 84.629C57.0456 82.6305 58.2603 81.3439 57.888 79.0972C57.8097 78.627 57.137 77.6865 57.0978 77.4122C57.0782 77.2489 57.3068 77.0856 57.346 76.8767C57.4701 76.2236 56.3207 74.4994 56.5166 73.6569Z" fill="black"/>
<path d="M176.094 39.0555C176.172 39.1012 176.224 39.2906 176.381 39.3821C177.08 39.7674 177.674 39.5976 178.04 40.4793C178.797 42.3145 178.399 45.5735 177.334 47.2716C176.877 47.9965 176.087 48.6561 175.597 49.3876C175.369 49.4986 172.874 49.5117 172.495 49.4594C171.966 49.3876 170.758 48.8717 170.445 48.8194C170.04 48.7541 169.021 49.1002 168.583 48.8325C168.414 48.728 168.231 48.199 167.963 48.0749L167.754 48.1402C167.617 48.7149 167.179 48.3884 166.755 48.5124C166.52 48.5843 166.428 48.95 166.043 48.9108C165.86 48.8912 165.403 48.2381 164.946 48.2055C164.75 48.4994 164.56 48.9566 164.116 48.9108C163.444 48.2251 162.947 48.1663 162.066 48.0683L161.641 48.4863L161.445 48.1402C161.23 48.212 160.805 48.0683 160.688 48.0945C160.466 48.1532 160.668 48.5973 159.852 48.4863C159.316 48.4145 159.29 48.0814 158.879 47.8267C158.578 48.0096 158.134 47.7875 157.951 47.8267C157.768 47.8659 157.697 48.1271 157.507 48.1728C157.187 48.2447 156.658 48.3622 156.325 48.5124C156.038 48.6431 156.044 48.8455 155.613 48.9043C154.555 49.0545 154.327 48.8717 153.687 48.1271L150.532 48.0945C150.408 48.1271 149.174 49.8187 148.893 50.0864C148.763 50.2105 148.443 50.1779 148.247 50.4718C147.561 51.4906 147.182 52.9144 147.012 54.0703C146.954 54.4687 147.234 54.6059 147.287 54.8867C147.45 55.788 147.411 57.0289 147.607 58.002C147.75 58.7008 148.188 58.9751 148.73 59.3605L150.454 59.2756L151.094 58.2633C151.231 58.211 152.812 58.198 152.975 58.2437C153.138 58.2894 153.119 58.8576 154.098 58.6551C154.399 58.5963 154.477 58.3351 154.679 58.2698C155.104 58.1392 155.457 58.2698 155.979 57.9563C156.149 57.8583 156.175 57.6036 156.306 57.571C156.521 57.5187 157.253 57.8126 157.782 57.6559C158.578 57.4208 158.709 56.317 159.734 57.2836L160.159 56.8591C160.57 57.0093 161.21 57.1007 161.635 56.9701C161.876 56.8983 162.013 56.5848 162.216 56.4476C163.333 55.6639 164.704 55.7488 165.801 54.8149C165.997 54.6451 166.049 54.423 166.213 54.2532C166.428 54.3316 166.644 54.3969 166.885 54.4034C167.891 54.423 169.955 54.1879 170.751 54.312C170.902 54.3381 171 54.5863 171.183 54.6451C171.738 54.8149 172.273 54.3512 172.515 55.0892C172.887 56.2191 172.724 56.8787 172.88 57.891C172.913 58.1065 173.109 58.2698 173.155 58.5768C173.233 59.1384 172.978 60.4381 172.848 61.0324C172.737 61.5222 171.881 62.1623 171.418 62.2276C171.111 62.2733 170.647 62.0643 170.562 62.11C170.523 62.1362 170.497 62.3451 170.392 62.417C169.569 62.9787 168.982 63.3966 168.041 63.893C167.29 64.2914 167.329 64.0171 166.624 64.1542C166.324 64.213 165.925 64.6702 165.579 64.7682C165.2 64.8727 164.665 64.9576 164.227 65.1927C164.044 65.2906 163.483 65.787 163.431 65.7935C162.627 65.9699 161.295 65.6694 160.426 65.7935C160.061 65.8458 159.884 66.094 159.473 66.094C159.062 66.094 158.879 65.8458 158.519 65.7935C156.632 65.5323 154.079 66.0678 152.178 65.8066C151.754 65.7478 151.656 65.4604 151.506 65.4409C151.427 65.4278 150.069 65.3821 149.99 65.4017C149.827 65.4409 149.834 65.7609 149.683 65.8001C149.383 65.8784 148.861 65.7478 148.482 65.8001C147.528 65.9437 146.588 66.2899 145.883 66.7079C144.923 67.2695 144.72 67.4459 143.688 67.7463C143.649 67.7594 142.963 68.1316 142.937 68.1643C142.754 68.3798 142.421 70.1563 142.271 70.6004C142.043 71.2926 141.592 70.8551 141.324 71.1555C141.265 71.2273 140.488 72.6838 140.469 72.7752C140.253 73.7222 140.756 74.9957 140.162 75.7664C140.162 75.9231 141.54 76.413 141.762 76.5697C141.886 76.6546 141.964 76.9355 142.238 77.1249C142.656 77.4187 143.238 77.3992 143.427 77.5167C143.505 77.5624 143.512 77.8237 143.682 77.8825C144.132 78.0392 144.27 77.5559 144.629 77.4841C144.857 77.4383 146.477 77.4318 146.66 77.4841C146.79 77.5232 146.803 77.7518 146.908 77.8106C147.228 77.9804 148.025 78.5682 148.09 78.5878C148.475 78.6988 149.03 78.4637 149.305 78.5094C149.363 78.516 149.99 78.9601 150.206 79.0646C150.696 79.2932 150.572 79.1887 151.016 79.4826C151.434 79.7569 152.466 79.4172 152.877 79.476C153.001 79.4956 153.563 79.9854 153.87 80.0703C154.144 80.1487 154.418 80.0573 154.634 80.103C154.784 80.1357 154.725 80.4557 155.065 80.521C155.287 80.5602 155.933 80.5536 156.142 80.4883C156.332 80.4295 156.423 80.1879 156.613 80.1291C157.22 79.9463 158.245 79.9593 158.761 79.8287C158.918 79.7895 158.905 79.4695 159.068 79.4303C159.212 79.3977 159.571 79.6066 159.878 79.5544C160.27 79.4956 160.309 79.0189 161.125 79.1233C161.439 79.1625 161.347 79.4695 161.556 79.5283C161.693 79.5675 161.863 79.4368 162.02 79.4891C162.242 79.5609 162.647 80.0181 163.058 80.0899C163.705 80.201 164.332 79.6458 165.253 79.8222C165.677 79.9005 165.586 80.41 166.082 80.5079C167.173 80.7169 169.047 80.4165 170.209 80.4296C170.771 81.1414 171.862 80.5798 172.521 80.8084C172.711 80.8737 172.698 81.1676 172.841 81.2002C173.279 81.3112 174.03 81.0631 174.33 81.1153C174.481 81.1414 174.572 81.3896 174.768 81.4484C174.905 81.4876 175.081 81.3635 175.218 81.4223C175.858 81.6835 176.12 82.3562 176.786 82.5848L178.934 85.2625C178.974 86.1311 177.844 86.9018 177.622 87.3916C177.459 87.7574 177.628 88.1623 177.524 88.528C177.445 88.7958 176.048 89.8146 175.754 89.9322C175.552 90.0106 175.362 89.8342 175.212 89.9322C174.356 90.4808 173.703 90.3632 172.672 90.5592C172.365 90.6179 172.273 90.9314 171.979 90.9772C171.672 91.0229 171.307 90.8204 171.169 90.8531C171.019 90.8922 171.006 91.1665 170.928 91.2188C170.784 91.3037 170.516 91.2123 170.373 91.2841C170.066 91.4343 169.556 91.9176 169.223 91.9437C169.014 91.9633 168.276 91.5519 168.205 91.3298C167.179 90.8204 166.396 90.9902 165.24 90.9837C165.018 90.9837 164.671 90.8335 164.567 90.8596C164.404 90.8988 164.41 91.2188 164.26 91.258C163.94 91.3429 163.418 91.1861 163.052 91.258C162.751 91.3168 162.666 91.6041 162.36 91.6629C161.883 91.7609 160.91 91.3886 160.799 91.7543C160.727 92.0091 160.884 92.3421 160.635 92.5577C160.211 92.9299 159.048 92.9887 158.5 92.9103C158.075 92.8516 157.977 92.5707 157.827 92.5446C157.429 92.4858 156.541 92.7797 156.051 92.6099C155.855 92.5381 155.862 92.2246 155.75 92.205C155.398 92.1462 155.267 92.5577 154.934 92.623C154.653 92.6752 153.112 92.6622 152.942 92.5511C152.857 92.4924 152.844 92.2834 152.772 92.2442C152.217 91.9111 151.434 91.9437 150.807 91.9437C150.552 91.9437 150.108 91.7935 149.997 91.8197C149.775 91.8719 149.553 92.6426 149.168 92.623C149.03 92.5903 148.828 92.0482 148.619 91.9176C148.521 91.8588 148.129 91.8327 147.711 91.6107C146.229 90.8269 144.916 91.7086 143.532 90.8857C142.624 90.8596 140.305 91.2057 139.561 90.9445C139.332 90.8661 139.306 90.5461 139.13 90.4155C138.954 90.2849 138.699 90.2457 138.496 90.0889C138.203 89.8538 138.333 89.377 137.647 89.6252C137.451 89.6971 137.34 89.9452 137.177 89.991C136.922 90.0628 136.674 89.8538 136.524 89.8865C136.361 89.9191 136.367 90.2522 136.217 90.2849C135.793 90.3828 135.322 90.2783 134.898 90.5396C134.558 90.4547 134.18 89.6775 134.082 89.6187C133.931 89.5338 133.683 89.6187 133.527 89.5599C133.337 89.4816 133.239 89.2856 133.154 89.253C132.978 89.1877 132.351 89.3836 131.979 89.3117C131.672 89.253 131.567 88.9591 131.411 88.9329C131.273 88.9068 131.051 89.0832 130.973 89.0244C130.914 88.9787 130.921 88.7174 130.731 88.6456C130.562 88.5868 129.451 88.5868 129.236 88.626C128.935 88.6848 128.857 88.9525 128.661 88.9983C128.544 89.0244 128.354 88.8872 128.197 88.9591C128.021 89.044 127.975 89.3379 127.845 89.4424C125.762 91.0751 125.069 93.0083 123.319 94.8174C122.947 95.2027 121.863 95.8428 121.81 95.9211C121.628 96.1824 121.308 97.1294 121.112 97.4233C121.04 97.5343 120.413 98.2984 120.367 98.3246C120.034 98.527 119.388 98.2658 119.12 98.4552C118.996 98.5466 118.846 99.4022 118.571 99.6895C118.526 99.7353 117.533 100.362 117.474 100.382C117.285 100.454 117.108 100.31 116.939 100.382C116.677 100.493 116.684 100.872 116.129 100.604C115.874 100.976 115.071 102.165 114.731 102.308C114.183 102.544 113.66 102.204 113.432 102.263C113.262 102.302 113.281 102.622 113.125 102.661C112.935 102.707 112.674 102.615 112.465 102.661C112.406 102.674 111.485 102.975 111.433 102.994C111.283 103.066 110.676 103.902 110.232 104.013C109.97 104.078 109.722 103.876 109.585 103.909C109.428 103.941 109.454 104.235 109.265 104.3C108.729 104.496 107.645 104.496 107.312 104.647C106.94 104.816 106.744 105.652 105.928 105.881C105.706 105.94 105.477 105.783 105.412 105.829C105.353 105.868 105.347 106.09 105.255 106.155C104.896 106.397 103.564 106.096 103.015 106.253C102.545 106.39 101.33 107.494 100.782 107.599C100.533 107.644 99.0771 107.644 98.8812 107.579L97.8951 106.501L97.4575 106.919C96.8501 107.07 96.602 106.443 96.3865 106.501C96.2559 106.534 96.2428 106.874 96.0861 106.919C94.9497 107.207 93.6697 106.207 93.6958 105.058C93.6958 104.745 94.166 103.784 94.2509 103.406C94.3293 103.066 94.473 102.367 94.5318 102.028C94.6167 101.518 94.3489 101.427 94.2575 101.009C95.0803 101.035 95.5897 99.8332 96.1775 99.2781C97.673 97.8674 99.6061 96.94 101.591 96.4763C101.748 96.4371 101.735 96.1171 101.898 96.0779C102.212 95.9995 103.551 96.3587 104.197 96.1693C104.694 96.0256 105.223 95.2484 105.392 95.157C105.595 95.0525 105.869 95.3203 106.215 95.1701C106.516 95.0394 106.757 94.4451 107.058 94.2165C107.201 94.112 107.521 93.988 107.711 93.903C108.233 93.6549 109.167 93.4916 109.644 93.0932C110.121 92.6948 111.374 90.7943 111.721 90.631C112.223 90.4024 113.04 90.7224 113.51 90.4939C113.719 90.3894 114.548 89.1289 114.875 88.835C115.293 88.4562 116.292 88.0121 116.762 87.6333C117.448 87.0847 118.173 86.1181 118.656 85.3278C118.774 85.1319 118.689 84.7531 118.957 84.6747C119.055 84.6486 119.237 84.7923 119.42 84.7204C120.073 84.4592 120.759 81.9839 121.445 81.788C121.765 81.6966 122.072 81.8729 122.379 81.6182C122.45 81.5594 123.332 80.4622 123.352 80.3904C123.482 79.9593 122.993 79.4695 123.339 79.4238C123.574 79.3911 124.044 79.6915 124.547 79.5348C124.958 79.4042 125.219 79.2736 125.781 79.1168C126.153 79.0123 126.441 78.5094 126.911 78.4702C126.976 77.9608 127.309 77.569 127.492 77.1183C127.597 76.8636 127.505 76.5632 127.688 76.2105C128.211 75.1786 130.274 74.6365 130.013 72.7556L129.739 72.6903C129.517 73.7548 128.74 73.1866 128.309 73.2716C128.119 73.3107 128.041 73.6504 127.61 73.6699C127.388 73.6765 126.937 73.4805 126.872 73.5328C126.813 73.5785 126.212 74.5451 126.14 74.5908C125.468 74.9892 124.717 73.3369 123.861 73.5393C122.875 75.1917 120.85 76.1713 120.158 78.0261C119.988 78.4768 120.354 78.9535 119.499 78.8948C118.865 78.849 118.957 78.32 118.656 78.2155C118.323 78.1045 117.886 78.2939 117.513 78.1241C117.05 77.9151 117.311 77.2294 116.416 77.582C115.521 77.9347 114.966 79.0254 113.68 78.5878L113.118 76.8767L112.276 76.8963C112.191 76.0407 111.76 76.1909 111.401 75.8448C110.728 75.1982 110.408 74.6039 110.434 73.6438C108.488 73.5132 109.049 72.527 108.841 71.2535C108.808 71.0445 108.612 70.8943 108.579 70.6918C108.488 70.0975 108.671 69.4052 108.534 68.8109C108.442 68.4255 107.965 67.4851 107.469 67.7398V67.5373C108.07 67.2369 108.037 66.3291 108.37 65.9568C108.501 65.8131 108.729 65.8523 108.847 65.7152C108.991 65.5519 109.5 64.7616 109.546 64.729C109.631 64.6767 109.859 64.8792 110.075 64.7943C110.134 64.7747 110.578 64.3241 110.63 64.2457C110.878 63.8669 111.165 63.0962 111.394 62.6717C111.557 62.3713 111.91 62.2211 111.864 61.7769C111.368 60.9867 111.361 59.9287 110.885 59.1776C110.29 58.2437 109.97 58.8576 109.056 58.5572C108.795 58.949 107.809 59.6087 107.358 59.3278C107.293 59.2886 107.286 59.0274 107.11 58.9686C106.313 58.6943 105.96 59.4715 105.582 58.0151C105.34 57.0877 105.412 57.3554 105.066 56.6044C104.517 55.4223 106.241 52.8752 105.301 51.582L106.614 50.0407C106.809 48.8129 107.28 47.5263 107.463 46.3507C107.547 45.7825 107.345 44.9661 107.495 44.4632C107.515 44.3979 108.285 43.4378 108.351 43.3921C108.769 43.1178 109.219 43.3725 109.585 43.2484C109.787 43.1766 109.755 42.8696 109.892 42.8566C109.996 42.8501 110.14 43.0133 110.356 42.9284C111.139 42.628 110.212 41.4263 111.668 41.6026C112.001 41.6418 111.988 42.1578 112.38 42.2753C113.001 42.4582 114.045 42.1774 114.692 42.3014C115.032 42.3668 114.979 42.6802 115.13 42.7194C115.456 42.8043 115.854 42.6019 116.07 42.6345C116.22 42.6541 116.331 42.9415 116.619 42.9937C117.278 43.1178 117.768 42.3994 118.264 42.308C118.532 42.2557 119.956 42.2688 120.119 42.3798C120.217 42.4451 120.224 42.6672 120.276 42.7064C120.361 42.7651 120.576 42.5888 120.713 42.6149C120.766 42.6215 121.419 43.0852 121.641 43.1897C121.863 43.2942 122.144 43.2158 122.287 43.3007C122.437 43.3921 122.3 43.7317 122.94 43.6926C123.371 43.6664 123.424 43.3595 123.652 43.2942C123.972 43.2027 124.344 43.3203 124.69 43.2354C125.011 43.157 125.331 42.6737 125.566 42.6215C126.539 42.3994 126.891 43.4117 127.499 43.9277L131.463 43.9669C131.724 44.0191 131.698 43.6011 131.881 43.5619C132.292 43.4574 133.99 43.8689 134.735 43.6534C135.048 43.5619 136.139 42.6411 136.296 42.6149C136.988 42.4908 136.687 42.8043 137.687 42.3406C138.438 41.9945 138.085 42.1382 138.601 41.7463C138.816 41.583 139.829 41.5504 140.096 41.6157C140.247 41.6549 140.188 41.9684 140.534 42.0337C140.828 42.0859 142.741 42.0794 142.983 42.001C143.185 41.9422 143.264 41.6745 143.564 41.6157C143.793 41.57 145.119 41.5634 145.321 41.6157C145.504 41.6614 145.563 42.3863 146.314 42.321C146.581 42.3668 146.555 41.9553 146.732 41.9096C146.875 41.8704 147.424 42.1055 147.822 42.0271C148.116 41.9684 148.201 41.7071 148.403 41.6418C149.063 41.4393 150.101 41.8639 150.585 40.9495C150.892 41.152 151.421 40.943 151.617 41.0083C151.839 41.0867 152.27 41.57 152.655 41.6157C153.06 41.6679 153.19 41.3936 153.471 41.3479C153.778 41.2957 154.144 41.4067 154.399 41.3479C154.536 41.3153 154.595 40.9822 154.758 40.8516C154.954 40.6948 155.215 40.6687 155.378 40.5119C156.129 39.8001 156.358 38.6375 157.697 39.0098C157.814 39.0425 157.847 39.2906 158.03 39.3886C158.356 39.5649 159.068 40.1005 159.133 40.1136C159.368 40.1658 159.63 40.0025 159.8 40.0221C159.943 40.0417 160.048 40.3291 160.472 40.3879C160.897 40.4466 161.478 40.2572 161.726 40.2964C161.935 40.3291 161.981 40.6622 162.68 40.6687C163.574 40.6687 163.724 40.0678 164.071 40.0025C164.227 39.9699 164.508 40.1136 164.737 40.1136C165.586 40.107 167.179 40.2507 167.904 40.107C167.963 40.094 168.988 39.6956 169.04 39.6629C169.165 39.5845 169.145 39.1274 169.694 39.3494C169.889 39.4278 169.974 39.6433 170.242 39.6956C171.307 39.9046 171.581 38.8465 172.169 38.7355C172.796 38.6179 173.024 39.0294 173.54 39.0294C173.958 39.0294 174.095 38.7943 174.369 38.742C175.01 38.631 175.617 38.742 176.165 39.0621L176.094 39.0555ZM127.969 52.1176C127.551 51.889 127.094 51.6735 126.604 51.8237C126.323 51.9086 126.153 52.3331 125.951 52.418C125.559 52.5747 125.344 52.516 124.788 52.8882C124.638 52.9862 124.488 53.267 124.357 53.2932C124.194 53.3193 123.998 52.9927 123.698 53.0189C123.417 53.045 123.306 53.3715 123.11 53.4238C122.855 53.4956 122.607 53.2866 122.457 53.3193C122.294 53.3519 122.3 53.6785 122.15 53.7177C121.732 53.8287 121.033 53.6066 120.557 53.7438C120.08 53.8809 119.355 54.7561 118.741 54.6777C118.336 54.841 119.277 55.2002 119.368 55.2851C120.295 56.1472 120.622 56.5979 121.843 57.2118C122.888 57.7408 123.855 58.3155 124.899 58.9751C125.108 59.1058 125.487 59.5172 125.781 59.6021C126.695 59.8568 128.72 59.5303 129.745 59.5499L130.731 60.5622C131.293 60.6732 131.927 60.5099 132.482 60.5948C132.736 60.634 132.887 60.843 133.304 60.8757C134.304 60.9475 134.01 60.621 134.389 60.3597C135.205 59.7981 135.91 59.9744 135.727 58.5898C135.682 58.2567 135.427 58.0543 135.427 57.7734C135.427 57.4077 135.917 56.7677 135.982 56.3889C136.041 56.0427 136.041 54.6712 135.917 54.4034C135.897 54.3642 135.447 53.7634 135.407 53.7438C135.022 53.5152 133.938 53.9789 133.024 53.3062C132.867 53.1887 132.821 52.9078 132.678 52.8229C132.625 52.7968 131.711 52.4049 131.652 52.3919C130.855 52.2678 129.255 52.6531 128.341 52.4768C128.034 52.418 128.054 52.1633 127.956 52.111L127.969 52.1176Z" fill="black"/>
<path d="M151.394 189.308C151.127 189.569 152.243 190.458 152.42 190.686C152.583 190.895 152.577 191.248 152.668 191.333C153.517 192.182 154.673 193.116 155.385 194.18C155.457 194.285 156.044 195.474 156.057 195.565C156.266 196.838 155.535 196.956 154.96 197.753C154.81 197.962 154.849 198.249 154.692 198.452C154.49 198.719 153.386 200.019 153.197 200.156C152.034 200.979 151.44 200.071 150.552 199.686C149.135 199.072 148.678 198.915 147.319 197.962C146.444 197.348 145.55 196.577 144.661 195.95C144.524 195.852 144.485 195.624 144.367 195.558C144.087 195.395 142.748 195.082 142.474 195.238C142.173 195.415 141.357 197.165 140.9 197.511C140.077 197.381 139.535 198.739 138.692 198.484C138.47 198.419 138.333 198.04 138.118 198.092C137.922 198.288 137.863 198.523 137.621 198.7C137.151 199.052 133.69 200.052 133.017 200.15C131.43 200.385 130.359 199.47 128.831 199.608C128.583 198.458 129.321 198.073 129.882 197.289C130.908 195.852 132.253 194.631 133.2 193.037C133.82 191.992 133.618 191.47 133.794 190.464C133.879 189.961 134.454 189.4 134.291 188.694C134.088 187.826 133.598 188.198 133.037 188.198C130.555 188.198 128.08 188.178 125.598 188.198C124.54 188.204 125.056 188.387 124.756 188.472C124.201 188.622 123.071 188.329 122.47 188.472C122.366 188.498 122.385 188.72 122.281 188.74C120.459 189.138 118.565 188.975 116.658 189.282C116.201 189.36 115.593 189.191 115.182 189.315C114.966 189.38 114.849 189.707 114.607 189.707C114.365 189.707 114.241 189.38 114.032 189.315C113.778 189.236 111.623 189.23 111.309 189.289C110.937 189.36 110.885 189.778 110.349 189.707C110.023 189.661 109.866 189.23 109.657 189.289C109.552 189.315 109.513 189.583 109.402 189.654C108.729 190.125 108.311 190.321 107.606 190.536C107.299 190.627 107.136 190.836 106.764 190.817C106.522 190.81 106.594 190.588 106.457 190.536C106.28 190.471 106.065 190.569 105.791 190.399C104.876 189.831 104.667 188.198 103.381 187.577C103.198 187.486 102.839 187.721 102.845 187.297C103.165 187.218 103.348 186.5 103.387 186.474C103.707 186.271 104.543 186.206 104.733 186.095C104.772 186.069 105.275 185.39 105.288 185.344C105.353 185.128 105.262 184.723 105.333 184.632C105.366 184.593 105.654 184.593 105.797 184.482C106.052 184.286 106.176 183.946 106.326 183.835C107.508 182.94 109.265 182.196 110.565 181.445C110.728 181.353 110.741 181.118 110.904 181.06C111.361 180.903 111.851 181.046 112.628 180.746C114.039 180.191 114.026 180.413 115.417 180.204C115.763 180.152 116.599 179.721 116.945 179.668C117.683 179.564 118.904 179.819 119.525 179.668C119.681 179.629 119.636 179.277 119.962 179.244C120.439 179.192 120.367 179.623 120.543 179.668C121.314 179.877 121.151 179.152 121.647 179.009C122.144 178.865 122.81 179.12 123.136 179.061C123.306 179.035 123.384 178.767 123.561 178.735C123.698 178.708 123.92 178.885 123.998 178.826C124.077 178.767 124.011 178.493 124.364 178.421C124.958 178.303 125.01 178.676 125.33 178.774C125.768 178.917 126.565 178.382 127.022 178.192C127.224 178.108 127.499 178.186 127.734 178.081C127.943 177.99 127.982 177.69 128.354 177.605C129.138 177.435 129.262 178.068 130 178.16L130.222 178.088L130.366 177.618C130.496 177.494 131.574 177.696 131.913 177.578C132.103 177.513 132.09 177.219 132.233 177.187C132.377 177.154 133.677 177.147 133.827 177.187C134.023 177.232 133.958 177.735 134.395 177.598C134.519 177.559 134.611 177.265 134.761 177.134C134.872 177.036 135.113 177.056 135.224 176.912C135.806 176.129 135.42 174.444 134.715 173.784C134.108 173.771 133.781 173.392 133.161 173.464C132.854 173.503 132.697 173.706 132.469 173.745C131.678 173.875 131.247 173.666 130.555 174.385H127.107C126.976 174.365 126.526 173.882 126.441 173.745C125.579 172.288 124.886 168.984 125.115 167.357C125.37 165.516 125.833 163.707 126.095 161.871C126.441 159.363 126.14 156.999 125.389 154.576L125.82 152.101L125.389 151.951C125.37 151.507 125.455 151.023 125.389 150.592C125.317 150.089 124.978 149.169 124.841 148.529C124.625 147.542 124.24 145.681 124.155 144.682C124.103 144.12 124.246 143.434 124.155 142.892C124.09 142.54 123.613 142.017 123.606 141.782C123.606 141.704 123.861 141.73 123.887 141.625C123.959 141.325 123.809 141.005 123.959 140.619C124.024 140.45 124.664 139.731 124.841 139.574C125.017 139.418 126.656 138.255 126.767 138.216C127.009 138.131 127.845 138.386 128.322 138.249C128.602 138.164 128.753 137.759 128.968 137.661C129.255 137.53 134.715 137.491 135.218 137.589C135.264 137.596 135.969 137.883 136.106 137.935C136.302 138.014 136.341 138.288 136.733 138.288C137.125 138.288 137.171 138.014 137.36 137.935C138.62 137.413 140.371 137.55 141.827 137.576C142.075 137.576 142.389 137.733 142.493 137.726C142.598 137.72 142.611 137.465 142.722 137.4C143.662 136.845 144.374 136.818 145.112 137.667C146.568 137.667 148.534 137.387 149.938 137.576C150.363 137.635 150.467 137.922 150.611 137.942C150.839 137.974 151.166 137.765 151.551 137.883C151.747 137.942 151.832 138.203 152.132 138.268C153.132 138.471 153.315 137.844 153.778 137.844C154.19 137.844 154.255 138.17 154.497 138.242C155.306 138.497 155.3 137.896 155.457 137.857C155.979 137.72 157.017 138.033 157.337 137.968C157.514 137.935 157.618 137.622 157.912 137.583C158.186 137.543 158.435 137.739 158.585 137.733C158.683 137.733 158.807 137.236 159.081 137.112C159.76 136.805 160.185 137.263 160.786 137.328C162.366 137.498 163.724 136.825 165.305 137.067C166.905 138.654 166.52 140.326 165.638 142.161C165.494 142.461 165.102 142.768 165.024 143.056C164.867 143.65 165.083 144.479 164.998 145.093C164.58 148.052 164.9 150.84 164.449 153.753C164.319 154.615 164.423 155.732 164.449 156.49C164.508 158.018 163.953 158.573 163.881 159.651C163.835 160.278 164.129 160.487 164.182 161.022C164.247 161.734 163.953 161.989 163.894 162.538C163.685 164.353 163.979 166.73 164.005 168.579C163.914 169.082 162.157 170.283 161.831 170.793C161.504 171.302 161.308 172.184 160.923 172.772C160.57 173.32 159.976 173.791 159.636 174.372C158.565 174.261 157.475 174.293 156.39 174.293C156.168 174.293 155.829 174.444 155.718 174.417C155.555 174.378 155.561 174.058 155.411 174.019C155.124 173.941 154.679 174.091 154.366 174.019C153.981 173.928 152.968 173.542 152.42 173.464C151.597 173.346 150.493 173.601 149.67 173.464C148.952 173.34 148.802 172.563 148.038 172.785C147.874 172.83 147.796 173.34 147.43 173.444C146.927 173.588 146.19 173.392 145.602 173.751C145.987 174.731 146.242 175.822 146.934 176.638C147.502 176.736 148.436 176.507 148.939 176.638C149.089 176.677 149.03 176.991 149.376 177.056C150.617 177.291 154.255 176.716 155.117 177.193C155.261 177.272 155.28 177.487 155.359 177.526C156.097 177.925 160.008 177.343 161.171 177.605C161.243 177.618 162.066 178.323 162.333 178.395C162.601 178.467 163.006 178.362 163.169 178.454C163.241 178.499 163.248 178.774 163.391 178.8C163.548 178.826 163.992 178.63 164.364 178.702C164.632 178.754 165.39 179.283 165.631 179.361C166.056 179.499 166.448 179.27 166.709 179.309C166.774 179.316 167.558 179.819 167.839 179.904C168.773 180.178 170.177 180.204 171.019 180.844C171.248 181.02 171.346 181.373 171.535 181.432C171.783 181.51 172.077 181.406 172.312 181.458C172.423 181.484 172.345 181.706 172.606 181.739C173.194 181.817 174.768 181.595 175.336 181.425C175.512 181.373 175.61 181.131 175.806 181.073C177.027 180.707 178.321 180.746 179.633 180.498C180.463 180.341 180.77 180.87 181.031 181.562C181.592 183.078 180.75 187.16 179.705 188.407C179.124 189.099 178.105 189.465 177.413 189.896C177.328 189.948 176.76 190.516 176.714 190.523C175.747 190.739 174.735 190.928 173.756 191.117C169.295 191.96 166.062 191.836 161.746 190.536C161.334 190.412 160.498 190.36 160.119 190.236C159.937 190.177 159.95 189.876 159.799 189.837C158.689 189.55 156.018 190.203 155.032 189.687C154.895 189.615 154.634 189.289 154.601 189.289H151.368L151.394 189.308ZM132.795 144.799C132.377 144.61 131.293 144.832 130.777 144.76C130.49 145.799 130.033 146.608 131.463 147.007C132.39 147.268 132.769 146.726 133.585 147.634C136.393 147.353 139.953 148.013 142.669 147.647C142.944 147.608 142.846 147.353 142.937 147.353C143.14 147.366 143.264 147.588 143.492 147.627C144.335 147.771 144.596 147.451 145.145 147.366C145.634 147.288 146.353 147.464 146.758 147.366C146.914 147.327 146.921 146.772 147.463 146.961C147.692 147.039 147.567 147.595 148.41 147.333C148.625 147.268 148.684 147 148.991 147C149.344 147 149.579 147.542 150.5 147.359C150.728 147.314 150.859 147.092 151.055 147.085C151.107 147.085 151.055 147.49 151.884 147.373C152.185 147.333 152.243 146.759 152.779 146.746L152.694 146.399C152.002 146.582 152.139 146.177 151.897 145.981C151.499 145.661 151.29 146.164 150.781 146.145C150.532 146.132 150.598 145.883 150.487 145.857C149.69 145.668 148.234 145.975 147.339 145.864C147.078 145.831 147.208 145.603 146.947 145.57C144.087 145.211 141.017 145.87 138.007 145.296C137.595 145.217 137.099 144.819 136.629 144.747C135.447 144.571 135.793 145.145 135.362 145.276C134.748 145.465 133.572 145.211 132.945 145.015C132.828 144.976 132.834 144.812 132.802 144.793L132.795 144.799ZM141.866 154.7C141.056 154.335 136.322 154.857 134.95 154.661C134.643 154.615 134.48 154.419 134.264 154.387C132.886 154.165 132.403 154.713 131.456 155.549C131.672 155.922 131.9 155.771 132.214 155.882L132.286 156.438C132.416 156.575 135.505 156.359 136.067 156.438C138.947 156.843 140.887 156.745 143.754 156.438C146.359 156.157 149.494 156.66 152.159 156.457C152.72 156.085 153.55 155.575 153.262 154.785L153.099 154.674C152.407 154.7 151.577 154.57 150.911 154.642C149.984 154.74 148.756 155.412 147.888 155.282C147.646 155.249 147.509 154.792 146.653 154.909C146.333 154.955 146.418 155.275 146.242 155.314C146.19 155.327 145.203 155.288 145.138 155.275C144.994 155.255 144.89 155.001 144.707 154.942C143.884 154.7 143.571 155.464 142.944 155.262C142.709 155.184 142.062 154.766 141.873 154.687L141.866 154.7ZM134.18 164.04C133.729 163.765 133.109 164.19 132.998 164.66C132.932 164.941 133.069 165.143 133.05 165.313C133.03 165.483 132.756 165.548 132.834 165.79H143.087C144.446 165.078 146.562 165.803 147.901 165.601C148.051 165.574 148.149 165.294 148.573 165.235C149.912 165.052 151.662 165.385 153.047 165.241C153.119 164.856 152.942 165.019 152.753 164.921C151.414 164.242 147.881 165 146.242 164.686C145.772 164.595 145.739 164.053 145.145 163.994C144.335 163.916 144.465 164.373 144.289 164.418C144.198 164.445 142.526 164.699 142.395 164.706C141.683 164.739 140.985 164.262 139.927 164.418C139.659 164.458 139.489 164.758 139.117 164.693C139.058 164.68 138.47 164.072 138.131 164.007C137.856 163.955 136.622 163.955 136.348 164.007C136.028 164.066 135.982 164.36 135.531 164.425C135.316 164.458 134.617 164.458 134.441 164.399C134.264 164.34 134.258 164.079 134.193 164.04H134.18Z" fill="black"/>
<path d="M67.2597 143.349L67.5797 143.382C67.6842 143.349 67.6907 143.101 67.7886 143.036C67.9976 142.905 70.9234 142.912 71.2238 143.036C71.3413 143.082 71.4262 143.297 71.6026 143.349C72.1185 143.506 72.8238 143.134 73.2287 143.643C73.4965 142.931 74.4826 142.755 75.1357 142.984C75.3251 143.049 75.312 143.343 75.4557 143.376C75.6777 143.434 77.2712 143.402 77.4214 143.297C77.5194 143.238 77.5129 142.99 77.65 142.958C77.8263 142.912 78.7798 142.925 79.0084 142.958C79.459 143.016 79.5047 143.317 79.8247 143.376C82.5415 143.905 85.8787 144.029 88.615 143.643C89.5555 143.513 94.9106 143.5 95.7335 143.689C95.8314 143.709 96.9417 144.309 97.0331 144.388C97.1898 144.518 97.9996 145.785 98.0976 146.001C98.398 146.654 99.456 149.567 99.5474 150.194C99.6062 150.592 99.6127 152.29 99.4821 152.591C99.2405 153.139 98.5221 152.957 98.4633 153.015C98.4307 153.048 98.4698 153.381 98.3849 153.551C97.8233 154.635 97.1637 155.406 96.1841 156.17C96.06 156.261 95.8772 156.222 95.7727 156.3C95.5441 156.483 95.407 156.901 95.2045 156.973C94.7604 157.123 93.8657 156.849 93.6371 156.934C93.3759 157.032 93.0755 157.633 92.8796 157.809C92.7032 157.966 92.4551 157.998 92.2592 158.149C92.1024 158.266 92.0437 158.573 91.9653 158.612C91.8151 158.697 91.5212 158.593 91.4559 158.652C91.4298 158.671 91.4167 159.07 91.3187 159.279C91.2077 159.514 90.9269 159.618 90.9008 159.71C90.8159 160.043 90.94 160.408 90.62 160.774C91.8412 161.14 91.3122 161.898 91.4559 162.831C91.482 163.014 91.6453 163.145 91.6845 163.289C91.9392 164.321 92.0632 165.379 92.331 166.345C92.4094 166.619 92.9122 167.691 92.9318 167.802C92.971 167.991 92.7555 168.265 92.8469 168.579C92.9057 168.781 93.2126 168.879 93.2388 169.16C93.2649 169.402 93.069 169.696 93.082 169.983C93.1016 170.414 93.4412 170.473 93.5065 170.806C93.5718 171.139 93.5653 172.635 93.5196 173.013C93.4608 173.464 93.1604 173.516 93.1016 173.83C92.9906 174.404 93.2714 175.56 93.2061 175.874C93.1931 175.92 92.86 176.677 92.8339 176.716C92.0698 177.964 91.1816 179.25 90.4306 180.504C90.1171 181.033 89.6534 182.96 89.3269 183.254C89.2877 183.293 88.5628 183.718 88.4583 183.763C87.6877 184.123 87.0803 184.005 86.2836 184.75C85.8395 185.168 85.2909 185.919 84.7815 186.278C84.3701 186.565 83.815 186.859 83.3121 186.748C82.9399 186.663 82.9399 186.186 82.6525 186.075C82.4043 185.984 81.5684 185.853 81.2353 185.716C80.4517 185.396 79.6484 184.75 79.0019 184.077C78.819 183.887 77.6173 182.438 77.5912 182.327C77.2712 181.269 78.401 179.688 79.1521 178.996C79.7268 178.46 80.8958 178.16 81.4182 177.696C82.0321 177.154 82.7309 175.991 83.3382 175.338C83.5342 175.129 83.8476 175.142 84.0305 174.933C84.3374 174.594 86.3554 172.282 86.4338 172.112C86.4664 172.047 86.7668 170.819 86.7864 170.675C86.8452 170.257 86.8387 168.886 86.7734 168.474C86.6232 167.58 85.4868 166.247 84.5203 166.188C83.6713 166.13 83.5733 166.704 82.7439 166.489L82.5154 167.162C82.1235 167.214 81.6533 167.07 81.2876 167.24C80.9741 167.384 80.7651 168.063 80.4517 168.206C80.2427 168.298 80.0468 168.154 79.9031 168.206C79.237 168.468 78.7406 168.853 78.1594 169.193C77.7349 169.441 75.952 170.388 75.5667 170.453C75.1814 170.518 74.0908 170.329 73.9144 170.59C73.6336 171.799 73.3985 173.137 73.5748 174.391C73.9928 177.343 75.0704 180.354 74.7569 183.469C74.7047 184.018 73.8099 184.959 73.8361 185.664C73.8622 186.193 74.5675 186.487 74.672 187.048C74.7961 187.734 74.783 190.987 74.6851 191.725C74.6198 192.215 74.1887 192.737 74.1234 193.227C73.9275 194.696 74.3716 196.754 74.1234 198.177C74.0385 198.648 73.405 199.444 73.3136 199.98C73.2418 200.398 73.3855 200.862 73.2483 201.286C73.1373 201.619 72.7912 201.652 72.7585 201.789C72.5626 202.507 73.2483 206.256 71.3479 205.655C71.1454 205.59 71.0671 205.329 70.7666 205.27C70.4924 205.218 69.2646 205.218 68.9838 205.27C68.7029 205.322 68.2327 205.799 67.8474 205.917C67.5927 205.995 67.2988 205.904 67.0768 205.975C66.8874 206.034 66.907 206.335 66.7568 206.374C66.5935 206.413 65.8752 206.406 65.6727 206.374C65.1633 206.302 64.8368 205.708 64.0988 205.956C64.2294 205.264 63.7527 204.708 63.5568 204.088C63.0082 202.318 63.5306 200.529 63.2825 198.726C63.2368 198.38 63.0343 198.21 62.9886 197.779C62.9233 197.158 62.9102 195.343 63.0082 194.749C63.0865 194.246 63.5437 194.102 63.5633 193.638C63.5829 193.135 63.08 192.561 63.0082 192.117C62.9363 191.672 62.9429 189.504 63.0735 189.171C63.1649 188.942 63.6547 188.564 63.7527 188.335C63.9747 187.793 64.1837 186.65 64.0923 186.075C64.0596 185.847 63.5568 184.684 63.5763 184.586C63.6678 184.018 63.7331 183.378 63.8376 182.777C63.9029 182.379 64.3208 181.856 64.3862 181.399C64.5364 180.282 64.1119 176.965 64.4515 176.24C64.5494 176.031 64.8564 175.985 64.9282 175.619C65.1437 174.509 64.7584 172.791 64.9282 171.629C65.0523 170.741 65.3592 170.087 65.2221 169.016C65.1894 168.755 64.9609 168.886 64.9282 168.624C64.8564 168.076 65.0262 167.39 64.9282 166.835C64.8302 166.28 64.2164 165.261 64.1184 164.621C63.9355 163.38 64.3143 163.713 63.6417 162.485C63.2629 161.786 63.1845 161.12 62.9429 160.572C62.8318 160.324 62.1657 159.997 62.2114 159.703C62.6686 158.815 63.0865 157.737 63.8441 157.052C64.1902 156.738 65.3592 156.131 65.8425 155.758C66.0188 155.621 66.045 155.308 66.2735 155.223C66.4629 155.158 68.605 155.144 68.8662 155.197C69.2058 155.262 69.147 155.575 69.3038 155.615C69.6891 155.713 70.3879 155.504 70.7601 155.608C70.9103 155.647 70.9038 155.909 70.9822 155.954C71.0801 156.013 71.2891 155.869 71.5307 155.954C71.7005 156.013 73.1634 156.895 73.2548 156.98C73.4377 157.143 74.5349 158.384 74.5936 158.528C74.9528 159.403 74.4304 159.703 74.2149 160.415C74.0842 160.839 74.0908 161.316 73.8557 161.721L74.4761 162.609C74.8353 162.218 75.312 162.113 75.7234 161.786C76.0108 161.551 76.3439 160.996 76.4941 160.898C76.8598 160.676 77.7088 160.435 78.068 160.141C78.3423 159.912 78.7341 159.154 79.0084 158.945C79.9031 158.26 81.1896 157.985 81.9015 156.823C82.3848 156.033 82.2019 156.411 82.8158 155.804C83.0378 155.582 84.6052 153.74 84.6052 153.603C84.6052 153.179 84.0762 153.094 83.8215 152.937C83.7301 152.878 83.7105 152.65 83.5537 152.597C82.5545 152.264 79.8378 152.806 78.6231 152.578C78.2182 152.499 78.2573 152.081 78.0092 151.957L66.9266 152.016C66.7633 152.46 66.489 152.467 66.1952 152.663C66.0841 152.741 66.0711 152.957 65.947 152.989C65.6792 153.061 62.8253 153.015 62.6098 152.917C62.3355 152.793 62.1657 152.29 61.9306 152.081C61.591 151.787 61.1861 151.84 60.951 151.278C60.7747 150.854 60.8661 150.599 60.7877 150.2C60.7616 150.07 60.5788 149.933 60.5396 149.743C60.4939 149.489 60.7943 149.632 60.8335 149.351C60.951 148.444 60.422 148.208 60.5526 147.562C60.5918 147.373 60.742 147.248 60.7812 147.098C60.9379 146.484 61.2057 145.57 61.4408 145.008C61.5061 144.852 62.5314 143.709 62.7012 143.656C63.818 143.33 65.3527 144.029 66.5478 143.304C66.7633 143.173 66.9331 142.448 67.3054 143.323L67.2597 143.349Z" fill="black"/>
<path d="M51.612 151.579C52.2586 151.97 52.5459 151.983 53.2121 151.631C53.8325 152.578 54.2243 152.937 54.048 154.178C53.9239 155.04 53.7345 156.333 53.408 157.11C52.8137 158.521 51.5729 160.493 50.6586 161.786C50.4431 162.087 49.5941 162.884 49.5222 163.132C49.4243 163.458 49.6006 163.713 49.5745 163.935C49.5484 164.144 49.039 165.222 48.9802 165.477C48.8234 166.162 48.8104 168.18 48.9541 168.879C49.0128 169.18 49.3002 169.284 49.3328 169.447C49.3786 169.663 49.15 170.061 49.2545 170.505C49.5549 171.792 49.9728 172.373 50.0643 173.843C50.0773 174.052 50.3255 174.169 50.2994 174.359C50.2471 174.77 49.6332 175.528 49.6398 175.619C49.6398 175.789 49.8488 175.92 49.8749 176.057C49.9337 176.364 49.679 176.978 49.8096 177.52C49.8814 177.82 50.1492 177.951 50.2014 178.369C50.2863 179.048 49.9924 179.982 50.0512 180.433C50.0904 180.72 50.4039 180.818 50.4692 181.131C50.6129 181.869 50.2667 183.378 50.3647 183.861C50.3973 184.018 50.6586 184.129 50.7173 184.319C50.8676 184.782 50.5867 185.266 50.639 185.514C50.6716 185.677 50.9394 185.781 50.9982 185.971C51.1027 186.304 50.9002 186.617 50.9524 186.853C50.9982 187.062 51.2529 187.186 51.2986 187.584C51.5272 189.334 50.6259 190.712 50.0643 192.273C49.6267 192.626 49.0977 192.619 48.8822 192.064C48.5034 192.75 48.0136 192.182 47.5238 192.352C47.3475 192.41 47.3475 192.665 47.2691 192.711C47.2234 192.737 46.3222 193.005 46.2634 193.011C45.5907 193.116 44.9116 193.018 44.3107 192.711C44.3891 192.215 43.8601 191.953 43.7817 191.646C43.7034 191.365 43.9646 191.254 43.9973 191.019C44.1279 190.066 43.4226 187.832 42.4821 187.447C42.2601 187.355 42.0772 187.493 41.9401 187.44C41.6462 187.323 41.3523 187.192 41.0193 187.062C40.967 187.042 41.0193 186.728 40.6405 186.826C40.5686 186.846 40.7058 187.146 40.0919 187.114C39.478 187.081 39.4976 186.781 39.2364 186.709C38.9947 186.644 38.7662 186.826 38.5898 186.8C38.296 186.755 38.1784 186.101 37.8976 186.056C37.127 186.101 35.8731 186.278 35.1416 186.141C34.8216 186.075 34.7759 185.781 34.3253 185.723C34.0053 185.677 32.2159 185.69 32.0461 185.801C31.9612 185.853 31.9481 186.062 31.8763 186.108C31.824 186.141 30.7987 186.435 30.7399 186.435C30.3285 186.435 30.2371 186.088 30.0608 186.062C29.7081 186.01 28.944 186.284 28.4607 186.075C28.2713 186.395 27.6052 186.977 27.2721 187.075C26.8019 187.212 26.0705 186.977 25.6656 187.12C25.4697 187.192 25.4827 187.453 25.424 187.499C25.3391 187.558 25.1235 187.382 24.9864 187.408C24.5488 187.48 23.8697 188.387 23.7652 188.446C23.2231 188.753 22.6876 188.662 22.1194 188.792C21.5513 188.923 20.5782 189.798 19.9774 190.092C18.6059 190.771 17.6524 190.778 16.1177 190.66C16.0524 189.622 14.7136 189.387 14.3806 188.616C14.3283 188.498 13.7863 186.853 13.7667 186.755C13.5446 185.448 13.9822 184.887 14.8508 184.005C15.2883 183.561 15.8304 183.241 16.3528 182.62C17.1169 181.706 17.1692 181.745 17.979 181.014C18.1226 180.883 20.0427 178.297 20.121 178.134C20.2125 177.938 20.2125 177.513 20.2321 177.487C20.2974 177.428 20.5782 177.572 20.7872 177.389C20.859 177.324 21.2704 176.096 21.3162 175.887C21.4468 175.299 21.1202 174.829 21.8713 174.378L21.3227 173.967C21.6558 173.673 21.8974 173.359 22.1064 172.961C22.7856 171.681 23.2492 170.277 23.2362 168.873C23.2362 168.324 23.5758 168.024 22.975 167.638C23.0729 167.508 23.308 167.397 23.3276 167.233C23.3603 167.005 23.2819 165.065 23.2362 164.758C23.1513 164.151 22.6419 163.034 22.459 162.374C22.3807 162.093 22.4721 161.8 22.348 161.519C22.3219 161.46 21.5447 160.611 21.4794 160.565C20.2451 159.697 18.201 159.37 16.9537 158.593C16.8296 158.514 16.7773 158.11 16.3659 158.214C16.2222 157.776 16.6141 157.894 16.6467 157.613C16.7969 156.438 16.3267 156.307 17.1496 155.092C17.5088 154.563 18.0835 154.211 18.312 153.57C18.8867 153.446 19.5398 153.655 20.108 153.505C20.4933 153.407 21.6949 152.303 21.9953 151.957C22.779 151.565 28.1995 152.101 29.6363 151.899C29.9563 151.853 30.1261 151.657 30.4461 151.611C30.8314 151.559 32.549 151.565 32.8036 151.748C33.1171 151.977 33.2739 152.898 33.9008 152.454C34.3906 152.108 34.0575 151.663 35.2657 151.899C35.7686 151.996 35.8208 152.539 35.9841 152.584C36.5131 152.734 36.4282 152.31 36.6372 152.225C37.127 152.029 37.2641 152.565 37.3555 152.584C37.6102 152.65 38.0021 152.512 38.2633 152.578C38.4266 152.617 38.3221 152.976 38.838 153.009L40.6209 152.225C41.3001 152.225 41.5417 152.297 42.136 152.578L42.3515 151.899C42.4234 151.827 43.4487 151.957 43.7622 151.866C43.9385 151.814 44.8462 150.952 44.9181 150.932C45.2054 150.854 49.7312 150.86 50.11 150.932C50.4039 150.991 50.5149 151.272 50.652 151.291C50.8218 151.311 51.0635 151.134 51.3247 151.226C51.4814 151.278 51.5076 151.52 51.599 151.572L51.612 151.579ZM30.4918 159.233C30.3612 159.154 30.1326 159.213 29.9889 159.122C29.6885 158.932 29.7016 158.41 28.8787 158.645C28.9963 159.919 28.3954 160.977 28.6109 162.283C28.5587 162.485 29.4665 163.158 29.5318 163.178C30.0216 163.282 30.8248 163.067 31.2624 163.178C31.3995 163.217 31.3995 163.458 31.491 163.517C31.9743 163.831 37.669 163.426 38.8576 163.583C39.3147 163.641 40.1899 164.196 40.3531 164.223C40.7972 164.294 41.7311 163.955 42.2927 164.223C43.2854 164.079 42.8087 161.277 42.8805 160.519C42.8283 160.369 42.2797 160.01 42.1034 159.919C41.7115 159.71 41.1956 159.657 40.9735 159.527C40.8756 159.468 40.8756 159.226 40.7384 159.187C39.8633 158.952 39.7719 159.572 39.6413 159.605C38.7009 159.847 38.4788 159.285 38.0151 159.194C37.3947 159.07 36.5 159.279 35.8274 159.187C35.4878 159.141 34.7563 158.665 34.691 158.645C33.8094 158.436 32.2812 158.815 31.4975 159.279C31.3081 159.39 31.3669 159.808 30.7465 159.579C30.5767 159.514 30.5702 159.279 30.4853 159.226L30.4918 159.233ZM28.3236 174.666C28.1995 175.234 28.415 176.181 28.3236 176.795H35.6772C35.7621 176.795 36.5392 177.807 36.918 177.892C37.1988 177.964 37.1727 177.526 37.3555 177.481C38.3156 177.239 41.3393 177.794 42.0119 177.356C42.1883 177.239 42.8413 175.743 42.887 175.482C42.9458 175.123 42.9589 173.777 42.887 173.431C42.8087 173.033 41.6527 171.988 41.2805 171.877C40.4837 171.648 39.0013 172.014 38.1458 171.844C37.7017 171.759 37.3033 171.034 36.487 171.563C36.2519 171.714 36.1931 172.217 35.9514 172.125C35.7359 172.04 35.6249 171.603 35.4682 171.511C35.0045 171.23 33.5547 171.603 33.0583 171.524C32.9081 171.498 32.8036 171.224 32.5098 171.165C32.2159 171.106 30.8706 171.113 30.5897 171.165C30.224 171.237 30.1522 171.681 29.6493 171.459L29.4795 171.57C29.3816 171.838 29.4469 172.132 29.3489 172.406C29.1399 173.013 28.4216 174.189 28.3171 174.672L28.3236 174.666Z" fill="black"/>
<path d="M155.522 134.167C155.744 135.303 154.595 134.265 154.072 134.173C153.55 134.082 152.812 134.278 152.322 134.141C151.728 133.971 152.185 133.912 151.199 133.899C150.709 133.893 149.448 133.755 149.122 133.808C148.972 133.834 148.874 134.088 148.691 134.141C148.417 134.219 146.555 134.226 146.248 134.167C145.941 134.108 145.85 133.834 145.7 133.808C145.439 133.768 143.61 133.801 143.212 133.821C142.813 133.84 142.963 134.173 142.67 134.173L141.716 133.612C141.566 133.997 140.619 134.343 140.292 134.134C140.221 134.088 140.227 133.84 140.044 133.781C139.509 133.612 139.117 134.154 138.967 134.173C137.131 134.402 134.728 133.912 132.9 134.154C132.292 134.232 128.563 135.369 128.158 135.61C127.936 135.741 127.682 136.113 127.126 136.159C126.506 136.211 125.67 135.956 124.991 136.159C123.992 135.525 124.338 134.937 124.168 134.108C124.103 133.801 123.926 133.076 123.842 132.789C123.731 132.43 123.247 132.24 123.228 131.914C123.195 131.437 123.613 130.836 123.659 130.353C124.129 130.157 125.566 128.955 125.755 128.531C125.925 128.165 125.768 127.747 125.833 127.368C125.99 126.499 126.264 125.337 126.369 124.468C126.454 123.789 126.238 121.451 126.068 120.798C125.977 120.439 125.487 120.164 125.415 119.799C125.337 119.374 125.35 117.082 125.442 116.67C125.5 116.415 126.029 115.775 126.238 115.677C126.65 115.488 126.976 115.743 127.205 115.664C127.512 115.56 128.113 114.796 128.498 114.633C129.21 114.326 130.438 114.574 131.234 114.528C131.842 114.913 131.855 116.2 132.436 116.494C132.56 116.553 132.717 116.468 132.841 116.52C134.016 116.984 134.14 116.696 135.238 116.853C135.551 116.899 136.407 117.402 136.478 117.408C136.988 117.454 137.171 117.167 137.576 117.114C138.17 117.029 139.078 117.245 139.62 117.114C140.214 116.977 140.475 116.729 141.429 116.847C143.492 117.114 147.058 117.395 149.148 117.127C149.403 117.095 149.331 116.873 149.442 116.847C149.755 116.775 150.16 116.905 150.487 116.84C150.539 116.827 151.133 116.246 151.336 116.213C151.486 116.187 152.028 116.298 152.309 116.304C153.471 116.324 154.046 116.585 155.156 116.886C156.364 117.212 156.978 116.971 158.075 117.127C159.257 117.297 159.943 117.885 161.386 117.676C161.85 117.611 161.994 117.317 162.621 117.389C162.804 117.408 164.587 118.257 164.756 118.414C164.848 118.499 165.612 119.394 165.638 119.459C165.782 119.785 165.749 120.38 165.997 120.765C165.997 121.111 165.553 121.64 165.305 121.875C164.893 122.261 164.325 122.254 164.058 122.417C163.96 122.476 163.966 122.724 163.829 122.764C163.659 122.809 162.817 122.796 162.621 122.764C162.314 122.705 162.235 122.417 161.929 122.352C161.654 122.3 160.244 122.313 160.074 122.424C159.786 122.613 158.591 123.234 158.219 123.312C157.768 123.404 153.145 123.384 152.923 123.24C152.825 123.175 152.825 122.914 152.694 122.888C152.335 122.816 151.982 123.273 151.617 122.626C151.231 123.221 151.016 122.894 150.513 122.888C150.278 122.888 149.951 123.005 149.821 122.986C149.651 122.96 149.54 122.666 149.416 122.653C149.292 122.64 149.083 122.894 148.932 122.947C148.417 123.116 148.345 122.666 148.181 122.653C148.038 122.64 147.829 122.94 147.633 122.973C147.496 122.992 147.287 122.855 147.097 122.907C146.869 122.979 146.96 123.443 146.536 123.312C146.444 123.071 145.915 122.679 145.7 122.672C145.497 122.666 145.295 123.031 144.949 122.979C144.354 122.894 143.806 122.64 143.29 122.417C142.617 122.13 142.598 122.607 142.232 122.724C141.696 122.901 140.802 122.783 140.606 123.312H140.338C140.077 122.594 139.646 123.018 139.228 122.966C139.045 122.94 138.823 122.633 138.679 122.646C138.575 122.653 138.47 122.901 138.34 122.947C136.994 123.436 135.538 123.201 134.167 123.606C133.905 123.685 133.905 123.952 133.755 124.089C133.638 124.2 133.376 124.089 133.272 124.364C133.167 124.638 132.887 125.598 133.03 125.794C133.324 125.788 134.16 126.192 134.278 126.192C134.46 126.192 134.624 125.951 134.833 125.925C136.818 125.657 137.778 125.572 139.783 125.912C141.056 126.127 140.932 125.5 141.71 125.376C142.715 125.219 143.231 125.5 144.048 125.637C144.505 125.716 145.249 125.52 145.621 125.709C146.013 125.912 145.798 126.721 146.372 126.748L146.719 126.127L146.17 125.918C146.17 125.298 146.614 125.67 146.888 125.611C148.926 125.187 150.408 125.337 152.433 125.637C152.857 125.703 155.515 125.461 155.999 125.37C156.306 125.311 156.384 125.01 156.691 125.01C156.841 125.01 158.441 125.983 158.631 126.205C159.395 125.846 159.532 125.5 160.551 125.637C161.001 125.703 162.164 126.604 162.64 126.708C163.274 126.852 164.286 126.597 164.782 126.767C164.848 126.787 165.651 127.734 165.671 127.806C165.769 128.139 165.756 130.235 165.71 130.673C165.658 131.169 165.357 131.848 165.2 132.338C165.168 132.449 165.279 132.619 165.213 132.782C165.2 132.821 164.776 133.377 164.73 133.416C164.593 133.54 162.588 134.683 162.458 134.709C161.948 134.8 158.846 134.807 158.343 134.709C157.997 134.644 157.716 134.16 157.651 134.16H155.522V134.167Z" fill="black"/>
<path d="M43.4814 140.319C43.7687 140.495 45.114 140.234 45.5581 140.345C45.7149 140.384 45.7018 140.704 45.8651 140.744C46.0479 140.789 47.4259 140.548 47.9288 140.613C48.3794 140.672 48.4251 140.972 48.7451 141.031C49.6921 141.214 50.7631 141.005 51.8733 141.338C52.1215 141.41 52.5656 141.88 52.768 141.984C52.9313 142.069 53.1794 141.926 53.4994 142.187C53.9566 142.566 53.6888 143.186 53.7672 143.709C53.7999 143.924 54.0023 144.087 54.0415 144.394C54.1199 144.943 54.0937 147.268 53.8782 147.686C53.7607 147.915 52.8268 148.96 52.5851 149.005H42.7173C42.2275 148.215 40.8038 148.724 39.9352 148.6C38.7793 148.437 37.5058 148.13 36.376 147.902C35.096 147.64 34.8282 147.601 33.509 147.902C33.3457 147.941 33.4176 148.424 32.7906 148.326C32.451 148.274 32.5033 147.934 32.3531 147.902C32.1375 147.856 31.8698 147.947 31.589 147.869C31.282 147.784 30.7139 147.294 30.5963 147.275C30.4461 147.255 30.1392 147.379 29.904 147.372C29.0681 147.346 28.7024 147.451 27.8665 147.634C27.762 147.66 27.7816 147.882 27.6771 147.902C27.5922 147.921 26.3905 147.993 26.3187 147.986C26.0248 147.941 25.9269 147.451 25.744 147.34C25.5807 147.242 25.3587 147.353 25.2477 147.307C24.993 147.209 24.9277 146.922 24.5358 146.922C24.0264 146.922 24.1244 147.32 23.9611 147.359C23.8305 147.386 23.6281 147.229 23.3995 147.307C23.2427 147.359 23.2493 147.601 23.1317 147.627C22.6746 147.732 19.5725 147.712 19.0239 147.64C18.7692 147.608 18.8411 147.379 18.73 147.359C18.4166 147.288 18.0182 147.431 17.6851 147.327C17.6133 147.307 16.6859 146.883 16.5488 146.817C16.2222 146.654 15.0663 145.492 14.9945 145.198C14.9357 144.943 15.1839 144.806 15.1904 144.682C15.21 144.146 15.2884 142.69 15.4124 142.233C15.6214 141.501 16.1112 141.259 16.5618 140.9C16.7316 140.763 16.7643 140.443 16.9929 140.365C17.4108 140.221 18.1357 140.456 18.5929 140.312C19.4811 140.038 19.9513 139.868 20.9309 139.653C21.055 139.627 22.1129 138.98 22.1913 138.967C23.1513 138.784 28.7089 138.823 29.7669 138.967C30.2241 139.026 30.2567 139.333 30.7139 139.398C32.8167 139.679 35.6511 139.091 37.7409 139.385C38.9556 139.555 40.2487 139.751 41.4503 139.934C41.9336 140.006 42.985 139.81 43.2985 140.012C43.3834 140.071 43.403 140.28 43.4618 140.319H43.4814Z" fill="black"/>
</svg>
