<svg width="586" height="740" viewBox="0 0 586 740" fill="none" xmlns="http://www.w3.org/2000/svg">
<g clip-path="url(#clip0_957_349)">
<rect width="586" height="740" fill="#FFFCF2"/>
<path d="M415 15.0001C418.743 14.4426 428.916 13.6655 439.662 15.0174C450.408 16.3692 454.727 17.1084 455.544 17.309" stroke="black" stroke-linecap="round"/>
<path d="M381.5 304.962C376.667 312.129 368 328.262 368 335.462C368 346.962 375 348.462 380 346.962" stroke="black" stroke-linecap="round"/>
<path d="M332 360.462C335.833 365.629 346.6 376.662 359 379.462C371.4 382.262 377.167 382.629 378.5 382.462" stroke="black" stroke-linecap="round"/>
<path d="M340.685 350.292C345.877 355.773 354.455 362.807 364 364.962C371.259 366.602 376.244 367.407 379.398 367.759" stroke="black" stroke-linecap="round"/>
<path d="M322.5 362.962C325.5 362.629 332.5 360.962 336.5 356.962C340.5 352.962 342.5 346.462 341.5 340.962" stroke="black" stroke-linecap="round"/>
<path d="M320 289.962C321.8 287.733 327.32 283.424 335 284.018C342.68 284.613 346.2 288.229 347 289.962" stroke="black" stroke-linecap="round"/>
<path d="M385.5 234.962C381.5 236.962 377.324 237.802 371 238.488C362 239.462 354.782 235.418 346.986 238.488C334.617 243.358 333.292 253.469 322.69 260.519C312.089 267.57 306.788 265.807 300.162 276.382C293.535 286.958 296.186 297.974 292.21 307.668C288.235 317.362 282.934 320.006 282.05 331.903C281.167 343.8 292.21 354.376 292.652 364.51C293.094 374.645 293.977 385.22 300.162 392.711C306.346 400.202 317.426 401.321 323.574 406.371C331.083 412.54 332.82 419.216 344.336 424.437C354.054 428.844 363.631 422.675 376 427.962" stroke="black" stroke-linecap="round"/>
<path d="M270.882 215.962C263.982 306.859 274.974 364.913 271.5 420.5M347.5 540.318C345.294 538.115 338.382 536.037 330 537.233C320.735 538.555 319.5 543 307.5 543C306.607 543 302.5 542.5 300 541M269.5 537.171C262.535 537.412 258.792 538.711 255 540.318C256.82 532.767 259.545 519.008 262.359 500.541" stroke="black" stroke-linecap="round"/>
<path d="M275 188.963C275.898 188.596 278.502 187.425 281.735 185.668C284.968 183.91 287.847 185.217 286.5 187.962" stroke="black" stroke-linecap="round"/>
<path d="M283.5 194.962C286.471 193.16 285.383 190.339 280.29 189.474C273.924 188.393 262.521 189.213 259.92 190.195C256.101 191.637 255.605 194.881 259 195.962" stroke="black" stroke-linecap="round"/>
<path d="M284.349 199.907C286.628 199.058 287.207 195.612 281.737 194.593C274.9 193.319 262.593 194.168 259.858 195.442C257.123 196.716 255.756 199.688 258.491 200.962" stroke="black" stroke-linecap="round"/>
<path d="M284.359 206.962C288.532 205.483 287.73 201.612 282.166 200.593C275.21 199.319 262.69 200.168 259.908 201.442C257.125 202.716 255.734 205.688 258.517 206.962" stroke="black" stroke-linecap="round"/>
<path d="M280.843 207.339C286.573 208.127 285.351 211.343 283.25 212.105C282.718 212.42 280.173 213.553 274.081 213.835C265.617 214.228 262.508 213.658 260.318 212.873C257.163 211.696 257.103 208.878 260.916 207.949C263.605 207.295 274.499 206.467 280.843 207.339Z" stroke="black" stroke-linecap="round"/>
<path d="M283 189.962C290.493 186.011 303.01 180.567 321.346 179.865C344.265 178.987 368.948 174.158 376 171.962" stroke="black" stroke-linecap="round"/>
<path d="M434 337.962C435.628 353.133 442.842 382.536 461.964 395.404C493.48 416.614 510.199 413.521 521 413.962" stroke="black" stroke-linecap="round"/>
<path d="M406 152.962C406.333 154.006 407 157.436 407 160.568C407 163.825 406.583 168.173 406.25 169.962" stroke="black" stroke-linecap="round"/>
<path d="M385 247.962C389.427 200.675 391.197 166.086 438.564 148.134C458.927 140.417 469.551 139.377 472.207 142.88C474.863 146.383 469.994 161.707 469.994 161.707" stroke="black" stroke-linecap="round"/>
<path d="M475 146.463C491.5 148.463 501.562 138.889 503.5 130.963C509 108.463 495.598 109.803 487.186 99.8321C483.5 95.4624 478 87.9624 477 75.9624" stroke="black" stroke-linecap="round"/>
<path d="M374 100.962C383.899 98.5214 394.563 96.2108 402 91.0001C407.363 87.2429 412.8 82.8492 416 76.9624" stroke="black" stroke-linecap="round"/>
<path d="M447 76.9624C449 82.4624 452.52 86.9624 454.36 88.7015C458.96 93.0494 466.32 96.0928 470 96.9624" stroke="black" stroke-linecap="round"/>
<path d="M427 76.9624C428.5 81.4624 431.767 85.9213 432.76 86.9407C436.677 90.9624 441.5 93.4624 445 93.9624" stroke="black" stroke-linecap="round"/>
<path d="M374.078 100.844C373.221 98.6965 368.897 98.2978 365.607 100.113C360.467 102.948 361.139 112.295 365.607 115.992C369.72 119.395 375.888 119.962 380 119.962" stroke="black" stroke-linecap="round"/>
<path d="M380 120.138C382.967 136.733 393.419 154.146 419.88 155.962M464.581 96.9624C466.022 111.129 463.871 127.532 456.144 139.467" stroke="black" stroke-linecap="round"/>
<circle cx="426.5" cy="140.462" r="1.5" fill="black"/>
<path d="M424 124.962C424.128 123.786 424.769 121.345 426.308 120.992C427.846 120.639 428.615 123.492 429 124.962" stroke="black" stroke-linecap="round"/>
<path d="M427 179.469C430.054 176.884 447.853 159.762 465.826 161.029C478.04 161.891 487.574 174.746 491.5 188.962" stroke="black" stroke-linecap="round"/>
<path d="M487.664 184.962C509.45 221.85 526.197 260.939 527.751 279.953C530.888 318.336 500.5 375.962 485 406.962" stroke="black" stroke-linecap="round"/>
<path d="M453 228.962C465.973 246.412 480.676 275.204 485 293.962" stroke="black" stroke-linecap="round"/>
<path d="M488 283.962C484.5 296.962 477.641 319.38 467 341.462C457.684 360.794 450.5 376.462 448.5 380.962" stroke="black" stroke-linecap="round"/>
<path d="M400.032 207.962C394.286 215.455 385.952 243.22 384.563 252.916C381.027 277.596 379.701 455.646 366 544.671C384.858 550.988 415.59 566.443 460.141 563.622C504.692 560.801 534.687 542.027 545 538.06L515.5 342.962" stroke="black" stroke-linecap="round"/>
<path d="M345.516 177.962C343.186 174.227 338.875 165.859 340.273 162.273C342.021 157.79 364.478 158.075 380.03 156.893C391.825 155.997 398.379 153.756 401 151.962" stroke="black" stroke-linecap="round"/>
<circle cx="350.5" cy="167.462" r="3" stroke="black"/>
<circle cx="400.5" cy="251.462" r="4" stroke="black"/>
<circle cx="395.5" cy="325.462" r="4" stroke="black"/>
<circle cx="393.5" cy="399.462" r="4" stroke="black"/>
<circle cx="393.5" cy="486.462" r="4" stroke="black"/>
<path d="M259 212.962C259.306 213.97 259.445 214.92 263.125 216.74C265.417 217.873 269.847 218.125 270 217.873" stroke="black" stroke-linecap="round"/>
<path d="M414 561.201C414 575.462 410 632.962 408.339 664.224C404.565 665.985 392.313 669.596 373.5 669.948C354.687 670.3 338.661 664.224 333 661.142C333.871 657.18 336.262 644.291 338.226 628.122C341.274 603.027 351.726 494.28 356.952 476.228C362.177 458.177 368.968 445.969 375.5 434.962" stroke="black" stroke-linecap="round"/>
<path d="M337.5 675.365C330.5 668.462 317.054 668.306 308.884 675.365C298.672 684.188 303.816 699.378 308.884 704.041C320.872 715.07 353.556 720.472 383.5 717.962C420.351 714.874 415.886 683.747 401.234 679.777" stroke="black" stroke-linecap="round"/>
<path d="M501 691.462C492 686.462 479.857 687.313 473.5 695.962C465.553 706.773 471.952 720.212 481 725.462C494.5 733.296 524.34 733.199 552.5 723.462C585.5 712.052 579 681.462 564 677.462" stroke="black" stroke-linecap="round"/>
<path d="M473 562.618C476 576.665 482.5 608.462 487.5 632.462C492.409 656.028 495.197 663.579 495.197 667.53C502.596 668.993 519.559 671.041 536.883 669.286C554.208 667.53 562.113 663.214 565 661.165C560.669 638.632 548.858 591.04 545.546 576.665C542.11 561.756 536.883 544.011 536.883 541.962" stroke="black" stroke-linecap="round"/>
<path d="M338.5 677.962C336.5 686.962 355.089 692.266 378 691.462C391.648 690.984 403.203 685.577 401 681.962" stroke="black" stroke-linecap="round"/>
<path d="M338 675.876C340.571 676.644 346.143 677.412 350 676.644C353.682 675.911 355.857 671.779 356 668.962" stroke="black" stroke-linecap="round"/>
<path d="M399.448 666.962C399.06 669.677 398.672 673.82 399.448 678.105C399.912 680.666 400.871 681.677 401 681.962" stroke="black" stroke-linecap="round"/>
<path d="M504 692.963C502 699.463 521.909 703.026 544 696.962C557.16 693.35 567.5 683.963 563.748 679.322" stroke="black" stroke-linecap="round"/>
<path d="M501.5 691.462C504.272 691.719 510 689.962 512.491 686.321C514.678 683.123 516.092 673.14 515.501 669.963" stroke="black" stroke-linecap="round"/>
<path d="M558.529 664.719C558.735 667.534 559.274 671.778 561.132 675.865C562.242 678.306 563.538 679.07 563.748 679.322" stroke="black" stroke-linecap="round"/>
<path d="M382.177 38.3017C376.799 37.9548 366.882 39.5249 368.618 45.2423C371.646 55.2147 419.003 70.377 434 73.1777C457 77.4729 477.307 77.2853 482.414 73.1777C487.522 69.0701 481.986 63.8091 478.031 61.3746" stroke="black" stroke-linecap="round"/>
<path d="M381.942 38.786C387.008 29.1104 402.173 14.7947 407.48 13.2502C410.505 12.3697 422 19.5 435.34 21.9976C439.546 22.785 446.5 22.6941 450 20M476.249 61.4912C476.614 56.3581 476.869 52.7161 475.799 44.1479C474.777 35.9636 470.617 18.7978 464.611 15.8972C463.222 15.226 460.026 16.1049 456 17.3867" stroke="black" stroke-linecap="round"/>
<path d="M396 47.4626C403.186 53.4263 418.061 59.723 431.5 61.9627C449.5 64.9624 463.802 64.9129 470.5 61.9625" stroke="black" stroke-linecap="round"/>
<path d="M319 483.962C318.5 489.796 317.8 504.062 319 514.462C320.2 524.862 321.5 530.462 322 531.962" stroke="black" stroke-linecap="round"/>
<path d="M289 213.962C292 215.962 294.5 218.962 298 222.462C301.5 225.962 304.5 229.962 306 231.962" stroke="black" stroke-linecap="round"/>
<path d="M291.5 202.962C294.167 204.296 301.561 206.712 309 208.462C317.5 210.462 326 209.962 333.5 209.962" stroke="black" stroke-linecap="round"/>
<path d="M280.5 218.962C281 220.629 282.2 225.662 283 232.462C283.8 239.262 283.333 247.296 283 250.462" stroke="black" stroke-linecap="round"/>
<path d="M457.086 430.284C458.559 430.233 468.598 432.757 478.442 429.557C486.317 426.997 490.676 424.366 491.871 423.37" stroke="black" stroke-linecap="round"/>
<path d="M482.5 440.462C485 438.962 486.469 438.494 490.5 434.462C492.5 432.462 494.333 428.962 494.5 428.462" stroke="black" stroke-linecap="round"/>
<path d="M495.5 385.963C493.833 385.963 488.6 385.263 481 382.463C471.5 378.963 469.5 377.462 466.5 377.962C463.192 378.514 461 382.962 462 385.962C463 388.962 468.158 392.975 475 395.463C480.5 397.463 486 398.463 489 398.463" stroke="black" stroke-linecap="round"/>
<circle cx="469.5" cy="384.462" r="4" stroke="black"/>
<path d="M374.5 53.9624C365.333 63.4624 353.7 87.9624 356.5 113.962C359.3 139.962 379.167 152.296 386.5 154.962" stroke="black" stroke-linecap="round"/>
<circle cx="334" cy="307.962" r="13.5" stroke="black"/>
<path d="M250.241 417.09C244.908 409.756 226.5 400 213.5 401C197.148 402.258 189.908 410.423 187.741 413.589" stroke="black" stroke-linecap="round"/>
<path d="M202.241 428.089C193.241 417.589 172.341 397.389 160.741 400.589C146.241 404.589 146.741 425.589 154.741 446.089C162.741 466.589 186.742 483.589 197.742 488.089C208.742 492.589 203.742 503.589 185.242 510.589C166.742 517.589 140.789 521.589 132.742 547.589C124.694 573.589 139.742 596.089 147.242 604.589" stroke="black" stroke-linecap="round"/>
<path d="M160.241 597.089C152.408 601.589 135.015 615.29 121.741 628.089C107.741 641.589 99.0748 652.923 95.2415 656.589" stroke="black" stroke-linecap="round"/>
<path d="M97.7415 666.589C95.7415 660.089 91.4415 644.789 90.2415 635.589C88.7415 624.089 77.3878 612.942 69.7415 610.589C63.2416 608.59 58.2418 608.59 52.7415 612.089C48.8128 614.589 47.2416 621.589 49.2415 625.589" stroke="black" stroke-linecap="round"/>
<path d="M29.2413 617.589C27.408 614.423 25.4413 607.089 32.2413 603.089C39.0413 599.089 57.7415 599.089 62.7415 609.089" stroke="black" stroke-linecap="round"/>
<path d="M39.2416 600.589C36.2415 598.589 31.2415 597.589 26.2415 601.089C19.0769 606.105 12.2416 634.589 41.2416 651.589C43.4082 651.923 48.6415 653.689 52.2415 658.089C56.7415 663.589 62.2407 678.209 73.2415 686.589C81 692.5 93 699 106.5 689C120 679 121.741 659.089 151.241 635.089C180.741 611.089 211.241 588.589 219.741 568.589C226.541 552.589 227.575 538.589 227.241 533.589" stroke="black" stroke-linecap="round"/>
<path d="M248.741 423.589C245.408 427.423 240.741 441.389 248.741 466.589C257.197 493.225 262.793 503.415 272.783 514.089M278.741 520.089C276.579 518.004 274.608 516.039 272.783 514.089M272.783 514.089C272.936 523.256 270.441 544.689 259.241 557.089C245.241 572.589 253.325 595.589 272.783 604.589C292.241 613.589 322.373 607.386 327.741 590.089C332.241 575.589 319.741 566.589 311.741 571.089" stroke="black" stroke-linecap="round"/>
<path d="M300.523 546C301.57 546.472 304.5 548.831 303.663 552.607C302.616 557.326 300 557.326 300 560.157C300 562.989 311.424 568.18 310.988 577.618C310.569 586.679 307.5 587.843 306.279 588" stroke="black" stroke-linecap="round"/>
<path d="M255 418.5C278 415 293.5 437.5 300.5 457C314 494.607 291 540.5 299.5 545.5" stroke="black" stroke-linecap="round"/>
<path d="M170.5 468.5C165.333 473.167 152 482.3 140 481.5C125 480.5 117 465 101.5 462C86.0001 459 77 469 76.5 475C76 481 78.5002 487 88.5002 489C96.5002 490.6 105.167 484 107 481.5" stroke="black" stroke-linecap="round"/>
<path d="M85.5 491.5C75.5 496.5 69.3001 490.2 66.5001 485C63.0001 478.5 65.4773 472.023 70.9999 466.5C71.7495 465.751 72.5442 465.085 73.3693 464.5" stroke="black" stroke-linecap="round"/>
<path d="M66.5 485.5C64.8333 488.833 62.8 497 68 503C74.5 510.5 87 506.5 88 503" stroke="black" stroke-linecap="round"/>
<path d="M80 507.5C83.2586 512.155 94.0006 520.215 111.5 516.117M138 503C136.452 504.935 134.006 507.768 125.098 511.5" stroke="black" stroke-linecap="round"/>
<path d="M129.5 510C141.167 507.667 159.5 506.778 176 497C181.5 493.741 187 487 188.5 483.5" stroke="black" stroke-linecap="round"/>
<path d="M167 623C171.333 630.5 181.4 645.7 187 646.5C194 647.5 238 637 247 632" stroke="black" stroke-linecap="round"/>
<path d="M186 607C188.022 609.587 192.587 615.674 194.667 619.326C196.747 622.978 198.422 626.63 199 628" stroke="black" stroke-linecap="round"/>
<path d="M197 622.5C212.167 617.833 244.2 608.2 251 607C259.5 605.5 264 608.5 267.5 615.5C270.639 621.777 269 643.5 269 651.5C269 659.5 267.5 670 260.5 674.5C253.5 679 225.75 689 217.5 684.5C212 681.5 205.5 666.5 214 659C222.5 651.5 236.5 649 245.5 651.5M222.5 647.5C217 646.667 206 647.5 200.5 652.5C193.618 658.756 192.5 668.5 198 676C202.4 682 209.5 682.5 214 682.5" stroke="black" stroke-linecap="round"/>
<path d="M196.5 646C192.833 647.333 185.6 652 186 660C186.4 668 191 673 195.5 673" stroke="black" stroke-linecap="round"/>
<path d="M259 496.5C256.667 499.333 249.9 505.4 241.5 507C233.1 508.6 227.5 524 227 532" stroke="black" stroke-linecap="round"/>
<path d="M211.5 411.5C211.5 413.333 212.6 417.8 217 421C221.4 424.2 226 425 230.5 425.5" stroke="black" stroke-linecap="round"/>
<path d="M194 405C194.5 406.167 196.1 408.7 198.5 409.5C200.9 410.3 204 410.5 206 410" stroke="black" stroke-linecap="round"/>
<path d="M198 410C197.833 411.167 198.7 413.1 201.5 413.5C204.3 413.9 206.5 412 206 410.5" stroke="black" stroke-linecap="round"/>
<path d="M219.5 423C218.5 425.5 220.869 427.974 223.5 428.5C226 429 229 428 229 425.5" stroke="black" stroke-linecap="round"/>
<path d="M192 458C193.6 462 193.333 464.333 193 465" stroke="black" stroke-linecap="round"/>
<path d="M132.5 569C135.833 574 144.948 579.532 159.5 576.5C171.5 574 181.5 565 186.5 555.5C191.5 546 199 526 189.5 519C185.722 516.216 181 515.5 174 516" stroke="black" stroke-width="0.8" stroke-linecap="round"/>
<path d="M200.5 594.5C202.5 599.667 211.009 606.215 223 607.5C237 609 251.5 597.5 254 589" stroke="black" stroke-linecap="round"/>
<path d="M224 557C227.5 555.333 235.4 554.6 241 557C246.6 559.4 250.5 560.5 253 558.5" stroke="black" stroke-linecap="round"/>
<path d="M253.5 558C257 554.5 251.5 551 250.5 549.5C249.5 548 261 548 262 551" stroke="black" stroke-linecap="round"/>
<path d="M211 595C211.667 595 213.6 594.7 216 593.5C218.4 592.3 219.667 590.667 220 590" stroke="black" stroke-width="0.8" stroke-linecap="round"/>
<path d="M218 596C218.519 596 220.022 595.82 221.889 595.1C223.756 594.38 224.741 593.4 225 593" stroke="black" stroke-width="0.8" stroke-linecap="round"/>
<path d="M226 596C226.37 596 227.444 595.88 228.778 595.4C230.111 594.92 230.815 594.267 231 594" stroke="black" stroke-width="0.8" stroke-linecap="round"/>
<path d="M232.5 405C235 406.167 241.8 408.3 249 407.5C256.2 406.7 259 401.833 259.5 399.5" stroke="black" stroke-width="0.8" stroke-linecap="round"/>
<path d="M199.5 489C202 490 206.5 492 210.5 493C214.5 494 219.333 494 220 494" stroke="black" stroke-width="0.8" stroke-linecap="round"/>
<path d="M70 459.698L78 470.538M80 452.5L88.1635 463M92 489.509L97 496.5M104.5 484.445L124.05 510.108C126.256 513.003 125.781 517.125 122.974 519.442V519.442C119.976 521.918 115.513 521.369 113.204 518.241L106.5 509.156" stroke="black"/>
<path d="M70.2132 459.714C65.7504 461.822 60.7628 463 55.5 463C36.4462 463 21 447.554 21 428.5C21 409.446 36.4462 394 55.5 394C74.5538 394 90 409.446 90 428.5C90 437.827 86.2984 446.29 80.2841 452.5" stroke="black"/>
<circle cx="56" cy="428" r="26.5" stroke="black"/>
<path d="M93 497C95.6667 496.333 101.5 495 105.5 499C110.756 504.256 107 510.5 104.5 512.5" stroke="black"/>
<path d="M403.85 113.968C398.488 113.635 394.493 110.635 395.052 107.301C395.471 104.801 416 103.551 416 107.718C416 110.635 410.554 114.385 403.85 113.968Z" stroke="black" stroke-linecap="round"/>
<path d="M443.565 113.957C437.677 113.613 433.905 110.086 435.285 107.505C435.745 104.924 458 103.483 458 107.505C458 111.527 450.925 114.387 443.565 113.957Z" stroke="black" stroke-linecap="round"/>
<path d="M374 101C377.389 102.019 385.583 103.882 391.242 103.184C398.316 102.31 403.179 101 411.137 101C419.095 101 420.863 103.184 426.169 103.184C431.474 103.184 439.874 101 447.39 101C454.905 101 458.884 101.437 461.095 103.184C463.305 104.93 462.421 117.595 447.39 118.905C435.364 119.953 430.884 112.063 430.148 107.987C430 107.259 428.998 105.804 426.169 105.804C423.339 105.804 422.042 106.677 421.747 107.114C421.011 111.044 416.531 118.905 404.505 118.905C392.48 118.905 389.179 111.627 389.032 107.987L374 104.93" stroke="black" stroke-linecap="round"/>
<path d="M99.5 42.5C125.657 42.5 149.395 58.1033 166.615 83.4473C183.834 108.788 194.5 143.825 194.5 182.55C194.5 230.737 177.986 273.2 152.895 298.39C149.302 301.996 145.535 305.248 141.616 308.111L141.449 308.233L141.417 308.438C140.602 313.709 140.599 317.4 140.904 320.229C141.208 323.045 141.823 325.018 142.203 326.743C142.88 329.812 144.426 333.226 146.175 336.227C147.616 338.699 149.213 340.922 150.606 342.464C147.516 342.216 141.305 340.564 134.362 335.083C126.391 328.79 123.486 321.616 123.028 318.901L122.929 318.309L122.364 318.515C115.039 321.184 107.381 322.6 99.5 322.6C73.3433 322.6 49.6053 306.997 32.3848 281.653C15.166 256.312 4.5 221.275 4.5 182.55C4.50004 143.825 15.1661 108.788 32.3848 83.4473C49.6053 58.1033 73.3432 42.5 99.5 42.5Z" stroke="black"/>
<path d="M48.5606 129.09V127.59H55.0406C56.6606 127.59 58.0606 127.33 59.2406 126.81C60.4406 126.29 61.4306 125.58 62.2106 124.68C62.9906 123.78 63.5706 122.76 63.9506 121.62C64.3506 120.46 64.5506 119.26 64.5506 118.02C64.5506 116.72 64.3506 115.5 63.9506 114.36C63.5706 113.22 62.9806 112.21 62.1806 111.33C61.3806 110.45 60.3906 109.76 59.2106 109.26C58.0306 108.76 56.6406 108.51 55.0406 108.51H48.5606V107.01H54.8606C56.8006 107.01 58.4806 107.32 59.9006 107.94C61.3206 108.54 62.4906 109.35 63.4106 110.37C64.3506 111.39 65.0506 112.54 65.5106 113.82C65.9706 115.1 66.2006 116.42 66.2006 117.78V118.26C66.2006 119.56 65.9806 120.86 65.5406 122.16C65.1006 123.44 64.4106 124.6 63.4706 125.64C62.5506 126.68 61.3806 127.52 59.9606 128.16C58.5406 128.78 56.8406 129.09 54.8606 129.09H48.5606ZM47.5106 129.09V107.01H49.1306V129.09H47.5106ZM71.5047 129V107.01H73.1247V129H71.5047ZM85.1847 129L77.4447 119.4H79.3947L87.1647 129H85.1847ZM72.3747 120.33V118.86H78.2547C79.5147 118.86 80.5247 118.63 81.2847 118.17C82.0647 117.71 82.6347 117.09 82.9947 116.31C83.3747 115.51 83.5647 114.63 83.5647 113.67C83.5647 112.71 83.3747 111.84 82.9947 111.06C82.6347 110.26 82.0647 109.63 81.2847 109.17C80.5247 108.71 79.5147 108.48 78.2547 108.48H72.3747V107.01H78.0447C79.6447 107.01 80.9747 107.29 82.0347 107.85C83.0947 108.39 83.8847 109.15 84.4047 110.13C84.9247 111.09 85.1847 112.21 85.1847 113.49V113.85C85.1847 115.13 84.9247 116.26 84.4047 117.24C83.8847 118.2 83.0947 118.96 82.0347 119.52C80.9747 120.06 79.6447 120.33 78.0447 120.33H72.3747ZM91.7489 129V107.1H93.3689V129H91.7489ZM92.8589 129V127.53H104.139V129H92.8589ZM92.8589 118.62V117.12H103.059V118.62H92.8589ZM92.8589 108.57V107.1H103.779V108.57H92.8589ZM107.363 129L115.613 107.1H118.853L127.373 129H125.693L117.563 108.03L118.553 108.57H115.823L116.843 108.03L108.983 129H107.363ZM111.293 121.62L111.863 120.15H122.723L123.293 121.62H111.293ZM132.149 129V107.1H134.159L141.479 122.79H142.079L149.399 107.1H151.499V129H149.879V108.96L150.059 108.99L142.919 124.29H140.579L133.439 108.99L133.649 108.96V129H132.149ZM44.5483 174.09V172.62H51.2383C52.6583 172.62 53.7683 172.2 54.5683 171.36C55.3683 170.52 55.7683 169.44 55.7683 168.12C55.7683 166.78 55.3783 165.7 54.5983 164.88C53.8183 164.04 52.6983 163.62 51.2383 163.62H44.5483V162.48H50.9683C52.2483 162.48 53.3683 162.69 54.3283 163.11C55.2883 163.51 56.0383 164.12 56.5783 164.94C57.1383 165.76 57.4183 166.77 57.4183 167.97V168.27C57.4183 169.39 57.1783 170.39 56.6983 171.27C56.2383 172.13 55.5283 172.82 54.5683 173.34C53.6083 173.84 52.4083 174.09 50.9683 174.09H44.5483ZM43.4383 174.09V152.01H45.0583V174.09H43.4383ZM44.5483 163.32V162.18H50.4283C51.9483 162.18 53.0683 161.78 53.7883 160.98C54.5083 160.16 54.8683 159.11 54.8683 157.83C54.8683 156.57 54.5083 155.53 53.7883 154.71C53.0683 153.89 51.9483 153.48 50.4283 153.48H44.5483V152.01H50.1283C52.2883 152.01 53.8883 152.53 54.9283 153.57C55.9883 154.59 56.5183 155.95 56.5183 157.65V157.95C56.5183 159.13 56.2583 160.12 55.7383 160.92C55.2183 161.72 54.4783 162.32 53.5183 162.72C52.5783 163.12 51.4483 163.32 50.1283 163.32H44.5483ZM72.7216 174.51C70.8816 174.51 69.2616 174.18 67.8616 173.52C66.4816 172.84 65.3216 171.95 64.3816 170.85C63.4616 169.73 62.7616 168.51 62.2816 167.19C61.8216 165.87 61.5916 164.55 61.5916 163.23V162.75C61.5916 161.37 61.8316 160.02 62.3116 158.7C62.8116 157.38 63.5316 156.18 64.4716 155.1C65.4316 154 66.5916 153.13 67.9516 152.49C69.3316 151.85 70.9216 151.53 72.7216 151.53C74.5016 151.53 76.0716 151.85 77.4316 152.49C78.8116 153.13 79.9716 154 80.9116 155.1C81.8716 156.18 82.5916 157.38 83.0716 158.7C83.5516 160.02 83.7916 161.37 83.7916 162.75V163.23C83.7916 164.55 83.5516 165.87 83.0716 167.19C82.6116 168.51 81.9216 169.73 81.0016 170.85C80.0816 171.95 78.9316 172.84 77.5516 173.52C76.1716 174.18 74.5616 174.51 72.7216 174.51ZM72.7216 173.01C74.2216 173.01 75.5516 172.73 76.7116 172.17C77.8916 171.61 78.8816 170.86 79.6816 169.92C80.5016 168.96 81.1116 167.89 81.5116 166.71C81.9316 165.51 82.1416 164.28 82.1416 163.02C82.1416 161.7 81.9216 160.44 81.4816 159.24C81.0616 158.04 80.4416 156.98 79.6216 156.06C78.8216 155.12 77.8316 154.38 76.6516 153.84C75.4916 153.3 74.1816 153.03 72.7216 153.03C71.2416 153.03 69.9116 153.3 68.7316 153.84C67.5716 154.38 66.5816 155.12 65.7616 156.06C64.9416 156.98 64.3116 158.04 63.8716 159.24C63.4516 160.44 63.2416 161.7 63.2416 163.02C63.2416 164.28 63.4516 165.51 63.8716 166.71C64.2916 167.89 64.9016 168.96 65.7016 169.92C66.5216 170.86 67.5116 171.61 68.6716 172.17C69.8516 172.73 71.2016 173.01 72.7216 173.01ZM89.4051 174V152.1H91.0251V174H89.4051ZM90.4551 174V172.53H101.015V174H90.4551ZM106.51 174.09V172.59H112.99C114.61 172.59 116.01 172.33 117.19 171.81C118.39 171.29 119.38 170.58 120.16 169.68C120.94 168.78 121.52 167.76 121.9 166.62C122.3 165.46 122.5 164.26 122.5 163.02C122.5 161.72 122.3 160.5 121.9 159.36C121.52 158.22 120.93 157.21 120.13 156.33C119.33 155.45 118.34 154.76 117.16 154.26C115.98 153.76 114.59 153.51 112.99 153.51H106.51V152.01H112.81C114.75 152.01 116.43 152.32 117.85 152.94C119.27 153.54 120.44 154.35 121.36 155.37C122.3 156.39 123 157.54 123.46 158.82C123.92 160.1 124.15 161.42 124.15 162.78V163.26C124.15 164.56 123.93 165.86 123.49 167.16C123.05 168.44 122.36 169.6 121.42 170.64C120.5 171.68 119.33 172.52 117.91 173.16C116.49 173.78 114.79 174.09 112.81 174.09H106.51ZM105.46 174.09V152.01H107.08V174.09H105.46ZM129.454 174V152.1H131.074V174H129.454ZM130.504 174V172.53H141.064V174H130.504ZM147.688 165.39L140.608 152.1H142.288L148.858 164.43L148.108 164.04H151.198L150.448 164.43L156.688 152.1H158.308L151.528 165.39H147.688ZM148.828 174V164.94H150.418V174H148.828ZM70.7403 219V198.06H72.3603V219H70.7403ZM63.7203 198.57V197.1H79.3803V198.57H63.7203ZM83.9413 219V197.1H85.5613V219H83.9413ZM85.0513 219V217.53H96.3313V219H85.0513ZM85.0513 208.62V207.12H95.2513V208.62H85.0513ZM85.0513 198.57V197.1H95.9713V198.57H85.0513ZM108.683 219.51C106.823 219.51 105.273 219.22 104.033 218.64C102.793 218.04 101.863 217.23 101.243 216.21C100.623 215.17 100.313 214 100.313 212.7H101.933C101.933 213.7 102.163 214.6 102.623 215.4C103.103 216.2 103.843 216.84 104.843 217.32C105.843 217.78 107.123 218.01 108.683 218.01C110.143 218.01 111.363 217.8 112.343 217.38C113.323 216.96 114.053 216.39 114.533 215.67C115.033 214.93 115.283 214.08 115.283 213.12C115.283 211.94 114.843 210.94 113.963 210.12C113.083 209.28 111.743 208.77 109.943 208.59L107.333 208.38C105.513 208.22 104.073 207.64 103.013 206.64C101.953 205.64 101.423 204.33 101.423 202.71C101.423 201.55 101.693 200.51 102.233 199.59C102.773 198.65 103.583 197.91 104.663 197.37C105.743 196.81 107.073 196.53 108.653 196.53C110.253 196.53 111.603 196.83 112.703 197.43C113.803 198.01 114.633 198.8 115.193 199.8C115.773 200.78 116.063 201.89 116.063 203.13H114.443C114.443 202.23 114.243 201.4 113.843 200.64C113.443 199.86 112.813 199.23 111.953 198.75C111.113 198.27 110.013 198.03 108.653 198.03C107.333 198.03 106.263 198.25 105.443 198.69C104.623 199.11 104.013 199.68 103.613 200.4C103.233 201.1 103.043 201.87 103.043 202.71C103.043 203.91 103.423 204.87 104.183 205.59C104.963 206.31 106.073 206.74 107.513 206.88L110.123 207.09C111.583 207.21 112.813 207.55 113.813 208.11C114.833 208.65 115.603 209.35 116.123 210.21C116.643 211.07 116.903 212.04 116.903 213.12C116.903 214.34 116.583 215.44 115.943 216.42C115.303 217.38 114.373 218.14 113.153 218.7C111.933 219.24 110.443 219.51 108.683 219.51ZM126.639 219V198.06H128.259V219H126.639ZM119.619 198.57V197.1H135.279V198.57H119.619ZM50.5693 264L44.3893 242.1H46.0393L51.8293 262.98L51.1393 262.53H53.3893L52.6993 262.98L57.4993 243.09H59.0293L53.9293 264H50.5693ZM63.7393 264L58.1893 243.09H59.7493L65.0293 262.98L64.2793 262.53H66.6193L65.8693 262.98L71.2093 242.1H72.8293L67.1293 264H63.7393ZM77.6731 264V242.1H79.2931V264H77.6731ZM93.5659 264.51C91.7059 264.51 90.1559 264.22 88.9159 263.64C87.6759 263.04 86.7459 262.23 86.1259 261.21C85.5059 260.17 85.1959 259 85.1959 257.7H86.8159C86.8159 258.7 87.0459 259.6 87.5059 260.4C87.9859 261.2 88.7259 261.84 89.7259 262.32C90.7259 262.78 92.0059 263.01 93.5659 263.01C95.0259 263.01 96.2459 262.8 97.2259 262.38C98.2059 261.96 98.9359 261.39 99.4159 260.67C99.9159 259.93 100.166 259.08 100.166 258.12C100.166 256.94 99.7259 255.94 98.8459 255.12C97.9659 254.28 96.6259 253.77 94.8259 253.59L92.2159 253.38C90.3959 253.22 88.9559 252.64 87.8959 251.64C86.8359 250.64 86.3059 249.33 86.3059 247.71C86.3059 246.55 86.5759 245.51 87.1159 244.59C87.6559 243.65 88.4659 242.91 89.5459 242.37C90.6259 241.81 91.9559 241.53 93.5359 241.53C95.1359 241.53 96.4859 241.83 97.5859 242.43C98.6859 243.01 99.5159 243.8 100.076 244.8C100.656 245.78 100.946 246.89 100.946 248.13H99.3259C99.3259 247.23 99.1259 246.4 98.7259 245.64C98.3259 244.86 97.6959 244.23 96.8359 243.75C95.9959 243.27 94.8959 243.03 93.5359 243.03C92.2159 243.03 91.1459 243.25 90.3259 243.69C89.5059 244.11 88.8959 244.68 88.4959 245.4C88.1159 246.1 87.9259 246.87 87.9259 247.71C87.9259 248.91 88.3059 249.87 89.0659 250.59C89.8459 251.31 90.9559 251.74 92.3959 251.88L95.0059 252.09C96.4659 252.21 97.6959 252.55 98.6959 253.11C99.7159 253.65 100.486 254.35 101.006 255.21C101.526 256.07 101.786 257.04 101.786 258.12C101.786 259.34 101.466 260.44 100.826 261.42C100.186 262.38 99.2559 263.14 98.0359 263.7C96.8159 264.24 95.3259 264.51 93.5659 264.51ZM107.789 264V242.1H109.409V264H107.789ZM108.899 264V262.53H120.179V264H108.899ZM108.899 253.62V252.12H119.099V253.62H108.899ZM108.899 243.57V242.1H119.819V243.57H108.899ZM125.953 264V242.1H127.573V264H125.953ZM127.003 264V262.53H137.563V264H127.003ZM144.187 255.39L137.107 242.1H138.787L145.357 254.43L144.607 254.04H147.697L146.947 254.43L153.187 242.1H154.807L148.027 255.39H144.187ZM145.327 264V254.94H146.917V264H145.327Z" fill="black"/>
</g>
<defs>
<clipPath id="clip0_957_349">
<rect width="586" height="740" fill="white"/>
</clipPath>
</defs>
</svg>
