<svg width="594" height="745" viewBox="0 0 594 745" fill="none" xmlns="http://www.w3.org/2000/svg">
<path d="M411.389 16.9754C415.126 16.4187 425.285 15.6428 436.015 16.9927C446.746 18.3425 451.058 19.0806 451.873 19.2809" stroke="black" stroke-width="0.8" stroke-linecap="round"/>
<path d="M377.937 306.514C373.111 313.67 364.457 329.78 364.457 336.97C364.457 348.453 371.446 349.951 376.439 348.453" stroke="black" stroke-width="0.8" stroke-linecap="round"/>
<path d="M328.509 361.937C332.337 367.096 343.088 378.113 355.469 380.909C367.851 383.705 373.61 384.071 374.941 383.904" stroke="black" stroke-width="0.8" stroke-linecap="round"/>
<path d="M337.182 351.777C342.366 357.251 350.931 364.275 360.463 366.427C367.711 368.064 372.689 368.868 375.839 369.22" stroke="black" stroke-width="0.8" stroke-linecap="round"/>
<path d="M319.023 364.431C322.019 364.098 329.009 362.434 333.003 358.44C336.997 354.445 338.994 347.955 337.996 342.463" stroke="black" stroke-width="0.8" stroke-linecap="round"/>
<path d="M316.527 291.538C318.325 289.312 323.837 285.008 331.505 285.602C339.174 286.196 342.689 289.806 343.488 291.538" stroke="black" stroke-width="0.8" stroke-linecap="round"/>
<path d="M381.932 236.619C377.938 238.616 373.768 239.455 367.453 240.139C358.466 241.113 351.259 237.074 343.474 240.139C331.123 245.002 329.8 255.099 319.214 262.139C308.627 269.179 303.334 267.419 296.718 277.979C290.101 288.539 292.748 299.539 288.778 309.219C284.808 318.899 279.515 321.539 278.633 333.419C277.751 345.299 288.778 355.859 289.219 365.978C289.66 376.098 290.542 386.658 296.718 394.138C302.893 401.618 313.957 402.736 320.096 407.778C327.594 413.938 329.328 420.604 340.827 425.818C350.531 430.218 360.095 424.058 372.446 429.338" stroke="black" stroke-width="0.8" stroke-linecap="round"/>
<path d="M267.482 217.646C260.592 308.41 271.568 366.379 268.099 421.885M343.988 541.529C341.785 539.329 334.883 537.254 326.513 538.449C317.262 539.769 316.029 544.207 304.046 544.207C303.154 544.207 299.053 543.708 296.557 542.21M266.101 538.386C259.147 538.627 255.409 539.924 251.623 541.529C253.44 533.989 256.161 520.25 258.971 501.809" stroke="black" stroke-width="0.8" stroke-linecap="round"/>
<path d="M271.592 190.683C272.489 190.317 275.089 189.147 278.317 187.392C281.545 185.638 284.421 186.943 283.076 189.684" stroke="black" stroke-width="0.8" stroke-linecap="round"/>
<path d="M280.08 196.677C283.046 194.877 281.959 192.061 276.874 191.197C270.518 190.117 259.132 190.936 256.534 191.917C252.72 193.356 252.225 196.596 255.615 197.675" stroke="black" stroke-width="0.8" stroke-linecap="round"/>
<path d="M280.927 201.613C283.203 200.765 283.781 197.324 278.319 196.306C271.492 195.034 259.203 195.882 256.472 197.154C253.741 198.426 252.376 201.394 255.107 202.667" stroke="black" stroke-width="0.8" stroke-linecap="round"/>
<path d="M280.937 208.66C285.104 207.182 284.303 203.317 278.747 202.299C271.802 201.027 259.3 201.875 256.522 203.147C253.743 204.419 252.354 207.388 255.133 208.66" stroke="black" stroke-width="0.8" stroke-linecap="round"/>
<path d="M277.428 209.036C283.149 209.822 281.928 213.034 279.831 213.794C279.3 214.109 276.758 215.24 270.675 215.522C262.223 215.914 259.119 215.345 256.933 214.562C253.782 213.386 253.722 210.572 257.53 209.645C260.214 208.991 271.092 208.165 277.428 209.036Z" stroke="black" stroke-width="0.8" stroke-linecap="round"/>
<path d="M279.582 191.683C287.064 187.738 299.563 182.302 317.872 181.6C340.758 180.724 365.404 175.901 372.446 173.709" stroke="black" stroke-width="0.8" stroke-linecap="round"/>
<path d="M430.361 339.469C431.987 354.617 439.191 383.977 458.285 396.827C489.754 418.005 506.449 414.917 517.235 415.358" stroke="black" stroke-width="0.8" stroke-linecap="round"/>
<path d="M402.402 154.736C402.735 155.778 403.401 159.203 403.401 162.33C403.401 165.582 402.985 169.924 402.652 171.711" stroke="black" stroke-width="0.8" stroke-linecap="round"/>
<path d="M381.433 249.599C385.853 202.38 387.621 167.841 434.919 149.916C455.252 142.21 465.861 141.171 468.513 144.669C471.166 148.167 466.303 163.469 466.303 163.469" stroke="black" stroke-width="0.8" stroke-linecap="round"/>
<path d="M471.301 148.247C487.777 150.244 497.825 140.684 499.759 132.77C505.251 110.302 491.868 111.641 483.469 101.685C479.788 97.3212 474.296 89.8321 473.298 77.8496" stroke="black" stroke-width="0.8" stroke-linecap="round"/>
<path d="M370.448 102.813C380.333 100.375 390.981 98.068 398.407 92.8649C403.762 89.1132 409.192 84.7259 412.387 78.8477" stroke="black" stroke-width="0.8" stroke-linecap="round"/>
<path d="M443.342 78.8477C445.339 84.3396 448.854 88.8331 450.691 90.5697C455.284 94.9112 462.634 97.9502 466.309 98.8185" stroke="black" stroke-width="0.8" stroke-linecap="round"/>
<path d="M423.371 78.8477C424.868 83.3411 428.131 87.7935 429.122 88.8114C433.034 92.8273 437.849 95.3236 441.344 95.8229" stroke="black" stroke-width="0.8" stroke-linecap="round"/>
<path d="M370.526 102.696C369.67 100.551 365.353 100.153 362.068 101.965C356.935 104.797 357.606 114.13 362.068 117.822C366.174 121.22 372.333 121.786 376.44 121.786" stroke="black" stroke-width="0.8" stroke-linecap="round"/>
<path d="M376.439 121.96C379.402 138.53 389.839 155.918 416.262 157.732M460.898 98.8179C462.336 112.964 460.188 129.343 452.472 141.26" stroke="black" stroke-width="0.8" stroke-linecap="round"/>
<circle cx="422.873" cy="142.254" r="1.49782" fill="black"/>
<path d="M420.376 126.78C420.504 125.605 421.144 123.168 422.68 122.816C424.217 122.463 424.985 125.312 425.369 126.78" stroke="black" stroke-width="0.8" stroke-linecap="round"/>
<path d="M423.997 182.18C426.953 179.596 444.188 162.475 461.591 163.743C473.418 164.604 484.298 186.289 486.451 191.673" stroke="black" stroke-width="0.8" stroke-linecap="round"/>
<path d="M487.528 193.827C509.282 230.661 524.359 263.517 525.911 282.503C529.043 320.83 496.764 377.413 481.287 408.367" stroke="black" stroke-width="0.8" stroke-linecap="round"/>
<path d="M449.333 230.626C462.288 248.051 476.969 276.801 481.287 295.532" stroke="black" stroke-width="0.8" stroke-linecap="round"/>
<path d="M484.283 285.546C480.788 298.527 473.94 320.913 463.314 342.963C454.012 362.266 446.838 377.912 444.841 382.405" stroke="black" stroke-width="0.8" stroke-linecap="round"/>
<path d="M396.443 209.658C390.706 217.14 382.383 244.864 380.996 254.546C377.466 279.19 376.142 456.981 362.46 545.877C381.291 552.184 411.978 567.616 456.464 564.8C500.95 561.983 538.922 539.492 541.2 539.276C543.477 539.059 512.085 345.937 512.085 345.937" stroke="black" stroke-width="0.8" stroke-linecap="round"/>
<path d="M342.004 179.703C339.678 175.973 335.373 167.617 336.769 164.036C338.514 159.56 360.939 159.845 376.468 158.665C388.247 157.769 394.79 155.531 397.408 153.741" stroke="black" stroke-width="0.8" stroke-linecap="round"/>
<circle cx="346.984" cy="169.216" r="3.0949" stroke="black" stroke-width="0.8"/>
<circle cx="396.909" cy="253.094" r="4.09345" stroke="black" stroke-width="0.8"/>
<circle cx="391.917" cy="326.988" r="4.09345" stroke="black" stroke-width="0.8"/>
<circle cx="389.92" cy="400.879" r="4.09345" stroke="black" stroke-width="0.8"/>
<circle cx="389.92" cy="487.751" r="4.09345" stroke="black" stroke-width="0.8"/>
<path d="M255.615 214.652C255.92 215.658 256.059 216.607 259.734 218.424C262.023 219.555 266.447 219.807 266.599 219.555" stroke="black" stroke-width="0.8" stroke-linecap="round"/>
<path d="M410.391 562.384C410.391 576.624 406.397 634.041 404.738 665.257C400.969 667.016 388.735 670.621 369.95 670.972C351.164 671.324 335.162 665.257 329.509 662.18C330.378 658.223 332.766 645.352 334.727 629.207C337.771 604.148 348.207 495.56 353.426 477.535C358.644 459.51 365.424 447.32 371.947 436.329" stroke="black" stroke-width="0.8" stroke-linecap="round"/>
<path d="M334.001 676.379C327.011 669.486 313.584 669.33 305.426 676.379C295.229 685.189 300.366 700.357 305.426 705.013C317.397 716.026 350.033 721.42 379.934 718.914C416.731 715.831 412.272 684.749 397.642 680.784" stroke="black" stroke-width="0.8" stroke-linecap="round"/>
<path d="M497.263 692.452C488.276 687.459 476.152 688.309 469.803 696.945C461.868 707.741 468.258 721.16 477.292 726.402C490.773 734.224 520.57 734.128 548.688 724.405C581.64 713.011 575.827 681.619 558.598 678.389" stroke="black" stroke-width="0.8" stroke-linecap="round"/>
<path d="M469.304 563.797C472.3 577.824 478.79 609.575 483.783 633.54C488.685 657.071 491.469 664.612 491.469 668.556C498.857 670.017 515.795 672.063 533.095 670.31C550.394 668.556 558.287 664.247 561.17 662.201C556.845 639.7 545.052 592.178 541.744 577.824C538.314 562.937 533.095 545.217 533.095 543.172" stroke="black" stroke-width="0.8" stroke-linecap="round"/>
<path d="M335 678.974C333.003 687.961 351.565 693.256 374.442 692.454C388.071 691.976 399.609 686.577 397.409 682.968" stroke="black" stroke-width="0.8" stroke-linecap="round"/>
<path d="M334.5 676.891C337.068 677.658 342.631 678.425 346.483 677.658C350.159 676.926 352.331 672.8 352.474 669.988" stroke="black" stroke-width="0.8" stroke-linecap="round"/>
<path d="M395.86 667.988C395.473 670.699 395.085 674.835 395.86 679.115C396.323 681.672 397.281 682.681 397.41 682.966" stroke="black" stroke-width="0.8" stroke-linecap="round"/>
<path d="M500.258 693.95C498.261 700.441 518.141 703.998 540.2 697.944C553.34 694.337 563.665 684.963 559.919 680.33" stroke="black" stroke-width="0.8" stroke-linecap="round"/>
<path d="M497.762 692.454C500.531 692.711 506.25 690.957 508.737 687.32C510.921 684.127 512.333 674.158 511.742 670.986" stroke="black" stroke-width="0.8" stroke-linecap="round"/>
<path d="M554.709 665.747C554.914 668.558 555.452 672.796 557.308 676.876C558.416 679.314 559.71 680.077 559.92 680.329" stroke="black" stroke-width="0.8" stroke-linecap="round"/>
<path d="M378.614 40.2446C373.243 39.8982 363.341 41.466 365.075 47.175C368.098 57.133 415.386 72.2732 430.361 75.0698C453.328 79.3588 473.606 79.1714 478.705 75.0698C483.805 70.9682 478.277 65.7148 474.328 63.2838" stroke="black" stroke-width="0.8" stroke-linecap="round"/>
<path d="M378.378 40.7266C383.437 31.0651 398.579 16.7703 403.878 15.228C406.9 14.3487 418.378 21.4687 431.699 23.9627C435.898 24.7489 442.842 24.6581 446.337 21.968M472.547 63.3987C472.913 58.2731 473.166 54.6364 472.098 46.0807C471.078 37.9083 466.924 20.7676 460.927 17.8711C459.539 17.2009 456.348 18.0785 452.328 19.3585" stroke="black" stroke-width="0.8" stroke-linecap="round"/>
<path d="M392.416 49.3913C399.591 55.3463 414.445 61.6338 427.865 63.8702C445.838 66.8656 460.119 66.8161 466.808 63.87" stroke="black" stroke-width="0.8" stroke-linecap="round"/>
<path d="M315.528 485.252C315.029 491.077 314.33 505.323 315.528 515.708C316.726 526.093 318.024 531.685 318.523 533.183" stroke="black" stroke-width="0.8" stroke-linecap="round"/>
<path d="M285.573 215.651C288.568 217.648 291.065 220.644 294.56 224.139C298.055 227.633 301.05 231.628 302.548 233.625" stroke="black" stroke-width="0.8" stroke-linecap="round"/>
<path d="M288.069 204.665C290.732 205.996 298.115 208.409 305.543 210.157C314.031 212.154 322.519 211.655 330.008 211.655" stroke="black" stroke-width="0.8" stroke-linecap="round"/>
<path d="M277.084 220.643C277.584 222.307 278.782 227.333 279.581 234.123C280.38 240.914 279.914 248.935 279.581 252.097" stroke="black" stroke-width="0.8" stroke-linecap="round"/>
<path d="M453.413 431.655C454.883 431.605 464.908 434.125 474.738 430.93C482.602 428.374 486.954 425.746 488.147 424.752" stroke="black" stroke-width="0.8" stroke-linecap="round"/>
<path d="M478.791 441.818C481.287 440.32 482.754 439.852 486.779 435.827C488.776 433.83 490.607 430.335 490.774 429.835" stroke="black" stroke-width="0.8" stroke-linecap="round"/>
<path d="M491.77 387.399C490.106 387.399 484.88 386.7 477.291 383.904C467.805 380.409 465.808 378.911 462.812 379.411C459.509 379.961 457.32 384.403 458.319 387.399C459.318 390.395 464.468 394.401 471.3 396.885C476.792 398.882 482.284 399.881 485.28 399.881" stroke="black" stroke-width="0.8" stroke-linecap="round"/>
<circle cx="465.809" cy="385.9" r="4.09345" stroke="black" stroke-width="0.8"/>
<path d="M370.949 55.8809C361.795 65.367 350.179 89.8314 352.975 115.793C355.771 141.756 375.609 154.071 382.931 156.734" stroke="black" stroke-width="0.8" stroke-linecap="round"/>
<circle cx="330.507" cy="309.514" r="13.5796" stroke="black" stroke-width="0.8"/>
<path d="M249.553 421.031C245.246 413.494 223.162 401.417 210.181 402.416C193.853 403.671 186.623 411.825 184.46 414.987" stroke="black" stroke-width="0.8" stroke-linecap="round"/>
<path d="M160.504 407.331C157.92 406.47 155.479 407.69 155.12 408.408C154.043 410.561 155.766 411.854 158.35 412.715C161.581 413.792 164.811 413.792 164.811 411.638C164.811 409.485 163.734 408.408 160.504 407.331Z" fill="black" stroke="black" stroke-width="0.8" stroke-linecap="round"/>
<path d="M198.94 429.467C189.953 418.982 169.084 398.811 157.501 402.007C143.022 406.001 143.521 426.97 151.509 447.441C159.498 467.911 183.463 484.886 194.447 489.379C205.431 493.873 200.438 504.857 181.965 511.847C163.492 518.836 137.578 522.831 129.542 548.793C121.506 574.755 136.532 597.222 144.021 605.71" stroke="black" stroke-width="0.8" stroke-linecap="round"/>
<path d="M157.001 598.217C149.179 602.711 131.811 616.392 118.557 629.172C104.578 642.652 95.9235 653.969 92.0957 657.631" stroke="black" stroke-width="0.8" stroke-linecap="round"/>
<path d="M94.5923 667.619C92.5952 661.128 88.3014 645.85 87.1032 636.664C85.6054 625.181 74.2682 614.049 66.633 611.7C60.1425 609.703 55.1501 609.704 49.6578 613.198C45.7348 615.694 44.1659 622.684 46.1629 626.678" stroke="black" stroke-width="0.8" stroke-linecap="round"/>
<path d="M26.1919 618.688C25.5774 617.011 23.0444 611.157 29.8848 605.166C35.8112 599.976 54.6506 600.215 59.6433 610.2" stroke="black" stroke-width="0.8" stroke-linecap="round"/>
<path d="M36.1765 601.713C33.1808 599.716 28.1881 598.717 23.1954 602.212C13.7326 608.837 9.21586 635.663 38.1736 652.639C40.3371 652.971 45.5627 654.736 49.1575 659.129C53.6509 664.621 59.1422 679.219 70.1269 687.588C77.8742 693.49 89.8567 699.98 103.337 689.995C116.817 680.009 118.556 660.128 148.013 636.163C177.47 612.198 207.926 589.73 216.414 569.76C223.204 553.783 224.236 539.803 223.903 534.811" stroke="black" stroke-width="0.8" stroke-linecap="round"/>
<path d="M245.372 424.969C242.044 428.797 237.384 442.743 245.372 467.906C253.816 494.503 259.403 504.679 269.379 515.337M275.329 521.328C273.17 519.246 271.201 517.284 269.379 515.337M269.379 515.337C269.532 524.49 267.041 545.892 255.857 558.274C241.877 573.752 249.949 596.718 269.379 605.705C288.809 614.692 318.897 608.498 324.257 591.226C328.751 576.747 316.269 567.761 308.28 572.254" stroke="black" stroke-width="0.8" stroke-linecap="round"/>
<path d="M297.078 547.203C298.123 547.674 301.049 550.03 300.213 553.8C299.168 558.512 296.556 558.512 296.556 561.339C296.556 564.167 307.963 569.35 307.527 578.775C307.11 587.822 304.044 588.984 302.825 589.141" stroke="black" stroke-width="0.8" stroke-linecap="round"/>
<path d="M251.623 419.891C274.589 416.396 290.067 438.863 297.056 458.335C310.537 495.887 287.57 541.713 296.058 546.706" stroke="black" stroke-width="0.8" stroke-linecap="round"/>
<path d="M167.245 469.813C162.086 474.473 148.772 483.593 136.79 482.795C121.812 481.796 113.823 466.319 98.346 463.323C82.8685 460.327 73.8815 470.313 73.3822 476.304C72.883 482.295 75.3795 488.287 85.3649 490.284C93.3533 491.881 102.007 485.291 103.838 482.795" stroke="black" stroke-width="0.8" stroke-linecap="round"/>
<path d="M85.8641 463.825C81.3706 461.328 73.405 462.304 67.8902 467.819C62.3756 473.334 59.902 479.802 63.3969 486.292C66.1928 491.484 72.3837 497.775 82.3691 492.783" stroke="black" stroke-width="0.8" stroke-linecap="round"/>
<path d="M63.396 486.789C61.7318 490.117 59.7014 498.272 64.8938 504.263C71.3843 511.752 83.8662 507.758 84.8647 504.263" stroke="black" stroke-width="0.8" stroke-linecap="round"/>
<path d="M76.876 508.759C80.3709 513.751 92.4865 522.666 112.324 516.248C129.3 510.756 132.794 506.761 134.792 504.265" stroke="black" stroke-width="0.8" stroke-linecap="round"/>
<path d="M126.304 511.255C137.954 508.925 156.261 508.037 172.736 498.274C178.228 495.019 183.72 488.288 185.218 484.793" stroke="black" stroke-width="0.8" stroke-linecap="round"/>
<path d="M163.749 624.09C168.076 631.579 178.128 646.757 183.72 647.556C190.71 648.555 234.646 638.07 243.633 633.077" stroke="black" stroke-width="0.8" stroke-linecap="round"/>
<path d="M182.722 608.114C184.741 610.697 189.299 616.776 191.376 620.422C193.453 624.069 195.126 627.716 195.703 629.084" stroke="black" stroke-width="0.8" stroke-linecap="round"/>
<path d="M193.705 623.591C208.85 618.931 240.836 609.312 247.627 608.114C256.114 606.616 260.608 609.612 264.102 616.601C267.236 622.869 265.6 644.561 265.6 652.549C265.6 660.537 264.102 671.022 257.113 675.515C250.123 680.009 222.413 689.994 214.175 685.501C208.683 682.505 202.193 667.527 210.68 660.038C219.168 652.549 233.148 650.053 242.135 652.549M219.168 648.555C213.676 647.723 202.692 648.555 197.2 653.547C190.328 659.795 189.212 669.524 194.704 677.013C199.097 683.004 206.187 683.504 210.68 683.504" stroke="black" stroke-width="0.8" stroke-linecap="round"/>
<path d="M193.206 647.057C189.545 648.388 182.322 653.048 182.721 661.036C183.121 669.025 187.714 674.017 192.208 674.017" stroke="black" stroke-width="0.8" stroke-linecap="round"/>
<path d="M255.616 497.773C253.286 500.603 246.529 506.66 238.141 508.258C229.754 509.856 224.162 525.233 223.663 533.222" stroke="black" stroke-width="0.8" stroke-linecap="round"/>
<path d="M208.185 412.898C208.185 414.729 209.283 419.189 213.677 422.385C218.07 425.58 222.663 426.379 227.157 426.878" stroke="black" stroke-width="0.8" stroke-linecap="round"/>
<path d="M190.71 406.408C191.21 407.573 192.807 410.103 195.204 410.902C197.6 411.7 200.696 411.9 202.693 411.401" stroke="black" stroke-width="0.8" stroke-linecap="round"/>
<path d="M194.704 411.402C194.538 412.567 195.403 414.497 198.199 414.897C200.995 415.296 203.192 413.399 202.693 411.901" stroke="black" stroke-width="0.8" stroke-linecap="round"/>
<path d="M216.173 424.383C215.174 426.879 217.54 429.349 220.167 429.875C222.663 430.374 225.659 429.376 225.659 426.879" stroke="black" stroke-width="0.8" stroke-linecap="round"/>
<path d="M188.712 459.332C190.31 463.326 190.044 465.656 189.711 466.322" stroke="black" stroke-width="0.8" stroke-linecap="round"/>
<path d="M129.301 570.17C132.629 575.163 141.73 580.687 156.261 577.659C168.244 575.163 178.229 566.176 183.222 556.69C188.215 547.204 195.704 527.233 186.218 520.243C182.446 517.463 177.73 516.748 170.74 517.247" stroke="black" stroke-width="0.8" stroke-linecap="round"/>
<path d="M197.201 595.634C199.198 600.793 207.694 607.332 219.668 608.615C233.648 610.112 248.126 598.629 250.623 590.142" stroke="black" stroke-width="0.8" stroke-linecap="round"/>
<path d="M220.666 558.187C224.161 556.522 232.049 555.79 237.641 558.187C243.233 560.583 247.127 561.682 249.624 559.685" stroke="black" stroke-width="0.8" stroke-linecap="round"/>
<path d="M250.124 559.186C253.619 555.691 248.127 552.196 247.128 550.698C246.13 549.2 257.613 549.2 258.612 552.196" stroke="black" stroke-width="0.8" stroke-linecap="round"/>
<path d="M207.685 596.13C208.351 596.13 210.281 595.831 212.678 594.633C215.074 593.434 216.339 591.803 216.672 591.138" stroke="black" stroke-width="0.8" stroke-linecap="round"/>
<path d="M214.677 597.129C215.195 597.129 216.696 596.95 218.56 596.231C220.424 595.512 221.408 594.533 221.667 594.134" stroke="black" stroke-width="0.8" stroke-linecap="round"/>
<path d="M222.663 597.131C223.033 597.131 224.105 597.012 225.437 596.532C226.768 596.053 227.471 595.401 227.656 595.134" stroke="black" stroke-width="0.8" stroke-linecap="round"/>
<path d="M229.155 406.409C231.652 407.574 238.442 409.705 245.631 408.906C252.821 408.107 255.617 403.247 256.116 400.917" stroke="black" stroke-width="0.8" stroke-linecap="round"/>
<path d="M196.203 490.284C198.699 491.283 203.193 493.28 207.187 494.278C211.181 495.277 216.008 495.277 216.673 495.277" stroke="black" stroke-width="0.8" stroke-linecap="round"/>
<circle cx="404.897" cy="112.335" r="12.0818" fill="black" stroke="black" stroke-width="0.8"/>
<circle cx="438.849" cy="112.335" r="12.0818" fill="black" stroke="black" stroke-width="0.8"/>
<path d="M374.442 104.849L393.415 107.844" stroke="black" stroke-width="0.8"/>
<path d="M416.381 109.839L427.365 109.839" stroke="black" stroke-width="0.8"/>
<path d="M450.83 108.841L461.315 105.346" stroke="black" stroke-width="0.8"/>
<path d="M201.097 414.571H197.867H195.713L194.636 411.34L202.174 412.417L201.097 414.571Z" fill="black"/>
<path d="M218.326 429.646C215.742 429.646 215.814 426.056 216.173 424.262C219.403 424.98 225.864 426.631 225.864 427.492C225.864 428.569 221.557 429.646 218.326 429.646Z" fill="black"/>
</svg>
