<svg width="140" height="59" viewBox="0 0 140 59" fill="none" xmlns="http://www.w3.org/2000/svg">
<path d="M28.4053 21.3643C30.2996 21.3643 31.9355 23.178 31.9355 25.5498C31.9355 27.9215 30.2995 29.7354 28.4053 29.7354C26.511 29.7353 24.8751 27.9215 24.875 25.5498C24.875 23.178 26.511 21.3643 28.4053 21.3643Z" stroke="black" stroke-width="0.8"/>
<path d="M49.3687 21.3643C51.263 21.3643 52.8989 23.178 52.8989 25.5498C52.8989 27.9215 51.2629 29.7354 49.3687 29.7354C47.4744 29.7353 45.8385 27.9215 45.8384 25.5498C45.8384 23.178 47.4743 21.3643 49.3687 21.3643Z" stroke="black" stroke-width="0.8"/>
<ellipse cx="39.5771" cy="36.0976" rx="3.04685" ry="2.03123" fill="black"/>
<path d="M28.4263 38.1289C28.257 39.8216 29.0357 43.207 33.5044 43.207C37.9731 43.207 39.0901 39.8216 39.0901 38.1289" stroke="black" stroke-width="0.8" stroke-linecap="round"/>
<path d="M39.5982 38.1289C39.4289 39.8216 40.2075 43.207 44.6762 43.207C49.145 43.207 50.262 39.8216 50.2619 38.1289" stroke="black" stroke-width="0.8" stroke-linecap="round"/>
<path d="M15.5425 42.3888C18.3641 42.3888 19.5734 39.8622 20.0773 39.8623C20.5811 39.8624 20.0773 53 39.728 53C58.8748 53 58.3709 39.3571 58.8748 39.3571C59.3787 39.3571 59.3787 42.3889 62.9057 42.3889C66.9366 42.3889 68.4482 39.8623 68.9521 34.8094C69.4559 29.7565 66.4328 5.50249 38.2164 6.00778C10 6.51307 10 34.3041 10 36.8306C10 39.357 12.0155 42.3888 15.5425 42.3888Z" stroke="black" stroke-width="0.8"/>
<path d="M104.432 13.5212C114.29 13.521 117.336 5.40471 122.668 7.11998C128 8.83525 126.118 16.021 127.104 18.9879C128.089 21.9548 130.166 27.6954 129.075 34.8115C128.09 41.2399 122.668 52.1186 104.432 52.1186V13.5212Z" fill="black" stroke="black" stroke-width="0.8"/>
<rect x="98" y="13.0947" width="12" height="39" rx="4" fill="black"/>
<path d="M103.951 13.5215C94.0942 13.5212 90.6085 6.05751 85.716 7.12019C80.8235 8.18287 82.266 16.0212 81.2803 18.9881C80.2945 21.9551 78.2175 27.6956 79.3085 34.8117C80.2941 41.2401 85.7157 52.1188 103.951 52.1188V13.5215Z" fill="black" stroke="black" stroke-width="0.8"/>
<path d="M93.4126 20.9551C95.3069 20.9551 96.9429 22.7688 96.9429 25.1406C96.9428 27.5124 95.3069 29.3262 93.4126 29.3262C91.5183 29.3262 89.8824 27.5124 89.8823 25.1406C89.8823 22.7688 91.5183 20.9551 93.4126 20.9551Z" fill="white" stroke="#FFFCF2" stroke-width="0.8"/>
<path d="M114.376 20.9551C116.27 20.9551 117.906 22.7688 117.906 25.1406C117.906 27.5124 116.27 29.3262 114.376 29.3262C112.482 29.3262 110.846 27.5124 110.846 25.1406C110.846 22.7688 112.482 20.9551 114.376 20.9551Z" fill="white" stroke="#FFFCF2" stroke-width="0.8"/>
<path d="M103.894 13.8271C114.05 13.8269 117.366 6.34829 122.683 7.47743C128 8.60658 126.237 16.3067 127.253 19.2497C128.269 22.1927 130.409 27.887 129.285 34.9458C128.269 41.3223 122.683 52.1134 103.894 52.1134" stroke="black" stroke-width="0.8"/>
<path d="M104.708 13.8276C94.5521 13.8274 91 5.10709 85.9197 7.47794C80.8395 9.8488 82.365 16.3072 81.3494 19.2502C80.3338 22.1932 78.1938 27.8875 79.3179 34.9463C80.3334 41.3228 85.9194 52.1139 104.708 52.1139" stroke="black" stroke-width="0.8"/>
<ellipse cx="104.39" cy="35.8896" rx="3.04685" ry="2.03123" fill="#FFFCF2"/>
<path d="M93.2398 37.9209C93.0705 39.6136 93.8491 42.999 98.3178 42.999C102.787 42.999 103.904 39.6136 103.904 37.9209" stroke="#FFFCF2" stroke-width="1.5" stroke-linecap="round"/>
<path d="M104.412 37.9209C104.243 39.6136 105.022 42.999 109.49 42.999C113.959 42.999 115.076 39.6136 115.076 37.9209" stroke="#FFFCF2" stroke-width="1.5" stroke-linecap="round"/>
<circle cx="93.5" cy="26.5" r="2.5" fill="black"/>
<circle cx="114.5" cy="26.5" r="2.5" fill="black"/>
</svg>
