<svg width="598" height="399" viewBox="0 0 598 399" fill="none" xmlns="http://www.w3.org/2000/svg">
<path d="M183.099 200.945C196.791 188.818 230.278 165.033 248.429 165.346C271.119 165.737 270.336 171.605 278.943 171.605C287.549 171.605 288.771 164.844 300.458 163.781C313.368 162.607 320.801 166.128 334.493 165.346C350.424 164.435 364.082 159.371 374.395 150.089C378.307 146.568 378.698 145.786 379.872 144.612" stroke="#3A86FE" stroke-linecap="round"/>
<path d="M183.49 201.336C190.141 198.728 216.273 191.008 233.172 190.383C254.297 189.6 270.727 195.077 298.894 191.947C317.671 189.861 329.407 189.209 354.835 176.299C369.914 168.644 377.655 153.349 380.654 148.524" stroke="#3A86FE" stroke-linecap="round"/>
<path d="M183.099 200.945C208.918 218.549 263.567 227.122 287.158 225.59C317.28 223.634 338.405 212.29 356.4 194.294C372.588 178.106 376.351 165.737 381.828 151.263" stroke="#3A86FE" stroke-linecap="round"/>
<path d="M420.165 261.971L381.045 148.915C377.524 136.788 379.48 121.14 390.824 116.837C404.057 111.817 414.688 117.619 418.991 127.79C418.991 127.79 420.556 131.311 422.121 135.614C423.686 139.917 424.859 143.047 426.033 146.177C427.206 149.306 473.94 279.494 473.94 279.494" stroke="#3A86FE" stroke-linecap="round"/>
<path d="M461.065 243.975C459.455 239.229 459.053 226.539 467.891 222.459C478.062 217.765 484.712 223.242 486.669 225.548" stroke="#3A86FE" stroke-linecap="round"/>
<path d="M324.322 324.171C318.063 316.738 313.196 296.011 328.233 288.181C342.522 280.74 352.879 288.181 355.226 290.919L364.786 303.822" stroke="#3A86FE" stroke-linecap="round"/>
<path d="M354.836 290.529C352.619 286.486 352.034 274.327 362.049 267.441C372.064 260.556 380.915 263.927 384.566 265.883L398.65 284.66" stroke="#3A86FE" stroke-linecap="round"/>
<path d="M384.957 266.274C383.653 261.058 383.218 247.496 393.563 242.019C402.431 237.324 410.776 238.498 412.34 240.064" stroke="#3A86FE" stroke-linecap="round"/>
<path d="M112 153.041C116.457 197.001 136.884 247.666 180.711 278.959C232.398 315.864 296.963 311.37 318.505 311.37" stroke="#3A86FE" stroke-linecap="round"/>
</svg>
