<svg width="109" height="87" viewBox="0 0 109 87" fill="none" xmlns="http://www.w3.org/2000/svg">
<rect x="14.2792" y="11.1461" width="69.7837" height="69.4926" rx="5.5" transform="rotate(-8.60995 14.2792 11.1461)" stroke="black"/>
<path d="M29.0972 78.5791L30.0865 85.1133L91.3242 75.8411L90.3349 69.3069" stroke="black"/>
<rect x="22.5331" y="16.3023" width="54.9443" height="38.0555" rx="2.5" transform="rotate(-8.60995 22.5331 16.3023)" fill="black" stroke="black"/>
<path d="M51.3527 23.3622C52.7049 26.0164 55.3246 31.7051 54.9847 33.2269C54.6449 34.7486 52.6413 35.0112 51.6819 34.9522" stroke="#FFFCF2" stroke-width="2" stroke-linecap="round"/>
<path d="M30.061 70.1709L86.9507 61.557" stroke="black" stroke-linecap="round"/>
<path d="M37.4805 22.0732L44.259 26.3848" stroke="#FFFCF2" stroke-width="2" stroke-linecap="round"/>
<path d="M43.6797 21.3037L38.2702 27.2897" stroke="#FFFCF2" stroke-width="2" stroke-linecap="round"/>
<path d="M59.0386 18.8096L65.8171 23.1211" stroke="#FFFCF2" stroke-width="2" stroke-linecap="round"/>
<path d="M65.2388 18.04L59.8293 24.026" stroke="#FFFCF2" stroke-width="2" stroke-linecap="round"/>
<path d="M44.3921 43.4461C44.7123 42.8638 45.7936 40.5649 48.1889 40.2022C51.1831 39.7488 50.9003 41.9268 53.2957 41.5641C55.691 41.2015 54.7762 39.2048 58.3692 38.6608C60.1657 38.3888 62.5253 40.1667 65.5195 39.7133" stroke="#FFFCF2" stroke-width="2" stroke-linecap="round"/>
</svg>
