<svg width="586" height="740" viewBox="0 0 586 740" fill="none" xmlns="http://www.w3.org/2000/svg">
<g clip-path="url(#clip0_957_559)">
<rect width="586" height="740" fill="#FFFCF2"/>
<path d="M243.261 74.1656C243.836 71.8469 245.001 66.6297 238.624 65.4703C233.742 64.5827 225.871 71.2669 228.19 84.0198C230.045 94.2222 232.054 96.5143 232.827 96.385C228.529 108.442 226.252 120.472 228.925 129.339C235.036 149.611 247.156 158.139 262.971 160.538C268.961 161.31 281.636 160.885 291.375 157.639C301.114 154.393 312.823 144.306 316.301 138.51" stroke="black" stroke-width="0.8" stroke-linecap="round"/>
<path d="M329.715 23.351C335.255 23.4822 348.411 28.6613 355.935 44.6731C363.256 60.2532 363.256 73.8955 363.256 87.4981C363.256 118.221 350.851 149.396 354.715 162.068C359.198 176.769 350.967 192.436 327.631 190.298C310.02 188.684 302.218 176.711 300.786 173.095" stroke="black" stroke-width="0.8" stroke-linecap="round"/>
<path d="M327.179 21.1826C323.505 16.8459 313.608 12.9097 305.311 12.7917C251.122 12.0209 211.959 64.8906 207.901 98.5122" stroke="black" stroke-width="0.8" stroke-linecap="round"/>
<path d="M280.83 49.9704C279.05 53.4526 275.311 62.0718 274.596 68.6905C273.881 75.3092 274.697 83.2919 275.194 86.4559" stroke="black" stroke-width="0.8" stroke-linecap="round"/>
<path d="M296.473 63.7478C295.294 66.8227 292.839 74.3831 292.449 80.0251C292.059 85.6671 292.016 92.5023 294.037 99.0103" stroke="black" stroke-width="0.8" stroke-linecap="round"/>
<path d="M99.5012 82.2813C100.467 78.8032 100.661 71.8463 97.7621 70.6873C91.9653 68.3692 75.1546 85.7593 66.4594 87.4984C57.7642 89.2374 57.7642 87.4986 56.0251 89.8173C54.6339 91.6723 55.4454 96.7735 56.0251 99.0922" stroke="black" stroke-width="0.8" stroke-linecap="round"/>
<path d="M55.4452 98.5122C56.4113 99.6716 61.0101 103.034 73.995 97.9327C86.9798 92.8315 99.5009 79.9624 103.559 81.7016C107.037 82.861 111.326 103.845 112.254 118.221C113.181 132.597 112.64 147.399 112.254 153.582" stroke="black" stroke-width="0.8" stroke-linecap="round"/>
<path d="M55.4454 96.1932C54.2861 96 51.8514 96.3092 51.3877 99.0916C50.808 102.57 50.808 208.072 79.792 215.607C102.979 221.636 138.34 204.98 153.411 195.898" stroke="black" stroke-width="0.8" stroke-linecap="round"/>
<path d="M108.776 158.22C115.732 151.07 133.818 131.786 150.513 118.801C167.208 105.816 181.815 98.2311 188.772 94.4546C191.67 92.881 205.814 97.4688 213.698 102.57" stroke="black" stroke-width="0.8" stroke-linecap="round"/>
<path d="M243.262 74.1655L249.638 89.8169C248.286 92.7153 242.579 97.464 247.216 107.319C250.684 114.687 258.053 115.74 263.006 115.74C268.795 115.74 273.683 110.97 275.724 111.845C279.782 113.584 281.521 114.743 280.361 117.062C279.843 118.099 274.565 127.496 286.158 136.191C293.624 141.791 305.867 139.669 309.345 134.452L318.041 138.51" stroke="black" stroke-width="0.8" stroke-linecap="round"/>
<path d="M253.04 107.606C247.749 101.888 250.434 93.8091 254.608 93.3405C256.174 93.1647 257.611 92.9286 261.891 97.0315C266.627 101.572 268.331 104.8 267.315 107.694C265.619 112.524 258.331 113.324 253.04 107.606Z" stroke="black" stroke-width="0.8" stroke-linecap="round"/>
<path d="M292.266 134.811C299.55 136.796 303.549 135.032 303.549 130.974C303.549 129.235 301.371 125.557 295.433 122.858C289.057 119.96 286.985 119.923 285.127 122.195C282.027 125.986 284.982 132.827 292.266 134.811Z" stroke="black" stroke-width="0.8" stroke-linecap="round"/>
<path d="M247.899 71.8468C251.57 71.4603 258.681 69.644 264.71 65.4703C270.738 61.2966 277.27 54.4564 279.781 51.558" stroke="black" stroke-width="0.8" stroke-linecap="round"/>
<path d="M247.319 71.8468L254.276 84.5998C256.015 87.4982 261.811 89.8169 267.029 96.1934C272.825 102.57 277.031 106.782 281.521 109.526C287.317 113.069 293.475 115.658 298.911 119.381C305.323 123.771 309.782 128.56 311.664 129.815C313.983 131.361 315.722 132.713 317.461 133.873" stroke="black" stroke-width="0.8" stroke-linecap="round"/>
<path d="M264.71 128.108C266.595 126.781 268.763 125.877 269.895 126.584C271.308 127.468 269.895 129.974 269.423 131.006" stroke="black" stroke-width="0.8" stroke-linecap="round"/>
<circle cx="257.754" cy="144.886" r="1.15936" fill="black"/>
<path d="M227.031 121.12C221.234 124.018 209.64 141.988 200.945 182.566C195.078 209.948 197.467 235.896 203.844 257.924" stroke="black" stroke-width="0.8" stroke-linecap="round"/>
<path d="M200.365 267.199C195.728 262.098 180.656 221.405 177.758 200.536C178.531 199.377 181.004 196.246 184.714 193C188.424 189.754 192.057 187.783 193.409 187.203C193.216 186.237 192.25 183.03 189.931 177.929C187.613 172.827 182.782 168.46 180.656 166.915C180.85 166.142 182.711 158.467 187.613 144.307C192.83 129.235 204.423 111.265 214.857 101.99C216.597 100.831 219.495 101.991 222.973 104.309C226.451 106.628 227.61 107.787 228.77 108.947" stroke="black" stroke-width="0.8" stroke-linecap="round"/>
<path d="M270.507 161.118C259.493 168.46 235.216 196.368 221.234 218.506C207.322 240.534 193.603 293.865 185.873 316.472C165.585 321.496 126.55 333.148 125.587 336.761C123.268 345.456 141.818 384.295 149.933 390.671" stroke="black" stroke-width="0.8" stroke-linecap="round"/>
<path d="M291.375 158.219C291.182 166.335 289.404 187.203 283.839 203.434C278.275 219.665 273.405 225.655 271.666 226.622C266.449 225.462 261.232 224.882 257.174 224.882C252.073 224.882 248.479 226.042 246.74 226.622C246.933 229.52 247.475 233.965 248.479 236.476C249.638 239.375 251.571 242.273 251.957 242.853C242.102 248.456 220.306 262.214 211.959 272.416C201.525 285.169 196.887 302.56 191.091 300.241" stroke="black" stroke-width="0.8" stroke-linecap="round"/>
<path d="M168.483 150.104C164.039 160.731 154.455 186.971 151.672 206.912C148.194 231.839 156.31 270.677 159.208 276.474" stroke="black" stroke-width="0.8" stroke-linecap="round"/>
<path d="M156.31 267.779C142.397 268.938 114.341 272.068 113.413 275.315C112.254 279.372 113.993 300.241 116.892 310.095C119.79 319.95 124.333 330.29 126.166 332.123C127.905 333.862 129.644 333.283 130.224 333.283" stroke="black" stroke-width="0.8" stroke-linecap="round"/>
<path d="M318.621 188.942C323.258 193.193 330.678 200.652 334.852 205.753C339.025 210.854 342.581 216.767 345.286 220.824C345.866 236.283 342.387 271.836 339.489 300.241C336.278 331.711 333.692 350.093 326.736 355.89C325.798 356.672 323.352 358.149 319.78 360.125M290.216 320.529C275.144 322.848 247.899 336.76 235.146 343.717C221.624 351.092 197.467 365.165 193.989 369.223C190.511 373.28 195.149 409.221 212.539 407.482C220.823 406.653 245.551 396.222 269.927 384.898" stroke="black" stroke-width="0.8" stroke-linecap="round"/>
<path d="M296.621 248.07C294.688 254.639 290.824 270.561 288.505 284.01C286.186 297.458 285.414 314.54 285.607 321.109" stroke="black" stroke-width="0.8" stroke-linecap="round"/>
<path d="M192.829 372.121C191.09 372.508 187.38 374.092 186.453 377.338C185.294 381.396 185.873 391.83 189.931 399.366C193.989 406.902 196.308 408.061 198.626 408.641C202.105 409.51 205.583 408.641 206.742 406.902" stroke="black" stroke-width="0.8" stroke-linecap="round"/>
<path d="M155.73 418.497C159.772 419.672 165.703 420.351 173.127 418.803C180.55 417.254 184.231 410.695 185.143 407.609C185.699 405.822 187.612 401.104 189.93 400.525M185.873 381.395C174.859 382.555 144.276 391.96 139.498 394.149C125.586 400.526 122.732 406.883 124.017 413.7C125.302 420.517 131.704 430.184 137.479 427.911" stroke="black" stroke-width="0.8" stroke-linecap="round"/>
<path d="M138.274 416.959C139.779 423.232 144.873 435.129 153.205 432.537" stroke="black" stroke-width="0.8" stroke-linecap="round"/>
<path d="M145.426 418.779C145.477 422.649 150.517 432.933 155.904 433.363C161.587 433.815 160.298 429.98 157.746 427.318C156.666 426.191 155.537 424.88 154.664 423.439C153.573 421.637 153.761 419.675 155.322 418.317" stroke="black" stroke-width="0.8" stroke-linecap="round"/>
<path d="M130.696 415.194C131.045 417.993 132.778 424.237 136.91 426.822C141.041 429.406 143.179 429.656 143.731 429.458" stroke="black" stroke-width="0.8" stroke-linecap="round"/>
<path d="M41.4765 64.8905C33.61 64.8905 26.1204 66.8857 23.1707 71.7551C21.6404 74.2813 22.6502 76.8195 24.7219 77.0638C27.6718 77.4116 31.4104 75.1969 35.1561 74.2813C40.3732 73.006 45.0107 73.5857 49.8347 74.2813C50.3264 75.4407 51.8118 77.8319 52.7847 78.8028C54.8942 80.908 60.6621 84.5996 65.2995 82.8606C67.0386 83.4403 68.8935 85.4112 69.3573 86.3387" stroke="black" stroke-width="0.8" stroke-linecap="round"/>
<path d="M45.0107 52.1377C40.953 48.6596 32.2578 42.2829 27.0407 45.1814C17.2022 50.6476 2.69399 55.6162 5.01282 59.0938C7.97771 63.5404 22.268 57.0512 28.0648 54.7324C29.4174 55.6986 32.0549 59.0209 35.1563 61.1089C38.19 63.1514 39.7936 63.7308 41.5327 64.8902" stroke="black" stroke-width="0.8" stroke-linecap="round"/>
<path d="M11.9692 52.1374C11.3895 49.239 18.9255 45.7609 22.9833 43.4422C29.3594 39.7987 31.6788 38.2251 35.1569 38.2251C38.635 38.2251 47.3298 41.7032 50.8079 44.6016" stroke="black" stroke-width="0.8" stroke-linecap="round"/>
<path d="M29.9396 39.3845C31.0989 37.6457 35.7364 35.907 38.6348 35.3267C41.5332 34.7464 47.9097 35.9062 51.9674 37.6453C56.2631 39.4863 68.1985 44.0218 76.8937 53.2966C83.8499 60.7166 86.7483 62.5712 90.806 72.4258" stroke="black" stroke-width="0.8" stroke-linecap="round"/>
<path d="M208.481 155.321C208.481 157.06 208.597 158.799 211.38 158.799C214.858 158.799 225.872 148.945 238.045 147.785" stroke="black" stroke-width="0.8" stroke-linecap="round"/>
<path d="M246.16 154.741C246.933 158.219 246.193 165.656 244.421 170.972C242.102 177.928 237.465 184.884 238.044 187.203C238.508 189.058 242.682 188.942 243.841 187.783" stroke="black" stroke-width="0.8" stroke-linecap="round"/>
<path d="M228.19 164.596C223.746 168.847 216.596 175.03 207.322 190.681C202.245 199.247 199.206 212.709 198.047 219.086" stroke="black" stroke-width="0.8" stroke-linecap="round"/>
<path d="M233.987 170.393C230.702 175.61 227.61 180.247 225.292 193.58C223.932 201.4 222.587 212.323 222.973 215.608" stroke="black" stroke-width="0.8" stroke-linecap="round"/>
<path d="M232.248 149.524C230.509 154.355 227.727 161.813 228.19 164.596C228.77 168.074 233.407 170.972 236.306 169.813C238.624 168.885 242.875 163.05 246.16 159.378" stroke="black" stroke-width="0.8" stroke-linecap="round"/>
<path d="M179.497 416.177C197.467 432.408 232.943 445.856 249.638 448.639C266.333 451.421 268.768 449.798 271.666 446.32C278.816 434.727 294.042 408.873 297.752 398.207" stroke="black" stroke-width="0.8" stroke-linecap="round"/>
<path d="M150.513 432.988C138.919 449.992 115.384 488.173 113.993 504.868C112.254 525.736 139.499 577.328 155.73 605.153C168.715 627.412 177.564 647.083 183.554 656.165C189.738 655.778 210.302 655.723 221.813 648.049C237.465 637.615 242.682 628.92 246.16 619.645C244.421 610.177 237.117 585.096 221.813 560.517C206.51 535.939 197.467 523.997 195.148 521.679" stroke="black" stroke-width="0.8" stroke-linecap="round"/>
<path d="M180.656 532.113C190.704 526.896 209.017 507.546 220.075 496.173C236.306 479.478 247.706 461.392 254.855 449.798" stroke="black" stroke-width="0.8" stroke-linecap="round"/>
<path d="M112.834 277.633C105.685 279.179 84.5456 284.59 57.1847 293.864C22.9835 305.458 20.6648 314.733 19.5054 321.109C15.7111 341.978 17.1867 372.121 27.621 430.089C32.4429 456.878 43.852 478.203 47.9097 485.739C53.3201 486.705 67.387 487.014 80.3718 480.522C93.3567 474.029 104.332 464.291 108.196 460.233C106.593 450.079 104.497 437.461 100.092 419.655M80.3718 363.426C81.8009 366.713 83.3087 370.177 84.8544 373.86M105.298 409.221C104.139 399.366 100.081 388.352 94.2841 379.078" stroke="black" stroke-width="0.8" stroke-linecap="round"/>
<path d="M83.2699 369.803C89.4532 369.03 105.877 366.904 115.152 364.586C124.427 362.267 129.838 359.755 131.383 358.789" stroke="black" stroke-width="0.8" stroke-linecap="round"/>
<path d="M50.2283 486.318C42.1127 492.115 32.8379 503.709 26.4614 518.78C25.8818 520.713 23.4471 525.157 18.3459 527.476C11.9694 530.374 5.01326 529.794 3.8539 535.591C2.69453 541.388 2.11485 548.924 6.17262 550.083C10.2304 551.242 49.7825 542.512 58.9235 529.794C72.2561 511.245 88.4872 508.926 101.24 500.231C111.443 493.274 114.38 489.217 114.573 488.057C115.152 486.898 115.732 482.84 113.413 475.884C111.095 468.928 108.196 463.711 107.037 461.972" stroke="black" stroke-width="0.8" stroke-linecap="round"/>
<path d="M76.8936 513.563C77.28 514.916 78.9804 519.012 80.3716 519.94C82.1107 521.099 95.5569 514.65 101.82 510.665C108.196 506.607 111.674 503.708 114.573 500.81M115.152 487.477L116.892 492.695" stroke="black" stroke-width="0.8" stroke-linecap="round"/>
<path d="M184.134 656.165C180.849 659.643 173.816 668.222 171.961 674.715C169.642 682.83 173.12 683.41 168.483 689.207C163.845 695.004 146.455 693.844 144.716 699.061C142.977 704.278 141.817 714.133 144.716 715.872C147.614 717.611 184.134 719.35 192.25 711.235C200.365 703.119 205.582 681.091 217.176 674.715C228.769 668.338 250.218 655.585 251.957 648.629C253.348 643.064 245.967 633.171 242.102 628.92" stroke="black" stroke-width="0.8" stroke-linecap="round"/>
<path d="M218.915 674.135C219.688 676.067 221.466 680.047 222.393 680.511C223.553 681.091 236.293 673.39 242.682 668.918C248.479 664.86 256.594 659.643 256.594 655.585L251.957 648.629" stroke="black" stroke-width="0.8" stroke-linecap="round"/>
<path d="M157.469 427.191C159.401 428.544 164.092 430.62 166.744 430.089C169.642 429.51 170.802 427.771 169.642 424.872C169.021 423.32 163.459 420.814 160.947 419.655" stroke="black" stroke-width="0.8" stroke-linecap="round"/>
<path d="M123.848 413.278L112.834 409.221" stroke="black" stroke-width="0.8" stroke-linecap="round"/>
<path d="M115.152 403.424L123.848 406.322" stroke="black" stroke-width="0.8" stroke-linecap="round"/>
<path d="M112.834 409.22C109.356 415.597 99.7533 423.197 85.0092 420.234C66.5789 416.531 62.9595 399.004 68.161 387.494C73.3624 375.984 87.8419 370.382 100.299 374.274C111.481 377.767 119.21 389.511 115.152 403.423M74.5748 388.932C70.3359 396.468 71.941 410.704 85.0092 414.438C97.1823 417.916 107.037 410.38 109.356 403.423C112.447 394.149 109.574 384.874 98.9214 380.237C90.3993 376.527 79.7919 379.657 74.5748 388.932Z" stroke="black" stroke-width="0.8" stroke-linecap="round"/>
<path d="M312.742 81.1213C310.616 88.0775 307.641 105.12 312.742 117.641C317.843 130.162 317.959 136.191 317.959 139.089C317.766 142.954 316.22 151.263 313.901 153.581" stroke="black" stroke-width="0.8" stroke-linecap="round"/>
<path d="M395.138 375.6C392.82 386.034 395.718 406.323 403.833 419.076C407.632 425.046 414.268 433.568 424.702 436.466M475.134 430.67C491.945 419.076 502.179 395.413 489.047 369.803C480.426 352.992 463.54 341.979 451.367 339.08" stroke="black" stroke-linecap="round"/>
<path d="M286.738 595.879C278.043 595.879 261.353 600.853 258.334 606.892C255.314 612.932 257.561 616.747 258.913 617.906M273.405 610.95C268.188 610.564 261.398 612.11 258.913 619.066C256.015 627.181 262.391 631.239 264.13 631.239M276.304 621.964C271.666 621.964 267.145 623.703 265.29 626.022C262.971 628.92 264.762 633.908 266.449 635.877C269.927 639.934 276.54 639.47 283.839 638.775C296.013 637.616 318.839 629.487 324.997 619.066C332.532 606.313 331.373 561.677 324.997 550.084" stroke="black" stroke-linecap="round"/>
<path d="M407.891 565.156C432.237 570.373 462.729 563.417 473.395 556.461C486.727 547.765 494.263 530.955 496.582 502.55C497.51 491.181 503.369 464.214 483.829 443.423M451.947 521.1C443.251 517.622 432.817 517.622 426.441 517.622C402.667 517.622 383.544 520.158 372.53 529.795C362.234 538.804 357.459 558.2 359.777 572.692C362.096 587.184 365.574 605.154 382.385 600.516M403.833 558.779C410.21 565.613 412.865 580.619 410.789 588.923C410.21 591.241 407.311 598.198 396.297 599.096" stroke="black" stroke-linecap="round"/>
<path d="M450.208 472.986C448.275 475.96 443.831 484.028 441.512 492.504C439.194 500.981 437.455 512.974 437.455 517.621" stroke="black" stroke-linecap="round"/>
<path d="M396.297 579.068C398.616 581.966 400.355 585.444 400.355 590.082C400.355 594.719 397.457 603.994 384.704 599.357" stroke="black" stroke-linecap="round"/>
<path d="M382.965 580.807C385.283 583.705 387.022 587.183 387.022 591.82C387.022 596.458 387.022 598.777 382.385 600.516" stroke="black" stroke-linecap="round"/>
<path d="M382.385 449.219C377.941 450.959 368.765 456.781 363.256 462.552C351.082 475.305 342.967 486.319 339.489 504.869" stroke="black" stroke-linecap="round"/>
<path d="M340.648 499.651C337.17 498.492 331.953 497.121 321.519 495.594C297.752 492.116 284.729 492.443 276.304 507.187C269.347 519.361 270.507 531.534 270.507 538.49C270.507 559.938 279.202 583.705 288.477 597.618" stroke="black" stroke-linecap="round"/>
<path d="M314.563 541.389C317.075 544.094 324.069 550.432 331.953 554.142C339.837 557.851 353.015 561.098 358.618 562.257" stroke="black" stroke-linecap="round"/>
<path d="M402.674 598.197C399.969 605.733 395.718 624.63 400.355 639.934C404.992 655.238 423.542 675.874 430.498 682.251M430.498 682.251C419.484 683.41 406.795 691.185 404.413 696.743C402.674 700.8 402.674 706.597 406.732 707.757M430.498 682.251L437.455 689.787M422.383 699.641C417.166 700.028 407.543 703.583 406.152 710.075C404.761 716.568 408.664 719.737 411.369 721.089" stroke="black" stroke-linecap="round"/>
<path d="M427.02 713.554C422.19 713.94 412.297 716.22 411.369 722.249C410.21 729.785 417.746 732.103 424.702 732.103C431.658 732.103 454.89 722.302 465.279 713.554C476.293 704.279 482.67 697.399 482.67 688.627C482.67 679.932 471.656 660.223 463.54 649.209C458.256 642.037 447.116 631.432 447.309 631.239" stroke="black" stroke-linecap="round"/>
<path d="M468.178 559.938C469.337 562.45 470.496 572.343 465.859 591.82C461.222 611.298 449.242 628.533 443.831 634.717" stroke="black" stroke-linecap="round"/>
<path d="M281.128 369.479C265.127 362.421 264.402 374.948 265.29 378.498C266.449 383.136 271.413 387.713 282.842 390.066C288.692 391.271 298.704 390.066 297.752 390.066" stroke="black" stroke-linecap="round"/>
<path d="M298.331 388.932C297.558 398.207 297.52 420.583 303.549 435.886C309.577 451.19 316.302 456.755 325.576 459.653C337.155 463.271 352.242 464.291 363.256 462.552" stroke="black" stroke-linecap="round"/>
<path d="M266.449 369.803C264.13 368.644 263.84 361.688 266.449 358.21C270.415 352.923 277.463 352.993 284.999 357.05" stroke="black" stroke-linecap="round"/>
<path d="M269.347 354.731C268.768 352.992 268.293 350.799 271.087 348.355C275.724 344.297 287.898 344.297 297.172 347.195C305.6 349.829 316.882 356.47 322.678 363.426C329.491 371.601 346.445 394.729 344.126 424.873" stroke="black" stroke-linecap="round"/>
<path d="M344.706 418.496C347.025 417.337 357.242 411.917 368.473 409.221C379.704 406.526 393.979 405.163 398.037 406.902" stroke="black" stroke-linecap="round"/>
<path d="M412.002 382.273C411.739 384.371 412.317 388.747 416.73 389.467C421.144 390.186 426.975 382.273 429.339 373.281" stroke="black" stroke-linecap="round"/>
<path d="M444.411 364.964C447.626 365.452 454.351 365.175 457.767 362.772C462.961 359.117 462.466 356.193 462.961 354.731" stroke="black" stroke-linecap="round"/>
<path d="M401.515 356.47C401.901 354.925 405.278 349.86 411.369 344.877C416.007 341.082 420.644 338.5 427.6 337.921" stroke="black" stroke-linecap="round"/>
<path d="M393.979 382.556C384.704 377.919 369.978 353.042 377.748 343.717C383.545 336.761 402.674 341.978 406.732 348.935" stroke="black" stroke-linecap="round"/>
<path d="M422.963 338.5C420.644 330.771 418.507 313.181 426.441 310.096C436.875 306.038 455.425 323.429 454.266 339.66" stroke="black" stroke-linecap="round"/>
<path d="M378.907 422.554C387.023 422.554 396.463 420.235 399.776 417.337C402.243 415.177 404.993 412.119 407.311 409.221M413.108 412.699C410.21 415.018 407.56 418.496 405.572 420.815C403.585 423.133 400.549 430.09 399.776 431.829" stroke="black" stroke-linecap="round"/>
<path d="M416.586 420.815C415.282 421.8 413.195 425.249 411.804 429.191C410.413 433.133 409.775 438.717 409.63 440.524" stroke="black" stroke-linecap="round"/>
<path d="M475.713 368.643C476.293 367.484 485.568 360.528 489.046 354.151C491.828 349.05 492.138 342.751 491.944 340.239" stroke="black" stroke-linecap="round"/>
<path d="M486.148 379.657C487.501 378.884 491.481 377.223 496.582 376.759C501.683 376.295 505.277 377.725 506.437 378.498" stroke="black" stroke-linecap="round"/>
<path d="M484.409 372.701C485.761 371.155 489.51 367.368 493.684 364.586C497.857 361.803 501.606 360.335 502.958 359.948" stroke="black" stroke-linecap="round"/>
<path d="M469.337 570.952C480.931 571.338 507.206 566.578 524.407 548.924C534.419 538.649 537.787 521.328 535.421 504.868C532.581 485.114 522.826 466.347 524.407 459.074C526.183 450.904 536.58 451.538 540.638 459.074C555.71 484 560.927 529.215 546.435 553.561C531.943 577.908 500.64 591.241 466.439 591.241" stroke="black" stroke-linecap="round"/>
<path d="M431.658 406.902C436.875 409.414 449.292 411.162 461.222 404.004C472.815 397.048 475.714 389.512 475.134 383.135" stroke="black" stroke-linecap="round"/>
<path d="M443.252 386.97C443.541 387.165 446.274 387.468 448.034 386.676C450.643 385.503 452.816 383.743 453.686 381.397" stroke="black" stroke-linecap="round"/>
<path d="M450.208 386.034C451.56 386.613 454.845 388.7 457.164 392.41C459.483 396.12 460.835 401.299 461.222 403.424" stroke="black" stroke-linecap="round"/>
<path d="M384.124 347.775C387.023 348.355 390.501 349.514 393.979 354.732C395.854 357.544 396.877 364.006 396.298 366.325" stroke="black" stroke-linecap="round"/>
<path d="M429.919 315.893C429.339 318.018 428.875 323.545 431.658 328.646C434.44 333.747 437.455 336.568 438.614 337.341" stroke="black" stroke-linecap="round"/>
<path d="M436.875 330.965C436.489 329.999 435.716 328.066 435.716 325.748C435.716 324.123 436.295 322.269 438.035 321.69" stroke="black" stroke-width="0.8" stroke-linecap="round"/>
<path d="M439.254 332.59C439.255 331.832 439.258 330.315 439.773 328.654C440.134 327.49 440.865 326.262 441.954 326.144" stroke="black" stroke-width="0.8" stroke-linecap="round"/>
<path d="M382.385 357.05C382.771 356.47 385.203 356.107 387.022 356.47C389.921 357.05 391.08 358.209 392.24 359.948M384.704 362.847C385.863 361.687 386.886 361.687 388.182 361.687C389.921 361.687 391.66 362.847 392.24 363.426" stroke="black" stroke-width="0.8" stroke-linecap="round"/>
<path d="M443.252 437.625C439.774 436.466 428.876 435.538 424.702 436.466C419.485 437.625 416.255 439.284 415.427 443.422C414.847 446.321 417.53 448.718 418.325 452.697C418.905 455.596 419.485 458.494 424.123 459.074C428.76 459.653 439.774 456.175 444.411 450.958" stroke="black" stroke-linecap="round"/>
<path d="M455.425 435.886C458.328 433.994 468.195 430.86 472.236 430.669C477.286 430.431 480.834 431.261 482.67 434.727C483.907 437.063 482.777 439.768 483.612 442.888C484.448 446.008 483.612 449.219 479.192 450.958C475.479 452.419 463.239 451.603 457.744 448.06M449.049 436.466C449.628 437.239 450.805 439.434 451.367 441.683C451.947 444.002 451.561 445.934 451.367 446.9" stroke="black" stroke-linecap="round"/>
<path d="M426.441 446.9C427.6 446.321 430.962 444.929 435.136 444.002C439.31 443.074 441.899 443.615 442.672 444.002" stroke="black" stroke-linecap="round"/>
<path d="M444.411 437.046C445.503 436.318 447.889 436.466 449.049 436.466L449.049 436.466C450.209 435.886 452.295 434.843 453.686 435.307C455.425 435.887 456.816 438.553 457.744 442.263C458.671 445.973 457.744 448.64 456.585 449.799C456.391 450.185 454.846 451.538 452.527 452.118C448.433 453.141 447.31 452.697 446.15 452.118C445.113 451.599 443.831 448.06 443.252 444.582C442.672 441.104 442.672 438.205 444.411 437.046Z" stroke="black" stroke-linecap="round"/>
<path d="M458.323 441.683C459.929 440.745 461.939 439.532 464.209 438.868C465.815 438.399 470.095 437.93 472.236 438.399" stroke="black" stroke-linecap="round"/>
<path d="M492.5 23.5C442.899 23.5 402.5 74.5867 402.5 137.868C402.5 177.208 418.132 211.88 441.893 232.452C445.295 235.398 448.863 238.053 452.576 240.393L452.763 240.511L452.802 240.728C453.577 245.047 453.581 248.079 453.289 250.408C453 252.721 452.412 254.353 452.055 255.75C451.408 258.279 449.934 261.082 448.274 263.538C446.975 265.461 445.541 267.2 444.265 268.453C447.263 268.206 453.04 266.818 459.475 262.438C467.026 257.296 469.754 251.451 470.18 249.276L470.287 248.728L470.821 248.896C477.765 251.078 485.026 252.236 492.5 252.236C542.101 252.236 582.5 201.15 582.5 137.868C582.5 74.5867 542.101 23.5 492.5 23.5Z" stroke="black"/>
<path d="M454.905 107.51C453.005 107.51 451.365 107.17 449.985 106.49C448.605 105.79 447.475 104.89 446.595 103.79C445.735 102.67 445.095 101.45 444.675 100.13C444.255 98.79 444.045 97.49 444.045 96.23V95.78C444.045 94.42 444.255 93.08 444.675 91.76C445.115 90.42 445.765 89.21 446.625 88.13C447.505 87.03 448.615 86.16 449.955 85.52C451.295 84.86 452.875 84.53 454.695 84.53C456.475 84.53 458.035 84.86 459.375 85.52C460.735 86.16 461.825 87.07 462.645 88.25C463.465 89.41 463.965 90.77 464.145 92.33H462.495C462.315 90.97 461.865 89.82 461.145 88.88C460.425 87.94 459.505 87.23 458.385 86.75C457.285 86.27 456.055 86.03 454.695 86.03C453.215 86.03 451.915 86.3 450.795 86.84C449.675 87.36 448.735 88.09 447.975 89.03C447.215 89.95 446.645 91.01 446.265 92.21C445.885 93.41 445.695 94.68 445.695 96.02C445.695 97.26 445.885 98.48 446.265 99.68C446.645 100.88 447.215 101.95 447.975 102.89C448.735 103.83 449.685 104.59 450.825 105.17C451.985 105.73 453.345 106.01 454.905 106.01C457.025 106.01 458.805 105.47 460.245 104.39C461.705 103.29 462.595 101.73 462.915 99.71H464.565C464.345 101.23 463.815 102.58 462.975 103.76C462.155 104.92 461.065 105.84 459.705 106.52C458.345 107.18 456.745 107.51 454.905 107.51ZM469.544 107V85.01H471.164V107H469.544ZM483.224 107L475.484 97.4H477.434L485.204 107H483.224ZM470.414 98.33V96.86H476.294C477.554 96.86 478.564 96.63 479.324 96.17C480.104 95.71 480.674 95.09 481.034 94.31C481.414 93.51 481.604 92.63 481.604 91.67C481.604 90.71 481.414 89.84 481.034 89.06C480.674 88.26 480.104 87.63 479.324 87.17C478.564 86.71 477.554 86.48 476.294 86.48H470.414V85.01H476.084C477.684 85.01 479.014 85.29 480.074 85.85C481.134 86.39 481.924 87.15 482.444 88.13C482.964 89.09 483.224 90.21 483.224 91.49V91.85C483.224 93.13 482.964 94.26 482.444 95.24C481.924 96.2 481.134 96.96 480.074 97.52C479.014 98.06 477.684 98.33 476.084 98.33H470.414ZM487.238 107L495.488 85.1H498.728L507.248 107H505.568L497.438 86.03L498.428 86.57H495.698L496.718 86.03L488.858 107H487.238ZM491.168 99.62L491.738 98.15H502.598L503.168 99.62H491.168ZM512.024 107V85.1H513.644V107H512.024ZM513.074 96.56V95.06L523.064 95.03V96.5L513.074 96.56ZM513.074 86.57V85.1L523.664 85.07V86.57H513.074ZM533.364 107V86.06H534.984V107H533.364ZM526.344 86.57V85.1H542.004V86.57H526.344ZM438.447 152V130.1H440.067V152H438.447ZM447.439 152V130.1H449.449L456.769 145.79H457.369L464.689 130.1H466.789V152H465.169V131.96L465.349 131.99L458.209 147.29H455.869L448.729 131.99L448.939 131.96V152H447.439ZM475.149 143.63V142.16H480.429C481.749 142.16 482.809 141.92 483.609 141.44C484.409 140.96 484.999 140.32 485.379 139.52C485.759 138.7 485.949 137.8 485.949 136.82C485.949 135.84 485.759 134.95 485.379 134.15C484.999 133.33 484.409 132.68 483.609 132.2C482.809 131.72 481.749 131.48 480.429 131.48H475.149V130.01H480.219C481.919 130.01 483.309 130.31 484.389 130.91C485.469 131.49 486.269 132.28 486.789 133.28C487.309 134.28 487.569 135.4 487.569 136.64V137C487.569 138.22 487.309 139.34 486.789 140.36C486.269 141.36 485.469 142.16 484.389 142.76C483.309 143.34 481.919 143.63 480.219 143.63H475.149ZM474.099 152V130.01H475.719V152H474.099ZM488.6 152L496.85 130.1H500.09L508.61 152H506.93L498.8 131.03L499.79 131.57H497.06L498.08 131.03L490.22 152H488.6ZM492.53 144.62L493.1 143.15H503.96L504.53 144.62H492.53ZM521.921 152.51C520.021 152.51 518.381 152.17 517.001 151.49C515.621 150.79 514.491 149.89 513.611 148.79C512.751 147.67 512.111 146.45 511.691 145.13C511.271 143.79 511.061 142.49 511.061 141.23V140.78C511.061 139.42 511.271 138.08 511.691 136.76C512.131 135.42 512.781 134.21 513.641 133.13C514.521 132.03 515.631 131.16 516.971 130.52C518.311 129.86 519.891 129.53 521.711 129.53C523.491 129.53 525.051 129.86 526.391 130.52C527.751 131.16 528.841 132.07 529.661 133.25C530.481 134.41 530.981 135.77 531.161 137.33H529.511C529.331 135.97 528.881 134.82 528.161 133.88C527.441 132.94 526.521 132.23 525.401 131.75C524.301 131.27 523.071 131.03 521.711 131.03C520.231 131.03 518.931 131.3 517.811 131.84C516.691 132.36 515.751 133.09 514.991 134.03C514.231 134.95 513.661 136.01 513.281 137.21C512.901 138.41 512.711 139.68 512.711 141.02C512.711 142.26 512.901 143.48 513.281 144.68C513.661 145.88 514.231 146.95 514.991 147.89C515.751 148.83 516.701 149.59 517.841 150.17C519.001 150.73 520.361 151.01 521.921 151.01C524.041 151.01 525.821 150.47 527.261 149.39C528.721 148.29 529.611 146.73 529.931 144.71H531.581C531.361 146.23 530.831 147.58 529.991 148.76C529.171 149.92 528.081 150.84 526.721 151.52C525.361 152.18 523.761 152.51 521.921 152.51ZM540.732 152V131.06H542.353V152H540.732ZM533.713 131.57V130.1H549.373V131.57H533.713ZM450.105 197V175.1H451.725V197H450.105ZM451.215 197V195.53H462.495V197H451.215ZM451.215 186.62V185.12H461.415V186.62H451.215ZM451.215 176.57V175.1H462.135V176.57H451.215ZM477.244 197.51C475.344 197.51 473.704 197.17 472.324 196.49C470.944 195.79 469.814 194.89 468.934 193.79C468.074 192.67 467.434 191.45 467.014 190.13C466.594 188.79 466.384 187.49 466.384 186.23V185.78C466.384 184.42 466.594 183.08 467.014 181.76C467.454 180.42 468.104 179.21 468.964 178.13C469.844 177.03 470.954 176.16 472.294 175.52C473.634 174.86 475.214 174.53 477.034 174.53C478.814 174.53 480.374 174.86 481.714 175.52C483.074 176.16 484.164 177.07 484.984 178.25C485.804 179.41 486.304 180.77 486.484 182.33H484.834C484.654 180.97 484.204 179.82 483.484 178.88C482.764 177.94 481.844 177.23 480.724 176.75C479.624 176.27 478.394 176.03 477.034 176.03C475.554 176.03 474.254 176.3 473.134 176.84C472.014 177.36 471.074 178.09 470.314 179.03C469.554 179.95 468.984 181.01 468.604 182.21C468.224 183.41 468.034 184.68 468.034 186.02C468.034 187.26 468.224 188.48 468.604 189.68C468.984 190.88 469.554 191.95 470.314 192.89C471.074 193.83 472.024 194.59 473.164 195.17C474.324 195.73 475.684 196.01 477.244 196.01C479.364 196.01 481.144 195.47 482.584 194.39C484.044 193.29 484.934 191.73 485.254 189.71H486.904C486.684 191.23 486.154 192.58 485.314 193.76C484.494 194.92 483.404 195.84 482.044 196.52C480.684 197.18 479.084 197.51 477.244 197.51ZM507.183 197V175.1H508.803V197H507.183ZM491.883 197V175.1H493.503V197H491.883ZM493.053 186.92V185.42H507.633V186.92H493.053ZM525.531 197.51C523.691 197.51 522.071 197.18 520.671 196.52C519.291 195.84 518.131 194.95 517.191 193.85C516.271 192.73 515.571 191.51 515.091 190.19C514.631 188.87 514.401 187.55 514.401 186.23V185.75C514.401 184.37 514.641 183.02 515.121 181.7C515.621 180.38 516.341 179.18 517.281 178.1C518.241 177 519.401 176.13 520.761 175.49C522.141 174.85 523.731 174.53 525.531 174.53C527.311 174.53 528.881 174.85 530.241 175.49C531.621 176.13 532.781 177 533.721 178.1C534.681 179.18 535.401 180.38 535.881 181.7C536.361 183.02 536.601 184.37 536.601 185.75V186.23C536.601 187.55 536.361 188.87 535.881 190.19C535.421 191.51 534.731 192.73 533.811 193.85C532.891 194.95 531.741 195.84 530.361 196.52C528.981 197.18 527.371 197.51 525.531 197.51ZM525.531 196.01C527.031 196.01 528.361 195.73 529.521 195.17C530.701 194.61 531.691 193.86 532.491 192.92C533.311 191.96 533.921 190.89 534.321 189.71C534.741 188.51 534.951 187.28 534.951 186.02C534.951 184.7 534.731 183.44 534.291 182.24C533.871 181.04 533.251 179.98 532.431 179.06C531.631 178.12 530.641 177.38 529.461 176.84C528.301 176.3 526.991 176.03 525.531 176.03C524.051 176.03 522.721 176.3 521.541 176.84C520.381 177.38 519.391 178.12 518.571 179.06C517.751 179.98 517.121 181.04 516.681 182.24C516.261 183.44 516.051 184.7 516.051 186.02C516.051 187.28 516.261 188.51 516.681 189.71C517.101 190.89 517.711 191.96 518.511 192.92C519.331 193.86 520.321 194.61 521.481 195.17C522.661 195.73 524.011 196.01 525.531 196.01Z" fill="black"/>
</g>
<defs>
<clipPath id="clip0_957_559">
<rect width="586" height="740" fill="white"/>
</clipPath>
</defs>
</svg>
