<svg width="393" height="545" viewBox="0 0 393 545" fill="none" xmlns="http://www.w3.org/2000/svg">
<path d="M274.686 29.6645C277.254 29.282 284.234 28.7489 291.607 29.6764C298.981 30.6039 301.944 31.1111 302.504 31.2488" stroke="black" stroke-width="0.7" stroke-linecap="round"/>
<path d="M251.7 228.617C248.384 233.534 242.437 244.604 242.437 249.544C242.437 257.434 247.24 258.464 250.671 257.434" stroke="black" stroke-width="0.7" stroke-linecap="round"/>
<path d="M217.736 266.699C220.366 270.244 227.753 277.815 236.261 279.736C244.77 281.657 248.726 281.909 249.641 281.794" stroke="black" stroke-width="0.7" stroke-linecap="round"/>
<path d="M223.695 259.719C227.258 263.48 233.143 268.307 239.692 269.786C244.673 270.91 248.094 271.463 250.258 271.705" stroke="black" stroke-width="0.7" stroke-linecap="round"/>
<path d="M211.218 268.413C213.277 268.185 218.08 267.041 220.824 264.297C223.569 261.552 224.941 257.092 224.255 253.318" stroke="black" stroke-width="0.7" stroke-linecap="round"/>
<path d="M209.503 218.326C210.738 216.796 214.526 213.839 219.795 214.247C225.065 214.655 227.48 217.136 228.029 218.326" stroke="black" stroke-width="0.7" stroke-linecap="round"/>
<path d="M254.445 180.589C251.7 181.962 248.835 182.538 244.496 183.008C238.32 183.677 233.368 180.902 228.019 183.008C219.532 186.35 218.623 193.288 211.349 198.125C204.075 202.962 200.437 201.753 195.891 209.009C191.345 216.265 193.163 223.824 190.435 230.475C187.707 237.127 184.07 238.941 183.464 247.104C182.858 255.267 190.435 262.523 190.738 269.477C191.042 276.431 191.648 283.687 195.891 288.826C200.134 293.966 207.737 294.734 211.955 298.199C217.107 302.432 218.299 307.012 226.2 310.595C232.868 313.618 239.44 309.385 247.926 313.013" stroke="black" stroke-width="0.7" stroke-linecap="round"/>
<path d="M175.802 167.552C171.067 229.92 178.609 269.752 176.226 307.893M228.372 390.104C226.858 388.592 222.116 387.167 216.364 387.987C210.008 388.895 209.16 391.944 200.926 391.944C200.314 391.944 197.496 391.601 195.78 390.572M174.853 387.945C170.075 388.11 167.506 389.002 164.904 390.104C166.153 384.923 168.023 375.482 169.954 362.811" stroke="black" stroke-width="0.7" stroke-linecap="round"/>
<path d="M178.626 149.025C179.243 148.773 181.029 147.97 183.247 146.764C185.466 145.558 187.441 146.455 186.517 148.338" stroke="black" stroke-width="0.7" stroke-linecap="round"/>
<path d="M184.458 153.144C186.496 151.907 185.75 149.972 182.256 149.378C177.888 148.636 170.064 149.199 168.279 149.873C165.658 150.862 165.318 153.088 167.648 153.83" stroke="black" stroke-width="0.7" stroke-linecap="round"/>
<path d="M185.04 156.536C186.604 155.953 187.001 153.589 183.248 152.889C178.557 152.015 170.113 152.598 168.236 153.472C166.36 154.346 165.422 156.386 167.298 157.26" stroke="black" stroke-width="0.7" stroke-linecap="round"/>
<path d="M185.047 161.377C187.911 160.362 187.36 157.706 183.542 157.007C178.77 156.133 170.179 156.715 168.27 157.589C166.361 158.463 165.407 160.503 167.316 161.377" stroke="black" stroke-width="0.7" stroke-linecap="round"/>
<path d="M182.636 161.636C186.567 162.176 185.729 164.383 184.287 164.906C183.922 165.122 182.176 165.899 177.996 166.093C172.189 166.362 170.056 165.971 168.553 165.433C166.388 164.626 166.347 162.691 168.963 162.055C170.808 161.606 178.283 161.038 182.636 161.636Z" stroke="black" stroke-width="0.7" stroke-linecap="round"/>
<path d="M184.116 149.712C189.257 147.001 197.846 143.266 210.427 142.784C226.153 142.181 243.088 138.868 247.927 137.362" stroke="black" stroke-width="0.7" stroke-linecap="round"/>
<path d="M287.722 251.261C288.839 261.67 293.789 281.844 306.909 290.674C328.533 305.227 340.005 303.104 347.416 303.407" stroke="black" stroke-width="0.7" stroke-linecap="round"/>
<path d="M268.511 124.324C268.739 125.04 269.197 127.394 269.197 129.542C269.197 131.777 268.911 134.761 268.682 135.989" stroke="black" stroke-width="0.7" stroke-linecap="round"/>
<path d="M254.102 189.508C257.139 157.063 258.354 133.33 290.854 121.013C304.826 115.717 312.116 115.004 313.938 117.408C315.76 119.811 312.419 130.326 312.419 130.326" stroke="black" stroke-width="0.7" stroke-linecap="round"/>
<path d="M315.853 119.866C327.174 121.238 334.078 114.669 335.408 109.231C339.182 93.7927 329.986 94.7124 324.214 87.871C321.685 84.8728 317.911 79.7268 317.225 71.4932" stroke="black" stroke-width="0.7" stroke-linecap="round"/>
<path d="M246.554 88.6464C253.346 86.9716 260.663 85.3862 265.766 81.811C269.446 79.233 273.176 76.2183 275.372 72.1792" stroke="black" stroke-width="0.7" stroke-linecap="round"/>
<path d="M296.642 72.1792C298.014 75.9529 300.429 79.0405 301.692 80.2338C304.848 83.217 309.898 85.3053 312.423 85.9019" stroke="black" stroke-width="0.7" stroke-linecap="round"/>
<path d="M282.918 72.1792C283.948 75.2668 286.189 78.3262 286.87 79.0256C289.558 81.7851 292.867 83.5004 295.269 83.8435" stroke="black" stroke-width="0.7" stroke-linecap="round"/>
<path d="M246.607 88.5667C246.019 87.0929 243.053 86.8194 240.795 88.0646C237.269 90.0102 237.73 96.4235 240.795 98.9603C243.617 101.295 247.849 101.684 250.671 101.684" stroke="black" stroke-width="0.7" stroke-linecap="round"/>
<path d="M250.671 101.803C252.707 113.189 259.878 125.137 278.034 126.383M308.705 85.9014C309.694 95.6214 308.217 106.876 302.916 115.065" stroke="black" stroke-width="0.7" stroke-linecap="round"/>
<ellipse cx="282.577" cy="115.748" rx="1.0292" ry="1.0292" fill="black"/>
<path d="M280.861 105.115C280.949 104.308 281.389 102.633 282.444 102.391C283.5 102.149 284.028 104.106 284.292 105.115" stroke="black" stroke-width="0.7" stroke-linecap="round"/>
<path d="M283.349 143.182C285.38 141.406 297.223 129.642 309.181 130.513C317.308 131.105 324.784 146.005 326.264 149.705" stroke="black" stroke-width="0.7" stroke-linecap="round"/>
<path d="M327.003 151.185C341.951 176.495 352.311 199.071 353.378 212.118C355.53 238.454 333.35 277.333 322.715 298.604" stroke="black" stroke-width="0.7" stroke-linecap="round"/>
<path d="M300.759 176.472C309.66 188.445 319.748 208.2 322.715 221.07" stroke="black" stroke-width="0.7" stroke-linecap="round"/>
<path d="M324.774 214.209C322.372 223.129 317.666 238.51 310.365 253.662C303.973 266.926 299.044 277.676 297.671 280.764" stroke="black" stroke-width="0.7" stroke-linecap="round"/>
<path d="M264.416 162.063C260.473 167.204 254.755 186.255 253.802 192.907C251.376 209.841 250.466 332.008 241.065 393.091C254.004 397.425 275.09 408.029 305.658 406.094C336.226 404.159 362.318 388.704 363.883 388.555C365.448 388.407 343.877 255.706 343.877 255.706" stroke="black" stroke-width="0.7" stroke-linecap="round"/>
<path d="M227.009 141.48C225.41 138.917 222.452 133.176 223.411 130.715C224.61 127.639 240.02 127.835 250.69 127.024C258.783 126.409 263.28 124.871 265.078 123.641" stroke="black" stroke-width="0.7" stroke-linecap="round"/>
<path d="M230.431 132.223C231.564 132.223 232.482 133.141 232.482 134.274C232.482 135.407 231.564 136.326 230.431 136.326C229.298 136.326 228.379 135.407 228.379 134.274C228.379 133.141 229.298 132.223 230.431 132.223Z" stroke="black" stroke-width="0.7"/>
<path d="M264.736 189.171C266.248 189.172 267.473 190.398 267.473 191.91C267.473 193.421 266.248 194.647 264.736 194.647C263.224 194.647 261.998 193.421 261.998 191.91C261.998 190.398 263.224 189.171 264.736 189.171Z" stroke="black" stroke-width="0.7"/>
<path d="M261.306 239.947C262.818 239.947 264.043 241.173 264.043 242.685C264.043 244.197 262.818 245.422 261.306 245.422C259.794 245.422 258.568 244.197 258.568 242.685C258.568 241.173 259.794 239.947 261.306 239.947Z" stroke="black" stroke-width="0.7"/>
<path d="M259.934 290.72C261.445 290.72 262.671 291.947 262.671 293.458C262.671 294.97 261.445 296.196 259.934 296.196C258.422 296.196 257.195 294.97 257.195 293.458C257.195 291.947 258.422 290.72 259.934 290.72Z" stroke="black" stroke-width="0.7"/>
<path d="M259.934 350.413C261.445 350.413 262.671 351.639 262.671 353.151C262.671 354.663 261.445 355.888 259.934 355.888C258.422 355.888 257.195 354.663 257.195 353.151C257.195 351.639 258.422 350.413 259.934 350.413Z" stroke="black" stroke-width="0.7"/>
<path d="M167.648 165.495C167.858 166.186 167.953 166.838 170.478 168.087C172.051 168.864 175.091 169.037 175.195 168.864" stroke="black" stroke-width="0.7" stroke-linecap="round"/>
<path d="M274 404.434C274 414.219 271.255 453.672 270.115 475.122C267.526 476.33 259.119 478.807 246.211 479.049C233.303 479.291 222.307 475.122 218.423 473.007C219.02 470.289 220.661 461.445 222.008 450.351C224.1 433.132 231.271 358.517 234.857 346.131C238.442 333.746 243.102 325.37 247.584 317.817" stroke="black" stroke-width="0.7" stroke-linecap="round"/>
<path d="M221.51 482.764C216.707 478.028 207.481 477.921 201.875 482.764C194.869 488.818 198.398 499.24 201.875 502.44C210.1 510.007 232.526 513.713 253.072 511.992C278.357 509.873 275.293 488.515 265.24 485.791" stroke="black" stroke-width="0.7" stroke-linecap="round"/>
<path d="M333.693 493.808C327.518 490.378 319.187 490.961 314.825 496.896C309.372 504.314 313.763 513.535 319.97 517.137C329.233 522.511 349.708 522.445 369.029 515.764C391.671 507.935 387.677 486.365 375.838 484.145" stroke="black" stroke-width="0.7" stroke-linecap="round"/>
<path d="M314.481 405.405C316.54 415.043 321 436.861 324.43 453.328C327.799 469.497 329.711 474.678 329.711 477.389C334.788 478.393 346.427 479.799 358.314 478.594C370.201 477.389 375.625 474.428 377.606 473.022C374.634 457.561 366.53 424.907 364.257 415.043C361.9 404.814 358.314 392.638 358.314 391.233" stroke="black" stroke-width="0.7" stroke-linecap="round"/>
<path d="M222.196 484.547C220.824 490.722 233.578 494.361 249.298 493.81C258.663 493.481 266.591 489.771 265.079 487.291" stroke="black" stroke-width="0.7" stroke-linecap="round"/>
<path d="M221.853 483.116C223.617 483.643 227.44 484.17 230.087 483.643C232.613 483.14 234.105 480.305 234.203 478.373" stroke="black" stroke-width="0.7" stroke-linecap="round"/>
<path d="M264.015 476.999C263.749 478.861 263.483 481.703 264.015 484.644C264.333 486.401 264.992 487.095 265.08 487.291" stroke="black" stroke-width="0.7" stroke-linecap="round"/>
<path d="M335.751 494.838C334.378 499.298 348.038 501.743 363.196 497.582C372.226 495.104 379.32 488.663 376.746 485.479" stroke="black" stroke-width="0.7" stroke-linecap="round"/>
<path d="M334.036 493.81C335.938 493.986 339.868 492.781 341.577 490.282C343.078 488.088 344.048 481.238 343.642 479.058" stroke="black" stroke-width="0.7" stroke-linecap="round"/>
<path d="M373.166 475.458C373.307 477.39 373.677 480.302 374.952 483.106C375.714 484.781 376.603 485.305 376.747 485.478" stroke="black" stroke-width="0.7" stroke-linecap="round"/>
<path d="M252.165 45.6537C248.475 45.4157 241.67 46.493 242.862 50.4159C244.939 57.2584 277.432 67.6617 287.722 69.5834C303.503 72.5305 317.437 72.4018 320.941 69.5834C324.445 66.765 320.647 63.1553 317.934 61.4848" stroke="black" stroke-width="0.7" stroke-linecap="round"/>
<path d="M252.003 45.9847C255.479 39.3459 265.884 29.5234 269.525 28.4637C271.601 27.8595 279.488 32.7519 288.641 34.4656C291.527 35.0058 296.298 34.9435 298.7 33.095M316.71 61.5635C316.961 58.0415 317.135 55.5426 316.401 49.6637C315.7 44.0481 312.846 32.2701 308.725 30.2799C307.771 29.8194 305.579 30.4224 302.816 31.3019" stroke="black" stroke-width="0.7" stroke-linecap="round"/>
<path d="M261.649 51.9388C266.58 56.0307 276.786 60.3511 286.007 61.8878C298.357 63.946 308.171 63.912 312.766 61.8877" stroke="black" stroke-width="0.7" stroke-linecap="round"/>
<path d="M208.816 351.434C208.473 355.437 207.993 365.225 208.816 372.361C209.64 379.497 210.532 383.339 210.875 384.369" stroke="black" stroke-width="0.7" stroke-linecap="round"/>
<path d="M188.233 166.181C190.291 167.553 192.007 169.612 194.408 172.013C196.81 174.415 198.868 177.159 199.897 178.532" stroke="black" stroke-width="0.7" stroke-linecap="round"/>
<path d="M189.948 158.633C191.777 159.548 196.851 161.206 201.955 162.407C207.787 163.779 213.619 163.436 218.765 163.436" stroke="black" stroke-width="0.7" stroke-linecap="round"/>
<path d="M182.4 169.611C182.743 170.755 183.567 174.208 184.116 178.874C184.665 183.54 184.344 189.052 184.116 191.225" stroke="black" stroke-width="0.7" stroke-linecap="round"/>
<path d="M303.561 314.605C304.572 314.571 311.46 316.303 318.214 314.107C323.618 312.35 326.609 310.545 327.429 309.862" stroke="black" stroke-width="0.7" stroke-linecap="round"/>
<path d="M321 321.589C322.715 320.56 323.723 320.238 326.489 317.472C327.861 316.1 329.119 313.699 329.234 313.355" stroke="black" stroke-width="0.7" stroke-linecap="round"/>
<path d="M329.918 284.196C328.775 284.196 325.184 283.715 319.969 281.794C313.451 279.393 312.079 278.363 310.02 278.706C307.75 279.085 306.247 282.137 306.933 284.196C307.619 286.254 311.158 289.007 315.853 290.714C319.626 292.086 323.4 292.772 325.458 292.772" stroke="black" stroke-width="0.7" stroke-linecap="round"/>
<path d="M312.081 280.428C313.592 280.428 314.818 281.654 314.818 283.166C314.818 284.678 313.592 285.903 312.081 285.903C310.569 285.903 309.342 284.678 309.342 283.166C309.342 281.654 310.569 280.428 312.081 280.428Z" stroke="black" stroke-width="0.7"/>
<path d="M246.898 56.3975C240.608 62.9157 232.626 79.7261 234.547 97.5656C236.469 115.405 250.1 123.867 255.131 125.697" stroke="black" stroke-width="0.7" stroke-linecap="round"/>
<path d="M219.109 221.422C224.221 221.422 228.365 225.566 228.365 230.678C228.365 235.79 224.221 239.934 219.109 239.934C213.997 239.933 209.853 235.789 209.853 230.678C209.853 225.566 213.997 221.422 219.109 221.422Z" stroke="black" stroke-width="0.7"/>
<path d="M163.482 307.305C160.523 302.126 145.348 293.828 136.428 294.514C125.209 295.376 120.241 300.979 118.754 303.152" stroke="black" stroke-width="0.7" stroke-linecap="round"/>
<path d="M102.294 297.892C100.518 297.3 98.8408 298.138 98.5941 298.631C97.8542 300.111 99.0381 300.999 100.814 301.591C103.034 302.331 105.253 302.331 105.253 300.851C105.253 299.371 104.513 298.631 102.294 297.892Z" fill="black" stroke="black" stroke-width="0.7" stroke-linecap="round"/>
<path d="M128.704 313.102C122.529 305.897 108.189 292.037 100.23 294.233C90.2809 296.978 90.624 311.387 96.1131 325.452C101.602 339.518 118.069 351.182 125.617 354.27C133.164 357.358 129.734 364.905 117.04 369.708C104.347 374.511 86.5399 377.256 81.0182 395.095C75.4965 412.935 85.8212 428.373 90.9671 434.205" stroke="black" stroke-width="0.7" stroke-linecap="round"/>
<path d="M99.8868 429.056C94.5121 432.144 82.5779 441.544 73.4706 450.326C63.8648 459.589 57.9183 467.365 55.2881 469.881" stroke="black" stroke-width="0.7" stroke-linecap="round"/>
<path d="M57.004 476.745C55.6317 472.285 52.6813 461.787 51.858 455.475C50.8288 447.584 43.0386 439.935 37.7922 438.321C33.3323 436.949 29.9018 436.949 26.1279 439.35C23.4323 441.066 22.3542 445.868 23.7264 448.613" stroke="black" stroke-width="0.7" stroke-linecap="round"/>
<path d="M10.0037 443.123C9.58142 441.97 7.84089 437.948 12.5412 433.832C16.6135 430.265 29.5586 430.429 32.9893 437.291" stroke="black" stroke-width="0.7" stroke-linecap="round"/>
<path d="M16.864 431.458C14.8055 430.086 11.3749 429.4 7.94424 431.801C1.44199 436.353 -1.66162 454.787 18.2363 466.451C19.7229 466.68 23.3136 467.892 25.7837 470.911C28.8713 474.685 32.6445 484.716 40.1925 490.466C45.5159 494.521 53.7495 498.981 63.0123 492.12C72.2752 485.259 73.47 471.597 93.711 455.13C113.952 438.663 134.879 423.225 140.711 409.502C145.377 398.524 146.086 388.918 145.857 385.487" stroke="black" stroke-width="0.7" stroke-linecap="round"/>
<path d="M160.609 310.011C158.322 312.641 155.12 322.224 160.609 339.515C166.411 357.79 170.251 364.783 177.105 372.106M181.193 376.223C179.71 374.793 178.357 373.444 177.105 372.106M177.105 372.106C177.21 378.396 175.499 393.102 167.814 401.61C158.208 412.245 163.755 428.026 177.105 434.202C190.456 440.377 211.131 436.121 214.814 424.253C217.902 414.304 209.325 408.129 203.836 411.216" stroke="black" stroke-width="0.7" stroke-linecap="round"/>
<path d="M196.138 394.002C196.856 394.326 198.867 395.945 198.292 398.536C197.574 401.773 195.779 401.773 195.779 403.716C195.779 405.659 203.618 409.221 203.318 415.697C203.031 421.913 200.925 422.712 200.087 422.82" stroke="black" stroke-width="0.7" stroke-linecap="round"/>
<path d="M164.904 306.522C180.685 304.12 191.32 319.558 196.123 332.938C205.386 358.742 189.605 390.23 195.437 393.661" stroke="black" stroke-width="0.7" stroke-linecap="round"/>
<path d="M106.926 340.826C103.381 344.028 94.2326 350.294 85.999 349.745C75.707 349.059 70.2179 338.424 59.5828 336.366C48.9478 334.307 42.7725 341.169 42.4294 345.286C42.0863 349.402 43.8018 353.519 50.6631 354.892C56.1522 355.989 62.0986 351.461 63.3565 349.745" stroke="black" stroke-width="0.7" stroke-linecap="round"/>
<path d="M51.0061 336.71C47.9184 334.995 42.445 335.666 38.6555 339.455C34.8663 343.244 33.1666 347.689 35.5681 352.148C37.4892 355.716 41.7432 360.039 48.6045 356.608" stroke="black" stroke-width="0.7" stroke-linecap="round"/>
<path d="M35.5673 352.49C34.4238 354.777 33.0286 360.38 36.5965 364.497C41.0564 369.643 49.6331 366.899 50.3192 364.497" stroke="black" stroke-width="0.7" stroke-linecap="round"/>
<path d="M44.8301 367.586C47.2315 371.017 55.5566 377.142 69.1878 372.732C80.8521 368.958 83.2536 366.214 84.6259 364.499" stroke="black" stroke-width="0.7" stroke-linecap="round"/>
<path d="M78.7939 369.302C86.7988 367.701 99.378 367.091 110.699 360.382C114.473 358.146 118.247 353.521 119.276 351.119" stroke="black" stroke-width="0.7" stroke-linecap="round"/>
<path d="M104.524 446.834C107.497 451.98 114.404 462.41 118.247 462.959C123.05 463.645 153.239 456.44 159.415 453.01" stroke="black" stroke-width="0.7" stroke-linecap="round"/>
<path d="M117.561 435.856C118.949 437.631 122.08 441.808 123.508 444.314C124.935 446.82 126.084 449.326 126.481 450.265" stroke="black" stroke-width="0.7" stroke-linecap="round"/>
<path d="M125.107 446.492C135.514 443.29 157.493 436.68 162.159 435.857C167.991 434.827 171.078 436.886 173.48 441.689C175.633 445.996 174.509 460.901 174.509 466.39C174.509 471.879 173.48 479.083 168.677 482.171C163.874 485.258 144.834 492.12 139.173 489.032C135.399 486.974 130.939 476.682 136.772 471.536C142.604 466.39 152.21 464.674 158.385 466.39M142.604 463.645C138.83 463.073 131.283 463.645 127.509 467.076C122.787 471.368 122.02 478.054 125.793 483.2C128.812 487.317 133.684 487.66 136.772 487.66" stroke="black" stroke-width="0.7" stroke-linecap="round"/>
<path d="M124.765 462.616C122.249 463.531 117.286 466.733 117.56 472.222C117.835 477.711 120.991 481.141 124.078 481.141" stroke="black" stroke-width="0.7" stroke-linecap="round"/>
<path d="M167.648 360.038C166.047 361.982 161.404 366.144 155.641 367.242C149.877 368.34 146.035 378.906 145.692 384.395" stroke="black" stroke-width="0.7" stroke-linecap="round"/>
<path d="M135.057 301.717C135.057 302.975 135.811 306.04 138.83 308.236C141.849 310.431 145.006 310.98 148.093 311.323" stroke="black" stroke-width="0.7" stroke-linecap="round"/>
<path d="M123.05 297.258C123.393 298.058 124.491 299.797 126.137 300.345C127.784 300.894 129.911 301.032 131.283 300.688" stroke="black" stroke-width="0.7" stroke-linecap="round"/>
<path d="M125.794 300.689C125.679 301.49 126.274 302.816 128.195 303.091C130.117 303.365 131.626 302.062 131.283 301.033" stroke="black" stroke-width="0.7" stroke-linecap="round"/>
<path d="M140.545 309.608C139.859 311.324 141.485 313.021 143.29 313.382C145.005 313.725 147.064 313.039 147.064 311.324" stroke="black" stroke-width="0.7" stroke-linecap="round"/>
<path d="M121.677 333.624C122.775 336.368 122.592 337.969 122.363 338.426" stroke="black" stroke-width="0.7" stroke-linecap="round"/>
<path d="M80.853 409.784C83.1401 413.215 89.3938 417.01 99.3787 414.93C107.612 413.215 114.474 407.04 117.904 400.521C121.335 394.003 126.481 380.28 119.963 375.477C117.371 373.567 114.131 373.076 109.328 373.419" stroke="black" stroke-width="0.7" stroke-linecap="round"/>
<path d="M127.509 427.281C128.882 430.826 134.72 435.319 142.947 436.2C152.553 437.23 162.502 429.339 164.217 423.507" stroke="black" stroke-width="0.7" stroke-linecap="round"/>
<path d="M143.633 401.55C146.035 400.406 151.455 399.903 155.298 401.55C159.14 403.197 161.816 403.951 163.531 402.579" stroke="black" stroke-width="0.7" stroke-linecap="round"/>
<path d="M163.875 402.236C166.276 399.835 162.502 397.433 161.816 396.404C161.13 395.375 169.021 395.375 169.707 397.433" stroke="black" stroke-width="0.7" stroke-linecap="round"/>
<path d="M134.713 427.623C135.171 427.623 136.497 427.417 138.144 426.593C139.791 425.77 140.66 424.649 140.889 424.192" stroke="black" stroke-width="0.7" stroke-linecap="round"/>
<path d="M139.518 428.309C139.874 428.309 140.906 428.185 142.186 427.691C143.467 427.197 144.143 426.525 144.321 426.25" stroke="black" stroke-width="0.7" stroke-linecap="round"/>
<path d="M145.005 428.31C145.259 428.31 145.996 428.228 146.911 427.899C147.826 427.569 148.309 427.121 148.436 426.938" stroke="black" stroke-width="0.7" stroke-linecap="round"/>
<path d="M149.467 297.259C151.182 298.059 155.848 299.523 160.788 298.974C165.728 298.425 167.649 295.086 167.992 293.485" stroke="black" stroke-width="0.7" stroke-linecap="round"/>
<path d="M126.824 354.892C128.539 355.578 131.627 356.95 134.371 357.636C137.116 358.322 140.432 358.322 140.889 358.322" stroke="black" stroke-width="0.7" stroke-linecap="round"/>
<path d="M270.225 86.9629C274.768 86.9631 278.452 90.6471 278.452 95.1904C278.451 99.7335 274.768 103.417 270.225 103.417C265.682 103.417 261.998 99.7337 261.998 95.1904C261.998 90.647 265.682 86.9629 270.225 86.9629Z" fill="black" stroke="black" stroke-width="0.7"/>
<path d="M293.555 86.9629C298.098 86.9631 301.782 90.6471 301.782 95.1904C301.781 99.7335 298.098 103.417 293.555 103.417C289.012 103.417 285.328 99.7337 285.328 95.1904C285.328 90.647 289.012 86.9629 293.555 86.9629Z" fill="black" stroke="black" stroke-width="0.7"/>
<path d="M249.298 90.0454L262.334 92.1038" stroke="black" stroke-width="0.7"/>
<path d="M278.116 93.4741L285.663 93.4741" stroke="black" stroke-width="0.7"/>
<path d="M301.787 92.7882L308.992 90.3867" stroke="black" stroke-width="0.7"/>
<path d="M130.187 302.866H127.967H126.487L125.748 300.646L130.927 301.386L130.187 302.866Z" fill="black" stroke="black" stroke-width="0.7" stroke-linejoin="round"/>
<path d="M142.025 313.225C140.25 313.225 140.299 310.759 140.546 309.525C142.765 310.019 147.205 311.153 147.205 311.745C147.205 312.485 144.245 313.225 142.025 313.225Z" fill="black" stroke="black" stroke-width="0.7"/>
</svg>
