<svg width="598" height="399" viewBox="0 0 598 399" fill="none" xmlns="http://www.w3.org/2000/svg">
<circle cx="212.884" cy="149.884" r="73.3843" stroke="#3A86FE" stroke-linecap="round"/>
<path d="M139.758 145.337C144.052 143.19 154.535 138.365 162.113 136.244C169.69 134.122 243.322 123.235 279.191 118.057" stroke="#3A86FE" stroke-linecap="round"/>
<circle cx="384.144" cy="149.884" r="73.3843" stroke="#3A86FE" stroke-linecap="round"/>
<path d="M322.385 145.354V137.743C322.006 136.014 320.112 133.592 317.08 133.592C314.034 133.592 311.776 136.013 311.776 138.089V145.354C311.776 147.43 314.428 149.505 317.08 149.505C320.112 149.505 322.385 147.084 322.385 145.354Z" stroke="#3A86FE" stroke-linecap="round"/>
<path d="M285.253 145.354V137.743C284.874 136.014 282.98 133.592 279.949 133.592C276.902 133.592 274.644 136.013 274.644 138.089V145.354C274.644 147.43 277.296 149.505 279.949 149.505C282.98 149.505 285.253 147.084 285.253 145.354Z" stroke="#3A86FE" stroke-linecap="round"/>
<line x1="154.065" y1="106.836" x2="283.504" y2="169.298" stroke="#3A86FE" stroke-linecap="round"/>
<path d="M321.374 186.457L397.027 222.253" stroke="#3A86FE" stroke-linecap="round"/>
<line x1="285.924" y1="161.406" x2="315.341" y2="176.115" stroke="#3A86FE" stroke-linecap="round"/>
<path d="M144.305 93.8076L157.945 101.007" stroke="#3A86FE" stroke-linecap="round"/>
<path d="M322.384 110.479L431.834 94.6238M281.843 124.12L317.08 118.815" stroke="#3A86FE" stroke-linecap="round"/>
<path d="M439.1 100.551L456.208 97.9754" stroke="#3A86FE" stroke-linecap="round"/>
<path d="M276.538 113.132C276.159 111.237 275.401 103.281 277.296 97.9761C279.975 90.4742 286.768 82.4414 299.272 82.4414C311.775 82.4414 317.837 89.6404 320.111 96.0816C321.929 101.235 321.626 107.448 321.626 110.48" stroke="#3A86FE" stroke-linecap="round"/>
<path d="M147.336 183.227C144.683 186.258 140.743 196.867 144.683 216.569C148.472 235.514 166.659 264.31 178.784 280.223" stroke="#3A86FE" stroke-linecap="round"/>
<path d="M402.331 221.495C409.782 228.568 424.992 247.402 426.58 265.826C428.475 287.802 422.791 301.442 410.667 315.082C403.336 323.328 378.587 345.267 366.715 354.866" stroke="#3A86FE" stroke-linecap="round"/>
</svg>
