<svg width="140" height="59" viewBox="0 0 140 59" fill="none" xmlns="http://www.w3.org/2000/svg">
<path d="M15.5387 42.6889C18.3585 42.6889 19.5669 40.2109 20.0704 40.211C20.574 40.2111 20.0704 53.096 39.7078 53.096C58.8417 53.096 58.3381 39.7155 58.8417 39.7155C59.3452 39.7155 59.3452 42.689 62.8698 42.689C66.898 42.689 68.4086 40.211 68.9121 35.2553C69.4156 30.2995 66.3945 6.51206 38.1972 7.00763C10 7.5032 10 34.7597 10 37.2376C10 39.7154 12.0141 42.6889 15.5387 42.6889Z" fill="black" stroke="black" stroke-width="0.8"/>
<path d="M28.5811 21.9316C30.4754 21.9316 32.1113 23.7454 32.1113 26.1172C32.1113 28.4889 30.4753 30.3027 28.5811 30.3027C26.6868 30.3027 25.0509 28.4889 25.0508 26.1172C25.0508 23.7454 26.6867 21.9316 28.5811 21.9316Z" fill="#FFFCF2" stroke="#FFFCF2" stroke-width="0.8"/>
<path d="M49.5444 21.9316C51.4387 21.9316 53.0747 23.7454 53.0747 26.1172C53.0746 28.4889 51.4387 30.3027 49.5444 30.3027C47.6502 30.3027 46.0142 28.4889 46.0142 26.1172C46.0142 23.7454 47.6501 21.9316 49.5444 21.9316Z" fill="#FFFCF2" stroke="#FFFCF2" stroke-width="0.8"/>
<ellipse cx="39.7534" cy="36.665" rx="3.04685" ry="2.03123" fill="#FFFCF2"/>
<path d="M28.6026 38.6963C28.4333 40.389 29.2119 43.7744 33.6806 43.7744C38.1494 43.7744 39.2664 40.389 39.2663 38.6963" stroke="#FFFCF2" stroke-width="1.5" stroke-linecap="round"/>
<path d="M39.7744 38.6963C39.6052 40.389 40.3838 43.7744 44.8525 43.7744C49.3212 43.7744 50.4383 40.389 50.4382 38.6963" stroke="#FFFCF2" stroke-width="1.5" stroke-linecap="round"/>
<path d="M93.3726 21.2207C95.2669 21.2207 96.9028 23.0344 96.9028 25.4062C96.9028 27.778 95.2668 29.5918 93.3726 29.5918C91.4783 29.5918 89.8424 27.778 89.8423 25.4062C89.8423 23.0344 91.4783 21.2207 93.3726 21.2207Z" stroke="black" stroke-width="0.8"/>
<path d="M114.336 21.2207C116.23 21.2207 117.866 23.0344 117.866 25.4062C117.866 27.778 116.23 29.5918 114.336 29.5918C112.442 29.5918 110.806 27.778 110.806 25.4062C110.806 23.0344 112.442 21.2207 114.336 21.2207Z" stroke="black" stroke-width="0.8"/>
<path d="M103.855 14.0925C114.011 14.0923 118.073 6.48572 122.643 7.7428C127.214 8.99987 126.198 16.5721 127.214 19.5151C128.229 22.4581 130.369 28.1524 129.245 35.2111C128.23 41.5877 122.644 52.3787 103.855 52.3787" stroke="black" stroke-width="0.8"/>
<path d="M104.669 14.0931C94.5126 14.0929 90.4505 5.98637 85.8802 7.74344C81.3099 9.50052 82.3255 16.5727 81.3099 19.5157C80.2943 22.4587 78.1542 28.153 79.2783 35.2118C80.2938 41.5883 85.8798 52.3794 104.669 52.3794" stroke="black" stroke-width="0.8"/>
<ellipse cx="104.35" cy="36.1553" rx="3.04685" ry="2.03123" fill="black"/>
<path d="M93.1997 38.1865C93.0305 39.8792 93.8091 43.2646 98.2778 43.2646C102.747 43.2646 103.864 39.8792 103.864 38.1865" stroke="black" stroke-width="0.8" stroke-linecap="round"/>
<path d="M104.372 38.1865C104.203 39.8792 104.981 43.2646 109.45 43.2646C113.919 43.2646 115.036 39.8792 115.036 38.1865" stroke="black" stroke-width="0.8" stroke-linecap="round"/>
<circle cx="49.5" cy="27.5" r="2.5" fill="black"/>
<circle cx="28.5" cy="27.5" r="2.5" fill="black"/>
</svg>
