<svg width="109" height="87" viewBox="0 0 109 87" fill="none" xmlns="http://www.w3.org/2000/svg">
<path d="M18.0244 43.9805C19.2413 43.8453 22.2429 45.4408 22.8919 49.6593C23.5409 53.8777 22.0806 58.5829 20.8638 60.6112" stroke="black" stroke-width="0.8" stroke-linecap="round"/>
<path d="M27.3539 61.0159C28.4356 58.7174 30.2694 52.422 28.9765 46.8192C27.7596 41.5461 24.5146 37.8952 20.864 37.8955C17.619 37.8958 9.91219 41.5461 11.1291 54.526C12.3459 67.5059 19.6627 67.6596 21.6751 67.9112C24.9201 68.3168 31.8156 65.0719 36.6831 58.9875C40.5078 54.2066 45.742 46.8189 47.2292 43.9795C48.3109 44.7908 50.5512 45.1964 56.1529 45.1964C62.5888 45.1964 69.4369 43.0665 77.198 38.6588" stroke="black" stroke-width="0.8" stroke-linecap="round"/>
<path d="M28.9766 56.5544C31.0047 55.0672 35.791 51.1191 38.7115 47.2251C41.6319 43.3312 47.5405 31.6869 48.8926 28.5771" stroke="black" stroke-width="0.8" stroke-linecap="round"/>
<path d="M49.3492 27.6635C50.2619 25.8757 50.7998 22.0137 51.6911 20.8594C53.4577 18.5711 56.9641 21.6706 63.0485 20.4537C69.1328 19.2369 84.952 15.1807 89.4138 13.1526C93.8757 11.1245 92.2634 15.3753 91.8476 17.6144C91.4157 19.9398 84.5023 38.6588 79.4807 53.268C76.6508 61.5011 73.5457 76.0949 67.6107 80.6603C62.4296 84.6458 54.3708 82.0299 49.3492 77.4645C46.139 74.546 39.3346 65.9544 44.7837 60.1161C51.1752 53.268 64.8712 57.3769 66.6973 66.5076" stroke="black" stroke-width="0.8" stroke-linecap="round"/>
<path d="M57.0802 31.5831C55.006 30.7313 55.0623 27.6357 55.836 26.0475C56.5366 24.6095 57.9105 22.2146 60.8138 23.0662C63.3364 23.8062 62.722 26.8988 62.0583 28.6022C61.2728 30.6184 59.2429 32.4712 57.0802 31.5831Z" stroke="black" stroke-width="0.8" stroke-linecap="round"/>
<path d="M70.7923 31.2599C68.1295 31.0324 67.9872 28.1441 68.3977 26.1862C68.7643 24.4364 70.0078 21.5247 73.6312 21.5242C76.0651 21.524 76.5589 24.3925 76.0653 26.3925C75.4694 28.8067 73.5687 31.497 70.7923 31.2599Z" stroke="black" stroke-width="0.8" stroke-linecap="round"/>
<ellipse cx="57.2099" cy="27.4045" rx="2.05528" ry="2.38562" transform="rotate(17.5711 57.2099 27.4045)" fill="black"/>
<ellipse cx="70.2265" cy="26.0422" rx="2.05528" ry="2.38562" transform="rotate(17.5711 70.2265 26.0422)" fill="black"/>
<path d="M54.8276 37.2509C55.8929 37.2509 58.7539 37.0944 61.6757 36.4683C64.4149 35.8813 67.1542 34.5117 67.6107 33.5986" stroke="black" stroke-width="0.8" stroke-linecap="round"/>
<path d="M77.6547 37.7461C76.7416 41.5506 72.4501 51.7162 69.8935 56.4642C67.3369 61.2122 66.089 63.3122 65.7847 63.7688" stroke="black" stroke-width="0.8" stroke-linecap="round"/>
<path d="M46.6099 64.6827C47.9795 62.8569 52.5449 61.9929 55.7406 63.7689C59.8493 66.0522 64.4149 71.9864 63.5018 77.9221" stroke="black" stroke-width="0.8" stroke-linecap="round"/>
<path d="M44.0001 27.1191C45.29 24.5391 48 24.1196 50 24.6196C50 25.6196 50 26.6196 48.4998 29.6191C47.5363 31.5457 46.4999 33.7858 46 34.6191C44.0001 34.1191 41.5002 32.1192 44.0001 27.1191Z" fill="black" stroke="black" stroke-width="0.8" stroke-linecap="round"/>
<ellipse cx="89.7065" cy="28.4267" rx="5.84046" ry="7.5926" transform="rotate(15.9968 89.7065 28.4267)" fill="black"/>
<path d="M48.0002 27.119C47.6668 19.4523 50.4002 4.51898 64.0002 6.11898C77.6002 7.71898 88.0001 20.7856 91.5 27.119" stroke="black" stroke-width="2" stroke-linecap="square"/>
</svg>
