<svg width="109" height="87" viewBox="0 0 109 87" fill="none" xmlns="http://www.w3.org/2000/svg">
<path d="M36.6824 24.9383C37.4228 24.4941 39.0813 23.8721 39.7921 24.9383C40.6805 26.271 40.2363 29.8245 38.4593 32.0456C36.6824 34.2668 34.4612 34.7111 33.5728 32.9341" stroke="black" stroke-width="0.8" stroke-linecap="round"/>
<path d="M12.6934 53.369C14.0261 53.2209 17.3134 54.9683 18.0242 59.5883C18.735 64.2084 17.1357 69.3615 15.803 71.5829" stroke="black" stroke-width="0.8" stroke-linecap="round"/>
<path d="M22.9108 72.0275C24.0954 69.5102 26.1039 62.6155 24.6878 56.4792C23.3551 50.7042 19.8012 46.7057 15.8031 46.7061C12.2491 46.7064 3.80864 50.7042 5.14134 64.9197C6.47405 79.1353 14.4873 79.3037 16.6914 79.5792C20.2452 80.0234 27.7973 76.4696 33.1281 69.806C37.317 64.5699 43.0493 56.4789 44.6782 53.3693C45.8628 54.2578 48.4098 55.7682 54.4514 54.702C60.493 53.6358 67.6304 51 70.4439 49.8154L72.2208 47.5942C69.1112 51.1481 64.6407 59.7858 63.7804 65.8079C62.8919 72.0272 67.119 83.1598 84 68.5" stroke="black" stroke-width="0.8" stroke-linecap="round"/>
<path d="M24.688 67.1408C26.9092 65.5119 32.1512 61.188 35.3497 56.9233C38.5481 52.6587 42.3093 44.7809 43.7901 41.3751M38.9035 37.377C39.9401 37.8212 42.4574 39.2427 44.2344 41.3751C46.0113 43.5074 47.344 47.8905 47.7883 49.8156" stroke="black" stroke-width="0.8" stroke-linecap="round"/>
<path d="M44.2344 32.0463C44.5101 32.6895 45.6748 34.3472 46.8612 35.6001M56.673 40.4867C55.4884 40.3386 52.4083 39.5982 49.5652 37.8213C48.4864 37.147 47.5867 36.3662 46.8612 35.6001M46.8612 35.6001C47.3183 33.527 48.499 29.1143 49.5652 28.0481C50.8979 26.7154 55.3403 28.9366 62.0038 27.6039C68.6674 26.2712 85.9926 21.8288 90.8792 19.6076C95.7657 17.3864 94.8773 22.273 93.5446 24.4942C92.2119 26.7154 77.5521 45.8176 73.1097 57.812C69.9836 66.2525 70.4443 67.5852 72.2212 68.4736C74.2473 69.4867 78.8301 65.8629 80.6617 64.0313C82.8829 61.8101 86.468 56.5051 89.9907 56.035C94 55.5 100.652 58.7005 102.874 69.3621C105.095 80.0238 99.7639 84.3773 94.433 84.9104C89.9907 85.3546 86.0563 81.7789 84.6598 77.8026C83.5 74.5 83.7038 70.991 84 68.4736" stroke="black" stroke-width="0.8" stroke-linecap="round"/>
<path d="M38.9032 37.3766C37.7186 38.4132 34.7274 40.1309 32.2397 38.7093C29.1301 36.9324 29.1981 31.0215 30.9072 27.6035C33.5726 22.2726 38.015 18.9162 41.5686 20.4957C46.1072 22.5129 45.5667 30.7132 42.9013 33.3786" stroke="black" stroke-width="0.8" stroke-linecap="round"/>
<path d="M55.4669 39.7927C53.1953 38.8599 53.2568 35.4695 54.1042 33.7301C54.8716 32.1553 56.3763 29.5323 59.556 30.465C62.3186 31.2755 61.6457 34.6625 60.9189 36.5281C60.0586 38.7361 57.8354 40.7654 55.4669 39.7927Z" stroke="black" stroke-width="0.8" stroke-linecap="round"/>
<path d="M64.2251 40.0426C61.3087 39.7935 61.1529 36.6302 61.6025 34.4859C62.004 32.5695 63.3659 29.3806 67.3343 29.3801C69.9998 29.3798 70.5406 32.5214 70 34.7118C69.3475 37.3558 67.2658 40.3023 64.2251 40.0426Z" stroke="black" stroke-width="0.8" stroke-linecap="round"/>
<ellipse cx="55.6091" cy="35.2163" rx="2.25093" ry="2.61272" transform="rotate(17.5711 55.6091 35.2163)" fill="black"/>
<ellipse cx="63.6057" cy="34.3276" rx="2.25093" ry="2.61272" transform="rotate(17.5711 63.6057 34.3276)" fill="black"/>
<ellipse cx="22" cy="13.9453" rx="3" ry="2" fill="black"/>
<ellipse cx="29" cy="18.9453" rx="3" ry="2" fill="black"/>
<path d="M24.522 13.9339V6.79492C24.522 6.79492 25.0187 8.59441 27.0055 9.5878C28.9922 10.5812 30.3168 10.8295 30.7307 10.8295V18.28" stroke="black" stroke-width="0.8" stroke-linecap="round"/>
<ellipse cx="12" cy="12.9453" rx="3" ry="2" fill="black"/>
<path d="M14.5879 12.6922V4C14.5879 5.03478 15.7055 6.73183 17.6922 7.72522" stroke="black" stroke-width="0.8" stroke-linecap="round"/>
</svg>
