<svg width="32" height="32" viewBox="0 0 32 32" fill="none" xmlns="http://www.w3.org/2000/svg">
<path d="M28.79 14.7375L10.78 3.72378C10.5525 3.58262 10.2911 3.50545 10.0233 3.50039C9.75562 3.49533 9.49149 3.56257 9.25877 3.69503C9.02775 3.82199 8.8353 4.00899 8.70175 4.23627C8.5682 4.46355 8.4985 4.72267 8.50002 4.98628V27.0138C8.4985 27.2774 8.5682 27.5365 8.70175 27.7638C8.8353 27.9911 9.02775 28.1781 9.25877 28.305C9.49149 28.4375 9.75562 28.5047 10.0233 28.4997C10.2911 28.4946 10.5525 28.4174 10.78 28.2763L28.79 17.2625C29.0068 17.1307 29.186 16.9454 29.3103 16.7242C29.4347 16.5031 29.5 16.2537 29.5 16C29.5 15.7463 29.4347 15.4969 29.3103 15.2758C29.186 15.0547 29.0068 14.8693 28.79 14.7375ZM28.2675 16.4088L10.2575 27.4238C10.1813 27.4706 10.0938 27.4962 10.0043 27.4977C9.91486 27.4993 9.8266 27.4767 9.74877 27.4325C9.67287 27.3922 9.60946 27.3318 9.56539 27.258C9.52133 27.1842 9.49829 27.0997 9.49877 27.0138V4.98628C9.49829 4.90032 9.52133 4.81586 9.56539 4.74205C9.60946 4.66824 9.67287 4.60789 9.74877 4.56753C9.8266 4.52332 9.91486 4.50081 10.0043 4.50235C10.0938 4.50389 10.1813 4.52942 10.2575 4.57628L28.2675 15.5913C28.3385 15.6333 28.3973 15.6931 28.4382 15.7648C28.4791 15.8364 28.5006 15.9175 28.5006 16C28.5006 16.0825 28.4791 16.1636 28.4382 16.2353C28.3973 16.307 28.3385 16.3668 28.2675 16.4088Z" fill="#343330"/>
</svg>
