<svg width="204" height="185" viewBox="0 0 204 185" fill="none" xmlns="http://www.w3.org/2000/svg">
<path d="M100.927 77.1348C99.3731 89.1477 96.3237 107.022 89.966 108.631C80.1718 111.11 72.8263 103.674 63.0321 108.631C53.2379 113.589 55.6859 133.421 45.8917 135.9C36.0975 138.379 21.4061 128.463 14.0609 135.9C4.7374 145.34 14.0609 158.21 23.8551 160.689C33.6493 163.168 43.4431 170.605 53.2373 170.605C63.0315 170.605 70.3766 168.126 67.9286 155.731C65.4806 143.337 70.1353 130.942 82.6205 130.942C99.7604 130.942 92.4136 163.168 104.657 165.647C116.662 168.078 121.946 156.783 131.591 160.689C143.834 165.647 138.694 183 151.179 183C163.422 183 163.422 163.168 160.974 153.253C158.525 143.337 158.525 123.505 146.282 123.505C131.591 123.505 126.694 148.295 114.451 140.858C107.191 136.448 113.834 114.966 120.416 98.4229" stroke="black" stroke-width="4" stroke-linecap="round"/>
<path d="M183.158 112.679C152.75 124.082 112.839 106.978 112.839 78.4698C94.0129 72.4799 72.082 81.8182 50.1211 80.3703C20.2503 78.4009 -6.4445 64.2624 4.50837 36.6582C9.71619 23.533 26.9131 26.096 40.6185 23.3549C57.1386 20.0508 67.6325 15.3999 90.0322 7.7431C116.64 -1.35202 132.938 1.67106 145.841 7.74311C197.342 31.9782 213.566 101.277 183.158 112.679Z" stroke="black" stroke-width="4" stroke-linecap="round"/>
<path d="M182.384 65.3778C185.436 78.6811 187.979 92.6438 176.682 99.5873C165.386 106.531 141.701 92.6372 146.486 63.5233C149.995 42.1734 132.059 28.8753 143.218 24.5256C155.421 19.7691 177.873 45.7155 182.384 65.3778Z" fill="black" stroke="black" stroke-width="4"/>
<path d="M114.282 18.3264C120.384 20.98 123.238 29.2056 119.82 37.0661C116.401 44.9268 108.438 48.4489 102.336 45.7953C96.2342 43.1417 93.3804 34.9154 96.7989 27.0547C100.218 19.1942 108.18 15.6728 114.282 18.3264Z" stroke="black" stroke-width="4"/>
<path d="M104.994 24.7192C107.562 25.5682 108.987 28.3871 108.107 31.0506C107.226 33.7141 104.401 35.1287 101.833 34.2796C99.2647 33.4304 97.8403 30.611 98.7208 27.9476C99.6014 25.2843 102.425 23.8703 104.994 24.7192Z" fill="black" stroke="black" stroke-width="4"/>
</svg>
