<svg width="35" height="37" viewBox="0 0 35 37" fill="none" xmlns="http://www.w3.org/2000/svg">
<path d="M12.9731 28.3259C11.7251 28.3259 10.6531 28.0859 9.75713 27.6059C8.86113 27.1259 8.17313 26.4486 7.69313 25.5739C7.22379 24.6992 6.98913 23.6752 6.98913 22.5019C6.98913 21.6272 7.12246 20.8326 7.38913 20.1179C7.66646 19.4032 8.06113 18.7899 8.57313 18.2779C9.09579 17.7659 9.72513 17.3766 10.4611 17.1099C11.2078 16.8326 12.0451 16.6939 12.9731 16.6939C13.4638 16.6939 13.9705 16.7526 14.4931 16.8699C15.0265 16.9766 15.4958 17.1419 15.9011 17.3659C16.1998 17.5259 16.4078 17.7286 16.5251 17.9739C16.6425 18.2192 16.6798 18.4699 16.6371 18.7259C16.6051 18.9819 16.5145 19.2112 16.3651 19.4139C16.2158 19.6166 16.0238 19.7552 15.7891 19.8299C15.5545 19.8939 15.2985 19.8566 15.0211 19.7179C14.7011 19.5686 14.3811 19.4566 14.0611 19.3819C13.7518 19.2966 13.4265 19.2539 13.0851 19.2539C12.4238 19.2539 11.8691 19.3819 11.4211 19.6379C10.9838 19.8832 10.6531 20.2459 10.4291 20.7259C10.2051 21.2059 10.0931 21.7979 10.0931 22.5019C10.0931 23.2059 10.2051 23.8032 10.4291 24.2939C10.6531 24.7739 10.9838 25.1419 11.4211 25.3979C11.8691 25.6432 12.4238 25.7659 13.0851 25.7659C13.3625 25.7659 13.6611 25.7339 13.9811 25.6699C14.3011 25.5952 14.6158 25.4832 14.9251 25.3339C15.2451 25.1952 15.5278 25.1579 15.7731 25.2219C16.0291 25.2859 16.2318 25.4139 16.3811 25.6059C16.5411 25.7979 16.6425 26.0219 16.6851 26.2779C16.7278 26.5232 16.6905 26.7686 16.5731 27.0139C16.4665 27.2592 16.2745 27.4566 15.9971 27.6059C15.6238 27.8299 15.1598 28.0059 14.6051 28.1339C14.0611 28.2619 13.5171 28.3259 12.9731 28.3259ZM22.9239 28.2939C22.5185 28.2939 22.1879 28.2086 21.9319 28.0379C21.6865 27.8672 21.4785 27.5952 21.3079 27.2219L17.4359 18.6779C17.2652 18.3046 17.2119 17.9686 17.2759 17.6699C17.3399 17.3712 17.4892 17.1419 17.7239 16.9819C17.9585 16.8112 18.2519 16.7259 18.6039 16.7259C19.0412 16.7259 19.3665 16.8219 19.5799 17.0139C19.8039 17.2059 19.9959 17.4886 20.1559 17.8619L23.4199 25.4139H22.5239L25.7879 17.8459C25.9479 17.4726 26.1399 17.1952 26.3639 17.0139C26.5879 16.8219 26.9025 16.7259 27.3079 16.7259C27.6385 16.7259 27.9159 16.8112 28.1399 16.9819C28.3639 17.1419 28.5025 17.3712 28.5559 17.6699C28.6199 17.9686 28.5665 18.3046 28.3959 18.6779L24.5079 27.2219C24.3479 27.5952 24.1452 27.8672 23.8999 28.0379C23.6545 28.2086 23.3292 28.2939 22.9239 28.2939Z" fill="black"/>
<path d="M9 35.4004H26C30.0869 35.4004 33.4004 32.0869 33.4004 28V12.5215C33.4003 10.5163 32.5858 8.59725 31.1445 7.20312L27.5039 3.68164C26.1239 2.34671 24.2794 1.59962 22.3594 1.59961H9C4.91309 1.59961 1.59961 4.91309 1.59961 9V28C1.59961 32.0869 4.91309 35.4004 9 35.4004Z" stroke="black" stroke-width="3.2"/>
<path d="M23 3V8C23 9.65685 24.3431 11 26 11H32" stroke="black" stroke-width="3" stroke-linecap="round"/>
</svg>
