<svg width="35" height="36" viewBox="0 0 35 36" fill="none" xmlns="http://www.w3.org/2000/svg">
<g clip-path="url(#clip0_751_4036)">
<path d="M29.0926 8.23914L24.0118 3.15539C23.0658 2.20476 21.9408 1.45108 20.7017 0.937933C19.4626 0.424787 18.1341 0.162353 16.793 0.165805H10.2087C8.2755 0.168121 6.42218 0.937091 5.05523 2.30404C3.68828 3.67099 2.91931 5.52431 2.91699 7.45747V27.8741C2.91931 29.8073 3.68828 31.6606 5.05523 33.0276C6.42218 34.3945 8.2755 35.1635 10.2087 35.1658H24.792C26.7252 35.1635 28.5785 34.3945 29.9454 33.0276C31.3124 31.6606 32.0813 29.8073 32.0837 27.8741V15.4564C32.0873 14.1154 31.8248 12.7869 31.3114 11.5481C30.7979 10.3092 30.0438 9.18449 29.0926 8.23914V8.23914ZM27.0305 10.3012C27.4758 10.7594 27.8588 11.2742 28.1695 11.8325H21.8753C21.4886 11.8325 21.1176 11.6788 20.8441 11.4053C20.5706 11.1318 20.417 10.7609 20.417 10.3741V4.07997C20.9754 4.39049 21.4907 4.77292 21.9497 5.21747L27.0305 10.3012ZM29.167 27.8741C29.167 29.0345 28.7061 30.1473 27.8856 30.9677C27.0651 31.7882 25.9523 32.2491 24.792 32.2491H10.2087C9.04834 32.2491 7.93554 31.7882 7.11507 30.9677C6.2946 30.1473 5.83366 29.0345 5.83366 27.8741V7.45747C5.83366 6.29715 6.2946 5.18435 7.11507 4.36388C7.93554 3.54341 9.04834 3.08247 10.2087 3.08247H16.793C17.0322 3.08247 17.2641 3.12914 17.5003 3.15101V10.3741C17.5003 11.5345 17.9613 12.6473 18.7817 13.4677C19.6022 14.2882 20.715 14.7491 21.8753 14.7491H29.0984C29.1203 14.9854 29.167 15.2158 29.167 15.4564V27.8741Z" fill="black"/>
</g>
<defs>
<clipPath id="clip0_751_4036">
<rect width="35" height="35" fill="white" transform="translate(0 0.165161)"/>
</clipPath>
</defs>
</svg>
