<svg width="383" height="446" viewBox="0 0 383 446" fill="none" xmlns="http://www.w3.org/2000/svg">
<g clip-path="url(#clip0_1201_341)">
<rect x="0.982544" y="-0.338867" width="383" height="446" fill="#FFFCF2"/>
<path d="M355.695 195.171C349.234 216.501 333.806 233.935 313.797 243.085C304.015 247.557 293.138 250.051 281.679 250.051C278.071 250.051 274.521 249.805 271.045 249.327M358.13 184.382C358.705 180.578 359.003 176.683 359.003 172.718C359.001 130.011 324.378 95.3916 281.67 95.3941C238.963 95.3965 204.344 130.02 204.346 172.727C204.348 205.529 224.774 233.56 253.6 244.797" stroke="black" stroke-linecap="round"/>
<path d="M217.035 167.984L217.035 160.018C216.638 158.208 214.655 155.673 211.483 155.674C208.294 155.674 205.931 158.208 205.931 160.381L205.932 167.984C205.932 170.157 208.708 172.329 211.484 172.329C214.656 172.329 217.035 169.794 217.035 167.984Z" fill="#FFFCF2" stroke="black" stroke-linecap="round"/>
<path d="M178.172 167.987L178.172 160.021C177.775 158.211 175.792 155.676 172.62 155.676C169.432 155.677 167.068 158.211 167.068 160.384L167.069 167.987C167.069 170.16 169.845 172.332 172.621 172.332C175.793 172.332 178.173 169.797 178.172 167.987Z" fill="#FFFCF2" stroke="black" stroke-linecap="round"/>
<path d="M215.98 211.004L247.716 226.018M295.162 248.464L273.372 238.156" stroke="black" stroke-linecap="round"/>
<line x1="178.845" y1="184.798" x2="209.676" y2="200.211" stroke="black" stroke-linecap="round"/>
<path d="M30.6512 114.046L44.9277 121.58" stroke="black" stroke-linecap="round"/>
<path d="M217.033 131.484L331.584 114.883M174.603 145.763L211.482 140.209" stroke="black" stroke-linecap="round"/>
<path d="M339.189 121.086L357.095 118.39" stroke="black" stroke-linecap="round"/>
<path d="M169.05 134.263C168.653 132.28 167.86 123.952 169.842 118.4C172.645 110.549 179.755 102.141 192.841 102.14C205.928 102.139 212.273 109.674 214.653 116.415C216.557 121.808 216.24 128.312 216.24 131.484" stroke="black" stroke-linecap="round"/>
<path d="M136.458 271.971C144.38 260.32 165.223 256.435 167.013 269.036C167.013 276.553 160.815 288.292 140.426 294.072C133.829 287.83 131.791 278.833 136.458 271.971Z" fill="#FFFCF2"/>
<path d="M33.5 208.001C22.5 233.501 32.8896 290.501 92.5 296.501C152.11 302.501 167.013 280.691 167.013 269.036C165.223 256.435 144.38 260.32 136.458 271.971C128.535 283.621 139.937 301.423 160.161 301.456C212.009 301.542 245.277 250.091 251.48 231.692" stroke="black" stroke-linecap="round"/>
<path d="M300.713 247.67C308.513 255.072 324.432 274.783 326.096 294.066C328.08 317.066 322.132 331.342 309.443 345.619C301.772 354.25 273.195 371.723 264.692 379.766C256.756 387.272 255.021 395.036 259.686 400.824C262.378 404.163 270.722 408.517 279.2 397.592C287.79 386.523 289.912 358.076 260.616 354.614C237.179 351.844 177.504 371.979 160.757 445.522" stroke="black" stroke-linecap="round"/>
<path d="M347.109 240.477C348.28 241.859 345.417 246.092 346.112 248.918C347.131 253.066 350.072 253.414 352.046 253.647C356.566 254.181 362.407 251.616 363.73 240.427C364.273 235.828 364.847 229.98 361.226 226.754C358.107 223.974 354.392 225.325 354.32 225.938" stroke="black" stroke-linecap="round"/>
<path d="M298.489 221.594C301.442 225.951 310.083 235.543 321.018 239.056C334.687 243.446 350.151 240.649 353.273 238.243C356.395 235.837 358.298 227.737 355.607 226.494C352.917 225.251 350.835 226.855 343.481 225.061C336.126 223.267 328.308 216.371 329.278 208.161" stroke="black" stroke-linecap="round"/>
<path d="M255.451 232.162C255.098 232.434 254.631 234.841 254.192 238.553C253.643 243.194 252.946 257.228 252.507 260.94M252.507 260.94C252.069 264.653 261.438 266.701 265.34 266.221C265.793 266.165 267.735 265.857 268.14 265.381M252.507 260.94C249.943 261.72 242.402 259.703 239.543 264.519C237.03 268.753 242.081 273.013 245.994 273.84C251.398 274.982 264.493 278.04 267.318 272.332C268.821 269.296 268.402 267.426 268.14 265.381M298.424 222.136C293.974 227.257 273.08 233.257 272.203 240.682C271.427 247.244 269.855 260.549 268.14 265.381" stroke="black" stroke-linecap="round"/>
<path d="M279.229 197.112C281.819 199.231 289.819 203.621 301.105 204.23C312.392 204.838 318.327 202.839 323.09 200.885" stroke="black" stroke-linecap="round"/>
<path d="M310.401 167.665C314.824 168.829 321.966 172.053 328.174 177.913C334.133 183.538 337.223 189.555 338.284 191.603" stroke="black" stroke-linecap="round"/>
<path d="M335.129 192.741C337.026 192.336 343.631 189.153 345.208 188.394C348.974 186.584 351.182 189.666 351.984 190.705C352.786 191.745 353.559 194.416 352.797 196.606C352.18 198.379 331.863 211.239 325.92 206.757C323.26 204.753 322.535 201.323 323.063 196.854" stroke="black" stroke-linecap="round"/>
<path d="M347.312 187.636C349.709 184.395 351.922 183.037 353.916 182.878C356.457 182.675 358.823 183.962 359.522 186.562C360.222 189.161 359.929 191.644 357.708 193.396C355.487 195.147 353.841 196.296 352.828 196.344" stroke="black" stroke-linecap="round"/>
<path d="M276.049 168.64C274.032 169.67 269.286 172.718 266.334 178.455C262.645 185.625 260.65 202.505 254.046 210.282C248.763 216.503 249.089 220.155 249.913 221.203C250.974 222.913 254.086 225.975 257.056 224.9C261.015 223.466 271.893 207.626 277.089 199.693C278.245 197.928 280.446 195.336 280.779 192.523" stroke="black" stroke-linecap="round"/>
<path d="M249.434 219.367C248.239 221.382 246.518 226.23 249.193 229.504C251.868 232.777 255.268 232.07 256.634 231.307C258.683 230.163 259.493 226.935 257.821 224.89" stroke="black" stroke-linecap="round"/>
<path d="M303.985 178.118C303.34 183.58 294.908 187.988 286.566 185.443C278.822 183.082 276.572 175.433 276.252 171.182M276.293 171.64C278.447 171.572 283.361 170.539 285.989 166.976C288.617 163.414 290.712 165.921 291.431 167.619C292.15 169.318 296.23 172.536 302.018 174.681C303.619 175.274 305.254 177.127 302.956 180.883C304.18 180.705 306.165 178.27 307.978 175.385C309.111 173.582 311.514 168.069 308.563 161.91C305.038 154.551 297.816 150.608 290.55 151.726C282.431 152.975 274.798 157.92 276.293 171.64Z" stroke="black" stroke-linecap="round"/>
<circle cx="102.429" cy="172.729" r="76.8286" stroke="black" stroke-linecap="round"/>
<path d="M25.8931 167.97C30.3874 165.723 41.3588 160.673 49.2899 158.453C57.2211 156.232 134.285 144.838 171.826 139.418" stroke="black" stroke-linecap="round"/>
<line x1="40.8367" y1="127.685" x2="176.352" y2="193.079" stroke="black" stroke-linecap="round"/>
</g>
<defs>
<clipPath id="clip0_1201_341">
<rect width="383" height="446" fill="white"/>
</clipPath>
</defs>
</svg>
