<svg width="386" height="447" viewBox="0 0 386 447" fill="none" xmlns="http://www.w3.org/2000/svg">
<rect width="383" height="446" transform="translate(3)" fill="#FFFCF2"/>
<g clip-path="url(#clip0_3163_1556)">
<rect width="383" height="446" transform="translate(3)" fill="#FFFCF2"/>
<rect x="3.98237" y="-0.338867" width="383" height="446" fill="#FFFCF2"/>
<g clip-path="url(#clip1_3163_1556)">
<rect width="383" height="446" transform="translate(4)" fill="#FFFCF2"/>
</g>
</g>
<path d="M102.177 168.594C105.217 164.309 112.128 156.707 115.446 157.813C120.007 159.333 119.178 165.691 115.031 176.887C112.871 182.72 109.696 188.083 104.665 198.864C102.342 203.84 100.38 207.572 99.6887 208.816" stroke="black"/>
<path d="M88.4929 220.011C88.6311 216.832 89.7369 206.576 93.0541 197.619C97.2007 186.424 99.9517 178.322 101.762 171.081C103.421 164.447 104.665 157.639 100.103 155.739C95.1274 153.666 81.4437 176.886 75.2238 197.619C70.2479 214.206 66.7924 251.248 65.6867 267.696" stroke="black"/>
<path d="M112.958 224.158C114.063 224.019 117.602 223.328 122.91 221.67C129.544 219.596 135.294 216.961 138.667 217.523C143.642 218.353 142.486 224.047 137.008 229.134C131.203 234.524 115.446 242.817 100.518 247.793" stroke="black"/>
<path d="M1 446C23.8062 433.422 75.3897 401.217 99.274 373.02C123.158 344.823 130.926 292.161 132.861 267.696C133 262.306 134.52 246.964 125.812 246.964C116.194 246.964 110.884 302.113 102.177 309.992C93.4688 317.87 93.4688 264.794 102.177 243.232C110.884 221.669 129.509 204.689 133.691 199.278C139.138 192.229 144.057 178.96 138.252 176.057C132.447 173.154 115.88 193.508 102.177 206.327C89.3222 218.352 85.1756 224.572 78.9558 233.694C73.3059 241.981 66.9307 258.989 64.8574 272.673C62.7841 286.356 60.9779 316.995 53.6616 335.286C44.5391 358.092 15.2366 373.02 1 383.386" stroke="black"/>
<path d="M37.0753 357.678C35.8312 368.044 37.8216 382.64 39.1485 389.606C41.281 400.802 44.9538 411.583 47.4416 416.974" stroke="black"/>
<path d="M232.794 190.57C231.135 185.318 228.398 173.652 230.721 169.008C233.043 164.364 256.568 165.414 268.04 166.52C259.47 166.244 241.17 163.949 236.526 156.983C231.882 150.017 236.526 141.088 239.429 137.494C236.526 142.332 229.145 152.173 222.842 152.836C216.539 153.5 208.606 140.673 205.427 134.177C209.158 140.811 216.125 155.573 214.134 161.544C212.144 167.515 201.695 179.789 196.719 185.18C202.939 179.789 216.622 169.008 221.598 169.008C226.574 169.008 231.135 183.383 232.794 190.57Z" stroke="black"/>
<path d="M148.618 236.597C144.969 231.289 130.788 231.621 124.154 232.45C131.064 230.239 143.251 229.721 146.96 224.157C149.448 220.425 143.228 203.701 139.911 195.546C142.813 202.457 149.945 216.693 155.253 218.352C160.561 220.011 172.392 215.449 177.644 212.962C172.53 216.002 161.97 223.245 160.643 227.889C159.317 232.533 171.425 243.093 177.644 247.793C173.083 244.752 162.883 238.836 158.57 239.5C154.982 240.052 150.379 247.724 147.581 253.39C147.086 254.589 146.582 255.651 146.13 256.501C146.525 255.596 147.016 254.534 147.581 253.39C149.661 248.349 151.566 240.885 148.618 236.597Z" fill="#FFFCF2"/>
<path d="M124.154 232.45C130.788 231.621 144.969 231.289 148.618 236.597C152.267 241.905 148.48 252.078 146.13 256.501C148.48 251.11 154.258 240.163 158.57 239.5C162.883 238.836 173.083 244.752 177.644 247.793C171.425 243.093 159.317 232.533 160.643 227.889C161.97 223.245 172.53 216.002 177.644 212.962C172.392 215.449 160.561 220.011 155.253 218.352C149.945 216.693 142.813 202.457 139.911 195.546C143.228 203.701 149.448 220.425 146.96 224.157C143.251 229.721 131.064 230.239 124.154 232.45Z" stroke="black"/>
<path d="M176.4 213.376C185.385 209.506 205.095 201.517 212.061 200.522M212.061 200.522C220.769 199.278 233.802 196.969 234.867 200.522C237.355 208.815 220.216 245.581 212.061 266.452C220.078 250.004 240.424 217.771 247.722 217.108C255.02 216.444 264.308 233.141 269.284 241.987C263.479 232.45 253.693 210.225 257.673 202.595C261.654 194.965 272.325 191.261 277.577 189.74C273.292 190.431 263.147 190.819 256.844 186.838C250.541 182.857 246.478 171.634 245.234 166.52C246.478 170.666 244.855 178.508 236.526 186.838C227.818 195.546 216.069 198.586 212.061 200.522Z" stroke="black"/>
<path d="M239.429 137.909C243.921 127.449 251.166 111.635 258.165 98.516M258.165 98.516C264.947 85.8035 271.498 75.6217 275.089 75.2952C282.387 74.6317 290.017 80.5475 292.919 83.5883C287.529 78.4742 276.748 69.4899 278.406 64.514C279.44 61.4146 297.757 54.424 306.603 51.245C297.481 53.7329 278.738 58.2942 276.748 56.6355C274.757 54.9769 272.325 40.1874 271.357 33C270.666 39.7728 269.284 54.3737 263.064 56.6355C258.165 58.4171 246.339 55.5298 239.429 54.9769C244.543 56.0826 254.545 60.5505 258.917 66.1727C264.723 73.6365 259.798 90.3611 258.165 98.516Z" stroke="black"/>
<defs>
<clipPath id="clip0_3163_1556">
<rect width="383" height="446" fill="white" transform="translate(3)"/>
</clipPath>
<clipPath id="clip1_3163_1556">
<rect width="383" height="446" fill="white" transform="translate(4)"/>
</clipPath>
</defs>
</svg>
