<svg width="383" height="446" viewBox="0 0 383 446" fill="none" xmlns="http://www.w3.org/2000/svg">
<g clip-path="url(#clip0_595_3925)">
<rect x="6.10352e-05" width="383" height="446" fill="#FFFCF2"/>
<circle cx="101.438" cy="173.078" r="76.8286" stroke="#E5E2D7" stroke-linecap="round"/>
<path d="M24.9029 168.319C29.3972 166.072 40.3686 161.022 48.2998 158.801C56.2309 156.581 133.295 145.186 170.836 139.767" stroke="#E5E2D7" stroke-linecap="round"/>
<circle cx="280.682" cy="173.078" r="76.8286" stroke="#E5E2D7" stroke-linecap="round"/>
<path d="M216.043 168.336V162.968C216.043 161.241 215.972 159.405 214.856 158.087C213.895 156.953 212.411 156.025 210.492 156.025C207.303 156.025 204.94 158.56 204.94 160.732V168.336C204.94 170.508 207.716 172.681 210.492 172.681C213.664 172.681 216.043 170.146 216.043 168.336Z" stroke="#E5E2D7" stroke-linecap="round"/>
<path d="M177.18 168.336V162.968C177.18 161.241 177.109 159.405 175.993 158.087C175.032 156.953 173.548 156.025 171.629 156.025C168.44 156.025 166.077 158.56 166.077 160.732V168.336C166.077 170.508 168.853 172.681 171.629 172.681C174.801 172.681 177.18 170.146 177.18 168.336Z" stroke="#E5E2D7" stroke-linecap="round"/>
<line x1="39.8465" y1="128.034" x2="175.361" y2="193.427" stroke="#E5E2D7" stroke-linecap="round"/>
<path d="M214.985 211.356L294.165 248.82" stroke="#E5E2D7" stroke-linecap="round"/>
<line x1="177.852" y1="185.147" x2="208.682" y2="200.563" stroke="#E5E2D7" stroke-linecap="round"/>
<path d="M29.662 114.387L43.9381 121.921" stroke="#E5E2D7" stroke-linecap="round"/>
<path d="M216.043 131.836L330.595 115.241M173.612 146.112L210.492 140.56" stroke="#E5E2D7" stroke-linecap="round"/>
<path d="M338.2 121.445L356.105 118.749" stroke="#E5E2D7" stroke-linecap="round"/>
<path d="M168.06 134.611C167.663 132.629 166.87 124.301 168.853 118.749C171.656 110.898 178.767 102.49 191.853 102.49C204.939 102.49 211.284 110.025 213.664 116.766C215.567 122.159 215.25 128.663 215.25 131.835" stroke="#E5E2D7" stroke-linecap="round"/>
<path d="M32.8338 207.975C30.0578 211.147 25.9338 222.251 30.0579 242.872C34.0233 262.699 53.058 292.838 65.7479 309.493" stroke="#E5E2D7" stroke-linecap="round"/>
<path d="M299.717 248.026C307.516 255.429 323.434 275.14 325.096 294.424C327.079 317.424 321.131 331.7 308.441 345.976C300.769 354.607 274.866 377.568 262.44 387.614" stroke="#E5E2D7" stroke-linecap="round"/>
</g>
<defs>
<clipPath id="clip0_595_3925">
<rect width="383" height="446" fill="white"/>
</clipPath>
</defs>
</svg>
