<svg width="383" height="446" viewBox="0 0 383 446" fill="none" xmlns="http://www.w3.org/2000/svg">
<g clip-path="url(#clip0_605_3988)">
<g clip-path="url(#clip1_605_3988)">
<rect x="0.0368195" width="383" height="446" fill="#FFFCF2"/>
<path d="M354.779 216.843C356.213 213.942 358.721 204.251 357.285 188.696C355.849 173.142 352.657 165.958 351.241 164.31" stroke="black" stroke-width="0.8" stroke-linecap="round"/>
<path d="M351.524 215.292C351.783 214.75 353.006 212.956 353.565 208.43C354.125 203.904 353.555 201.359 353.484 200.864" stroke="black" stroke-width="0.8" stroke-linecap="round"/>
<path d="M357.882 217.34C358.214 216.839 359.678 215.237 360.87 210.834C362.062 206.432 361.857 203.833 361.856 203.333" stroke="black" stroke-width="0.8" stroke-linecap="round"/>
<path d="M85.2532 105.803C88.1853 101.713 97.5049 89.8978 119.9 80.4883C142.295 71.0787 152.343 70.7557 162.031 71.3785" stroke="black" stroke-width="0.8" stroke-linecap="round"/>
<path d="M89.7627 109.134C90.3179 108.382 91.8836 105.392 97.6855 101.313C103.487 97.2336 107.396 96.1529 108.127 95.8888" stroke="black" stroke-width="0.8" stroke-linecap="round"/>
<path d="M82.3015 101.907C82.7453 101.085 83.8736 97.9036 89.0423 93.047C94.211 88.1905 97.9281 86.5694 98.6149 86.2049" stroke="black" stroke-width="0.8" stroke-linecap="round"/>
<path d="M299.55 53.0125C290.006 47.0228 281.565 41.6319 279.937 41.8098C277.039 42.1264 260.749 64.3495 250.004 78.1172C241.408 89.1313 226.61 111.381 220.285 121.129C221.934 124.006 228.552 131.58 241.831 138.855C255.111 146.131 271.918 152.297 278.902 154.541C278.902 154.541 281.388 153.193 286.029 148.106C290.67 143.019 341.743 78.5327 342.126 76.5069C342.508 74.4812 335.068 72.7061 321.199 65.7679C315.119 62.7265 306.998 57.6871 299.55 53.0125ZM299.55 53.0125C302.743 48.0715 309.485 38.1333 310.91 37.9087C312.691 37.6279 326.601 52.8425 330.587 58.5316C333.776 63.0828 337.874 68.2435 341.686 75.504" stroke="black" stroke-linecap="round"/>
<path d="M335.916 85.206C332.805 81.2042 323.824 73.6916 312.791 75.656C298.999 78.1116 296.351 86.2503 289.228 87.3735C282.105 88.4967 277.438 82.7629 273.195 82.7418C267.154 82.7117 262.795 86.8148 264.578 93.0854C265.839 97.5196 272.544 97.3046 272.442 101.111C272.34 104.918 259.217 114.287 257.06 123.753C256.151 127.738 256.453 131.717 258.535 134.891C261.123 138.835 263.457 140.011 265.641 141.221C268.832 142.988 274.494 144.784 278.442 145.538C282.391 146.291 286.698 146.421 287.639 146.179" stroke="black" stroke-linecap="round"/>
<path d="M297.525 91.7245C296.732 93.2272 295.809 97.1596 298.464 100.868C301.12 104.576 303.891 105.433 304.944 105.397" stroke="black" stroke-linecap="round"/>
<path d="M273.977 111.339C271.79 110.273 270.579 111.896 269.289 113.078C267.857 114.391 265.989 117.523 268.063 118.972C270.136 120.422 272.035 118.653 273.23 117.376C274.757 115.742 276.164 112.405 273.977 111.339Z" stroke="black" stroke-linecap="round"/>
<path d="M334.569 200.436C330.452 209.654 305.831 223.292 303.072 222.667C299.136 219.238 284.258 192.089 284.758 189.882C285.383 187.124 295.422 179.609 303.034 174.808C310.658 169.999 314.296 168.295 319.703 168.432C326.025 168.592 331.791 173.222 333.235 176.449C335.814 180.537 338.686 191.218 334.569 200.436Z" stroke="black" stroke-linecap="round"/>
<path d="M287.87 184.792C286.439 184.71 284.735 182.145 283.979 179.561C282.958 176.067 284.363 170.7 290.505 168.351C292.886 167.44 294.956 167.909 298.248 169.379C301.54 170.85 303.719 172.431 307.48 171.832" stroke="black" stroke-linecap="round"/>
<path d="M99.456 305.85C104.351 306.105 145.368 305.243 162.325 303.648C179.282 302.053 188.109 305.956 190.403 308.107C197.498 311.594 230.152 346.004 234.145 346.559C245.696 348.165 269.566 324.201 272.627 318.232C276.19 311.282 246.964 283.773 235.578 275.854C225.491 268.838 199.459 258.329 188.931 263.497C170.622 272.485 122.181 298.55 105.574 304.198C91.8131 308.878 67.14 309.952 54.7768 288.171C46.2556 273.159 39.9517 253.789 36.1692 233.514C33.1572 217.369 31.7439 200.651 32.0829 185.102M86.4181 224.121L133.593 185.575C119.136 165.644 94.3586 133.375 85.0992 123.414C75.8398 113.453 62.6081 116.613 57.1497 119.438C48.1687 123.423 39.3165 131.536 35.2073 144.742" stroke="black" stroke-linecap="round"/>
<path d="M12.6497 212C11.1497 219.5 9.64969 226 7.14969 233C5.46398 237.72 2.31636 246.167 1.14969 247.5" stroke="black" stroke-linecap="round"/>
<path d="M58.34 157.944C64.464 184.015 77.971 215.761 85.958 224.317" stroke="black" stroke-linecap="round"/>
<path d="M50.0262 278.05C82.0088 265.493 111.62 248.954 135.787 236.121M268.976 308.375C274.487 309.834 276.911 310.427 281.388 306.898C285.864 303.37 301.528 257.839 297.876 253.696C293.439 248.665 264.037 237.376 245.086 230.513C226.458 223.768 198.195 213.377 180.634 216.556C177.814 217.067 175.149 217.773 171.712 219.011" stroke="black" stroke-linecap="round"/>
<path d="M239.559 346.124C240.554 346.509 244.786 352.295 245.816 357.249C247.104 363.441 247.568 367.221 250.585 372.407C253.602 377.593 257.452 378.246 259 377.924C283.17 371.601 316.776 346.673 327.287 338.201C331.441 334.852 336.905 330.87 333.134 324.387C331.123 320.93 327.202 319.162 321.623 319.515C313.733 320.014 284.029 329.295 279.787 325.979C275.678 322.767 273.133 318.028 272.858 317.224" stroke="black" stroke-linecap="round"/>
<path d="M287.194 296.276C297.114 300.287 307.282 304.194 312.285 306.893C316.266 309.04 321.224 314.223 327.841 311.845C338.203 308.121 334.234 301.103 339.104 286.663C346.314 265.286 356.69 238.156 355.811 230.042C354.448 217.457 342.457 219.929 336.91 224.845C327.798 232.921 327.333 251.496 318.276 255.764C311.031 259.179 302.919 255.236 298.015 253.831" stroke="black" stroke-linecap="round"/>
<path d="M147.408 197.619C141.687 198.682 140.66 194.523 133.593 185.576L104.313 209.989C116.706 225.686 124.876 234.186 136.151 236.189C142.079 237.242 152.414 235.202 164.579 225.597C176.744 215.992 184.475 201.434 189.459 191.552C200.137 170.381 214.411 161.323 202.8 150.874C199.983 148.339 183.053 147.155 173.47 161.167C169.367 167.166 168.937 170.654 162.745 181.37C158.533 188.657 151.94 196.778 147.408 197.619Z" stroke="black" stroke-linecap="round"/>
<path d="M0.81825 393.749C8.30359 393.761 15.7182 392.3 22.6386 389.447C29.5591 386.595 35.8499 382.407 41.152 377.123C46.454 371.839 50.6634 365.563 53.5398 358.652C56.4162 351.741 57.9033 344.332 57.9161 336.847C57.929 329.361 56.4674 321.947 53.6148 315.026C50.7622 308.106 46.5744 301.815 41.2905 296.513C36.0067 291.211 29.7303 287.001 22.8197 284.125C15.909 281.249 8.49954 279.762 1.01421 279.749" stroke="black" stroke-linecap="round"/>
<line x1="20.8418" y1="393.294" x2="304.842" y2="393.301" stroke="black" stroke-linecap="round"/>
<path d="M222.528 223.097C218.421 224.938 213.103 228.436 215 234.322C217.332 241.555 226.275 242.026 230.303 241.874C232.74 242.32 237.804 244.273 238.559 248.514C239.504 253.816 241.722 258.325 248.665 258.125C255.608 257.926 259.277 251.519 261.399 250.198C263.522 248.877 266.861 248.565 268.615 245.706C270.019 243.419 268.756 240.008 266.85 238.838" stroke="black" stroke-linecap="round"/>
<path d="M35.2072 144.743C26.8805 157.058 19.6032 181.548 16.3946 192.923C13.1861 204.298 12.6474 210.135 12.5317 211.667C13.2629 212.067 15.4049 213.374 21.7964 212.856C28.188 212.338 31.6464 211.098 32.6123 210.79" stroke="black" stroke-linecap="round"/>
<path d="M20.2676 282.79C20.4088 282.602 21.4248 281.007 27.7474 271.608C34.0699 262.209 37.5217 249.485 38.4573 244.298" stroke="black" stroke-linecap="round"/>
</g>
</g>
<defs>
<clipPath id="clip0_605_3988">
<rect width="383" height="446" fill="white"/>
</clipPath>
<clipPath id="clip1_605_3988">
<rect width="383" height="446" fill="white"/>
</clipPath>
</defs>
</svg>
