<svg width="383" height="446" viewBox="0 0 383 446" fill="none" xmlns="http://www.w3.org/2000/svg">
<g clip-path="url(#clip0_595_3826)">
<path d="M60.1245 38V20.5455H61.7183V36.5682H70.0364V38H60.1245ZM78.6018 38.2727C77.3802 38.2727 76.3234 37.9886 75.4313 37.4205C74.5393 36.8466 73.8489 36.054 73.3603 35.0426C72.8774 34.0256 72.6359 32.8551 72.6359 31.5312C72.6359 30.2131 72.8774 29.0426 73.3603 28.0199C73.8489 26.9915 74.5222 26.1875 75.3802 25.608C76.2438 25.0227 77.241 24.7301 78.3717 24.7301C79.0819 24.7301 79.7666 24.8608 80.4257 25.1222C81.0847 25.3778 81.6757 25.7727 82.1984 26.3068C82.7268 26.8352 83.1444 27.5028 83.4512 28.3097C83.758 29.1108 83.9114 30.0597 83.9114 31.1562V31.9062H73.6842V30.5682H82.3603C82.3603 29.7273 82.1899 28.9716 81.8489 28.3011C81.5137 27.625 81.045 27.0909 80.4427 26.6989C79.8461 26.3068 79.1558 26.1108 78.3717 26.1108C77.5421 26.1108 76.812 26.3324 76.1813 26.7756C75.5507 27.2187 75.0563 27.804 74.6984 28.5312C74.3461 29.2585 74.1671 30.054 74.1614 30.9176V31.7188C74.1614 32.7585 74.3404 33.6676 74.6984 34.446C75.062 35.2187 75.5762 35.8182 76.241 36.2443C76.9058 36.6705 77.6927 36.8835 78.6018 36.8835C79.2211 36.8835 79.7637 36.7869 80.2296 36.5938C80.7012 36.4006 81.0961 36.142 81.4143 35.8182C81.7382 35.4886 81.9825 35.1278 82.1472 34.7358L83.5876 35.2045C83.3887 35.7557 83.062 36.2642 82.6075 36.7301C82.1586 37.196 81.5961 37.571 80.92 37.8551C80.2495 38.1335 79.4768 38.2727 78.6018 38.2727ZM87.2545 42.9091V24.9091H88.7289V27.4062H88.9079C89.0897 27.0142 89.3397 26.6136 89.6579 26.2045C89.9761 25.7898 90.3965 25.4403 90.9193 25.1562C91.4477 24.8722 92.1124 24.7301 92.9136 24.7301C93.9931 24.7301 94.9363 25.0142 95.7431 25.5824C96.5556 26.1449 97.1863 26.9347 97.6352 27.9517C98.0897 28.9631 98.317 30.142 98.317 31.4886C98.317 32.8409 98.0897 34.0256 97.6352 35.0426C97.1863 36.0597 96.5556 36.8523 95.7431 37.4205C94.9363 37.9886 93.9988 38.2727 92.9306 38.2727C92.1409 38.2727 91.4789 38.1307 90.9448 37.8466C90.4164 37.5625 89.9874 37.2131 89.6579 36.7983C89.334 36.3778 89.084 35.9687 88.9079 35.571H88.7715V42.9091H87.2545ZM88.7545 31.4631C88.7545 32.5199 88.9107 33.4574 89.2232 34.2756C89.5414 35.0881 89.996 35.7273 90.5869 36.1932C91.1835 36.6534 91.9051 36.8835 92.7516 36.8835C93.621 36.8835 94.3539 36.6449 94.9505 36.1676C95.5528 35.6847 96.0102 35.0341 96.3227 34.2159C96.6409 33.3977 96.7999 32.4801 96.7999 31.4631C96.7999 30.4574 96.6437 29.5511 96.3312 28.7443C96.0244 27.9375 95.5698 27.2983 94.9676 26.8267C94.3653 26.3494 93.6266 26.1108 92.7516 26.1108C91.8994 26.1108 91.1749 26.3409 90.5784 26.8011C89.9818 27.2557 89.5272 27.8864 89.2147 28.6932C88.9079 29.4943 88.7545 30.4176 88.7545 31.4631ZM105.301 38.2983C104.512 38.2983 103.79 38.1449 103.137 37.8381C102.483 37.5256 101.963 37.0767 101.577 36.4915C101.191 35.9006 100.997 35.1847 100.997 34.3438C100.997 33.696 101.12 33.1506 101.364 32.7074C101.608 32.2642 101.955 31.9006 102.404 31.6165C102.853 31.3324 103.384 31.108 103.997 30.9432C104.611 30.7784 105.287 30.6506 106.026 30.5597C106.759 30.4687 107.378 30.3892 107.884 30.321C108.395 30.2528 108.784 30.1449 109.051 29.9972C109.318 29.8494 109.452 29.6108 109.452 29.2812V28.9744C109.452 28.0824 109.185 27.3807 108.651 26.8693C108.122 26.3523 107.361 26.0938 106.367 26.0938C105.424 26.0938 104.654 26.3011 104.057 26.7159C103.466 27.1307 103.051 27.6193 102.813 28.1818L101.372 27.6619C101.668 26.946 102.077 26.375 102.6 25.9489C103.122 25.517 103.708 25.2074 104.355 25.0199C105.003 24.8267 105.659 24.7301 106.324 24.7301C106.824 24.7301 107.344 24.7955 107.884 24.9261C108.429 25.0568 108.935 25.2841 109.401 25.608C109.867 25.9261 110.245 26.3722 110.534 26.946C110.824 27.5142 110.969 28.2358 110.969 29.1108V38H109.452V35.929H109.358C109.176 36.3153 108.906 36.6903 108.549 37.054C108.191 37.4176 107.742 37.7159 107.202 37.9489C106.662 38.1818 106.029 38.2983 105.301 38.2983ZM105.506 36.9091C106.313 36.9091 107.012 36.7301 107.603 36.3722C108.193 36.0142 108.648 35.5398 108.966 34.9489C109.29 34.3523 109.452 33.696 109.452 32.9801V31.0881C109.338 31.196 109.148 31.2926 108.881 31.3778C108.62 31.4631 108.316 31.5398 107.969 31.608C107.628 31.6705 107.287 31.7244 106.946 31.7699C106.605 31.8153 106.299 31.8551 106.026 31.8892C105.287 31.9801 104.656 32.1222 104.134 32.3153C103.611 32.5085 103.21 32.7756 102.932 33.1165C102.654 33.4517 102.514 33.8835 102.514 34.4119C102.514 35.2074 102.799 35.8239 103.367 36.2614C103.935 36.6932 104.648 36.9091 105.506 36.9091ZM116.522 20.5455V38H115.004V20.5455H116.522ZM121.746 38.1278C121.411 38.1278 121.121 38.0085 120.877 37.7699C120.638 37.5256 120.519 37.2358 120.519 36.9006C120.519 36.5597 120.638 36.2699 120.877 36.0312C121.121 35.7926 121.411 35.6733 121.746 35.6733C122.087 35.6733 122.377 35.7926 122.615 36.0312C122.854 36.2699 122.973 36.5597 122.973 36.9006C122.973 37.1222 122.916 37.3267 122.803 37.5142C122.695 37.7017 122.547 37.8523 122.36 37.9659C122.178 38.0739 121.973 38.1278 121.746 38.1278ZM130.637 38.2983C129.848 38.2983 129.126 38.1449 128.473 37.8381C127.819 37.5256 127.299 37.0767 126.913 36.4915C126.527 35.9006 126.333 35.1847 126.333 34.3438C126.333 33.696 126.455 33.1506 126.7 32.7074C126.944 32.2642 127.291 31.9006 127.74 31.6165C128.188 31.3324 128.72 31.108 129.333 30.9432C129.947 30.7784 130.623 30.6506 131.362 30.5597C132.095 30.4687 132.714 30.3892 133.22 30.321C133.731 30.2528 134.12 30.1449 134.387 29.9972C134.654 29.8494 134.788 29.6108 134.788 29.2812V28.9744C134.788 28.0824 134.521 27.3807 133.987 26.8693C133.458 26.3523 132.697 26.0938 131.703 26.0938C130.759 26.0938 129.99 26.3011 129.393 26.7159C128.802 27.1307 128.387 27.6193 128.149 28.1818L126.708 27.6619C127.004 26.946 127.413 26.375 127.936 25.9489C128.458 25.517 129.044 25.2074 129.691 25.0199C130.339 24.8267 130.995 24.7301 131.66 24.7301C132.16 24.7301 132.68 24.7955 133.22 24.9261C133.765 25.0568 134.271 25.2841 134.737 25.608C135.203 25.9261 135.58 26.3722 135.87 26.946C136.16 27.5142 136.305 28.2358 136.305 29.1108V38H134.788V35.929H134.694C134.512 36.3153 134.242 36.6903 133.884 37.054C133.527 37.4176 133.078 37.7159 132.538 37.9489C131.998 38.1818 131.365 38.2983 130.637 38.2983ZM130.842 36.9091C131.649 36.9091 132.348 36.7301 132.938 36.3722C133.529 36.0142 133.984 35.5398 134.302 34.9489C134.626 34.3523 134.788 33.696 134.788 32.9801V31.0881C134.674 31.196 134.484 31.2926 134.217 31.3778C133.955 31.4631 133.652 31.5398 133.305 31.608C132.964 31.6705 132.623 31.7244 132.282 31.7699C131.941 31.8153 131.634 31.8551 131.362 31.8892C130.623 31.9801 129.992 32.1222 129.47 32.3153C128.947 32.5085 128.546 32.7756 128.268 33.1165C127.99 33.4517 127.85 33.8835 127.85 34.4119C127.85 35.2074 128.134 35.8239 128.703 36.2614C129.271 36.6932 129.984 36.9091 130.842 36.9091ZM140.357 38V24.9091H141.883V38H140.357ZM141.133 22.6591C140.821 22.6591 140.553 22.554 140.332 22.3438C140.11 22.1278 140 21.8693 140 21.5682C140 21.267 140.11 21.0114 140.332 20.8011C140.553 20.5852 140.821 20.4773 141.133 20.4773C141.446 20.4773 141.713 20.5852 141.934 20.8011C142.156 21.0114 142.267 21.267 142.267 21.5682C142.267 21.8693 142.156 22.1278 141.934 22.3438C141.713 22.554 141.446 22.6591 141.133 22.6591Z" fill="#FFFCF2"/>
<rect width="383" height="446" fill="#FFFCF2"/>
<path d="M145.563 203.945C146.65 203.408 149.369 203.408 151.543 205.555C154.262 208.239 159.155 215.216 161.873 221.12L163.504 224.877M150.456 220.046C152.087 221.657 152.631 222.193 153.718 223.803C155.083 225.824 155.349 226.487 155.893 227.56" stroke="#E5E2D7" stroke-linecap="round"/>
<path d="M144.476 216.29C145.563 218.436 145.019 220.583 143.932 222.193C142.908 223.709 141.576 224.161 141.214 224.34" stroke="#E5E2D7" stroke-linecap="round"/>
<path d="M72.1667 366.03C69.6295 374.081 63.5766 394.798 59.6621 413.26C55.7476 431.723 54.769 442.779 54.769 446" stroke="#E5E2D7" stroke-linecap="round"/>
<path d="M83.5839 238.831C66.7299 258.689 35.0879 306.027 43.3518 336.512C51.6157 366.997 77.241 368.535 90.108 364.957C98.8068 362.538 109.898 359.161 119.467 344.562C129.035 329.964 142.301 300.194 147.738 287.135C150.275 286.956 157.306 285.632 165.135 281.768C167.854 280.336 173.726 277.259 175.465 276.401C177.205 275.542 180.585 278.122 182.533 279.084C187.97 281.768 200.474 284.451 204.824 277.474C209.668 269.703 204.28 262.983 202.649 261.373C201.319 260.06 197.756 258.152 195.038 257.616C193.43 257.298 188.514 257.079 186.339 257.616" stroke="#E5E2D7" stroke-linecap="round"/>
<path d="M71.623 304.309C77.241 296.616 92.0652 277.903 106.418 264.593C124.36 247.955 142.301 232.927 158.068 227.023C173.834 221.12 181.989 225.413 183.62 226.487C184.925 227.345 186.701 229.349 187.426 230.244M176.009 234.001C177.821 232.748 182.968 230.351 189.057 230.781C196.669 231.317 200.474 235.074 201.562 237.758C202.432 239.905 202.287 244.019 202.106 245.808" stroke="#E5E2D7" stroke-linecap="round"/>
<path d="M183.077 244.198C186.339 242.946 194.711 241.3 199.931 244.735C205.15 248.17 205.476 250.639 205.911 252.786C206.274 254.575 205.911 258.153 203.193 260.836" stroke="#E5E2D7" stroke-linecap="round"/>
<path d="M229.833 364.421C231.249 363.462 233.139 361.909 235.27 359.986L229.833 364.421Z" fill="#FFFCF2"/>
<path d="M114.03 183.551C112.942 181.404 110.768 174.856 110.768 165.839C110.768 156.823 111.855 148.486 112.399 145.444C106.781 130.596 98.5893 100.146 110.768 97.1409C125.991 93.3839 142.845 111.632 146.65 113.242C150.456 114.852 151.544 110.022 169.485 106.802C187.426 103.581 204.28 104.655 207.542 103.581C210.804 102.508 226.571 72.4523 241.25 74.0624C253.441 75.3997 256.473 105.192 256.473 118.073C256.473 130.463 267.191 135.784 270.609 153.495C274.958 176.037 273.871 198.579 279.308 215.753C284.744 232.928 304.317 260.3 317.365 309.677C330.413 359.054 338.025 396.623 340.743 442.78V445.464M131.971 322.558C139.039 337.943 158.829 369.68 181.446 373.545C195.78 375.994 208.396 373.614 217.328 370.449M254.299 339.195C251.911 342.562 248.489 346.588 244.875 350.466M216.785 301.089C218.235 299.837 221.025 296.366 222.765 290.355C224.94 282.841 228.202 273.717 233.639 267.813C237.445 263.681 241.25 259.942 242.881 258.153M229.833 364.421C231.249 363.462 233.139 361.909 235.27 359.986L229.833 364.421Z" stroke="#E5E2D7" stroke-linecap="round"/>
<path d="M95.5447 224.34C93.5512 224.34 89.5643 226.487 87.3895 229.171C84.0444 233.298 81.409 241.515 85.2148 252.786C88.2594 261.802 94.8198 270.139 97.7194 273.181" stroke="#E5E2D7" stroke-linecap="round"/>
<path d="M114.03 214.68C113.848 213.964 112.725 212.425 109.68 211.996C105.875 211.459 102.897 213.326 99.8941 216.29C98.2629 217.9 94.458 224.34 93.914 232.928C93.6425 237.213 94.4574 239.905 95.0011 241.515M106.962 237.221C105.875 233.464 106.962 227.024 109.137 222.193C112.321 215.12 116.313 212.426 121.098 211.996C125.882 211.567 130.34 215.216 130.34 219.51M121.098 235.074C121.098 228.634 123.272 223.804 127.622 221.12C132.368 218.191 136.502 220.583 137.952 221.657C139.401 222.73 141.322 224.662 141.757 228.097C142.192 231.532 141.939 234.001 141.757 235.074" stroke="#E5E2D7" stroke-linecap="round"/>
<path d="M110.224 211.996C107.143 205.735 105.33 192.138 113.486 184.624C121.88 176.89 130.34 179.257 134.146 181.941C137.952 184.624 145.019 192.138 143.932 200.189M152.631 286.599C152.993 290.177 157.198 299.48 171.116 308.067C188.513 318.801 186.882 313.971 199.387 324.168C209.391 332.326 214.066 349.036 215.154 356.37C216.06 356.728 218.633 357.229 221.678 356.37C224.722 355.512 226.933 354.224 227.658 353.687C227.296 347.604 224.614 332.863 216.785 322.558C206.998 309.677 200.474 301.09 185.251 291.429M217.872 357.444C218.053 358.875 218.09 362.382 216.785 364.958C215.48 367.534 216.966 369.967 217.872 370.862C221.678 373.545 228.746 374.619 234.726 375.155C239.058 375.544 245.056 376.229 246.143 373.545C247.013 371.398 245.056 370.146 243.969 369.788C238.169 367.999 227.658 364.421 226.571 360.664C225.809 358.033 226.027 355.736 226.027 354.663" stroke="#E5E2D7" stroke-linecap="round"/>
<path d="M126.534 188.381C127.078 189.096 127.948 191.064 127.078 193.211C125.991 195.895 121.098 198.578 120.01 204.482C119.14 209.205 119.285 211.459 119.467 211.996" stroke="#E5E2D7" stroke-linecap="round"/>
<path d="M138.495 221.657C139.22 221.836 141.214 221.442 143.388 218.436C146.107 214.679 146.65 205.555 143.932 200.725C141.214 195.895 140.126 194.285 136.864 191.601" stroke="#E5E2D7" stroke-linecap="round"/>
<path d="M126.534 188.381C126.716 188.918 127.839 190.206 130.884 191.064C133.928 191.923 136.139 191.78 136.864 191.601" stroke="#E5E2D7" stroke-linecap="round"/>
<path d="M194.494 282.305C200.837 286.062 212.327 295.186 218.416 303.773C224.505 312.36 235.089 333.829 239.619 343.489C239.619 344.384 238.858 346.387 235.813 347.246C232.769 348.105 230.92 347.783 229.289 347.783C228.202 346.173 225.919 341.342 225.484 341.342M231.464 348.32C231.827 349.035 232.443 351.11 232.008 353.687C231.464 356.907 232.008 358.517 233.639 359.59C235.27 360.664 244.512 360.664 249.949 360.127C255.386 359.59 259.735 359.054 261.366 357.444C262.997 355.833 262.997 353.687 261.366 352.613C259.735 351.54 246.41 351.698 243.425 349.93C240.707 348.32 240.163 345.278 239.619 344.563" stroke="#E5E2D7" stroke-linecap="round"/>
</g>
<defs>
<clipPath id="clip0_595_3826">
<rect width="383" height="446" fill="white"/>
</clipPath>
</defs>
</svg>
