<svg width="383" height="446" viewBox="0 0 383 446" fill="none" xmlns="http://www.w3.org/2000/svg">
<g clip-path="url(#clip0_605_4039)">
<rect width="383" height="446" fill="#FFFCF2"/>
<path d="M0.960693 -1.35547L383.961 -1.45111L384.072 445.149L1.07222 445.245L0.960693 -1.35547Z" fill="#FFFCF2"/>
<path d="M73.9921 120.401C72.7571 113.296 66.1183 109.132 59.9659 111.805C54.3263 114.255 53.9905 120.497 53.8294 123.493L53.8294 123.493C53.6228 127.333 55.3281 134.136 59.4498 138.93C63.5716 143.723 68.0284 144.059 70.3589 146.9C73.1938 150.356 69.8834 155.193 71.3804 159.405C73.2225 164.588 79.8981 166.638 80.9993 165.849C82.1005 165.06 77.9929 163.296 76.7638 159.666C75.4433 155.766 79.3771 154.557 79.5 150.351C79.6744 144.379 74.7022 145.846 72.7071 138.549C70.7121 131.251 75.1642 127.144 73.9921 120.401Z" fill="#FFFCF2" stroke="black" stroke-width="0.8" stroke-linecap="round"/>
<path d="M136.401 189.525C136.612 188.701 133.619 185.929 128.627 185.1C119.694 183.618 112.489 187.236 109.144 193.566C104.128 203.057 107.205 210.987 107.205 210.987" stroke="black" stroke-width="0.8" stroke-linecap="round"/>
<path d="M151.292 219.869C154.679 222.054 157.275 223.459 159.93 226.843C161.804 229.233 163.19 231.391 163.582 233.415M143.077 232.946C150.014 234.321 156.093 233.012 160.586 233.254C165.095 233.496 168.514 234.816 170.902 236.947" stroke="black" stroke-linecap="round"/>
<path d="M185.125 336.038L182.08 338.68C182.646 339.585 184.406 341.72 186.917 343.023C189.427 344.326 191.313 345.092 191.943 345.312C192.533 344.636 193.812 343 194.208 341.867" stroke="black" stroke-linecap="round"/>
<path d="M182.546 339.373C181.901 340.207 179.814 342.336 176.623 344.186C172.635 346.498 171.502 348.22 170.982 351.217C170.449 354.291 175.017 356.338 178.344 355.914C181.92 355.458 185.187 353.012 187.122 350.511C188.09 349.261 190.025 346.76 190.686 344.872" stroke="black" stroke-linecap="round"/>
<path d="M204.757 334.436C205.127 334.389 207.919 334.484 211.742 332.644C217.241 329.997 221.416 330.736 222.95 333.92C224.483 337.105 221.58 340.858 216.341 342.202C212.151 343.277 203.363 342.955 200.06 341.798" stroke="black" stroke-linecap="round"/>
<path d="M173.424 314.987C172.904 317.984 174.65 324.288 179.981 331.057C184.015 336.179 194.208 341.867 197.983 343.189C198.566 343.039 201.462 341.121 202.633 338.989C203.803 336.857 204.222 334.955 204.285 334.271C203.184 333.885 200.26 332.755 197.372 331.32C194.484 329.885 190.136 325.255 189.255 324.24" stroke="black" stroke-linecap="round"/>
<path d="M161.84 296.629C161.132 298.146 162.835 306.194 167.95 310.952C174.343 316.9 180.054 315.721 186.944 320.252C189.527 321.951 190.53 323.627 190.813 325.845M198.787 331.816C199.283 330.4 201.408 325.846 200.37 321.245C199.332 316.644 198.656 316.054 198.554 315.841" stroke="black" stroke-linecap="round"/>
<path d="M159.851 293.434C159.851 293.434 160.27 294.96 162.16 297.064C167.506 303.016 175.836 303.464 182.887 306.117C191.791 309.467 196.203 312.723 198.554 315.841C199.639 317.281 199.758 309.376 196.667 304.585C193.984 300.426 193.173 299.171 190.2 297.07" stroke="black" stroke-linecap="round"/>
<path d="M72.9394 365.094C65.4679 372.477 55.3996 392.091 54.3854 410.937C53.3644 429.909 55.5609 441.848 55.5617 445.068M145.901 357.277C149.049 357.781 154.531 358.929 160.736 360.735M198.195 381.12C197.461 379.942 194.818 377.229 189.372 373.636" stroke="black" stroke-linecap="round"/>
<path d="M84.2582 237.292C58.3112 244.896 29.8667 297.151 33.4882 328.528C37.1097 359.905 62.2183 365.251 75.4753 363.633C84.4377 362.539 95.9086 360.855 107.549 347.848C119.189 334.842 136.749 307.386 144.075 295.283C146.61 295.485 153.76 295.226 162.078 292.573C164.98 291.564 171.245 289.397 173.094 288.808C174.942 288.218 177.899 291.275 179.682 292.516C183.697 295.312 192.399 299.155 198.228 296.751C209.494 292.105 203.588 279.841 202.216 278.006C201.097 276.509 197.858 274.091 195.25 273.155C193.708 272.601 188.879 271.65 186.649 271.856" stroke="black" stroke-linecap="round"/>
<path d="M66.0467 301.884C72.75 295.116 90.2011 278.825 106.38 267.806C126.604 254.032 146.587 241.851 163.058 238.366C179.529 234.882 186.952 240.344 188.405 241.649C189.567 242.693 191.024 244.94 191.607 245.932M179.757 247.943C181.736 246.975 187.183 245.373 193.14 246.706C200.586 248.373 203.788 252.656 204.463 255.472C205.003 257.724 204.516 261.034 204.07 262.776" stroke="black" stroke-linecap="round"/>
<path d="M185.427 258.1C188.839 257.349 197.364 256.971 202.012 261.147C206.66 265.322 206.614 267.812 206.724 270C206.815 271.823 205.923 275.307 202.834 277.554" stroke="black" stroke-linecap="round"/>
<path d="M96.2819 223.399C94.2884 223.4 90.3021 225.548 88.1279 228.232C84.7838 232.36 82.1505 240.577 85.9591 251.847C89.0059 260.863 95.5684 269.198 98.4688 272.239" stroke="black" stroke-linecap="round"/>
<path d="M114.765 213.734C114.583 213.019 113.459 211.48 110.414 211.052C106.609 210.516 103.631 212.383 100.629 215.348C98.9985 216.958 95.1952 223.4 94.6534 231.987C94.383 236.272 95.1985 238.964 95.7426 240.574M107.702 236.278C106.614 232.521 107.7 226.08 109.873 221.249C113.056 214.175 117.047 211.479 121.832 211.049C126.616 210.618 131.075 214.267 131.076 218.56M121.838 234.127C121.836 227.687 124.009 222.856 128.358 220.171C133.104 217.241 137.238 219.632 138.688 220.705C140.138 221.778 142.06 223.71 142.495 227.145C142.931 230.58 142.678 233.049 142.497 234.122C142.286 235.047 142.136 237.412 143.227 239.474C144.317 241.535 144.483 244.048 144.429 245.046" stroke="black" stroke-linecap="round"/>
<path d="M129.963 188.182C130.302 189.202 130.482 191.317 130.194 193.201C129.834 195.557 127.915 196.134 127.556 201.315C127.269 205.461 129.891 207.608 129.951 208.079C129.102 207.502 127.444 207.074 126.436 208.375C125.83 209.157 125.937 210.975 126.204 211.514" stroke="black" stroke-linecap="round"/>
<path d="M141.805 219.364C147.485 216.165 147.086 206.15 145.011 201.01C143.86 198.161 140.856 193.333 137.593 190.65C135.603 188.856 132.46 188.317 129.963 188.183" stroke="black" stroke-linecap="round"/>
<path d="M146.701 212.12C148.226 211.7 151.423 212.136 154.137 213.521C158.329 215.661 163.612 223.543 162.71 231.005" stroke="black" stroke-linecap="round"/>
<path d="M83.5529 217.811C81.2652 218.477 79.7127 219.413 78.0278 222.809C75.9906 226.915 77.2629 230.489 78.0043 231.244" stroke="black" stroke-width="0.8" stroke-linecap="round"/>
<path d="M73.8292 224.675C73.5199 225.519 73.1326 228.709 74.255 231.499C75.3774 234.289 76.8594 234.769 77.4354 235.062" stroke="black" stroke-width="0.8" stroke-linecap="round"/>
<path d="M135.079 195.467C135.568 195.678 136.523 196.546 136.969 197.571C137.396 198.555 137.347 199.854 137.307 200.594" stroke="black" stroke-width="0.8" stroke-linecap="round"/>
<path d="M204.862 275.831C205.519 276.032 206.9 277.041 207.17 279.459C207.441 281.877 207.14 283.129 206.956 283.453C206.667 282.603 205.692 280.881 204.094 280.796" stroke="black" stroke-width="0.8" stroke-linecap="round"/>
<path d="M157.816 191.679C158.472 191.881 159.87 192.59 160.205 193.81" stroke="black" stroke-linecap="round"/>
<path d="M159.316 195.525C159.823 195.99 160.779 197.231 160.558 198.477" stroke="black" stroke-linecap="round"/>
<path d="M76.8056 193.328C80.1162 192.305 83.9629 191.261 90.1494 190.67C96.1169 190.1 106.145 190.711 107.78 190.99" stroke="black" stroke-width="0.5" stroke-linecap="round"/>
<path d="M69.9027 202.855C73.6643 201.169 78.0951 199.368 85.6726 197.662C92.9819 196.016 105.916 194.965 108.099 194.99" stroke="black" stroke-width="0.5" stroke-linecap="round"/>
<path d="M196.26 187.507L201.142 192.322L200.825 185.979" stroke="black" stroke-linecap="round"/>
<path d="M258.262 182.718C262.457 181.038 274.06 177.768 286.913 178.131C299.766 178.494 306.874 180.905 310.161 181.613" stroke="black" stroke-width="0.5" stroke-linecap="round"/>
<path d="M253.153 187.956C258.271 186.498 274.94 183.914 289.777 185.322C303.652 186.638 310.33 189.928 314.949 192.159" stroke="black" stroke-width="0.5" stroke-linecap="round"/>
<path d="M256.742 191.89C260.184 190.984 273.228 189.315 283.437 190.598C293.647 191.881 297.738 193.941 300.311 194.722" stroke="black" stroke-width="0.5" stroke-linecap="round"/>
<path d="M201.635 158.986C202.688 158.041 202.768 156.542 207.922 153.815C212.045 151.634 217.421 150.989 219.594 150.939" stroke="black" stroke-linecap="round"/>
<path d="M215.343 257.864C215.298 258.696 214.882 260.843 213.576 262.776C212.27 264.709 210.928 265.471 210.419 265.611" stroke="black" stroke-width="0.8" stroke-linecap="round"/>
<path d="M138.785 173.128C136.314 170.868 134.834 167.075 134.058 164.333L171.881 171.518C170.339 174.278 162.377 179.441 151.079 177.295C149.964 177.083 148.609 176.661 147.638 176.108" stroke="black" stroke-linecap="round"/>
<path d="M236.396 160.181L199.929 172.525C203.365 176.566 209.132 179.44 220.025 175.752C230.917 172.065 237.457 165.066 236.396 160.181Z" stroke="black" stroke-linecap="round"/>
<path d="M107.302 181.269C105.457 178.345 104.308 171.774 104.577 166.781C104.847 161.764 106.419 150.858 114.933 138.297C113.956 119.217 123.724 84.4864 128.004 84.7169C132.285 84.9473 147.215 105.984 148.498 110.059M256.544 121.412C257.271 107.9 255.644 85.5751 249.758 83.2555C243.873 80.9359 211.149 106.579 207.887 107.653C204.625 108.728 193.092 103.446 169.689 105.597C156.756 106.786 151.102 108.196 145.395 111.895M249.8 116.476C276.871 134.491 280.165 155.699 281.622 175.806C283.08 195.914 276.722 205.629 279.539 214.521C281.926 222.056 295.61 230.544 302.32 242.015C310.903 256.687 321.466 275.838 327.662 301.462C336.25 336.974 337.5 384.324 337.5 402C337.5 419.676 334.85 429.373 327.5 445.001M207.954 301.818C213.269 296.095 215.455 292.703 219.299 286.405C221.283 283.155 226.421 272.957 231.857 267.052C235.661 262.919 238.224 260.385 243.123 256.93M207.954 301.818C200.43 300.211 197.631 298.256 195.687 297.151M207.954 301.818C209.277 302.056 213.587 303.223 214.364 303.665M241.5 357.697C236.265 361.922 227.186 367.801 218.253 370.967C209.321 374.134 196.051 374.783 181.717 372.337C159.099 368.479 139.301 336.746 132.229 321.362L130.071 316.154M109.397 179.558C100.56 185.592 103.142 202.756 106.003 205.414" stroke="black" stroke-linecap="round"/>
<path d="M141.091 223.324C141.24 223.666 142.719 224.713 145.558 224.065C147.332 223.66 148.135 222.701 148.215 221.204C148.28 220.005 146.852 218.627 143.357 218.439" stroke="black" stroke-linecap="round"/>
<path d="M209.942 246.557C210.581 247.092 213.112 250.933 212.454 255.705C212.078 258.436 210.661 261.116 209.083 262.534" stroke="black" stroke-width="0.8" stroke-linecap="round"/>
<path d="M134.42 197.828C134.907 197.706 136.152 197.561 137.191 197.637C138.231 197.713 138.885 197.977 139.471 198.393" stroke="black" stroke-width="0.8" stroke-linecap="round"/>
<path d="M202.115 294.415C202.664 295.162 203.03 295.833 203.029 297.391C203.029 298.355 202.478 299.76 202.294 300.203" stroke="black" stroke-width="0.8" stroke-linecap="round"/>
<path d="M134.818 172.413C138.137 172.759 146.026 174.418 151.025 178.292C156.024 182.167 157.814 185.501 158.084 186.684" stroke="black" stroke-linecap="round"/>
<path d="M113.461 188.279C108.237 187.141 100.168 185.736 89.0845 186.206C78.0009 186.676 72.6056 188.163 69.8354 188.946" stroke="black" stroke-width="0.5" stroke-linecap="round"/>
<path d="M160.99 151.289C162.214 153.358 164.228 155.704 166.686 157.103C168.63 158.21 172.264 158.906 172.597 158.924" stroke="black" stroke-linecap="round"/>
<path d="M169.149 185.778C172.064 187.437 180.728 190.206 192.062 188.012C203.397 185.818 209.369 182.768 210.939 181.517" stroke="black" stroke-linecap="round"/>
<path d="M209.387 182.435C210.009 189.478 205.318 196.637 197.935 199.845C188.706 203.854 181.244 202.952 177.588 205.76C176.001 206.978 176.873 209.727 177.319 210.753" stroke="black" stroke-linecap="round"/>
<path d="M177.503 188.73C179.446 189.836 182.614 191.528 183.173 196.069C183.733 200.61 183.091 202.769 182.715 203.532" stroke="black" stroke-linecap="round"/>
</g>
<defs>
<clipPath id="clip0_605_4039">
<rect width="383" height="446" fill="white"/>
</clipPath>
</defs>
</svg>
