<svg width="383" height="446" viewBox="0 0 383 446" fill="none" xmlns="http://www.w3.org/2000/svg">
<g clip-path="url(#clip0_595_3862)">
<path d="M60.1245 38V20.5455H61.7183V36.5682H70.0364V38H60.1245ZM78.6018 38.2727C77.3802 38.2727 76.3234 37.9886 75.4313 37.4205C74.5393 36.8466 73.8489 36.054 73.3603 35.0426C72.8774 34.0256 72.6359 32.8551 72.6359 31.5312C72.6359 30.2131 72.8774 29.0426 73.3603 28.0199C73.8489 26.9915 74.5222 26.1875 75.3802 25.608C76.2438 25.0227 77.241 24.7301 78.3717 24.7301C79.0819 24.7301 79.7666 24.8608 80.4257 25.1222C81.0847 25.3778 81.6757 25.7727 82.1984 26.3068C82.7268 26.8352 83.1444 27.5028 83.4512 28.3097C83.758 29.1108 83.9114 30.0597 83.9114 31.1562V31.9062H73.6842V30.5682H82.3603C82.3603 29.7273 82.1899 28.9716 81.8489 28.3011C81.5137 27.625 81.045 27.0909 80.4427 26.6989C79.8461 26.3068 79.1558 26.1108 78.3717 26.1108C77.5421 26.1108 76.812 26.3324 76.1813 26.7756C75.5507 27.2187 75.0563 27.804 74.6984 28.5312C74.3461 29.2585 74.1671 30.054 74.1614 30.9176V31.7188C74.1614 32.7585 74.3404 33.6676 74.6984 34.446C75.062 35.2187 75.5762 35.8182 76.241 36.2443C76.9058 36.6705 77.6927 36.8835 78.6018 36.8835C79.2211 36.8835 79.7637 36.7869 80.2296 36.5938C80.7012 36.4006 81.0961 36.142 81.4143 35.8182C81.7382 35.4886 81.9825 35.1278 82.1472 34.7358L83.5876 35.2045C83.3887 35.7557 83.062 36.2642 82.6075 36.7301C82.1586 37.196 81.5961 37.571 80.92 37.8551C80.2495 38.1335 79.4768 38.2727 78.6018 38.2727ZM87.2545 42.9091V24.9091H88.7289V27.4062H88.9079C89.0897 27.0142 89.3397 26.6136 89.6579 26.2045C89.9761 25.7898 90.3965 25.4403 90.9193 25.1562C91.4477 24.8722 92.1124 24.7301 92.9136 24.7301C93.9931 24.7301 94.9363 25.0142 95.7431 25.5824C96.5556 26.1449 97.1863 26.9347 97.6352 27.9517C98.0897 28.9631 98.317 30.142 98.317 31.4886C98.317 32.8409 98.0897 34.0256 97.6352 35.0426C97.1863 36.0597 96.5556 36.8523 95.7431 37.4205C94.9363 37.9886 93.9988 38.2727 92.9306 38.2727C92.1409 38.2727 91.4789 38.1307 90.9448 37.8466C90.4164 37.5625 89.9874 37.2131 89.6579 36.7983C89.334 36.3778 89.084 35.9687 88.9079 35.571H88.7715V42.9091H87.2545ZM88.7545 31.4631C88.7545 32.5199 88.9107 33.4574 89.2232 34.2756C89.5414 35.0881 89.996 35.7273 90.5869 36.1932C91.1835 36.6534 91.9051 36.8835 92.7516 36.8835C93.621 36.8835 94.3539 36.6449 94.9505 36.1676C95.5528 35.6847 96.0102 35.0341 96.3227 34.2159C96.6409 33.3977 96.7999 32.4801 96.7999 31.4631C96.7999 30.4574 96.6437 29.5511 96.3312 28.7443C96.0244 27.9375 95.5698 27.2983 94.9676 26.8267C94.3653 26.3494 93.6266 26.1108 92.7516 26.1108C91.8994 26.1108 91.1749 26.3409 90.5784 26.8011C89.9818 27.2557 89.5272 27.8864 89.2147 28.6932C88.9079 29.4943 88.7545 30.4176 88.7545 31.4631ZM105.301 38.2983C104.512 38.2983 103.79 38.1449 103.137 37.8381C102.483 37.5256 101.963 37.0767 101.577 36.4915C101.191 35.9006 100.997 35.1847 100.997 34.3438C100.997 33.696 101.12 33.1506 101.364 32.7074C101.608 32.2642 101.955 31.9006 102.404 31.6165C102.853 31.3324 103.384 31.108 103.997 30.9432C104.611 30.7784 105.287 30.6506 106.026 30.5597C106.759 30.4687 107.378 30.3892 107.884 30.321C108.395 30.2528 108.784 30.1449 109.051 29.9972C109.318 29.8494 109.452 29.6108 109.452 29.2812V28.9744C109.452 28.0824 109.185 27.3807 108.651 26.8693C108.122 26.3523 107.361 26.0938 106.367 26.0938C105.424 26.0938 104.654 26.3011 104.057 26.7159C103.466 27.1307 103.051 27.6193 102.813 28.1818L101.372 27.6619C101.668 26.946 102.077 26.375 102.6 25.9489C103.122 25.517 103.708 25.2074 104.355 25.0199C105.003 24.8267 105.659 24.7301 106.324 24.7301C106.824 24.7301 107.344 24.7955 107.884 24.9261C108.429 25.0568 108.935 25.2841 109.401 25.608C109.867 25.9261 110.245 26.3722 110.534 26.946C110.824 27.5142 110.969 28.2358 110.969 29.1108V38H109.452V35.929H109.358C109.176 36.3153 108.906 36.6903 108.549 37.054C108.191 37.4176 107.742 37.7159 107.202 37.9489C106.662 38.1818 106.029 38.2983 105.301 38.2983ZM105.506 36.9091C106.313 36.9091 107.012 36.7301 107.603 36.3722C108.193 36.0142 108.648 35.5398 108.966 34.9489C109.29 34.3523 109.452 33.696 109.452 32.9801V31.0881C109.338 31.196 109.148 31.2926 108.881 31.3778C108.62 31.4631 108.316 31.5398 107.969 31.608C107.628 31.6705 107.287 31.7244 106.946 31.7699C106.605 31.8153 106.299 31.8551 106.026 31.8892C105.287 31.9801 104.656 32.1222 104.134 32.3153C103.611 32.5085 103.21 32.7756 102.932 33.1165C102.654 33.4517 102.514 33.8835 102.514 34.4119C102.514 35.2074 102.799 35.8239 103.367 36.2614C103.935 36.6932 104.648 36.9091 105.506 36.9091ZM116.522 20.5455V38H115.004V20.5455H116.522ZM121.746 38.1278C121.411 38.1278 121.121 38.0085 120.877 37.7699C120.638 37.5256 120.519 37.2358 120.519 36.9006C120.519 36.5597 120.638 36.2699 120.877 36.0312C121.121 35.7926 121.411 35.6733 121.746 35.6733C122.087 35.6733 122.377 35.7926 122.615 36.0312C122.854 36.2699 122.973 36.5597 122.973 36.9006C122.973 37.1222 122.916 37.3267 122.803 37.5142C122.695 37.7017 122.547 37.8523 122.36 37.9659C122.178 38.0739 121.973 38.1278 121.746 38.1278ZM130.637 38.2983C129.848 38.2983 129.126 38.1449 128.473 37.8381C127.819 37.5256 127.299 37.0767 126.913 36.4915C126.527 35.9006 126.333 35.1847 126.333 34.3438C126.333 33.696 126.455 33.1506 126.7 32.7074C126.944 32.2642 127.291 31.9006 127.74 31.6165C128.188 31.3324 128.72 31.108 129.333 30.9432C129.947 30.7784 130.623 30.6506 131.362 30.5597C132.095 30.4687 132.714 30.3892 133.22 30.321C133.731 30.2528 134.12 30.1449 134.387 29.9972C134.654 29.8494 134.788 29.6108 134.788 29.2812V28.9744C134.788 28.0824 134.521 27.3807 133.987 26.8693C133.458 26.3523 132.697 26.0938 131.703 26.0938C130.759 26.0938 129.99 26.3011 129.393 26.7159C128.802 27.1307 128.387 27.6193 128.149 28.1818L126.708 27.6619C127.004 26.946 127.413 26.375 127.936 25.9489C128.458 25.517 129.044 25.2074 129.691 25.0199C130.339 24.8267 130.995 24.7301 131.66 24.7301C132.16 24.7301 132.68 24.7955 133.22 24.9261C133.765 25.0568 134.271 25.2841 134.737 25.608C135.203 25.9261 135.58 26.3722 135.87 26.946C136.16 27.5142 136.305 28.2358 136.305 29.1108V38H134.788V35.929H134.694C134.512 36.3153 134.242 36.6903 133.884 37.054C133.527 37.4176 133.078 37.7159 132.538 37.9489C131.998 38.1818 131.365 38.2983 130.637 38.2983ZM130.842 36.9091C131.649 36.9091 132.348 36.7301 132.938 36.3722C133.529 36.0142 133.984 35.5398 134.302 34.9489C134.626 34.3523 134.788 33.696 134.788 32.9801V31.0881C134.674 31.196 134.484 31.2926 134.217 31.3778C133.955 31.4631 133.652 31.5398 133.305 31.608C132.964 31.6705 132.623 31.7244 132.282 31.7699C131.941 31.8153 131.634 31.8551 131.362 31.8892C130.623 31.9801 129.992 32.1222 129.47 32.3153C128.947 32.5085 128.546 32.7756 128.268 33.1165C127.99 33.4517 127.85 33.8835 127.85 34.4119C127.85 35.2074 128.134 35.8239 128.703 36.2614C129.271 36.6932 129.984 36.9091 130.842 36.9091ZM140.357 38V24.9091H141.883V38H140.357ZM141.133 22.6591C140.821 22.6591 140.553 22.554 140.332 22.3438C140.11 22.1278 140 21.8693 140 21.5682C140 21.267 140.11 21.0114 140.332 20.8011C140.553 20.5852 140.821 20.4773 141.133 20.4773C141.446 20.4773 141.713 20.5852 141.934 20.8011C142.156 21.0114 142.267 21.267 142.267 21.5682C142.267 21.8693 142.156 22.1278 141.934 22.3438C141.713 22.554 141.446 22.6591 141.133 22.6591Z" fill="#FFFCF2"/>
<rect width="383" height="446" fill="#FFFCF2"/>
<path d="M310.925 154.464C313.473 155.653 318.365 160.172 317.55 168.733C316.735 177.295 309.396 182.833 305.829 184.532" stroke="#E5E2D7" stroke-linecap="round"/>
<path d="M294.107 114.714C297.335 114.374 304.504 117.465 307.358 124.396C310.211 131.327 308.547 138.156 307.358 141.724" stroke="#E5E2D7" stroke-linecap="round"/>
<path d="M87.7107 310.917C83.6337 314.994 74.9701 327.327 72.9316 344.042C71.2732 357.641 71.7511 375.76 72.4442 387.258C72.6603 390.841 76.0216 393.342 79.5364 392.609V392.609C82.6814 391.954 84.7486 388.941 84.3596 385.752C82.737 372.451 81.8446 352.621 83.8801 340.985M93.8263 319.071C93.1468 320.77 89.034 325.243 85.1628 335.888C84.6458 337.31 84.2218 339.032 83.8801 340.985M83.8801 340.985C87.875 347.78 98.0052 362.389 106.567 366.466C117.269 371.562 126.442 377.168 133.067 381.754C138.367 385.424 148.356 395.514 151.923 399.591M263.306 443.678C253.646 438.564 229.997 415.491 218.174 401.63C206.351 387.768 189.126 366.636 181.991 357.802" stroke="#E5E2D7" stroke-linecap="round"/>
<path d="M184.538 259.445C184.538 260.804 184.029 262.197 181.99 265.051C179.442 268.619 176.385 271.167 174.346 275.244C171.527 280.882 171.288 286.965 172.817 294.609C174.346 302.254 185.558 320.09 185.558 334.36C185.558 345.775 179.442 358.822 174.856 363.408" stroke="#E5E2D7" stroke-linecap="round"/>
<path d="M132.048 331.302C130.859 331.811 128.379 334.563 127.971 341.494C127.563 348.425 128.481 355.254 128.99 357.802M137.654 385.831C131.198 390.248 116.449 398.19 112.682 401.12C108.096 404.687 106.567 409.274 108.096 412.841C109.625 416.409 120.837 423.543 124.404 431.697C127.258 438.22 127.971 440.87 127.971 441.38" stroke="#E5E2D7" stroke-linecap="round"/>
<path d="M109.115 413.861C109.455 414.88 111.867 416.613 118.798 415.39C127.461 413.861 145.808 407.236 156.51 396.024C167.212 384.812 184.619 365.181 182.501 358.822C181.991 357.292 180.972 356.783 179.443 357.293" stroke="#E5E2D7" stroke-linecap="round"/>
<path d="M77.5187 326.715C74.9709 322.638 69.5099 316.013 70.8936 306.33C72.117 297.769 75.9897 290.532 82.1051 287.474C88.4538 284.299 93.8264 284.926 97.9033 288.493C101.98 292.061 105.038 298.686 111.663 304.292C118.288 309.897 132.908 321.545 122.875 329.263C116.25 334.359 109.625 332.081 106.057 329.773C103.169 327.904 95.7629 322.434 91.2783 315.503C86.7936 308.572 85.3327 306.67 85.1628 306.33" stroke="#E5E2D7" stroke-linecap="round"/>
<path d="M83.6334 286.454C83.4635 284.076 84.1428 278.402 88.22 274.733C93.2285 270.226 100.54 269.705 104.984 272.113C106.112 272.724 107.128 273.53 108.088 274.381C110.943 276.912 115.22 282.11 120.327 288.493C127.921 297.985 138.673 308.878 142.75 313.464C146.827 318.051 148.865 323.657 144.279 329.263C139.898 334.618 132.218 331.641 129.5 329.772L125.423 327.225" stroke="#E5E2D7" stroke-linecap="round"/>
<path d="M95.865 270.657C94.6759 267.769 94.6419 262.299 101.98 257.406C111.154 251.291 121.344 252.856 127.971 253.329C135.106 253.839 144.789 254.859 149.376 257.407C153.208 259.536 156.224 264.476 154.981 268.618C153.453 273.715 149.885 276.262 142.75 277.281C134.174 278.506 122.875 272.185 120.327 267.598M120.327 288.493C121.176 287.304 124.382 285.11 128.481 282.378C133.067 279.32 136.125 277.791 137.654 277.282M114.211 280.849C115.74 279.32 118.186 277.485 119.817 276.262C121.448 275.039 123.894 273.714 125.932 272.785M145.298 312.955C145.468 312.445 146.113 311.019 147.337 309.388C148.56 307.757 149.545 306.67 149.885 306.33" stroke="#E5E2D7" stroke-linecap="round"/>
<path d="M148.865 275.753C148.186 276.942 146.827 280.951 146.827 287.474C146.827 293.997 148.865 302.763 149.885 306.33" stroke="#E5E2D7" stroke-linecap="round"/>
<path d="M122.365 252.82C128.141 248.743 140.712 239.468 144.789 234.984C149.885 229.378 157.019 221.733 162.116 219.695C166.941 217.765 171.951 217.809 174.856 220.714C177.914 223.771 177.914 226.83 177.914 230.907C177.914 234.474 176.215 238.72 175.875 238.551" stroke="#E5E2D7" stroke-linecap="round"/>
<path d="M133.067 245.176C124.744 241.948 106.975 231.518 102.49 215.618C96.8842 195.742 97.9035 165.165 105.548 162.107C113.192 159.05 140.202 170.771 147.846 192.175C153.962 209.298 152.942 220.544 152.433 226.829" stroke="#E5E2D7" stroke-linecap="round"/>
<path d="M128.99 282.378C129.84 284.586 132.136 288.731 133.577 290.532C135.615 293.08 136.634 294.609 139.183 296.647" stroke="#E5E2D7" stroke-linecap="round"/>
<path d="M155.491 265.051C158.209 264.032 163.645 260.465 168.741 256.897C171.363 255.061 173.586 253.285 175.253 251.922C177.013 250.482 179.324 247.851 180.815 249.568C180.867 249.628 180.92 249.693 180.972 249.762C182.501 251.801 187.597 280.34 212.059 291.042C236.52 301.744 272.194 292.571 276.271 284.417C280.152 276.655 260.982 252.311 242.636 245.686C226.349 239.805 198.416 245.972 189.853 246.004C188.596 246.009 186.824 245.389 186.577 244.157V244.157C186.068 241.609 198.703 230.282 203.905 222.243C209.51 213.579 214.607 204.406 218.174 200.839" stroke="#E5E2D7" stroke-linecap="round"/>
<path d="M149.375 257.407C157.529 252.82 174.527 240.91 184.539 230.397C194.731 219.695 204.414 203.896 207.472 196.762" stroke="#E5E2D7" stroke-linecap="round"/>
<path d="M212.059 189.118C210.36 186.23 205.332 179.945 198.809 177.906C190.655 175.358 182.246 177.905 180.462 185.041C179.443 189.118 178.933 198.8 190.655 199.31C200.032 199.718 205.773 197.781 207.472 196.762" stroke="#E5E2D7" stroke-linecap="round"/>
<path d="M218.683 199.819C218.004 204.066 218.186 213.092 220.722 217.656C223.27 222.243 229.021 225.247 234.482 223.262C240.088 221.223 241.107 215.363 238.049 208.483C236.011 203.896 228.876 197.781 223.27 195.742" stroke="#E5E2D7" stroke-linecap="round"/>
<path d="M212.059 189.626C215.966 178.415 228.163 153.749 245.694 144.78C267.607 133.568 284.425 139.684 290.031 151.405C294.174 160.068 294.018 175.867 279.329 183.001C260.048 192.366 256.905 186.059 242.636 188.607C231.22 190.646 224.969 194.213 223.27 195.742" stroke="#E5E2D7" stroke-linecap="round"/>
<path d="M229.896 158.03C230.405 152.594 227.959 138.868 218.174 129.491C205.943 117.77 190.655 115.221 180.972 122.866C173.052 129.119 170.78 144.78 180.972 152.933C191.165 161.087 200.338 161.087 206.963 167.203C213.56 173.293 214.097 180.453 214.607 183.001" stroke="#E5E2D7" stroke-linecap="round"/>
<path d="M244.674 144.78C243.995 140.024 246.797 127.226 257.925 119.808C268.627 112.674 280.857 113.184 289.521 118.79C295.637 122.747 300.732 129.987 300.732 138.665C300.732 148.349 294.787 152.764 291.559 154.972" stroke="#E5E2D7" stroke-linecap="round"/>
<path d="M245.693 188.098C250.45 192.684 263.224 202.061 276.271 202.877C292.579 203.896 300.223 197.271 303.281 192.684C306.338 188.098 306.848 178.415 304.3 174.338" stroke="#E5E2D7" stroke-linecap="round"/>
<path d="M282.896 181.473C290.54 181.473 306.644 177.701 309.906 162.617C313.167 147.532 305.149 138.664 300.733 136.116" stroke="#E5E2D7" stroke-linecap="round"/>
<path d="M203.905 120.318C204.244 115.901 207.975 107.326 217.664 102.481C226.838 97.8947 238.175 100.658 244.165 106.049C249.261 110.635 252.489 119.129 253.338 123.376" stroke="#E5E2D7" stroke-linecap="round"/>
<path d="M188.106 119.299C186.067 116.411 184.518 109.504 193.202 102.991C201.356 96.8756 213.077 98.4039 217.664 101.972" stroke="#E5E2D7" stroke-linecap="round"/>
<path d="M207.472 98.9147C207.642 96.0268 210.326 89.5376 219.703 86.6838C229.08 83.8299 239.578 87.7031 242.636 90.7607" stroke="#E5E2D7" stroke-linecap="round"/>
<path d="M262.001 96.3664C267.098 94.3279 278.523 93.0219 285.444 98.4049C294.617 105.54 294.108 117.261 293.088 121.337" stroke="#E5E2D7" stroke-linecap="round"/>
<path d="M229.895 99.9336C232.104 95.5169 239.782 87.7027 252.828 91.7796C265.875 95.8566 269.816 108.767 270.155 114.712" stroke="#E5E2D7" stroke-linecap="round"/>
<path d="M144.544 52.7285C144.174 58.3178 142.945 69.0378 139.998 73.7534C137.157 78.2993 134.884 79.4358 129.769 81.1405" stroke="#E5E2D7"/>
<path d="M167.273 34.5449C167.074 37.4513 166.412 43.0257 164.825 45.4779C163.296 47.8417 162.072 48.4327 159.318 49.3192" stroke="#E5E2D7"/>
<path d="M144.544 109.553C144.174 103.963 142.945 93.2435 139.998 88.5278C137.156 83.9819 134.884 82.8454 129.769 81.1407" stroke="#E5E2D7"/>
<path d="M167.273 65.2295C167.074 62.0995 166.412 56.0963 164.825 53.4556C163.295 50.9098 162.072 50.2734 159.318 49.3188" stroke="#E5E2D7"/>
<path d="M144.544 52.7285C144.913 58.3178 146.142 69.0378 149.09 73.7534C151.931 78.2993 154.204 79.4358 159.318 81.1405" stroke="#E5E2D7"/>
<path d="M167.273 34.5449C167.472 37.4513 168.134 43.0257 169.721 45.4779C171.251 47.8417 172.475 48.4327 175.229 49.3192" stroke="#E5E2D7"/>
<path d="M144.544 109.553C144.913 103.963 146.142 93.2435 149.09 88.5278C151.931 83.9819 154.204 82.8454 159.318 81.1407" stroke="#E5E2D7"/>
<path d="M167.273 65.2295C167.472 62.0995 168.134 56.0963 169.721 53.4556C171.251 50.9098 172.475 50.2734 175.229 49.3188" stroke="#E5E2D7"/>
</g>
<defs>
<clipPath id="clip0_595_3862">
<rect width="383" height="446" fill="white"/>
</clipPath>
</defs>
</svg>
