<svg width="383" height="446" viewBox="0 0 383 446" fill="none" xmlns="http://www.w3.org/2000/svg">
<g clip-path="url(#clip0_3671_6197)">
<rect width="383" height="446" fill="#FFFCF2"/>
<circle cx="324" cy="57" r="1" fill="black"/>
<circle cx="318" cy="54" r="1" fill="black"/>
<path d="M235.239 159C233.664 153.877 231.067 142.5 233.271 137.971C235.475 133.441 250.981 134.331 262 134.331C253.867 134.061 243.188 133.037 238.781 126.243C234.373 119.449 238.781 110.74 241.535 107.235C238.781 111.953 231.775 121.552 225.794 122.199C219.812 122.846 212.282 110.336 209.265 104C212.806 110.471 219.418 124.868 217.529 130.691C215.64 136.515 205.723 148.485 201 153.743C206.903 148.485 219.89 137.971 224.613 137.971C229.335 137.971 233.664 151.99 235.239 159Z" stroke="black"/>
<path d="M242.366 199.979C253.445 202.174 270.217 204.915 269.986 209.694C269.448 220.85 249.53 234.236 228.815 255.332C249.978 239.17 269.328 233.062 278.451 235.363C287.574 237.664 291.672 261.949 293.91 274.838C290.964 260.754 288.63 229.527 296.719 221.934C304.807 214.341 319.316 214.377 326.328 214.763C320.843 213.779 308.391 209.929 302.462 202.397C296.534 194.866 296.419 179.471 297.102 172.715C296.833 178.293 291.51 187.149 277.855 193.742C263.58 200.633 248.049 199.33 242.366 199.979Z" stroke="black"/>
<path d="M319.518 69.8937C326.388 71.6012 331.474 79.4171 333.159 83.1116C329.861 76.7368 322.871 65.1224 325.962 61.1077C327.887 58.6071 338.421 57.5973 347.5 57.5C338.388 56.8791 328.236 55.5375 326.945 53.3933C325.655 51.2491 328.122 36.9835 329.517 30.1187C326.74 36.0795 320.852 48.9642 314.459 49.0567C309.425 49.1297 299.55 42.7475 293.419 40.0528C297.735 42.6825 305.445 49.9291 307.653 56.4448C310.585 65.095 300.791 78.7946 296.717 85.718C306.934 76.2677 316.138 69.0534 319.518 69.8937Z" stroke="black"/>
<path d="M79.2607 204.979C80.2811 204.637 83.4988 203.305 88.2061 200.718C94.0903 197.485 99.029 193.889 102.33 193.775C107.2 193.607 107.195 199.22 102.983 205.085C98.5193 211.3 85.1896 222.169 72.0098 229.739" stroke="black"/>
<path d="M94.4031 197.013C89.932 192.687 76.5694 195.716 70.447 197.772C76.5665 194.355 88.0046 191.53 90.4506 185.553C92.0913 181.544 82.9998 166.901 78.2975 159.815C82.369 165.803 91.8477 177.915 97.1903 178.469C102.533 179.023 112.861 172.439 117.357 169.077C113.098 172.936 104.487 181.815 104.12 186.466C103.753 191.117 117.239 198.796 124.028 202.054C119.127 200.048 108.337 196.401 104.381 197.855C101.089 199.065 98.201 207.21 96.6369 213.11C96.3982 214.34 96.124 215.442 95.8594 216.333C96.0596 215.4 96.3213 214.301 96.6369 213.11C97.6406 207.939 98.0153 200.508 94.4031 197.013Z" fill="#FFFCF2"/>
<path d="M70.447 197.772C76.5694 195.716 89.932 192.687 94.4031 197.013C98.8742 201.339 97.2369 211.695 95.8594 216.333C97.0516 210.78 100.425 199.309 104.381 197.855C108.337 196.401 119.127 200.048 124.028 202.054C117.239 198.796 103.753 191.117 104.12 186.466C104.487 181.815 113.098 172.936 117.357 169.077C112.861 172.439 102.533 179.023 97.1903 178.469C91.8477 177.915 82.369 165.803 78.2975 159.815C82.9998 166.901 92.0913 181.544 90.4506 185.553C88.0046 191.53 76.5665 194.355 70.447 197.772Z" stroke="black"/>
<path d="M58.4128 154.44C60.4711 149.801 65.5582 141.28 68.9106 141.692C73.5201 142.258 73.9526 148.436 72.1709 159.83C71.2426 165.765 69.2638 171.451 66.5652 182.621C65.3197 187.777 64.1761 191.686 63.7601 192.996" stroke="black"/>
<path d="M55.3043 205.74C54.8264 202.704 53.9092 192.782 55.3346 183.667C57.1163 172.274 58.1693 164.077 58.4965 156.875C58.7962 150.276 58.6703 143.593 53.988 142.667C48.88 141.657 40.372 166.262 38.4538 187.082C36.9193 203.738 40.7417 239.47 42.8448 255.254" stroke="black"/>
<path d="M94.1247 347C76.2346 379.5 22 435.5 -2 453L-6.50004 386C10.5 372 40.1347 344.885 44.4039 321.546C47.8278 302.829 43.6703 273.475 43.0126 260.123C42.355 246.771 45.1336 229.448 48.8957 220.521C53.0373 210.693 55.7719 204.01 65.6389 190.164C76.158 175.403 87.9442 152.961 93.9961 154.597C100.048 156.234 97.9319 169.738 94.1247 177.455C91.2021 183.379 76.8212 203.022 72.7064 225.103C68.5916 247.185 75.5302 293.733 85.4913 288.308C102.983 278.781 113.102 226.945 122.208 225.103C130.452 223.436 128.223 246.739 127.014 256.752C124.211 279.983 111.337 315.731 94.1247 347Z" fill="#FFFCF2" stroke="black"/>
<path d="M32.9891 345.922C33.7965 355.974 38.4761 369.412 41.0665 375.753C45.2295 385.944 50.7713 395.448 54.159 400.075" stroke="black"/>
<path d="M82.3163 165.542L86.5731 172.445" stroke="black"/>
<path d="M275.043 206.931C275.831 205.82 278.13 203.746 281.024 204.335C283.919 204.925 285.671 206.7 286.185 207.514" stroke="black"/>
<path d="M290 211C291.333 211.93 294 214.349 294 216.581C294 218.814 292 219.106 291 218.973" stroke="black"/>
<path d="M224 126C224.119 126.517 224.643 127.614 225.786 127.863C226.929 128.111 228.405 127.966 229 127.863" stroke="black"/>
<path d="M233 130C233.095 130.517 233.514 131.614 234.429 131.863C235.343 132.111 236.524 131.966 237 131.863" stroke="black"/>
<path d="M230 130C229.333 130.533 228 131.84 228 132.8C228 133.76 229 134 229.5 134" stroke="black"/>
<ellipse cx="224.5" cy="128" rx="0.5" ry="1" fill="black"/>
<circle cx="281" cy="207" r="1" fill="black"/>
<ellipse cx="298" cy="209.5" rx="1" ry="1.5" fill="black"/>
<path d="M320.846 56C320.911 56.5908 320.954 57.9853 320.605 58.8364C320.256 59.6876 319.274 59.5859 318.826 59.4287" stroke="black"/>
<path d="M148 204C158.756 209.111 184.411 220.118 200.984 223.263C217.556 226.409 237.9 224.574 246 223.263" stroke="black" stroke-width="0.8"/>
<path d="M126 182.164C133.548 183.102 153.015 185.779 169.265 182.164C199.996 175.326 209.296 161.116 219 152" stroke="black" stroke-width="0.8"/>
<path d="M134 190.613C168.858 196.336 248.873 198.918 283.678 163.463C318.483 128.007 320 98.3811 320 88" stroke="black" stroke-width="0.8"/>
</g>
<defs>
<clipPath id="clip0_3671_6197">
<rect width="383" height="446" fill="white"/>
</clipPath>
</defs>
</svg>
