<svg width="383" height="446" viewBox="0 0 383 446" fill="none" xmlns="http://www.w3.org/2000/svg">
<g clip-path="url(#clip0_577_2515)">
<path d="M59.3182 21.5455H61.1591L67.4915 36.75H67.6449L73.9773 21.5455H75.8182V39H74.3182V24.9119H74.1818L68.2926 39H66.8438L60.9545 24.9119H60.8182V39H59.3182V21.5455ZM80.1605 39V25.9091H81.6861V39H80.1605ZM80.9361 23.6591C80.6236 23.6591 80.3565 23.554 80.1349 23.3438C79.9134 23.1278 79.8026 22.8693 79.8026 22.5682C79.8026 22.267 79.9134 22.0114 80.1349 21.8011C80.3565 21.5852 80.6236 21.4773 80.9361 21.4773C81.2486 21.4773 81.5156 21.5852 81.7372 21.8011C81.9588 22.0114 82.0696 22.267 82.0696 22.5682C82.0696 22.8693 81.9588 23.1278 81.7372 23.3438C81.5156 23.554 81.2486 23.6591 80.9361 23.6591ZM90.8118 39.2727C89.6413 39.2727 88.6214 38.9801 87.7521 38.3949C86.8885 37.8097 86.218 37.0085 85.7408 35.9915C85.2635 34.9744 85.0249 33.8153 85.0249 32.5142C85.0249 31.2017 85.2663 30.0341 85.7493 29.0114C86.2379 27.9886 86.9141 27.1875 87.7777 26.608C88.6413 26.0227 89.6442 25.7301 90.7862 25.7301C91.6612 25.7301 92.4538 25.9006 93.1641 26.2415C93.8743 26.5767 94.4595 27.0511 94.9197 27.6648C95.3857 28.2727 95.6783 28.983 95.7976 29.7955H94.2635C94.1044 29.0568 93.7209 28.4261 93.1129 27.9034C92.5107 27.375 91.7436 27.1108 90.8118 27.1108C89.9766 27.1108 89.2379 27.3381 88.5959 27.7926C87.9538 28.2415 87.451 28.8693 87.0874 29.6761C86.7294 30.4773 86.5504 31.4062 86.5504 32.4631C86.5504 33.5256 86.7266 34.4659 87.0788 35.2841C87.4311 36.0966 87.9254 36.733 88.5618 37.1932C89.2038 37.6534 89.9538 37.8835 90.8118 37.8835C91.3913 37.8835 91.9197 37.7756 92.397 37.5597C92.88 37.3381 93.2834 37.0256 93.6072 36.6222C93.9368 36.2187 94.1584 35.7386 94.272 35.1818H95.8061C95.6925 35.9716 95.4112 36.6761 94.9624 37.2955C94.5192 37.9091 93.9425 38.392 93.2322 38.7443C92.5277 39.0966 91.7209 39.2727 90.8118 39.2727ZM99.0575 39V25.9091H100.532V27.9205H100.643C100.904 27.2614 101.359 26.7301 102.006 26.3267C102.66 25.9176 103.398 25.7131 104.222 25.7131C104.347 25.7131 104.487 25.7159 104.64 25.7216C104.793 25.7273 104.921 25.733 105.023 25.7386V27.2812C104.955 27.2699 104.836 27.2528 104.665 27.2301C104.495 27.2074 104.31 27.196 104.112 27.196C103.43 27.196 102.822 27.3409 102.288 27.6307C101.759 27.9148 101.342 28.3097 101.035 28.8153C100.728 29.321 100.575 29.8977 100.575 30.5455V39H99.0575ZM112.302 39.2727C111.171 39.2727 110.171 38.9858 109.302 38.4119C108.438 37.8381 107.762 37.0455 107.273 36.0341C106.785 35.017 106.54 33.8437 106.54 32.5142C106.54 31.1733 106.785 29.9943 107.273 28.9773C107.762 27.9545 108.438 27.1591 109.302 26.5909C110.171 26.017 111.171 25.7301 112.302 25.7301C113.433 25.7301 114.43 26.017 115.293 26.5909C116.157 27.1648 116.833 27.9602 117.322 28.9773C117.816 29.9943 118.063 31.1733 118.063 32.5142C118.063 33.8437 117.819 35.017 117.33 36.0341C116.842 37.0455 116.163 37.8381 115.293 38.4119C114.43 38.9858 113.433 39.2727 112.302 39.2727ZM112.302 37.8835C113.211 37.8835 113.981 37.6392 114.612 37.1506C115.242 36.6619 115.719 36.0114 116.043 35.1989C116.373 34.3864 116.538 33.4915 116.538 32.5142C116.538 31.5369 116.373 30.6392 116.043 29.821C115.719 29.0028 115.242 28.3466 114.612 27.8523C113.981 27.358 113.211 27.1108 112.302 27.1108C111.398 27.1108 110.629 27.358 109.992 27.8523C109.362 28.3466 108.881 29.0028 108.552 29.821C108.228 30.6392 108.066 31.5369 108.066 32.5142C108.066 33.4915 108.228 34.3864 108.552 35.1989C108.881 36.0114 109.362 36.6619 109.992 37.1506C110.623 37.6392 111.393 37.8835 112.302 37.8835ZM130.189 28.7813L128.8 29.1733C128.663 28.7812 128.47 28.4261 128.22 28.108C127.97 27.7898 127.643 27.5369 127.24 27.3494C126.842 27.1619 126.348 27.0682 125.757 27.0682C124.871 27.0682 124.143 27.2784 123.575 27.6989C123.007 28.1193 122.723 28.6619 122.723 29.3267C122.723 29.8892 122.916 30.3466 123.303 30.6989C123.695 31.0455 124.297 31.321 125.109 31.5256L127.087 32.0114C128.183 32.2784 129.004 32.7017 129.55 33.2812C130.101 33.8608 130.376 34.5881 130.376 35.4631C130.376 36.2017 130.172 36.858 129.763 37.4318C129.354 38.0057 128.783 38.4574 128.05 38.7869C127.322 39.1108 126.479 39.2727 125.518 39.2727C124.24 39.2727 123.186 38.9858 122.357 38.4119C121.527 37.8324 120.996 36.9972 120.763 35.9062L122.22 35.5483C122.408 36.3267 122.774 36.9148 123.32 37.3125C123.871 37.7102 124.595 37.9091 125.493 37.9091C126.499 37.9091 127.303 37.6847 127.905 37.2358C128.507 36.7812 128.808 36.2131 128.808 35.5312C128.808 35.0028 128.632 34.5597 128.28 34.2017C127.928 33.8381 127.393 33.571 126.678 33.4006L124.538 32.8892C123.402 32.6165 122.561 32.1847 122.016 31.5938C121.47 31.0028 121.197 30.2699 121.197 29.3949C121.197 28.6733 121.393 28.0398 121.786 27.4943C122.178 26.9432 122.717 26.5114 123.405 26.1989C124.092 25.8864 124.876 25.7301 125.757 25.7301C126.956 25.7301 127.913 26.0028 128.629 26.5483C129.351 27.0881 129.871 27.8324 130.189 28.7813ZM138.786 39.2727C137.656 39.2727 136.656 38.9858 135.786 38.4119C134.923 37.8381 134.246 37.0455 133.758 36.0341C133.269 35.017 133.025 33.8437 133.025 32.5142C133.025 31.1733 133.269 29.9943 133.758 28.9773C134.246 27.9545 134.923 27.1591 135.786 26.5909C136.656 26.017 137.656 25.7301 138.786 25.7301C139.917 25.7301 140.914 26.017 141.778 26.5909C142.641 27.1648 143.317 27.9602 143.806 28.9773C144.3 29.9943 144.548 31.1733 144.548 32.5142C144.548 33.8437 144.303 35.017 143.815 36.0341C143.326 37.0455 142.647 37.8381 141.778 38.4119C140.914 38.9858 139.917 39.2727 138.786 39.2727ZM138.786 37.8835C139.695 37.8835 140.465 37.6392 141.096 37.1506C141.727 36.6619 142.204 36.0114 142.528 35.1989C142.857 34.3864 143.022 33.4915 143.022 32.5142C143.022 31.5369 142.857 30.6392 142.528 29.821C142.204 29.0028 141.727 28.3466 141.096 27.8523C140.465 27.358 139.695 27.1108 138.786 27.1108C137.883 27.1108 137.113 27.358 136.477 27.8523C135.846 28.3466 135.366 29.0028 135.036 29.821C134.712 30.6392 134.55 31.5369 134.55 32.5142C134.55 33.4915 134.712 34.3864 135.036 35.1989C135.366 36.0114 135.846 36.6619 136.477 37.1506C137.107 37.6392 137.877 37.8835 138.786 37.8835ZM153.264 25.9091V27.2301H146.83V25.9091L153.264 25.9091ZM148.841 39V23.9915C148.841 23.2869 149.003 22.6932 149.327 22.2102C149.656 21.7273 150.085 21.3608 150.614 21.1108C151.142 20.8608 151.702 20.7358 152.293 20.7358C152.69 20.7358 153.02 20.7699 153.281 20.8381C153.548 20.9006 153.759 20.9631 153.912 21.0256L153.469 22.3551C153.355 22.321 153.216 22.2812 153.051 22.2358C152.886 22.1903 152.679 22.1676 152.429 22.1676C151.77 22.1676 151.261 22.3523 150.903 22.7216C150.545 23.0909 150.366 23.6193 150.366 24.3068L150.358 39H148.841ZM161.448 25.9091V27.2301H155.201V25.9091H161.448ZM157.153 22.7727H158.678V35.5824C158.678 36.1278 158.772 36.5568 158.96 36.8693C159.147 37.1761 159.391 37.3949 159.692 37.5256C159.994 37.6506 160.315 37.7131 160.656 37.7131C160.854 37.7131 161.025 37.7017 161.167 37.679C161.309 37.6506 161.434 37.6222 161.542 37.5938L161.866 38.9659C161.718 39.0227 161.536 39.0739 161.32 39.1193C161.104 39.1705 160.837 39.196 160.519 39.196C159.962 39.196 159.425 39.0739 158.908 38.8295C158.397 38.5852 157.977 38.2216 157.647 37.7386C157.317 37.2557 157.153 36.6562 157.153 35.9403V22.7727Z" fill="#FFFCF2"/>
<rect width="383" height="446" fill="#FFFCF2"/>
<circle cx="87.4201" cy="336.409" r="56.5" fill="#FFFCF2" stroke="#E5E2D7" stroke-linecap="round"/>
<line x1="20.9201" y1="392.909" x2="304.92" y2="392.909" stroke="#E5E2D7" stroke-linecap="round"/>
<path d="M114.92 286.909C119.587 288.409 129.62 290.609 146.42 293.409C163.22 296.209 170.753 302.242 172.42 304.909C178.386 310.096 161.421 354.909 164.921 356.909C168.421 358.909 215.42 350.409 221.42 347.409C227.42 344.409 229.598 298.909 226.42 285.409C224.42 276.909 193.92 259.109 182.42 261.409C162.42 265.409 108.92 278.202 91.4201 279.409C76.9198 280.409 52.7943 275.129 46.4204 250.909C31.4202 193.909 54.4201 94.4086 91.9204 88.4086C97.9203 87.0753 111.52 87.4086 117.92 99.4086C124.32 111.409 131.92 161.742 134.92 185.409L88.9201 204.409" stroke="#E5E2D7" stroke-linecap="round"/>
<path d="M134.92 185.409C149.087 186.075 178.62 187.009 183.42 185.409C189.42 183.409 192.993 177.175 197.42 174.409C201.42 171.909 205.42 172.409 206.92 175.909C208.42 179.409 207.591 190.167 201.42 198.909C195.42 207.409 186.42 210.909 181.92 213.409" stroke="#E5E2D7" stroke-linecap="round"/>
<path d="M88.9202 125.409C87.0869 153.409 86.9201 209.409 91.4202 219.409C95.6246 228.751 103.754 229.075 105.92 228.909" stroke="#E5E2D7" stroke-linecap="round"/>
<path d="M228.101 92.6815C225.738 91.8477 218.372 92.8264 205.42 92.4086C198.626 92.1894 189.141 91.0095 180.42 89.8796C181.253 84.0559 183.22 72.2086 184.42 71.4086C185.92 70.4086 204.92 78.4086 210.92 81.9086C215.72 84.7086 221.601 87.6816 228.101 92.6815Z" fill="#FFFCF2"/>
<path d="M44.4201 239.909C104.92 232.909 161.42 211.909 186.42 213.909C204.21 215.332 228.92 242.409 242.92 255.909C257.429 269.899 277.42 286.409 280.42 292.409C282.89 297.348 252.42 338.909 246.92 340.409C241.42 341.909 241.92 337.409 237.42 332.409C233.82 328.409 230.42 325.409 227.42 323.909M136.92 184.909C138.587 173.409 142.72 147.009 145.92 133.409C149.92 116.409 155.42 89.4086 157.92 87.9086C159.324 87.0661 169.246 88.4318 180.42 89.8796M207.92 181.909C210.92 175.909 229.42 95.4086 228.92 93.4086C228.42 91.4086 220.92 92.9086 205.42 92.4086C198.626 92.1894 189.141 91.0095 180.42 89.8796M180.42 89.8796C181.253 84.0559 183.22 72.2086 184.42 71.4086C185.92 70.4086 204.92 78.4086 210.92 81.9086C215.72 84.7086 221.601 87.6816 228.101 92.6815" stroke="#E5E2D7" stroke-linecap="round"/>
<path d="M226.92 103.909C222.42 101.575 211.12 98.5088 201.92 104.909C190.42 112.909 191.42 121.409 185.42 125.409C179.42 129.409 172.782 126.153 168.92 127.909C163.42 130.409 161.177 135.959 165.42 140.909C168.42 144.409 174.42 141.409 175.92 144.909C177.42 148.409 169.42 162.409 171.42 171.909C172.262 175.909 174.201 179.397 177.42 181.409C181.42 183.909 185.253 183.909 186.42 183.909" stroke="#E5E2D7" stroke-linecap="round"/>
<path d="M312.92 269.909C307.32 261.509 308.92 233.409 310.92 231.409C315.92 229.909 346.82 231.809 348.42 233.409C350.42 235.409 351.42 247.909 351.42 256.909C351.42 265.923 350.92 269.909 347.92 274.409C344.622 279.356 338.245 281.779 334.585 281.636C334.352 281.627 334.13 281.608 333.92 281.578C333.625 281.578 333.309 281.565 332.974 281.541C327.816 281.16 318.178 277.796 312.92 269.909Z" fill="#FFFCF2"/>
<path d="M178.92 356.409C179.587 357.242 180.02 363.609 178.42 368.409C176.42 374.409 174.92 376.409 174.92 383.909C174.92 389.909 177.92 392.409 179.42 392.909C205.92 392.909 244.92 392.909 258.42 392.909C262.325 392.909 270.42 391.409 270.42 383.909C270.42 379.909 267.92 376.409 262.92 373.909C255.849 370.373 224.42 361.909 222.42 356.909C220.483 352.067 221.753 348.242 221.92 347.409M254.92 333.409C264.92 338.409 269.82 344.509 273.42 348.909C276.284 352.409 278.896 359.09 285.92 359.409C296.92 359.909 295.92 351.909 305.92 340.409C320.723 323.385 340.645 302.246 342.92 294.409C346.45 282.252 334.42 279.974 327.42 282.409C315.92 286.409 308.42 303.409 298.42 303.909C290.42 304.309 284.42 297.576 280.42 294.409M310.92 231.409C308.92 233.409 307.32 261.509 312.92 269.909C318.52 278.309 329.087 281.578 333.92 281.578C337.42 282.078 344.412 279.671 347.92 274.409C350.92 269.909 351.42 265.923 351.42 256.909C351.42 247.909 350.42 235.409 348.42 233.409C346.82 231.809 315.92 229.909 310.92 231.409Z" stroke="#E5E2D7" stroke-linecap="round"/>
<path d="M350.92 241.909C351.753 240.742 354.831 240.669 357.42 241.409C360.92 242.409 364.71 246.46 363.42 252.909C362.92 255.409 361.42 256.909 358.42 258.909C355.42 260.909 352.92 261.909 351.42 265.409" stroke="#E5E2D7" stroke-linecap="round"/>
<path d="M320.92 230.909C321.087 230.242 321.754 226.909 321.42 224.909C321.087 222.909 319.92 218.909 315.92 216.409C311.086 213.387 291.42 214.909 287.42 213.909C285.254 213.909 280.62 212.409 279.42 206.409C277.92 198.909 285.42 196.409 282.92 190.909C280.42 185.409 260.92 185.909 253.42 170.909C247.42 158.909 254.321 151.909 257.92 148.909C260.32 146.909 266.12 143.909 272.92 143.909C281.42 143.909 286.92 144.409 291.92 150.909C296.92 157.409 293.42 162.409 297.42 169.409C301.42 176.409 311.681 174.041 317.92 178.409C322.92 181.909 326.92 181.409 329.92 197.409C331.983 208.409 328.42 214.909 333.42 225.409C335.159 229.06 339.42 231.409 341.42 231.909" stroke="#E5E2D7" stroke-linecap="round"/>
</g>
<defs>
<clipPath id="clip0_577_2515">
<rect width="383" height="446" fill="white"/>
</clipPath>
</defs>
</svg>
