<svg width="383" height="446" viewBox="0 0 383 446" fill="none" xmlns="http://www.w3.org/2000/svg">
<g clip-path="url(#clip0_1491_644)">
<rect width="383" height="446" fill="#FFFCF2"/>
<path d="M307.555 196.85C309.858 198.493 311.55 205.575 306.857 210.149C299.595 217.226 292.436 212.571 288.494 210.18" stroke="black" stroke-linecap="round"/>
<path d="M308.389 136.384C312.362 128.34 311.103 118.722 305.429 113.387C304.407 112.426 301.662 110.129 299.607 109.966" stroke="black" stroke-linecap="round"/>
<path d="M87.715 311.926C83.6379 316.003 74.9738 328.336 72.9347 345.051C70.8956 361.767 72.0838 385.311 72.9328 394.994L85.164 392.447C83.0878 379.838 81.5302 355.442 83.8833 341.994M93.8303 320.081C93.1508 321.779 89.0378 326.252 85.1661 336.898C84.6492 338.319 84.225 340.041 83.8833 341.994M83.8833 341.994C87.878 348.789 98.0076 363.399 106.569 367.476C117.271 372.572 126.444 378.179 133.069 382.766C138.369 386.435 148.357 396.526 151.924 400.603M266 445.5C256.34 440.385 229.998 416.506 218.175 402.644C206.352 388.782 189.128 367.649 181.993 358.815" stroke="black" stroke-linecap="round"/>
<path d="M184.546 260.458C184.546 261.817 184.036 263.209 181.997 266.063C179.449 269.631 176.392 272.178 174.353 276.255C171.533 281.893 171.295 287.977 172.823 295.621C174.352 303.265 185.563 321.103 185.562 335.372C185.562 346.787 179.446 359.834 174.859 364.42" stroke="black" stroke-linecap="round"/>
<path d="M132.052 332.312C130.863 332.822 128.383 335.574 127.975 342.505C127.567 349.436 128.484 356.265 128.993 358.813M137.656 386.842C131.2 391.259 116.45 399.2 112.684 402.13C108.097 405.697 106.568 410.284 108.097 413.851C109.625 417.418 120.046 424.948 124.404 432.708C128.5 440 128.5 445.49 128.5 446" stroke="black" stroke-linecap="round"/>
<path d="M109.116 414.871C109.455 415.89 111.867 417.623 118.798 416.4C127.462 414.871 145.809 408.247 156.511 397.036C167.214 385.824 184.622 366.194 182.503 359.834C181.994 358.305 180.974 357.796 179.446 358.305" stroke="black" stroke-linecap="round"/>
<path d="M77.5223 327.724C74.9747 323.647 69.514 317.022 70.898 307.339C72.1217 298.777 75.9947 291.541 82.1102 288.483C88.459 285.309 93.8316 285.936 97.9084 289.503C101.985 293.071 105.043 299.696 111.668 305.302C118.292 310.908 132.912 322.556 122.878 330.274C116.253 335.37 109.628 333.091 106.061 330.783C103.173 328.914 95.7667 323.444 91.2823 316.513C86.7979 309.582 85.3371 307.679 85.1672 307.339" stroke="black" stroke-linecap="round"/>
<path d="M83.6385 287.464C83.4687 285.086 84.1482 279.412 88.2255 275.743C93.8885 270.647 102.496 270.647 106.572 274.215C109.29 275.914 114.217 281.86 120.332 289.504C127.925 298.997 138.677 309.89 142.754 314.476C146.831 319.063 148.869 324.67 144.282 330.275C139.901 335.63 132.221 332.653 129.503 330.784L125.426 328.236" stroke="black" stroke-linecap="round"/>
<path d="M95.8707 271.666C94.6817 268.778 94.6479 263.309 101.987 258.416C111.16 252.301 121.35 253.867 127.978 254.341C135.112 254.85 144.795 255.87 149.382 258.419C153.214 260.548 156.23 265.488 154.987 269.63C153.458 274.727 149.891 277.274 142.756 278.293C134.179 279.518 122.881 273.196 120.333 268.609M120.332 289.504C121.181 288.315 124.387 286.121 128.486 283.389C133.073 280.331 136.13 278.803 137.659 278.293M114.216 281.859C115.745 280.331 118.192 278.496 119.822 277.273C121.453 276.05 123.9 274.725 125.938 273.796M145.302 313.967C145.472 313.457 146.118 312.03 147.341 310.399C148.564 308.769 149.549 307.682 149.889 307.342" stroke="black" stroke-linecap="round"/>
<path d="M148.872 276.764C148.193 277.953 146.834 281.962 146.833 288.485C146.833 295.008 148.871 303.774 149.89 307.341" stroke="black" stroke-linecap="round"/>
<path d="M122.372 253.83C128.148 249.753 140.719 240.479 144.796 235.994C149.893 230.389 157.028 222.744 162.124 220.706C166.949 218.776 171.959 218.82 174.864 221.725C177.922 224.783 177.922 227.842 177.922 231.918C177.922 235.486 176.223 239.732 175.883 239.562" stroke="black" stroke-linecap="round"/>
<path d="M133.074 246.185C124.75 242.957 106.982 232.526 102.498 216.625C96.8929 196.75 97.9133 166.173 105.558 163.115C113.202 160.058 140.212 171.78 147.855 193.184C153.97 210.308 152.95 221.554 152.44 227.839" stroke="black" stroke-linecap="round"/>
<path d="M128.996 283.389C129.845 285.597 132.142 289.742 133.582 291.543C135.621 294.091 136.64 295.62 139.188 297.658" stroke="black" stroke-linecap="round"/>
<path d="M155.498 266.062C158.216 265.042 163.652 261.476 168.748 257.908C173.242 254.763 176.563 251.793 177.922 250.774C178.431 250.094 179.756 249.143 180.979 250.774C182.508 252.812 187.603 281.352 212.065 292.055C236.526 302.758 272.2 293.586 276.277 285.432C280.159 277.67 260.99 253.326 242.644 246.7C224.298 240.075 191.172 248.736 187.605 246.698C187.435 247.037 186.993 247.207 186.585 245.169C186.076 242.62 198.711 231.294 203.913 223.256C209.52 214.592 214.616 205.419 218.184 201.852" stroke="black" stroke-linecap="round"/>
<path d="M149.382 258.417C157.536 253.831 174.535 241.921 184.547 231.409C194.74 220.707 204.423 204.909 207.481 197.775" stroke="black" stroke-linecap="round"/>
<path d="M212.069 190.13C210.37 187.242 205.342 180.956 198.819 178.918C190.665 176.369 182.256 178.916 180.472 186.052C179.453 190.129 178.943 199.811 190.664 200.321C200.041 200.729 205.783 198.793 207.482 197.774" stroke="black" stroke-linecap="round"/>
<path d="M218.692 200.833C218.012 205.08 218.194 214.106 220.73 218.67C223.278 223.256 229.028 226.261 234.489 224.276C240.095 222.238 241.115 216.377 238.057 209.497C236.019 204.91 228.885 198.795 223.279 196.756" stroke="black" stroke-linecap="round"/>
<path d="M212.067 190.64C215.975 179.428 234.185 165.989 251.716 157.02C273.63 145.81 294.213 156.498 296.359 169.321C298.007 179.174 289.962 191.683 277.14 193.829C255.999 197.367 256.914 187.074 242.645 189.622C231.229 191.66 224.978 195.227 223.279 196.755" stroke="black" stroke-linecap="round"/>
<path d="M221.645 177.262C222.155 171.826 220.724 150.548 205.704 130.756C195.464 117.261 177.301 118.272 168.432 131.923C162.935 140.384 165.577 155.493 175.769 163.647C185.961 171.802 200.348 162.101 206.973 168.216C213.571 174.307 214.318 182.446 214.828 184.994" stroke="black" stroke-linecap="round"/>
<path d="M264.21 152.782C265.068 148.054 271.772 136.799 284.673 133.278C297.082 129.891 308.524 134.241 314.972 142.297C319.523 147.985 322.07 156.464 319.327 164.697C316.267 173.885 304.586 179.098 293.901 181.899" stroke="black" stroke-linecap="round"/>
<path d="M245.984 189.41C250.74 193.997 262.924 199.756 266.055 212.413C268.365 221.749 276.832 225.311 282.337 221.855C293.348 214.943 287.663 196.123 277.633 193.746" stroke="black" stroke-linecap="round"/>
<path d="M285.074 191.456C295.82 196.843 310.607 199.266 318.075 193.063C326.531 186.039 325.929 172.485 318.059 168.732" stroke="black" stroke-linecap="round"/>
<path d="M184.371 121.143C183.479 116.804 184.76 109.181 192.736 101.851C200.287 94.9108 210.839 95.5253 218.057 98.2648" stroke="black" stroke-width="0.8" stroke-linecap="round"/>
<path d="M237.579 129.011C236.395 122.271 236.482 117.488 230.757 110.537" stroke="black" stroke-width="0.8" stroke-linecap="round"/>
<path d="M165.641 139.486C159.722 137.435 155.671 126.542 162.936 118.476C169.758 110.904 179.834 110.306 185.023 112.923" stroke="black" stroke-linecap="round"/>
<path d="M202.027 96.3849C202.122 94.7657 203.447 91.6065 205.885 89.1489M236.793 89.0463C233.339 86.5826 231.472 85.5226 228.442 84.583C224.211 83.5382 219.134 83.2428 214.35 84.6988C212.827 85.1621 211.479 85.7069 210.287 86.3068" stroke="black" stroke-width="0.8" stroke-linecap="round"/>
<path d="M228.827 102.04C228.991 99.9844 229.013 97.0896 230.631 94.6401C233.642 90.0801 239.011 87.1548 245.095 90.1919" stroke="black" stroke-width="0.8" stroke-linecap="round"/>
<path d="M209.698 136.166C215.405 128.736 226.304 127.602 234.846 128.914C240.091 129.72 242.845 131.652 245.453 134.744M254.016 155.618C253.715 149.129 253.275 145.194 250.471 140.494" stroke="black" stroke-linecap="round"/>
<path d="M256.792 86.1597C259.777 83.8016 264.926 80.2366 270.928 82.7808C275.616 84.7677 276.441 90.4767 276.606 92.4769C282.608 95.0207 285.131 102.251 284.837 108.336C284.343 118.557 278.521 128.15 263.396 128.652M247.94 124.141C243.993 121.76 240.826 121.011 239.961 115.845C239.423 112.628 247.154 113.387 246.368 108.69C245.873 105.731 242.173 104.829 240.036 104.173C238.326 103.648 237.952 101.817 237.979 100.968C239.821 91.5569 245.45 88.0582 253.588 88.2172" stroke="black" stroke-linecap="round"/>
<path d="M247.67 89.2067C246.819 87.1523 247.666 83.125 250.953 81.5608C255.648 79.3261 259.83 80.0753 261.804 82.7859" stroke="black"/>
<path d="M250.46 81.6431C250.981 81.725 252.072 82.7928 251.941 84.4369C251.811 86.0811 250.601 87.5346 250.054 88.3024" stroke="black"/>
<path d="M245.72 122.992C244.385 123.459 240.68 125.454 241.604 130.198" stroke="black" stroke-width="0.8" stroke-linecap="round"/>
<path d="M263.249 128.943C264.346 129.821 266.092 133.125 266.049 135.682C265.996 138.878 263.681 141.804 262.922 142.674C262.163 143.544 265.587 147.795 258.406 147.58C256.369 147.518 255.106 147.26 254.344 146.896M247.449 127.265C246.052 128.006 244.781 129.499 244.701 132.047" stroke="black" stroke-linecap="round"/>
<path d="M256.29 136.987C254.06 138.873 249.449 141.507 246.077 138.535C242.447 135.336 247.279 132.942 249.641 132.199" stroke="black" stroke-linecap="round"/>
<path d="M156.463 70.9052C153.038 70.6335 144.954 71.8056 146.028 78.2279C147.448 86.7144 169.907 83.5636 180.346 83.7443C194.074 83.9819 209.044 86.0392 218.047 96.5935C225.615 105.466 230.588 111.331 240.125 113.79" stroke="black" stroke-width="0.8" stroke-linecap="round"/>
<path d="M156.463 70.9062C160.656 71.7255 156.511 74.9385 158.477 77.2656C161.557 80.9117 183.959 78.0708 198.264 81.7604C212.569 85.45 217.812 89.1352 222.11 93.9925C225.236 97.525 232.476 107.466 245.958 109.266" stroke="black" stroke-width="0.8" stroke-linecap="round"/>
<path d="M151.488 74.8868C150.667 76.0382 150.52 77.5836 151.245 79.4901C151.969 81.3967 154.727 83.132 156.015 83.7614" stroke="black" stroke-width="0.8" stroke-linecap="round"/>
<path d="M268.175 145.095C268.615 144.479 268.773 142.853 265.216 140.014" stroke="black" stroke-width="0.8" stroke-linecap="round"/>
<path d="M267.469 85.8777C270.209 86.9419 271.501 90.688 270.062 94.3941C268.622 98.1002 265.14 99.992 262.4 98.9279C259.661 97.8637 258.369 94.1176 259.808 90.4115C261.248 86.7053 264.729 84.8135 267.469 85.8777Z" stroke="black"/>
<path d="M266.715 88.2957C266.196 88.337 264.679 88.6959 263.536 90.1061C262.393 91.5163 262.385 93.0375 262.428 93.5838" stroke="black" stroke-linecap="round"/>
<path d="M167.893 34.9007C167.694 37.8071 167.032 43.3815 165.445 45.8335C163.915 48.1974 162.691 48.7883 159.937 49.6746" stroke="black"/>
<path d="M167.892 65.5862C167.693 62.4563 167.031 56.453 165.444 53.8122C163.915 51.2664 162.691 50.63 159.937 49.6752" stroke="black"/>
<path d="M167.893 34.9011C168.092 37.8075 168.754 43.3819 170.341 45.8341C171.87 48.198 173.094 48.7891 175.848 49.6756" stroke="black"/>
<path d="M167.892 65.5866C168.091 62.4566 168.753 56.4535 170.34 53.8128C171.87 51.2671 173.094 50.6307 175.848 49.6762" stroke="black"/>
<circle cx="246.604" cy="91.9257" r="1" transform="rotate(-9.5 246.604 91.9257)" fill="black"/>
<path d="M281.213 95.7662C284.007 94.2848 293.543 96.7448 297.658 103.153C303.557 112.343 299.811 128.14 290.772 131.681" stroke="black" stroke-linecap="round"/>
</g>
<defs>
<clipPath id="clip0_1491_644">
<rect width="383" height="446" fill="white"/>
</clipPath>
</defs>
</svg>
