<svg width="109" height="87" viewBox="0 0 109 87" fill="none" xmlns="http://www.w3.org/2000/svg">
<path d="M48.1233 50.5761C51.2519 49.7843 52.6856 38.3685 53.0115 34.7393L62.7882 40.6781C60.1811 46.287 53.9892 61.0681 57.8998 63.4436C62.7882 66.413 64.7435 56.515 70.6095 56.515C75.4979 56.515 75.4979 64.4334 76.4755 68.3926C77.4532 72.3518 77.453 80.2703 72.5649 80.2703C67.5795 80.2703 69.6319 73.3416 64.7435 71.362C60.8923 69.8024 58.7826 74.3122 53.9892 73.3416C49.1006 72.3518 52.0341 59.4844 45.1904 59.4844C40.2052 59.4844 38.3467 64.4333 39.3242 69.3824C40.3016 74.3315 37.3688 75.3213 33.4582 75.3213C29.5475 75.3213 25.637 72.3518 21.7263 71.362C17.8156 70.3722 14.0929 65.2332 17.8156 61.464C20.7485 58.4946 26.6145 62.4538 30.5252 61.464C34.4358 60.4742 33.4584 52.5557 37.369 50.5761C41.2797 48.5965 44.2127 51.5659 48.1233 50.5761Z" fill="#FFFCF2" stroke="black" stroke-width="0.8" stroke-linecap="round"/>
<path d="M85.3335 52.1925C73.1919 56.7454 57.2561 49.9159 57.2561 38.5332C49.7393 36.1415 40.9826 39.8701 32.214 39.292C20.287 38.5057 9.62821 32.8604 14.0015 21.8385C16.0809 16.5978 22.9474 17.6212 28.4197 16.5267C35.0159 15.2074 39.206 13.3504 48.1498 10.2931C58.7737 6.66159 65.2814 7.86866 70.4335 10.2931C90.9968 19.9698 97.4751 47.6396 85.3335 52.1925Z" fill="#FFFCF2"/>
<path d="M85.3335 52.1925C73.1919 56.7454 57.2561 49.9159 57.2561 38.5332C49.7393 36.1415 40.9826 39.8701 32.214 39.292C20.287 38.5057 9.62821 32.8604 14.0015 21.8385C16.0809 16.5978 22.9474 17.6212 28.4197 16.5267C35.0159 15.2074 39.206 13.3504 48.1498 10.2931C58.7737 6.66159 65.2814 7.86866 70.4335 10.2931C90.9968 19.9698 97.4751 47.6396 85.3335 52.1925Z" fill="#FFFCF2"/>
<path d="M85.3335 52.1925C73.1919 56.7454 57.2561 49.9159 57.2561 38.5332C49.7393 36.1415 40.9826 39.8701 32.214 39.292C20.287 38.5057 9.62821 32.8604 14.0015 21.8385C16.0809 16.5978 22.9474 17.6212 28.4197 16.5267C35.0159 15.2074 39.206 13.3504 48.1498 10.2931C58.7737 6.66159 65.2814 7.86866 70.4335 10.2931C90.9968 19.9698 97.4751 47.6396 85.3335 52.1925Z" stroke="black" stroke-width="0.8" stroke-linecap="round"/>
<path d="M86.5656 33.3056C87.7843 38.6174 88.7994 44.1925 84.2889 46.9649C79.7785 49.7373 70.3215 44.1898 72.232 32.5651C73.633 24.0404 66.4716 18.7307 70.9271 16.994C75.7994 15.0948 84.7645 25.4547 86.5656 33.3056Z" fill="black" stroke="black" stroke-width="0.8"/>
<path d="M56.2626 13.7023C58.825 14.3731 60.3595 17.3872 59.5359 20.5332C58.7124 23.6793 55.898 25.5549 53.3355 24.8842C50.773 24.2134 49.2386 21.1994 50.0622 18.0533C50.8857 14.9072 53.7001 13.0316 56.2626 13.7023Z" fill="#FFFCF2" stroke="black" stroke-width="0.8"/>
<ellipse cx="53.0818" cy="18.507" rx="3" ry="3.5" transform="rotate(9.45912 53.0818 18.507)" fill="black"/>
</svg>
