<svg width="109" height="87" viewBox="0 0 109 87" fill="none" xmlns="http://www.w3.org/2000/svg">
<g clip-path="url(#clip0_535_1823)">
<path d="M49.6191 51.6605C52.509 50.2241 51.4927 38.7637 51.0426 35.1477L61.8552 38.8814C60.4951 44.9152 57.5738 60.6723 61.8989 62.1658C67.3052 64.0326 67.12 53.945 72.853 52.7027C77.6305 51.6675 79.3074 59.4063 81.1013 63.0687C82.8953 66.7311 84.5719 74.47 79.7947 75.5052C74.9224 76.5609 75.4609 69.3548 70.2642 68.4553C66.1701 67.7467 65.0633 72.6009 60.173 72.6675C55.1857 72.7354 55.3277 59.5386 48.6392 60.9879C43.7671 62.0436 42.9988 67.2739 45.0022 71.9037C47.0055 76.5335 44.3489 78.1219 40.5269 78.9501C36.7049 79.7783 32.2543 77.7043 28.2227 77.5652C24.1911 77.426 19.4645 73.1918 22.3046 68.7198C24.5421 65.1966 31.1135 67.8238 34.7258 66.0283C38.3382 64.2327 35.706 56.7009 39.1088 53.938C42.5115 51.1751 46.0068 53.4561 49.6191 51.6605Z" fill="black" stroke="black" stroke-width="0.8" stroke-linecap="round"/>
<path d="M86.3275 45.3602C75.4255 52.3811 58.4048 49.0813 55.9943 37.9567C48.1414 37.2111 40.373 42.7096 31.6808 44.0016C19.8579 45.7588 8.24531 42.4989 10.1853 30.8008C11.1077 25.2386 18.0351 24.7847 23.1516 22.5561C29.3188 19.8698 33.0205 17.1676 41.1141 12.2856C50.728 6.48662 57.3437 6.28817 62.8923 7.56658C85.0385 12.669 97.2296 38.3393 86.3275 45.3602Z" fill="#FFFCF2"/>
<path d="M86.3275 45.3602C75.4255 52.3811 58.4048 49.0813 55.9943 37.9567C48.1414 37.2111 40.373 42.7096 31.6808 44.0016C19.8579 45.7588 8.24531 42.4989 10.1853 30.8008C11.1077 25.2386 18.0351 24.7847 23.1516 22.5561C29.3188 19.8698 33.0205 17.1676 41.1141 12.2856C50.728 6.48662 57.3437 6.28817 62.8923 7.56658C85.0385 12.669 97.2296 38.3393 86.3275 45.3602Z" fill="black"/>
<path d="M86.3275 45.3602C75.4255 52.3811 58.4048 49.0813 55.9943 37.9567C48.1414 37.2111 40.373 42.7096 31.6808 44.0016C19.8579 45.7588 8.24531 42.4989 10.1853 30.8008C11.1077 25.2386 18.0351 24.7847 23.1516 22.5561C29.3188 19.8698 33.0205 17.1676 41.1141 12.2856C50.728 6.48662 57.3437 6.28817 62.8923 7.56658C85.0385 12.669 97.2296 38.3393 86.3275 45.3602Z" stroke="black" stroke-width="0.8" stroke-linecap="round"/>
<path d="M83.5318 26.6411C85.8477 31.5743 88.0205 36.808 84.1995 40.4727C80.3785 44.1374 69.9612 40.7185 69.3665 28.9528C68.9305 20.3248 60.807 16.6521 64.7937 14.0112C69.1533 11.1233 80.1089 19.3497 83.5318 26.6411Z" fill="#FFFCF2" stroke="#FFFCF2" stroke-width="0.8"/>
<path d="M49.7652 13.8992C52.4116 14.0122 54.5495 16.6329 54.4109 19.882C54.2723 23.1311 51.919 25.5602 49.2725 25.4473C46.6261 25.3344 44.4883 22.7137 44.6269 19.4646C44.7655 16.2154 47.1188 13.7863 49.7652 13.8992Z" fill="#FFFCF2" stroke="black" stroke-width="0.8"/>
<ellipse cx="47.6738" cy="19.2681" rx="3" ry="3.5" transform="rotate(-2.76712 47.6738 19.2681)" fill="black"/>
</g>
<defs>
<clipPath id="clip0_535_1823">
<rect width="109" height="87" fill="white"/>
</clipPath>
</defs>
</svg>
