<svg width="223" height="482" viewBox="0 0 223 482" fill="none" xmlns="http://www.w3.org/2000/svg">
<g clip-path="url(#clip0_1095_1002)">
<path d="M34.7036 357.703L191.725 357.703" stroke="black" stroke-linejoin="round"/>
<path d="M214.229 472.271L150.239 152.822C149.677 150.018 147.215 148 144.356 148H81.5616C78.7022 148 76.2401 150.018 75.6785 152.822L11.6877 472.271" stroke="black" stroke-linejoin="round"/>
<path d="M43.9094 358.213L83.8511 161.501C84.4189 158.704 86.8776 156.695 89.7311 156.695H137.207C140.061 156.695 142.519 158.704 143.087 161.501L183.029 358.213" stroke="black" stroke-linejoin="round"/>
<path d="M11.6873 472.271H214.229" stroke="black" stroke-linecap="round" stroke-linejoin="round"/>
<path d="M30.6116 472.271L31.9888 478.812C32.3785 480.663 34.0115 481.988 35.903 481.988H50.3821C52.2736 481.988 53.9066 480.663 54.2963 478.812L55.6735 472.271" stroke="black" stroke-linejoin="round"/>
<path d="M170.243 472.271L171.62 478.812C172.01 480.663 173.643 481.988 175.534 481.988H190.013C191.905 481.988 193.538 480.663 193.928 478.812L195.305 472.271" stroke="black" stroke-linejoin="round"/>
<path d="M100.959 169.5L100.959 337.244" stroke="black" stroke-linecap="round" stroke-linejoin="round"/>
<path d="M90.4531 337.754H100.683" stroke="black" stroke-linecap="square" stroke-linejoin="round"/>
<path d="M90.4531 319.854H100.683" stroke="black" stroke-linecap="square" stroke-linejoin="round"/>
<path d="M90.4531 304.508H100.683" stroke="black" stroke-linecap="square" stroke-linejoin="round"/>
<path d="M90.4531 290.165H100.683" stroke="black" stroke-linecap="square" stroke-linejoin="round"/>
<path d="M90.4531 274.798H100.683" stroke="black" stroke-linecap="square" stroke-linejoin="round"/>
<path d="M90.4531 261.544H100.683" stroke="black" stroke-linecap="square" stroke-linejoin="round"/>
<path d="M90.4531 251.294H100.683" stroke="black" stroke-linecap="square" stroke-linejoin="round"/>
<path d="M90.4531 243.11H100.683" stroke="black" stroke-linecap="square" stroke-linejoin="round"/>
<path d="M90.4531 234.925H100.683" stroke="black" stroke-linecap="square" stroke-linejoin="round"/>
<path d="M90.4531 226.741H100.683" stroke="black" stroke-linecap="square" stroke-linejoin="round"/>
<path d="M90.4531 218.558H100.683" stroke="black" stroke-linecap="square" stroke-linejoin="round"/>
<path d="M90.4531 210.374H100.683" stroke="black" stroke-linecap="square" stroke-linejoin="round"/>
<path d="M90.4531 202.19H100.683" stroke="black" stroke-linecap="square" stroke-linejoin="round"/>
<path d="M90.4531 194.03H100.683" stroke="black" stroke-linecap="square" stroke-linejoin="round"/>
<path d="M90.4531 186.894H100.683" stroke="black" stroke-linecap="square" stroke-linejoin="round"/>
<path d="M90.4531 180.71H100.683" stroke="black" stroke-linecap="square" stroke-linejoin="round"/>
<path d="M90.4531 174.571H100.683" stroke="black" stroke-linecap="square" stroke-linejoin="round"/>
<path d="M90.4531 169.505H100.683" stroke="black" stroke-linecap="square" stroke-linejoin="round"/>
<path d="M124.999 169.5L124.959 337.243" stroke="black" stroke-linecap="round" stroke-linejoin="round"/>
<path d="M135.463 337.754H125.234" stroke="black" stroke-linecap="square" stroke-linejoin="round"/>
<path d="M135.463 319.854H125.234" stroke="black" stroke-linecap="square" stroke-linejoin="round"/>
<path d="M135.463 304.508H125.234" stroke="black" stroke-linecap="square" stroke-linejoin="round"/>
<path d="M135.463 290.165H125.234" stroke="black" stroke-linecap="square" stroke-linejoin="round"/>
<path d="M135.463 274.798H125.234" stroke="black" stroke-linecap="square" stroke-linejoin="round"/>
<path d="M135.463 261.544H125.234" stroke="black" stroke-linecap="square" stroke-linejoin="round"/>
<path d="M135.463 251.294H125.234" stroke="black" stroke-linecap="square" stroke-linejoin="round"/>
<path d="M135.463 243.11H125.234" stroke="black" stroke-linecap="square" stroke-linejoin="round"/>
<path d="M135.463 234.925H125.234" stroke="black" stroke-linecap="square" stroke-linejoin="round"/>
<path d="M135.463 226.741H125.234" stroke="black" stroke-linecap="square" stroke-linejoin="round"/>
<path d="M135.463 218.558H125.234" stroke="black" stroke-linecap="square" stroke-linejoin="round"/>
<path d="M135.463 210.374H125.234" stroke="black" stroke-linecap="square" stroke-linejoin="round"/>
<path d="M135.463 202.19H125.234" stroke="black" stroke-linecap="square" stroke-linejoin="round"/>
<path d="M135.463 194.03H125.234" stroke="black" stroke-linecap="square" stroke-linejoin="round"/>
<path d="M135.463 187.894H125.234" stroke="black" stroke-linecap="square" stroke-linejoin="round"/>
<path d="M135.463 180.71H125.234" stroke="black" stroke-linecap="square" stroke-linejoin="round"/>
<path d="M135.463 174.571H125.234" stroke="black" stroke-linecap="square" stroke-linejoin="round"/>
<path d="M135.463 169.505H125.234" stroke="black" stroke-linecap="square" stroke-linejoin="round"/>
<path d="M102.382 347.168C101.695 349.227 102.311 352.75 103.065 354.26C104.665 357.463 107.867 357.007 109.011 357.007" stroke="black" stroke-linecap="round"/>
<path d="M114.926 340.29C121.56 337.549 124.938 339.677 126.401 342.605C127.863 345.534 125.407 348.735 124.644 349.497C122.598 351.541 120.347 352.975 117.483 354.612C114.619 356.248 110.493 356.998 108.789 357.169" stroke="black" stroke-linecap="round"/>
<path d="M102.65 348.471L48.4401 282.92L60.1395 272.871C77.3261 293.472 111.245 335.502 112.457 337.614C113.527 339.479 114.284 340.62 113.616 343.055C112.814 345.976 108.482 349.436 106.744 350.007C105.354 350.463 103.051 348.93 102.65 348.471Z" fill="#FFFCF2" stroke="#FFFCF2" stroke-linecap="round"/>
<path d="M17.2862 239.896C17.3444 240.973 18.3195 244.635 20.3236 248.155C22.3278 251.675 37.5776 272.185 45.5473 281.798C45.9135 282.239 47.1159 282.653 48.0133 282.475" stroke="#FFFCF2" stroke-linecap="round"/>
<path d="M31.3283 238.976C27.9238 235.92 23.8011 233.551 21.9184 232.681C19.6817 233.768 15.4487 238.861 17.5479 244.741C19.647 250.621 43.4204 279.951 46.4663 282.379C49.5121 284.806 59.2404 274.417 59.5111 273.431C60.0525 271.458 59.3577 272.126 58.6419 270.869C51.0752 261.72 34.7327 242.032 31.3283 238.976Z" fill="#FFFCF2" stroke="#FFFCF2" stroke-linecap="round"/>
<path d="M24.3418 227.714C24.689 229.773 23.3106 231.472 21.918 232.681L19.557 235.417C19.6445 237.033 18.1492 241.771 12.2365 240.834C7.66209 240.109 5.92111 234.858 6.28812 229.655C6.82316 222.07 11.7346 219.607 15.0307 219.123C16.631 218.888 16.0012 218.733 18.192 219.132C20.3828 219.531 23.7432 224.166 24.3418 227.714Z" fill="#FFFCF2"/>
<path d="M19.557 235.417C19.6445 237.033 18.1492 241.771 12.2365 240.834C7.66209 240.109 5.92111 234.858 6.28812 229.655C6.82316 222.07 11.7346 219.607 15.0307 219.123C16.631 218.888 16.0012 218.733 18.192 219.132M19.557 235.417C19.4772 233.945 18.1737 230.795 18.1737 230.795C18.1737 230.795 13.3111 230.733 13.7828 227.468C14.2544 224.203 16.0745 224.915 16.9256 225.679C17.3898 225.276 18.355 223.949 18.5018 221.868C18.6485 219.787 18.4771 219.381 18.192 219.132M19.557 235.417L21.918 232.681C23.3106 231.472 24.689 229.773 24.3418 227.714C23.7432 224.166 20.3828 219.531 18.192 219.132" stroke="#FFFCF2" stroke-linecap="round"/>
<path d="M47.3181 283.143L101.118 347.45C103.164 350.008 104.697 350.518 106.743 349.495C108.392 348.669 114.494 345.373 114.928 342.335C115.22 340.289 113.904 338.759 112.592 337.123C111.054 335.204 77.2675 293.329 59.9998 272.502" stroke="black" stroke-linecap="round"/>
<path d="M21.1734 247.92L48.5742 281.428C48.9772 281.892 50.6343 283.584 52.2493 283.497M52.2493 283.497C53.7815 283.415 59.2601 282.055 59.212 277.453C59.1731 273.729 40.3063 252.287 30.6504 240.444M52.2493 283.497C52.6072 284.126 53.5552 286.083 55.0253 286.911C56.8629 287.945 56.3698 287.81 56.5923 288.932C56.8147 290.053 56.9028 291.665 58.0245 291.443C58.922 291.265 58.8818 288.319 58.6142 287.362M59.57 278.081C61.0337 279.189 63.3324 281.765 64.0481 283.022C64.6139 284.016 64.7157 286.387 63.4585 287.103M58.9231 290.102C58.9231 290.102 59.927 290.695 60.5381 290.014C61.1493 289.333 60.5282 286.829 60.1413 285.662" stroke="black" stroke-width="0.8" stroke-linecap="round"/>
<path d="M60.9448 288.532C61.2736 288.622 62.1734 288.875 62.5599 288.445C63.3238 287.594 62.6692 285.469 62.163 284.093" stroke="black" stroke-width="0.8" stroke-linecap="round"/>
<path d="M16.3868 241.24C16.4449 242.317 17.0621 245.35 19.0663 248.87C21.0704 252.391 37.5108 272.495 45.4806 282.108C45.8468 282.549 47.5 283.502 48.9997 282.502" stroke="black" stroke-linecap="round"/>
<path d="M22.4111 232.816C24.2938 233.687 28.9103 236.191 32.3148 239.247C35.7192 242.303 51.7038 261.363 59.2705 270.511C60.09 271.502 59.9996 272.786 59.9996 273.502C59.9996 274.525 59.2096 275.384 59 275.503" stroke="black" stroke-linecap="round"/>
<path d="M19.4035 234.113C21.1539 233.532 24.674 231.528 24.7511 228.155C24.8291 224.741 22.7003 220.166 17.7679 218.813M17.7679 218.813C17.2743 218.677 16.7815 218.542 15.1663 218.63C9.66616 218.928 6.53504 222.417 6 230.002C5.63299 235.204 7.59551 240.418 12.1699 241.144C18.0826 242.081 19.5779 237.342 19.4904 235.727C19.4106 234.254 18.1071 231.105 18.1071 231.105C18.1071 231.105 13.2445 231.043 13.7162 227.778C14.1879 224.513 16.0079 225.225 16.859 225.989C17.3233 225.586 18.2884 224.259 18.4352 222.178C18.5819 220.097 18.0531 219.062 17.7679 218.813Z" stroke="black" stroke-linecap="round"/>
<circle cx="113.5" cy="407.5" r="28" stroke="black" stroke-linejoin="round"/>
<path d="M17.4736 208.457C19.4651 204.015 25.7461 193.475 34.9377 186.857C44.1293 180.239 52.555 177.972 55.6188 177.666" stroke="black" stroke-width="0.8" stroke-linecap="round" stroke-linejoin="round"/>
<path d="M20.6909 209.377C21.6101 207.539 22.3731 205.935 23.4484 204.322C24.5237 202.709 26.2059 201.105 27.125 200.645" stroke="black" stroke-width="0.8" stroke-linecap="round" stroke-linejoin="round"/>
<path d="M14.7168 207.08C15.5046 205.145 16.1586 203.456 17.0804 201.758C18.0021 200.06 19.4439 198.372 20.2318 197.888" stroke="black" stroke-width="0.8" stroke-linecap="round" stroke-linejoin="round"/>
<path d="M110.194 388.448C111.176 385.167 115.824 385.167 116.806 388.448C117.621 391.176 120.836 392.346 123.214 390.781C126.075 388.898 129.636 391.885 128.278 395.03C127.15 397.644 128.86 400.607 131.688 400.937C135.09 401.333 135.898 405.911 132.836 407.447C130.291 408.724 129.697 412.093 131.651 414.163C134.003 416.654 131.679 420.68 128.346 419.889C125.576 419.232 122.956 421.43 123.122 424.271C123.322 427.691 118.955 429.281 116.91 426.533C115.211 424.249 111.789 424.249 110.09 426.533C108.045 429.281 103.678 427.691 103.878 424.271C104.044 421.43 101.424 419.232 98.6543 419.889C95.3212 420.68 92.997 416.654 95.3486 414.163C97.3028 412.093 96.7085 408.724 94.1641 407.447C91.1023 405.911 91.9098 401.333 95.3125 400.937C98.1401 400.607 99.85 397.644 98.7217 395.03C97.3643 391.885 100.925 388.898 103.786 390.781C106.164 392.346 109.379 391.176 110.194 388.448Z" stroke="black" stroke-width="0.8"/>
<circle cx="113" cy="408" r="4.6" stroke="black" stroke-width="0.8"/>
<path d="M34.5816 410L36.8136 403.7H37.5426L39.7746 410H38.9736L38.4336 408.461H35.9316L35.4006 410H34.5816ZM36.1656 407.768H38.1906L37.3806 405.437C37.3596 405.377 37.3356 405.308 37.3086 405.23C37.2846 405.149 37.2606 405.071 37.2366 404.996C37.2126 404.918 37.1946 404.852 37.1826 404.798C37.1676 404.852 37.1481 404.918 37.1241 404.996C37.1031 405.071 37.0791 405.149 37.0521 405.23C37.0281 405.308 37.0056 405.377 36.9846 405.437L36.1656 407.768ZM42.9587 410.108C42.4817 410.108 42.0767 410.015 41.7437 409.829C41.4107 409.643 41.1422 409.394 40.9382 409.082C40.7342 408.767 40.5842 408.416 40.4882 408.029C40.3952 407.642 40.3487 407.249 40.3487 406.85C40.3487 406.454 40.3967 406.064 40.4927 405.68C40.5917 405.293 40.7447 404.942 40.9517 404.627C41.1587 404.312 41.4272 404.061 41.7572 403.875C42.0902 403.686 42.4907 403.592 42.9587 403.592C43.3457 403.592 43.6727 403.647 43.9397 403.758C44.2097 403.869 44.4287 404.012 44.5967 404.186C44.7677 404.357 44.8997 404.537 44.9927 404.726L44.2907 405.086C44.1917 404.939 44.0837 404.808 43.9667 404.694C43.8497 404.577 43.7102 404.486 43.5482 404.42C43.3862 404.354 43.1897 404.321 42.9587 404.321C42.6227 404.321 42.3392 404.397 42.1082 404.55C41.8772 404.703 41.6912 404.904 41.5502 405.153C41.4122 405.402 41.3117 405.675 41.2487 405.972C41.1887 406.269 41.1587 406.562 41.1587 406.85C41.1587 407.162 41.1932 407.468 41.2622 407.768C41.3312 408.068 41.4392 408.339 41.5862 408.582C41.7332 408.822 41.9192 409.014 42.1442 409.158C42.3722 409.299 42.6437 409.37 42.9587 409.37C43.3067 409.37 43.5857 409.296 43.7957 409.149C44.0057 408.999 44.1827 408.806 44.3267 408.569L45.0467 408.839C44.9387 409.073 44.7917 409.286 44.6057 409.478C44.4197 409.67 44.1902 409.823 43.9172 409.937C43.6472 410.051 43.3277 410.108 42.9587 410.108ZM45.7571 410L47.9891 403.7H48.7181L50.9501 410H50.1491L49.6091 408.461H47.1071L46.5761 410H45.7571ZM47.3411 407.768H49.3661L48.5561 405.437C48.5351 405.377 48.5111 405.308 48.4841 405.23C48.4601 405.149 48.4361 405.071 48.4121 404.996C48.3881 404.918 48.3701 404.852 48.3581 404.798C48.3431 404.852 48.3236 404.918 48.2996 404.996C48.2786 405.071 48.2546 405.149 48.2276 405.23C48.2036 405.308 48.1811 405.377 48.1601 405.437L47.3411 407.768ZM52.0227 410V403.7H53.7417C54.2817 403.7 54.7377 403.79 55.1097 403.97C55.4847 404.15 55.7862 404.391 56.0142 404.694C56.2422 404.994 56.4072 405.332 56.5092 405.707C56.6142 406.079 56.6667 406.46 56.6667 406.85C56.6667 407.213 56.6187 407.579 56.5227 407.948C56.4267 408.317 56.2662 408.657 56.0412 408.969C55.8192 409.278 55.5177 409.527 55.1367 409.716C54.7557 409.905 54.2787 410 53.7057 410H52.0227ZM52.8057 409.271H53.8047C54.1977 409.271 54.5247 409.2 54.7857 409.059C55.0497 408.915 55.2597 408.726 55.4157 408.492C55.5747 408.255 55.6872 407.994 55.7532 407.709C55.8222 407.421 55.8567 407.135 55.8567 406.85C55.8567 406.544 55.8192 406.247 55.7442 405.959C55.6722 405.668 55.5567 405.407 55.3977 405.176C55.2417 404.945 55.0407 404.762 54.7947 404.627C54.5487 404.489 54.2517 404.42 53.9037 404.42H52.8057V409.271ZM58.0235 410V403.7H61.7675V404.438H58.8065V406.373H60.7595V407.111H58.8065V409.253H61.9655V410H58.0235ZM65.9957 410.108L64.2857 406.13C64.2407 406.025 64.1927 405.911 64.1417 405.788C64.0937 405.662 64.0517 405.548 64.0157 405.446C64.0247 405.527 64.0307 405.635 64.0337 405.77C64.0397 405.902 64.0427 406.022 64.0427 406.13V410H63.2597V403.7H63.9977L65.8337 407.939C65.8607 408.005 65.8877 408.074 65.9147 408.146C65.9417 408.218 65.9687 408.29 65.9957 408.362C66.0197 408.293 66.0452 408.224 66.0722 408.155C66.0992 408.083 66.1277 408.011 66.1577 407.939L67.9847 403.7H68.7317V410H67.9487V406.13C67.9487 406.022 67.9502 405.9 67.9532 405.765C67.9592 405.627 67.9637 405.518 67.9667 405.437C67.9307 405.539 67.8857 405.656 67.8317 405.788C67.7807 405.92 67.7327 406.04 67.6877 406.148L65.9957 410.108ZM70.3679 410V403.7H71.1509V410H70.3679ZM72.228 410L74.46 403.7H75.189L77.421 410H76.62L76.08 408.461H73.578L73.047 410H72.228ZM73.812 407.768H75.837L75.027 405.437C75.006 405.377 74.982 405.308 74.955 405.23C74.931 405.149 74.907 405.071 74.883 404.996C74.859 404.918 74.841 404.852 74.829 404.798C74.814 404.852 74.7945 404.918 74.7705 404.996C74.7495 405.071 74.7255 405.149 74.6985 405.23C74.6745 405.308 74.652 405.377 74.631 405.437L73.812 407.768Z" fill="black"/>
<path d="M149.58 410V403.7H150.363V410H149.58ZM152.004 410V403.7H152.796L155.586 408.182C155.631 408.257 155.674 408.332 155.716 408.407C155.758 408.482 155.802 408.563 155.847 408.65C155.844 408.572 155.839 408.494 155.833 408.416C155.83 408.338 155.829 408.263 155.829 408.191V403.7H156.612V410H155.856L153.021 405.5C152.982 405.431 152.94 405.359 152.895 405.284C152.853 405.209 152.811 405.134 152.769 405.059C152.775 405.125 152.779 405.197 152.782 405.275C152.785 405.353 152.787 405.428 152.787 405.5V410H152.004ZM158.251 410V403.7H159.97C160.51 403.7 160.966 403.79 161.338 403.97C161.713 404.15 162.014 404.391 162.242 404.694C162.47 404.994 162.635 405.332 162.737 405.707C162.842 406.079 162.895 406.46 162.895 406.85C162.895 407.213 162.847 407.579 162.751 407.948C162.655 408.317 162.494 408.657 162.269 408.969C162.047 409.278 161.746 409.527 161.365 409.716C160.984 409.905 160.507 410 159.934 410H158.251ZM159.034 409.271H160.033C160.426 409.271 160.753 409.2 161.014 409.059C161.278 408.915 161.488 408.726 161.644 408.492C161.803 408.255 161.915 407.994 161.981 407.709C162.05 407.421 162.085 407.135 162.085 406.85C162.085 406.544 162.047 406.247 161.972 405.959C161.9 405.668 161.785 405.407 161.626 405.176C161.47 404.945 161.269 404.762 161.023 404.627C160.777 404.489 160.48 404.42 160.132 404.42H159.034V409.271ZM166.51 410.108C165.994 410.108 165.569 410.012 165.236 409.82C164.903 409.628 164.656 409.347 164.494 408.978C164.332 408.609 164.251 408.161 164.251 407.633V403.7H165.034V407.633C165.034 408.179 165.148 408.605 165.376 408.911C165.607 409.217 165.985 409.37 166.51 409.37C166.843 409.37 167.119 409.307 167.338 409.181C167.56 409.052 167.725 408.86 167.833 408.605C167.941 408.347 167.995 408.023 167.995 407.633V403.7H168.778V407.633C168.778 408.041 168.73 408.399 168.634 408.708C168.538 409.017 168.395 409.277 168.206 409.487C168.017 409.694 167.78 409.85 167.495 409.955C167.213 410.057 166.885 410.108 166.51 410.108ZM172.247 410.108C171.881 410.108 171.549 410.048 171.252 409.928C170.955 409.805 170.703 409.638 170.496 409.428C170.292 409.215 170.144 408.974 170.051 408.704L170.789 408.434C170.915 408.713 171.105 408.939 171.36 409.113C171.618 409.284 171.92 409.37 172.265 409.37C172.643 409.37 172.944 409.28 173.169 409.1C173.394 408.917 173.507 408.653 173.507 408.308C173.507 408.065 173.439 407.861 173.304 407.696C173.169 407.531 172.994 407.393 172.778 407.282C172.562 407.168 172.331 407.066 172.085 406.976C171.866 406.895 171.647 406.805 171.428 406.706C171.209 406.607 171.009 406.49 170.829 406.355C170.652 406.217 170.51 406.05 170.402 405.855C170.294 405.657 170.24 405.422 170.24 405.149C170.24 404.867 170.316 404.609 170.469 404.375C170.622 404.138 170.843 403.949 171.131 403.808C171.419 403.664 171.767 403.592 172.175 403.592C172.508 403.592 172.8 403.641 173.052 403.74C173.307 403.836 173.516 403.97 173.678 404.141C173.843 404.309 173.957 404.501 174.02 404.717L173.3 404.96C173.225 404.783 173.087 404.633 172.886 404.51C172.688 404.384 172.433 404.321 172.121 404.321C171.788 404.321 171.525 404.394 171.333 404.541C171.144 404.688 171.05 404.891 171.05 405.149C171.05 405.344 171.113 405.507 171.239 405.639C171.368 405.768 171.536 405.881 171.743 405.977C171.95 406.073 172.172 406.166 172.409 406.256C172.631 406.34 172.853 406.436 173.075 406.544C173.3 406.649 173.505 406.778 173.691 406.931C173.88 407.084 174.032 407.271 174.146 407.493C174.26 407.712 174.317 407.978 174.317 408.29C174.317 408.677 174.227 409.005 174.047 409.275C173.867 409.545 173.621 409.752 173.309 409.896C172.997 410.037 172.643 410.108 172.247 410.108ZM176.883 410V404.447H175.128V403.7H179.421V404.447H177.666V410H176.883ZM180.655 410V403.7H183.139C183.643 403.7 184.039 403.787 184.327 403.961C184.618 404.135 184.823 404.36 184.943 404.636C185.066 404.909 185.128 405.194 185.128 405.491C185.128 405.74 185.078 405.986 184.979 406.229C184.883 406.469 184.727 406.68 184.511 406.863C184.295 407.046 184.012 407.174 183.661 407.246L185.011 410H184.129L182.833 407.3H181.438V410H180.655ZM181.438 406.571H183.157C183.451 406.571 183.683 406.518 183.854 406.413C184.028 406.308 184.151 406.175 184.223 406.013C184.298 405.851 184.336 405.683 184.336 405.509C184.336 405.353 184.301 405.192 184.232 405.027C184.166 404.859 184.048 404.718 183.877 404.604C183.706 404.487 183.466 404.429 183.157 404.429H181.438V406.571ZM188.038 410V407.525L185.896 403.7H186.778L188.425 406.76L190.09 403.7H190.945L188.821 407.507V410H188.038Z" fill="black"/>
</g>
<defs>
<clipPath id="clip0_1095_1002">
<rect width="223" height="482" fill="white"/>
</clipPath>
</defs>
</svg>
