<svg width="149" height="482" viewBox="0 0 149 482" fill="none" xmlns="http://www.w3.org/2000/svg">
<path d="M72 482V55H8V482" stroke="black"/>
<path d="M59.7373 70.7471L59.7373 73.7002L46 80.3447L46 77.418L48.3115 76.3193L48.3115 68.2949L46 67.2314L46 64.2959L59.7373 70.7471ZM50.6055 75.2207L56.8457 72.25L50.6055 69.3584L50.6055 75.2207ZM59.7373 82.4805L59.7373 94.7676L57.2939 94.7676L57.2939 85.2666L53.6992 85.2666L53.6992 93.335L51.4053 93.335L51.4053 85.2666L46 85.2666L46 82.4805L59.7373 82.4805ZM59.7373 97.457L59.7373 109.744L57.2939 109.744L57.2939 100.243L53.6992 100.243L53.6992 108.312L51.4053 108.312L51.4053 100.243L46 100.243L46 97.457L59.7373 97.457ZM59.7373 112.434L59.7373 124.132L57.2939 124.132L57.2939 115.22L54.5518 115.22L54.5518 123.112L52.2578 123.112L52.2578 115.22L48.4346 115.22L48.4346 124.316L46 124.316L46 112.434L59.7373 112.434ZM52.9521 126.575C53.9307 126.575 54.8418 126.76 55.6855 127.129C56.5352 127.498 57.2705 128.031 57.8916 128.729C58.5186 129.432 59.0107 130.287 59.3682 131.295C59.7256 132.309 59.9043 133.454 59.9043 134.731C59.9043 135.851 59.79 136.876 59.5615 137.808C59.3389 138.745 58.9961 139.615 58.5332 140.418L56.4238 139.135C56.582 138.895 56.7227 138.616 56.8457 138.3C56.9687 137.989 57.0713 137.655 57.1533 137.298C57.2412 136.946 57.3086 136.58 57.3555 136.199C57.4023 135.824 57.4258 135.452 57.4258 135.083C57.4258 134.192 57.3145 133.398 57.0918 132.701C56.875 132.004 56.5674 131.415 56.1689 130.935C55.7764 130.46 55.3047 130.097 54.7539 129.845C54.209 129.599 53.6084 129.476 52.9521 129.476C52.2725 129.476 51.6484 129.604 51.0801 129.862C50.5117 130.12 50.0195 130.492 49.6035 130.979C49.1934 131.471 48.8711 132.068 48.6367 132.771C48.4082 133.48 48.2939 134.28 48.2939 135.171C48.2939 135.575 48.3232 135.977 48.3818 136.375C48.4404 136.773 48.5195 137.157 48.6191 137.526C48.7246 137.901 48.8477 138.262 48.9883 138.607C49.1348 138.953 49.293 139.275 49.4629 139.574L47.3535 140.857C46.873 140.107 46.4951 139.24 46.2197 138.256C45.9502 137.271 45.8154 136.226 45.8154 135.118C45.8154 133.706 45.9971 132.467 46.3603 131.4C46.7295 130.334 47.2334 129.443 47.8721 128.729C48.5166 128.014 49.2725 127.475 50.1396 127.111C51.0127 126.754 51.9502 126.575 52.9521 126.575ZM57.2939 148.073L57.2939 143.002L59.7373 143.002L59.7373 155.931L57.2939 155.931L57.2939 150.859L46 150.859L46 148.073L57.2939 148.073ZM59.7373 158.559L59.7373 161.362L46 161.362L46 158.559L59.7373 158.559ZM59.7373 163.085L59.7373 166.17L49.2607 170.485L59.7373 174.801L59.7373 177.886L46 171.865L46 169.105L59.7373 163.085ZM59.7373 178.114L59.7373 181.199L49.2607 185.515L59.7373 189.83L59.7373 192.915L46 186.895L46 184.135L59.7373 178.114ZM59.7373 194.98L59.7373 206.679L57.2939 206.679L57.2939 197.767L54.5518 197.767L54.5518 205.659L52.2578 205.659L52.2578 197.767L48.4346 197.767L48.4346 206.863L46 206.863L46 194.98L59.7373 194.98ZM52.9521 221.075C53.9307 221.075 54.8418 221.26 55.6855 221.629C56.5351 221.998 57.2705 222.531 57.8916 223.229C58.5185 223.932 59.0107 224.787 59.3682 225.795C59.7256 226.809 59.9043 227.954 59.9043 229.231C59.9043 230.351 59.79 231.376 59.5615 232.308C59.3389 233.245 58.9961 234.115 58.5332 234.918L56.4238 233.635C56.582 233.395 56.7226 233.116 56.8457 232.8C56.9687 232.489 57.0713 232.155 57.1533 231.798C57.2412 231.446 57.3086 231.08 57.3555 230.699C57.4023 230.324 57.4258 229.952 57.4258 229.583C57.4258 228.692 57.3144 227.898 57.0918 227.201C56.875 226.504 56.5674 225.915 56.1689 225.435C55.7764 224.96 55.3047 224.597 54.7539 224.345C54.209 224.099 53.6084 223.976 52.9521 223.976C52.2725 223.976 51.6484 224.104 51.0801 224.362C50.5117 224.62 50.0195 224.992 49.6035 225.479C49.1934 225.971 48.8711 226.568 48.6367 227.271C48.4082 227.98 48.2939 228.78 48.2939 229.671C48.2939 230.075 48.3232 230.477 48.3818 230.875C48.4404 231.273 48.5195 231.657 48.6191 232.026C48.7246 232.401 48.8476 232.762 48.9883 233.107C49.1348 233.453 49.293 233.775 49.4629 234.074L47.3535 235.357C46.873 234.607 46.4951 233.74 46.2197 232.756C45.9502 231.771 45.8154 230.726 45.8154 229.618C45.8154 228.206 45.9971 226.967 46.3603 225.9C46.7295 224.834 47.2334 223.943 47.8721 223.229C48.5166 222.514 49.2725 221.975 50.1396 221.611C51.0127 221.254 51.9502 221.075 52.9521 221.075ZM52.9082 237.625C53.9453 237.625 54.8945 237.815 55.7559 238.196C56.6172 238.577 57.3555 239.11 57.9707 239.796C58.5918 240.487 59.0723 241.313 59.4121 242.274C59.7519 243.241 59.9219 244.311 59.9219 245.482C59.9219 246.648 59.7519 247.715 59.4121 248.682C59.0723 249.648 58.5918 250.475 57.9707 251.16C57.3555 251.852 56.6172 252.388 55.7559 252.769C54.8945 253.149 53.9453 253.34 52.9082 253.34C51.8652 253.34 50.9072 253.149 50.0342 252.769C49.167 252.388 48.4199 251.852 47.793 251.16C47.166 250.475 46.6767 249.648 46.3252 248.682C45.9795 247.715 45.8066 246.648 45.8066 245.482C45.8066 244.311 45.9795 243.241 46.3252 242.274C46.6767 241.313 47.166 240.487 47.793 239.796C48.4199 239.11 49.167 238.577 50.0342 238.196C50.9072 237.815 51.8652 237.625 52.9082 237.625ZM52.9082 240.411C52.1992 240.411 51.5605 240.537 50.9922 240.789C50.4238 241.047 49.9375 241.401 49.5332 241.853C49.1348 242.31 48.8271 242.846 48.6103 243.461C48.3935 244.082 48.2851 244.756 48.2851 245.482C48.2851 246.209 48.3935 246.88 48.6103 247.495C48.8271 248.116 49.1348 248.652 49.5332 249.104C49.9375 249.555 50.4238 249.909 50.9922 250.167C51.5605 250.425 52.1992 250.554 52.9082 250.554C53.6172 250.554 54.2529 250.425 54.8154 250.167C55.3779 249.909 55.8525 249.555 56.2392 249.104C56.6318 248.652 56.9307 248.116 57.1357 247.495C57.3408 246.88 57.4434 246.209 57.4434 245.482C57.4434 244.756 57.3408 244.082 57.1357 243.461C56.9307 242.846 56.6318 242.31 56.2392 241.853C55.8525 241.401 55.3779 241.047 54.8154 240.789C54.2529 240.537 53.6172 240.411 52.9082 240.411ZM59.7373 256.442L59.7373 259.229L54.7275 264.221L59.7373 269.213L59.7373 271.999L46 271.999L46 269.213L55.8789 269.213L51.0713 264.221L55.8789 259.229L46 259.229L46 256.442L59.7373 256.442ZM59.7373 275.91L59.7373 283.152C59.7373 284.207 59.623 285.121 59.3945 285.895C59.166 286.668 58.835 287.31 58.4014 287.819C57.9736 288.329 57.4492 288.707 56.8281 288.953C56.207 289.205 55.5068 289.331 54.7275 289.331C53.9951 289.331 53.3183 289.208 52.6973 288.962C52.0762 288.716 51.5371 288.338 51.0801 287.828C50.6289 287.324 50.2744 286.686 50.0166 285.912C49.7646 285.139 49.6387 284.225 49.6387 283.17L49.6475 278.696L46 278.696L46 275.91L59.7373 275.91ZM52.0557 283.223C52.0557 283.75 52.1172 284.21 52.2402 284.603C52.3691 285.001 52.5478 285.332 52.7764 285.596C53.0107 285.865 53.292 286.064 53.6201 286.193C53.9541 286.328 54.3232 286.396 54.7275 286.396C55.542 286.396 56.1748 286.129 56.626 285.596C57.083 285.068 57.3115 284.277 57.3115 283.223L57.3115 278.696L52.0557 278.696L52.0557 283.223ZM59.7373 291.862L59.7373 294.648L52.1699 294.648C51.5488 294.648 50.9951 294.733 50.5088 294.903C50.0283 295.073 49.6211 295.325 49.2871 295.659C48.9531 295.999 48.6982 296.418 48.5225 296.916C48.3525 297.414 48.2676 297.994 48.2676 298.656C48.2676 299.312 48.3525 299.89 48.5225 300.388C48.6982 300.892 48.9531 301.311 49.2871 301.645C49.6211 301.984 50.0283 302.239 50.5088 302.409C50.9951 302.579 51.5488 302.664 52.1699 302.664L59.7373 302.664L59.7373 305.45L51.8359 305.45C50.9336 305.45 50.1133 305.298 49.375 304.993C48.6367 304.688 48.0039 304.246 47.4766 303.666C46.9492 303.086 46.542 302.374 46.2549 301.53C45.9678 300.692 45.8242 299.734 45.8242 298.656C45.8242 297.578 45.9678 296.617 46.2549 295.773C46.542 294.936 46.9492 294.227 47.4766 293.646C48.0039 293.066 48.6367 292.624 49.375 292.319C50.1133 292.015 50.9336 291.862 51.8359 291.862L59.7373 291.862ZM57.2939 312.991L57.2939 307.92L59.7373 307.92L59.7373 320.849L57.2939 320.849L57.2939 315.777L46 315.777L46 312.991L57.2939 312.991ZM59.7373 323.477L59.7373 326.28L46 326.28L46 323.477L59.7373 323.477ZM59.7373 329.822L59.7373 332.608L55.2549 341.169L59.7373 341.169L59.7373 343.955L46 343.955L46 341.169L52.3017 341.169L56.7578 332.608L46 332.608L46 329.822L59.7373 329.822ZM52.9961 346.899C53.9629 346.899 54.8652 347.081 55.7031 347.444C56.5469 347.808 57.2793 348.338 57.9004 349.035C58.5215 349.732 59.0107 350.588 59.3682 351.602C59.7256 352.621 59.9043 353.787 59.9043 355.1C59.9043 355.574 59.8779 356.049 59.8252 356.523C59.7783 357.004 59.7021 357.476 59.5967 357.938C59.4912 358.407 59.3564 358.861 59.1924 359.301C59.0342 359.746 58.8437 360.168 58.6211 360.566L56.5117 359.283C56.6523 359.043 56.7783 358.771 56.8896 358.466C57.0068 358.161 57.1035 357.833 57.1797 357.481C57.2617 357.136 57.3232 356.775 57.3642 356.4C57.4053 356.031 57.4258 355.659 57.4258 355.284C57.4258 354.417 57.3144 353.644 57.0918 352.964C56.875 352.284 56.5674 351.71 56.1689 351.241C55.7764 350.772 55.3047 350.415 54.7539 350.169C54.2031 349.923 53.5996 349.8 52.9433 349.8C52.2637 349.8 51.6396 349.929 51.0713 350.187C50.5029 350.444 50.0137 350.811 49.6035 351.285C49.1933 351.76 48.8711 352.334 48.6367 353.008C48.4082 353.682 48.2939 354.435 48.2939 355.267C48.2939 355.929 48.3672 356.535 48.5137 357.086C48.666 357.637 48.8799 358.117 49.1553 358.527C49.4307 358.937 49.7617 359.271 50.1484 359.529C50.541 359.787 50.9805 359.957 51.4668 360.039L51.4668 355.24L53.7607 355.24L53.7607 362.544L53.7519 362.544L53.7607 362.553C53.0576 362.699 52.3721 362.743 51.7041 362.685C51.042 362.632 50.415 362.479 49.8232 362.228C49.2373 361.981 48.6982 361.642 48.206 361.208C47.7139 360.774 47.289 360.256 46.9316 359.652C46.5801 359.049 46.3047 358.363 46.1055 357.596C45.9121 356.828 45.8154 355.987 45.8154 355.073C45.8154 353.796 46.0029 352.65 46.3779 351.637C46.7529 350.629 47.2656 349.773 47.916 349.07C48.5664 348.367 49.3281 347.828 50.2012 347.453C51.0742 347.084 52.0058 346.899 52.9961 346.899Z" fill="black"/>
<path d="M33.7373 70.7471L33.7373 73.7002L20 80.3447L20 77.418L22.3115 76.3193L22.3115 68.2949L20 67.2314L20 64.2959L33.7373 70.7471ZM24.6055 75.2207L30.8457 72.25L24.6055 69.3584L24.6055 75.2207ZM33.7373 82.4805L33.7373 94.7676L31.2939 94.7676L31.2939 85.2666L27.6992 85.2666L27.6992 93.335L25.4053 93.335L25.4053 85.2666L20 85.2666L20 82.4805L33.7373 82.4805ZM33.7373 97.457L33.7373 109.744L31.2939 109.744L31.2939 100.243L27.6992 100.243L27.6992 108.312L25.4053 108.312L25.4053 100.243L20 100.243L20 97.457L33.7373 97.457ZM33.7373 112.434L33.7373 124.132L31.2939 124.132L31.2939 115.22L28.5518 115.22L28.5518 123.112L26.2578 123.112L26.2578 115.22L22.4346 115.22L22.4346 124.316L20 124.316L20 112.434L33.7373 112.434ZM26.9521 126.575C27.9307 126.575 28.8418 126.76 29.6855 127.129C30.5352 127.498 31.2705 128.031 31.8916 128.729C32.5186 129.432 33.0107 130.287 33.3682 131.295C33.7256 132.309 33.9043 133.454 33.9043 134.731C33.9043 135.851 33.79 136.876 33.5615 137.808C33.3389 138.745 32.9961 139.615 32.5332 140.418L30.4238 139.135C30.582 138.895 30.7227 138.616 30.8457 138.3C30.9687 137.989 31.0713 137.655 31.1533 137.298C31.2412 136.946 31.3086 136.58 31.3555 136.199C31.4023 135.824 31.4258 135.452 31.4258 135.083C31.4258 134.192 31.3145 133.398 31.0918 132.701C30.875 132.004 30.5674 131.415 30.1689 130.935C29.7764 130.46 29.3047 130.097 28.7539 129.845C28.209 129.599 27.6084 129.476 26.9521 129.476C26.2725 129.476 25.6484 129.604 25.0801 129.862C24.5117 130.12 24.0195 130.492 23.6035 130.979C23.1934 131.471 22.8711 132.068 22.6367 132.771C22.4082 133.48 22.2939 134.28 22.2939 135.171C22.2939 135.575 22.3232 135.977 22.3818 136.375C22.4404 136.773 22.5195 137.157 22.6191 137.526C22.7246 137.901 22.8477 138.262 22.9883 138.607C23.1348 138.953 23.293 139.275 23.4629 139.574L21.3535 140.857C20.873 140.107 20.4951 139.24 20.2197 138.256C19.9502 137.271 19.8154 136.226 19.8154 135.118C19.8154 133.706 19.9971 132.467 20.3603 131.4C20.7295 130.334 21.2334 129.443 21.8721 128.729C22.5166 128.014 23.2725 127.475 24.1396 127.111C25.0127 126.754 25.9502 126.575 26.9521 126.575ZM31.2939 148.073L31.2939 143.002L33.7373 143.002L33.7373 155.931L31.2939 155.931L31.2939 150.859L20 150.859L20 148.073L31.2939 148.073ZM33.7373 158.559L33.7373 161.362L20 161.362L20 158.559L33.7373 158.559ZM33.7373 163.085L33.7373 166.17L23.2607 170.485L33.7373 174.801L33.7373 177.886L20 171.865L20 169.105L33.7373 163.085ZM33.7373 178.114L33.7373 181.199L23.2607 185.515L33.7373 189.83L33.7373 192.915L20 186.895L20 184.135L33.7373 178.114ZM33.7373 194.98L33.7373 206.679L31.2939 206.679L31.2939 197.767L28.5518 197.767L28.5518 205.659L26.2578 205.659L26.2578 197.767L22.4346 197.767L22.4346 206.863L20 206.863L20 194.98L33.7373 194.98ZM26.9521 221.075C27.9307 221.075 28.8418 221.26 29.6855 221.629C30.5351 221.998 31.2705 222.531 31.8916 223.229C32.5185 223.932 33.0107 224.787 33.3682 225.795C33.7256 226.809 33.9043 227.954 33.9043 229.231C33.9043 230.351 33.79 231.376 33.5615 232.308C33.3389 233.245 32.9961 234.115 32.5332 234.918L30.4238 233.635C30.582 233.395 30.7226 233.116 30.8457 232.8C30.9687 232.489 31.0713 232.155 31.1533 231.798C31.2412 231.446 31.3086 231.08 31.3555 230.699C31.4023 230.324 31.4258 229.952 31.4258 229.583C31.4258 228.692 31.3144 227.898 31.0918 227.201C30.875 226.504 30.5674 225.915 30.1689 225.435C29.7764 224.96 29.3047 224.597 28.7539 224.345C28.209 224.099 27.6084 223.976 26.9521 223.976C26.2725 223.976 25.6484 224.104 25.0801 224.362C24.5117 224.62 24.0195 224.992 23.6035 225.479C23.1934 225.971 22.8711 226.568 22.6367 227.271C22.4082 227.98 22.2939 228.78 22.2939 229.671C22.2939 230.075 22.3232 230.477 22.3818 230.875C22.4404 231.273 22.5195 231.657 22.6191 232.026C22.7246 232.401 22.8476 232.762 22.9883 233.107C23.1348 233.453 23.293 233.775 23.4629 234.074L21.3535 235.357C20.873 234.607 20.4951 233.74 20.2197 232.756C19.9502 231.771 19.8154 230.726 19.8154 229.618C19.8154 228.206 19.9971 226.967 20.3603 225.9C20.7295 224.834 21.2334 223.943 21.8721 223.229C22.5166 222.514 23.2725 221.975 24.1396 221.611C25.0127 221.254 25.9502 221.075 26.9521 221.075ZM26.9082 237.625C27.9453 237.625 28.8945 237.815 29.7559 238.196C30.6172 238.577 31.3555 239.11 31.9707 239.796C32.5918 240.487 33.0723 241.313 33.4121 242.274C33.7519 243.241 33.9219 244.311 33.9219 245.482C33.9219 246.648 33.7519 247.715 33.4121 248.682C33.0723 249.648 32.5918 250.475 31.9707 251.16C31.3555 251.852 30.6172 252.388 29.7559 252.769C28.8945 253.149 27.9453 253.34 26.9082 253.34C25.8652 253.34 24.9072 253.149 24.0342 252.769C23.167 252.388 22.4199 251.852 21.793 251.16C21.166 250.475 20.6767 249.648 20.3252 248.682C19.9795 247.715 19.8066 246.648 19.8066 245.482C19.8066 244.311 19.9795 243.241 20.3252 242.274C20.6767 241.313 21.166 240.487 21.793 239.796C22.4199 239.11 23.167 238.577 24.0342 238.196C24.9072 237.815 25.8652 237.625 26.9082 237.625ZM26.9082 240.411C26.1992 240.411 25.5605 240.537 24.9922 240.789C24.4238 241.047 23.9375 241.401 23.5332 241.853C23.1348 242.31 22.8271 242.846 22.6103 243.461C22.3935 244.082 22.2851 244.756 22.2851 245.482C22.2851 246.209 22.3935 246.88 22.6103 247.495C22.8271 248.116 23.1348 248.652 23.5332 249.104C23.9375 249.555 24.4238 249.909 24.9922 250.167C25.5605 250.425 26.1992 250.554 26.9082 250.554C27.6172 250.554 28.2529 250.425 28.8154 250.167C29.3779 249.909 29.8525 249.555 30.2392 249.104C30.6318 248.652 30.9307 248.116 31.1357 247.495C31.3408 246.88 31.4434 246.209 31.4434 245.482C31.4434 244.756 31.3408 244.082 31.1357 243.461C30.9307 242.846 30.6318 242.31 30.2392 241.853C29.8525 241.401 29.3779 241.047 28.8154 240.789C28.2529 240.537 27.6172 240.411 26.9082 240.411ZM33.7373 256.442L33.7373 259.229L28.7275 264.221L33.7373 269.213L33.7373 271.999L20 271.999L20 269.213L29.8789 269.213L25.0713 264.221L29.8789 259.229L20 259.229L20 256.442L33.7373 256.442ZM33.7373 275.91L33.7373 283.152C33.7373 284.207 33.623 285.121 33.3945 285.895C33.166 286.668 32.835 287.31 32.4014 287.819C31.9736 288.329 31.4492 288.707 30.8281 288.953C30.207 289.205 29.5068 289.331 28.7275 289.331C27.9951 289.331 27.3183 289.208 26.6973 288.962C26.0762 288.716 25.5371 288.338 25.0801 287.828C24.6289 287.324 24.2744 286.686 24.0166 285.912C23.7646 285.139 23.6387 284.225 23.6387 283.17L23.6475 278.696L20 278.696L20 275.91L33.7373 275.91ZM26.0557 283.223C26.0557 283.75 26.1172 284.21 26.2402 284.603C26.3691 285.001 26.5478 285.332 26.7764 285.596C27.0107 285.865 27.292 286.064 27.6201 286.193C27.9541 286.328 28.3232 286.396 28.7275 286.396C29.542 286.396 30.1748 286.129 30.626 285.596C31.083 285.068 31.3115 284.277 31.3115 283.223L31.3115 278.696L26.0557 278.696L26.0557 283.223ZM33.7373 291.862L33.7373 294.648L26.1699 294.648C25.5488 294.648 24.9951 294.733 24.5088 294.903C24.0283 295.073 23.6211 295.325 23.2871 295.659C22.9531 295.999 22.6982 296.418 22.5225 296.916C22.3525 297.414 22.2676 297.994 22.2676 298.656C22.2676 299.312 22.3525 299.89 22.5225 300.388C22.6982 300.892 22.9531 301.311 23.2871 301.645C23.6211 301.984 24.0283 302.239 24.5088 302.409C24.9951 302.579 25.5488 302.664 26.1699 302.664L33.7373 302.664L33.7373 305.45L25.8359 305.45C24.9336 305.45 24.1133 305.298 23.375 304.993C22.6367 304.688 22.0039 304.246 21.4766 303.666C20.9492 303.086 20.542 302.374 20.2549 301.53C19.9678 300.692 19.8242 299.734 19.8242 298.656C19.8242 297.578 19.9678 296.617 20.2549 295.773C20.542 294.936 20.9492 294.227 21.4766 293.646C22.0039 293.066 22.6367 292.624 23.375 292.319C24.1133 292.015 24.9336 291.862 25.8359 291.862L33.7373 291.862ZM31.2939 312.991L31.2939 307.92L33.7373 307.92L33.7373 320.849L31.2939 320.849L31.2939 315.777L20 315.777L20 312.991L31.2939 312.991ZM33.7373 323.477L33.7373 326.28L20 326.28L20 323.477L33.7373 323.477ZM33.7373 329.822L33.7373 332.608L29.2549 341.169L33.7373 341.169L33.7373 343.955L20 343.955L20 341.169L26.3017 341.169L30.7578 332.608L20 332.608L20 329.822L33.7373 329.822ZM26.9961 346.899C27.9629 346.899 28.8652 347.081 29.7031 347.444C30.5469 347.808 31.2793 348.338 31.9004 349.035C32.5215 349.732 33.0107 350.588 33.3682 351.602C33.7256 352.621 33.9043 353.787 33.9043 355.1C33.9043 355.574 33.8779 356.049 33.8252 356.523C33.7783 357.004 33.7021 357.476 33.5967 357.938C33.4912 358.407 33.3564 358.861 33.1924 359.301C33.0342 359.746 32.8437 360.168 32.6211 360.566L30.5117 359.283C30.6523 359.043 30.7783 358.771 30.8896 358.466C31.0068 358.161 31.1035 357.833 31.1797 357.481C31.2617 357.136 31.3232 356.775 31.3642 356.4C31.4053 356.031 31.4258 355.659 31.4258 355.284C31.4258 354.417 31.3144 353.644 31.0918 352.964C30.875 352.284 30.5674 351.71 30.1689 351.241C29.7764 350.772 29.3047 350.415 28.7539 350.169C28.2031 349.923 27.5996 349.8 26.9433 349.8C26.2637 349.8 25.6396 349.929 25.0713 350.187C24.5029 350.444 24.0137 350.811 23.6035 351.285C23.1933 351.76 22.8711 352.334 22.6367 353.008C22.4082 353.682 22.2939 354.435 22.2939 355.267C22.2939 355.929 22.3672 356.535 22.5137 357.086C22.666 357.637 22.8799 358.117 23.1553 358.527C23.4307 358.937 23.7617 359.271 24.1484 359.529C24.541 359.787 24.9805 359.957 25.4668 360.039L25.4668 355.24L27.7607 355.24L27.7607 362.544L27.7519 362.544L27.7607 362.553C27.0576 362.699 26.3721 362.743 25.7041 362.685C25.042 362.632 24.415 362.479 23.8232 362.228C23.2373 361.981 22.6982 361.642 22.206 361.208C21.7139 360.774 21.289 360.256 20.9316 359.652C20.5801 359.049 20.3047 358.363 20.1055 357.596C19.9121 356.828 19.8154 355.987 19.8154 355.073C19.8154 353.796 20.0029 352.65 20.3779 351.637C20.7529 350.629 21.2656 349.773 21.916 349.07C22.5664 348.367 23.3281 347.828 24.2012 347.453C25.0742 347.084 26.0058 346.899 26.9961 346.899Z" fill="black"/>
<path d="M27.075 447H25.825V440.75H27.075V443.25H29.575V440.75H30.825V447H29.575V444.5H27.075V447ZM33.225 447V445.75H31.975V442H33.225V445.75H34.475V442H35.725V447H33.225ZM38.125 447H36.875V442H41.875V443.25H40.625V447H39.375V443.25H38.125V447ZM43.125 447H41.875V443.25H43.125V447ZM45.525 447V445.75H44.275V443.25H45.525V445.75H46.775V443.25H45.525V442H48.025V447H45.525ZM50.425 447H49.175V442H51.675V443.25H50.425V447ZM52.925 447H51.675V443.25H52.925V447ZM27.125 460H25.875V453.75H30.875V455H27.125V456.25H29.625V457.5H27.125V460ZM33.275 460V458.75H32.025V456.25H33.275V458.75H34.525V456.25H33.275V455H35.775V460H33.275ZM38.175 456.25V455H40.675V456.25H38.175ZM38.175 458.75H36.925V456.25H38.175V458.75ZM38.175 460V458.75H40.675V460H38.175ZM43.075 458.75H41.825V453.75H43.075V455H44.325V456.25H43.075V458.75ZM43.075 460V458.75H44.325V460H43.075ZM46.725 456.25V455H47.975V456.25H46.725ZM46.725 458.75H45.475V456.25H46.725V458.75ZM49.225 458.75H47.975V456.25H49.225V458.75ZM47.975 458.75V460H46.725V458.75H47.975ZM51.625 460H50.375V455H52.875V456.25H51.625V460Z" fill="black"/>
<path d="M142 482V25C142 23.3431 140.657 22 139 22H87C85.3431 22 84 23.3432 84 25V482" stroke="black"/>
<path d="M93.6647 42C93.6287 42 93.5987 41.988 93.5747 41.964C93.5507 41.94 93.5387 41.91 93.5387 41.874V36.069C93.5387 35.979 93.5687 35.904 93.6287 35.844C93.6947 35.778 93.7727 35.745 93.8627 35.745H95.3747C95.7407 35.745 96.0707 35.832 96.3647 36.006C96.6587 36.18 96.8927 36.414 97.0667 36.708C97.2467 36.996 97.3367 37.32 97.3367 37.68C97.3367 38.034 97.2467 38.358 97.0667 38.652C96.8927 38.946 96.6587 39.18 96.3647 39.354C96.0707 39.528 95.7407 39.615 95.3747 39.615H94.2767V41.874C94.2767 41.91 94.2647 41.94 94.2407 41.964C94.2167 41.988 94.1867 42 94.1507 42H93.6647ZM94.2767 38.922H95.3297C95.5637 38.922 95.7737 38.868 95.9597 38.76C96.1517 38.646 96.3017 38.496 96.4097 38.31C96.5237 38.118 96.5807 37.908 96.5807 37.68C96.5807 37.452 96.5237 37.245 96.4097 37.059C96.3017 36.867 96.1517 36.717 95.9597 36.609C95.7737 36.495 95.5637 36.438 95.3297 36.438H94.2767V38.922ZM100.186 42C99.8265 42 99.4965 41.913 99.1965 41.739C98.9025 41.559 98.6685 41.322 98.4945 41.028C98.3205 40.728 98.2335 40.398 98.2335 40.038V38.751C98.2335 38.385 98.3205 38.055 98.4945 37.761C98.6685 37.467 98.9025 37.233 99.1965 37.059C99.4965 36.879 99.8265 36.789 100.186 36.789C100.546 36.789 100.873 36.879 101.167 37.059C101.461 37.233 101.695 37.467 101.869 37.761C102.049 38.055 102.139 38.385 102.139 38.751V39.363C102.139 39.453 102.106 39.531 102.04 39.597C101.98 39.657 101.905 39.687 101.815 39.687H98.9355V40.083C98.9355 40.311 98.9895 40.521 99.0975 40.713C99.2115 40.905 99.3615 41.058 99.5475 41.172C99.7395 41.28 99.9525 41.334 100.186 41.334H101.491C101.527 41.334 101.557 41.346 101.581 41.37C101.605 41.394 101.617 41.424 101.617 41.46V41.874C101.617 41.91 101.605 41.94 101.581 41.964C101.557 41.988 101.527 42 101.491 42H100.186ZM98.9355 39.039H101.437V38.706C101.437 38.472 101.38 38.262 101.266 38.076C101.158 37.884 101.008 37.734 100.816 37.626C100.63 37.512 100.42 37.455 100.186 37.455C99.9525 37.455 99.7395 37.512 99.5475 37.626C99.3615 37.734 99.2115 37.884 99.0975 38.076C98.9895 38.262 98.9355 38.472 98.9355 38.706V39.039ZM103.1 42C103.064 42 103.034 41.988 103.01 41.964C102.986 41.94 102.974 41.91 102.974 41.874V41.46C102.974 41.424 102.986 41.394 103.01 41.37C103.034 41.346 103.064 41.334 103.1 41.334H103.847V37.545H103.1C103.064 37.545 103.034 37.533 103.01 37.509C102.986 37.485 102.974 37.455 102.974 37.419V37.032C102.974 36.996 102.986 36.966 103.01 36.942C103.034 36.918 103.064 36.906 103.1 36.906H104.225C104.315 36.906 104.39 36.939 104.45 37.005C104.516 37.065 104.549 37.14 104.549 37.23V37.68L105.071 37.275C105.299 37.101 105.479 36.987 105.611 36.933C105.743 36.879 105.881 36.852 106.025 36.852H106.295C106.337 36.852 106.367 36.864 106.385 36.888C106.409 36.912 106.421 36.942 106.421 36.978V37.419C106.421 37.455 106.409 37.485 106.385 37.509C106.361 37.533 106.331 37.545 106.295 37.545H106.097C106.007 37.545 105.917 37.557 105.827 37.581C105.743 37.605 105.644 37.653 105.53 37.725C105.416 37.791 105.266 37.899 105.08 38.049L104.549 38.472V41.334H105.593C105.629 41.334 105.659 41.346 105.683 41.37C105.707 41.394 105.719 41.424 105.719 41.46V41.874C105.719 41.91 105.707 41.94 105.683 41.964C105.659 41.988 105.629 42 105.593 42H103.1ZM109.456 42H108.943C108.859 42 108.802 41.961 108.772 41.883L107.08 37.104C107.074 37.092 107.071 37.071 107.071 37.041C107.071 37.005 107.083 36.975 107.107 36.951C107.137 36.921 107.173 36.906 107.215 36.906H107.629C107.713 36.906 107.77 36.945 107.8 37.023L109.222 41.127L110.617 37.023C110.647 36.945 110.704 36.906 110.788 36.906H111.184C111.226 36.906 111.259 36.918 111.283 36.942C111.307 36.96 111.322 36.984 111.328 37.014C111.328 37.026 111.328 37.041 111.328 37.059C111.328 37.077 111.325 37.092 111.319 37.104L109.627 41.883C109.597 41.961 109.54 42 109.456 42ZM113.492 42.117C113.186 42.117 112.913 42.06 112.673 41.946C112.439 41.826 112.253 41.658 112.115 41.442C111.983 41.226 111.917 40.977 111.917 40.695C111.917 40.299 112.052 39.972 112.322 39.714C112.592 39.456 112.964 39.294 113.438 39.228C113.582 39.204 113.717 39.186 113.843 39.174C113.975 39.156 114.104 39.138 114.23 39.12C114.356 39.102 114.482 39.084 114.608 39.066C114.782 39.036 114.908 38.976 114.986 38.886C115.064 38.796 115.103 38.664 115.103 38.49V38.418C115.103 38.124 114.989 37.89 114.761 37.716C114.533 37.542 114.254 37.455 113.924 37.455C113.654 37.455 113.42 37.509 113.222 37.617C113.03 37.725 112.88 37.869 112.772 38.049C112.724 38.127 112.664 38.166 112.592 38.166C112.556 38.166 112.517 38.151 112.475 38.121L112.232 37.959C112.178 37.911 112.151 37.86 112.151 37.806C112.151 37.782 112.16 37.752 112.178 37.716C112.346 37.434 112.58 37.209 112.88 37.041C113.186 36.873 113.54 36.789 113.942 36.789C114.308 36.789 114.629 36.858 114.905 36.996C115.181 37.128 115.397 37.317 115.553 37.563C115.709 37.803 115.787 38.088 115.787 38.418V41.874C115.787 41.91 115.775 41.94 115.751 41.964C115.727 41.988 115.697 42 115.661 42H115.283C115.199 42 115.157 41.958 115.157 41.874V41.253C114.971 41.523 114.734 41.736 114.446 41.892C114.158 42.042 113.84 42.117 113.492 42.117ZM113.564 41.487C113.876 41.487 114.149 41.406 114.383 41.244C114.617 41.082 114.8 40.884 114.932 40.65C115.064 40.41 115.13 40.182 115.13 39.966V39.597C114.95 39.615 114.782 39.636 114.626 39.66C114.47 39.678 114.302 39.702 114.122 39.732C113.948 39.756 113.738 39.786 113.492 39.822C112.892 39.912 112.592 40.194 112.592 40.668C112.592 40.914 112.682 41.112 112.862 41.262C113.042 41.412 113.276 41.487 113.564 41.487ZM118.404 42.09C118.134 42.09 117.864 42.054 117.594 41.982C117.33 41.91 117.102 41.805 116.91 41.667C116.856 41.637 116.841 41.589 116.865 41.523C116.895 41.457 116.925 41.394 116.955 41.334C116.991 41.268 117.024 41.205 117.054 41.145C117.084 41.097 117.123 41.073 117.171 41.073C117.183 41.073 117.195 41.076 117.207 41.082C117.219 41.082 117.231 41.085 117.243 41.091C117.417 41.193 117.603 41.28 117.801 41.352C117.999 41.418 118.212 41.451 118.44 41.451C118.752 41.451 119.001 41.382 119.187 41.244C119.373 41.1 119.466 40.899 119.466 40.641C119.466 40.479 119.424 40.35 119.34 40.254C119.256 40.152 119.133 40.065 118.971 39.993C118.815 39.921 118.626 39.843 118.404 39.759C118.092 39.639 117.819 39.519 117.585 39.399C117.357 39.273 117.18 39.117 117.054 38.931C116.928 38.745 116.865 38.502 116.865 38.202C116.865 37.878 116.937 37.611 117.081 37.401C117.231 37.191 117.429 37.038 117.675 36.942C117.927 36.84 118.203 36.789 118.503 36.789C118.761 36.789 119.013 36.825 119.259 36.897C119.505 36.969 119.727 37.071 119.925 37.203C119.979 37.239 119.991 37.287 119.961 37.347C119.931 37.407 119.901 37.467 119.871 37.527C119.841 37.587 119.811 37.65 119.781 37.716C119.763 37.764 119.727 37.788 119.673 37.788C119.643 37.788 119.622 37.782 119.61 37.77C119.436 37.668 119.256 37.587 119.07 37.527C118.884 37.461 118.695 37.428 118.503 37.428C118.209 37.428 117.978 37.491 117.81 37.617C117.648 37.737 117.567 37.92 117.567 38.166C117.567 38.364 117.615 38.52 117.711 38.634C117.807 38.748 117.936 38.838 118.098 38.904C118.26 38.97 118.437 39.039 118.629 39.111C118.839 39.189 119.037 39.267 119.223 39.345C119.409 39.423 119.571 39.516 119.709 39.624C119.853 39.732 119.964 39.864 120.042 40.02C120.126 40.176 120.168 40.368 120.168 40.596C120.168 40.908 120.093 41.175 119.943 41.397C119.799 41.619 119.595 41.79 119.331 41.91C119.067 42.03 118.758 42.09 118.404 42.09ZM122.298 42C122.208 42 122.13 41.97 122.064 41.91C122.004 41.844 121.974 41.766 121.974 41.676V37.572H121.038C121.002 37.572 120.972 37.56 120.948 37.536C120.924 37.512 120.912 37.482 120.912 37.446V37.032C120.912 36.996 120.924 36.966 120.948 36.942C120.972 36.918 121.002 36.906 121.038 36.906H122.352C122.442 36.906 122.517 36.939 122.577 37.005C122.643 37.065 122.676 37.14 122.676 37.23V41.334H123.603C123.639 41.334 123.669 41.346 123.693 41.37C123.717 41.394 123.729 41.424 123.729 41.46V41.874C123.729 41.91 123.717 41.94 123.693 41.964C123.669 41.988 123.639 42 123.603 42H122.298ZM122.109 36.204C122.073 36.204 122.043 36.192 122.019 36.168C121.995 36.144 121.983 36.114 121.983 36.078V35.295C121.983 35.259 121.995 35.229 122.019 35.205C122.043 35.181 122.073 35.169 122.109 35.169H122.541C122.577 35.169 122.607 35.181 122.631 35.205C122.655 35.229 122.667 35.259 122.667 35.295V36.078C122.667 36.114 122.655 36.144 122.631 36.168C122.607 36.192 122.577 36.204 122.541 36.204H122.109ZM126.385 42H125.872C125.788 42 125.731 41.961 125.701 41.883L124.009 37.104C124.003 37.092 124 37.071 124 37.041C124 37.005 124.012 36.975 124.036 36.951C124.066 36.921 124.102 36.906 124.144 36.906H124.558C124.642 36.906 124.699 36.945 124.729 37.023L126.151 41.127L127.546 37.023C127.576 36.945 127.633 36.906 127.717 36.906H128.113C128.155 36.906 128.188 36.918 128.212 36.942C128.236 36.96 128.251 36.984 128.257 37.014C128.257 37.026 128.257 37.041 128.257 37.059C128.257 37.077 128.254 37.092 128.248 37.104L126.556 41.883C126.526 41.961 126.469 42 126.385 42ZM130.89 42C130.53 42 130.2 41.913 129.9 41.739C129.606 41.559 129.372 41.322 129.198 41.028C129.024 40.728 128.937 40.398 128.937 40.038V38.751C128.937 38.385 129.024 38.055 129.198 37.761C129.372 37.467 129.606 37.233 129.9 37.059C130.2 36.879 130.53 36.789 130.89 36.789C131.25 36.789 131.577 36.879 131.871 37.059C132.165 37.233 132.399 37.467 132.573 37.761C132.753 38.055 132.843 38.385 132.843 38.751V39.363C132.843 39.453 132.81 39.531 132.744 39.597C132.684 39.657 132.609 39.687 132.519 39.687H129.639V40.083C129.639 40.311 129.693 40.521 129.801 40.713C129.915 40.905 130.065 41.058 130.251 41.172C130.443 41.28 130.656 41.334 130.89 41.334H132.195C132.231 41.334 132.261 41.346 132.285 41.37C132.309 41.394 132.321 41.424 132.321 41.46V41.874C132.321 41.91 132.309 41.94 132.285 41.964C132.261 41.988 132.231 42 132.195 42H130.89ZM129.639 39.039H132.141V38.706C132.141 38.472 132.084 38.262 131.97 38.076C131.862 37.884 131.712 37.734 131.52 37.626C131.334 37.512 131.124 37.455 130.89 37.455C130.656 37.455 130.443 37.512 130.251 37.626C130.065 37.734 129.915 37.884 129.801 38.076C129.693 38.262 129.639 38.472 129.639 38.706V39.039ZM92.8287 54C92.7927 54 92.7627 53.988 92.7387 53.964C92.7147 53.94 92.7027 53.91 92.7027 53.874V47.871C92.7027 47.835 92.7147 47.805 92.7387 47.781C92.7627 47.757 92.7927 47.745 92.8287 47.745H93.3147C93.3507 47.745 93.3807 47.757 93.4047 47.781C93.4287 47.805 93.4407 47.835 93.4407 47.871V50.364H96.4647V47.871C96.4647 47.835 96.4767 47.805 96.5007 47.781C96.5247 47.757 96.5547 47.745 96.5907 47.745H97.0767C97.1127 47.745 97.1427 47.757 97.1667 47.781C97.1907 47.805 97.2027 47.835 97.2027 47.871V53.874C97.2027 53.91 97.1907 53.94 97.1667 53.964C97.1427 53.988 97.1127 54 97.0767 54H96.5907C96.5547 54 96.5247 53.988 96.5007 53.964C96.4767 53.94 96.4647 53.91 96.4647 53.874V51.039H93.4407V53.874C93.4407 53.91 93.4287 53.94 93.4047 53.964C93.3807 53.988 93.3507 54 93.3147 54H92.8287ZM100.745 54.117C100.349 54.117 99.9858 54.018 99.6558 53.82C99.3318 53.622 99.0738 53.358 98.8818 53.028C98.6898 52.692 98.5938 52.323 98.5938 51.921V49.815C98.5938 49.407 98.6898 49.038 98.8818 48.708C99.0738 48.378 99.3318 48.114 99.6558 47.916C99.9858 47.718 100.349 47.619 100.745 47.619C101.069 47.619 101.369 47.676 101.645 47.79C101.921 47.898 102.161 48.057 102.365 48.267C102.395 48.291 102.41 48.327 102.41 48.375C102.41 48.417 102.395 48.456 102.365 48.492C102.335 48.528 102.299 48.57 102.257 48.618C102.221 48.66 102.176 48.708 102.122 48.762C102.08 48.792 102.038 48.807 101.996 48.807C101.948 48.807 101.903 48.786 101.861 48.744C101.561 48.456 101.192 48.312 100.754 48.312C100.496 48.312 100.259 48.381 100.043 48.519C99.8268 48.657 99.6558 48.84 99.5298 49.068C99.4038 49.296 99.3408 49.545 99.3408 49.815V51.921C99.3408 52.191 99.4038 52.44 99.5298 52.668C99.6558 52.896 99.8268 53.079 100.043 53.217C100.259 53.355 100.496 53.424 100.754 53.424C101.192 53.424 101.561 53.28 101.861 52.992C101.903 52.95 101.948 52.929 101.996 52.929C102.038 52.929 102.08 52.944 102.122 52.974C102.176 53.028 102.221 53.079 102.257 53.127C102.299 53.169 102.335 53.208 102.365 53.244C102.395 53.274 102.41 53.313 102.41 53.361C102.41 53.403 102.395 53.439 102.365 53.469C102.161 53.673 101.921 53.832 101.645 53.946C101.369 54.06 101.069 54.117 100.745 54.117ZM103.498 54C103.462 54 103.432 53.988 103.408 53.964C103.384 53.94 103.372 53.91 103.372 53.874V53.451C103.372 53.415 103.384 53.385 103.408 53.361C103.432 53.337 103.462 53.325 103.498 53.325H104.407V48.42H103.498C103.462 48.42 103.432 48.408 103.408 48.384C103.384 48.36 103.372 48.33 103.372 48.294V47.871C103.372 47.835 103.384 47.805 103.408 47.781C103.432 47.757 103.462 47.745 103.498 47.745H106.054C106.09 47.745 106.12 47.757 106.144 47.781C106.168 47.805 106.18 47.835 106.18 47.871V48.294C106.18 48.33 106.168 48.36 106.144 48.384C106.12 48.408 106.09 48.42 106.054 48.42H105.145V53.325H106.054C106.09 53.325 106.12 53.337 106.144 53.361C106.168 53.385 106.18 53.415 106.18 53.451V53.874C106.18 53.91 106.168 53.94 106.144 53.964C106.12 53.988 106.09 54 106.054 54H103.498ZM111.84 54.108C111.438 54.108 111.069 54.009 110.733 53.811C110.403 53.613 110.139 53.349 109.941 53.019C109.743 52.683 109.644 52.314 109.644 51.912V49.815C109.644 49.407 109.743 49.038 109.941 48.708C110.139 48.378 110.403 48.114 110.733 47.916C111.069 47.718 111.438 47.619 111.84 47.619C112.176 47.619 112.485 47.676 112.767 47.79C113.055 47.904 113.304 48.066 113.514 48.276C113.544 48.3 113.559 48.336 113.559 48.384C113.559 48.426 113.544 48.465 113.514 48.501C113.484 48.537 113.448 48.576 113.406 48.618C113.364 48.66 113.316 48.708 113.262 48.762C113.22 48.792 113.178 48.807 113.136 48.807C113.088 48.807 113.043 48.786 113.001 48.744C112.695 48.456 112.311 48.312 111.849 48.312C111.579 48.312 111.333 48.381 111.111 48.519C110.889 48.657 110.712 48.84 110.58 49.068C110.448 49.296 110.382 49.545 110.382 49.815V51.912C110.382 52.182 110.448 52.431 110.58 52.659C110.712 52.887 110.889 53.07 111.111 53.208C111.333 53.346 111.579 53.415 111.849 53.415C112.119 53.415 112.362 53.349 112.578 53.217C112.8 53.085 112.977 52.908 113.109 52.686C113.241 52.464 113.307 52.218 113.307 51.948V51.237H112.038C112.002 51.237 111.972 51.225 111.948 51.201C111.924 51.177 111.912 51.147 111.912 51.111V50.697C111.912 50.661 111.924 50.631 111.948 50.607C111.972 50.583 112.002 50.571 112.038 50.571H113.703C113.793 50.571 113.868 50.604 113.928 50.67C113.994 50.73 114.027 50.805 114.027 50.895V51.912C114.027 52.314 113.928 52.683 113.73 53.019C113.532 53.349 113.268 53.613 112.938 53.811C112.608 54.009 112.242 54.108 111.84 54.108ZM115.055 54C115.019 54 114.989 53.988 114.965 53.964C114.941 53.94 114.929 53.91 114.929 53.874V53.46C114.929 53.424 114.941 53.394 114.965 53.37C114.989 53.346 115.019 53.334 115.055 53.334H115.802V49.545H115.055C115.019 49.545 114.989 49.533 114.965 49.509C114.941 49.485 114.929 49.455 114.929 49.419V49.032C114.929 48.996 114.941 48.966 114.965 48.942C114.989 48.918 115.019 48.906 115.055 48.906H116.18C116.27 48.906 116.345 48.939 116.405 49.005C116.471 49.065 116.504 49.14 116.504 49.23V49.68L117.026 49.275C117.254 49.101 117.434 48.987 117.566 48.933C117.698 48.879 117.836 48.852 117.98 48.852H118.25C118.292 48.852 118.322 48.864 118.34 48.888C118.364 48.912 118.376 48.942 118.376 48.978V49.419C118.376 49.455 118.364 49.485 118.34 49.509C118.316 49.533 118.286 49.545 118.25 49.545H118.052C117.962 49.545 117.872 49.557 117.782 49.581C117.698 49.605 117.599 49.653 117.485 49.725C117.371 49.791 117.221 49.899 117.035 50.049L116.504 50.472V53.334H117.548C117.584 53.334 117.614 53.346 117.638 53.37C117.662 53.394 117.674 53.424 117.674 53.46V53.874C117.674 53.91 117.662 53.94 117.638 53.964C117.614 53.988 117.584 54 117.548 54H115.055ZM120.961 54.117C120.601 54.117 120.271 54.03 119.971 53.856C119.677 53.676 119.443 53.439 119.269 53.145C119.095 52.845 119.008 52.515 119.008 52.155V50.751C119.008 50.385 119.095 50.055 119.269 49.761C119.443 49.467 119.677 49.233 119.971 49.059C120.271 48.879 120.601 48.789 120.961 48.789C121.321 48.789 121.648 48.879 121.942 49.059C122.236 49.233 122.47 49.467 122.644 49.761C122.824 50.055 122.914 50.385 122.914 50.751V52.155C122.914 52.515 122.824 52.845 122.644 53.145C122.47 53.439 122.236 53.676 121.942 53.856C121.648 54.03 121.321 54.117 120.961 54.117ZM120.961 53.451C121.195 53.451 121.405 53.397 121.591 53.289C121.783 53.175 121.933 53.022 122.041 52.83C122.155 52.638 122.212 52.428 122.212 52.2V50.706C122.212 50.472 122.155 50.262 122.041 50.076C121.933 49.884 121.783 49.734 121.591 49.626C121.405 49.512 121.195 49.455 120.961 49.455C120.727 49.455 120.514 49.512 120.322 49.626C120.136 49.734 119.986 49.884 119.872 50.076C119.764 50.262 119.71 50.472 119.71 50.706V52.2C119.71 52.428 119.764 52.638 119.872 52.83C119.986 53.022 120.136 53.175 120.322 53.289C120.514 53.397 120.727 53.451 120.961 53.451ZM125.93 54.117C125.588 54.117 125.288 54.048 125.03 53.91C124.778 53.766 124.58 53.565 124.436 53.307C124.292 53.049 124.22 52.752 124.22 52.416V49.032C124.22 48.996 124.232 48.966 124.256 48.942C124.28 48.918 124.31 48.906 124.346 48.906H124.796C124.832 48.906 124.862 48.918 124.886 48.942C124.91 48.966 124.922 48.996 124.922 49.032V52.281C124.922 52.671 125.024 52.965 125.228 53.163C125.438 53.361 125.708 53.46 126.038 53.46C126.428 53.46 126.749 53.331 127.001 53.073C127.253 52.815 127.379 52.449 127.379 51.975V49.032C127.379 48.996 127.391 48.966 127.415 48.942C127.439 48.918 127.469 48.906 127.505 48.906H127.955C127.991 48.906 128.021 48.918 128.045 48.942C128.069 48.966 128.081 48.996 128.081 49.032V53.874C128.081 53.91 128.069 53.94 128.045 53.964C128.021 53.988 127.991 54 127.955 54H127.505C127.469 54 127.439 53.988 127.415 53.964C127.391 53.94 127.379 53.91 127.379 53.874V53.37C127.223 53.616 127.019 53.802 126.767 53.928C126.515 54.054 126.236 54.117 125.93 54.117ZM129.735 55.737C129.699 55.737 129.669 55.725 129.645 55.701C129.621 55.677 129.609 55.647 129.609 55.611V49.032C129.609 48.996 129.621 48.966 129.645 48.942C129.669 48.918 129.699 48.906 129.735 48.906H130.149C130.185 48.906 130.215 48.918 130.239 48.942C130.263 48.966 130.275 48.996 130.275 49.032V49.428C130.449 49.218 130.653 49.059 130.887 48.951C131.121 48.843 131.373 48.789 131.643 48.789C131.991 48.789 132.306 48.876 132.588 49.05C132.87 49.218 133.095 49.443 133.263 49.725C133.437 50.007 133.524 50.322 133.524 50.67V52.236C133.524 52.578 133.44 52.893 133.272 53.181C133.104 53.463 132.876 53.691 132.588 53.865C132.306 54.033 131.988 54.117 131.634 54.117C131.388 54.117 131.148 54.072 130.914 53.982C130.686 53.892 130.485 53.766 130.311 53.604V55.611C130.311 55.647 130.299 55.677 130.275 55.701C130.251 55.725 130.221 55.737 130.185 55.737H129.735ZM131.571 53.451C131.805 53.451 132.015 53.397 132.201 53.289C132.393 53.175 132.543 53.022 132.651 52.83C132.765 52.638 132.822 52.428 132.822 52.2V50.706C132.822 50.472 132.765 50.262 132.651 50.076C132.543 49.884 132.393 49.734 132.201 49.626C132.015 49.512 131.805 49.455 131.571 49.455C131.337 49.455 131.124 49.512 130.932 49.626C130.746 49.734 130.596 49.884 130.482 50.076C130.368 50.262 130.311 50.472 130.311 50.706V52.2C130.311 52.428 130.368 52.638 130.482 52.83C130.596 53.022 130.746 53.175 130.932 53.289C131.124 53.397 131.337 53.451 131.571 53.451Z" fill="black"/>
<path d="M100.122 446C100.086 446 100.056 445.988 100.032 445.964C100.008 445.94 99.9955 445.91 99.9955 445.874V440.069C99.9955 439.979 100.026 439.904 100.086 439.844C100.152 439.778 100.23 439.745 100.32 439.745H103.281C103.317 439.745 103.347 439.757 103.371 439.781C103.395 439.805 103.407 439.835 103.407 439.871V440.312C103.407 440.348 103.395 440.378 103.371 440.402C103.347 440.426 103.317 440.438 103.281 440.438H100.734V442.544H102.678C102.714 442.544 102.744 442.556 102.768 442.58C102.792 442.604 102.804 442.634 102.804 442.67V443.093C102.804 443.129 102.792 443.159 102.768 443.183C102.744 443.207 102.714 443.219 102.678 443.219H100.734V445.874C100.734 445.91 100.722 445.94 100.698 445.964C100.674 445.988 100.644 446 100.608 446H100.122ZM105.884 446.117C105.542 446.117 105.242 446.048 104.984 445.91C104.732 445.766 104.534 445.565 104.39 445.307C104.246 445.049 104.174 444.752 104.174 444.416V441.032C104.174 440.996 104.186 440.966 104.21 440.942C104.234 440.918 104.264 440.906 104.3 440.906H104.75C104.786 440.906 104.816 440.918 104.84 440.942C104.864 440.966 104.876 440.996 104.876 441.032V444.281C104.876 444.671 104.978 444.965 105.182 445.163C105.392 445.361 105.662 445.46 105.992 445.46C106.382 445.46 106.703 445.331 106.955 445.073C107.207 444.815 107.333 444.449 107.333 443.975V441.032C107.333 440.996 107.345 440.966 107.369 440.942C107.393 440.918 107.423 440.906 107.459 440.906H107.909C107.945 440.906 107.975 440.918 107.999 440.942C108.023 440.966 108.035 440.996 108.035 441.032V445.874C108.035 445.91 108.023 445.94 107.999 445.964C107.975 445.988 107.945 446 107.909 446H107.459C107.423 446 107.393 445.988 107.369 445.964C107.345 445.94 107.333 445.91 107.333 445.874V445.37C107.177 445.616 106.973 445.802 106.721 445.928C106.469 446.054 106.19 446.117 105.884 446.117ZM111.219 446C110.919 446 110.664 445.937 110.454 445.811C110.25 445.685 110.094 445.52 109.986 445.316C109.884 445.106 109.833 444.875 109.833 444.623V441.563H109.239C109.203 441.563 109.173 441.551 109.149 441.527C109.125 441.503 109.113 441.473 109.113 441.437V441.032C109.113 440.996 109.125 440.966 109.149 440.942C109.173 440.918 109.203 440.906 109.239 440.906H109.833V439.961C109.833 439.925 109.845 439.895 109.869 439.871C109.893 439.847 109.923 439.835 109.959 439.835H110.409C110.445 439.835 110.475 439.847 110.499 439.871C110.523 439.895 110.535 439.925 110.535 439.961V440.906H112.119C112.155 440.906 112.185 440.918 112.209 440.942C112.233 440.966 112.245 440.996 112.245 441.032V441.446C112.245 441.482 112.233 441.512 112.209 441.536C112.185 441.56 112.155 441.572 112.119 441.572H110.535V444.542C110.535 444.776 110.604 444.965 110.742 445.109C110.886 445.247 111.072 445.319 111.3 445.325L112.119 445.334C112.155 445.334 112.185 445.346 112.209 445.37C112.233 445.394 112.245 445.424 112.245 445.46V445.874C112.245 445.91 112.233 445.94 112.209 445.964C112.185 445.988 112.155 446 112.119 446H111.219ZM115.082 446.117C114.74 446.117 114.44 446.048 114.182 445.91C113.93 445.766 113.732 445.565 113.588 445.307C113.444 445.049 113.372 444.752 113.372 444.416V441.032C113.372 440.996 113.384 440.966 113.408 440.942C113.432 440.918 113.462 440.906 113.498 440.906H113.948C113.984 440.906 114.014 440.918 114.038 440.942C114.062 440.966 114.074 440.996 114.074 441.032V444.281C114.074 444.671 114.176 444.965 114.38 445.163C114.59 445.361 114.86 445.46 115.19 445.46C115.58 445.46 115.901 445.331 116.153 445.073C116.405 444.815 116.531 444.449 116.531 443.975V441.032C116.531 440.996 116.543 440.966 116.567 440.942C116.591 440.918 116.621 440.906 116.657 440.906H117.107C117.143 440.906 117.173 440.918 117.197 440.942C117.221 440.966 117.233 440.996 117.233 441.032V445.874C117.233 445.91 117.221 445.94 117.197 445.964C117.173 445.988 117.143 446 117.107 446H116.657C116.621 446 116.591 445.988 116.567 445.964C116.543 445.94 116.531 445.91 116.531 445.874V445.37C116.375 445.616 116.171 445.802 115.919 445.928C115.667 446.054 115.388 446.117 115.082 446.117ZM118.527 446C118.491 446 118.461 445.988 118.437 445.964C118.413 445.94 118.401 445.91 118.401 445.874V445.46C118.401 445.424 118.413 445.394 118.437 445.37C118.461 445.346 118.491 445.334 118.527 445.334H119.274V441.545H118.527C118.491 441.545 118.461 441.533 118.437 441.509C118.413 441.485 118.401 441.455 118.401 441.419V441.032C118.401 440.996 118.413 440.966 118.437 440.942C118.461 440.918 118.491 440.906 118.527 440.906H119.652C119.742 440.906 119.817 440.939 119.877 441.005C119.943 441.065 119.976 441.14 119.976 441.23V441.68L120.498 441.275C120.726 441.101 120.906 440.987 121.038 440.933C121.17 440.879 121.308 440.852 121.452 440.852H121.722C121.764 440.852 121.794 440.864 121.812 440.888C121.836 440.912 121.848 440.942 121.848 440.978V441.419C121.848 441.455 121.836 441.485 121.812 441.509C121.788 441.533 121.758 441.545 121.722 441.545H121.524C121.434 441.545 121.344 441.557 121.254 441.581C121.17 441.605 121.071 441.653 120.957 441.725C120.843 441.791 120.693 441.899 120.507 442.049L119.976 442.472V445.334H121.02C121.056 445.334 121.086 445.346 121.11 445.37C121.134 445.394 121.146 445.424 121.146 445.46V445.874C121.146 445.91 121.134 445.94 121.11 445.964C121.086 445.988 121.056 446 121.02 446H118.527ZM124.433 446C124.073 446 123.743 445.913 123.443 445.739C123.149 445.559 122.915 445.322 122.741 445.028C122.567 444.728 122.48 444.398 122.48 444.038V442.751C122.48 442.385 122.567 442.055 122.741 441.761C122.915 441.467 123.149 441.233 123.443 441.059C123.743 440.879 124.073 440.789 124.433 440.789C124.793 440.789 125.12 440.879 125.414 441.059C125.708 441.233 125.942 441.467 126.116 441.761C126.296 442.055 126.386 442.385 126.386 442.751V443.363C126.386 443.453 126.353 443.531 126.287 443.597C126.227 443.657 126.152 443.687 126.062 443.687H123.182V444.083C123.182 444.311 123.236 444.521 123.344 444.713C123.458 444.905 123.608 445.058 123.794 445.172C123.986 445.28 124.199 445.334 124.433 445.334H125.738C125.774 445.334 125.804 445.346 125.828 445.37C125.852 445.394 125.864 445.424 125.864 445.46V445.874C125.864 445.91 125.852 445.94 125.828 445.964C125.804 445.988 125.774 446 125.738 446H124.433ZM123.182 443.039H125.684V442.706C125.684 442.472 125.627 442.262 125.513 442.076C125.405 441.884 125.255 441.734 125.063 441.626C124.877 441.512 124.667 441.455 124.433 441.455C124.199 441.455 123.986 441.512 123.794 441.626C123.608 441.734 123.458 441.884 123.344 442.076C123.236 442.262 123.182 442.472 123.182 442.706V443.039ZM91.1293 458C91.0393 458 90.9613 457.97 90.8953 457.91C90.8353 457.844 90.8053 457.766 90.8053 457.676V451.871C90.8053 451.835 90.8173 451.805 90.8413 451.781C90.8653 451.757 90.8953 451.745 90.9313 451.745H91.4173C91.4533 451.745 91.4833 451.757 91.5073 451.781C91.5313 451.805 91.5433 451.835 91.5433 451.871V457.307H93.8203C93.8563 457.307 93.8863 457.319 93.9103 457.343C93.9343 457.367 93.9463 457.397 93.9463 457.433V457.874C93.9463 457.91 93.9343 457.94 93.9103 457.964C93.8863 457.988 93.8563 458 93.8203 458H91.1293ZM96.237 458.117C95.931 458.117 95.658 458.06 95.418 457.946C95.184 457.826 94.998 457.658 94.86 457.442C94.728 457.226 94.662 456.977 94.662 456.695C94.662 456.299 94.797 455.972 95.067 455.714C95.337 455.456 95.709 455.294 96.183 455.228C96.327 455.204 96.462 455.186 96.588 455.174C96.72 455.156 96.849 455.138 96.975 455.12C97.101 455.102 97.227 455.084 97.353 455.066C97.527 455.036 97.653 454.976 97.731 454.886C97.809 454.796 97.848 454.664 97.848 454.49V454.418C97.848 454.124 97.734 453.89 97.506 453.716C97.278 453.542 96.999 453.455 96.669 453.455C96.399 453.455 96.165 453.509 95.967 453.617C95.775 453.725 95.625 453.869 95.517 454.049C95.469 454.127 95.409 454.166 95.337 454.166C95.301 454.166 95.262 454.151 95.22 454.121L94.977 453.959C94.923 453.911 94.896 453.86 94.896 453.806C94.896 453.782 94.905 453.752 94.923 453.716C95.091 453.434 95.325 453.209 95.625 453.041C95.931 452.873 96.285 452.789 96.687 452.789C97.053 452.789 97.374 452.858 97.65 452.996C97.926 453.128 98.142 453.317 98.298 453.563C98.454 453.803 98.532 454.088 98.532 454.418V457.874C98.532 457.91 98.52 457.94 98.496 457.964C98.472 457.988 98.442 458 98.406 458H98.028C97.944 458 97.902 457.958 97.902 457.874V457.253C97.716 457.523 97.479 457.736 97.191 457.892C96.903 458.042 96.585 458.117 96.237 458.117ZM96.309 457.487C96.621 457.487 96.894 457.406 97.128 457.244C97.362 457.082 97.545 456.884 97.677 456.65C97.809 456.41 97.875 456.182 97.875 455.966V455.597C97.695 455.615 97.527 455.636 97.371 455.66C97.215 455.678 97.047 455.702 96.867 455.732C96.693 455.756 96.483 455.786 96.237 455.822C95.637 455.912 95.337 456.194 95.337 456.668C95.337 456.914 95.427 457.112 95.607 457.262C95.787 457.412 96.021 457.487 96.309 457.487ZM102.09 458.117C101.82 458.117 101.568 458.066 101.334 457.964C101.1 457.856 100.896 457.709 100.722 457.523V457.874C100.722 457.91 100.71 457.94 100.686 457.964C100.662 457.988 100.632 458 100.596 458H100.182C100.146 458 100.116 457.988 100.092 457.964C100.068 457.94 100.056 457.91 100.056 457.874V451.295C100.056 451.259 100.068 451.229 100.092 451.205C100.116 451.181 100.146 451.169 100.182 451.169H100.632C100.668 451.169 100.698 451.181 100.722 451.205C100.746 451.229 100.758 451.259 100.758 451.295V453.419C100.926 453.227 101.124 453.074 101.352 452.96C101.586 452.846 101.832 452.789 102.09 452.789C102.438 452.789 102.753 452.876 103.035 453.05C103.317 453.218 103.542 453.443 103.71 453.725C103.884 454.007 103.971 454.322 103.971 454.67V456.236C103.971 456.578 103.884 456.893 103.71 457.181C103.542 457.463 103.317 457.691 103.035 457.865C102.753 458.033 102.438 458.117 102.09 458.117ZM102.018 457.451C102.252 457.451 102.462 457.397 102.648 457.289C102.84 457.175 102.99 457.022 103.098 456.83C103.212 456.638 103.269 456.428 103.269 456.2V454.706C103.269 454.472 103.212 454.262 103.098 454.076C102.99 453.884 102.84 453.734 102.648 453.626C102.462 453.512 102.252 453.455 102.018 453.455C101.784 453.455 101.571 453.512 101.379 453.626C101.193 453.734 101.043 453.884 100.929 454.076C100.815 454.262 100.758 454.472 100.758 454.706V456.2C100.758 456.428 100.815 456.638 100.929 456.83C101.043 457.022 101.193 457.175 101.379 457.289C101.571 457.397 101.784 457.451 102.018 457.451ZM107.003 458.117C106.643 458.117 106.313 458.03 106.013 457.856C105.719 457.676 105.485 457.439 105.311 457.145C105.137 456.845 105.05 456.515 105.05 456.155V454.751C105.05 454.385 105.137 454.055 105.311 453.761C105.485 453.467 105.719 453.233 106.013 453.059C106.313 452.879 106.643 452.789 107.003 452.789C107.363 452.789 107.69 452.879 107.984 453.059C108.278 453.233 108.512 453.467 108.686 453.761C108.866 454.055 108.956 454.385 108.956 454.751V456.155C108.956 456.515 108.866 456.845 108.686 457.145C108.512 457.439 108.278 457.676 107.984 457.856C107.69 458.03 107.363 458.117 107.003 458.117ZM107.003 457.451C107.237 457.451 107.447 457.397 107.633 457.289C107.825 457.175 107.975 457.022 108.083 456.83C108.197 456.638 108.254 456.428 108.254 456.2V454.706C108.254 454.472 108.197 454.262 108.083 454.076C107.975 453.884 107.825 453.734 107.633 453.626C107.447 453.512 107.237 453.455 107.003 453.455C106.769 453.455 106.556 453.512 106.364 453.626C106.178 453.734 106.028 453.884 105.914 454.076C105.806 454.262 105.752 454.472 105.752 454.706V456.2C105.752 456.428 105.806 456.638 105.914 456.83C106.028 457.022 106.178 457.175 106.364 457.289C106.556 457.397 106.769 457.451 107.003 457.451ZM109.899 458C109.863 458 109.833 457.988 109.809 457.964C109.785 457.94 109.773 457.91 109.773 457.874V457.46C109.773 457.424 109.785 457.394 109.809 457.37C109.833 457.346 109.863 457.334 109.899 457.334H110.646V453.545H109.899C109.863 453.545 109.833 453.533 109.809 453.509C109.785 453.485 109.773 453.455 109.773 453.419V453.032C109.773 452.996 109.785 452.966 109.809 452.942C109.833 452.918 109.863 452.906 109.899 452.906H111.024C111.114 452.906 111.189 452.939 111.249 453.005C111.315 453.065 111.348 453.14 111.348 453.23V453.68L111.87 453.275C112.098 453.101 112.278 452.987 112.41 452.933C112.542 452.879 112.68 452.852 112.824 452.852H113.094C113.136 452.852 113.166 452.864 113.184 452.888C113.208 452.912 113.22 452.942 113.22 452.978V453.419C113.22 453.455 113.208 453.485 113.184 453.509C113.16 453.533 113.13 453.545 113.094 453.545H112.896C112.806 453.545 112.716 453.557 112.626 453.581C112.542 453.605 112.443 453.653 112.329 453.725C112.215 453.791 112.065 453.899 111.879 454.049L111.348 454.472V457.334H112.392C112.428 457.334 112.458 457.346 112.482 457.37C112.506 457.394 112.518 457.424 112.518 457.46V457.874C112.518 457.91 112.506 457.94 112.482 457.964C112.458 457.988 112.428 458 112.392 458H109.899ZM115.38 458.117C115.074 458.117 114.801 458.06 114.561 457.946C114.327 457.826 114.141 457.658 114.003 457.442C113.871 457.226 113.805 456.977 113.805 456.695C113.805 456.299 113.94 455.972 114.21 455.714C114.48 455.456 114.852 455.294 115.326 455.228C115.47 455.204 115.605 455.186 115.731 455.174C115.863 455.156 115.992 455.138 116.118 455.12C116.244 455.102 116.37 455.084 116.496 455.066C116.67 455.036 116.796 454.976 116.874 454.886C116.952 454.796 116.991 454.664 116.991 454.49V454.418C116.991 454.124 116.877 453.89 116.649 453.716C116.421 453.542 116.142 453.455 115.812 453.455C115.542 453.455 115.308 453.509 115.11 453.617C114.918 453.725 114.768 453.869 114.66 454.049C114.612 454.127 114.552 454.166 114.48 454.166C114.444 454.166 114.405 454.151 114.363 454.121L114.12 453.959C114.066 453.911 114.039 453.86 114.039 453.806C114.039 453.782 114.048 453.752 114.066 453.716C114.234 453.434 114.468 453.209 114.768 453.041C115.074 452.873 115.428 452.789 115.83 452.789C116.196 452.789 116.517 452.858 116.793 452.996C117.069 453.128 117.285 453.317 117.441 453.563C117.597 453.803 117.675 454.088 117.675 454.418V457.874C117.675 457.91 117.663 457.94 117.639 457.964C117.615 457.988 117.585 458 117.549 458H117.171C117.087 458 117.045 457.958 117.045 457.874V457.253C116.859 457.523 116.622 457.736 116.334 457.892C116.046 458.042 115.728 458.117 115.38 458.117ZM115.452 457.487C115.764 457.487 116.037 457.406 116.271 457.244C116.505 457.082 116.688 456.884 116.82 456.65C116.952 456.41 117.018 456.182 117.018 455.966V455.597C116.838 455.615 116.67 455.636 116.514 455.66C116.358 455.678 116.19 455.702 116.01 455.732C115.836 455.756 115.626 455.786 115.38 455.822C114.78 455.912 114.48 456.194 114.48 456.668C114.48 456.914 114.57 457.112 114.75 457.262C114.93 457.412 115.164 457.487 115.452 457.487ZM120.723 458C120.423 458 120.168 457.937 119.958 457.811C119.754 457.685 119.598 457.52 119.49 457.316C119.388 457.106 119.337 456.875 119.337 456.623V453.563H118.743C118.707 453.563 118.677 453.551 118.653 453.527C118.629 453.503 118.617 453.473 118.617 453.437V453.032C118.617 452.996 118.629 452.966 118.653 452.942C118.677 452.918 118.707 452.906 118.743 452.906H119.337V451.961C119.337 451.925 119.349 451.895 119.373 451.871C119.397 451.847 119.427 451.835 119.463 451.835H119.913C119.949 451.835 119.979 451.847 120.003 451.871C120.027 451.895 120.039 451.925 120.039 451.961V452.906H121.623C121.659 452.906 121.689 452.918 121.713 452.942C121.737 452.966 121.749 452.996 121.749 453.032V453.446C121.749 453.482 121.737 453.512 121.713 453.536C121.689 453.56 121.659 453.572 121.623 453.572H120.039V456.542C120.039 456.776 120.108 456.965 120.246 457.109C120.39 457.247 120.576 457.319 120.804 457.325L121.623 457.334C121.659 457.334 121.689 457.346 121.713 457.37C121.737 457.394 121.749 457.424 121.749 457.46V457.874C121.749 457.91 121.737 457.94 121.713 457.964C121.689 457.988 121.659 458 121.623 458H120.723ZM124.563 458.117C124.203 458.117 123.873 458.03 123.573 457.856C123.279 457.676 123.045 457.439 122.871 457.145C122.697 456.845 122.61 456.515 122.61 456.155V454.751C122.61 454.385 122.697 454.055 122.871 453.761C123.045 453.467 123.279 453.233 123.573 453.059C123.873 452.879 124.203 452.789 124.563 452.789C124.923 452.789 125.25 452.879 125.544 453.059C125.838 453.233 126.072 453.467 126.246 453.761C126.426 454.055 126.516 454.385 126.516 454.751V456.155C126.516 456.515 126.426 456.845 126.246 457.145C126.072 457.439 125.838 457.676 125.544 457.856C125.25 458.03 124.923 458.117 124.563 458.117ZM124.563 457.451C124.797 457.451 125.007 457.397 125.193 457.289C125.385 457.175 125.535 457.022 125.643 456.83C125.757 456.638 125.814 456.428 125.814 456.2V454.706C125.814 454.472 125.757 454.262 125.643 454.076C125.535 453.884 125.385 453.734 125.193 453.626C125.007 453.512 124.797 453.455 124.563 453.455C124.329 453.455 124.116 453.512 123.924 453.626C123.738 453.734 123.588 453.884 123.474 454.076C123.366 454.262 123.312 454.472 123.312 454.706V456.2C123.312 456.428 123.366 456.638 123.474 456.83C123.588 457.022 123.738 457.175 123.924 457.289C124.116 457.397 124.329 457.451 124.563 457.451ZM127.46 458C127.424 458 127.394 457.988 127.37 457.964C127.346 457.94 127.334 457.91 127.334 457.874V457.46C127.334 457.424 127.346 457.394 127.37 457.37C127.394 457.346 127.424 457.334 127.46 457.334H128.207V453.545H127.46C127.424 453.545 127.394 453.533 127.37 453.509C127.346 453.485 127.334 453.455 127.334 453.419V453.032C127.334 452.996 127.346 452.966 127.37 452.942C127.394 452.918 127.424 452.906 127.46 452.906H128.585C128.675 452.906 128.75 452.939 128.81 453.005C128.876 453.065 128.909 453.14 128.909 453.23V453.68L129.431 453.275C129.659 453.101 129.839 452.987 129.971 452.933C130.103 452.879 130.241 452.852 130.385 452.852H130.655C130.697 452.852 130.727 452.864 130.745 452.888C130.769 452.912 130.781 452.942 130.781 452.978V453.419C130.781 453.455 130.769 453.485 130.745 453.509C130.721 453.533 130.691 453.545 130.655 453.545H130.457C130.367 453.545 130.277 453.557 130.187 453.581C130.103 453.605 130.004 453.653 129.89 453.725C129.776 453.791 129.626 453.899 129.44 454.049L128.909 454.472V457.334H129.953C129.989 457.334 130.019 457.346 130.043 457.37C130.067 457.394 130.079 457.424 130.079 457.46V457.874C130.079 457.91 130.067 457.94 130.043 457.964C130.019 457.988 129.989 458 129.953 458H127.46ZM132.853 459.737C132.799 459.737 132.757 459.719 132.727 459.683C132.697 459.647 132.691 459.602 132.709 459.548L133.231 458.054L131.44 453.104C131.434 453.092 131.431 453.071 131.431 453.041C131.431 453.005 131.443 452.975 131.467 452.951C131.497 452.921 131.533 452.906 131.575 452.906H131.989C132.073 452.906 132.13 452.945 132.16 453.023L133.573 457.055L134.977 453.023C135.007 452.945 135.064 452.906 135.148 452.906H135.544C135.592 452.906 135.628 452.921 135.652 452.951C135.676 452.975 135.688 453.005 135.688 453.041C135.688 453.071 135.685 453.092 135.679 453.104L133.375 459.62C133.345 459.698 133.288 459.737 133.204 459.737H132.853Z" fill="black"/>
<path d="M99 181.925L99 180.665L109.296 175.553L109.296 161.225L99 156.221L99 154.961L126.648 168.425L99 181.925ZM110.34 175.121L124.056 168.353L110.34 161.729L110.34 175.121ZM98.676 191.518C98.676 190.39 98.928 189.358 99.432 188.422C99.96 187.486 100.692 186.742 101.628 186.19C102.564 185.638 103.608 185.362 104.76 185.362L126 185.362L126 186.514L104.76 186.514C103.8 186.514 102.936 186.73 102.168 187.162C101.4 187.618 100.788 188.23 100.332 188.998C99.9 189.766 99.684 190.606 99.684 191.518L98.676 191.518ZM115.2 195.241L115.2 196.393L112.752 196.393C114.648 197.497 115.596 199.273 115.596 201.721C115.596 202.897 115.26 203.917 114.588 204.781C113.94 205.645 112.956 206.245 111.636 206.581C112.812 206.893 113.76 207.577 114.48 208.633C115.224 209.713 115.596 210.925 115.596 212.269C115.596 214.021 115.08 215.377 114.048 216.337C113.04 217.297 111.6 217.777 109.728 217.777L99 217.777L99 216.625L109.728 216.625C111.24 216.625 112.428 216.229 113.292 215.437C114.156 214.669 114.588 213.649 114.588 212.377C114.588 211.417 114.348 210.529 113.868 209.713C113.412 208.897 112.788 208.249 111.996 207.769C111.204 207.289 110.328 207.049 109.368 207.049L99 207.049L99 205.897L109.08 205.897C110.808 205.897 112.152 205.489 113.112 204.673C114.096 203.857 114.588 202.801 114.588 201.505C114.588 200.641 114.372 199.813 113.94 199.021C113.508 198.253 112.92 197.617 112.176 197.113C111.456 196.633 110.664 196.393 109.8 196.393L99 196.393L99 195.241L115.2 195.241ZM98.424 230.015C98.424 228.383 98.82 226.907 99.612 225.587C100.428 224.267 101.496 223.235 102.816 222.491C104.16 221.747 105.612 221.375 107.172 221.375C108.708 221.375 110.136 221.747 111.456 222.491C112.776 223.259 113.82 224.291 114.588 225.587C115.38 226.907 115.776 228.371 115.776 229.979C115.776 231.563 115.38 233.003 114.588 234.299C113.82 235.619 112.776 236.651 111.456 237.395C110.136 238.139 108.708 238.511 107.172 238.511C105.564 238.511 104.088 238.151 102.744 237.431C101.424 236.711 100.368 235.703 99.576 234.407C98.808 233.135 98.424 231.671 98.424 230.015ZM99.432 230.015C99.432 231.383 99.78 232.631 100.476 233.759C101.172 234.887 102.096 235.763 103.248 236.387C104.424 237.035 105.708 237.359 107.1 237.359C108.468 237.359 109.74 237.035 110.916 236.387C112.092 235.739 113.028 234.851 113.724 233.723C114.42 232.595 114.768 231.347 114.768 229.979C114.768 228.611 114.408 227.351 113.688 226.199C112.992 225.071 112.056 224.171 110.88 223.499C109.704 222.851 108.432 222.527 107.064 222.527C105.696 222.527 104.424 222.851 103.248 223.499C102.096 224.171 101.172 225.071 100.476 226.199C99.78 227.351 99.432 228.623 99.432 230.015ZM98.604 246.028C98.604 244.876 98.796 243.856 99.18 242.968C99.588 242.08 100.104 241.444 100.728 241.06L102.636 241.06C101.604 241.516 100.836 242.14 100.332 242.932C99.852 243.724 99.612 244.732 99.612 245.956C99.612 247.132 99.972 248.08 100.692 248.8C101.436 249.52 102.384 249.88 103.536 249.88C104.52 249.88 105.276 249.676 105.804 249.268C106.356 248.86 106.908 248.2 107.46 247.288L108.252 245.92C108.852 244.936 109.32 244.192 109.656 243.688C110.016 243.208 110.412 242.824 110.844 242.536C111.3 242.248 111.828 242.104 112.428 242.104C113.388 242.104 114.156 242.44 114.732 243.112C115.308 243.784 115.596 244.66 115.596 245.74C115.596 247.06 115.296 248.164 114.696 249.052L113.112 249.052C114.096 248.308 114.588 247.24 114.588 245.848C114.588 245.08 114.396 244.456 114.012 243.976C113.628 243.496 113.136 243.256 112.536 243.256C112.008 243.256 111.54 243.4 111.132 243.688C110.748 243.976 110.388 244.372 110.052 244.876C109.716 245.404 109.212 246.268 108.54 247.468C107.844 248.692 107.124 249.592 106.38 250.168C105.66 250.744 104.712 251.032 103.536 251.032C102.048 251.032 100.848 250.54 99.936 249.556C99.048 248.596 98.604 247.42 98.604 246.028ZM98.784 260.416C98.784 258.64 99.324 257.164 100.404 255.988C101.484 254.836 102.972 254.26 104.868 254.26L121.716 254.26L121.716 255.412L115.2 255.412L115.2 260.38L114.192 260.38L114.192 255.412L104.868 255.412C103.284 255.412 102.036 255.88 101.124 256.816C100.236 257.776 99.792 258.976 99.792 260.416L98.784 260.416ZM98.604 278.986C98.604 277.45 98.988 276.022 99.756 274.702C100.524 273.382 101.556 272.338 102.852 271.57C104.172 270.802 105.588 270.418 107.1 270.418C108.612 270.418 110.016 270.802 111.312 271.57C112.632 272.338 113.676 273.382 114.444 274.702C115.212 276.022 115.596 277.45 115.596 278.986C115.596 280.546 115.176 282.022 114.336 283.414C113.52 284.806 112.452 285.778 111.132 286.33L115.2 286.33L115.2 287.482L99 287.482L99 286.33L103.032 286.33C101.688 285.682 100.608 284.674 99.792 283.306C99 281.962 98.604 280.522 98.604 278.986ZM99.612 279.058C99.612 280.378 99.948 281.602 100.62 282.73C101.316 283.858 102.228 284.746 103.356 285.394C104.508 286.066 105.756 286.402 107.1 286.402C108.42 286.402 109.656 286.066 110.808 285.394C111.96 284.722 112.872 283.822 113.544 282.694C114.24 281.566 114.588 280.342 114.588 279.022C114.588 277.702 114.24 276.466 113.544 275.314C112.848 274.186 111.924 273.274 110.772 272.578C109.62 271.906 108.384 271.57 107.064 271.57C105.744 271.57 104.508 271.906 103.356 272.578C102.228 273.274 101.316 274.198 100.62 275.35C99.948 276.502 99.612 277.738 99.612 279.058ZM126 300.476L126 301.664C126 304.496 125.244 306.704 123.732 308.288C122.244 309.872 120.24 310.664 117.72 310.664C115.968 310.664 114.408 310.28 113.04 309.512C111.696 308.744 110.652 307.7 109.908 306.38C109.188 305.06 108.828 303.584 108.828 301.952L108.828 301.664L99 301.664L99 300.476L126 300.476ZM109.872 302.024C109.872 304.208 110.544 305.996 111.888 307.388C113.256 308.78 115.176 309.476 117.648 309.476C120 309.476 121.8 308.816 123.048 307.496C124.32 306.2 124.956 304.352 124.956 301.952L124.956 301.664L109.872 301.664L109.872 302.024ZM126 314.209L126 315.361L111.852 315.361C112.932 315.865 113.82 316.717 114.516 317.917C115.236 319.141 115.596 320.377 115.596 321.625C115.596 323.905 114.972 325.657 113.724 326.881C112.476 328.129 110.712 328.753 108.432 328.753L99 328.753L99 327.601L108.432 327.601C110.4 327.601 111.912 327.073 112.968 326.017C114.048 324.985 114.588 323.521 114.588 321.625C114.588 320.473 114.312 319.417 113.76 318.457C113.232 317.497 112.488 316.741 111.528 316.189C110.592 315.637 109.56 315.361 108.432 315.361L99 315.361L99 314.209L126 314.209ZM126 333.875L126 335.027C126 339.323 124.824 342.635 122.472 344.963C120.144 347.315 116.82 348.491 112.5 348.491C110.028 348.491 107.76 347.891 105.696 346.691C103.632 345.491 102 343.859 100.8 341.795C99.6 339.755 99 337.499 99 335.027L99 333.875L126 333.875ZM100.116 335.315C100.116 337.523 100.656 339.539 101.736 341.363C102.84 343.187 104.34 344.627 106.236 345.683C108.132 346.763 110.22 347.303 112.5 347.303C116.484 347.303 119.544 346.259 121.68 344.171C123.84 342.107 124.92 339.155 124.92 335.315L124.92 335.027L100.116 335.027L100.116 335.315Z" fill="black"/>
<path d="M112.501 116C112.14 116 111.847 116.293 111.847 116.654V121.77C111.847 121.929 111.729 122.063 111.573 122.096C111.418 122.129 111.259 122.054 111.195 121.909L109.125 117.225C108.979 116.894 108.593 116.745 108.263 116.891C107.932 117.037 107.782 117.423 107.928 117.754L110.035 122.523C110.077 122.618 110.043 122.729 109.957 122.788C109.871 122.846 109.755 122.838 109.681 122.765L105.997 119.082C105.741 118.827 105.327 118.826 105.071 119.082C104.816 119.338 104.816 119.752 105.071 120.008L108.715 123.65C108.813 123.747 108.823 123.901 108.748 124.016C108.673 124.13 108.528 124.181 108.401 124.129L103.617 122.197C103.282 122.062 102.9 122.224 102.765 122.559C102.629 122.894 102.791 123.276 103.126 123.411L107.934 125.354C108.046 125.399 108.107 125.519 108.084 125.637C108.06 125.755 107.958 125.845 107.838 125.845H102.654C102.293 125.845 102 126.139 102 126.5C102 126.861 102.293 127.154 102.654 127.154H107.766C107.928 127.154 108.064 127.274 108.098 127.432C108.132 127.59 108.056 127.752 107.908 127.818L103.227 129.887C102.896 130.033 102.747 130.419 102.893 130.749C103.039 131.08 103.425 131.23 103.756 131.084L108.538 128.97C108.628 128.93 108.734 128.963 108.79 129.044C108.846 129.126 108.838 129.236 108.768 129.306L105.075 132.999C104.82 133.255 104.82 133.669 105.075 133.925C105.331 134.18 105.745 134.18 106 133.925L109.64 130.284C109.74 130.184 109.898 130.174 110.016 130.251C110.134 130.329 110.185 130.478 110.133 130.609L108.203 135.381C108.068 135.716 108.23 136.097 108.564 136.232C108.9 136.368 109.281 136.206 109.417 135.871L111.359 131.065C111.404 130.954 111.523 130.894 111.64 130.917C111.758 130.94 111.847 131.041 111.847 131.161V136.346C111.847 136.707 112.14 137 112.501 137C112.862 137 113.155 136.707 113.155 136.346V131.233C113.155 131.071 113.276 130.935 113.434 130.902C113.593 130.868 113.756 130.945 113.821 131.093L115.884 135.766C116.03 136.096 116.416 136.247 116.747 136.101C117.078 135.955 117.227 135.568 117.081 135.237L114.971 130.457C114.932 130.369 114.964 130.266 115.044 130.212C115.124 130.158 115.231 130.166 115.299 130.234L118.995 133.932C119.251 134.187 119.665 134.187 119.921 133.932C120.176 133.676 120.176 133.261 119.921 133.006L116.286 129.369C116.183 129.267 116.173 129.105 116.252 128.984C116.332 128.863 116.485 128.81 116.62 128.864L121.383 130.79C121.718 130.925 122.099 130.764 122.234 130.429C122.37 130.094 122.208 129.713 121.873 129.577L117.064 127.632C116.955 127.588 116.896 127.472 116.918 127.357C116.94 127.241 117.039 127.154 117.157 127.154H122.346C122.707 127.154 123 126.861 123 126.5C123 126.139 122.707 125.845 122.346 125.845H117.23C117.07 125.845 116.936 125.726 116.904 125.57C116.871 125.415 116.947 125.255 117.092 125.191L121.767 123.125C122.097 122.979 122.247 122.592 122.101 122.262C121.955 121.931 121.569 121.782 121.238 121.928L116.471 124.034C116.378 124.075 116.27 124.041 116.213 123.957C116.157 123.873 116.164 123.76 116.236 123.689L119.924 120.001C120.179 119.745 120.179 119.331 119.924 119.075C119.668 118.82 119.255 118.82 118.999 119.075L115.36 122.715C115.26 122.815 115.102 122.825 114.984 122.747C114.866 122.669 114.815 122.52 114.868 122.389L116.797 117.615C116.932 117.28 116.77 116.898 116.435 116.763C116.1 116.628 115.719 116.789 115.583 117.124L113.639 121.934C113.594 122.044 113.477 122.105 113.36 122.082C113.243 122.06 113.155 121.96 113.155 121.841V116.654C113.155 116.293 112.862 116 112.501 116Z" fill="black"/>
<path d="M112.501 367C112.14 367 111.847 367.293 111.847 367.654V372.77C111.847 372.929 111.729 373.063 111.573 373.096C111.418 373.129 111.259 373.054 111.195 372.909L109.125 368.225C108.979 367.894 108.593 367.745 108.263 367.891C107.932 368.037 107.782 368.423 107.928 368.754L110.035 373.523C110.077 373.618 110.043 373.729 109.957 373.788C109.871 373.846 109.755 373.838 109.681 373.765L105.997 370.082C105.741 369.827 105.327 369.826 105.071 370.082C104.816 370.338 104.816 370.752 105.071 371.008L108.715 374.65C108.813 374.747 108.823 374.901 108.748 375.016C108.673 375.13 108.528 375.181 108.401 375.129L103.617 373.197C103.282 373.062 102.9 373.224 102.765 373.559C102.629 373.894 102.791 374.276 103.126 374.411L107.934 376.354C108.046 376.399 108.107 376.519 108.084 376.637C108.06 376.755 107.958 376.845 107.838 376.845H102.654C102.293 376.845 102 377.139 102 377.5C102 377.861 102.293 378.154 102.654 378.154H107.766C107.928 378.154 108.064 378.274 108.098 378.432C108.132 378.59 108.056 378.752 107.908 378.818L103.227 380.887C102.896 381.033 102.747 381.419 102.893 381.749C103.039 382.08 103.425 382.23 103.756 382.084L108.538 379.97C108.628 379.93 108.734 379.963 108.79 380.044C108.846 380.126 108.838 380.236 108.768 380.306L105.075 383.999C104.82 384.255 104.82 384.669 105.075 384.925C105.331 385.18 105.745 385.18 106 384.925L109.64 381.284C109.74 381.184 109.898 381.174 110.016 381.251C110.134 381.329 110.185 381.478 110.133 381.609L108.203 386.381C108.068 386.716 108.23 387.097 108.564 387.232C108.9 387.368 109.281 387.206 109.417 386.871L111.359 382.065C111.404 381.954 111.523 381.894 111.64 381.917C111.758 381.94 111.847 382.041 111.847 382.161V387.346C111.847 387.707 112.14 388 112.501 388C112.862 388 113.155 387.707 113.155 387.346V382.233C113.155 382.071 113.276 381.935 113.434 381.902C113.593 381.868 113.756 381.945 113.821 382.093L115.884 386.766C116.03 387.096 116.416 387.247 116.747 387.101C117.078 386.955 117.227 386.568 117.081 386.237L114.971 381.457C114.932 381.369 114.964 381.266 115.044 381.212C115.124 381.158 115.231 381.166 115.299 381.234L118.995 384.932C119.251 385.187 119.665 385.187 119.921 384.932C120.176 384.676 120.176 384.261 119.921 384.006L116.286 380.369C116.183 380.267 116.173 380.105 116.252 379.984C116.332 379.863 116.485 379.81 116.62 379.864L121.383 381.79C121.718 381.925 122.099 381.764 122.234 381.429C122.37 381.094 122.208 380.713 121.873 380.577L117.064 378.632C116.955 378.588 116.896 378.472 116.918 378.357C116.94 378.241 117.039 378.154 117.157 378.154H122.346C122.707 378.154 123 377.861 123 377.5C123 377.139 122.707 376.845 122.346 376.845H117.23C117.07 376.845 116.936 376.726 116.904 376.57C116.871 376.415 116.947 376.255 117.092 376.191L121.767 374.125C122.097 373.979 122.247 373.592 122.101 373.262C121.955 372.931 121.569 372.782 121.238 372.928L116.471 375.034C116.378 375.075 116.27 375.041 116.213 374.957C116.157 374.873 116.164 374.76 116.236 374.689L119.924 371.001C120.179 370.745 120.179 370.331 119.924 370.075C119.668 369.82 119.255 369.82 118.999 370.075L115.36 373.715C115.26 373.815 115.102 373.825 114.984 373.747C114.866 373.669 114.815 373.52 114.868 373.389L116.797 368.615C116.932 368.28 116.77 367.898 116.435 367.763C116.1 367.628 115.719 367.789 115.583 368.124L113.639 372.934C113.594 373.044 113.477 373.105 113.36 373.082C113.243 373.06 113.155 372.96 113.155 372.841V367.654C113.155 367.293 112.862 367 112.501 367Z" fill="black"/>
</svg>
