<svg width="172" height="482" viewBox="0 0 172 482" fill="none" xmlns="http://www.w3.org/2000/svg">
<g clip-path="url(#clip0_1095_782)">
<path d="M23.3294 482C21.8048 482 20.4593 481.459 19.639 478.21C18.9555 475.503 12.6046 351.509 9.15091 288.694C9.06184 287.074 8.9669 285.636 10.2416 284.374C11.1141 283.51 11.8775 282.754 14.0589 282.754H78.4075" stroke="black"/>
<path d="M132.65 482C134.175 482 135.52 481.459 136.34 478.21C137.024 475.503 143.375 351.509 146.829 288.694C146.918 287.074 147.013 285.636 145.738 284.374C144.865 283.51 144.102 282.754 141.921 282.754H77.572" stroke="black"/>
<path d="M13.6836 362.344H143.085M18.015 452.763H137.671" stroke="black"/>
<circle cx="105.012" cy="387.249" r="10.87" stroke="black"/>
<path d="M109.686 362.658C110.84 358.949 111.111 355.021 110.476 351.188C109.841 347.355 108.318 343.724 106.029 340.585C103.74 337.446 100.749 334.885 97.2939 333.109C93.8388 331.332 90.0161 330.389 86.1313 330.353C82.2465 330.318 78.4072 331.192 74.9205 332.906C71.4337 334.619 68.3962 337.124 66.0506 340.221C63.7051 343.318 62.1166 346.921 61.4121 350.742C60.7075 354.562 60.9066 358.495 61.9933 362.225" stroke="black"/>
<path d="M70.3112 361.997C72.023 366.71 75.1476 370.781 79.2585 373.653C83.3694 376.524 88.2663 378.058 93.281 378.044C98.2957 378.029 103.184 376.468 107.278 373.573C111.373 370.678 114.474 366.59 116.16 361.867" stroke="black"/>
<path d="M47.1453 362.677L26.3936 444.741" stroke="black"/>
<path d="M31.1099 362.677L41.4858 429.649" stroke="black"/>
<path d="M20.7341 250.429L37.2412 362.206" stroke="black"/>
<circle cx="14.1312" cy="222.131" r="5.63121" stroke="black"/>
<circle cx="16.961" cy="233.45" r="5.63121" stroke="black"/>
<circle cx="19.7909" cy="244.769" r="5.63121" stroke="black"/>
<rect x="134.399" y="422.021" width="116.234" height="30.1277" rx="4.5" transform="rotate(-93.6737 134.399 422.021)" fill="#FFFCF2" stroke="black"/>
<path d="M146.127 406.305L146.172 407.013L142.969 409.092L146.411 410.733L146.454 411.398L142.369 409.475L138.917 411.698L138.871 410.991L141.714 409.162L138.661 407.711L138.616 407.014L142.324 408.767L146.127 406.305ZM139.369 404.662L139.421 405.466L138.52 405.524L138.469 404.72L139.369 404.662ZM145.998 404.301L146.04 404.955L140.809 405.291L140.767 404.637L145.998 404.301ZM145.662 399.059L145.703 399.702L144.867 399.756C145.166 399.944 145.4 400.173 145.568 400.443C145.678 400.601 145.765 400.782 145.828 400.986C145.891 401.182 145.931 401.413 145.948 401.678C145.957 401.82 145.935 401.976 145.881 402.145C145.828 402.313 145.751 402.458 145.651 402.579C145.544 402.701 145.41 402.803 145.251 402.885C145.091 402.967 144.907 403.015 144.7 403.028C144.321 403.052 143.986 402.973 143.695 402.791C143.403 402.602 143.194 402.364 143.068 402.078C142.983 401.882 142.916 401.671 142.865 401.445C142.815 401.211 142.783 401.002 142.771 400.816L142.712 399.894L142.133 399.931C142.026 399.938 141.898 399.961 141.75 399.999C141.601 400.03 141.465 400.092 141.342 400.186C141.212 400.288 141.107 400.431 141.025 400.616C140.936 400.794 140.899 401.001 140.914 401.236C140.934 401.544 141.041 401.806 141.234 402.023C141.42 402.241 141.631 402.342 141.867 402.327L141.915 403.078C141.801 403.085 141.656 403.058 141.48 402.998C141.303 402.93 141.142 402.829 140.997 402.695C140.844 402.547 140.717 402.351 140.615 402.106C140.506 401.855 140.441 401.575 140.421 401.268C140.381 400.646 140.52 400.171 140.836 399.842C141.144 399.507 141.549 399.323 142.049 399.291L145.662 399.059ZM143.73 399.829L143.152 399.866C143.165 400.08 143.183 400.294 143.204 400.508C143.217 400.715 143.258 400.968 143.327 401.265C143.389 401.548 143.516 401.801 143.71 402.026C143.949 402.276 144.229 402.391 144.55 402.37C144.879 402.349 145.113 402.244 145.251 402.056C145.389 401.861 145.45 401.631 145.433 401.366C145.427 401.266 145.393 401.132 145.332 400.964C145.271 400.795 145.196 400.642 145.109 400.504C144.912 400.237 144.67 400.037 144.381 399.905C144.219 399.837 144.002 399.811 143.73 399.829ZM145.159 391.222L145.197 391.823L142.174 392.017C141.988 392.029 141.782 392.053 141.554 392.089C141.319 392.118 141.132 392.166 140.993 392.232C140.819 392.315 140.694 392.431 140.617 392.58C140.533 392.721 140.496 392.882 140.508 393.06C140.529 393.382 140.7 393.647 141.022 393.856C141.343 394.058 141.764 394.178 142.283 394.216C142.434 394.228 142.578 394.233 142.714 394.232C142.844 394.231 142.969 394.226 143.09 394.218L145.342 394.074L145.378 394.642L142.355 394.836C142.169 394.848 141.966 394.872 141.746 394.908C141.525 394.936 141.335 394.988 141.175 395.063C141.001 395.153 140.876 395.268 140.799 395.41C140.714 395.544 140.678 395.712 140.691 395.912C140.706 396.14 140.794 396.336 140.955 396.498C141.108 396.653 141.327 396.771 141.613 396.854C141.877 396.944 142.142 397.003 142.41 397.029C142.676 397.047 142.967 397.05 143.282 397.037L145.523 396.893L145.561 397.494L140.33 397.829L140.291 397.229L141.299 397.164C140.91 397.024 140.631 396.87 140.462 396.701C140.225 396.473 140.095 396.19 140.074 395.854C140.048 395.447 140.138 395.122 140.345 394.879C140.497 394.683 140.755 394.512 141.119 394.366C140.782 394.259 140.522 394.125 140.34 393.964C140.066 393.724 139.916 393.403 139.891 393.003C139.864 392.581 139.988 392.229 140.264 391.946C140.54 391.655 141.01 391.489 141.674 391.446L145.159 391.222ZM142.093 389.417L141.916 386.651C141.33 386.689 140.884 386.796 140.58 386.974C140.414 387.071 140.283 387.212 140.187 387.397C140.091 387.576 140.05 387.776 140.064 387.997C140.093 388.44 140.306 388.796 140.703 389.065C141.056 389.308 141.52 389.425 142.093 389.417ZM142.586 389.375C142.664 389.362 142.735 389.351 142.799 389.339C142.969 389.307 143.141 389.256 143.316 389.188C143.519 389.103 143.712 388.986 143.897 388.838C144.074 388.691 144.226 388.491 144.353 388.238C144.398 388.149 144.44 388.021 144.479 387.854C144.518 387.679 144.531 387.481 144.517 387.259C144.506 387.088 144.467 386.882 144.402 386.642C144.335 386.395 144.243 386.182 144.124 386.003L144.585 385.974C144.751 386.214 144.873 386.49 144.95 386.801C145.027 387.104 145.058 387.418 145.043 387.742C145.032 388.023 144.971 388.299 144.859 388.572C144.748 388.845 144.604 389.066 144.428 389.235C144.213 389.457 143.931 389.647 143.582 389.806C143.233 389.964 142.82 390.059 142.341 390.09C141.948 390.115 141.591 390.088 141.27 390.008C140.942 389.929 140.658 389.803 140.417 389.632C140.176 389.461 139.983 389.244 139.837 388.981C139.683 388.711 139.595 388.393 139.571 388.029C139.552 387.736 139.599 387.453 139.711 387.18C139.815 386.901 139.962 386.683 140.153 386.528C140.521 386.224 141.077 386.048 141.82 386.001L142.367 385.966L142.586 389.375ZM144.474 380.556L144.514 381.188L141.062 381.41C140.669 381.435 140.343 381.553 140.084 381.763C139.852 381.943 139.748 382.23 139.773 382.623C139.795 382.959 139.964 383.246 140.281 383.484C140.59 383.715 141.023 383.874 141.581 383.96C141.719 383.98 141.856 383.993 141.993 383.998C142.129 383.997 142.262 383.992 142.39 383.983L144.684 383.836L144.724 384.458L139.493 384.794L139.453 384.172L140.589 384.099C140.172 383.975 139.852 383.788 139.627 383.536C139.38 383.265 139.245 382.947 139.222 382.583C139.188 382.054 139.305 381.641 139.573 381.344C139.853 381.01 140.307 380.823 140.936 380.783L144.474 380.556ZM143.543 373.264C143.537 372.948 143.454 372.674 143.296 372.44C143.137 372.206 142.94 372.036 142.703 371.929C142.459 371.808 142.199 371.732 141.924 371.699C141.642 371.66 141.358 371.649 141.072 371.668L136.366 371.97L136.324 371.316L141.062 371.012C141.377 370.991 141.711 371.002 142.065 371.044C142.412 371.079 142.734 371.177 143.031 371.337C143.321 371.491 143.569 371.719 143.775 372.021C143.974 372.324 144.089 372.726 144.121 373.226C144.154 373.727 144.09 374.14 143.932 374.466C143.766 374.792 143.55 375.05 143.282 375.239C143.008 375.436 142.701 375.575 142.361 375.654C142.015 375.733 141.684 375.783 141.37 375.803L136.632 376.108L136.59 375.454L141.296 375.152C141.582 375.133 141.862 375.09 142.138 375.022C142.406 374.948 142.653 374.838 142.881 374.695C143.102 374.558 143.273 374.368 143.393 374.124C143.513 373.872 143.563 373.585 143.543 373.264ZM143.494 365.29L143.534 365.923L140.082 366.144C139.689 366.17 139.363 366.288 139.104 366.498C138.871 366.678 138.768 366.964 138.793 367.357C138.815 367.693 138.984 367.98 139.3 368.218C139.61 368.45 140.043 368.608 140.601 368.695C140.739 368.714 140.876 368.727 141.013 368.733C141.149 368.731 141.281 368.726 141.41 368.718L143.704 368.571L143.744 369.192L138.513 369.528L138.473 368.907L139.609 368.834C139.192 368.71 138.871 368.522 138.647 368.271C138.4 368 138.265 367.682 138.242 367.318C138.208 366.789 138.325 366.376 138.593 366.079C138.873 365.745 139.327 365.558 139.956 365.517L143.494 365.29ZM136.718 363.368L136.769 364.172L135.869 364.23L135.817 363.426L136.718 363.368ZM143.347 363.007L143.389 363.661L138.157 363.997L138.115 363.343L143.347 363.007ZM137.755 357.726L143.102 359.191L143.141 359.802L138.036 362.099L137.996 361.478L142.425 359.546L137.793 358.315L137.755 357.726ZM139.948 356.002L139.77 353.237C139.184 353.274 138.739 353.382 138.435 353.559C138.269 353.656 138.138 353.797 138.042 353.983C137.946 354.161 137.905 354.361 137.919 354.583C137.947 355.026 138.16 355.382 138.558 355.65C138.911 355.893 139.374 356.01 139.948 356.002ZM140.44 355.96C140.518 355.948 140.589 355.936 140.653 355.925C140.823 355.892 140.996 355.842 141.171 355.773C141.374 355.688 141.567 355.572 141.751 355.424C141.928 355.276 142.081 355.076 142.208 354.824C142.252 354.735 142.294 354.607 142.334 354.439C142.373 354.264 142.385 354.066 142.371 353.845C142.36 353.673 142.322 353.467 142.256 353.228C142.19 352.981 142.097 352.768 141.978 352.589L142.439 352.559C142.605 352.8 142.727 353.075 142.805 353.386C142.881 353.69 142.912 354.004 142.897 354.328C142.887 354.608 142.825 354.885 142.714 355.157C142.602 355.43 142.458 355.651 142.283 355.82C142.067 356.042 141.785 356.232 141.437 356.391C141.088 356.55 140.674 356.645 140.195 356.675C139.802 356.701 139.445 356.673 139.125 356.593C138.797 356.514 138.512 356.389 138.272 356.218C138.031 356.046 137.838 355.829 137.692 355.566C137.538 355.296 137.449 354.979 137.426 354.614C137.407 354.321 137.453 354.038 137.565 353.766C137.669 353.486 137.817 353.269 138.008 353.113C138.376 352.809 138.931 352.634 139.675 352.586L140.221 352.551L140.44 355.96ZM137.696 348.59C137.707 348.769 137.748 348.964 137.819 349.175C137.89 349.385 137.986 349.584 138.105 349.77C138.231 349.948 138.407 350.113 138.632 350.263C138.85 350.414 139.093 350.51 139.361 350.55C139.679 350.587 140.01 350.595 140.353 350.573L142.54 350.432L142.579 351.043L137.347 351.379L137.308 350.768L138.552 350.688C138.017 350.414 137.647 350.115 137.439 349.791C137.201 349.433 137.068 349.047 137.042 348.632L137.696 348.59ZM140.806 344.214C141.013 344.201 141.212 344.228 141.403 344.294C141.593 344.354 141.75 344.444 141.872 344.566C142.011 344.722 142.126 344.937 142.215 345.211C142.304 345.478 142.359 345.779 142.381 346.115C142.406 346.508 142.35 346.975 142.212 347.515L141.601 347.554C141.626 347.495 141.682 347.305 141.769 346.983C141.856 346.662 141.892 346.383 141.877 346.148C141.851 345.747 141.775 345.447 141.647 345.247C141.442 344.959 141.193 344.824 140.9 344.843C140.7 344.856 140.535 344.92 140.406 345.036C140.277 345.152 140.172 345.295 140.089 345.466C140.015 345.643 139.935 345.863 139.852 346.127C139.761 346.391 139.663 346.645 139.556 346.889C139.469 347.088 139.334 347.276 139.151 347.453C138.961 347.623 138.705 347.718 138.384 347.739C137.948 347.767 137.598 347.631 137.335 347.333C137.064 347.027 136.912 346.61 136.878 346.081C136.85 345.638 136.893 345.197 137.008 344.759L137.598 344.722C137.58 344.773 137.533 344.945 137.459 345.236C137.377 345.522 137.346 345.825 137.367 346.147C137.383 346.404 137.47 346.639 137.627 346.851C137.784 347.056 137.984 347.151 138.227 347.135C138.405 347.124 138.553 347.082 138.671 347.01C138.78 346.931 138.88 346.81 138.97 346.646C139.061 346.497 139.157 346.265 139.259 345.95C139.353 345.628 139.451 345.36 139.552 345.145C139.652 344.909 139.807 344.702 140.018 344.523C140.221 344.338 140.484 344.235 140.806 344.214ZM135.381 342.55L135.433 343.354L134.532 343.411L134.481 342.607L135.381 342.55ZM142.01 342.189L142.052 342.842L136.821 343.178L136.779 342.524L142.01 342.189ZM137.012 338.451L137.101 339.834L140.135 339.639C140.299 339.629 140.457 339.619 140.607 339.609C140.757 339.599 140.905 339.558 141.051 339.484C141.183 339.418 141.277 339.318 141.333 339.186C141.389 339.053 141.411 338.897 141.4 338.719C141.388 338.526 141.362 338.351 141.323 338.196L141.838 338.163C141.869 338.319 141.894 338.533 141.911 338.804C141.942 339.283 141.864 339.636 141.678 339.863C141.484 340.084 141.151 340.209 140.679 340.239L137.142 340.467L137.196 341.303L136.702 341.334L136.649 340.498L135.362 340.581L135 339.969L136.608 339.866L136.519 338.483L137.012 338.451ZM136.238 334.098L136.197 333.455L143.47 335.421L143.511 336.053L141.342 335.471L136.468 337.679L136.426 337.036L140.498 335.235L136.238 334.098ZM154.944 404.814C155.509 404.777 155.964 404.888 156.311 405.146C156.65 405.397 156.89 405.722 157.03 406.122C157.081 406.248 157.12 406.407 157.147 406.599C157.173 406.784 157.19 406.934 157.197 407.048L157.327 409.063L149.801 409.546L149.678 407.628C149.635 406.956 149.765 406.413 150.069 405.999C150.372 405.584 150.838 405.357 151.467 405.317C151.853 405.292 152.193 405.389 152.487 405.607C152.773 405.818 153.005 406.133 153.183 406.552C153.242 406.132 153.404 405.749 153.669 405.401C153.926 405.048 154.351 404.852 154.944 404.814ZM156.717 408.457L156.639 407.245C156.633 407.138 156.62 406.999 156.602 406.828C156.576 406.65 156.546 406.512 156.511 406.414C156.374 406.071 156.168 405.822 155.892 405.668C155.617 405.513 155.315 405.446 154.986 405.468C154.643 405.49 154.348 405.595 154.102 405.783C153.856 405.971 153.687 406.244 153.595 406.601C153.573 406.703 153.556 406.833 153.545 406.992C153.533 407.143 153.532 407.294 153.541 407.444L153.619 408.655L156.717 408.457ZM151.51 405.981C151.095 406.008 150.785 406.146 150.578 406.396C150.372 406.647 150.259 406.959 150.24 407.333C150.238 407.412 150.24 407.502 150.247 407.602C150.246 407.702 150.248 407.795 150.254 407.881L150.317 408.867L153.051 408.692L152.988 407.716C152.984 407.645 152.978 407.556 152.971 407.448C152.964 407.341 152.954 407.245 152.942 407.16C152.875 406.784 152.716 406.489 152.465 406.275C152.214 406.055 151.896 405.957 151.51 405.981ZM157.339 402.378L157.398 403.3L156.39 403.364L156.331 402.443L157.339 402.378ZM149.611 397.535L149.807 400.59L152.52 400.416L152.33 397.468L152.92 397.43L153.109 400.378L156.754 400.144L156.796 400.798L149.27 401.281L149.032 397.572L149.611 397.535ZM156.95 396.321L157.009 397.243L156.001 397.308L155.942 396.386L156.95 396.321ZM149.325 392.914L153.347 393.851L153.194 391.471L149.325 392.914ZM148.71 392.555L156.082 389.681L156.127 390.378L153.761 391.251L153.937 393.985L156.395 394.559L156.439 395.245L148.76 393.338L148.71 392.555ZM156.39 387.606L156.449 388.527L155.442 388.592L155.383 387.67L156.39 387.606ZM148.966 382.453L149.017 383.257L148.117 383.314L148.065 382.51L148.966 382.453ZM155.595 382.091L155.637 382.745L150.405 383.081L150.363 382.427L155.595 382.091ZM155.24 376.56L155.28 377.192L151.828 377.414C151.435 377.439 151.109 377.557 150.85 377.767C150.618 377.947 150.514 378.234 150.539 378.627C150.561 378.963 150.73 379.25 151.047 379.488C151.356 379.719 151.789 379.878 152.347 379.964C152.485 379.984 152.622 379.997 152.759 380.002C152.895 380.001 153.028 379.996 153.156 379.988L155.45 379.84L155.49 380.462L150.259 380.798L150.219 380.176L151.355 380.103C150.938 379.979 150.618 379.792 150.393 379.541C150.146 379.269 150.011 378.952 149.988 378.587C149.954 378.058 150.071 377.645 150.339 377.348C150.619 377.014 151.073 376.827 151.702 376.787L155.24 376.56ZM147.738 368.365L147.934 371.421L150.647 371.247L150.457 368.299L151.047 368.261L151.236 371.209L154.881 370.975L154.923 371.629L147.398 372.112L147.159 368.403L147.738 368.365ZM147.931 366.329L147.982 367.133L147.082 367.191L147.03 366.387L147.931 366.329ZM154.56 365.968L154.602 366.622L149.37 366.958L149.328 366.304L154.56 365.968ZM154.205 360.437L154.245 361.069L150.793 361.291C150.4 361.316 150.074 361.434 149.815 361.644C149.582 361.824 149.479 362.111 149.504 362.504C149.526 362.84 149.695 363.127 150.011 363.365C150.321 363.596 150.754 363.755 151.312 363.841C151.45 363.861 151.587 363.874 151.724 363.879C151.86 363.878 151.992 363.873 152.121 363.864L154.415 363.717L154.455 364.339L149.224 364.675L149.184 364.053L150.32 363.98C149.903 363.856 149.582 363.669 149.358 363.418C149.111 363.146 148.976 362.829 148.953 362.464C148.919 361.935 149.036 361.522 149.304 361.225C149.584 360.891 150.038 360.704 150.667 360.664L154.205 360.437ZM151.139 358.631L150.962 355.866C150.376 355.903 149.93 356.011 149.626 356.188C149.46 356.285 149.329 356.426 149.233 356.612C149.137 356.79 149.096 356.99 149.11 357.212C149.139 357.655 149.352 358.011 149.75 358.279C150.102 358.522 150.566 358.64 151.139 358.631ZM151.632 358.589C151.71 358.577 151.781 358.565 151.845 358.554C152.015 358.521 152.187 358.471 152.362 358.402C152.565 358.317 152.758 358.201 152.943 358.053C153.12 357.905 153.272 357.705 153.399 357.453C153.444 357.364 153.486 357.236 153.525 357.068C153.564 356.893 153.577 356.695 153.563 356.474C153.552 356.302 153.513 356.097 153.448 355.857C153.382 355.61 153.289 355.397 153.17 355.218L153.631 355.188C153.797 355.429 153.919 355.705 153.996 356.015C154.073 356.319 154.104 356.633 154.089 356.957C154.078 357.237 154.017 357.514 153.905 357.787C153.794 358.059 153.65 358.28 153.474 358.449C153.259 358.671 152.977 358.862 152.628 359.02C152.279 359.179 151.866 359.274 151.387 359.305C150.994 359.33 150.637 359.302 150.316 359.223C149.988 359.143 149.704 359.018 149.463 358.847C149.222 358.676 149.029 358.458 148.883 358.195C148.729 357.925 148.641 357.608 148.617 357.243C148.599 356.95 148.645 356.667 148.757 356.395C148.861 356.115 149.008 355.898 149.199 355.742C149.567 355.439 150.123 355.263 150.866 355.215L151.413 355.18L151.632 358.589ZM146.474 348.5L150.495 349.437L150.342 347.057L146.474 348.5ZM145.859 348.142L153.231 345.268L153.275 345.965L150.909 346.838L151.085 349.571L153.544 350.146L153.588 350.832L145.909 348.924L145.859 348.142ZM148.274 341.668C148.285 341.847 148.327 342.041 148.398 342.252C148.468 342.463 148.564 342.661 148.683 342.847C148.81 343.026 148.985 343.19 149.21 343.341C149.428 343.492 149.671 343.588 149.939 343.628C150.257 343.665 150.588 343.672 150.931 343.65L153.118 343.51L153.157 344.121L147.926 344.457L147.886 343.846L149.13 343.766C148.596 343.492 148.225 343.192 148.017 342.868C147.779 342.511 147.647 342.124 147.62 341.71L148.274 341.668ZM148.017 338.175L148.106 339.558L151.14 339.363C151.304 339.353 151.462 339.343 151.612 339.333C151.762 339.323 151.91 339.282 152.056 339.208C152.188 339.142 152.282 339.042 152.338 338.91C152.394 338.777 152.416 338.621 152.405 338.443C152.392 338.25 152.367 338.075 152.328 337.92L152.843 337.887C152.874 338.043 152.899 338.257 152.916 338.528C152.947 339.007 152.869 339.36 152.683 339.587C152.489 339.808 152.156 339.933 151.684 339.963L148.147 340.191L148.2 341.027L147.707 341.058L147.654 340.222L146.367 340.305L146.005 339.693L147.613 339.59L147.524 338.207L148.017 338.175ZM151.151 333.668C151.358 333.655 151.557 333.682 151.748 333.748C151.939 333.808 152.095 333.898 152.218 334.02C152.357 334.176 152.471 334.391 152.561 334.665C152.649 334.932 152.705 335.233 152.726 335.569C152.752 335.962 152.695 336.429 152.558 336.969L151.947 337.008C151.972 336.949 152.028 336.759 152.115 336.437C152.202 336.116 152.238 335.838 152.222 335.602C152.197 335.201 152.12 334.901 151.992 334.701C151.787 334.413 151.538 334.279 151.245 334.297C151.045 334.31 150.881 334.375 150.752 334.491C150.623 334.606 150.517 334.75 150.435 334.92C150.36 335.097 150.281 335.317 150.197 335.581C150.107 335.845 150.008 336.099 149.902 336.343C149.814 336.542 149.679 336.73 149.497 336.907C149.307 337.077 149.051 337.172 148.729 337.193C148.293 337.221 147.944 337.086 147.681 336.787C147.41 336.481 147.257 336.064 147.224 335.535C147.195 335.092 147.239 334.651 147.354 334.214L147.944 334.176C147.925 334.227 147.879 334.399 147.804 334.691C147.722 334.976 147.691 335.279 147.712 335.601C147.729 335.858 147.815 336.093 147.973 336.305C148.129 336.51 148.329 336.605 148.572 336.59C148.751 336.578 148.899 336.536 149.016 336.464C149.126 336.385 149.226 336.264 149.316 336.1C149.407 335.951 149.503 335.719 149.605 335.404C149.699 335.082 149.797 334.814 149.898 334.599C149.997 334.363 150.153 334.156 150.364 333.977C150.567 333.792 150.829 333.689 151.151 333.668Z" fill="black"/>
<path d="M138.068 318.228C137.883 315.347 140.044 312.872 142.883 312.689C145.721 312.507 148.181 314.685 148.366 317.567C148.551 320.448 146.39 322.923 143.551 323.105C140.713 323.287 138.253 321.109 138.068 318.228Z" stroke="black"/>
<path d="M128.738 282.392C128.738 278.665 130.401 273.539 132.162 273.539C136.808 273.539 141.21 300.564 141.944 312.213" stroke="black" stroke-linecap="round"/>
</g>
<defs>
<clipPath id="clip0_1095_782">
<rect width="172" height="482" fill="white"/>
</clipPath>
</defs>
</svg>
