<svg width="223" height="482" viewBox="0 0 223 482" fill="none" xmlns="http://www.w3.org/2000/svg">
<g clip-path="url(#clip0_1095_1004)">
<path d="M60.6854 118.554C59.5424 115.626 57.5579 113.643 54.7321 112.608C51.9063 111.572 48.9619 111.652 45.8989 112.848C42.8582 114.034 40.686 116.093 39.3822 119.023C38.0784 121.954 38.0154 124.928 39.1934 127.947C40.2055 130.54 41.4052 132.558 42.7925 134L52.6523 130.153L53.2805 131.762L42.6829 135.898C40.7165 134.424 39.0484 131.932 37.6785 128.422C36.3173 124.934 36.3617 121.516 37.8117 118.168C39.284 114.811 41.7528 112.456 45.2183 111.104C48.7061 109.743 52.0625 109.695 55.2875 110.961C58.5349 112.219 60.826 114.558 62.161 117.979C63.208 120.661 63.821 123.552 63.9999 126.651L62.4883 126.739C62.2462 123.742 61.6452 121.014 60.6854 118.554ZM47.9322 144.101C49.4606 140.953 51.9688 138.699 55.4566 137.338C58.9444 135.977 62.3052 135.941 65.5389 137.229C68.8037 138.531 71.0992 140.882 72.4255 144.28C73.7517 147.678 73.655 150.962 72.1353 154.132C70.6379 157.292 68.1453 159.553 64.6575 160.914C61.1697 162.276 57.7934 162.305 54.5285 161.003C51.2637 159.701 48.9682 157.351 47.6419 153.952C46.3157 150.554 46.4124 147.27 47.9322 144.101ZM64.9704 138.842C62.167 137.798 59.2225 137.878 56.1372 139.082C53.0518 140.286 50.8204 142.226 49.443 144.902C48.0743 147.6 47.9658 150.425 49.1176 153.376C50.278 156.35 52.2712 158.354 55.097 159.39C57.9316 160.448 60.8915 160.375 63.9769 159.171C67.0623 157.966 69.2781 156.02 70.6245 153.33C72.0019 150.654 72.1103 147.83 70.9499 144.856C69.7894 141.882 67.7963 139.878 64.9704 138.842ZM58.9629 172.366C60.4914 169.219 62.9995 166.964 66.4873 165.603C69.9751 164.242 73.3359 164.206 76.5696 165.494C79.8345 166.797 82.13 169.147 83.4562 172.545C84.7825 175.944 84.6857 179.227 83.166 182.397C81.6686 185.557 79.176 187.818 75.6882 189.18C72.2004 190.541 68.8241 190.57 65.5593 189.268C62.2945 187.966 59.9989 185.616 58.6727 182.217C57.3464 178.819 57.4432 175.535 58.9629 172.366ZM76.0012 167.107C73.1977 166.063 70.2533 166.143 67.1679 167.347C64.0825 168.551 61.8511 170.491 60.4737 173.167C59.105 175.865 58.9966 178.69 60.1483 181.641C61.3088 184.615 63.3019 186.619 66.1278 187.655C68.9623 188.713 71.9223 188.64 75.0076 187.436C78.093 186.232 80.3089 184.285 81.6552 181.595C83.0326 178.919 83.1411 176.095 81.9806 173.121C80.8202 170.147 78.827 168.143 76.0012 167.107ZM70.2326 207.184C71.4629 210.337 73.2984 212.532 75.7393 213.769C78.2112 215.02 81.1687 214.973 84.6118 213.63C88.0549 212.286 90.3705 210.133 91.5587 207.17C92.7557 204.23 92.7346 201.172 91.4956 197.997C90.7016 195.963 89.9564 194.218 89.26 192.764L68.132 201.009C68.5203 202.532 69.2205 204.591 70.2326 207.184ZM92.9712 197.421C94.4109 201.11 94.4636 204.645 93.1293 208.026C91.8173 211.397 89.1938 213.851 85.2589 215.387C83.269 216.163 81.3762 216.528 79.5805 216.482C77.8159 216.449 76.2571 216.053 74.9042 215.293C72.1498 213.714 70.1007 211.203 68.757 207.76C67.8757 205.502 66.9997 202.894 66.1288 199.936L90.0403 190.604C91.0868 192.824 92.0638 195.096 92.9712 197.421ZM104.315 227.379C105.13 229.071 105.89 230.822 106.597 232.633C107.313 234.467 107.481 236.217 107.101 237.885C106.73 239.576 105.695 240.753 103.996 241.416C102.722 241.913 101.397 242.018 100.022 241.73C98.6564 241.464 97.5019 240.949 96.5591 240.183C96.6867 241.963 96.3563 243.624 95.5678 245.169C94.7793 246.713 93.636 247.778 92.1381 248.362C90.0364 249.182 88.1761 249.136 86.557 248.222C84.9467 247.33 83.6878 245.722 82.7804 243.396C81.8817 241.094 81.1117 238.856 80.4704 236.685L104.315 227.379ZM84.301 243.035C84.938 244.667 85.9086 245.834 87.213 246.536C88.5398 247.229 89.9074 247.301 91.316 246.751C92.7245 246.201 93.7423 245.211 94.3694 243.782C95.0052 242.374 95.1685 240.713 94.8593 238.798C94.7153 237.901 94.4296 236.905 94.002 235.81C93.5832 234.736 93.2953 233.999 93.1382 233.596L82.4401 237.771C82.7122 238.799 83.3325 240.553 84.301 243.035ZM103.401 239.793C104.631 239.313 105.381 238.428 105.65 237.138C105.928 235.87 105.818 234.599 105.321 233.324C104.832 232.072 104.282 230.793 103.669 229.487L94.5132 233.06C94.6267 233.35 94.8404 233.898 95.1545 234.703C95.4687 235.508 95.864 236.719 96.3407 238.336C97.2699 239.133 98.3771 239.693 99.6625 240.016C100.948 240.338 102.194 240.264 103.401 239.793ZM90.486 262.547L89.8577 260.937L98.4431 257.587L110.316 242.558L111.075 244.503L101.657 256.217C101.099 256.898 100.603 257.478 100.171 257.956C100.497 257.932 101.223 258.009 102.349 258.188L117.279 260.399L117.998 262.244L99.0043 259.223L90.486 262.547ZM103.799 293.194C105.029 296.346 106.865 298.541 109.305 299.778C111.777 301.029 114.735 300.983 118.178 299.639C121.621 298.296 123.937 296.142 125.125 293.18C126.322 290.239 126.301 287.182 125.062 284.007C124.268 281.972 123.523 280.228 122.826 278.774L101.698 287.019C102.086 288.542 102.787 290.6 103.799 293.194ZM126.537 283.431C127.977 287.12 128.03 290.655 126.695 294.035C125.383 297.407 122.76 299.861 118.825 301.396C116.835 302.173 114.942 302.538 113.147 302.492C111.382 302.459 109.823 302.062 108.47 301.302C105.716 299.724 103.667 297.213 102.323 293.77C101.442 291.512 100.566 288.904 99.6949 285.946L123.607 276.614C124.653 278.833 125.63 281.106 126.537 283.431ZM109.777 311.977L133.755 302.619L138.101 313.754L136.692 314.303L132.975 304.779L124.155 308.221L127.519 316.84L126.144 317.376L122.78 308.758L111.813 313.037L115.674 322.931L114.266 323.48L109.777 311.977ZM142.167 330.413C142.224 328.51 141.937 326.754 141.309 325.144C140.035 321.88 138.191 320.719 135.776 321.661C134.726 322.071 133.886 322.824 133.257 323.92C132.651 325.006 132.195 326.215 131.89 327.545C131.607 328.866 131.301 330.196 130.973 331.535C130.646 332.874 130.112 334.113 129.371 335.252C128.631 336.391 127.657 337.196 126.449 337.667C124.415 338.461 122.606 338.382 121.023 337.428C119.462 336.465 118.211 334.777 117.268 332.362C116.335 329.97 116.151 327.684 116.718 325.505L118.239 325.839C117.817 327.859 117.981 329.83 118.731 331.753C119.481 333.676 120.437 335.003 121.599 335.735C122.783 336.458 124.101 336.536 125.554 335.968C126.561 335.576 127.367 334.836 127.973 333.749C128.602 332.654 129.069 331.441 129.374 330.111C129.702 328.772 130.041 327.429 130.391 326.082C130.741 324.734 131.298 323.486 132.06 322.339C132.823 321.191 133.808 320.381 135.016 319.91C136.603 319.29 138.082 319.383 139.452 320.188C140.854 321.006 141.943 322.411 142.719 324.4C143.505 326.413 143.831 328.437 143.698 330.472L142.167 330.413ZM122.891 345.582L146.87 336.224L147.498 337.834L123.52 347.192L122.891 345.582ZM153.369 356.045C152.226 353.116 150.241 351.134 147.415 350.098C144.589 349.063 141.645 349.142 138.582 350.338C135.541 351.525 133.369 353.583 132.065 356.514C130.762 359.444 130.699 362.419 131.876 365.437C132.889 368.03 134.088 370.048 135.476 371.491L145.335 367.643L145.964 369.252L135.366 373.388C133.4 371.914 131.731 369.422 130.362 365.912C129 362.424 129.045 359.006 130.495 355.658C131.967 352.301 134.436 349.946 137.901 348.594C141.389 347.233 144.746 347.185 147.971 348.451C151.218 349.709 153.509 352.048 154.844 355.469C155.891 358.152 156.504 361.043 156.683 364.142L155.171 364.229C154.929 361.232 154.328 358.504 153.369 356.045ZM157.441 374.599L154.616 375.779L137.312 382.532L136.683 380.923L160.863 371.486L161.151 372.224L149.105 395.126C148.25 396.697 147.555 397.921 147.022 398.799C148.06 398.291 149.272 397.766 150.659 397.225L168.031 390.446L168.659 392.055L144.479 401.492L144.191 400.754L156.454 377.419C157.293 375.804 157.863 374.757 158.166 374.278L157.441 374.599Z" fill="black"/>
<path d="M162.766 443.93C162.596 443.61 162.333 443.412 161.979 443.337C161.624 443.262 161.242 443.305 160.832 443.465C160.532 443.582 160.288 443.733 160.101 443.918C159.916 444.102 159.794 444.303 159.735 444.522C159.677 444.74 159.691 444.957 159.775 445.173C159.846 445.354 159.95 445.493 160.086 445.589C160.224 445.683 160.379 445.746 160.549 445.778C160.718 445.809 160.889 445.822 161.06 445.819C161.231 445.813 161.386 445.803 161.524 445.787L162.285 445.703C162.479 445.681 162.7 445.668 162.948 445.665C163.199 445.662 163.45 445.692 163.704 445.756C163.959 445.816 164.194 445.93 164.409 446.098C164.625 446.265 164.794 446.508 164.918 446.825C165.061 447.192 165.094 447.56 165.018 447.93C164.943 448.3 164.757 448.643 164.459 448.96C164.163 449.276 163.755 449.536 163.235 449.739C162.749 449.929 162.299 450.014 161.882 449.996C161.468 449.977 161.105 449.868 160.793 449.667C160.483 449.465 160.243 449.184 160.072 448.824L160.918 448.493C161.04 448.74 161.209 448.919 161.424 449.028C161.641 449.134 161.881 449.182 162.145 449.174C162.409 449.162 162.676 449.103 162.945 448.998C163.258 448.876 163.52 448.716 163.73 448.517C163.938 448.316 164.08 448.096 164.154 447.856C164.227 447.614 164.216 447.369 164.119 447.122C164.031 446.897 163.897 446.739 163.716 446.647C163.535 446.554 163.325 446.504 163.086 446.496C162.846 446.488 162.594 446.497 162.33 446.524L161.404 446.611C160.815 446.666 160.311 446.612 159.892 446.45C159.473 446.288 159.175 445.979 158.997 445.523C158.849 445.143 158.822 444.772 158.917 444.41C159.013 444.045 159.205 443.716 159.493 443.423C159.781 443.128 160.142 442.895 160.574 442.727C161.011 442.556 161.429 442.483 161.83 442.507C162.23 442.529 162.582 442.636 162.885 442.827C163.191 443.018 163.416 443.282 163.56 443.62L162.766 443.93ZM171.737 440.917L170.916 441.237C170.776 441.02 170.61 440.846 170.419 440.714C170.23 440.582 170.026 440.489 169.807 440.435C169.589 440.378 169.364 440.359 169.133 440.378C168.901 440.397 168.673 440.45 168.448 440.538C168.038 440.698 167.707 440.947 167.455 441.284C167.205 441.621 167.06 442.029 167.022 442.509C166.985 442.988 167.081 443.521 167.31 444.108C167.539 444.695 167.829 445.152 168.181 445.48C168.535 445.807 168.917 446.009 169.329 446.088C169.743 446.165 170.155 446.124 170.565 445.963C170.79 445.876 170.994 445.76 171.178 445.618C171.361 445.475 171.514 445.31 171.636 445.122C171.76 444.932 171.847 444.724 171.896 444.499C171.947 444.271 171.951 444.03 171.908 443.777L172.728 443.457C172.802 443.828 172.81 444.181 172.754 444.519C172.697 444.856 172.585 445.168 172.417 445.454C172.249 445.738 172.033 445.989 171.769 446.206C171.508 446.423 171.207 446.598 170.865 446.731C170.287 446.956 169.718 447.016 169.158 446.909C168.598 446.802 168.087 446.539 167.626 446.119C167.165 445.7 166.795 445.132 166.516 444.418C166.237 443.703 166.125 443.035 166.18 442.414C166.235 441.793 166.432 441.254 166.772 440.796C167.112 440.338 167.571 439.996 168.149 439.771C168.49 439.637 168.831 439.562 169.169 439.544C169.51 439.525 169.839 439.564 170.157 439.662C170.473 439.757 170.767 439.909 171.037 440.119C171.306 440.326 171.539 440.592 171.737 440.917ZM176.276 444.512L175.416 444.848L175.26 437.102L176.107 436.772L181.238 442.576L180.378 442.912L176.128 437.998L176.075 438.019L176.276 444.512ZM175.561 441.742L179.028 440.389L179.312 441.117L175.845 442.47L175.561 441.742ZM185.502 440.912L183.412 441.728L180.768 434.953L182.951 434.101C183.608 433.844 184.223 433.76 184.797 433.849C185.369 433.936 185.879 434.183 186.325 434.591C186.771 434.996 187.13 435.55 187.404 436.251C187.679 436.957 187.791 437.613 187.738 438.221C187.685 438.826 187.471 439.36 187.097 439.821C186.722 440.28 186.19 440.643 185.502 440.912ZM183.948 440.68L185.165 440.205C185.726 439.986 186.148 439.697 186.432 439.337C186.716 438.977 186.87 438.562 186.895 438.092C186.92 437.623 186.825 437.112 186.61 436.561C186.396 436.014 186.123 435.578 185.791 435.253C185.457 434.926 185.071 434.725 184.634 434.652C184.195 434.577 183.711 434.642 183.182 434.849L181.872 435.36L183.948 440.68ZM167.177 454.211L167.997 453.891L169.748 458.377C169.929 458.84 169.981 459.296 169.905 459.745C169.83 460.191 169.636 460.596 169.323 460.96C169.009 461.321 168.586 461.606 168.055 461.813C167.523 462.021 167.02 462.098 166.544 462.044C166.067 461.989 165.649 461.823 165.29 461.546C164.932 461.267 164.662 460.896 164.481 460.432L162.731 455.947L163.551 455.626L165.276 460.046C165.405 460.377 165.593 460.643 165.839 460.844C166.085 461.043 166.371 461.164 166.697 461.207C167.025 461.247 167.378 461.193 167.755 461.046C168.132 460.898 168.428 460.699 168.642 460.448C168.856 460.194 168.985 459.911 169.028 459.6C169.073 459.285 169.031 458.962 168.902 458.631L167.177 454.211ZM171.151 452.661L173.997 454.798L174.05 454.777L174.697 451.277L175.663 450.9L174.854 455.119L178.307 457.675L177.341 458.052L174.515 455.968L174.462 455.988L173.795 459.436L172.829 459.813L173.69 455.573L170.185 453.038L171.151 452.661ZM182.583 456.006L180.493 456.822L177.848 450.047L180.032 449.195C180.689 448.938 181.304 448.854 181.878 448.943C182.45 449.03 182.96 449.277 183.406 449.685C183.852 450.09 184.211 450.644 184.485 451.345C184.76 452.051 184.872 452.707 184.819 453.315C184.766 453.92 184.552 454.454 184.178 454.915C183.803 455.374 183.271 455.737 182.583 456.006ZM181.029 455.774L182.246 455.299C182.806 455.08 183.229 454.791 183.513 454.431C183.796 454.071 183.951 453.656 183.976 453.187C184.001 452.717 183.906 452.206 183.691 451.655C183.477 451.108 183.204 450.672 182.872 450.347C182.538 450.02 182.152 449.819 181.715 449.746C181.276 449.671 180.792 449.737 180.263 449.943L178.953 450.454L181.029 455.774ZM191.12 447.307C190.96 447.113 190.786 446.951 190.598 446.821C190.412 446.688 190.212 446.59 190 446.528C189.79 446.465 189.569 446.441 189.338 446.455C189.108 446.469 188.87 446.523 188.625 446.619C188.223 446.775 187.899 447.022 187.651 447.357C187.404 447.693 187.261 448.1 187.225 448.579C187.188 449.059 187.284 449.592 187.513 450.178C187.742 450.765 188.034 451.222 188.387 451.549C188.741 451.876 189.126 452.078 189.542 452.154C189.958 452.231 190.376 452.187 190.795 452.023C191.183 451.872 191.493 451.656 191.724 451.375C191.956 451.091 192.096 450.765 192.142 450.396C192.19 450.024 192.133 449.631 191.971 449.216L192.244 449.171L190.206 449.966L189.922 449.239L192.502 448.232L192.786 448.959C193.004 449.517 193.074 450.049 192.997 450.554C192.922 451.059 192.72 451.506 192.392 451.896C192.065 452.283 191.633 452.581 191.095 452.791C190.495 453.025 189.913 453.09 189.348 452.985C188.786 452.879 188.276 452.615 187.82 452.194C187.365 451.771 186.998 451.203 186.719 450.488C186.51 449.952 186.394 449.442 186.37 448.959C186.348 448.472 186.41 448.026 186.557 447.62C186.704 447.215 186.926 446.861 187.225 446.559C187.524 446.257 187.891 446.021 188.325 445.851C188.683 445.712 189.037 445.636 189.388 445.624C189.74 445.608 190.076 445.651 190.395 445.753C190.715 445.851 191.01 446.004 191.279 446.212C191.548 446.417 191.777 446.672 191.967 446.977L191.12 447.307Z" fill="black"/>
<rect x="1.37462" y="95.7325" width="68" height="417" rx="8.5" transform="rotate(-21.3188 1.37462 95.7325)" stroke="black"/>
<path d="M93.634 443.355C93.9559 443.022 95.0822 442.055 97.0132 440.855C98.9441 439.655 100.876 438.855 102.807 438.355" stroke="#040404" stroke-linecap="round" stroke-linejoin="round"/>
<path d="M123.081 481.856C122.92 480.856 122.598 479.355 120.185 478.356C118.813 477.788 117.288 477.355 116.805 476.355C116.323 475.355 116.805 473.356 119.702 468.856V468.856C122.89 463.903 119.381 457.724 114.267 454.802C111.976 453.493 109.13 452.243 105.702 451.356C97.9787 449.355 94.5995 449.356 93.1513 446.356C91.703 443.356 95.8141 440.114 92.1858 436.356C86.8758 430.855 80.6002 434.355 73.8418 432.356C65.0348 429.75 60.3253 426.355 54.5324 427.355C47.9001 428.501 45.8431 432.856 45.3603 436.356C44.8098 440.346 48.2566 445.856 46.3257 451.356C44.8774 455.481 41.9812 454.856 41.0155 460.856C39.8143 468.319 53.9378 475.202 55.4976 477.356C56.9459 479.356 56.7849 481.522 56.9459 482.356" stroke="#040404" stroke-linecap="round" stroke-linejoin="round"/>
<path d="M51.1533 428.355C56.6243 426.022 69.0146 421.355 76.7384 421.355C84.4622 421.355 91.2205 423.689 93.6342 424.855" stroke="#040404" stroke-linecap="round" stroke-linejoin="round"/>
<path d="M86.3931 428.356C90.0941 426.356 98.8953 422.543 104.254 424.855C110.047 427.356 109.564 431.355 113.426 435.355C116.806 438.855 126.943 439.355 131.288 443.855C135.725 448.452 135.549 458.113 134.184 462.355C132.736 466.855 135.15 469.355 137.563 471.355C140.434 473.734 142.391 476.855 139.494 482.355" stroke="#040404" stroke-linecap="round" stroke-linejoin="round"/>
<path d="M115.84 449.855C116.162 449.189 116.806 447.655 118.737 446.855C121.15 445.855 122.598 447.855 124.529 447.855C126.074 447.855 127.426 446.855 127.755 446.353" stroke="#040404" stroke-linecap="round" stroke-linejoin="round"/>
<path d="M121.15 464.355L134.667 456.855" stroke="#040404" stroke-linecap="round" stroke-linejoin="round"/>
<path d="M118.736 477.355L128.391 472.355" stroke="#040404" stroke-linecap="round" stroke-linejoin="round"/>
<path d="M131.288 470.355L134.184 468.355" stroke="#040404" stroke-linecap="round" stroke-linejoin="round"/>
<path d="M74.8074 429.355C75.7728 429.355 78.1865 428.855 79.6347 428.355C81.083 427.855 82.0484 426.855 82.5312 426.355" stroke="#040404" stroke-linecap="round" stroke-linejoin="round"/>
<circle cx="72.4431" cy="471.855" r="7" stroke="black"/>
<circle cx="89.4431" cy="471.855" r="7" stroke="black"/>
<circle cx="72.4431" cy="471.855" r="2.5" fill="black"/>
<circle cx="89.4431" cy="471.855" r="2.5" fill="black"/>
</g>
<defs>
<clipPath id="clip0_1095_1004">
<rect width="223" height="482" fill="white"/>
</clipPath>
</defs>
</svg>
