<svg width="245" height="482" viewBox="0 0 245 482" fill="none" xmlns="http://www.w3.org/2000/svg">
<g clip-path="url(#clip0_1095_1005)">
<path d="M89.8379 339.821C83.8379 339.821 77.5379 337.821 72.3379 335.821C65.8379 333.321 58.8379 329.499 42.8379 332.322C25.0026 335.468 8.33784 355.82 7.33784 375.32C6.33784 394.82 7.33784 400.82 13.3378 420.32C19.3378 439.82 36.3379 471.821 57.8379 479.82C62.8379 481.68 69.8379 482.821 77.3379 480.321C81.8338 478.823 83.8379 475.821 89.3379 475.821" stroke="black" stroke-linecap="round" stroke-linejoin="round"/>
<path d="M88.8379 339.821C94.8379 339.821 101.138 337.821 106.338 335.821C112.838 333.321 119.838 329.499 135.838 332.322C153.673 335.468 170.338 355.82 171.338 375.32C172.338 394.82 171.338 400.82 165.338 420.32C159.338 439.82 142.338 471.821 120.838 479.82C115.838 481.68 108.838 482.821 101.338 480.321C96.842 478.823 94.8379 475.821 89.3379 475.821" stroke="black" stroke-linecap="round" stroke-linejoin="round"/>
<path d="M10.8379 411.826C10.8379 406.231 16.547 400.569 23.1688 401.388C30.9216 402.347 39.5889 411.911 44.0416 419.572C50.6017 430.86 54.7762 445.282 45.2344 451.552C37.6009 456.569 29.3379 450.826 25.8379 447.826" stroke="black" stroke-linecap="round"/>
<path d="M86.3379 339.326C86.8379 335.326 85.7376 328.727 83.3376 322.327C80.3376 314.327 73.3376 304.827 72.3376 303.327C71.3376 301.827 72.3376 299.327 74.3376 297.827C75.9376 296.627 78.8379 296.826 80.3379 297.827C84.8379 303.827 88.3453 314.363 89.8379 321.826C91.8379 331.826 91.6712 336.66 91.8379 339.326" stroke="black" stroke-linecap="round" stroke-linejoin="round"/>
<path d="M115.338 301.326C101.338 305.326 95.8379 318.493 93.3379 324.326C99.8379 327.826 114.838 330.126 124.838 327.326C134.838 324.526 145.838 312.828 146.838 305.327C139.838 301.328 131.196 296.795 115.338 301.326Z" stroke="black" stroke-linecap="round" stroke-linejoin="round"/>
<path d="M123.723 358.66C129.913 356.242 136.15 355.736 141.22 356.848C146.294 357.961 150.141 360.676 151.695 364.655C153.249 368.634 152.261 373.237 149.285 377.495C146.312 381.749 141.383 385.605 135.193 388.023C129.003 390.441 122.765 390.947 117.695 389.835C112.621 388.721 108.775 386.006 107.22 382.028C105.666 378.049 106.654 373.446 109.63 369.188C112.604 364.934 117.533 361.078 123.723 358.66Z" stroke="black"/>
<path d="M123.668 364.684C123.679 362.064 126.904 360.823 128.668 362.76L128.844 362.953C130.161 364.399 132.419 364.451 133.801 363.067L136.984 359.877C138.209 358.65 140.246 359.942 139.658 361.573C138.966 363.492 140.812 365.356 142.738 364.681L144.115 364.199C144.916 363.918 145.579 364.308 145.884 364.918C146.19 365.529 146.109 366.307 145.411 366.797C143.745 367.967 144.36 370.59 146.388 370.866C148.01 371.087 148.072 373.41 146.464 373.717L142.84 374.407C140.848 374.786 139.905 377.082 140.997 378.772C142.121 380.511 140.378 382.665 138.496 381.932L135.566 380.791C133.678 380.056 131.541 380.878 130.633 382.688L129.223 385.499C128.318 387.304 125.581 386.874 125.249 384.831C124.927 382.844 122.688 381.772 120.956 382.825L117.804 384.742C116.405 385.593 114.894 383.827 115.95 382.576C117.27 381.012 115.968 378.653 113.948 378.901C113.101 379.005 112.52 378.482 112.337 377.824C112.155 377.166 112.385 376.433 113.168 376.104L114.514 375.539C116.395 374.749 116.516 372.129 114.716 371.169C113.186 370.352 113.832 368.028 115.564 368.118L120.064 368.351C122.017 368.453 123.658 366.901 123.667 364.945L123.668 364.684Z" stroke="black" stroke-width="0.8"/>
<circle cx="25.3379" cy="414.826" r="1.5" fill="#060606"/>
<circle cx="36.3379" cy="428.826" r="1.5" fill="#060606"/>
<path d="M21.8717 419.326C21.705 421.493 22.0717 426.926 24.8717 431.326C27.6717 435.726 31.3379 438.326 35.3716 440.326" stroke="black" stroke-linecap="round"/>
<path d="M126.011 482.322C122.907 482.322 120.838 479.49 120.838 475.95C120.838 472.41 124.071 469.578 126.658 469.578C129.244 469.578 160.024 469.579 164.163 469.579C169.336 469.579 171.735 449.826 186.338 449.826C197.174 449.826 199.105 456.37 202.338 461.326C204.924 465.291 209.064 468.912 211.399 469.425C216.726 470.598 222.913 469.579 228 470C233.087 470.421 235 473.5 235 475.326C235 482.323 229.958 482.323 217.183 482.322L216.726 482.322C209.762 482.322 205.702 482.319 201.838 480.826C198.884 479.685 196.519 477.474 194.838 475.326C191.523 471.09 189.338 465.326 187.338 465.326C183.338 465.326 181.338 472.826 177.096 478.074C174.419 481.385 169.983 482.322 167.396 482.322H126.011Z" fill="#FFFCF2" stroke="black"/>
<ellipse cx="229.511" cy="474.115" rx="1.06542" ry="1.17241" fill="black"/>
</g>
<defs>
<clipPath id="clip0_1095_1005">
<rect width="245" height="482" fill="white"/>
</clipPath>
</defs>
</svg>
