<svg width="137" height="482" viewBox="0 0 137 482" fill="none" xmlns="http://www.w3.org/2000/svg">
<path d="M125 482V207C125 204.239 122.761 202 120 202H17C14.2386 202 12 204.239 12 207V482" stroke="black"/>
<path d="M58.3542 292H53.9508C53.6904 290.733 53.2347 289.621 52.5836 288.662C51.9444 287.703 51.1632 286.898 50.2399 286.247C49.3284 285.584 48.3163 285.087 47.2037 284.756C46.091 284.424 44.9309 284.259 43.7235 284.259C41.5218 284.259 39.5273 284.815 37.7399 285.928C35.9643 287.04 34.5498 288.68 33.4963 290.846C32.4546 293.012 31.9338 295.67 31.9338 298.818C31.9338 301.967 32.4546 304.624 33.4963 306.79C34.5498 308.957 35.9643 310.596 37.7399 311.709C39.5273 312.821 41.5218 313.378 43.7235 313.378C44.9309 313.378 46.091 313.212 47.2037 312.881C48.3163 312.549 49.3284 312.058 50.2399 311.407C51.1632 310.744 51.9444 309.933 52.5836 308.974C53.2347 308.004 53.6904 306.891 53.9508 305.636H58.3542C58.0228 307.495 57.4191 309.158 56.5431 310.626C55.6672 312.094 54.5782 313.342 53.2761 314.372C51.974 315.39 50.5121 316.165 48.8904 316.698C47.2806 317.231 45.5583 317.497 43.7235 317.497C40.6222 317.497 37.8642 316.74 35.4494 315.224C33.0346 313.709 31.1348 311.555 29.7498 308.761C28.3649 305.968 27.6724 302.653 27.6724 298.818C27.6724 294.983 28.3649 291.669 29.7498 288.875C31.1348 286.081 33.0346 283.927 35.4494 282.412C37.8642 280.897 40.6222 280.139 43.7235 280.139C45.5583 280.139 47.2806 280.406 48.8904 280.938C50.5121 281.471 51.974 282.252 53.2761 283.282C54.5782 284.3 55.6672 285.543 56.5431 287.011C57.4191 288.467 58.0228 290.13 58.3542 292ZM65.4698 317V280.636H69.8732V296.83H89.2624V280.636H93.6658V317H89.2624V300.736H69.8732V317H65.4698ZM106.885 280.636V317H102.482V280.636H106.885Z" fill="black"/>
<path d="M32.5038 346C32.2158 346 31.9678 345.904 31.7598 345.712C31.5678 345.504 31.4718 345.264 31.4718 344.992V343.072C31.4718 342.112 31.5678 341.312 31.7598 340.672C31.9518 340.032 32.2638 339.472 32.6958 338.992C33.1278 338.512 33.7038 338.04 34.4238 337.576C35.1438 337.112 36.0318 336.568 37.0878 335.944C37.6798 335.592 38.1038 335.216 38.3598 334.816C38.6158 334.416 38.7438 333.968 38.7438 333.472C38.7438 332.8 38.5278 332.264 38.0958 331.864C37.6638 331.464 37.0478 331.264 36.2478 331.264C35.8318 331.264 35.3678 331.336 34.8558 331.48C34.3438 331.624 33.8078 331.856 33.2478 332.176C33.1518 332.224 33.0478 332.248 32.9358 332.248C32.7438 332.248 32.5998 332.16 32.5038 331.984L31.7118 330.544C31.6638 330.464 31.6398 330.384 31.6398 330.304C31.6398 330.128 31.7118 329.992 31.8558 329.896C32.4798 329.48 33.1918 329.152 33.9918 328.912C34.8078 328.656 35.6478 328.528 36.5118 328.528C38.1278 328.528 39.3838 328.968 40.2798 329.848C41.1758 330.712 41.6238 331.888 41.6238 333.376C41.6238 334.128 41.4958 334.8 41.2398 335.392C40.9998 335.968 40.6158 336.504 40.0878 337C39.5758 337.496 38.9198 338 38.1198 338.512C37.6238 338.832 37.1438 339.128 36.6798 339.4C36.2318 339.672 35.8238 339.952 35.4558 340.24C35.1038 340.512 34.8238 340.832 34.6158 341.2C34.4078 341.568 34.3038 342.008 34.3038 342.52V343.216H40.5438C40.6878 343.216 40.8078 343.264 40.9038 343.36C40.9998 343.456 41.0478 343.576 41.0478 343.72V345.496C41.0478 345.64 40.9998 345.76 40.9038 345.856C40.8078 345.952 40.6878 346 40.5438 346H32.5038ZM57.9555 346.312C55.9715 346.312 54.4595 345.56 53.4195 344.056C52.3955 342.552 51.8835 340.336 51.8835 337.408C51.8835 334.496 52.3955 332.288 53.4195 330.784C54.4595 329.28 55.9715 328.528 57.9555 328.528C59.9555 328.528 61.4595 329.28 62.4675 330.784C63.4915 332.288 64.0035 334.496 64.0035 337.408C64.0035 340.352 63.4915 342.576 62.4675 344.08C61.4595 345.568 59.9555 346.312 57.9555 346.312ZM57.9555 343.576C58.5155 343.576 58.9875 343.464 59.3715 343.24C59.7555 343.016 60.0675 342.656 60.3075 342.16C60.5635 341.664 60.7475 341.024 60.8595 340.24C60.9715 339.456 61.0275 338.512 61.0275 337.408C61.0275 336.304 60.9715 335.368 60.8595 334.6C60.7475 333.816 60.5635 333.184 60.3075 332.704C60.0675 332.208 59.7475 331.848 59.3475 331.624C58.9635 331.4 58.4915 331.288 57.9315 331.288C56.8275 331.288 56.0355 331.768 55.5555 332.728C55.0915 333.672 54.8595 335.264 54.8595 337.504C54.8595 338.576 54.9155 339.504 55.0275 340.288C55.1555 341.056 55.3395 341.68 55.5795 342.16C55.8195 342.64 56.1395 343 56.5395 343.24C56.9395 343.464 57.4115 343.576 57.9555 343.576ZM75.2857 346C74.9977 346 74.7497 345.904 74.5417 345.712C74.3497 345.504 74.2537 345.264 74.2537 344.992V343.072C74.2537 342.112 74.3497 341.312 74.5417 340.672C74.7337 340.032 75.0457 339.472 75.4777 338.992C75.9097 338.512 76.4857 338.04 77.2057 337.576C77.9257 337.112 78.8137 336.568 79.8697 335.944C80.4617 335.592 80.8857 335.216 81.1417 334.816C81.3977 334.416 81.5257 333.968 81.5257 333.472C81.5257 332.8 81.3097 332.264 80.8777 331.864C80.4457 331.464 79.8297 331.264 79.0297 331.264C78.6137 331.264 78.1497 331.336 77.6377 331.48C77.1257 331.624 76.5897 331.856 76.0297 332.176C75.9337 332.224 75.8297 332.248 75.7177 332.248C75.5257 332.248 75.3817 332.16 75.2857 331.984L74.4937 330.544C74.4457 330.464 74.4217 330.384 74.4217 330.304C74.4217 330.128 74.4937 329.992 74.6377 329.896C75.2617 329.48 75.9737 329.152 76.7737 328.912C77.5897 328.656 78.4297 328.528 79.2937 328.528C80.9097 328.528 82.1657 328.968 83.0617 329.848C83.9577 330.712 84.4057 331.888 84.4057 333.376C84.4057 334.128 84.2777 334.8 84.0217 335.392C83.7817 335.968 83.3977 336.504 82.8697 337C82.3577 337.496 81.7017 338 80.9017 338.512C80.4057 338.832 79.9257 339.128 79.4617 339.4C79.0137 339.672 78.6057 339.952 78.2377 340.24C77.8857 340.512 77.6057 340.832 77.3977 341.2C77.1897 341.568 77.0857 342.008 77.0857 342.52V343.216H83.3257C83.4697 343.216 83.5897 343.264 83.6857 343.36C83.7817 343.456 83.8297 343.576 83.8297 343.72V345.496C83.8297 345.64 83.7817 345.76 83.6857 345.856C83.5897 345.952 83.4697 346 83.3257 346H75.2857ZM99.4413 346.312C98.3053 346.312 97.2333 346.04 96.2253 345.496C95.2173 344.952 94.4093 344.208 93.8013 343.264C93.7373 343.184 93.7053 343.072 93.7053 342.928C93.7053 342.704 93.7933 342.528 93.9693 342.4L95.2893 341.416C95.4013 341.336 95.5053 341.296 95.6013 341.296C95.7773 341.296 95.9293 341.384 96.0573 341.56C96.4893 342.184 97.0093 342.68 97.6173 343.048C98.2413 343.4 98.8493 343.576 99.4413 343.576C100.033 343.576 100.569 343.432 101.049 343.144C101.529 342.856 101.913 342.464 102.201 341.968C102.489 341.472 102.633 340.92 102.633 340.312C102.633 339.768 102.513 339.272 102.273 338.824C102.033 338.376 101.705 338 101.289 337.696C100.889 337.392 100.433 337.208 99.9213 337.144C99.8893 337.128 99.8573 337.12 99.8253 337.12C99.7933 337.12 99.7613 337.12 99.7293 337.12L99.0573 338.056C98.9613 338.2 98.8253 338.272 98.6493 338.272C98.5533 338.272 98.4493 338.232 98.3373 338.152L96.9693 337.168C96.8253 337.072 96.7533 336.936 96.7533 336.76C96.7533 336.648 96.7853 336.552 96.8493 336.472L100.329 331.576H95.5533C95.4093 331.576 95.2893 331.528 95.1933 331.432C95.0973 331.336 95.0493 331.216 95.0493 331.072V329.344C95.0493 329.2 95.0973 329.08 95.1933 328.984C95.2893 328.888 95.4093 328.84 95.5533 328.84H102.633C103.129 328.84 103.521 328.992 103.809 329.296C104.113 329.6 104.265 329.96 104.265 330.376C104.265 330.536 104.241 330.704 104.193 330.88C104.145 331.04 104.057 331.2 103.929 331.36L101.457 334.744C102.241 335 102.937 335.4 103.545 335.944C104.153 336.488 104.625 337.136 104.961 337.888C105.313 338.624 105.489 339.432 105.489 340.312C105.489 341.4 105.217 342.4 104.673 343.312C104.129 344.224 103.393 344.952 102.465 345.496C101.553 346.04 100.545 346.312 99.4413 346.312Z" fill="black"/>
<path d="M40.0094 228V218.51H41.2834V228H40.0094ZM33.5874 228V218.51H34.8614V228H33.5874ZM34.6014 223.853V222.709H40.2694V223.853H34.6014ZM49.6127 228V225.92H49.4047V223.515C49.4047 223.038 49.279 222.679 49.0277 222.436C48.785 222.193 48.4253 222.072 47.9487 222.072C47.68 222.072 47.4027 222.076 47.1167 222.085C46.8307 222.094 46.5577 222.102 46.2977 222.111C46.0377 222.12 45.8123 222.133 45.6217 222.15V221.058C45.8123 221.041 46.0117 221.028 46.2197 221.019C46.4363 221.002 46.6573 220.993 46.8827 220.993C47.108 220.984 47.3247 220.98 47.5327 220.98C48.2433 220.98 48.824 221.067 49.2747 221.24C49.7253 221.405 50.059 221.678 50.2757 222.059C50.4923 222.44 50.6007 222.956 50.6007 223.606V228H49.6127ZM47.3377 228.182C46.8177 228.182 46.367 228.095 45.9857 227.922C45.613 227.74 45.3227 227.48 45.1147 227.142C44.9153 226.804 44.8157 226.397 44.8157 225.92C44.8157 225.426 44.924 225.014 45.1407 224.685C45.366 224.356 45.691 224.109 46.1157 223.944C46.5403 223.771 47.0517 223.684 47.6497 223.684H49.5347V224.62H47.5977C47.095 224.62 46.7093 224.741 46.4407 224.984C46.172 225.227 46.0377 225.539 46.0377 225.92C46.0377 226.301 46.172 226.609 46.4407 226.843C46.7093 227.077 47.095 227.194 47.5977 227.194C47.8923 227.194 48.174 227.142 48.4427 227.038C48.7113 226.925 48.9323 226.743 49.1057 226.492C49.2877 226.232 49.3873 225.877 49.4047 225.426L49.7427 225.92C49.6993 226.414 49.578 226.83 49.3787 227.168C49.188 227.497 48.9193 227.749 48.5727 227.922C48.2347 228.095 47.823 228.182 47.3377 228.182ZM54.4512 228V221.058H55.4392V224.035H55.2832C55.2832 223.359 55.3699 222.787 55.5432 222.319C55.7252 221.842 55.9939 221.478 56.3492 221.227C56.7045 220.976 57.1552 220.85 57.7012 220.85H57.7532C58.2992 220.85 58.7499 220.976 59.1052 221.227C59.4692 221.478 59.7379 221.842 59.9112 222.319C60.0845 222.787 60.1712 223.359 60.1712 224.035H59.8072C59.8072 223.359 59.8982 222.787 60.0802 222.319C60.2622 221.842 60.5309 221.478 60.8862 221.227C61.2502 220.976 61.7052 220.85 62.2512 220.85H62.3032C62.8492 220.85 63.3042 220.976 63.6682 221.227C64.0322 221.478 64.3009 221.842 64.4742 222.319C64.6562 222.787 64.7472 223.359 64.7472 224.035V228H63.4992V223.762C63.4992 223.199 63.3605 222.765 63.0832 222.462C62.8059 222.15 62.4202 221.994 61.9262 221.994C61.4149 221.994 61.0032 222.159 60.6912 222.488C60.3792 222.809 60.2232 223.259 60.2232 223.84V228H58.9752V223.762C58.9752 223.199 58.8365 222.765 58.5592 222.462C58.2819 222.15 57.8962 221.994 57.4022 221.994C56.8909 221.994 56.4792 222.159 56.1672 222.488C55.8552 222.809 55.6992 223.259 55.6992 223.84V228H54.4512ZM72.2583 228.234C71.6863 228.234 71.1749 228.108 70.7243 227.857C70.2823 227.606 69.9313 227.242 69.6713 226.765C69.4113 226.28 69.2683 225.699 69.2423 225.023H69.5803V228H68.5923V218.51H69.8403V223.125L69.3983 224.074C69.4329 223.32 69.5846 222.705 69.8533 222.228C70.1219 221.751 70.4729 221.4 70.9063 221.175C71.3483 220.941 71.8336 220.824 72.3623 220.824C72.8563 220.824 73.3069 220.919 73.7143 221.11C74.1216 221.292 74.4726 221.548 74.7673 221.877C75.0619 222.198 75.2873 222.575 75.4433 223.008C75.5993 223.433 75.6773 223.892 75.6773 224.386V224.62C75.6773 225.114 75.5949 225.578 75.4303 226.011C75.2743 226.444 75.0446 226.83 74.7413 227.168C74.4379 227.497 74.0739 227.757 73.6493 227.948C73.2333 228.139 72.7696 228.234 72.2583 228.234ZM72.1153 227.142C72.5833 227.142 72.9906 227.029 73.3373 226.804C73.6839 226.579 73.9526 226.271 74.1433 225.881C74.3339 225.482 74.4293 225.023 74.4293 224.503C74.4293 223.983 74.3296 223.528 74.1303 223.138C73.9396 222.748 73.6709 222.449 73.3243 222.241C72.9776 222.024 72.5746 221.916 72.1153 221.916C71.6993 221.916 71.3136 222.011 70.9583 222.202C70.6029 222.384 70.3169 222.653 70.1003 223.008C69.8923 223.355 69.7883 223.775 69.7883 224.269V224.867C69.7883 225.344 69.8966 225.751 70.1133 226.089C70.3299 226.427 70.6159 226.687 70.9713 226.869C71.3266 227.051 71.7079 227.142 72.1153 227.142ZM81.5202 228.208C80.6968 228.208 80.0642 227.939 79.6222 227.402C79.1802 226.865 78.9592 226.089 78.9592 225.075V221.045H80.2072V225.322C80.2072 225.868 80.3545 226.297 80.6492 226.609C80.9438 226.912 81.3425 227.064 81.8452 227.064C82.3652 227.064 82.7898 226.899 83.1192 226.57C83.4485 226.232 83.6132 225.773 83.6132 225.192V221.045H84.8612V228H83.8732V225.023H84.0292C84.0292 225.708 83.9382 226.288 83.7562 226.765C83.5742 227.233 83.3012 227.593 82.9372 227.844C82.5818 228.087 82.1268 228.208 81.5722 228.208H81.5202ZM88.8382 228V221.058H89.8262V223.918H89.7742C89.7742 222.904 89.9952 222.163 90.4372 221.695C90.8879 221.218 91.5596 220.98 92.4522 220.98H92.6862V222.098H92.2442C91.5509 222.098 91.0179 222.284 90.6452 222.657C90.2726 223.021 90.0862 223.55 90.0862 224.243V228H88.8382ZM98.2801 230.704C97.9594 230.704 97.6344 230.691 97.3051 230.665C96.9844 230.639 96.6768 230.604 96.3821 230.561V229.508C96.6941 229.551 97.0191 229.586 97.3571 229.612C97.7038 229.647 98.0288 229.664 98.3321 229.664C98.9648 229.664 99.4674 229.577 99.8401 229.404C100.221 229.239 100.494 228.975 100.659 228.611C100.832 228.256 100.919 227.796 100.919 227.233V225.907L101.335 224.919C101.309 225.621 101.162 226.206 100.893 226.674C100.624 227.133 100.273 227.48 99.8401 227.714C99.4154 227.939 98.9431 228.052 98.4231 228.052C97.9378 228.052 97.4914 227.961 97.0841 227.779C96.6854 227.588 96.3388 227.328 96.0441 226.999C95.7581 226.67 95.5328 226.293 95.3681 225.868C95.2121 225.435 95.1341 224.98 95.1341 224.503V224.269C95.1341 223.784 95.2164 223.333 95.3811 222.917C95.5458 222.492 95.7754 222.124 96.0701 221.812C96.3648 221.5 96.7158 221.257 97.1231 221.084C97.5391 220.911 97.9941 220.824 98.4881 220.824C99.0688 220.824 99.5801 220.95 100.022 221.201C100.464 221.444 100.811 221.803 101.062 222.28C101.322 222.748 101.465 223.324 101.491 224.009L101.127 224.022V221.058H102.115V227.181C102.115 228.013 101.985 228.685 101.725 229.196C101.474 229.716 101.066 230.097 100.503 230.34C99.9484 230.583 99.2074 230.704 98.2801 230.704ZM98.6571 226.908C99.0731 226.908 99.4501 226.817 99.7881 226.635C100.135 226.453 100.408 226.193 100.607 225.855C100.815 225.508 100.919 225.097 100.919 224.62V224.022C100.919 223.554 100.811 223.16 100.594 222.839C100.386 222.518 100.113 222.276 99.7751 222.111C99.4371 221.946 99.0688 221.864 98.6701 221.864C98.2194 221.864 97.8208 221.968 97.4741 222.176C97.1274 222.384 96.8588 222.679 96.6681 223.06C96.4774 223.433 96.3821 223.875 96.3821 224.386C96.3821 224.897 96.4774 225.344 96.6681 225.725C96.8674 226.106 97.1361 226.401 97.4741 226.609C97.8208 226.808 98.2151 226.908 98.6571 226.908ZM39.6718 245.234C38.9352 245.234 38.2678 245.113 37.6698 244.87C37.0718 244.627 36.5562 244.285 36.1228 243.843C35.6982 243.401 35.3688 242.881 35.1348 242.283C34.9008 241.676 34.7838 241.018 34.7838 240.307V240.021C34.7838 239.414 34.8878 238.829 35.0958 238.266C35.3125 237.694 35.6202 237.183 36.0188 236.732C36.4262 236.273 36.9202 235.913 37.5008 235.653C38.0815 235.384 38.7358 235.25 39.4638 235.25C40.2525 235.25 40.9545 235.402 41.5698 235.705C42.1852 236 42.6792 236.416 43.0518 236.953C43.4245 237.482 43.6412 238.097 43.7018 238.799H42.4018C42.3412 238.27 42.1678 237.833 41.8818 237.486C41.5958 237.131 41.2405 236.866 40.8158 236.693C40.3998 236.511 39.9492 236.42 39.4638 236.42C38.9698 236.42 38.5148 236.511 38.0988 236.693C37.6828 236.866 37.3232 237.118 37.0198 237.447C36.7252 237.776 36.4955 238.171 36.3308 238.63C36.1662 239.089 36.0838 239.605 36.0838 240.177C36.0838 240.827 36.1705 241.399 36.3438 241.893C36.5258 242.378 36.7772 242.786 37.0978 243.115C37.4185 243.436 37.7955 243.678 38.2288 243.843C38.6708 244.008 39.1518 244.09 39.6718 244.09C40.4085 244.09 41.0542 243.943 41.6088 243.648C42.1722 243.345 42.5968 242.955 42.8828 242.478L42.4148 244.025V241.204H43.6108V243.466C43.1862 244.021 42.6402 244.454 41.9728 244.766C41.3055 245.078 40.5385 245.234 39.6718 245.234ZM39.3338 241.464V240.398H44.4168V241.464H39.3338ZM50.5666 245.234C49.9599 245.234 49.4356 245.13 48.9936 244.922C48.5516 244.714 48.1919 244.441 47.9145 244.103C47.6372 243.756 47.4292 243.371 47.2905 242.946C47.1605 242.521 47.0955 242.088 47.0955 241.646V241.412C47.0955 240.961 47.1605 240.524 47.2905 240.099C47.4292 239.674 47.6372 239.293 47.9145 238.955C48.1919 238.608 48.5429 238.335 48.9676 238.136C49.4009 237.928 49.9079 237.824 50.4886 237.824C51.2426 237.824 51.8622 237.989 52.3476 238.318C52.8416 238.639 53.2056 239.055 53.4396 239.566C53.6822 240.077 53.8036 240.623 53.8036 241.204V241.763H47.6415V240.827H52.8936L52.6076 241.334C52.6076 240.84 52.5296 240.415 52.3736 240.06C52.2176 239.696 51.9836 239.414 51.6716 239.215C51.3596 239.016 50.9652 238.916 50.4886 238.916C49.9946 238.916 49.5829 239.029 49.2536 239.254C48.9329 239.479 48.6902 239.787 48.5255 240.177C48.3696 240.567 48.2916 241.018 48.2916 241.529C48.2916 242.023 48.3696 242.469 48.5255 242.868C48.6902 243.258 48.9416 243.57 49.2796 243.804C49.6176 244.029 50.0465 244.142 50.5666 244.142C51.1126 244.142 51.5546 244.021 51.8926 243.778C52.2392 243.535 52.4472 243.254 52.5166 242.933H53.6866C53.5912 243.41 53.4006 243.821 53.1146 244.168C52.8286 244.515 52.4689 244.779 52.0356 244.961C51.6022 245.143 51.1126 245.234 50.5666 245.234ZM57.1355 245V238.058H58.1235V240.918H58.0715C58.0715 239.904 58.2925 239.163 58.7345 238.695C59.1852 238.218 59.8568 237.98 60.7495 237.98H60.9835V239.098H60.5415C59.8482 239.098 59.3152 239.284 58.9425 239.657C58.5698 240.021 58.3835 240.55 58.3835 241.243V245H57.1355ZM64.0275 245V238.058H65.0155V241.035H64.8595C64.8595 240.359 64.9462 239.787 65.1195 239.319C65.3015 238.842 65.5702 238.478 65.9255 238.227C66.2809 237.976 66.7315 237.85 67.2775 237.85H67.3295C67.8755 237.85 68.3262 237.976 68.6815 238.227C69.0455 238.478 69.3142 238.842 69.4875 239.319C69.6609 239.787 69.7475 240.359 69.7475 241.035H69.3835C69.3835 240.359 69.4745 239.787 69.6565 239.319C69.8385 238.842 70.1072 238.478 70.4625 238.227C70.8265 237.976 71.2815 237.85 71.8275 237.85H71.8795C72.4255 237.85 72.8805 237.976 73.2445 238.227C73.6085 238.478 73.8772 238.842 74.0505 239.319C74.2325 239.787 74.3235 240.359 74.3235 241.035V245H73.0755V240.762C73.0755 240.199 72.9369 239.765 72.6595 239.462C72.3822 239.15 71.9965 238.994 71.5025 238.994C70.9912 238.994 70.5795 239.159 70.2675 239.488C69.9555 239.809 69.7995 240.259 69.7995 240.84V245H68.5515V240.762C68.5515 240.199 68.4129 239.765 68.1355 239.462C67.8582 239.15 67.4725 238.994 66.9785 238.994C66.4672 238.994 66.0555 239.159 65.7435 239.488C65.4315 239.809 65.2755 240.259 65.2755 240.84V245H64.0275ZM82.3676 245V242.92H82.1596V240.515C82.1596 240.038 82.0339 239.679 81.7826 239.436C81.5399 239.193 81.1803 239.072 80.7036 239.072C80.4349 239.072 80.1576 239.076 79.8716 239.085C79.5856 239.094 79.3126 239.102 79.0526 239.111C78.7926 239.12 78.5673 239.133 78.3766 239.15V238.058C78.5673 238.041 78.7666 238.028 78.9746 238.019C79.1913 238.002 79.4123 237.993 79.6376 237.993C79.8629 237.984 80.0796 237.98 80.2876 237.98C80.9983 237.98 81.5789 238.067 82.0296 238.24C82.4803 238.405 82.8139 238.678 83.0306 239.059C83.2473 239.44 83.3556 239.956 83.3556 240.606V245H82.3676ZM80.0926 245.182C79.5726 245.182 79.1219 245.095 78.7406 244.922C78.3679 244.74 78.0776 244.48 77.8696 244.142C77.6703 243.804 77.5706 243.397 77.5706 242.92C77.5706 242.426 77.6789 242.014 77.8956 241.685C78.1209 241.356 78.4459 241.109 78.8706 240.944C79.2953 240.771 79.8066 240.684 80.4046 240.684H82.2896V241.62H80.3526C79.8499 241.62 79.4643 241.741 79.1956 241.984C78.9269 242.227 78.7926 242.539 78.7926 242.92C78.7926 243.301 78.9269 243.609 79.1956 243.843C79.4643 244.077 79.8499 244.194 80.3526 244.194C80.6473 244.194 80.9289 244.142 81.1976 244.038C81.4663 243.925 81.6873 243.743 81.8606 243.492C82.0426 243.232 82.1423 242.877 82.1596 242.426L82.4976 242.92C82.4543 243.414 82.3329 243.83 82.1336 244.168C81.9429 244.497 81.6743 244.749 81.3276 244.922C80.9896 245.095 80.5779 245.182 80.0926 245.182ZM87.2061 245V238.058H88.1941V241.035H88.0381C88.0381 240.35 88.1291 239.774 88.3111 239.306C88.5018 238.829 88.7878 238.47 89.1691 238.227C89.5505 237.976 90.0315 237.85 90.6121 237.85H90.6641C91.5395 237.85 92.1851 238.123 92.6011 238.669C93.0258 239.215 93.2381 240.004 93.2381 241.035V245H91.9901V240.775C91.9901 240.238 91.8385 239.809 91.5351 239.488C91.2318 239.159 90.8158 238.994 90.2871 238.994C89.7411 238.994 89.2991 239.163 88.9611 239.501C88.6231 239.839 88.4541 240.29 88.4541 240.853V245H87.2061ZM96.5628 247.704V246.586H97.5638C97.8585 246.586 98.1055 246.547 98.3048 246.469C98.5128 246.4 98.6818 246.278 98.8118 246.105C98.9505 245.932 99.0631 245.702 99.1498 245.416L101.334 238.058H102.556L100.242 245.741C100.103 246.2 99.9081 246.573 99.6568 246.859C99.4055 247.154 99.0978 247.366 98.7338 247.496C98.3785 247.635 97.9625 247.704 97.4858 247.704H96.5628ZM98.6818 244.844V243.804H100.19V244.844H98.6818ZM98.5518 244.844L96.0688 238.058H97.3428L99.7218 244.844H98.5518Z" fill="black"/>
<path d="M51.4467 394.3V395.62H50.0167V402H48.4987V395.62H47.0687V394.3H51.4467ZM56.3843 400.218C56.3843 400.445 56.102 400.823 55.5373 401.351C54.9727 401.872 54.551 402.132 54.2723 402.132C54.001 402.132 53.66 401.996 53.2493 401.725C52.846 401.454 52.5453 401.135 52.3473 400.768L53.4803 399.987C53.847 400.5 54.1147 400.757 54.2833 400.757C54.408 400.757 54.562 400.695 54.7453 400.57C54.9287 400.445 55.0203 400.328 55.0203 400.218C55.0203 400.189 54.9323 400.126 54.7563 400.031C54.5803 399.928 54.364 399.804 54.1073 399.657C53.858 399.503 53.6087 399.334 53.3593 399.151C53.11 398.96 52.8973 398.729 52.7213 398.458C52.5453 398.187 52.4573 397.912 52.4573 397.633C52.4573 397.354 52.7067 397.002 53.2053 396.577C53.704 396.152 54.0853 395.939 54.3493 395.939C54.6207 395.939 54.958 396.075 55.3613 396.346C55.772 396.617 56.0763 396.936 56.2743 397.303L55.1413 398.084C54.7747 397.571 54.507 397.314 54.3383 397.314C54.2503 397.314 54.1403 397.365 54.0083 397.468C53.8837 397.563 53.8213 397.651 53.8213 397.732C53.8213 397.813 53.9533 397.937 54.2173 398.106C54.4887 398.275 54.782 398.451 55.0973 398.634C55.42 398.81 55.7133 399.045 55.9773 399.338C56.2487 399.624 56.3843 399.917 56.3843 400.218ZM57.5968 396.071H59.0488V399.877C59.0488 400.251 59.0928 400.541 59.1808 400.746C59.2688 400.951 59.4082 401.131 59.5988 401.285L58.3888 402.132C57.8608 401.714 57.5968 401.12 57.5968 400.35V396.071ZM58.3448 393.772C58.4255 393.772 58.6052 393.893 58.8838 394.135C59.1625 394.37 59.3018 394.531 59.3018 394.619C59.3018 394.7 59.1588 394.861 58.8728 395.103C58.5942 395.345 58.4145 395.466 58.3338 395.466C58.2605 395.466 58.0845 395.349 57.8058 395.114C57.5272 394.872 57.3878 394.711 57.3878 394.63C57.3878 394.542 57.5272 394.377 57.8058 394.135C58.0918 393.893 58.2715 393.772 58.3448 393.772ZM62.3123 402H60.8603V398.205C60.8603 397.831 60.8163 397.541 60.7283 397.336C60.6403 397.131 60.501 396.951 60.3103 396.797L61.5203 395.95C61.7916 396.17 61.9933 396.423 62.1253 396.709C62.668 396.196 63.0493 395.939 63.2693 395.939C63.4966 395.939 63.834 396.144 64.2813 396.555C64.736 396.958 64.9633 397.358 64.9633 397.754V399.877C64.9633 400.251 65.0073 400.541 65.0953 400.746C65.1833 400.951 65.3226 401.131 65.5133 401.285L64.3033 402.132C63.7753 401.714 63.5113 401.12 63.5113 400.35V397.908C63.5113 397.783 63.4453 397.655 63.3133 397.523C63.1813 397.384 63.0566 397.314 62.9393 397.314C62.8293 397.314 62.6203 397.468 62.3123 397.776V402ZM69.1425 397.732C69.0912 397.644 68.9885 397.552 68.8345 397.457C68.6805 397.362 68.5632 397.314 68.4825 397.314C68.4019 397.314 68.3139 397.362 68.2185 397.457C68.1305 397.552 68.0719 397.64 68.0425 397.721C67.9839 397.838 67.9545 398.205 67.9545 398.821C67.9545 399.437 67.9839 399.8 68.0425 399.91C68.0719 399.983 68.1305 400.071 68.2185 400.174C68.3139 400.269 68.4019 400.317 68.4825 400.317C68.5632 400.317 68.6805 400.269 68.8345 400.174C68.9959 400.071 69.1022 399.98 69.1535 399.899C69.2049 399.811 69.2305 399.452 69.2305 398.821C69.2305 398.183 69.2012 397.82 69.1425 397.732ZM70.6605 396.071V401.637C70.6605 402.576 70.6165 403.133 70.5285 403.309C70.4479 403.492 70.1545 403.778 69.6485 404.167C69.1425 404.556 68.7612 404.75 68.5045 404.75C68.2552 404.75 67.9399 404.622 67.5585 404.365C67.1772 404.116 66.8912 403.826 66.7005 403.496L67.8335 402.715L67.9435 402.858C68.2149 403.203 68.4019 403.375 68.5045 403.375C68.6145 403.375 68.7355 403.327 68.8675 403.232C69.0069 403.137 69.0985 403.034 69.1425 402.924C69.1939 402.821 69.2195 402.374 69.2195 401.582L69.2525 401.153C68.7539 401.512 68.4129 401.692 68.2295 401.692C68.0535 401.692 67.7712 401.498 67.3825 401.109C66.9939 400.72 66.7592 400.431 66.6785 400.24C66.5979 400.049 66.5575 399.576 66.5575 398.821C66.5575 398.066 66.5979 397.593 66.6785 397.402C66.7592 397.204 66.9939 396.911 67.3825 396.522C67.7712 396.133 68.0682 395.939 68.2735 395.939C68.4789 395.939 68.8712 396.174 69.4505 396.643L69.5825 396.071H70.6605ZM73.7678 402H72.3158V395.994C72.3158 395.62 72.2718 395.334 72.1838 395.136C72.0958 394.938 71.9564 394.758 71.7658 394.597L72.9758 393.75C73.5038 394.168 73.7678 394.758 73.7678 395.521V396.544C74.2224 396.141 74.5524 395.939 74.7578 395.939C74.9631 395.939 75.2894 396.144 75.7368 396.555C76.1914 396.958 76.4188 397.358 76.4188 397.754V399.877C76.4188 400.251 76.4628 400.541 76.5508 400.746C76.6388 400.951 76.7781 401.131 76.9688 401.285L75.7588 402.132C75.2308 401.714 74.9668 401.12 74.9668 400.35V397.908C74.9668 397.783 74.9008 397.655 74.7688 397.523C74.6368 397.384 74.5121 397.314 74.3948 397.314C74.2848 397.314 74.0758 397.468 73.7678 397.776V402ZM78.123 396.071H79.575V400.163C79.575 400.288 79.6337 400.42 79.751 400.559C79.8683 400.691 79.9783 400.757 80.081 400.757C80.1837 400.757 80.3963 400.607 80.719 400.306V396.071H82.171V402H81.049L80.917 401.351C80.367 401.872 79.982 402.132 79.762 402.132C79.542 402.132 79.212 401.93 78.772 401.527C78.3393 401.116 78.123 400.713 78.123 400.317V396.071ZM87.8348 396.071V400.581C87.8788 400.838 88.0511 401.065 88.3518 401.263L87.3618 402.11C87.2665 402.044 87.1491 401.927 87.0098 401.758C86.8705 401.589 86.7531 401.417 86.6578 401.241C86.0491 401.835 85.6238 402.132 85.3818 402.132C85.2058 402.132 84.9198 401.938 84.5238 401.549C84.1351 401.16 83.8931 400.845 83.7978 400.603C83.7025 400.361 83.6548 399.84 83.6548 399.041C83.6548 398.234 83.7025 397.71 83.7978 397.468C83.8931 397.226 84.1351 396.911 84.5238 396.522C84.9198 396.133 85.2058 395.939 85.3818 395.939C85.6385 395.939 86.0528 396.203 86.6248 396.731L86.7568 396.071H87.8348ZM86.3058 397.754C86.2545 397.659 86.1481 397.563 85.9868 397.468C85.8328 397.365 85.7155 397.314 85.6348 397.314C85.5541 397.314 85.4661 397.362 85.3708 397.457C85.2828 397.552 85.2241 397.64 85.1948 397.721C85.0995 397.853 85.0518 398.293 85.0518 399.041C85.0518 399.782 85.0995 400.218 85.1948 400.35C85.2241 400.423 85.2828 400.511 85.3708 400.614C85.4661 400.709 85.5541 400.757 85.6348 400.757C85.7155 400.757 85.8328 400.709 85.9868 400.614C86.1481 400.511 86.2508 400.42 86.2948 400.339C86.3461 400.258 86.3755 399.829 86.3828 399.052C86.3828 398.275 86.3571 397.842 86.3058 397.754ZM48.8544 407.3V411.799C48.8544 412.569 48.814 413.049 48.7334 413.24C48.6087 413.541 48.2824 413.933 47.7544 414.417C47.2337 414.894 46.8414 415.132 46.5774 415.132C46.3134 415.132 45.9174 414.894 45.3894 414.417C44.8687 413.933 44.546 413.541 44.4214 413.24C44.3407 413.049 44.3004 412.569 44.3004 411.799V410.204C44.3004 409.61 44.2564 409.192 44.1684 408.95C44.0877 408.708 43.9117 408.422 43.6404 408.092L44.9604 407.168C45.195 407.322 45.3967 407.623 45.5654 408.07C45.734 408.51 45.8184 409.038 45.8184 409.654V411.799C45.8184 412.4 45.8477 412.771 45.9064 412.91C45.965 413.042 46.064 413.185 46.2034 413.339C46.35 413.486 46.4747 413.559 46.5774 413.559C46.68 413.559 46.801 413.486 46.9404 413.339C47.087 413.185 47.1897 413.042 47.2484 412.91C47.307 412.771 47.3364 412.4 47.3364 411.799V407.3H48.8544ZM52.1233 415H50.6713V411.205C50.6713 410.831 50.6273 410.541 50.5393 410.336C50.4513 410.131 50.312 409.951 50.1213 409.797L51.3313 408.95C51.6027 409.17 51.8043 409.423 51.9363 409.709C52.479 409.196 52.8603 408.939 53.0803 408.939C53.3077 408.939 53.645 409.144 54.0923 409.555C54.547 409.958 54.7743 410.358 54.7743 410.754V412.877C54.7743 413.251 54.8183 413.541 54.9063 413.746C54.9943 413.951 55.1337 414.131 55.3243 414.285L54.1143 415.132C53.5863 414.714 53.3223 414.12 53.3223 413.35V410.908C53.3223 410.783 53.2563 410.655 53.1243 410.523C52.9923 410.384 52.8677 410.314 52.7503 410.314C52.6403 410.314 52.4313 410.468 52.1233 410.776V415ZM56.4786 409.071H57.9306V412.877C57.9306 413.251 57.9746 413.541 58.0626 413.746C58.1506 413.951 58.2899 414.131 58.4806 414.285L57.2706 415.132C56.7426 414.714 56.4786 414.12 56.4786 413.35V409.071ZM57.2266 406.772C57.3072 406.772 57.4869 406.893 57.7656 407.135C58.0442 407.37 58.1836 407.531 58.1836 407.619C58.1836 407.7 58.0406 407.861 57.7546 408.103C57.4759 408.345 57.2962 408.466 57.2156 408.466C57.1422 408.466 56.9662 408.349 56.6876 408.114C56.4089 407.872 56.2696 407.711 56.2696 407.63C56.2696 407.542 56.4089 407.377 56.6876 407.135C56.9736 406.893 57.1532 406.772 57.2266 406.772ZM63.6471 410.721V411.667C63.6471 412.547 63.5994 413.093 63.5041 413.306C63.4087 413.519 63.1117 413.878 62.6131 414.384C62.1217 414.883 61.7587 415.132 61.5241 415.132C61.2894 415.132 60.9227 414.883 60.4241 414.384C59.9254 413.878 59.6284 413.515 59.5331 413.295C59.4451 413.075 59.4011 412.532 59.4011 411.667V409.071H60.8531V411.667C60.8531 412.437 60.8787 412.892 60.9301 413.031C60.9887 413.163 61.0804 413.299 61.2051 413.438C61.3371 413.577 61.4434 413.647 61.5241 413.647C61.6047 413.647 61.7074 413.577 61.8321 413.438C61.9641 413.299 62.0557 413.163 62.1071 413.031C62.1657 412.892 62.1951 412.437 62.1951 411.667V411.194C62.1951 410.82 62.1511 410.53 62.0631 410.325C61.9751 410.12 61.8357 409.94 61.6451 409.786L62.8551 408.939C63.3831 409.357 63.6471 409.951 63.6471 410.721ZM69.0162 412.019V412.415H66.3542C66.3542 412.855 66.4092 413.203 66.5192 413.46C66.5558 413.548 66.6218 413.64 66.7172 413.735C66.8125 413.823 66.9115 413.867 67.0142 413.867C67.1168 413.867 67.2452 413.779 67.3992 413.603C67.5532 413.427 67.6742 413.214 67.7622 412.965L68.8952 413.768C68.6972 414.135 68.3928 414.454 67.9822 414.725C67.5788 414.996 67.2525 415.132 67.0032 415.132C66.7538 415.132 66.3908 414.938 65.9142 414.549C65.4448 414.16 65.1588 413.86 65.0562 413.647C64.9535 413.427 64.9022 412.892 64.9022 412.041C64.9022 411.183 64.9535 410.648 65.0562 410.435C65.1588 410.215 65.4448 409.911 65.9142 409.522C66.3908 409.133 66.7392 408.939 66.9592 408.939C67.1792 408.939 67.5238 409.133 67.9932 409.522C68.4698 409.911 68.7595 410.215 68.8622 410.435C68.9648 410.648 69.0162 411.176 69.0162 412.019ZM67.4872 410.644C67.4358 410.541 67.3515 410.442 67.2342 410.347C67.1242 410.252 67.0178 410.204 66.9152 410.204C66.8198 410.204 66.7098 410.303 66.5852 410.501C66.4605 410.692 66.3835 410.981 66.3542 411.37H67.6082C67.5862 410.981 67.5458 410.739 67.4872 410.644ZM72.1769 415H70.7249V411.205C70.7249 410.831 70.6772 410.541 70.5819 410.336C70.4939 410.123 70.3582 409.94 70.1749 409.786L71.3849 408.939C71.6489 409.159 71.8505 409.416 71.9899 409.709C72.5325 409.196 72.9139 408.939 73.1339 408.939C73.2805 408.939 73.5042 409.075 73.8049 409.346C74.1055 409.617 74.2815 409.914 74.3329 410.237L73.1559 411.084C73.1485 410.908 73.1045 410.736 73.0239 410.567C72.9505 410.398 72.8845 410.314 72.8259 410.314C72.7012 410.314 72.4849 410.468 72.1769 410.776V415ZM79.0278 413.218C79.0278 413.445 78.7455 413.823 78.1808 414.351C77.6161 414.872 77.1945 415.132 76.9158 415.132C76.6445 415.132 76.3035 414.996 75.8928 414.725C75.4895 414.454 75.1888 414.135 74.9908 413.768L76.1238 412.987C76.4905 413.5 76.7581 413.757 76.9268 413.757C77.0515 413.757 77.2055 413.695 77.3888 413.57C77.5721 413.445 77.6638 413.328 77.6638 413.218C77.6638 413.189 77.5758 413.126 77.3998 413.031C77.2238 412.928 77.0075 412.804 76.7508 412.657C76.5015 412.503 76.2521 412.334 76.0028 412.151C75.7535 411.96 75.5408 411.729 75.3648 411.458C75.1888 411.187 75.1008 410.912 75.1008 410.633C75.1008 410.354 75.3501 410.002 75.8488 409.577C76.3475 409.152 76.7288 408.939 76.9928 408.939C77.2641 408.939 77.6015 409.075 78.0048 409.346C78.4155 409.617 78.7198 409.936 78.9178 410.303L77.7848 411.084C77.4181 410.571 77.1505 410.314 76.9818 410.314C76.8938 410.314 76.7838 410.365 76.6518 410.468C76.5271 410.563 76.4648 410.651 76.4648 410.732C76.4648 410.813 76.5968 410.937 76.8608 411.106C77.1321 411.275 77.4255 411.451 77.7408 411.634C78.0635 411.81 78.3568 412.045 78.6208 412.338C78.8921 412.624 79.0278 412.917 79.0278 413.218ZM80.2403 409.071H81.6923V412.877C81.6923 413.251 81.7363 413.541 81.8243 413.746C81.9123 413.951 82.0516 414.131 82.2423 414.285L81.0323 415.132C80.5043 414.714 80.2403 414.12 80.2403 413.35V409.071ZM80.9883 406.772C81.069 406.772 81.2486 406.893 81.5273 407.135C81.806 407.37 81.9453 407.531 81.9453 407.619C81.9453 407.7 81.8023 407.861 81.5163 408.103C81.2376 408.345 81.058 408.466 80.9773 408.466C80.904 408.466 80.728 408.349 80.4493 408.114C80.1706 407.872 80.0313 407.711 80.0313 407.63C80.0313 407.542 80.1706 407.377 80.4493 407.135C80.7353 406.893 80.915 406.772 80.9883 406.772ZM84.9558 410.226V412.657C84.9558 413.002 85.0731 413.317 85.3078 413.603C85.5424 413.889 85.8651 414.116 86.2758 414.285L85.0658 415.132C84.6258 414.927 84.2554 414.644 83.9548 414.285C83.6541 413.918 83.5038 413.533 83.5038 413.13V410.226H82.9538V409.401L83.5038 409.269C83.4891 408.91 83.4451 408.627 83.3718 408.422C83.2984 408.209 83.1591 408.004 82.9538 407.806L84.1638 406.959C84.6918 407.377 84.9558 407.971 84.9558 408.741V409.071H86.1878V410.226H84.9558ZM90.4095 409.071H91.8615V414.637C91.8615 415.51 91.8065 416.052 91.6965 416.265C91.5865 416.478 91.2969 416.778 90.8275 417.167C90.3655 417.556 90.0135 417.75 89.7715 417.75C89.5295 417.75 89.2179 417.622 88.8365 417.365C88.4552 417.116 88.1692 416.826 87.9785 416.496L89.1115 415.715L89.2325 415.858C89.4965 416.203 89.6762 416.375 89.7715 416.375C89.8742 416.375 89.9805 416.327 90.0905 416.232C90.2079 416.137 90.2885 416.041 90.3325 415.946C90.3839 415.851 90.4095 415.506 90.4095 414.912V414.318C89.9989 414.714 89.6909 414.912 89.4855 414.912C89.2875 414.912 88.9575 414.71 88.4955 414.307C88.0409 413.896 87.8135 413.493 87.8135 413.097V411.194C87.8135 410.82 87.7695 410.53 87.6815 410.325C87.5935 410.12 87.4542 409.94 87.2635 409.786L88.4735 408.939C89.0015 409.357 89.2655 409.951 89.2655 410.721V412.943C89.2655 413.068 89.3352 413.2 89.4745 413.339C89.6139 413.471 89.7349 413.537 89.8375 413.537C89.9402 413.537 90.1309 413.387 90.4095 413.086V409.071ZM53.3741 436.09L55.2466 431.952C55.3569 431.717 55.4397 431.569 55.4948 431.507C55.6121 431.403 55.7293 431.352 55.8466 431.352C55.9707 431.352 56.0638 431.366 56.1259 431.393C56.1948 431.421 56.2535 431.459 56.3017 431.507C56.419 431.624 56.4776 431.779 56.4776 431.972V436.69C56.4776 436.793 56.4431 436.872 56.3741 436.928C56.3121 436.976 56.2397 437 56.1569 437C56.0741 437 56.0017 436.976 55.9397 436.928C55.8776 436.872 55.8466 436.793 55.8466 436.69V432.055L53.7983 436.566C53.7155 436.772 53.5707 436.876 53.3638 436.876C53.1845 436.876 53.0431 436.772 52.9397 436.566L50.9017 432.076V436.69C50.9017 436.793 50.8672 436.872 50.7983 436.928C50.7362 436.976 50.6638 437 50.581 437C50.4983 437 50.4224 436.976 50.3535 436.928C50.2914 436.872 50.2603 436.793 50.2603 436.69V431.972C50.2603 431.669 50.3707 431.476 50.5914 431.393C50.6672 431.379 50.7431 431.369 50.819 431.362C50.9017 431.355 50.9741 431.362 51.0362 431.383C51.1052 431.403 51.1638 431.434 51.2121 431.476C51.2948 431.545 51.3983 431.703 51.5224 431.952L53.3638 436.09H53.3741ZM58.4256 436.762C58.4118 436.714 58.4049 436.666 58.4049 436.617C58.4049 436.569 58.4118 436.524 58.4256 436.483C58.4463 436.434 58.4773 436.393 58.5187 436.359C58.5601 436.317 58.6049 436.286 58.6532 436.266C58.7083 436.245 58.7704 436.234 58.8394 436.234C58.9083 436.234 58.967 436.245 59.0152 436.266C59.0635 436.286 59.1049 436.317 59.1394 436.359C59.1808 436.393 59.2083 436.434 59.2221 436.483C59.2428 436.524 59.2532 436.569 59.2532 436.617C59.2532 436.666 59.2428 436.714 59.2221 436.762C59.2083 436.81 59.1808 436.852 59.1394 436.886C59.1049 436.921 59.0635 436.948 59.0152 436.969C58.967 436.99 58.9083 437 58.8394 437C58.7704 437 58.7083 436.99 58.6532 436.969C58.6049 436.948 58.5601 436.921 58.5187 436.886C58.4773 436.852 58.4463 436.81 58.4256 436.762ZM60.8902 434.207C60.8902 433.848 60.9419 433.486 61.0454 433.121C61.1488 432.755 61.3075 432.441 61.5213 432.179C61.9764 431.6 62.6247 431.31 63.4661 431.31C63.9488 431.31 64.4178 431.417 64.873 431.631C64.9902 431.679 65.0488 431.759 65.0488 431.869C65.0488 432.076 64.9661 432.183 64.8006 432.19C64.7661 432.19 64.7351 432.186 64.7075 432.179C64.2316 432.014 63.8523 431.931 63.5695 431.931C63.2937 431.931 63.0626 431.962 62.8764 432.024C62.6902 432.086 62.5282 432.172 62.3902 432.283C62.2523 432.393 62.1351 432.521 62.0385 432.666C61.9419 432.81 61.8661 432.972 61.8109 433.152C61.6937 433.483 61.6351 433.834 61.6351 434.207C61.6351 434.814 61.7695 435.324 62.0385 435.738C62.3557 436.228 62.8454 436.472 63.5075 436.472C63.9626 436.472 64.3971 436.352 64.8109 436.11C64.8661 436.097 64.9178 436.09 64.9661 436.09C65.0213 436.09 65.0695 436.114 65.1109 436.162C65.1592 436.21 65.1833 436.272 65.1833 436.348C65.1833 436.424 65.1557 436.497 65.1006 436.566C65.0454 436.628 64.9695 436.686 64.873 436.741C64.7833 436.79 64.6799 436.834 64.5626 436.876C64.4523 436.917 64.3351 436.952 64.2109 436.979C63.9488 437.048 63.7006 437.083 63.4661 437.083C62.6178 437.083 61.9695 436.797 61.5213 436.224C61.1006 435.707 60.8902 435.034 60.8902 434.207ZM67.0775 436.762C67.0638 436.714 67.0569 436.666 67.0569 436.617C67.0569 436.569 67.0638 436.524 67.0775 436.483C67.0982 436.434 67.1293 436.393 67.1706 436.359C67.212 436.317 67.2569 436.286 67.3051 436.266C67.3603 436.245 67.4224 436.234 67.4913 436.234C67.5603 436.234 67.6189 436.245 67.6672 436.266C67.7155 436.286 67.7569 436.317 67.7913 436.359C67.8327 436.393 67.8603 436.434 67.8741 436.483C67.8948 436.524 67.9051 436.569 67.9051 436.617C67.9051 436.666 67.8948 436.714 67.8741 436.762C67.8603 436.81 67.8327 436.852 67.7913 436.886C67.7569 436.921 67.7155 436.948 67.6672 436.969C67.6189 436.99 67.5603 437 67.4913 437C67.4224 437 67.3603 436.99 67.3051 436.969C67.2569 436.948 67.212 436.921 67.1706 436.886C67.1293 436.852 67.0982 436.81 67.0775 436.762ZM70.3594 432.779C70.3594 432.924 70.4077 433.062 70.5042 433.193C70.6008 433.317 70.7249 433.421 70.8767 433.503C71.0284 433.586 71.2008 433.659 71.3939 433.721C71.587 433.783 71.7905 433.848 72.0042 433.917C72.218 433.986 72.4284 434.062 72.6353 434.145C72.8422 434.228 73.0215 434.331 73.1732 434.455C73.5042 434.724 73.6698 435.09 73.6698 435.552C73.6698 435.772 73.618 435.983 73.5146 436.183C73.4111 436.376 73.2663 436.538 73.0801 436.669C72.7008 436.945 72.1939 437.083 71.5594 437.083C70.9594 437.083 70.4318 436.931 69.9767 436.628C69.6939 436.448 69.5525 436.297 69.5525 436.172C69.5525 436.062 69.6077 435.972 69.718 435.903C69.7456 435.876 69.7801 435.862 69.8215 435.862C69.8629 435.862 69.9077 435.879 69.956 435.914C70.0042 435.948 70.0594 435.99 70.1215 436.038C70.1905 436.086 70.2732 436.141 70.3698 436.203C70.4732 436.259 70.5801 436.31 70.6905 436.359C70.9663 436.469 71.2353 436.521 71.4973 436.514C71.7594 436.507 71.9698 436.486 72.1284 436.452C72.287 436.417 72.4284 436.359 72.5525 436.276C72.8146 436.097 72.9491 435.869 72.956 435.593C72.956 435.248 72.787 434.983 72.4491 434.797C72.2973 434.714 72.1249 434.641 71.9318 434.579C71.7456 434.51 71.5456 434.445 71.3318 434.383C71.1249 434.321 70.918 434.245 70.7111 434.155C70.5042 434.066 70.3215 433.959 70.1629 433.834C69.8249 433.566 69.656 433.221 69.656 432.8C69.656 432.579 69.7077 432.372 69.8111 432.179C69.9215 431.986 70.0698 431.828 70.256 431.703C70.6146 431.448 71.0629 431.317 71.6008 431.31C72.3801 431.31 73.0077 431.562 73.4836 432.066C73.5111 432.107 73.5249 432.155 73.5249 432.21C73.5249 432.259 73.5215 432.3 73.5146 432.334C73.5146 432.369 73.4973 432.403 73.4629 432.438C73.4146 432.5 73.3491 432.531 73.2663 432.531C73.1905 432.531 73.1077 432.479 73.018 432.376C72.7905 432.21 72.6077 432.103 72.4698 432.055C72.1939 431.945 71.9249 431.89 71.6629 431.89C71.3249 431.89 71.0353 431.959 70.7939 432.097C70.5042 432.262 70.3594 432.49 70.3594 432.779ZM78.4525 431.703C78.4525 431.814 78.4146 431.903 78.3387 431.972C78.2629 432.041 78.156 432.076 78.018 432.076C77.8801 432.076 77.7732 432.041 77.6974 431.972C77.6215 431.903 77.5836 431.814 77.5836 431.703C77.5836 431.607 77.6215 431.524 77.6974 431.455C77.7732 431.386 77.8801 431.352 78.018 431.352C78.1629 431.352 78.2698 431.386 78.3387 431.455C78.4146 431.524 78.4525 431.607 78.4525 431.703ZM77.7077 433.4C77.7077 433.297 77.7422 433.217 77.8112 433.162C77.8801 433.1 77.9422 433.069 77.9974 433.069C78.0525 433.069 78.0974 433.079 78.1318 433.1C78.1663 433.114 78.2008 433.138 78.2353 433.172C78.3112 433.221 78.3491 433.297 78.3491 433.4V436.69C78.3491 436.793 78.3146 436.872 78.2456 436.928C78.1767 436.976 78.1008 437 78.018 437C77.9353 437 77.8629 436.976 77.8008 436.928C77.7387 436.872 77.7077 436.793 77.7077 436.69V433.4ZM80.021 433.369C80.021 433.279 80.0555 433.207 80.1244 433.152C80.1934 433.097 80.2624 433.069 80.3313 433.069C80.4762 433.069 80.5693 433.124 80.6106 433.234C80.652 433.345 80.6624 433.51 80.6417 433.731C80.7244 433.524 80.9037 433.345 81.1796 433.193C81.421 433.062 81.6589 432.997 81.8934 432.997C82.1348 432.997 82.3382 433.028 82.5037 433.09C82.6693 433.145 82.821 433.234 82.9589 433.359C83.2348 433.621 83.3727 434.007 83.3727 434.517V436.71C83.3727 436.807 83.3348 436.879 83.2589 436.928C83.1899 436.976 83.1175 437 83.0417 437C82.9589 437 82.8865 436.976 82.8244 436.928C82.7624 436.872 82.7313 436.8 82.7313 436.71V434.476C82.7313 434.152 82.6417 433.903 82.4624 433.731C82.2968 433.566 82.0899 433.483 81.8417 433.483C81.5106 433.483 81.2279 433.579 80.9934 433.772C80.7589 433.979 80.6417 434.297 80.6417 434.724V436.71C80.6417 436.807 80.6072 436.879 80.5382 436.928C80.4693 436.976 80.3934 437 80.3106 437C80.2279 437 80.1589 436.976 80.1037 436.928C80.0486 436.872 80.021 436.8 80.021 436.71V433.369ZM48.4414 445.207C48.4414 444.848 48.4931 444.486 48.5966 444.121C48.7 443.755 48.8586 443.441 49.0724 443.179C49.5276 442.6 50.1759 442.31 51.0173 442.31C51.5 442.31 51.969 442.417 52.4242 442.631C52.5414 442.679 52.6 442.759 52.6 442.869C52.6 443.076 52.5173 443.183 52.3517 443.19C52.3173 443.19 52.2862 443.186 52.2586 443.179C51.7828 443.014 51.4035 442.931 51.1207 442.931C50.8448 442.931 50.6138 442.962 50.4276 443.024C50.2414 443.086 50.0793 443.172 49.9414 443.283C49.8035 443.393 49.6862 443.521 49.5897 443.666C49.4931 443.81 49.4173 443.972 49.3621 444.152C49.2448 444.483 49.1862 444.834 49.1862 445.207C49.1862 445.814 49.3207 446.324 49.5897 446.738C49.9069 447.228 50.3966 447.472 51.0586 447.472C51.5138 447.472 51.9483 447.352 52.3621 447.11C52.4173 447.097 52.469 447.09 52.5173 447.09C52.5724 447.09 52.6207 447.114 52.6621 447.162C52.7104 447.21 52.7345 447.272 52.7345 447.348C52.7345 447.424 52.7069 447.497 52.6517 447.566C52.5966 447.628 52.5207 447.686 52.4242 447.741C52.3345 447.79 52.2311 447.834 52.1138 447.876C52.0035 447.917 51.8862 447.952 51.7621 447.979C51.5 448.048 51.2517 448.083 51.0173 448.083C50.169 448.083 49.5207 447.797 49.0724 447.224C48.6517 446.707 48.4414 446.034 48.4414 445.207ZM54.2253 446.045C54.2253 445.797 54.2632 445.548 54.3391 445.3C54.4218 445.052 54.546 444.828 54.7115 444.628C55.0563 444.207 55.546 443.997 56.1804 443.997C56.8149 443.997 57.3046 444.207 57.6494 444.628C57.9735 445.028 58.1356 445.497 58.1356 446.034C58.1356 446.579 57.9735 447.048 57.6494 447.441C57.3046 447.869 56.8149 448.083 56.1804 448.083C55.546 448.083 55.0563 447.869 54.7115 447.441C54.3873 447.055 54.2253 446.59 54.2253 446.045ZM54.8977 446.045C54.8977 446.21 54.9184 446.386 54.9598 446.572C55.008 446.759 55.0908 446.931 55.208 447.09C55.4425 447.428 55.7666 447.597 56.1804 447.597C56.6149 447.597 56.9391 447.428 57.1529 447.09C57.3529 446.772 57.4529 446.421 57.4529 446.034C57.4529 445.634 57.3529 445.29 57.1529 445C56.9322 444.655 56.608 444.483 56.1804 444.483C55.7666 444.483 55.4425 444.655 55.208 445C55.0011 445.283 54.8977 445.631 54.8977 446.045ZM62.7525 444.814C63.0835 444.269 63.5594 443.997 64.1801 443.997C64.8214 443.997 65.249 444.266 65.4628 444.803C65.5387 445.003 65.5766 445.234 65.5766 445.497V447.71C65.5766 447.807 65.5421 447.879 65.4732 447.928C65.4111 447.976 65.3421 448 65.2663 448C65.1835 448 65.1076 447.976 65.0387 447.928C64.9766 447.872 64.9456 447.8 64.9456 447.71V445.455C64.9456 445.138 64.8559 444.89 64.6766 444.71C64.5111 444.559 64.2973 444.483 64.0352 444.483C63.5111 444.483 63.1559 444.697 62.9697 445.124C62.8939 445.283 62.8559 445.476 62.8559 445.703V447.71C62.8559 447.807 62.8214 447.879 62.7525 447.928C62.6904 447.976 62.6214 448 62.5456 448C62.4628 448 62.387 447.976 62.318 447.928C62.2559 447.872 62.2249 447.8 62.2249 447.71V445.455C62.2249 445.138 62.1387 444.89 61.9663 444.71C61.8008 444.559 61.6111 444.483 61.3973 444.483C61.1835 444.483 61.0076 444.507 60.8697 444.555C60.7318 444.603 60.6076 444.683 60.4973 444.793C60.2766 445.014 60.1594 445.324 60.1456 445.724V447.71C60.1456 447.807 60.1111 447.879 60.0421 447.928C59.9732 447.976 59.9008 448 59.8249 448C59.749 448 59.6766 447.976 59.6076 447.928C59.5387 447.872 59.5042 447.8 59.5042 447.71V444.369C59.5042 444.279 59.5387 444.207 59.6076 444.152C59.6766 444.097 59.7421 444.069 59.8042 444.069C59.8663 444.069 59.9145 444.079 59.949 444.1C59.9835 444.114 60.0145 444.131 60.0421 444.152C60.1111 444.207 60.1456 444.276 60.1456 444.359V444.731C60.2421 444.497 60.418 444.314 60.6732 444.183C60.9008 444.059 61.1663 443.997 61.4697 443.997C61.9387 443.997 62.2973 444.145 62.5456 444.441C62.6283 444.552 62.6973 444.676 62.7525 444.814ZM67.7933 444.741C68.0622 444.245 68.5312 443.997 69.2002 443.997C69.7519 443.997 70.1726 444.207 70.4622 444.628C70.7243 445.014 70.8553 445.49 70.8553 446.055C70.8553 446.634 70.7174 447.107 70.4416 447.472C70.145 447.886 69.7278 448.09 69.1898 448.083C68.7347 448.083 68.3622 447.945 68.0726 447.669C67.9691 447.579 67.876 447.472 67.7933 447.348V449.21C67.7933 449.314 67.7588 449.39 67.6898 449.438C67.6209 449.486 67.5519 449.51 67.4829 449.51C67.4002 449.51 67.3243 449.483 67.2553 449.428C67.1864 449.372 67.1519 449.3 67.1519 449.21V444.369C67.1519 444.266 67.1829 444.19 67.245 444.141C67.3071 444.093 67.3967 444.069 67.514 444.069C67.7416 444.069 67.8347 444.293 67.7933 444.741ZM68.0416 444.938C67.945 445.076 67.8795 445.241 67.845 445.434C67.8105 445.628 67.7933 445.831 67.7933 446.045C67.7933 446.252 67.8174 446.448 67.8657 446.634C67.914 446.814 67.9864 446.979 68.0829 447.131C68.3036 447.448 68.6209 447.603 69.0347 447.597C69.4347 447.597 69.7381 447.431 69.945 447.1C70.1036 446.831 70.1829 446.476 70.1829 446.034C70.1829 445.338 69.9864 444.869 69.5933 444.628C69.4485 444.538 69.2588 444.493 69.0243 444.493C68.7967 444.486 68.6002 444.524 68.4347 444.607C68.276 444.69 68.145 444.8 68.0416 444.938ZM75.6067 447.71C75.6067 447.807 75.5688 447.879 75.4929 447.928C75.4239 447.976 75.3619 448 75.3067 448C75.2584 448 75.2136 447.997 75.1722 447.99C75.1308 447.976 75.0963 447.952 75.0688 447.917C74.9998 447.869 74.9653 447.8 74.9653 447.71V447.348C74.7998 447.714 74.4963 447.941 74.055 448.031C73.917 448.066 73.7688 448.083 73.6101 448.083C73.4515 448.083 73.286 448.055 73.1136 448C72.9412 447.945 72.7929 447.855 72.6688 447.731C72.3929 447.469 72.255 447.076 72.255 446.552V444.379C72.255 444.283 72.286 444.207 72.3481 444.152C72.4101 444.097 72.4826 444.069 72.5653 444.069C72.6481 444.069 72.7205 444.097 72.7826 444.152C72.8446 444.207 72.8757 444.283 72.8757 444.379V446.603C72.8757 446.976 72.9515 447.234 73.1032 447.379C73.255 447.524 73.4826 447.597 73.786 447.597C74.2963 447.597 74.6481 447.39 74.8412 446.976C74.917 446.831 74.9584 446.666 74.9653 446.479V444.379C74.9653 444.283 74.9998 444.207 75.0688 444.152C75.1377 444.097 75.2136 444.069 75.2963 444.069C75.3791 444.069 75.4515 444.097 75.5136 444.152C75.5757 444.207 75.6067 444.283 75.6067 444.379V447.71ZM79.3355 447.772C79.3355 447.979 79.0906 448.083 78.601 448.083C78.2355 448.083 77.9768 447.983 77.8251 447.783C77.6596 447.569 77.5699 447.217 77.5561 446.728V444.555H77.101C77.0182 444.555 76.9527 444.531 76.9044 444.483C76.8561 444.428 76.832 444.372 76.832 444.317C76.832 444.262 76.8527 444.207 76.8941 444.152C76.9355 444.097 77.0044 444.069 77.101 444.069H77.5975L77.6389 442.952C77.6527 442.869 77.6906 442.807 77.7527 442.766C77.8148 442.717 77.8803 442.693 77.9492 442.693C78.0182 442.693 78.0768 442.714 78.1251 442.755C78.1734 442.797 78.1975 442.862 78.1975 442.952V444.069H78.9113C78.9941 444.069 79.0561 444.097 79.0975 444.152C79.1458 444.207 79.1699 444.262 79.1699 444.317C79.1699 444.386 79.1458 444.445 79.0975 444.493C79.0561 444.534 78.9941 444.555 78.9113 444.555H78.1975V446.386C78.1975 446.897 78.2148 447.207 78.2492 447.317C78.2837 447.421 78.3389 447.493 78.4148 447.534C78.4906 447.576 78.5837 447.597 78.6941 447.597L79.0975 447.566C79.1734 447.566 79.232 447.59 79.2734 447.638C79.3148 447.686 79.3355 447.731 79.3355 447.772ZM83.9816 445.921C83.9816 446.066 83.8988 446.145 83.7333 446.159H80.8988C80.9264 446.862 81.2023 447.317 81.7264 447.524C81.8713 447.572 82.0368 447.597 82.223 447.597C82.6092 447.597 83.0023 447.455 83.4023 447.172C83.5264 447.103 83.6299 447.11 83.7126 447.193C83.754 447.234 83.7678 447.276 83.754 447.317C83.754 447.414 83.7299 447.483 83.6816 447.524C83.3023 447.903 82.8023 448.09 82.1816 448.083C81.6161 448.083 81.1609 447.9 80.8161 447.534C80.4299 447.155 80.2368 446.655 80.2368 446.034C80.2368 445.462 80.3954 444.99 80.7126 444.617C81.0437 444.203 81.5126 443.997 82.1195 443.997C82.7264 443.997 83.1885 444.179 83.5057 444.545C83.8092 444.876 83.9678 445.334 83.9816 445.921ZM83.3713 445.734C83.3506 445.362 83.2299 445.055 83.0092 444.814C82.8023 444.593 82.5057 444.483 82.1195 444.483C81.7885 444.483 81.5057 444.607 81.2713 444.855C81.0575 445.103 80.9402 445.397 80.9195 445.734H83.3713ZM86.0206 444.731C86.1861 444.241 86.5482 443.997 87.1068 443.997C87.2102 443.997 87.2861 444.028 87.3344 444.09C87.3895 444.145 87.4171 444.207 87.4171 444.276C87.4171 444.338 87.3895 444.4 87.3344 444.462C87.2861 444.517 87.193 444.545 87.0551 444.545C86.9171 444.545 86.7792 444.572 86.6413 444.628C86.5033 444.683 86.3895 444.762 86.2999 444.866C86.1137 445.093 86.0206 445.393 86.0206 445.766V447.71C86.0206 447.807 85.9861 447.879 85.9171 447.928C85.8482 447.976 85.7861 448 85.7309 448C85.6758 448 85.6309 447.997 85.5964 447.99C85.562 447.976 85.5275 447.952 85.493 447.917C85.4309 447.876 85.3999 447.807 85.3999 447.71V444.379C85.3999 444.29 85.4309 444.217 85.493 444.162C85.5551 444.1 85.6309 444.069 85.7206 444.069C85.8171 444.069 85.8895 444.1 85.9378 444.162C85.993 444.217 86.0206 444.29 86.0206 444.379V444.731ZM53.9186 454.779C53.9186 454.924 53.9669 455.062 54.0634 455.193C54.16 455.317 54.2841 455.421 54.4358 455.503C54.5876 455.586 54.76 455.659 54.9531 455.721C55.1462 455.783 55.3496 455.848 55.5634 455.917C55.7772 455.986 55.9876 456.062 56.1945 456.145C56.4014 456.228 56.5807 456.331 56.7324 456.455C57.0634 456.724 57.2289 457.09 57.2289 457.552C57.2289 457.772 57.1772 457.983 57.0738 458.183C56.9703 458.376 56.8255 458.538 56.6393 458.669C56.26 458.945 55.7531 459.083 55.1186 459.083C54.5186 459.083 53.991 458.931 53.5358 458.628C53.2531 458.448 53.1117 458.297 53.1117 458.172C53.1117 458.062 53.1669 457.972 53.2772 457.903C53.3048 457.876 53.3393 457.862 53.3807 457.862C53.422 457.862 53.4669 457.879 53.5151 457.914C53.5634 457.948 53.6186 457.99 53.6807 458.038C53.7496 458.086 53.8324 458.141 53.9289 458.203C54.0324 458.259 54.1393 458.31 54.2496 458.359C54.5255 458.469 54.7945 458.521 55.0565 458.514C55.3186 458.507 55.5289 458.486 55.6876 458.452C55.8462 458.417 55.9876 458.359 56.1117 458.276C56.3738 458.097 56.5083 457.869 56.5151 457.593C56.5151 457.248 56.3462 456.983 56.0083 456.797C55.8565 456.714 55.6841 456.641 55.491 456.579C55.3048 456.51 55.1048 456.445 54.891 456.383C54.6841 456.321 54.4772 456.245 54.2703 456.155C54.0634 456.066 53.8807 455.959 53.722 455.834C53.3841 455.566 53.2151 455.221 53.2151 454.8C53.2151 454.579 53.2669 454.372 53.3703 454.179C53.4807 453.986 53.6289 453.828 53.8151 453.703C54.1738 453.448 54.622 453.317 55.16 453.31C55.9393 453.31 56.5669 453.562 57.0427 454.066C57.0703 454.107 57.0841 454.155 57.0841 454.21C57.0841 454.259 57.0807 454.3 57.0738 454.334C57.0738 454.369 57.0565 454.403 57.022 454.438C56.9738 454.5 56.9083 454.531 56.8255 454.531C56.7496 454.531 56.6669 454.479 56.5772 454.376C56.3496 454.21 56.1669 454.103 56.0289 454.055C55.7531 453.945 55.4841 453.89 55.222 453.89C54.8841 453.89 54.5945 453.959 54.3531 454.097C54.0634 454.262 53.9186 454.49 53.9186 454.779ZM58.4649 457.034C58.4649 456.462 58.627 455.986 58.9511 455.607C59.3028 455.2 59.7615 454.997 60.327 454.997C60.8097 454.997 61.1787 455.097 61.4339 455.297C61.5097 455.352 61.5477 455.417 61.5477 455.493C61.5477 455.569 61.527 455.631 61.4856 455.679C61.4442 455.721 61.3959 455.741 61.3408 455.741C61.2856 455.741 61.2442 455.731 61.2166 455.71C60.9546 455.559 60.6787 455.486 60.389 455.493C60.0097 455.493 59.7132 455.634 59.4994 455.917C59.258 456.207 59.1373 456.579 59.1373 457.034C59.1373 457.455 59.2235 457.81 59.3959 458.1C59.6028 458.431 59.9339 458.597 60.389 458.597C60.6373 458.597 60.9408 458.51 61.2994 458.338C61.3959 458.283 61.4787 458.297 61.5477 458.379C61.589 458.421 61.6097 458.479 61.6097 458.555C61.6097 458.624 61.5649 458.697 61.4753 458.772C61.3856 458.841 61.2787 458.897 61.1546 458.938C60.8511 459.041 60.558 459.09 60.2753 459.083C59.9925 459.083 59.7373 459.031 59.5097 458.928C59.2821 458.824 59.0925 458.672 58.9408 458.472C58.6235 458.093 58.4649 457.614 58.4649 457.034ZM63.7519 453.703C63.7519 453.814 63.714 453.903 63.6381 453.972C63.5623 454.041 63.4554 454.076 63.3175 454.076C63.1795 454.076 63.0726 454.041 62.9968 453.972C62.9209 453.903 62.883 453.814 62.883 453.703C62.883 453.607 62.9209 453.524 62.9968 453.455C63.0726 453.386 63.1795 453.352 63.3175 453.352C63.4623 453.352 63.5692 453.386 63.6381 453.455C63.714 453.524 63.7519 453.607 63.7519 453.703ZM63.0071 455.4C63.0071 455.297 63.0416 455.217 63.1106 455.162C63.1795 455.1 63.2416 455.069 63.2968 455.069C63.3519 455.069 63.3968 455.079 63.4313 455.1C63.4657 455.114 63.5002 455.138 63.5347 455.172C63.6106 455.221 63.6485 455.297 63.6485 455.4V458.69C63.6485 458.793 63.614 458.872 63.545 458.928C63.4761 458.976 63.4002 459 63.3175 459C63.2347 459 63.1623 458.976 63.1002 458.928C63.0381 458.872 63.0071 458.793 63.0071 458.69V455.4ZM68.8169 456.921C68.8169 457.066 68.7342 457.145 68.5687 457.159H65.7342C65.7618 457.862 66.0376 458.317 66.5618 458.524C66.7066 458.572 66.8721 458.597 67.0583 458.597C67.4445 458.597 67.8376 458.455 68.2376 458.172C68.3618 458.103 68.4652 458.11 68.548 458.193C68.5894 458.234 68.6032 458.276 68.5894 458.317C68.5894 458.414 68.5652 458.483 68.5169 458.524C68.1376 458.903 67.6376 459.09 67.0169 459.083C66.4514 459.083 65.9963 458.9 65.6514 458.534C65.2652 458.155 65.0721 457.655 65.0721 457.034C65.0721 456.462 65.2307 455.99 65.548 455.617C65.879 455.203 66.348 454.997 66.9549 454.997C67.5618 454.997 68.0238 455.179 68.3411 455.545C68.6445 455.876 68.8032 456.334 68.8169 456.921ZM68.2066 456.734C68.1859 456.362 68.0652 456.055 67.8445 455.814C67.6376 455.593 67.3411 455.483 66.9549 455.483C66.6238 455.483 66.3411 455.607 66.1066 455.855C65.8928 456.103 65.7756 456.397 65.7549 456.734H68.2066ZM70.2352 455.369C70.2352 455.279 70.2697 455.207 70.3387 455.152C70.4077 455.097 70.4766 455.069 70.5456 455.069C70.6904 455.069 70.7835 455.124 70.8249 455.234C70.8663 455.345 70.8766 455.51 70.8559 455.731C70.9387 455.524 71.118 455.345 71.3939 455.193C71.6352 455.062 71.8732 454.997 72.1077 454.997C72.349 454.997 72.5525 455.028 72.718 455.09C72.8835 455.145 73.0352 455.234 73.1732 455.359C73.449 455.621 73.587 456.007 73.587 456.517V458.71C73.587 458.807 73.549 458.879 73.4732 458.928C73.4042 458.976 73.3318 459 73.2559 459C73.1732 459 73.1008 458.976 73.0387 458.928C72.9766 458.872 72.9456 458.8 72.9456 458.71V456.476C72.9456 456.152 72.8559 455.903 72.6766 455.731C72.5111 455.566 72.3042 455.483 72.0559 455.483C71.7249 455.483 71.4421 455.579 71.2077 455.772C70.9732 455.979 70.8559 456.297 70.8559 456.724V458.71C70.8559 458.807 70.8214 458.879 70.7525 458.928C70.6835 458.976 70.6077 459 70.5249 459C70.4421 459 70.3732 458.976 70.318 458.928C70.2628 458.872 70.2352 458.8 70.2352 458.71V455.369ZM74.9778 457.034C74.9778 456.462 75.1399 455.986 75.464 455.607C75.8157 455.2 76.2744 454.997 76.8399 454.997C77.3226 454.997 77.6916 455.097 77.9468 455.297C78.0226 455.352 78.0606 455.417 78.0606 455.493C78.0606 455.569 78.0399 455.631 77.9985 455.679C77.9571 455.721 77.9088 455.741 77.8537 455.741C77.7985 455.741 77.7571 455.731 77.7295 455.71C77.4675 455.559 77.1916 455.486 76.9019 455.493C76.5226 455.493 76.2261 455.634 76.0123 455.917C75.7709 456.207 75.6502 456.579 75.6502 457.034C75.6502 457.455 75.7364 457.81 75.9088 458.1C76.1157 458.431 76.4468 458.597 76.9019 458.597C77.1502 458.597 77.4537 458.51 77.8123 458.338C77.9088 458.283 77.9916 458.297 78.0606 458.379C78.1019 458.421 78.1226 458.479 78.1226 458.555C78.1226 458.624 78.0778 458.697 77.9881 458.772C77.8985 458.841 77.7916 458.897 77.6675 458.938C77.364 459.041 77.0709 459.09 76.7881 459.083C76.5054 459.083 76.2502 459.031 76.0226 458.928C75.795 458.824 75.6054 458.672 75.4537 458.472C75.1364 458.093 74.9778 457.614 74.9778 457.034ZM83.0166 456.921C83.0166 457.066 82.9338 457.145 82.7683 457.159H79.9338C79.9614 457.862 80.2372 458.317 80.7614 458.524C80.9062 458.572 81.0717 458.597 81.2579 458.597C81.6441 458.597 82.0372 458.455 82.4372 458.172C82.5614 458.103 82.6648 458.11 82.7476 458.193C82.789 458.234 82.8028 458.276 82.789 458.317C82.789 458.414 82.7648 458.483 82.7166 458.524C82.3372 458.903 81.8372 459.09 81.2166 459.083C80.651 459.083 80.1959 458.9 79.851 458.534C79.4648 458.155 79.2717 457.655 79.2717 457.034C79.2717 456.462 79.4303 455.99 79.7476 455.617C80.0786 455.203 80.5476 454.997 81.1545 454.997C81.7614 454.997 82.2235 455.179 82.5407 455.545C82.8441 455.876 83.0028 456.334 83.0166 456.921ZM82.4062 456.734C82.3855 456.362 82.2648 456.055 82.0441 455.814C81.8372 455.593 81.5407 455.483 81.1545 455.483C80.8235 455.483 80.5407 455.607 80.3062 455.855C80.0924 456.103 79.9752 456.397 79.9545 456.734H82.4062Z" fill="black"/>
</svg>
