<svg width="228" height="482" viewBox="0 0 228 482" fill="none" xmlns="http://www.w3.org/2000/svg">
<g clip-path="url(#clip0_1095_997)">
<path d="M43.7719 430.024L43.3694 428.275L39.4018 427.241L38.1969 428.571L37.6143 428.419L42.1947 423.373L42.8198 423.536L44.3545 430.175L43.7719 430.024ZM42.3752 423.969L39.7887 426.819L43.2374 427.718L42.3752 423.969ZM51.4379 426.704C51.3414 426.621 51.2286 426.531 51.0995 426.434C50.9712 426.334 50.8197 426.235 50.6452 426.138C50.4735 426.042 50.2755 425.948 50.0511 425.856C49.8275 425.762 49.574 425.677 49.2905 425.604C48.9474 425.514 48.6361 425.454 48.3564 425.424C48.0796 425.394 47.8365 425.397 47.6272 425.434C47.4215 425.468 47.2525 425.536 47.12 425.637C46.9903 425.74 46.9026 425.879 46.8568 426.055C46.8184 426.202 46.8301 426.343 46.892 426.477C46.9568 426.612 47.056 426.742 47.1898 426.868C47.3264 426.995 47.4903 427.121 47.6816 427.246C47.8765 427.37 48.0835 427.493 48.3026 427.617C48.5252 427.738 48.7531 427.863 48.9863 427.99C49.2224 428.118 49.4485 428.25 49.6646 428.385C49.8842 428.518 50.0871 428.657 50.2733 428.803C50.463 428.946 50.6203 429.097 50.7452 429.257C50.8729 429.417 50.9622 429.586 51.013 429.763C51.0667 429.94 51.0673 430.13 51.0148 430.331C50.9579 430.549 50.8669 430.73 50.7419 430.873C50.6175 431.013 50.469 431.124 50.2962 431.206C50.127 431.286 49.9371 431.341 49.7264 431.371C49.5194 431.399 49.3022 431.407 49.0749 431.397C48.8505 431.387 48.6212 431.36 48.3871 431.317C48.1552 431.278 47.9286 431.23 47.7075 431.172C47.2 431.04 46.749 430.883 46.3543 430.701C45.9624 430.52 45.596 430.317 45.255 430.092L45.4246 429.442C45.7503 429.772 46.1161 430.035 46.522 430.232C46.9308 430.429 47.3719 430.589 47.8453 430.713C48.1798 430.8 48.494 430.861 48.7879 430.895C49.0817 430.929 49.3432 430.931 49.5723 430.9C49.8022 430.866 49.9919 430.794 50.1415 430.685C50.2939 430.576 50.3964 430.421 50.4489 430.22C50.491 430.058 50.4811 429.904 50.4194 429.758C50.3604 429.612 50.2634 429.474 50.1283 429.341C49.9967 429.207 49.8339 429.077 49.6397 428.951C49.4484 428.825 49.2429 428.702 49.0231 428.581C48.804 428.457 48.5757 428.334 48.3382 428.212C48.1042 428.087 47.8785 427.96 47.6609 427.831C47.4433 427.702 47.2393 427.567 47.0488 427.426C46.8612 427.287 46.7028 427.139 46.5736 426.985C46.448 426.828 46.358 426.662 46.3036 426.487C46.252 426.313 46.2521 426.127 46.3038 425.929C46.3548 425.733 46.4367 425.57 46.5496 425.439C46.6632 425.305 46.7982 425.199 46.9546 425.122C47.1138 425.045 47.2895 424.993 47.4816 424.964C47.6745 424.933 47.8743 424.921 48.081 424.93C48.2913 424.936 48.5053 424.957 48.7231 424.993C48.9409 425.028 49.1533 425.073 49.3602 425.127C49.587 425.186 49.7985 425.252 49.9946 425.324C50.1935 425.397 50.3821 425.475 50.5604 425.558C50.7422 425.638 50.9169 425.723 51.0844 425.812C51.2547 425.902 51.4258 425.995 51.5975 426.091L51.4379 426.704ZM60.6651 434.426L60.8336 433.78C60.6007 433.837 60.3416 433.879 60.0564 433.904C59.774 433.931 59.4794 433.94 59.1725 433.933C58.8684 433.926 58.5599 433.902 58.247 433.86C57.934 433.818 57.6315 433.758 57.3395 433.682C56.9596 433.583 56.6269 433.46 56.3413 433.313C56.0585 433.167 55.8296 433 55.6545 432.812C55.4802 432.621 55.3622 432.412 55.3005 432.184C55.2396 431.953 55.2435 431.706 55.3122 431.442C55.3802 431.181 55.5052 430.968 55.6873 430.804C55.8731 430.637 56.107 430.512 56.3892 430.428C56.6722 430.342 56.9985 430.292 57.3682 430.279C57.7414 430.264 58.1498 430.277 58.5935 430.317C59.038 430.354 59.5128 430.414 60.0179 430.498C60.5266 430.579 61.0586 430.675 61.6138 430.786L61.7302 430.34C61.7775 430.158 61.7852 429.989 61.7534 429.833C61.7216 429.676 61.658 429.531 61.5627 429.397C61.4681 429.26 61.3475 429.137 61.2008 429.026C61.0548 428.912 60.891 428.809 60.7093 428.716C60.5304 428.624 60.3369 428.542 60.1287 428.469C59.9241 428.395 59.7155 428.33 59.5029 428.274C59.2165 428.2 58.952 428.146 58.7093 428.113C58.4666 428.08 58.2366 428.062 58.0192 428.06C57.8025 428.055 57.5921 428.061 57.388 428.077C57.1839 428.094 56.9773 428.114 56.7681 428.138L56.9299 427.517C57.3513 427.515 57.7945 427.534 58.2596 427.573C58.7282 427.611 59.2134 427.695 59.7152 427.826C60.1404 427.936 60.5277 428.077 60.8771 428.246C61.2271 428.413 61.5176 428.612 61.7484 428.841C61.9791 429.071 62.1396 429.332 62.2298 429.625C62.3207 429.915 62.3192 430.241 62.2254 430.601L61.1924 434.564L60.6651 434.426ZM61.4908 431.258C60.5505 431.068 59.7393 430.934 59.0572 430.856C58.3779 430.779 57.8122 430.754 57.3599 430.781C56.9077 430.809 56.5602 430.888 56.3173 431.018C56.0772 431.149 55.9273 431.33 55.8674 431.559C55.8186 431.746 55.8222 431.924 55.8781 432.093C55.9368 432.263 56.0425 432.421 56.1952 432.567C56.3487 432.71 56.5464 432.84 56.7882 432.957C57.0308 433.072 57.3109 433.171 57.6284 433.254C57.8155 433.302 58.0109 433.343 58.2145 433.374C58.4217 433.404 58.6293 433.427 58.8374 433.441C59.0462 433.453 59.2536 433.459 59.4597 433.458C59.6665 433.455 59.8631 433.444 60.0494 433.426C60.2358 433.408 60.4077 433.381 60.565 433.347C60.7253 433.313 60.8632 433.272 60.9788 433.223L61.4908 431.258ZM35.4964 439.773C35.2702 439.805 35.0471 439.83 34.8274 439.848C34.6105 439.867 34.3876 439.874 34.1589 439.869C33.9301 439.864 33.693 439.845 33.4474 439.811C33.2019 439.777 32.9388 439.724 32.6581 439.651C32.3123 439.56 31.9866 439.445 31.681 439.305C31.3782 439.166 31.1041 439.003 30.8587 438.818C30.6133 438.633 30.4004 438.428 30.22 438.202C30.0404 437.974 29.8989 437.726 29.7957 437.46C29.6953 437.195 29.6378 436.911 29.623 436.607C29.6111 436.304 29.6488 435.986 29.736 435.651C29.8231 435.316 29.9458 435.02 30.104 434.761C30.2651 434.504 30.4541 434.284 30.6713 434.101C30.8912 433.919 31.135 433.774 31.4026 433.665C31.6709 433.553 31.9573 433.476 32.2618 433.435C32.5664 433.393 32.8848 433.385 33.2171 433.411C33.5494 433.437 33.8899 433.496 34.2386 433.587C34.5192 433.66 34.775 433.741 35.0057 433.832C35.2365 433.922 35.4529 434.021 35.6551 434.128C35.8572 434.235 36.0483 434.35 36.2283 434.473C36.4118 434.593 36.5946 434.723 36.7765 434.861L36.6103 435.499C36.4753 435.355 36.3275 435.213 36.1668 435.075C36.0062 434.936 35.827 434.804 35.6293 434.68C35.4344 434.557 35.2202 434.443 34.9868 434.34C34.7533 434.237 34.4977 434.149 34.2198 434.077C33.6585 433.93 33.1564 433.865 32.7136 433.879C32.2707 433.894 31.8855 433.978 31.5578 434.132C31.2337 434.284 30.965 434.501 30.7519 434.785C30.5423 435.066 30.3865 435.403 30.2845 435.794C30.1826 436.185 30.1544 436.555 30.1999 436.903C30.2483 437.251 30.3766 437.572 30.5847 437.866C30.7964 438.157 31.0919 438.417 31.4712 438.646C31.8512 438.873 32.3219 439.059 32.8832 439.205C33.1611 439.278 33.4285 439.326 33.6854 439.351C33.9453 439.376 34.1918 439.383 34.425 439.371C34.661 439.36 34.8812 439.334 35.0855 439.293C35.2934 439.251 35.4855 439.199 35.6616 439.139L35.4964 439.773ZM44.6388 439.535C44.5022 440.06 44.289 440.488 43.9993 440.822C43.7103 441.152 43.3675 441.399 42.9708 441.562C42.5748 441.722 42.1359 441.803 41.6541 441.804C41.1723 441.806 40.6706 441.739 40.149 441.603C39.6245 441.466 39.151 441.279 38.7284 441.042C38.3058 440.805 37.9594 440.519 37.6892 440.185C37.4197 439.849 37.2395 439.466 37.1485 439.036C37.0583 438.604 37.0816 438.126 37.2183 437.601C37.3092 437.252 37.4355 436.948 37.5972 436.687C37.7598 436.424 37.9496 436.201 38.1667 436.018C38.3846 435.833 38.6269 435.687 38.8937 435.581C39.1634 435.476 39.4498 435.405 39.7528 435.369C40.0595 435.331 40.3782 435.327 40.709 435.359C41.0406 435.388 41.3807 435.448 41.7294 435.539C42.251 435.675 42.7217 435.861 43.1415 436.098C43.5612 436.334 43.9044 436.62 44.1711 436.956C44.4385 437.289 44.6173 437.672 44.7075 438.104C44.7984 438.534 44.7755 439.011 44.6388 439.535ZM44.0903 439.392C44.1981 438.978 44.2254 438.595 44.1721 438.242C44.1216 437.89 43.9926 437.571 43.7851 437.287C43.5784 437 43.2923 436.75 42.9271 436.537C42.5654 436.321 42.1252 436.146 41.6064 436.011C41.0876 435.876 40.615 435.813 40.1885 435.823C39.7649 435.834 39.3914 435.913 39.068 436.062C38.7454 436.208 38.4743 436.424 38.2547 436.709C38.0359 436.991 37.8732 437.336 37.7668 437.744C37.659 438.158 37.6317 438.541 37.685 438.894C37.7383 439.247 37.8698 439.568 38.0794 439.855C38.2897 440.14 38.5772 440.391 38.9417 440.607C39.3097 440.821 39.7532 440.996 40.272 441.131C40.7908 441.266 41.2602 441.329 41.6803 441.321C42.1039 441.31 42.4756 441.231 42.7954 441.085C43.1159 440.935 43.3842 440.719 43.6002 440.436C43.819 440.154 43.9824 439.806 44.0903 439.392ZM47.4065 437.132L47.1726 438.029C47.3254 437.954 47.4943 437.875 47.6791 437.793C47.864 437.711 48.0619 437.643 48.2727 437.589C48.4836 437.535 48.7057 437.502 48.9388 437.49C49.172 437.479 49.412 437.505 49.6586 437.569C50.0527 437.672 50.3781 437.852 50.6349 438.11C50.8924 438.364 51.0663 438.702 51.1567 439.122C51.3817 439.002 51.608 438.901 51.8355 438.818C52.0637 438.732 52.2907 438.668 52.5163 438.627C52.7448 438.587 52.9735 438.569 53.2022 438.574C53.431 438.579 53.6602 438.612 53.8898 438.672C54.1818 438.748 54.434 438.867 54.6462 439.028C54.8614 439.19 55.03 439.379 55.1522 439.596C55.2744 439.812 55.3502 440.05 55.3796 440.309C55.4125 440.566 55.3943 440.827 55.3248 441.094L54.2653 445.159L53.7337 445.021L54.7578 441.092C54.8214 440.848 54.8481 440.623 54.8381 440.418C54.8316 440.21 54.7834 440.023 54.6934 439.858C54.6062 439.693 54.4751 439.551 54.3001 439.433C54.1286 439.312 53.9096 439.217 53.6431 439.148C53.4305 439.093 53.2112 439.069 52.9851 439.076C52.7626 439.082 52.5431 439.111 52.3266 439.164C52.1108 439.213 51.904 439.281 51.7064 439.365C51.5087 439.45 51.3297 439.544 51.1695 439.648C51.163 439.731 51.1524 439.801 51.1376 439.857C51.1257 439.915 51.1093 439.983 51.0887 440.063L50.0468 444.06L49.5153 443.921L50.5394 439.992C50.6147 439.703 50.6396 439.451 50.6141 439.235C50.5892 439.017 50.5247 438.829 50.4204 438.671C50.3161 438.514 50.177 438.385 50.0032 438.286C49.833 438.184 49.6387 438.104 49.4204 438.047C49.2134 437.993 48.9987 437.975 48.7761 437.993C48.5563 438.011 48.3395 438.053 48.1257 438.119C47.9119 438.184 47.7085 438.267 47.5157 438.368C47.3235 438.467 47.1527 438.571 47.0031 438.68L45.8837 442.975L45.3521 442.836L46.8749 436.993L47.4065 437.132ZM56.1173 445.642L57.6402 439.799L58.1717 439.938L56.6489 445.781L56.1173 445.642ZM64.6433 447.369C64.417 447.401 64.194 447.426 63.9742 447.444C63.7573 447.464 63.5344 447.471 63.3057 447.466C63.0769 447.46 62.8398 447.441 62.5942 447.407C62.3487 447.374 62.0856 447.32 61.805 447.247C61.4591 447.157 61.1334 447.042 60.8278 446.901C60.5251 446.762 60.251 446.6 60.0055 446.415C59.7601 446.23 59.5472 446.024 59.3668 445.799C59.1872 445.57 59.0458 445.323 58.9425 445.057C58.8421 444.791 58.7846 444.507 58.7698 444.203C58.7579 443.901 58.7956 443.582 58.8828 443.247C58.97 442.913 59.0927 442.616 59.2508 442.358C59.4119 442.1 59.601 441.88 59.8181 441.697C60.0381 441.516 60.2818 441.37 60.5494 441.261C60.8177 441.15 61.1041 441.073 61.4086 441.031C61.7132 440.989 62.0316 440.981 62.3639 441.008C62.6962 441.034 63.0367 441.092 63.3854 441.183C63.6661 441.256 63.9218 441.338 64.1525 441.428C64.3833 441.519 64.5997 441.618 64.8019 441.725C65.0041 441.832 65.1951 441.947 65.3751 442.069C65.5586 442.19 65.7414 442.319 65.9234 442.457L65.7571 443.095C65.6221 442.951 65.4743 442.81 65.3137 442.671C65.153 442.532 64.9739 442.401 64.7761 442.277C64.5812 442.153 64.3671 442.04 64.1336 441.937C63.9001 441.833 63.6445 441.745 63.3667 441.673C62.8053 441.527 62.3032 441.461 61.8604 441.476C61.4176 441.491 61.0323 441.575 60.7046 441.729C60.3805 441.88 60.1118 442.098 59.8987 442.381C59.6891 442.663 59.5333 442.999 59.4313 443.39C59.3294 443.782 59.3012 444.151 59.3467 444.499C59.3951 444.848 59.5234 445.169 59.7315 445.462C59.9432 445.754 60.2387 446.014 60.618 446.243C60.998 446.469 61.4687 446.655 62.03 446.802C62.3079 446.874 62.5753 446.922 62.8323 446.947C63.0921 446.972 63.3386 446.979 63.5718 446.967C63.8078 446.956 64.028 446.93 64.2323 446.89C64.4403 446.847 64.6323 446.796 64.8084 446.735L64.6433 447.369ZM32.8435 451.977L33.012 451.331C32.7791 451.388 32.52 451.43 32.2348 451.455C31.9524 451.481 31.6578 451.491 31.3509 451.484C31.0468 451.477 30.7383 451.453 30.4254 451.41C30.1124 451.368 29.8099 451.309 29.5179 451.233C29.138 451.134 28.8053 451.011 28.5197 450.864C28.2369 450.717 28.008 450.55 27.8329 450.362C27.6586 450.172 27.5406 449.962 27.4789 449.734C27.418 449.503 27.4219 449.256 27.4906 448.993C27.5586 448.732 27.6836 448.519 27.8657 448.355C28.0515 448.188 28.2854 448.063 28.5676 447.979C28.8506 447.892 29.1769 447.843 29.5466 447.83C29.9198 447.815 30.3282 447.828 30.7719 447.868C31.2164 447.905 31.6912 447.965 32.1963 448.048C32.705 448.129 33.237 448.226 33.7922 448.337L33.9086 447.89C33.9559 447.709 33.9636 447.54 33.9318 447.383C33.9 447.227 33.8364 447.081 33.7411 446.948C33.6465 446.811 33.5259 446.687 33.3792 446.576C33.2332 446.463 33.0694 446.359 32.8877 446.267C32.7088 446.175 32.5153 446.092 32.3071 446.02C32.1025 445.945 31.8939 445.88 31.6813 445.825C31.3949 445.75 31.1304 445.697 30.8877 445.664C30.645 445.631 30.415 445.613 30.1976 445.611C29.9809 445.606 29.7705 445.612 29.5664 445.628C29.3623 445.644 29.1557 445.665 28.9465 445.689L29.1083 445.068C29.5297 445.066 29.9729 445.085 30.438 445.124C30.9066 445.161 31.3918 445.245 31.8936 445.376C32.3188 445.487 32.7061 445.627 33.0555 445.797C33.4055 445.964 33.696 446.162 33.9268 446.392C34.1575 446.622 34.318 446.883 34.4082 447.176C34.4991 447.466 34.4976 447.791 34.4038 448.151L33.3708 452.115L32.8435 451.977ZM33.6692 448.809C32.7289 448.618 31.9177 448.484 31.2356 448.406C30.5563 448.329 29.9906 448.304 29.5383 448.332C29.0861 448.359 28.7386 448.438 28.4957 448.569C28.2556 448.7 28.1057 448.88 28.0458 449.11C27.997 449.297 28.0006 449.475 28.0565 449.644C28.1152 449.814 28.2209 449.972 28.3736 450.117C28.5271 450.26 28.7248 450.391 28.9666 450.508C29.2092 450.623 29.4893 450.721 29.8068 450.804C29.9939 450.853 30.1893 450.893 30.3929 450.925C30.6001 450.955 30.8077 450.977 31.0158 450.992C31.2246 451.004 31.432 451.01 31.6381 451.009C31.8449 451.005 32.0415 450.995 32.2278 450.977C32.4142 450.958 32.5861 450.932 32.7434 450.897C32.9037 450.864 33.0416 450.822 33.1572 450.774L33.6692 448.809ZM40.9402 448.329C40.8647 448.282 40.7569 448.225 40.6168 448.158C40.4804 448.089 40.2973 448.025 40.0677 447.965C39.7502 447.883 39.4407 447.844 39.1394 447.85C38.8416 447.855 38.5549 447.892 38.2792 447.962C38.0063 448.034 37.7445 448.132 37.4939 448.257C37.2439 448.38 37.0109 448.519 36.7947 448.674L35.7374 452.731L35.2059 452.593L36.7287 446.75L37.2602 446.888L36.9499 448.079C37.1908 447.933 37.4433 447.807 37.7073 447.7C37.9741 447.594 38.246 447.515 38.5229 447.463C38.8006 447.408 39.0826 447.383 39.3689 447.388C39.6588 447.391 39.9483 447.43 40.2375 447.505C40.3367 447.531 40.4253 447.557 40.5032 447.584C40.5818 447.607 40.6526 447.632 40.7156 447.657C40.7822 447.681 40.8441 447.704 40.9014 447.728C40.9588 447.752 41.0171 447.778 41.0765 447.806L40.9402 448.329ZM44.1995 449.215L42.803 454.573L42.2757 454.435L43.6722 449.077L41.0144 448.385L41.1407 447.9L46.9836 449.423L46.8573 449.907L44.1995 449.215ZM46.5219 455.542L48.0447 449.699L48.5762 449.838L47.0534 455.681L46.5219 455.542ZM54.9533 452.422C54.8568 452.339 54.744 452.249 54.6149 452.152C54.4866 452.052 54.3352 451.953 54.1606 451.856C53.9889 451.76 53.7909 451.666 53.5665 451.574C53.3429 451.48 53.0894 451.395 52.8059 451.322C52.4628 451.232 52.1515 451.172 51.8718 451.142C51.595 451.112 51.3519 451.115 51.1427 451.151C50.937 451.186 50.7679 451.254 50.6354 451.355C50.5058 451.458 50.418 451.597 50.3722 451.773C50.3338 451.92 50.3455 452.061 50.4075 452.195C50.4722 452.33 50.5714 452.46 50.7052 452.586C50.8418 452.712 51.0057 452.838 51.1971 452.964C51.392 453.087 51.5989 453.211 51.818 453.335C52.0406 453.456 52.2685 453.581 52.5017 453.708C52.7378 453.836 52.9639 453.968 53.18 454.103C53.3996 454.236 53.6025 454.375 53.7887 454.52C53.9784 454.664 54.1357 454.815 54.2606 454.975C54.3883 455.135 54.4776 455.304 54.5284 455.481C54.5821 455.658 54.5827 455.848 54.5302 456.049C54.4733 456.267 54.3823 456.448 54.2573 456.591C54.1329 456.731 53.9844 456.842 53.8116 456.924C53.6424 457.004 53.4525 457.059 53.2418 457.089C53.0348 457.117 52.8176 457.125 52.5903 457.115C52.3659 457.105 52.1366 457.078 51.9026 457.035C51.6706 456.996 51.444 456.948 51.2229 456.89C50.7155 456.758 50.2644 456.601 49.8697 456.419C49.4778 456.238 49.1114 456.035 48.7704 455.81L48.94 455.16C49.2657 455.49 49.6315 455.753 50.0374 455.95C50.4462 456.147 50.8873 456.307 51.3607 456.431C51.6953 456.518 52.0094 456.579 52.3033 456.613C52.5971 456.647 52.8586 456.649 53.0877 456.618C53.3176 456.584 53.5073 456.512 53.6569 456.403C53.8094 456.294 53.9118 456.139 53.9643 455.938C54.0064 455.776 53.9966 455.622 53.9348 455.476C53.8758 455.33 53.7788 455.191 53.6437 455.059C53.5121 454.925 53.3493 454.795 53.1551 454.669C52.9638 454.543 52.7583 454.42 52.5385 454.299C52.3194 454.175 52.0911 454.052 51.8536 453.93C51.6196 453.805 51.3939 453.678 51.1763 453.549C50.9587 453.42 50.7547 453.285 50.5643 453.144C50.3766 453.004 50.2182 452.857 50.089 452.702C49.9634 452.546 49.8734 452.38 49.819 452.205C49.7674 452.031 49.7675 451.845 49.8192 451.647C49.8702 451.451 49.9521 451.288 50.065 451.157C50.1786 451.023 50.3136 450.917 50.47 450.84C50.6292 450.763 50.8049 450.711 50.9971 450.682C51.1899 450.651 51.3897 450.639 51.5964 450.648C51.8067 450.654 52.0207 450.675 52.2385 450.71C52.4563 450.746 52.6687 450.791 52.8757 450.845C53.1025 450.904 53.3139 450.97 53.51 451.042C53.709 451.115 53.8976 451.193 54.0758 451.276C54.2576 451.356 54.4323 451.441 54.5998 451.53C54.7702 451.62 54.9412 451.713 55.1129 451.809L54.9533 452.422ZM59.4682 453.194L58.0718 458.552L57.5445 458.415L58.9409 453.057L56.2831 452.364L56.4095 451.879L62.2524 453.402L62.126 453.887L59.4682 453.194Z" fill="black"/>
<rect x="164.578" y="110.922" width="383" height="61.4215" rx="5.5" transform="rotate(104.437 164.578 110.922)" stroke="black"/>
<path d="M121.012 118.024C121.149 118.059 121.262 118.136 121.352 118.256C121.442 118.376 121.542 118.503 121.653 118.636C121.764 118.77 121.877 118.912 121.991 119.062C122.106 119.213 122.216 119.35 122.321 119.474C122.577 119.766 122.761 119.926 122.875 119.955C124.355 120.223 126.247 120.598 128.552 121.078C132.686 121.941 135.647 122.533 137.435 122.857C137.621 122.888 137.837 122.831 138.085 122.685L139.187 121.977C139.415 121.842 139.612 121.796 139.779 121.839C140.013 121.899 140.093 122.077 140.017 122.372L139.611 123.429C139.51 123.822 139.451 124.211 139.433 124.593C139.408 125.127 139.368 125.504 139.311 125.724C139.253 125.95 139.118 126.037 138.906 125.982C138.739 125.939 138.568 125.726 138.393 125.342C138.027 124.538 137.644 124.084 137.243 123.981L136.831 123.887L136.84 126.249C136.792 129.318 135.95 131.711 134.315 133.428C133.421 134.36 132.283 134.91 130.901 135.078C130.176 135.166 129.296 135.077 128.259 134.81C127.223 134.543 126.307 134.105 125.512 133.497C124.716 132.889 124.066 132.185 123.562 131.386C123.064 130.596 122.692 129.738 122.446 128.812C122.199 127.893 122.041 126.969 121.974 126.04C121.855 124.372 121.957 122.676 122.279 120.952C122.132 120.962 121.856 121.06 121.453 121.247C121.056 121.443 120.768 121.575 120.589 121.642C120.409 121.716 120.262 121.739 120.148 121.71C119.891 121.644 119.821 121.383 119.938 120.93L120.252 119.801C120.311 119.574 120.348 119.321 120.363 119.042C120.402 118.262 120.619 117.922 121.012 118.024ZM135.804 123.695L123.478 121.139L123.416 121.377C122.803 123.761 122.907 126.191 123.729 128.67C124.286 130.362 125.164 131.682 126.365 132.628C126.99 133.112 127.761 133.471 128.676 133.707C129.599 133.945 130.447 133.989 131.219 133.841C131.997 133.703 132.663 133.418 133.218 132.988C134.248 132.181 134.981 130.933 135.415 129.246C135.85 127.559 135.979 125.709 135.804 123.695ZM115.576 135.804C115.58 134.877 115.783 134.466 116.184 134.569C116.358 134.614 116.532 134.784 116.706 135.079C116.879 135.381 117.024 135.616 117.142 135.784C117.26 135.951 117.379 136.087 117.497 136.19C117.753 136.417 118.134 136.6 118.639 136.738C119.15 136.885 119.627 137.02 120.071 137.143C120.514 137.273 121.018 137.415 121.583 137.568C122.147 137.73 122.742 137.895 123.368 138.064C123.992 138.241 124.628 138.417 125.277 138.592C125.933 138.769 126.571 138.941 127.189 139.108C130.032 139.88 131.604 140.289 131.907 140.335C132.218 140.383 132.459 140.384 132.632 140.34C132.81 140.305 132.978 140.248 133.136 140.167C133.292 140.095 133.445 140.001 133.596 139.886C133.744 139.779 133.872 139.691 133.979 139.622C134.144 139.511 134.284 139.471 134.397 139.5C134.511 139.529 134.545 139.631 134.5 139.805L134.363 140.29C134.116 141.251 133.96 142.013 133.895 142.577C133.838 143.144 133.794 143.487 133.763 143.608C133.73 143.737 133.668 143.789 133.577 143.766C133.486 143.743 133.382 143.631 133.264 143.431C132.815 142.67 132.471 142.154 132.235 141.884C131.998 141.613 131.855 141.463 131.806 141.434C131.762 141.415 131.678 141.381 131.553 141.333C131.434 141.294 131.289 141.249 131.117 141.196C130.945 141.144 130.757 141.088 130.555 141.028C130.358 140.977 130.166 140.924 129.979 140.867C129.414 140.714 129.082 140.624 128.983 140.599C129.726 141.129 130.438 141.986 131.117 143.169C131.594 144.01 131.873 144.888 131.951 145.804C132.027 146.67 131.815 147.588 131.315 148.557C130.835 149.482 130.07 150.039 129.021 150.229C128.464 150.327 127.821 150.283 127.095 150.096C126.376 149.911 125.798 149.649 125.361 149.311C124.931 148.974 124.58 148.585 124.306 148.144C124.031 147.71 123.822 147.236 123.68 146.724C123.535 146.219 123.424 145.71 123.346 145.198L123.056 142.376C117.937 145.31 115.32 146.871 115.207 147.06C115.052 147.286 114.934 147.586 114.854 147.961C114.779 148.345 114.713 148.619 114.655 148.781C114.525 149.191 114.389 149.378 114.245 149.341C114.101 149.304 113.909 149.077 113.67 148.661C113.178 147.784 112.703 147.153 112.245 146.769C112.015 146.565 111.877 146.396 111.83 146.263C111.776 146.128 111.757 146.03 111.773 145.97C111.862 145.622 112.603 145.627 113.995 145.985C114.29 146.061 114.465 146.074 114.518 146.023C114.577 145.982 114.727 145.887 114.966 145.739C115.212 145.601 115.524 145.423 115.902 145.206C116.288 144.99 116.718 144.746 117.192 144.473C117.673 144.201 118.165 143.921 118.668 143.631C119.175 143.35 119.671 143.07 120.154 142.791C120.643 142.522 121.083 142.272 121.473 142.041C122.38 141.525 122.889 141.224 123 141.14C123.108 141.063 123.263 140.994 123.464 140.933C123.666 140.871 123.819 140.855 123.925 140.882C124.152 140.94 124.245 141.129 124.202 141.449C124.168 141.771 124.143 142.164 124.129 142.628C124.112 143.1 124.127 143.592 124.173 144.104C124.218 144.616 124.304 145.13 124.429 145.646C124.562 146.164 124.749 146.644 124.99 147.085C125.542 148.075 126.321 148.699 127.328 148.958C128.341 149.219 129.126 149.179 129.682 148.838C130.245 148.499 130.648 147.86 130.889 146.922C131.129 145.991 130.967 144.99 130.404 143.917C129.744 142.658 128.751 141.531 127.426 140.537C127.095 140.29 126.827 140.108 126.623 139.991L117.692 137.692C117.517 137.647 117.323 137.698 117.108 137.844C116.516 138.232 116.148 138.456 116.003 138.516C115.866 138.577 115.749 138.624 115.653 138.655C115.083 138.864 114.86 138.726 114.985 138.241L115.397 137.016C115.52 136.54 115.579 136.136 115.576 135.804ZM110.741 154.114C110.461 154.042 110.36 153.855 110.438 153.552C110.494 153.333 110.621 153.156 110.817 153.021C111.011 152.893 111.206 152.701 111.401 152.445C111.594 152.196 111.783 151.946 111.969 151.696C112.428 151.072 112.733 150.779 112.884 150.818C113.043 150.859 113.171 151.021 113.268 151.304C113.37 151.596 113.42 151.839 113.419 152.033C113.425 152.228 113.441 152.417 113.466 152.601C113.524 153.003 113.789 153.431 114.261 153.883C115.158 154.695 116.903 156.156 119.497 158.268L120.058 156.089C120.127 155.825 120.165 155.613 120.174 155.454C120.188 155.304 120.145 155.111 120.044 154.876C119.942 154.648 119.828 154.429 119.705 154.22C119.581 154.01 119.471 153.812 119.374 153.626C119.282 153.449 119.254 153.293 119.289 153.157C119.374 152.824 119.669 152.791 120.173 153.058C120.557 153.261 121.017 153.432 121.554 153.57L122.499 153.753C123.067 153.899 123.313 154.116 123.239 154.403C123.2 154.555 123.044 154.692 122.77 154.815C121.773 155.244 121.23 155.629 121.142 155.969L120.317 158.939C124.636 162.439 127.096 164.367 127.698 164.724C128.298 165.088 128.787 165.319 129.165 165.416C129.271 165.443 129.336 165.521 129.36 165.648C129.382 165.782 129.378 165.906 129.349 166.02C129.278 166.292 129.08 166.435 128.754 166.448C128.434 166.47 127.9 166.506 127.153 166.556C126.405 166.613 125.545 166.678 124.574 166.751C121.793 166.963 119.643 167.135 118.124 167.269C117.722 168.706 117.549 169.549 117.606 169.798C117.663 170.046 117.736 170.267 117.823 170.459C117.98 170.822 118.146 171.102 118.321 171.301C118.501 171.508 118.595 171.662 118.602 171.76C118.608 171.859 118.601 171.95 118.58 172.033C118.48 172.419 118.196 172.475 117.726 172.2C117.266 171.92 116.817 171.72 116.38 171.6C115.951 171.481 115.59 171.38 115.296 171.296C115.011 171.215 114.788 171.125 114.628 171.027C114.465 170.937 114.407 170.801 114.454 170.62C114.47 170.559 114.517 170.487 114.595 170.402C114.679 170.327 114.771 170.282 114.872 170.267L115.62 170.133C116.113 170.035 116.456 169.768 116.649 169.333L117.157 167.359C112.518 167.77 109.936 168.146 109.413 168.487C109.247 168.598 109.112 168.728 109.009 168.879C108.906 169.03 108.813 169.155 108.731 169.255C108.654 169.365 108.581 169.475 108.512 169.586C108.443 169.698 108.378 169.794 108.317 169.875C108.088 170.171 107.884 170.163 107.706 169.851C107.639 169.737 107.58 169.403 107.528 168.849C107.475 168.303 107.435 167.929 107.406 167.728L107.126 166.277C107.073 165.763 107.209 165.548 107.534 165.632C107.768 165.692 107.935 165.767 108.033 165.857C108.131 165.946 108.255 166.043 108.406 166.146C108.555 166.257 108.719 166.372 108.898 166.491C109.453 166.843 109.851 167.019 110.094 167.017C110.847 166.912 113.293 166.67 117.432 166.292L119.202 159.415C116.859 157.488 114.711 155.693 112.76 154.029C112.616 153.927 112.421 153.901 112.175 153.951C111.453 154.12 110.976 154.175 110.741 154.114ZM120.013 160.071C119.461 162.091 118.918 164.137 118.385 166.21L123.202 165.781C125.432 165.58 126.659 165.469 126.883 165.446C125.403 164.395 123.113 162.604 120.013 160.071ZM118.685 195.124C119.326 195.08 119.592 195.269 119.483 195.693C119.425 195.92 119.281 196.101 119.053 196.235L119.07 196.216C118.64 196.54 118.303 196.893 118.059 197.274C117.552 198.088 117.187 198.296 116.966 197.901C116.884 197.75 116.835 197.548 116.82 197.294C116.805 197.04 116.787 196.842 116.767 196.7C116.703 196.353 116.57 196.12 116.366 196.003C111.112 192.941 107.374 190.506 105.153 188.7L103.813 187.701C102.942 187.042 103.046 186.605 104.126 186.39C105.198 186.174 107.641 185.976 111.455 185.797C113.17 185.714 114.605 185.688 115.758 185.719C112.341 183.701 109.636 181.831 107.643 180.108L106.139 178.946C105.668 178.583 105.458 178.303 105.508 178.106C105.565 177.887 105.76 177.723 106.094 177.616C106.368 177.525 107.911 177.406 110.724 177.259C113.535 177.119 115.411 177.025 116.351 176.977C118.214 176.884 119.52 176.825 120.269 176.8C121.025 176.777 121.461 176.744 121.577 176.701C121.693 176.658 121.803 176.606 121.908 176.544C121.965 176.51 122.109 176.39 122.34 176.183C122.81 175.764 123.167 175.586 123.409 175.648C123.659 175.712 123.732 175.945 123.629 176.346L123.314 177.426C123.188 177.918 123.123 178.281 123.119 178.514C123.104 179.26 122.927 179.59 122.586 179.502C122.427 179.461 122.263 179.269 122.093 178.927C121.921 178.593 121.787 178.344 121.692 178.183C121.561 177.971 121.439 177.88 121.327 177.907C118.936 177.824 114.855 177.979 109.082 178.373C108.35 178.427 107.777 178.477 107.361 178.523C110.627 181.163 114.017 183.536 117.532 185.643C117.721 185.57 117.932 185.423 118.167 185.201C118.624 184.77 118.978 184.587 119.228 184.651C119.477 184.716 119.549 184.956 119.442 185.372L119.202 186.254L118.897 188.003C118.796 188.396 118.632 188.564 118.405 188.505C118.261 188.468 118.136 188.344 118.03 188.131L117.836 187.754C117.728 187.549 117.622 187.364 117.519 187.2C117.429 187.048 117.304 186.952 117.146 186.911C115.521 186.67 112.568 186.72 108.285 187.062C106.482 187.203 105.427 187.274 105.12 187.276C106.998 188.848 109.759 190.737 113.403 192.941C115.567 194.249 116.872 194.96 117.319 195.075C117.508 195.124 117.963 195.14 118.685 195.124ZM100.612 197.078L100.712 196.221C100.819 195.805 101.031 195.638 101.349 195.719C101.474 195.768 101.581 195.852 101.671 195.972C101.76 196.099 101.851 196.228 101.947 196.357C102.05 196.489 102.155 196.633 102.26 196.789C102.37 196.954 102.473 197.102 102.569 197.231C102.806 197.534 102.988 197.702 103.117 197.736L111.004 199.814C112.812 200.28 114.433 200.677 115.865 201.005C116.099 201.066 116.525 200.901 117.141 200.511C117.67 200.179 118.045 200.042 118.264 200.098C118.589 200.182 118.585 200.528 118.251 201.136C117.975 201.645 117.816 202.169 117.774 202.707C117.738 203.254 117.688 203.653 117.624 203.902C117.557 204.16 117.418 204.261 117.207 204.206C117.048 204.166 116.9 203.986 116.764 203.669C116.634 203.361 116.507 203.103 116.383 202.893C116.257 202.691 116.137 202.531 116.022 202.413C115.857 202.241 115.634 202.12 115.354 202.048L109.793 200.664L103.353 198.885L103.013 198.798C102.907 198.771 102.762 198.737 102.579 198.698C102.393 198.667 102.155 198.714 101.864 198.841C101.572 198.975 101.308 199.089 101.075 199.182C100.697 199.335 100.439 199.394 100.303 199.359C100.061 199.296 99.9927 199.061 100.098 198.652L100.612 197.078ZM98.5247 206.173C98.222 206.095 98.2331 205.723 98.558 205.057C98.8059 204.564 99.0506 203.848 99.2921 202.91C99.3486 202.691 99.4677 202.604 99.6492 202.651C99.8762 202.71 100.017 202.867 100.072 203.123C100.127 203.379 100.187 203.584 100.253 203.738C100.326 203.894 100.417 204.023 100.529 204.124C100.736 204.322 101.169 204.551 101.828 204.809C102.495 205.07 103.101 205.303 103.645 205.507C104.195 205.721 104.802 205.95 105.465 206.194C106.127 206.444 106.788 206.695 107.45 206.946C108.119 207.199 108.766 207.443 109.392 207.676C109.392 207.676 110.47 208.079 112.626 208.884C112.951 208.968 113.39 208.815 113.943 208.424C114.101 208.312 114.238 208.186 114.354 208.046C114.557 207.792 114.742 207.686 114.908 207.729C115.233 207.813 115.351 208.029 115.262 208.377L114.742 209.973C114.656 210.306 114.599 210.606 114.571 210.873C114.548 211.15 114.507 211.401 114.449 211.628C114.388 211.863 114.256 211.954 114.052 211.901C113.817 211.841 113.673 211.666 113.618 211.378C113.484 210.674 113.184 210.181 112.716 209.899C111.91 210.023 109.075 211.209 104.212 213.458C99.4237 215.67 97.0031 216.878 96.9505 217.082C96.9446 217.105 96.9673 217.111 97.0186 217.1L110.012 221.437C110.223 221.492 110.495 221.457 110.825 221.332C111.156 221.207 111.47 221.083 111.769 220.958C112.067 220.833 112.284 220.788 112.42 220.823C112.61 220.872 112.675 221.01 112.617 221.237C112.556 221.471 112.469 221.715 112.356 221.968C112.242 222.221 112.139 222.529 112.045 222.892L111.795 224.099C111.641 224.696 111.368 224.662 110.974 223.996L110.654 223.454C110.401 223.058 110.2 222.805 110.051 222.694C109.908 222.592 109.656 222.475 109.295 222.342C108.941 222.21 108.476 222.042 107.9 221.837C107.321 221.64 106.664 221.419 105.929 221.173C105.194 220.927 104.429 220.67 103.635 220.401C102.847 220.141 102.058 219.882 101.27 219.622C100.48 219.371 99.7452 219.137 99.0665 218.922C97.5596 218.445 96.5717 218.147 96.1026 218.026L95.7251 217.941C95.3998 217.857 95.1856 217.733 95.0825 217.57C94.9795 217.406 94.9435 217.264 94.9747 217.143C95.0253 216.946 95.103 216.817 95.2076 216.755C95.3028 216.699 95.4986 216.596 95.7953 216.446C96.0995 216.299 96.4959 216.106 96.9846 215.869C97.4808 215.634 98.0521 215.357 98.6986 215.04C99.3431 214.73 100.025 214.401 100.743 214.054C101.47 213.708 102.215 213.351 102.979 212.983C103.749 212.625 104.501 212.274 105.235 211.93C105.976 211.589 106.681 211.262 107.351 210.95C108.018 210.646 108.616 210.377 109.144 210.142C110.271 209.649 110.933 209.396 111.13 209.382C104.62 206.94 101.285 205.698 101.126 205.657L100.831 205.581C100.513 205.499 100.242 205.502 100.018 205.59C100.018 205.59 99.7938 205.693 99.3451 205.901C98.8965 206.108 98.623 206.199 98.5247 206.173ZM100.541 237.683C100.374 238.334 99.8254 238.426 98.8964 237.961L93.6195 235.756C92.4067 235.234 91.6568 234.887 91.37 234.717C91.0907 234.548 90.9357 234.367 90.9048 234.173C90.8664 233.978 90.9231 233.585 91.0751 232.995C91.227 232.405 91.5012 231.669 91.8977 230.787C92.2847 229.91 92.7528 229.095 93.3019 228.341C93.851 227.587 94.4762 226.913 95.1777 226.319C95.8792 225.725 96.6612 225.257 97.5239 224.914C99.369 224.171 101.407 224.087 103.639 224.661C105.637 225.175 107.176 226.185 108.257 227.689C109.159 228.946 109.703 230.47 109.888 232.26C110.053 233.746 109.963 235.163 109.616 236.51L109.178 237.789C109.12 238.016 109.139 238.238 109.236 238.457C109.355 238.746 109.508 239.06 109.696 239.398C109.881 239.744 109.952 240.001 109.909 240.167C109.847 240.409 109.616 240.427 109.218 240.219C108.844 240.042 108.415 239.891 107.931 239.767L106.688 239.519C106.264 239.41 106.076 239.261 106.125 239.072C106.162 238.928 106.355 238.776 106.702 238.616C107.05 238.455 107.34 238.271 107.57 238.065C107.809 237.86 107.992 237.649 108.12 237.432C108.492 236.834 108.745 235.85 108.88 234.481C109.009 233.103 108.853 231.767 108.411 230.476C107.925 229.012 106.997 227.821 105.628 226.904C104.911 226.429 103.996 226.048 102.884 225.762C101.78 225.477 100.745 225.392 99.7793 225.507C98.8197 225.631 97.9586 225.889 97.196 226.282C96.4334 226.674 95.7668 227.164 95.1961 227.751C94.6235 228.346 94.1341 228.962 93.7279 229.6C92.8256 231.005 92.2811 232.321 92.0944 233.548C92.1746 233.738 92.8258 234.091 94.0482 234.608C95.2762 235.133 96.1452 235.502 96.6554 235.714L99.1662 236.772C99.1965 236.78 99.2268 236.788 99.257 236.796C99.5823 236.879 99.8015 236.702 99.9145 236.263L100.619 233.528C100.749 233.021 100.684 232.504 100.425 231.978L99.9668 231.218C99.9072 231.074 99.8929 230.941 99.9241 230.82C99.9553 230.699 100.035 230.655 100.164 230.688C100.338 230.733 100.554 230.817 100.813 230.94C101.434 231.253 102.021 231.481 102.573 231.623L103.314 231.753C103.745 231.864 103.935 232.022 103.882 232.226C103.845 232.37 103.67 232.519 103.356 232.672C103.042 232.825 102.787 232.953 102.592 233.056C102.394 233.166 102.229 233.273 102.098 233.376C101.863 233.566 101.71 233.753 101.639 233.936C101.568 234.119 101.504 234.304 101.447 234.492C101.389 234.686 101.326 234.9 101.258 235.133C101.188 235.373 101.117 235.621 101.043 235.876C100.967 236.139 100.895 236.386 100.827 236.619C100.638 237.321 100.543 237.675 100.541 237.683ZM86.9153 250.281L87.0151 249.424C87.1222 249.007 87.3347 248.84 87.6524 248.922C87.7772 248.97 87.8846 249.054 87.9747 249.174C88.0629 249.302 88.1548 249.431 88.2506 249.56C88.3538 249.692 88.458 249.835 88.563 249.991C88.6737 250.157 88.7769 250.305 88.8726 250.434C89.1092 250.737 89.2918 250.905 89.4205 250.938L97.3075 253.017C99.1157 253.483 100.736 253.88 102.168 254.208C102.403 254.268 102.828 254.104 103.445 253.714C103.974 253.382 104.348 253.244 104.568 253.301C104.893 253.385 104.889 253.73 104.555 254.338C104.278 254.848 104.119 255.372 104.077 255.91C104.041 256.457 103.991 256.855 103.927 257.105C103.861 257.362 103.722 257.464 103.51 257.409C103.351 257.368 103.204 257.189 103.067 256.872C102.937 256.564 102.81 256.305 102.686 256.096C102.561 255.894 102.441 255.734 102.326 255.616C102.16 255.444 101.938 255.322 101.658 255.25L96.0964 253.867L89.6569 252.088L89.3164 252.001C89.2105 251.973 89.0658 251.94 88.8822 251.901C88.6967 251.869 88.4586 251.917 88.1678 252.044C87.8751 252.178 87.6118 252.292 87.3781 252.385C87 252.538 86.7428 252.596 86.6066 252.561C86.3645 252.499 86.2961 252.264 86.4012 251.855L86.9153 250.281ZM98.2684 268.838C97.8447 268.729 97.762 268.502 98.0202 268.157C98.2057 267.907 98.442 267.725 98.7289 267.614C99.126 267.45 99.5738 267.23 100.072 266.955C100.557 265.7 100.63 264.614 100.294 263.697C99.9608 262.828 99.2722 262.26 98.2282 261.991C97.3808 261.773 96.3835 261.996 95.2362 262.661C94.5342 263.069 93.9688 263.448 93.54 263.797C93.1188 264.149 92.7424 264.451 92.4109 264.704C92.0851 264.967 91.7394 265.213 91.374 265.442C91.0067 265.678 90.6188 265.869 90.2104 266.014C89.3174 266.348 88.417 266.399 87.5091 266.165C85.7539 265.713 84.7426 264.408 84.4754 262.25C84.3304 261.027 84.4157 259.802 84.7313 258.577C84.8384 258.161 84.5778 257.497 83.9494 256.585C83.6624 256.164 83.769 255.953 84.2693 255.953L85.4239 256.262C86.2108 256.465 86.8154 256.576 87.2378 256.596C87.6678 256.618 87.9168 256.638 87.9849 256.655C88.2497 256.724 88.3558 256.86 88.3032 257.064C88.2682 257.2 88.1603 257.322 87.9795 257.428C87.7988 257.535 87.5876 257.65 87.3461 257.774C86.6672 258.123 86.1882 258.48 85.909 258.844C85.878 258.933 85.8518 259.019 85.8304 259.102L85.7632 259.363C85.3347 261.027 85.3727 262.368 85.8772 263.385C86.3201 264.266 87.0561 264.838 88.085 265.103C89.0232 265.345 90.1799 264.957 91.5551 263.94L93.8978 262.219C95.5435 260.997 97.0775 260.569 98.4999 260.936C99.8844 261.292 100.79 262.021 101.216 263.123C101.583 264.049 101.59 265.196 101.237 266.565L101.08 267.13C101.004 267.425 101.115 267.885 101.414 268.511C101.524 268.741 101.626 268.957 101.72 269.158C101.811 269.367 101.838 269.543 101.801 269.687C101.723 269.99 101.487 270.046 101.092 269.856C100.324 269.424 99.7319 269.155 99.3157 269.047L98.2684 268.838ZM78.1875 283.901L78.3921 282.683C78.4584 282.426 78.5974 282.325 78.8092 282.379C79.0286 282.436 79.2824 282.735 79.5704 283.277C79.9519 283.988 80.3015 284.401 80.619 284.515C83.277 285.409 86.0666 286.293 88.9881 287.166C91.9076 288.046 93.6585 288.578 94.2408 288.76C94.4882 287.799 94.7356 286.838 94.9829 285.878L95.2433 284.819C95.3002 284.535 95.2717 284.286 95.1576 284.071C95.0435 283.856 94.9217 283.655 94.7923 283.469C94.6704 283.284 94.5627 283.107 94.4691 282.938C94.3756 282.769 94.3483 282.608 94.3872 282.457C94.4729 282.124 94.7678 282.091 95.2719 282.358C95.6551 282.562 96.1305 282.736 96.6979 282.882L97.6204 283.059C98.1727 283.202 98.4118 283.416 98.3378 283.704C98.293 283.878 98.1329 284.014 97.8575 284.113C97.5876 284.221 97.3577 284.315 97.1677 284.395C96.9832 284.485 96.833 284.567 96.7168 284.642C96.5076 284.765 96.3863 284.892 96.3532 285.02L94.5751 291.363C94.3667 292.173 94.1527 293.098 93.9332 294.138C93.8825 294.617 94.0549 295.17 94.4503 295.796C94.559 295.969 94.6603 296.108 94.7543 296.213C94.9048 296.381 94.9508 296.579 94.8923 296.805C94.793 297.191 94.5122 297.248 94.0498 296.976C93.5819 296.694 93.1219 296.491 92.6699 296.366C92.2254 296.244 91.8529 296.14 91.5522 296.055C91.2591 295.971 91.0286 295.879 90.8606 295.78C90.6907 295.688 90.6291 295.551 90.6759 295.369C90.6915 295.309 90.7573 295.241 90.8734 295.166C90.9876 295.098 91.1595 295.042 91.3891 294.996C91.6167 294.958 91.8256 294.899 92.0156 294.819C92.2132 294.74 92.3711 294.66 92.4891 294.577C92.6396 294.463 92.7668 294.298 92.8706 294.083L93.9604 289.85C91.1702 288.905 88.2454 287.967 85.186 287.034C82.1247 286.109 80.5449 285.634 80.4465 285.608C80.3558 285.585 80.2213 285.574 80.0432 285.577C79.8631 285.587 79.6791 285.612 79.4912 285.653C79.0642 285.744 78.7727 285.843 78.6166 285.948C78.2909 286.179 78.0563 286.276 77.9125 286.239C77.7763 286.203 77.6992 286.127 77.681 286.01C77.6629 285.892 77.6948 285.674 77.7766 285.356L78.1875 283.901ZM76.0061 294.255C76.1423 294.29 76.2555 294.367 76.3456 294.487C76.4357 294.607 76.5672 294.77 76.7401 294.976C76.913 295.182 77.0915 295.397 77.2756 295.622C77.4653 295.857 77.6349 295.997 77.7843 296.044L88.9805 299.228C90.2342 299.592 91.4208 299.949 92.54 300.302C92.7141 300.347 92.9172 300.294 93.1494 300.144L94.2288 299.43C94.4571 299.295 94.6545 299.249 94.8209 299.292C95.0555 299.352 95.1348 299.53 95.0588 299.825L94.6535 300.882C94.5503 301.283 94.4907 301.672 94.4748 302.047C94.4502 302.581 94.4097 302.958 94.3532 303.177C94.2948 303.404 94.1596 303.49 93.9478 303.436C93.7814 303.393 93.6394 303.239 93.5218 302.975C93.4024 302.718 93.2713 302.491 93.1287 302.293C92.9936 302.097 92.8555 301.928 92.7144 301.787C92.4453 301.516 92.2087 301.354 92.0044 301.302C91.437 301.156 89.2925 300.539 85.571 299.452C84.5447 302.874 83.5719 306.779 82.6525 311.164C85.8302 311.982 88.2168 312.645 89.8125 313.153C89.9941 313.2 90.201 313.148 90.4332 312.998L91.5126 312.284C91.741 312.149 91.9383 312.103 92.1048 312.146C92.3393 312.206 92.4186 312.384 92.3427 312.679L91.9373 313.736C91.8341 314.137 91.7745 314.525 91.7587 314.9C91.7341 315.434 91.6936 315.811 91.6371 316.031C91.5786 316.258 91.4435 316.344 91.2317 316.289C91.0652 316.246 90.9232 316.093 90.8057 315.829C90.6862 315.572 90.5552 315.345 90.4125 315.147C90.2699 314.949 90.128 314.779 89.9869 314.638C89.7254 314.369 89.467 314.197 89.2117 314.124C88.9621 314.059 88.5356 313.945 87.9322 313.782C87.3365 313.621 86.6471 313.431 85.8642 313.213C85.0793 313.003 84.2386 312.775 83.3422 312.528C82.4438 312.288 81.553 312.051 80.6697 311.816C76.8853 310.785 74.8284 310.251 74.499 310.215C74.1751 310.188 73.9582 310.185 73.8482 310.205C73.7362 310.232 73.6288 310.273 73.5261 310.327L72.6161 310.807C72.3443 310.923 72.1479 310.965 72.0268 310.934C71.7696 310.868 71.6994 310.607 71.8163 310.154L72.1311 309.024C72.1896 308.798 72.2264 308.545 72.2416 308.266C72.2812 307.486 72.4977 307.146 72.8911 307.248C73.0273 307.283 73.1404 307.36 73.2305 307.48C73.3206 307.6 73.4522 307.763 73.625 307.969L74.1833 308.621C74.373 308.855 74.5425 308.996 74.6919 309.042C75.4048 309.25 77.7179 309.87 81.6311 310.901C82.9442 304.955 83.9086 301.037 84.5244 299.146C80.1373 297.855 77.796 297.204 77.5005 297.193C77.2031 297.189 76.9755 297.211 76.8179 297.259C76.6659 297.317 76.5091 297.393 76.3473 297.489C76.1932 297.586 76.0239 297.68 75.8394 297.769C75.0373 298.128 74.7346 297.925 74.9313 297.16L75.2462 296.031C75.3046 295.804 75.3414 295.552 75.3566 295.273C75.3962 294.493 75.6127 294.153 76.0061 294.255ZM70.0575 315.763L70.1573 314.906C70.2644 314.489 70.4768 314.322 70.7946 314.404C70.9193 314.452 71.0267 314.536 71.1169 314.656C71.205 314.784 71.297 314.913 71.3927 315.042C71.496 315.174 71.6002 315.317 71.7052 315.473C71.8158 315.639 71.919 315.787 72.0147 315.916C72.2514 316.219 72.434 316.387 72.5626 316.42L80.4496 318.499C82.2579 318.965 83.878 319.362 85.3101 319.69C85.5447 319.75 85.9703 319.586 86.5869 319.196C87.116 318.864 87.4903 318.726 87.7097 318.783C88.035 318.867 88.0307 319.212 87.6967 319.82C87.4203 320.33 87.2613 320.854 87.2196 321.392C87.1836 321.939 87.1334 322.337 87.0691 322.587C87.0029 322.844 86.8639 322.946 86.6521 322.891C86.4932 322.85 86.3457 322.671 86.2096 322.354C86.0791 322.046 85.952 321.787 85.8284 321.578C85.7029 321.376 85.5827 321.216 85.468 321.098C85.3024 320.926 85.0797 320.804 84.7998 320.732L79.2386 319.349L72.799 317.57L72.4586 317.483C72.3526 317.455 72.2079 317.422 72.0244 317.383C71.8389 317.351 71.6008 317.399 71.31 317.526C71.0172 317.66 70.754 317.774 70.5203 317.867C70.1421 318.02 69.885 318.079 69.7488 318.043C69.5067 317.981 69.4382 317.746 69.5434 317.337L70.0575 315.763ZM67.9702 324.858C67.6675 324.78 67.6787 324.408 68.0036 323.741C68.2514 323.249 68.4962 322.533 68.7377 321.595C68.7942 321.376 68.9132 321.289 69.0948 321.336C69.3217 321.394 69.4628 321.552 69.5178 321.808C69.5729 322.064 69.633 322.269 69.6983 322.423C69.7711 322.579 69.863 322.707 69.9741 322.809C70.1812 323.007 70.6144 323.236 71.2739 323.494C71.941 323.755 72.5467 323.987 73.0909 324.192C73.6409 324.406 74.2475 324.635 74.9109 324.878C75.5723 325.129 76.2338 325.38 76.8952 325.631C77.5642 325.884 78.2115 326.127 78.8371 326.361C78.8371 326.361 79.9153 326.764 82.0717 327.569C82.397 327.653 82.8358 327.499 83.388 327.109C83.5461 326.996 83.6834 326.87 83.8 326.731C84.0026 326.477 84.1871 326.371 84.3536 326.414C84.6789 326.498 84.7968 326.713 84.7072 327.061L84.1873 328.658C84.1016 328.991 84.0445 329.291 84.0161 329.558C83.9933 329.834 83.9527 330.086 83.8943 330.313C83.8339 330.548 83.7016 330.639 83.4973 330.586C83.2628 330.526 83.1181 330.351 83.0633 330.063C82.9299 329.359 82.6292 328.866 82.1612 328.584C81.3551 328.707 78.5206 329.894 73.6578 332.143C68.8692 334.355 66.4486 335.563 66.396 335.767C66.3902 335.79 66.4129 335.796 66.4641 335.785L79.4571 340.122C79.669 340.177 79.9402 340.141 80.2708 340.017C80.6013 339.892 80.9158 339.767 81.2142 339.643C81.5125 339.518 81.7298 339.473 81.866 339.508C82.0551 339.557 82.1205 339.694 82.0621 339.921C82.0017 340.156 81.9147 340.4 81.8011 340.653C81.6876 340.906 81.584 341.214 81.4906 341.577L81.2405 342.783C81.0866 343.381 80.8131 343.347 80.4198 342.681L80.0996 342.139C79.8466 341.743 79.6456 341.489 79.4967 341.379C79.3534 341.277 79.1012 341.16 78.7402 341.026C78.3868 340.895 77.9218 340.727 77.3454 340.522C76.7669 340.325 76.11 340.103 75.3746 339.858C74.6392 339.612 73.8746 339.354 73.0806 339.085C72.2923 338.826 71.5039 338.567 70.7156 338.307C69.9253 338.055 69.1908 337.822 68.512 337.607C67.0052 337.13 66.0172 336.831 65.5481 336.711L65.1707 336.626C64.8453 336.542 64.6311 336.418 64.5281 336.254C64.425 336.091 64.389 335.948 64.4202 335.827C64.4708 335.631 64.5485 335.501 64.6531 335.44C64.7483 335.383 64.9442 335.281 65.2408 335.131C65.545 334.983 65.9414 334.791 66.4301 334.554C66.9263 334.319 67.4976 334.042 68.1441 333.724C68.7886 333.414 69.4702 333.086 70.1889 332.738C70.9152 332.393 71.6604 332.036 72.4247 331.668C73.1947 331.31 73.9465 330.959 74.6803 330.615C75.4217 330.274 76.127 329.947 76.7962 329.635C77.4634 329.331 78.0612 329.061 78.5896 328.826C79.7167 328.334 80.3788 328.081 80.576 328.067C74.0653 325.625 70.7305 324.383 70.5716 324.342L70.2766 324.266C69.9588 324.184 69.6878 324.187 69.4636 324.275C69.4636 324.275 69.2393 324.378 68.7907 324.585C68.342 324.793 68.0685 324.883 67.9702 324.858ZM62.1717 341.553C62.2749 341.152 62.4741 340.989 62.7692 341.065C62.9886 341.122 63.2351 341.371 63.5086 341.812C63.7822 342.254 63.9931 342.579 64.1413 342.786C64.2896 342.994 64.4374 343.125 64.5848 343.179C70.9023 345.337 75.7713 346.809 79.1917 347.592C79.4414 347.657 79.8898 347.482 80.5369 347.068C80.7121 346.951 80.8995 346.834 81.0993 346.716C81.2991 346.598 81.4822 346.561 81.6487 346.603C81.8832 346.664 81.9625 346.842 81.8865 347.137L81.3936 348.534C81.2826 348.966 81.2099 349.326 81.1757 349.616C81.1415 349.906 81.1019 350.137 81.0571 350.311C80.9578 350.697 80.7795 350.857 80.5223 350.791C80.3558 350.748 80.1849 350.535 80.0095 350.151C79.6007 349.263 79.2639 348.785 78.9991 348.717L77.9521 348.459C75.9472 347.943 74.1213 347.421 72.4746 346.892L71.5586 346.595C72.2288 348.035 73.0626 349.653 74.06 351.451C75.3195 353.703 76.2012 355.245 76.7051 356.076C76.9366 356.305 77.4577 356.569 78.2685 356.866C78.6671 357.041 78.8333 357.258 78.7671 357.515C78.7262 357.674 78.6192 357.791 78.4462 357.868C78.2713 357.952 78.0614 358.031 77.8164 358.105C77.0721 358.333 76.5732 358.547 76.3197 358.748C75.7653 359.178 75.417 359.262 75.2749 359C75.2001 358.851 75.2075 358.603 75.2971 358.255C75.6071 357.552 75.6963 356.986 75.5648 356.557L75.5677 356.546C75.4567 356.162 74.6642 354.603 73.1902 351.868C71.7218 349.142 70.9006 347.616 70.7267 347.289C68.0116 349.155 65.2174 351.219 62.3441 353.48C62.1144 353.809 61.9337 354.181 61.802 354.599C61.6777 355.019 61.5673 355.37 61.4706 355.652C61.3719 355.941 61.2805 356.139 61.1964 356.246C61.1103 356.361 61.003 356.402 60.8744 356.369C60.7533 356.338 60.6608 356.29 60.5968 356.225C60.5329 356.16 60.4803 356.082 60.4393 355.991L60.216 355.401C60.016 355.019 59.7475 354.667 59.4105 354.347C59.0736 354.026 58.8572 353.801 58.7615 353.671C58.6638 353.549 58.6325 353.42 58.6676 353.284C58.7358 353.019 58.9612 352.896 59.3438 352.914C59.8306 352.934 60.3321 352.898 60.8481 352.805C61.3622 352.719 61.6564 352.658 61.7305 352.621L62.1048 352.342C66.0133 349.444 68.7339 347.478 70.2664 346.444L70.084 346.119C67.3145 345.188 65.7066 344.665 65.2602 344.55C64.8214 344.437 64.4997 344.371 64.2952 344.35C64.0983 344.332 63.8955 344.336 63.6869 344.363C63.2601 344.423 62.8966 344.519 62.5963 344.651C62.1572 344.853 61.8733 344.937 61.7447 344.904C61.4874 344.838 61.4173 344.578 61.5341 344.124L62.0804 342.425C62.131 342.228 62.1529 342.081 62.146 341.982C62.1339 341.809 62.1425 341.666 62.1717 341.553ZM58.6806 359.955L58.7804 359.097C58.8875 358.681 59.1 358.514 59.4178 358.596C59.5425 358.644 59.6499 358.728 59.74 358.848C59.8282 358.976 59.9201 359.104 60.0159 359.234C60.1192 359.365 60.2233 359.509 60.3283 359.665C60.439 359.831 60.5422 359.979 60.6379 360.108C60.8745 360.411 61.0571 360.579 61.1858 360.612L69.0728 362.691C70.881 363.157 72.5012 363.553 73.9333 363.882C74.1678 363.942 74.5934 363.777 75.2101 363.388C75.7392 363.056 76.1134 362.918 76.3328 362.975C76.6582 363.059 76.6538 363.404 76.3199 364.012C76.0435 364.522 75.8844 365.046 75.8428 365.583C75.8067 366.131 75.7566 366.529 75.6923 366.779C75.6261 367.036 75.487 367.138 75.2752 367.083C75.1163 367.042 74.9688 366.863 74.8327 366.546C74.7022 366.238 74.5752 365.979 74.4516 365.77C74.326 365.568 74.2059 365.408 74.0911 365.29C73.9256 365.118 73.7028 364.996 73.4229 364.924L67.8617 363.541L61.4222 361.762L61.0817 361.674C60.9758 361.647 60.8311 361.614 60.6475 361.575C60.4621 361.543 60.2239 361.591 59.9331 361.718C59.6404 361.852 59.3771 361.966 59.1434 362.059C58.7653 362.212 58.5081 362.27 58.3719 362.235C58.1298 362.173 58.0614 361.938 58.1665 361.529L58.6806 359.955ZM56.5933 369.05C56.2907 368.972 56.3018 368.6 56.6267 367.933C56.8746 367.44 57.1193 366.725 57.3608 365.787C57.4173 365.567 57.5363 365.481 57.7179 365.528C57.9449 365.586 58.0859 365.744 58.141 366C58.196 366.256 58.2562 366.461 58.3214 366.615C58.3942 366.771 58.4862 366.899 58.5973 367.001C58.8043 367.199 59.2376 367.428 59.8971 367.686C60.5641 367.947 61.1698 368.179 61.7141 368.384C62.264 368.598 62.8706 368.827 63.534 369.07C64.1955 369.321 64.8569 369.572 65.5184 369.823C66.1874 370.076 66.8347 370.319 67.4602 370.553C67.4602 370.553 68.5384 370.955 70.6948 371.761C71.0202 371.844 71.4589 371.691 72.0112 371.301C72.1692 371.188 72.3066 371.062 72.4231 370.923C72.6258 370.669 72.8103 370.563 72.9767 370.606C73.3021 370.689 73.4199 370.905 73.3303 371.253L72.8104 372.85C72.7247 373.183 72.6677 373.483 72.6393 373.75C72.6165 374.026 72.5759 374.278 72.5174 374.505C72.4571 374.739 72.3247 374.83 72.1205 374.778C71.8859 374.717 71.7412 374.543 71.6864 374.255C71.553 373.551 71.2523 373.058 70.7844 372.776C69.9782 372.899 67.1437 374.085 62.281 376.335C57.4924 378.547 55.0718 379.755 55.0192 379.959C55.0133 379.982 55.036 379.988 55.0873 379.977L68.0803 384.314C68.2921 384.368 68.5633 384.333 68.8939 384.209C69.2245 384.084 69.5389 383.959 69.8373 383.834C70.1357 383.71 70.353 383.665 70.4891 383.7C70.6783 383.748 70.7436 383.886 70.6852 384.113C70.6248 384.348 70.5379 384.592 70.4243 384.845C70.3107 385.098 70.2072 385.406 70.1137 385.769L69.8637 386.975C69.7098 387.573 69.4362 387.539 69.043 386.873L68.7227 386.331C68.4697 385.935 68.2687 385.681 68.1198 385.57C67.9765 385.469 67.7244 385.352 67.3634 385.218C67.01 385.087 66.545 384.919 65.9685 384.714C65.3901 384.517 64.7331 384.295 63.9978 384.049C63.2624 383.804 62.4977 383.546 61.7038 383.277C60.9154 383.018 60.1271 382.758 59.3387 382.499C58.5484 382.247 57.8139 382.014 57.1352 381.799C55.6283 381.322 54.6403 381.023 54.1712 380.902L53.7938 380.817C53.4685 380.734 53.2543 380.61 53.1512 380.446C53.0481 380.283 53.0122 380.14 53.0434 380.019C53.094 379.822 53.1716 379.693 53.2763 379.631C53.3714 379.575 53.5673 379.472 53.864 379.323C54.1682 379.175 54.5646 378.983 55.0532 378.746C55.5494 378.51 56.1208 378.234 56.7672 377.916C57.4118 377.606 58.0934 377.278 58.8121 376.93C59.5383 376.585 60.2836 376.228 61.0479 375.86C61.8178 375.502 62.5697 375.151 63.3035 374.807C64.0449 374.466 64.7502 374.139 65.4193 373.827C66.0865 373.523 66.6844 373.253 67.2128 373.018C68.3399 372.526 69.002 372.273 69.1992 372.259C62.6885 369.816 59.3537 368.575 59.1948 368.534L58.8997 368.458C58.582 368.376 58.311 368.379 58.0868 368.466C58.0868 368.466 57.8624 368.57 57.4138 368.777C56.9652 368.984 56.6917 369.075 56.5933 369.05ZM58.6099 400.559C58.4424 401.21 57.8941 401.303 56.9651 400.838L51.6882 398.632C50.4753 398.11 49.7255 397.764 49.4387 397.593C49.1594 397.425 49.0044 397.244 48.9735 397.05C48.9351 396.855 48.9918 396.462 49.1437 395.872C49.2957 395.282 49.5699 394.545 49.9664 393.663C50.3534 392.787 50.8214 391.972 51.3705 391.217C51.9196 390.463 52.5449 389.789 53.2464 389.195C53.9478 388.602 54.7299 388.133 55.5925 387.791C57.4376 387.048 59.4762 386.963 61.7081 387.538C63.7054 388.052 65.2446 389.061 66.3255 390.566C67.2281 391.823 67.7717 393.346 67.9563 395.136C68.1221 396.623 68.0317 398.04 67.685 399.387L67.2468 400.665C67.1884 400.892 67.2077 401.115 67.3047 401.334C67.4239 401.623 67.5771 401.936 67.7643 402.275C67.9494 402.621 68.0206 402.877 67.9777 403.044C67.9154 403.286 67.6851 403.303 67.2867 403.096C66.9127 402.919 66.4837 402.768 65.9995 402.643L64.7563 402.396C64.3326 402.287 64.1451 402.138 64.1938 401.949C64.2308 401.805 64.4232 401.653 64.7711 401.492C65.119 401.332 65.4083 401.148 65.639 400.941C65.8773 400.736 66.0607 400.525 66.1892 400.308C66.5609 399.71 66.8142 398.727 66.9488 397.358C67.0778 395.979 66.9213 394.644 66.4794 393.352C65.9932 391.888 65.0655 390.697 63.6962 389.78C62.9795 389.305 62.065 388.925 60.9529 388.638C59.8482 388.354 58.8133 388.269 57.848 388.383C56.8884 388.508 56.0272 388.766 55.2646 389.158C54.5021 389.551 53.8354 390.041 53.2648 390.628C52.6922 391.223 52.2028 391.839 51.7966 392.477C50.8943 393.882 50.3498 395.198 50.1631 396.425C50.2433 396.615 50.8945 396.968 52.1169 397.484C53.3448 398.01 54.2139 398.379 54.724 398.591L57.2349 399.649C57.2652 399.657 57.2954 399.664 57.3257 399.672C57.651 399.756 57.8702 399.578 57.9831 399.14L58.6873 396.405C58.8178 395.898 58.7531 395.381 58.4934 394.854L58.0355 394.095C57.9758 393.951 57.9616 393.818 57.9928 393.697C58.0239 393.576 58.1038 393.532 58.2324 393.565C58.4065 393.61 58.6228 393.694 58.8816 393.817C59.5028 394.13 60.0895 394.358 60.6418 394.5L61.3828 394.63C61.814 394.741 62.0034 394.899 61.9508 395.103C61.9138 395.247 61.7384 395.395 61.4247 395.548C61.111 395.702 60.8561 395.83 60.6603 395.932C60.4624 396.043 60.2978 396.15 60.1663 396.253C59.9319 396.443 59.779 396.629 59.7076 396.813C59.6362 396.996 59.5724 397.181 59.5161 397.368C59.4579 397.563 59.3949 397.777 59.3269 398.009C59.257 398.249 59.1852 398.497 59.1114 398.752C59.0357 399.015 58.9638 399.263 58.8959 399.496C58.7072 400.197 58.6118 400.552 58.6099 400.559Z" fill="black"/>
<path d="M152.293 419.912L153.793 441.412" stroke="#040404" stroke-linecap="round" stroke-linejoin="round"/>
<path d="M208.793 481.412V376.412C208.793 370.337 203.868 365.412 197.793 365.412H143.727M96.7932 481.412V420.714" stroke="black"/>
<path d="M96.8231 420.412C96.4672 409.79 99.8791 394.03 109.291 383.236C118.293 372.912 128.792 366.431 143.793 365.412" stroke="black" stroke-linecap="round" stroke-linejoin="round"/>
<circle cx="152.293" cy="419.912" r="45" stroke="black"/>
<circle cx="151.793" cy="420.412" r="28.7" stroke="black" stroke-width="0.6" stroke-dasharray="2 2"/>
<circle cx="196.793" cy="378.412" r="7.5" stroke="black"/>
<circle cx="106.793" cy="473.412" r="1.75" stroke="black" stroke-width="0.5"/>
<circle cx="111.793" cy="473.412" r="1.75" stroke="black" stroke-width="0.5"/>
<circle cx="106.793" cy="468.412" r="1.75" stroke="black" stroke-width="0.5"/>
<circle cx="106.793" cy="463.412" r="1.75" stroke="black" stroke-width="0.5"/>
<circle cx="106.793" cy="458.412" r="1.75" stroke="black" stroke-width="0.5"/>
<circle cx="111.793" cy="463.412" r="1.75" stroke="black" stroke-width="0.5"/>
<circle cx="111.793" cy="468.412" r="1.75" stroke="black" stroke-width="0.5"/>
<circle cx="116.793" cy="468.412" r="1.75" stroke="black" stroke-width="0.5"/>
<circle cx="116.793" cy="473.412" r="1.75" stroke="black" stroke-width="0.5"/>
<circle cx="121.793" cy="473.412" r="1.75" fill="#D9D9D9" stroke="black" stroke-width="0.5"/>
<circle cx="152.293" cy="419.912" r="3.5" fill="black"/>
<path d="M153.504 417.619L164.136 390.403" stroke="black" stroke-width="4" stroke-linecap="round" stroke-linejoin="round"/>
<path d="M164.136 390.403L161.178 397.836" stroke="#FFFCF2" stroke-width="1.5" stroke-linecap="round" stroke-linejoin="round"/>
<path d="M131.793 408.412L152.113 420.217" stroke="#040404" stroke-width="3" stroke-linecap="round" stroke-linejoin="round"/>
<path d="M131.793 408.412L137.846 411.928" stroke="#FFFCF2" stroke-linecap="round" stroke-linejoin="round"/>
<path d="M149.127 385.412C149.087 385.412 149.054 385.399 149.027 385.372C149.001 385.345 148.987 385.312 148.987 385.272V384.822C148.987 384.782 149.001 384.749 149.027 384.722C149.054 384.695 149.087 384.682 149.127 384.682H150.327V379.502H149.437C149.397 379.502 149.364 379.489 149.337 379.462C149.311 379.435 149.297 379.402 149.297 379.362V379.042L150.667 378.332H150.957C150.997 378.332 151.031 378.345 151.057 378.372C151.084 378.399 151.097 378.432 151.097 378.472V384.682H152.297C152.337 384.682 152.371 384.695 152.397 384.722C152.424 384.749 152.437 384.782 152.437 384.822V385.272C152.437 385.312 152.424 385.345 152.397 385.372C152.371 385.399 152.337 385.412 152.297 385.412H149.127ZM153.941 385.412C153.841 385.412 153.754 385.379 153.681 385.312C153.614 385.239 153.581 385.159 153.581 385.072V384.212C153.581 383.865 153.617 383.579 153.691 383.352C153.764 383.119 153.884 382.912 154.051 382.732C154.217 382.552 154.441 382.372 154.721 382.192C155.007 382.005 155.361 381.789 155.781 381.542C156.074 381.369 156.307 381.179 156.481 380.972C156.661 380.759 156.751 380.505 156.751 380.212C156.751 379.859 156.634 379.585 156.401 379.392C156.174 379.192 155.877 379.092 155.511 379.092C155.271 379.092 155.034 379.132 154.801 379.212C154.567 379.292 154.347 379.392 154.141 379.512C154.114 379.532 154.084 379.542 154.051 379.542C154.011 379.542 153.974 379.515 153.941 379.462L153.731 379.112C153.711 379.079 153.701 379.049 153.701 379.022C153.701 378.949 153.731 378.899 153.791 378.872C154.057 378.699 154.344 378.569 154.651 378.482C154.957 378.389 155.264 378.342 155.571 378.342C156.177 378.342 156.657 378.505 157.011 378.832C157.371 379.152 157.551 379.585 157.551 380.132C157.551 380.479 157.487 380.775 157.361 381.022C157.234 381.269 157.057 381.492 156.831 381.692C156.604 381.892 156.337 382.092 156.031 382.292C155.731 382.485 155.474 382.649 155.261 382.782C155.047 382.909 154.874 383.032 154.741 383.152C154.607 383.272 154.511 383.409 154.451 383.562C154.391 383.709 154.361 383.899 154.361 384.132V384.652H157.171C157.204 384.652 157.231 384.665 157.251 384.692C157.271 384.712 157.281 384.739 157.281 384.772V385.292C157.281 385.325 157.271 385.355 157.251 385.382C157.231 385.402 157.204 385.412 157.171 385.412H153.941Z" fill="black"/>
<path d="M152.362 460.542C151.942 460.542 151.562 460.445 151.222 460.252C150.889 460.052 150.622 459.782 150.422 459.442C150.222 459.102 150.122 458.722 150.122 458.302C150.122 457.709 150.142 457.165 150.182 456.672C150.222 456.179 150.339 455.725 150.532 455.312C150.712 454.939 150.945 454.615 151.232 454.342C151.519 454.069 151.845 453.859 152.212 453.712C152.585 453.559 152.982 453.475 153.402 453.462C153.422 453.462 153.442 453.462 153.462 453.462C153.482 453.462 153.502 453.462 153.522 453.462C153.569 453.462 153.605 453.475 153.632 453.502C153.659 453.529 153.672 453.562 153.672 453.602V454.052C153.672 454.085 153.659 454.119 153.632 454.152C153.605 454.179 153.575 454.192 153.542 454.192C153.522 454.192 153.502 454.192 153.482 454.192C153.469 454.192 153.452 454.192 153.432 454.192C152.952 454.205 152.529 454.325 152.162 454.552C151.802 454.779 151.515 455.085 151.302 455.472C151.089 455.859 150.965 456.309 150.932 456.822C151.032 456.662 151.169 456.525 151.342 456.412C151.515 456.299 151.699 456.212 151.892 456.152C152.092 456.085 152.282 456.052 152.462 456.052C152.875 456.052 153.242 456.155 153.562 456.362C153.889 456.562 154.145 456.832 154.332 457.172C154.519 457.512 154.612 457.889 154.612 458.302C154.612 458.709 154.509 459.082 154.302 459.422C154.102 459.762 153.832 460.035 153.492 460.242C153.152 460.442 152.775 460.542 152.362 460.542ZM152.362 459.802C152.629 459.802 152.872 459.735 153.092 459.602C153.312 459.462 153.489 459.279 153.622 459.052C153.755 458.825 153.822 458.575 153.822 458.302C153.822 458.029 153.755 457.779 153.622 457.552C153.489 457.319 153.312 457.135 153.092 457.002C152.872 456.862 152.629 456.792 152.362 456.792C152.089 456.792 151.842 456.859 151.622 456.992C151.409 457.125 151.239 457.305 151.112 457.532C150.985 457.759 150.922 458.015 150.922 458.302C150.922 458.582 150.985 458.835 151.112 459.062C151.239 459.289 151.409 459.469 151.622 459.602C151.842 459.735 152.089 459.802 152.362 459.802Z" fill="black"/>
<path d="M114.062 424.412C114.015 424.412 113.979 424.399 113.952 424.372C113.925 424.345 113.912 424.312 113.912 424.272V423.822C113.912 423.789 113.925 423.759 113.952 423.732C113.979 423.699 114.009 423.682 114.042 423.682C114.062 423.682 114.082 423.682 114.102 423.682C114.122 423.682 114.142 423.682 114.162 423.682C114.642 423.662 115.062 423.542 115.422 423.322C115.782 423.095 116.069 422.789 116.282 422.402C116.502 422.009 116.625 421.559 116.652 421.052C116.552 421.205 116.415 421.342 116.242 421.462C116.075 421.575 115.892 421.665 115.692 421.732C115.492 421.792 115.302 421.822 115.122 421.822C114.715 421.822 114.349 421.722 114.022 421.522C113.695 421.315 113.439 421.042 113.252 420.702C113.065 420.355 112.972 419.979 112.972 419.572C112.972 419.159 113.072 418.785 113.272 418.452C113.479 418.112 113.752 417.842 114.092 417.642C114.439 417.435 114.815 417.332 115.222 417.332C115.642 417.332 116.022 417.432 116.362 417.632C116.702 417.825 116.969 418.092 117.162 418.432C117.362 418.765 117.462 419.145 117.462 419.572C117.462 420.159 117.442 420.702 117.402 421.202C117.362 421.695 117.245 422.149 117.052 422.562C116.872 422.929 116.639 423.249 116.352 423.522C116.072 423.789 115.752 423.999 115.392 424.152C115.032 424.305 114.642 424.392 114.222 424.412C114.195 424.412 114.169 424.412 114.142 424.412C114.115 424.412 114.089 424.412 114.062 424.412ZM115.222 421.082C115.495 421.082 115.739 421.015 115.952 420.882C116.172 420.749 116.345 420.569 116.472 420.342C116.599 420.115 116.662 419.859 116.662 419.572C116.662 419.285 116.599 419.032 116.472 418.812C116.345 418.585 116.172 418.405 115.952 418.272C115.739 418.139 115.495 418.072 115.222 418.072C114.955 418.072 114.712 418.142 114.492 418.282C114.272 418.415 114.095 418.595 113.962 418.822C113.829 419.049 113.762 419.299 113.762 419.572C113.762 419.845 113.829 420.099 113.962 420.332C114.095 420.559 114.272 420.742 114.492 420.882C114.719 421.015 114.962 421.082 115.222 421.082Z" fill="black"/>
<path d="M115.761 405.412C115.721 405.412 115.688 405.399 115.661 405.372C115.634 405.345 115.621 405.312 115.621 405.272V404.822C115.621 404.782 115.634 404.749 115.661 404.722C115.688 404.695 115.721 404.682 115.761 404.682H116.961V399.502H116.071C116.031 399.502 115.998 399.489 115.971 399.462C115.944 399.435 115.931 399.402 115.931 399.362V399.042L117.301 398.332H117.591C117.631 398.332 117.664 398.345 117.691 398.372C117.718 398.399 117.731 398.432 117.731 398.472V404.682H118.931C118.971 404.682 119.004 404.695 119.031 404.722C119.058 404.749 119.071 404.782 119.071 404.822V405.272C119.071 405.312 119.058 405.345 119.031 405.372C119.004 405.399 118.971 405.412 118.931 405.412H115.761ZM122.498 405.542C121.705 405.542 121.118 405.229 120.738 404.602C120.358 403.975 120.168 403.085 120.168 401.932C120.168 400.779 120.358 399.892 120.738 399.272C121.118 398.645 121.705 398.332 122.498 398.332C123.291 398.332 123.875 398.645 124.248 399.272C124.628 399.892 124.818 400.779 124.818 401.932C124.818 403.092 124.628 403.985 124.248 404.612C123.875 405.232 123.291 405.542 122.498 405.542ZM122.498 404.752C122.818 404.752 123.075 404.679 123.268 404.532C123.461 404.385 123.608 404.182 123.708 403.922C123.815 403.662 123.885 403.362 123.918 403.022C123.958 402.682 123.978 402.319 123.978 401.932C123.978 401.545 123.958 401.182 123.918 400.842C123.885 400.502 123.815 400.205 123.708 399.952C123.608 399.692 123.458 399.489 123.258 399.342C123.065 399.195 122.808 399.122 122.488 399.122C121.941 399.122 121.558 399.355 121.338 399.822C121.118 400.282 121.008 400.999 121.008 401.972C121.008 402.352 121.028 402.712 121.068 403.052C121.108 403.385 121.178 403.679 121.278 403.932C121.385 404.185 121.535 404.385 121.728 404.532C121.928 404.679 122.185 404.752 122.498 404.752Z" fill="black"/>
<path d="M129.538 391.412C129.498 391.412 129.464 391.399 129.438 391.372C129.411 391.345 129.398 391.312 129.398 391.272V390.822C129.398 390.782 129.411 390.749 129.438 390.722C129.464 390.695 129.498 390.682 129.538 390.682H130.738V385.502H129.848C129.808 385.502 129.774 385.489 129.748 385.462C129.721 385.435 129.708 385.402 129.708 385.362V385.042L131.078 384.332H131.368C131.408 384.332 131.441 384.345 131.468 384.372C131.494 384.399 131.508 384.432 131.508 384.472V390.682H132.708C132.748 390.682 132.781 390.695 132.808 390.722C132.834 390.749 132.848 390.782 132.848 390.822V391.272C132.848 391.312 132.834 391.345 132.808 391.372C132.781 391.399 132.748 391.412 132.708 391.412H129.538ZM134.032 391.412C133.992 391.412 133.959 391.399 133.932 391.372C133.905 391.345 133.892 391.312 133.892 391.272V390.822C133.892 390.782 133.905 390.749 133.932 390.722C133.959 390.695 133.992 390.682 134.032 390.682H135.232V385.502H134.342C134.302 385.502 134.269 385.489 134.242 385.462C134.215 385.435 134.202 385.402 134.202 385.362V385.042L135.572 384.332H135.862C135.902 384.332 135.935 384.345 135.962 384.372C135.989 384.399 136.002 384.432 136.002 384.472V390.682H137.202C137.242 390.682 137.275 390.695 137.302 390.722C137.329 390.749 137.342 390.782 137.342 390.822V391.272C137.342 391.312 137.329 391.345 137.302 391.372C137.275 391.399 137.242 391.412 137.202 391.412H134.032Z" fill="black"/>
<path d="M189.067 424.532C188.62 424.532 188.2 424.425 187.807 424.212C187.413 423.992 187.1 423.699 186.867 423.332C186.853 423.305 186.847 423.279 186.847 423.252C186.847 423.192 186.873 423.142 186.927 423.102L187.267 422.862C187.3 422.842 187.333 422.832 187.367 422.832C187.433 422.832 187.487 422.862 187.527 422.922C187.72 423.189 187.953 423.402 188.227 423.562C188.5 423.715 188.78 423.792 189.067 423.792C189.353 423.792 189.61 423.722 189.837 423.582C190.07 423.442 190.253 423.255 190.387 423.022C190.527 422.782 190.597 422.519 190.597 422.232C190.597 421.945 190.527 421.689 190.387 421.462C190.253 421.229 190.073 421.045 189.847 420.912C189.627 420.772 189.38 420.702 189.107 420.702C189.08 420.702 189.053 420.702 189.027 420.702C189 420.702 188.973 420.705 188.947 420.712L188.737 420.992C188.717 421.032 188.68 421.052 188.627 421.052C188.593 421.052 188.567 421.042 188.547 421.022L188.167 420.752C188.133 420.732 188.117 420.699 188.117 420.652C188.117 420.612 188.127 420.582 188.147 420.562L189.817 418.222H187.567C187.527 418.222 187.493 418.209 187.467 418.182C187.44 418.155 187.427 418.122 187.427 418.082V417.602C187.427 417.562 187.44 417.529 187.467 417.502C187.493 417.475 187.527 417.462 187.567 417.462H190.397C190.543 417.462 190.66 417.505 190.747 417.592C190.833 417.679 190.877 417.782 190.877 417.902C190.877 417.949 190.867 417.995 190.847 418.042C190.833 418.089 190.81 418.139 190.777 418.192L189.457 420.012C189.83 420.065 190.16 420.199 190.447 420.412C190.74 420.619 190.97 420.879 191.137 421.192C191.303 421.505 191.387 421.852 191.387 422.232C191.387 422.652 191.28 423.035 191.067 423.382C190.86 423.729 190.58 424.009 190.227 424.222C189.88 424.429 189.493 424.532 189.067 424.532Z" fill="black"/>
<path d="M169.785 392.412C169.745 392.412 169.711 392.399 169.685 392.372C169.658 392.345 169.645 392.312 169.645 392.272V391.822C169.645 391.782 169.658 391.749 169.685 391.722C169.711 391.695 169.745 391.682 169.785 391.682H170.985V386.502H170.095C170.055 386.502 170.021 386.489 169.995 386.462C169.968 386.435 169.955 386.402 169.955 386.362V386.042L171.325 385.332H171.615C171.655 385.332 171.688 385.345 171.715 385.372C171.741 385.399 171.755 385.432 171.755 385.472V391.682H172.955C172.995 391.682 173.028 391.695 173.055 391.722C173.081 391.749 173.095 391.782 173.095 391.822V392.272C173.095 392.312 173.081 392.345 173.055 392.372C173.028 392.399 172.995 392.412 172.955 392.412H169.785Z" fill="black"/>
<path d="M181.669 405.412C181.569 405.412 181.482 405.379 181.409 405.312C181.342 405.239 181.309 405.159 181.309 405.072V404.212C181.309 403.865 181.346 403.579 181.419 403.352C181.492 403.119 181.612 402.912 181.779 402.732C181.946 402.552 182.169 402.372 182.449 402.192C182.736 402.005 183.089 401.789 183.509 401.542C183.802 401.369 184.036 401.179 184.209 400.972C184.389 400.759 184.479 400.505 184.479 400.212C184.479 399.859 184.362 399.585 184.129 399.392C183.902 399.192 183.606 399.092 183.239 399.092C182.999 399.092 182.762 399.132 182.529 399.212C182.296 399.292 182.076 399.392 181.869 399.512C181.842 399.532 181.812 399.542 181.779 399.542C181.739 399.542 181.702 399.515 181.669 399.462L181.459 399.112C181.439 399.079 181.429 399.049 181.429 399.022C181.429 398.949 181.459 398.899 181.519 398.872C181.786 398.699 182.072 398.569 182.379 398.482C182.686 398.389 182.992 398.342 183.299 398.342C183.906 398.342 184.386 398.505 184.739 398.832C185.099 399.152 185.279 399.585 185.279 400.132C185.279 400.479 185.216 400.775 185.089 401.022C184.962 401.269 184.786 401.492 184.559 401.692C184.332 401.892 184.066 402.092 183.759 402.292C183.459 402.485 183.202 402.649 182.989 402.782C182.776 402.909 182.602 403.032 182.469 403.152C182.336 403.272 182.239 403.409 182.179 403.562C182.119 403.709 182.089 403.899 182.089 404.132V404.652H184.899C184.932 404.652 184.959 404.665 184.979 404.692C184.999 404.712 185.009 404.739 185.009 404.772V405.292C185.009 405.325 184.999 405.355 184.979 405.382C184.959 405.402 184.932 405.412 184.899 405.412H181.669Z" fill="black"/>
<path d="M184.14 440.412C184.1 440.412 184.067 440.399 184.04 440.372C184.014 440.345 184 440.312 184 440.272V438.682H181.18C181.1 438.682 181.03 438.655 180.97 438.602C180.917 438.542 180.89 438.472 180.89 438.392V437.972L183.6 433.582C183.647 433.502 183.717 433.462 183.81 433.462H184.55C184.61 433.462 184.66 433.482 184.7 433.522C184.74 433.562 184.76 433.612 184.76 433.672V437.952H185.46C185.5 437.952 185.534 437.965 185.56 437.992C185.587 438.019 185.6 438.052 185.6 438.092V438.542C185.6 438.582 185.587 438.615 185.56 438.642C185.534 438.669 185.5 438.682 185.46 438.682H184.76V440.272C184.76 440.312 184.747 440.345 184.72 440.372C184.694 440.399 184.66 440.412 184.62 440.412H184.14ZM181.74 437.952H184V434.282L181.74 437.952Z" fill="black"/>
<path d="M171.143 454.582C170.69 454.582 170.263 454.472 169.863 454.252C169.47 454.032 169.153 453.732 168.913 453.352C168.9 453.339 168.893 453.312 168.893 453.272C168.893 453.219 168.916 453.179 168.963 453.152C169.016 453.112 169.073 453.072 169.133 453.032C169.193 452.985 169.25 452.942 169.303 452.902C169.336 452.882 169.373 452.872 169.413 452.872C169.486 452.872 169.54 452.899 169.573 452.952C169.766 453.225 170.003 453.442 170.283 453.602C170.563 453.762 170.85 453.842 171.143 453.842C171.436 453.842 171.703 453.772 171.943 453.632C172.183 453.485 172.373 453.292 172.513 453.052C172.653 452.812 172.723 452.542 172.723 452.242C172.723 451.949 172.653 451.685 172.513 451.452C172.373 451.212 172.186 451.025 171.953 450.892C171.72 450.752 171.463 450.682 171.183 450.682C170.97 450.682 170.756 450.725 170.543 450.812C170.336 450.892 170.143 451.009 169.963 451.162C169.916 451.202 169.866 451.222 169.813 451.222C169.8 451.222 169.786 451.222 169.773 451.222C169.766 451.222 169.756 451.219 169.743 451.212L169.463 451.132C169.43 451.119 169.403 451.095 169.383 451.062C169.37 451.029 169.366 450.995 169.373 450.962L169.883 447.752C169.896 447.665 169.933 447.595 169.993 447.542C170.06 447.489 170.136 447.462 170.223 447.462H172.863C172.903 447.462 172.936 447.475 172.963 447.502C172.99 447.529 173.003 447.562 173.003 447.602V448.062C173.003 448.102 172.99 448.135 172.963 448.162C172.936 448.189 172.903 448.202 172.863 448.202H170.553L170.193 450.542L170.033 450.292C170.22 450.199 170.406 450.122 170.593 450.062C170.786 449.995 170.996 449.962 171.223 449.962C171.636 449.962 172.013 450.065 172.353 450.272C172.7 450.479 172.976 450.755 173.183 451.102C173.39 451.442 173.493 451.822 173.493 452.242C173.493 452.562 173.43 452.865 173.303 453.152C173.183 453.432 173.013 453.679 172.793 453.892C172.58 454.105 172.33 454.275 172.043 454.402C171.763 454.522 171.463 454.582 171.143 454.582Z" fill="black"/>
<path d="M130.243 454.412C130.203 454.412 130.169 454.402 130.143 454.382C130.123 454.355 130.113 454.322 130.113 454.282C130.113 454.269 130.113 454.255 130.113 454.242C130.119 454.222 130.126 454.202 130.133 454.182L132.403 448.222H129.463C129.423 448.222 129.389 448.209 129.363 448.182C129.336 448.155 129.323 448.122 129.323 448.082V447.602C129.323 447.562 129.336 447.529 129.363 447.502C129.389 447.475 129.423 447.462 129.463 447.462H132.803C132.903 447.462 132.986 447.499 133.053 447.572C133.126 447.639 133.163 447.722 133.163 447.822V448.342L130.923 454.272C130.903 454.365 130.846 454.412 130.753 454.412H130.243Z" fill="black"/>
<path d="M120.289 440.542C119.842 440.542 119.436 440.449 119.069 440.262C118.709 440.069 118.422 439.809 118.209 439.482C118.002 439.155 117.899 438.792 117.899 438.392C117.899 438.039 117.986 437.702 118.159 437.382C118.339 437.055 118.586 436.785 118.899 436.572C118.692 436.419 118.529 436.222 118.409 435.982C118.296 435.735 118.239 435.469 118.239 435.182C118.239 434.835 118.329 434.522 118.509 434.242C118.696 433.962 118.942 433.739 119.249 433.572C119.562 433.405 119.909 433.322 120.289 433.322C120.676 433.322 121.022 433.402 121.329 433.562C121.642 433.722 121.889 433.939 122.069 434.212C122.256 434.479 122.349 434.782 122.349 435.122C122.349 435.442 122.286 435.749 122.159 436.042C122.032 436.335 121.852 436.579 121.619 436.772C121.959 436.939 122.222 437.169 122.409 437.462C122.596 437.755 122.689 438.079 122.689 438.432C122.689 438.825 122.582 439.182 122.369 439.502C122.156 439.822 121.866 440.075 121.499 440.262C121.139 440.449 120.736 440.542 120.289 440.542ZM120.289 439.822C120.589 439.822 120.859 439.759 121.099 439.632C121.339 439.505 121.529 439.335 121.669 439.122C121.809 438.902 121.879 438.659 121.879 438.392C121.879 438.132 121.812 437.922 121.679 437.762C121.552 437.602 121.379 437.475 121.159 437.382C120.946 437.289 120.699 437.209 120.419 437.142C120.139 437.075 119.849 437.005 119.549 436.932C119.296 437.059 119.092 437.259 118.939 437.532C118.786 437.799 118.709 438.079 118.709 438.372C118.709 438.645 118.776 438.892 118.909 439.112C119.049 439.332 119.239 439.505 119.479 439.632C119.719 439.759 119.989 439.822 120.289 439.822ZM120.959 436.512C121.099 436.412 121.232 436.242 121.359 436.002C121.486 435.762 121.549 435.489 121.549 435.182C121.549 434.929 121.486 434.719 121.359 434.552C121.232 434.385 121.072 434.259 120.879 434.172C120.686 434.085 120.489 434.042 120.289 434.042C119.942 434.042 119.649 434.152 119.409 434.372C119.169 434.592 119.049 434.862 119.049 435.182C119.049 435.475 119.142 435.709 119.329 435.882C119.516 436.049 119.756 436.179 120.049 436.272C120.342 436.359 120.646 436.439 120.959 436.512Z" fill="black"/>
<path d="M194.499 314.41C196.827 313.087 199.491 312.336 202.323 312.336C211.419 312.336 218.793 320.086 218.793 329.647C218.793 339.207 211.419 346.958 202.323 346.958C197.729 346.958 193.575 344.981 190.588 341.794" stroke="black" stroke-linecap="round"/>
<path d="M202.528 324.088C205.299 324.088 207.586 326.456 207.586 329.431C207.586 332.405 205.298 334.772 202.528 334.772C199.757 334.772 197.469 332.405 197.469 329.431C197.469 326.456 199.757 324.088 202.528 324.088Z" stroke="black" stroke-linecap="round"/>
<path d="M138.705 366C134.293 363.412 127.21 355.912 123.793 340.412C121.492 329.972 121.027 318.843 120.888 311.562C120.823 308.189 123.575 305.412 126.949 305.412H188.525C191.985 305.412 194.731 308.332 194.472 311.783C194.406 312.66 194.336 313.569 194.261 314.5M177.793 365.412C183.609 359.299 187.48 352.542 190.551 341.765" stroke="black" stroke-linecap="round"/>
<path d="M177.547 248.412C173.962 250.093 166.793 255.042 166.793 261.383C166.793 269.309 177.054 271.088 179.339 278.437C181.131 284.201 177.547 292.128 169.93 297.412" stroke="black" stroke-width="0.8" stroke-linecap="round"/>
<path d="M126.793 349.412H187.793" stroke="black" stroke-width="0.8" stroke-linecap="round"/>
</g>
<defs>
<clipPath id="clip0_1095_997">
<rect width="228" height="482" fill="white"/>
</clipPath>
</defs>
</svg>
