<svg width="200" height="184" viewBox="0 0 200 184" fill="none" xmlns="http://www.w3.org/2000/svg">
<g clip-path="url(#clip0_3432_9114)">
<path d="M89.1778 107.98C96.9288 106.012 100.481 77.6397 101.288 68.6196L125.511 83.3799C119.051 97.3199 103.711 134.056 113.4 139.96C125.511 147.34 130.355 122.74 144.888 122.74C156.999 122.74 156.999 142.42 159.421 152.26C161.844 162.101 161.843 181.781 149.733 181.781C137.381 181.781 142.466 164.56 130.355 159.641C120.813 155.764 115.587 166.973 103.711 164.56C91.599 162.101 98.8668 130.12 81.9113 130.12C69.5604 130.12 64.9559 142.42 67.3775 154.72C69.7991 167.02 62.533 169.48 52.8443 169.48C43.1553 169.48 33.467 162.101 23.7781 159.641C14.0893 157.18 4.86608 144.408 14.0893 135.04C21.3555 127.66 35.8888 137.5 45.5776 135.04C55.2665 132.58 52.8447 112.9 62.5337 107.98C72.2224 103.06 79.4889 110.44 89.1778 107.98Z" fill="white" stroke="white" stroke-width="0.8" stroke-linecap="round"/>
<path d="M181.367 111.999C151.286 123.314 111.804 106.341 111.804 78.0505C93.1812 72.1062 71.4861 81.3733 49.7615 79.9364C20.2121 77.9821 -6.19553 63.9515 4.63949 36.558C9.7913 23.5332 26.8032 26.0765 40.3611 23.3564C56.7035 20.0775 67.0845 15.4621 89.2432 7.86379C115.564 -1.16188 131.687 1.83812 144.452 7.86381C195.398 31.9139 211.448 100.683 181.367 111.999Z" stroke="white" stroke-width="0.8" stroke-linecap="round"/>
<path d="M89.2433 7.86426C115.564 -1.16133 131.688 1.83858 144.452 7.86426C195.398 31.9144 211.448 100.683 181.367 111.999C151.286 123.315 111.804 106.341 111.804 78.0508C93.181 72.1068 71.4862 81.3733 49.7618 79.9365C20.2124 77.9822 -6.19526 63.9521 4.63977 36.5586C9.79162 23.5339 26.8037 26.0766 40.3615 23.3564C56.7035 20.0776 67.0848 15.4625 89.2433 7.86426ZM156.382 25.7646C152.489 23.6866 148.706 22.9033 145.529 24.1455C144.103 24.7035 143.098 25.4221 142.461 26.3203C141.821 27.2226 141.581 28.2657 141.611 29.417C141.641 30.5608 141.938 31.8259 142.382 33.1963C142.827 34.5684 143.429 36.072 144.083 37.6914C146.707 44.1844 150.228 52.6835 148.513 63.1533C146.126 77.7217 150.838 88.5288 157.606 94.8232C164.343 101.09 173.191 102.922 178.989 99.3467C184.716 95.8152 186.925 90.4904 187.321 84.4248C187.716 78.3826 186.318 71.5632 184.81 64.9688C182.559 55.1278 175.848 43.7521 168.195 35.4297C164.367 31.2666 160.284 27.8478 156.382 25.7646ZM109.477 15.8242C104.292 14.4631 98.8023 17.1045 95.6134 22.0859C97.1406 20.9318 99.0003 20.3847 100.888 20.7002C104.937 21.3771 107.581 25.7671 106.794 30.5059C106.007 35.2445 102.086 38.5379 98.0372 37.8613C95.9388 37.5105 94.2201 36.1603 93.1583 34.2832C94.0685 39.3338 97.3433 43.4267 101.956 44.6387C108.658 46.3981 115.871 41.4705 117.965 33.4463C120.058 25.422 116.177 17.5842 109.477 15.8242Z" fill="white"/>
</g>
<defs>
<clipPath id="clip0_3432_9114">
<rect width="200" height="184" fill="white"/>
</clipPath>
</defs>
</svg>
