<svg width="200" height="184" viewBox="0 0 200 184" fill="none" xmlns="http://www.w3.org/2000/svg">
<g clip-path="url(#clip0_1846_760)">
<path d="M89.1778 107.98C96.9288 106.012 100.481 77.6397 101.288 68.6196L125.511 83.3799C119.051 97.3199 103.711 134.056 113.4 139.96C125.511 147.34 130.355 122.74 144.888 122.74C156.999 122.74 156.999 142.42 159.421 152.26C161.844 162.101 161.843 181.781 149.733 181.781C137.381 181.781 142.466 164.56 130.355 159.641C120.813 155.764 115.587 166.973 103.711 164.56C91.599 162.101 98.8668 130.12 81.9113 130.12C69.5604 130.12 64.9559 142.42 67.3775 154.72C69.7991 167.02 62.533 169.48 52.8443 169.48C43.1553 169.48 33.467 162.101 23.7781 159.641C14.0893 157.18 4.86608 144.408 14.0893 135.04C21.3555 127.66 35.8888 137.5 45.5776 135.04C55.2665 132.58 52.8447 112.9 62.5337 107.98C72.2224 103.06 79.4889 110.44 89.1778 107.98Z" fill="black" stroke="black" stroke-width="0.8" stroke-linecap="round"/>
<path d="M181.367 111.999C151.286 123.314 111.804 106.341 111.804 78.0505C93.1811 72.1062 71.4861 81.3733 49.7615 79.9364C20.212 77.9821 -6.19559 63.9515 4.63943 36.558C9.79123 23.5332 26.8032 26.0765 40.361 23.3564C56.7034 20.0775 67.0844 15.4621 89.2432 7.86379C115.564 -1.16188 131.687 1.83812 144.452 7.86381C195.398 31.9139 211.448 100.683 181.367 111.999Z" fill="white"/>
<path d="M181.367 111.999C151.286 123.314 111.804 106.341 111.804 78.0505C93.1811 72.1062 71.4861 81.3733 49.7615 79.9364C20.212 77.9821 -6.19559 63.9515 4.63943 36.558C9.79123 23.5332 26.8032 26.0765 40.361 23.3564C56.7034 20.0775 67.0844 15.4621 89.2432 7.86379C115.564 -1.16188 131.687 1.83812 144.452 7.86381C195.398 31.9139 211.448 100.683 181.367 111.999Z" fill="black"/>
<path d="M181.367 111.999C151.286 123.314 111.804 106.341 111.804 78.0505C93.1811 72.1062 71.4861 81.3733 49.7615 79.9364C20.212 77.9821 -6.19559 63.9515 4.63943 36.558C9.79123 23.5332 26.8032 26.0765 40.361 23.3564C56.7034 20.0775 67.0844 15.4621 89.2432 7.86379C115.564 -1.16188 131.687 1.83812 144.452 7.86381C195.398 31.9139 211.448 100.683 181.367 111.999Z" stroke="black" stroke-width="0.8" stroke-linecap="round"/>
<path d="M184.42 65.0587C187.439 78.2603 189.954 92.1164 178.779 99.0069C167.605 105.897 144.175 92.1099 148.908 63.2182C152.379 42.0314 134.637 28.8349 145.675 24.5185C157.746 19.7982 179.958 45.5465 184.42 65.0587Z" fill="white" stroke="white" stroke-width="0.8"/>
<path d="M109.374 16.2115C115.808 17.9011 119.63 25.4761 117.577 33.345C115.524 41.2139 108.492 45.941 102.058 44.2515C95.6239 42.5613 91.8044 34.985 93.8576 27.1163C95.9111 19.2481 102.941 14.5226 109.374 16.2115Z" fill="white" stroke="black" stroke-width="0.8"/>
<path d="M98.0374 37.8605C102.086 38.5372 106.007 35.2442 106.794 30.5053C107.581 25.7665 104.937 21.3762 100.888 20.6995C96.8385 20.0227 92.918 23.3157 92.1309 28.0546C91.3439 32.7935 93.9883 37.1837 98.0374 37.8605Z" fill="black"/>
</g>
<defs>
<clipPath id="clip0_1846_760">
<rect width="200" height="184" fill="white"/>
</clipPath>
</defs>
</svg>
