<svg width="200" height="184" viewBox="0 0 200 184" fill="none" xmlns="http://www.w3.org/2000/svg">
<g clip-path="url(#clip0_3432_9087)">
<path d="M89.1778 107.98C96.9288 106.011 100.481 77.6393 101.288 68.6191L125.511 83.3794C119.051 97.3195 103.711 134.056 113.4 139.96C125.511 147.34 130.355 122.74 144.888 122.74C156.999 122.74 156.999 142.42 159.421 152.26C161.844 162.1 161.843 181.78 149.733 181.78C137.381 181.78 142.466 164.56 130.355 159.64C120.813 155.764 115.587 166.972 103.711 164.56C91.599 162.1 98.8668 130.12 81.9113 130.12C69.5604 130.12 64.9559 142.42 67.3775 154.72C69.7991 167.02 62.533 169.48 52.8443 169.48C43.1553 169.48 33.467 162.1 23.7781 159.64C14.0893 157.18 4.86608 144.407 14.0893 135.04C21.3555 127.66 35.8888 137.5 45.5776 135.04C55.2665 132.58 52.8447 112.9 62.5337 107.98C72.2224 103.059 79.4889 110.44 89.1778 107.98Z" fill="black" stroke="black" stroke-width="0.8" stroke-linecap="round"/>
<path d="M181.367 111.999C151.286 123.315 111.804 106.341 111.804 78.051C93.1812 72.1067 71.4861 81.3738 49.7615 79.9369C20.2121 77.9826 -6.19553 63.952 4.63949 36.5585C9.7913 23.5337 26.8032 26.077 40.3611 23.3569C56.7035 20.078 67.0845 15.4626 89.2432 7.86428C115.564 -1.16139 131.687 1.83861 144.452 7.8643C195.398 31.9144 211.448 100.684 181.367 111.999Z" stroke="black" stroke-width="0.8" stroke-linecap="round"/>
<path d="M89.2433 7.86426C115.564 -1.16128 131.688 1.8386 144.452 7.86426C195.398 31.9145 211.448 100.683 181.367 111.999C151.286 123.315 111.804 106.341 111.804 78.0508C93.181 72.1068 71.4861 81.3732 49.7618 79.9365C20.2124 77.9822 -6.19526 63.9521 4.63977 36.5586C9.79165 23.534 26.8037 26.0766 40.3615 23.3564C56.7034 20.0776 67.0848 15.4625 89.2433 7.86426ZM156.382 25.7646C152.489 23.6866 148.706 22.9034 145.529 24.1455C144.103 24.7034 143.098 25.4222 142.461 26.3203C141.821 27.2226 141.581 28.2657 141.611 29.417C141.641 30.5608 141.938 31.8259 142.382 33.1963C142.827 34.5684 143.429 36.072 144.083 37.6914C146.707 44.1844 150.228 52.6835 148.513 63.1533C146.126 77.7217 150.838 88.5288 157.606 94.8232C164.343 101.09 173.192 102.922 178.989 99.3467C184.716 95.8152 186.925 90.4903 187.321 84.4248C187.716 78.3827 186.318 71.5632 184.81 64.9688C182.559 55.1279 175.848 43.7521 168.195 35.4297C164.367 31.2667 160.284 27.8478 156.382 25.7646ZM109.477 15.8232C104.292 14.4622 98.8024 17.1037 95.6134 22.085C97.1406 20.931 99.0005 20.3838 100.888 20.6992C104.937 21.376 107.581 25.7663 106.794 30.5049C106.007 35.2437 102.086 38.537 98.0372 37.8604C95.9389 37.5096 94.2201 36.1602 93.1583 34.2832C94.0686 39.3335 97.3435 43.4258 101.956 44.6377C108.658 46.3973 115.871 41.4698 117.965 33.4453C120.058 25.4212 116.177 17.5831 109.477 15.8232Z" fill="black"/>
</g>
<defs>
<clipPath id="clip0_3432_9087">
<rect width="200" height="184" fill="white"/>
</clipPath>
</defs>
</svg>
