<svg width="51" height="46" viewBox="0 0 51 46" fill="none" xmlns="http://www.w3.org/2000/svg">
<g clip-path="url(#clip0_1794_804)">
<path d="M23.1857 26.995C25.114 26.5029 25.9977 19.4099 26.1986 17.1549L32.2246 20.8449C30.6176 24.3299 26.8012 33.514 29.2116 34.99C32.2246 36.835 33.4298 30.685 37.0453 30.685C40.0583 30.685 40.0583 35.605 40.6609 38.0651C41.2635 40.5251 41.2634 45.4451 38.2506 45.4451C35.1777 45.4451 36.4427 41.1401 33.4298 39.9101C31.056 38.941 29.7557 41.7431 26.8012 41.1401C23.788 40.5251 25.5961 32.53 21.3779 32.53C18.3053 32.53 17.1598 35.605 17.7622 38.68C18.3646 41.7551 16.557 42.3701 14.1466 42.3701C11.7362 42.3701 9.32594 40.5251 6.91552 39.9101C4.50513 39.295 2.21058 36.1019 4.50513 33.76C6.31282 31.915 9.92844 34.375 12.3388 33.76C14.7492 33.145 14.1467 28.225 16.5571 26.995C18.9675 25.7649 20.7753 27.61 23.1857 26.995Z" fill="black" stroke="black" stroke-width="0.8" stroke-linecap="round"/>
<path d="M46.1206 27.9997C38.637 30.8286 28.8147 26.5852 28.8147 19.5127C24.1816 18.0266 18.7843 20.3434 13.3797 19.9841C6.02836 19.4956 -0.541335 15.9879 2.15421 9.13955C3.43588 5.88335 7.66812 6.51917 11.041 5.83913C15.1067 5.01941 17.6893 3.86557 23.202 1.96599C29.7502 -0.290431 33.7612 0.459569 36.9368 1.96599C49.6113 7.97851 53.6042 25.1708 46.1206 27.9997Z" fill="#FFFCF2"/>
<path d="M46.1206 27.9997C38.637 30.8286 28.8147 26.5852 28.8147 19.5127C24.1816 18.0266 18.7843 20.3434 13.3797 19.9841C6.02836 19.4956 -0.541335 15.9879 2.15421 9.13955C3.43588 5.88335 7.66812 6.51917 11.041 5.83913C15.1067 5.01941 17.6893 3.86557 23.202 1.96599C29.7502 -0.290431 33.7612 0.459569 36.9368 1.96599C49.6113 7.97851 53.6042 25.1708 46.1206 27.9997Z" fill="black"/>
<path d="M46.1206 27.9997C38.637 30.8286 28.8147 26.5852 28.8147 19.5127C24.1816 18.0266 18.7843 20.3434 13.3797 19.9841C6.02836 19.4956 -0.541335 15.9879 2.15421 9.13955C3.43588 5.88335 7.66812 6.51917 11.041 5.83913C15.1067 5.01941 17.6893 3.86557 23.202 1.96599C29.7502 -0.290431 33.7612 0.459569 36.9368 1.96599C49.6113 7.97851 53.6042 25.1708 46.1206 27.9997Z" stroke="black" stroke-width="0.8" stroke-linecap="round"/>
<path d="M46.8801 16.2646C47.6312 19.565 48.2569 23.0291 45.4768 24.7517C42.6968 26.4743 36.8679 23.0274 38.0454 15.8045C38.909 10.5078 34.4949 7.20868 37.2411 6.12958C40.2442 4.94951 45.77 11.3866 46.8801 16.2646Z" fill="#FFFCF2" stroke="black" stroke-width="0.8"/>
<path d="M28.2102 4.0529C29.8109 4.47529 30.7616 6.36905 30.2509 8.33628C29.7401 10.3035 27.9906 11.4853 26.3899 11.0629C24.7893 10.6403 23.8391 8.74628 24.3499 6.7791C24.8608 4.81204 26.6096 3.63068 28.2102 4.0529Z" fill="#FFFCF2" stroke="black" stroke-width="0.8"/>
<path d="M25.3898 9.46511C26.3971 9.6343 27.3725 8.81105 27.5683 7.62633C27.7641 6.44161 27.1062 5.34406 26.0989 5.17487C25.0915 5.00568 24.1162 5.82893 23.9204 7.01365C23.7246 8.19837 24.3825 9.29593 25.3898 9.46511Z" fill="black"/>
</g>
<defs>
<clipPath id="clip0_1794_804">
<rect width="51" height="46" fill="white"/>
</clipPath>
</defs>
</svg>
