<svg width="122" height="57" viewBox="0 0 122 57" fill="none" xmlns="http://www.w3.org/2000/svg">
<g clip-path="url(#clip0_768_31)">
<path d="M7.06411 39.4794C6.09771 39.4794 5.33996 39.2159 4.79087 38.6887C4.26375 38.1396 4.00018 37.3819 4.00018 36.4155V19.284C4.00018 18.2956 4.26375 17.5379 4.79087 17.0108C5.318 16.4837 6.06476 16.2201 7.03116 16.2201C8.01953 16.2201 8.76629 16.4837 9.27145 17.0108C9.79858 17.5379 10.0621 18.2956 10.0621 19.284V34.4388H18.1008C18.9354 34.4388 19.5724 34.6584 20.0117 35.0977C20.4729 35.515 20.7035 36.13 20.7035 36.9426C20.7035 37.7553 20.4729 38.3812 20.0117 38.8205C19.5724 39.2598 18.9354 39.4794 18.1008 39.4794H7.06411Z" fill="url(#paint0_linear_768_31)"/>
<path d="M78.9476 40.142C76.9164 40.7076 75.2639 40.5864 73.9901 39.7784C72.7316 38.9433 71.796 37.4255 71.1832 35.225L67.4005 21.6413C67.1413 20.7103 67.1872 19.9338 67.5383 19.3116C67.8895 18.6894 68.5094 18.2546 69.398 18.0072C70.3078 17.7538 71.0738 17.8027 71.696 18.1538C72.3393 18.4991 72.7906 19.1372 73.0499 20.0681L76.7795 33.4614C76.9975 34.2443 77.3047 34.7743 77.7011 35.0515C78.1186 35.3228 78.5707 35.3907 79.0574 35.2552C79.2055 35.214 79.3506 35.1622 79.4929 35.0998C79.6503 35.0103 79.8213 34.9285 80.0059 34.8543C80.3656 34.7541 80.6684 34.818 80.9142 35.0459C81.1812 35.268 81.4326 35.8022 81.6683 36.6485C81.8745 37.389 81.8825 37.991 81.6924 38.4543C81.4963 38.8965 81.1062 39.2559 80.5221 39.5326C80.3587 39.6009 80.1242 39.7004 79.8186 39.8311C79.513 39.9618 79.2227 40.0654 78.9476 40.142Z" fill="url(#paint1_linear_768_31)"/>
<path d="M87.4821 39.676C86.4937 39.676 85.703 39.3795 85.11 38.7864C84.5389 38.1934 84.2534 37.4137 84.2534 36.4473C84.2534 35.5029 84.5389 34.7452 85.11 34.1741C85.703 33.5811 86.4937 33.2846 87.4821 33.2846C88.5144 33.2846 89.305 33.5811 89.8541 34.1741C90.4252 34.7452 90.7107 35.5029 90.7107 36.4473C90.7107 37.4137 90.4252 38.1934 89.8541 38.7864C89.305 39.3795 88.5144 39.676 87.4821 39.676Z" fill="black"/>
<path d="M100.281 39.8407C99.0289 39.8407 97.9198 39.6101 96.9534 39.1488C96.0089 38.6876 95.2622 38.0617 94.7131 37.271C94.186 36.4583 93.9224 35.5359 93.9224 34.5036C93.9224 33.3175 94.2299 32.3841 94.8449 31.7032C95.4598 31.0224 96.4482 30.5392 97.8099 30.2536C99.1717 29.9461 100.984 29.7924 103.246 29.7924H105.058V32.5598H103.246C102.389 32.5598 101.676 32.6257 101.104 32.7575C100.555 32.8673 100.149 33.054 99.8855 33.3175C99.6219 33.5591 99.4902 33.8776 99.4902 34.273C99.4902 34.7781 99.6659 35.1954 100.017 35.5249C100.391 35.8543 100.918 36.019 101.599 36.019C102.148 36.019 102.631 35.8983 103.048 35.6567C103.488 35.4151 103.839 35.0856 104.103 34.6683C104.366 34.229 104.498 33.7239 104.498 33.1528V29.3312C104.498 28.5405 104.289 27.9804 103.872 27.651C103.477 27.3215 102.785 27.1568 101.796 27.1568C101.269 27.1568 100.676 27.2227 100.017 27.3545C99.3584 27.4643 98.6226 27.6729 97.8099 27.9804C97.2169 28.2001 96.7118 28.233 96.2945 28.0793C95.8772 27.9255 95.5477 27.6619 95.3061 27.2886C95.0865 26.9152 94.9766 26.5089 94.9766 26.0696C94.9986 25.6303 95.1414 25.213 95.4049 24.8177C95.6905 24.4223 96.1188 24.1148 96.6898 23.8952C97.7441 23.4999 98.7105 23.2363 99.589 23.1045C100.49 22.9727 101.313 22.9069 102.06 22.9069C103.861 22.9069 105.343 23.1704 106.508 23.6975C107.694 24.2027 108.572 24.9934 109.143 26.0696C109.736 27.1238 110.033 28.4856 110.033 30.1548V36.8097C110.033 37.7761 109.802 38.5119 109.341 39.0171C108.88 39.5222 108.21 39.7748 107.331 39.7748C106.431 39.7748 105.739 39.5222 105.256 39.0171C104.794 38.5119 104.564 37.7761 104.564 36.8097V35.9532L104.761 36.4144C104.652 37.1172 104.399 37.7212 104.004 38.2264C103.608 38.7315 103.092 39.1269 102.455 39.4124C101.818 39.6979 101.094 39.8407 100.281 39.8407Z" fill="black"/>
<path d="M114.337 39.7748C113.414 39.7748 112.701 39.5003 112.195 38.9512C111.69 38.4021 111.438 37.6114 111.438 36.5791V26.1684C111.438 25.1361 111.69 24.3455 112.195 23.7964C112.701 23.2473 113.414 22.9727 114.337 22.9727C115.281 22.9727 116.006 23.2473 116.511 23.7964C117.038 24.3455 117.302 25.1361 117.302 26.1684V36.5791C117.302 37.6114 117.049 38.4021 116.544 38.9512C116.039 39.5003 115.303 39.7748 114.337 39.7748ZM114.337 20.6336C113.305 20.6336 112.503 20.392 111.932 19.9088C111.383 19.4256 111.108 18.7228 111.108 17.8003C111.108 16.8998 111.383 16.208 111.932 15.7248C112.503 15.2416 113.305 15 114.337 15C115.413 15 116.226 15.2416 116.775 15.7248C117.324 16.208 117.598 16.8998 117.598 17.8003C117.598 18.7228 117.324 19.4256 116.775 19.9088C116.226 20.392 115.413 20.6336 114.337 20.6336Z" fill="black"/>
<path d="M58.8183 39.4935C57.5714 39.3818 56.4872 39.0532 55.5658 38.5076C54.6663 37.9639 53.9784 37.2738 53.502 36.4373C53.0495 35.5809 52.8693 34.6386 52.9614 33.6104C53.0672 32.4291 53.4567 31.5268 54.13 30.9035C54.8033 30.2802 55.8308 29.8872 57.2126 29.7243C58.5964 29.5395 60.4149 29.548 62.6681 29.7498L64.4729 29.9115L64.226 32.6679L62.4212 32.5062C61.568 32.4298 60.8512 32.4317 60.2706 32.512C59.7139 32.5724 59.2926 32.7221 59.0065 32.9611C58.7225 33.1782 58.5628 33.4837 58.5275 33.8774C58.4825 34.3806 58.6202 34.8119 58.9409 35.1714C59.2834 35.5328 59.7937 35.7439 60.4719 35.8047C61.0188 35.8537 61.5108 35.7765 61.948 35.5731C62.4071 35.3716 62.7865 35.0748 63.0862 34.6827C63.3879 34.2687 63.5643 33.7773 63.6152 33.2085L63.9562 29.4021C64.0267 28.6146 63.8689 28.0382 63.4826 27.6728C63.1182 27.3094 62.4438 27.0836 61.4594 26.9954C60.9344 26.9484 60.3379 26.9611 59.6698 27.0336C59.0037 27.0842 58.2523 27.2263 57.4154 27.4601C56.8052 27.626 56.2991 27.6137 55.8972 27.4233C55.4952 27.233 55.1906 26.9411 54.9833 26.5476C54.7978 26.1561 54.7247 25.7416 54.7639 25.3041C54.825 24.8686 55.0044 24.4657 55.3022 24.0954C55.6218 23.7271 56.0758 23.4591 56.6642 23.2912C57.7495 22.9915 58.7356 22.8152 59.6224 22.7624C60.5311 22.7115 61.3573 22.7193 62.1011 22.7859C63.8949 22.9466 65.348 23.3414 66.4604 23.9703C67.5967 24.5792 68.4012 25.4451 68.8739 26.568C69.3705 27.671 69.5444 29.0537 69.3955 30.7163L68.8017 37.3447C68.7155 38.3072 68.4202 39.0195 67.9157 39.4815C67.4112 39.9435 66.7215 40.1353 65.8464 40.0569C64.9495 39.9766 64.2829 39.6633 63.8467 39.117C63.4324 38.5727 63.2684 37.8193 63.3546 36.8568L63.431 36.0036L63.5867 36.4806C63.4147 37.1709 63.1092 37.7499 62.6704 38.2178C62.2315 38.6857 61.6822 39.0334 61.0223 39.2609C60.3624 39.4885 59.6278 39.566 58.8183 39.4935Z" fill="url(#paint2_linear_768_31)"/>
<path d="M40.7516 40.344C39.7894 40.4336 39.0214 40.2404 38.4476 39.7645C37.8719 39.2666 37.5392 38.5366 37.4496 37.5743L35.8367 20.2542C35.7451 19.2701 35.9372 18.4912 36.4132 17.9175C36.9111 17.3417 37.6411 17.009 38.6033 16.9194L46.673 16.168C49.2973 15.9236 51.3833 16.4131 52.931 17.6366C54.4986 18.8362 55.3924 20.617 55.6123 22.9788C55.8323 25.3406 55.2837 27.2667 53.9666 28.757C52.6693 30.2233 50.7086 31.0787 48.0843 31.3231L42.9997 31.7966L43.4854 37.0123C43.575 37.9745 43.3938 38.7524 42.9417 39.346C42.4876 39.9177 41.7576 40.2503 40.7516 40.344ZM42.569 27.1713L46.6038 26.7956C47.741 26.6897 48.5934 26.3677 49.1609 25.8295C49.7264 25.2695 49.9633 24.4975 49.8717 23.5134C49.778 22.5074 49.4026 21.7924 48.7455 21.3683C48.0884 20.9442 47.1912 20.7851 46.054 20.891L42.0192 21.2667L42.569 27.1713Z" fill="url(#paint3_linear_768_31)"/>
<path d="M31.6026 37.6007C29.8908 38.5891 28.2369 39.1508 26.6411 39.286C25.0533 39.3911 23.608 39.0843 22.3054 38.3654C21.0027 37.6466 19.9176 36.5358 19.05 35.0332C18.2154 33.5876 17.7989 32.1415 17.8007 30.6949C17.8104 29.2183 18.1912 27.8572 18.943 26.6116C19.7029 25.336 20.7961 24.2864 22.2227 23.4627C23.2688 22.8587 24.3187 22.4808 25.3723 22.329C26.415 22.1582 27.4273 22.2204 28.4094 22.5157C29.3804 22.792 30.2762 23.2893 31.0967 24.0076C31.9362 24.7149 32.6744 25.6201 33.3114 26.7233C33.531 27.1037 33.5911 27.4495 33.4917 27.7605C33.3813 28.0525 33.0979 28.3302 32.6414 28.5938L23.9107 33.6344L22.527 31.2378L28.861 27.5808L28.6186 28.2153C28.2123 27.5115 27.7877 26.9958 27.345 26.6682C26.9022 26.3405 26.4247 26.1724 25.9125 26.1637C25.4193 26.1441 24.8969 26.2936 24.3453 26.612C23.7556 26.9525 23.3244 27.3916 23.0517 27.9295C22.7869 28.4374 22.6942 29.0236 22.7734 29.6879C22.8527 30.3523 23.1229 31.0839 23.5842 31.8828L23.7324 32.1396C24.5121 33.4901 25.367 34.2899 26.2971 34.5391C27.2352 34.7583 28.332 34.5056 29.5874 33.7808C30.0058 33.5392 30.4539 33.2171 30.9316 32.8145C31.4173 32.3819 31.8525 31.9277 32.2373 31.452C32.622 30.9762 33.0335 30.7006 33.4718 30.6251C33.8991 30.5306 34.2957 30.5806 34.6616 30.7751C35.0355 30.9396 35.3419 31.2066 35.5805 31.576C35.8082 31.9264 35.9312 32.3373 35.9497 32.8085C35.9572 33.2607 35.7971 33.7082 35.4694 34.1509C34.9794 34.8396 34.3979 35.4797 33.7249 36.0711C33.0709 36.6516 32.3635 37.1615 31.6026 37.6007Z" fill="url(#paint4_linear_768_31)"/>
</g>
<defs>
<linearGradient id="paint0_linear_768_31" x1="4.00018" y1="27.8498" x2="20.7035" y2="27.8498" gradientUnits="userSpaceOnUse">
<stop stop-color="#C66DFF"/>
<stop offset="1" stop-color="#0047CC"/>
</linearGradient>
<linearGradient id="paint1_linear_768_31" x1="69.8089" y1="30.2898" x2="79.1715" y2="27.6826" gradientUnits="userSpaceOnUse">
<stop stop-color="#C66DFF"/>
<stop offset="1" stop-color="#0047CC"/>
</linearGradient>
<linearGradient id="paint2_linear_768_31" x1="53.2406" y1="30.4931" x2="69.2867" y2="31.9304" gradientUnits="userSpaceOnUse">
<stop stop-color="#C66DFF"/>
<stop offset="1" stop-color="#0047CC"/>
</linearGradient>
<linearGradient id="paint3_linear_768_31" x1="36.6431" y1="28.9143" x2="55.9972" y2="27.112" gradientUnits="userSpaceOnUse">
<stop stop-color="#C66DFF"/>
<stop offset="1" stop-color="#0047CC"/>
</linearGradient>
<linearGradient id="paint4_linear_768_31" x1="19.0665" y1="35.0617" x2="33.3607" y2="26.8088" gradientUnits="userSpaceOnUse">
<stop stop-color="#C66DFF"/>
<stop offset="1" stop-color="#0047CC"/>
</linearGradient>
<clipPath id="clip0_768_31">
<rect width="122" height="57" fill="white"/>
</clipPath>
</defs>
</svg>
