<svg width="65" height="53" viewBox="0 0 65 53" fill="none" xmlns="http://www.w3.org/2000/svg">
<path d="M27.9674 30.9918C30.38 30.434 31.4857 22.3925 31.737 19.8359L39.2766 24.0194C37.266 27.9704 32.491 38.3826 35.5068 40.056C39.2766 42.1477 40.7845 35.1753 45.3082 35.1753C49.078 35.1753 49.078 40.7533 49.832 43.5422C50.5859 46.3312 50.5857 51.9092 46.8161 51.9092C42.9715 51.9092 44.5543 47.0284 40.7845 45.634C37.8145 44.5353 36.1876 47.7121 32.491 47.0284C28.721 46.3312 30.9832 37.267 25.7055 37.267C21.8611 37.267 20.4278 40.7532 21.1816 44.2395C21.9354 47.7257 19.6737 48.4229 16.6579 48.4229C13.6421 48.4229 10.6264 46.3312 7.61055 45.634C4.59473 44.9367 1.72384 41.3166 4.59473 38.6615C6.85645 36.5698 11.3802 39.3588 14.396 38.6615C17.4119 37.9643 16.6581 32.3863 19.6739 30.9918C22.6897 29.5974 24.9515 31.6891 27.9674 30.9918Z" fill="#FFFCF2" stroke="black" stroke-linecap="round"/>
<path d="M56.6631 32.1303C48 36.5 35.0104 30.5267 35.0104 22.5083C29.2136 20.8236 22.4607 23.4502 15.6985 23.0429C6.50069 22.489 -1.71915 18.5123 1.65345 10.7482C3.25704 7.05651 8.55229 7.77739 12.7724 7.0064C17.8593 6.07707 21.0906 4.76894 27.9879 2.61534C36.1808 0.0571899 41.1994 0.907481 45.1726 2.61534C61.0305 9.43183 65.3262 27.7606 56.6631 32.1303Z" fill="#FFFCF2"/>
<path d="M56.6631 32.1303C48 36.5 35.0104 30.5267 35.0104 22.5083C29.2136 20.8236 22.4607 23.4502 15.6985 23.0429C6.50069 22.489 -1.71915 18.5123 1.65345 10.7482C3.25704 7.05651 8.55229 7.77739 12.7724 7.0064C17.8593 6.07707 21.0906 4.76894 27.9879 2.61534C36.1808 0.0571899 41.1994 0.907481 45.1726 2.61534C61.0305 9.43183 65.3262 27.7606 56.6631 32.1303Z" fill="#FFFCF2"/>
<path d="M56.6631 32.1303C48 36.5 35.0104 30.5267 35.0104 22.5083C29.2136 20.8236 22.4607 23.4502 15.6985 23.0429C6.50069 22.489 -1.71915 18.5123 1.65345 10.7482C3.25704 7.05651 8.55229 7.77739 12.7724 7.0064C17.8593 6.07707 21.0906 4.76894 27.9879 2.61534C36.1808 0.0571899 41.1994 0.907481 45.1726 2.61534C61.0305 9.43183 65.3262 27.7606 56.6631 32.1303Z" stroke="black" stroke-linecap="round"/>
<path d="M55.6599 28.1152C54.1389 28.9687 51.6378 28.5819 49.6324 26.8835C47.6599 25.213 46.2507 22.3186 46.9642 18.3531C47.5269 15.2251 46.3643 12.6926 45.5519 10.8623C45.3469 10.4005 45.1673 9.99069 45.0359 9.62138C44.9037 9.25007 44.83 8.94514 44.8227 8.69333C44.8157 8.4495 44.8713 8.2742 44.9804 8.13405C45.0938 7.98851 45.3004 7.83491 45.6818 7.6991C46.4553 7.42371 47.4219 7.58415 48.53 8.16053C49.6289 8.73223 50.7979 9.67985 51.9292 10.8504C54.1922 13.192 56.2397 16.3578 57.2264 18.9719C57.911 20.7858 58.3204 22.6412 58.1515 24.261C57.9847 25.8613 57.2576 27.2181 55.6599 28.1152Z" stroke="black" stroke-width="0.8" stroke-linecap="round"/>
<path d="M34.1144 4.27817C33.7606 5.33244 32.9373 7.33728 31.9063 8.1396C30.9123 8.91305 30.2295 9.05473 28.7314 9.21088" stroke="black" stroke-width="0.8" stroke-linecap="round"/>
<path d="M31.4633 15.5377C31.631 14.3769 31.808 12.1334 31.217 11.067C30.6473 10.0389 30.0705 9.73016 28.7315 9.21072" stroke="black" stroke-width="0.8" stroke-linecap="round"/>
<path d="M34.1147 4.27823C33.9663 5.35694 33.8263 7.44309 34.4337 8.44035C35.0191 9.40173 35.5998 9.69376 36.9447 10.1882" stroke="black" stroke-width="0.8" stroke-linecap="round"/>
<path d="M31.4634 15.5378C31.8365 14.4014 32.6968 12.2393 33.7442 11.3677C34.7538 10.5275 35.4406 10.3692 36.9445 10.188" stroke="black" stroke-width="0.8" stroke-linecap="round"/>
</svg>
