<svg width="109" height="87" viewBox="0 0 109 87" fill="none" xmlns="http://www.w3.org/2000/svg">
<path d="M54.1919 14.7881C46.3945 14.7881 39.2132 18.9867 39.2132 28.5836C39.2132 35.1814 42.2122 37.5806 44.0117 38.7802C38.6134 41.1795 28.5367 47.7773 29.0165 59.7734C29.6164 74.7685 42.812 80.7665 54.8081 80.7665" stroke="black" stroke-width="0.8" stroke-linecap="round"/>
<path d="M54.8081 14.7881C62.6055 14.7881 69.7868 18.9867 69.7868 28.5836C69.7868 35.1814 66.7878 37.5806 64.9883 38.7802C70.3866 41.1795 80.4633 47.7773 79.9835 59.7734C79.3836 74.7685 66.188 80.7665 54.1919 80.7665" stroke="black" stroke-width="0.8" stroke-linecap="round"/>
<circle cx="48.7936" cy="26.1842" r="1.79941" fill="black"/>
<circle cx="60.7896" cy="26.1842" r="1.79941" fill="black"/>
<path d="M49.9932 32.7812C52.3924 34.5807 57.7906 34.5807 59.59 32.7812" stroke="black" stroke-width="0.8" stroke-linecap="round"/>
<path d="M50.5928 50.7754H57.7904" stroke="black" stroke-width="0.8" stroke-linecap="round"/>
<path d="M54.1919 47.1768L54.1919 54.3744" stroke="black" stroke-width="0.8" stroke-linecap="round"/>
<path d="M50.5928 65.1709H57.7904" stroke="black" stroke-width="0.8" stroke-linecap="round"/>
<path d="M54.1919 61.5723L54.1919 68.7699" stroke="black" stroke-width="0.8" stroke-linecap="round"/>
<path d="M53.0855 12.3138C52.0287 13.3096 52.3764 14.6446 53.0126 14.8765C57.4531 16.9268 63.7653 20.9541 67.5641 22.986C67.5641 22.986 69.7001 24.7141 70.7569 23.7183C72.0779 22.4736 71.5275 19.2517 66.4994 15.2611C61.4712 11.2705 54.4065 11.0691 53.0855 12.3138Z" fill="black" stroke="black" stroke-width="0.8" stroke-linecap="round"/>
<path d="M56.3251 9.49326C55.0323 10.6432 54.6015 12.1597 54.9909 12.9466C59.0451 15.1958 67.6508 19.592 69.6393 19.1832C72.1249 18.6723 72.8915 13.4574 67.4191 10.3919C61.9467 7.32627 58.2267 7.80165 56.3251 9.49326Z" fill="black" stroke="black" stroke-width="0.8" stroke-linecap="round"/>
<path d="M66.188 14.7873C66.188 14.2118 66.7987 12.8304 69.2415 11.9096C71.6844 10.9887 73.8219 11.1422 74.5852 11.334" stroke="black" stroke-width="2" stroke-linecap="round"/>
</svg>
