<svg width="109" height="87" viewBox="0 0 109 87" fill="none" xmlns="http://www.w3.org/2000/svg">
<path d="M58.0893 15.0048C50.3597 13.9787 42.6884 17.1958 41.4255 26.7092C40.5572 33.2496 43.2144 36.0227 44.8403 37.4486C39.1733 39.1166 28.3159 44.331 27.213 56.2859C25.8342 71.2295 38.1258 78.9119 50.0175 80.4906" stroke="black" stroke-width="0.8" stroke-linecap="round"/>
<path d="M58.7002 15.086C66.4298 16.1121 72.9961 21.2193 71.7331 30.7327C70.8649 37.2731 67.5762 39.2568 65.6346 40.2092C70.6701 43.2979 79.791 51.1645 77.7366 62.9931C75.1687 77.7788 61.2985 81.9882 49.4067 80.4095" stroke="black" stroke-width="0.8" stroke-linecap="round"/>
<path d="M49.3533 26.1642C49.6174 25.863 50.4101 25.2957 51.4675 25.436C52.5249 25.5764 53.1421 26.3309 53.3185 26.6905" stroke="black" stroke-linecap="round"/>
<circle cx="63.13" cy="27.17" r="1.79941" transform="rotate(7.56196 63.13 27.17)" fill="black"/>
<path d="M51.5591 32.2891C53.7006 34.3886 59.0519 35.099 61.0725 33.552" stroke="black" stroke-width="0.8" stroke-linecap="round"/>
<path d="M49.7856 50.2061L56.9207 51.1533" stroke="black" stroke-width="0.8" stroke-linecap="round"/>
<path d="M53.8271 47.1123L52.8799 54.2474" stroke="black" stroke-width="0.8" stroke-linecap="round"/>
<path d="M47.8916 64.4756L55.0267 65.4228" stroke="black" stroke-width="0.8" stroke-linecap="round"/>
<path d="M51.9331 61.3818L50.9859 68.5169" stroke="black" stroke-width="0.8" stroke-linecap="round"/>
<path d="M57.3182 12.4061C56.1396 13.2541 56.3086 14.6233 56.9087 14.9369C61.0408 17.5537 66.7681 22.3767 70.2664 24.8909C70.2664 24.8909 72.1565 26.885 73.3352 26.037C74.8085 24.977 74.6868 21.7106 70.2276 17.093C65.7684 12.4754 58.7915 11.3461 57.3182 12.4061Z" fill="black" stroke="black" stroke-width="0.8" stroke-linecap="round"/>
<path d="M60.901 10.037C59.4682 11.0068 58.8415 12.4534 59.1239 13.2847C62.8469 16.0479 70.7992 21.5383 72.8242 21.3948C75.3555 21.2154 76.8017 16.1468 71.7803 12.3877C66.7589 8.62862 63.0087 8.61032 60.901 10.037Z" fill="black" stroke="black" stroke-width="0.8" stroke-linecap="round"/>
<path d="M69.981 16.5831C70.0567 16.0126 70.8439 14.7237 73.3867 14.1323C75.9295 13.5409 78.0282 13.9743 78.7597 14.265" stroke="black" stroke-width="2" stroke-linecap="round"/>
<path d="M87 34L89 36" stroke="black" stroke-width="0.8" stroke-linecap="round"/>
<path d="M91 38L93 40" stroke="black" stroke-width="0.8" stroke-linecap="round"/>
<path d="M93 34L91 36" stroke="black" stroke-width="0.8" stroke-linecap="round"/>
<path d="M89 38L87 40" stroke="black" stroke-width="0.8" stroke-linecap="round"/>
<path d="M86 37H94" stroke="black" stroke-width="0.8" stroke-linecap="round"/>
<path d="M90 33L90 41" stroke="black" stroke-width="0.8" stroke-linecap="round"/>
<path d="M17 26L19 28" stroke="black" stroke-width="0.8" stroke-linecap="round"/>
<path d="M21 30L23 32" stroke="black" stroke-width="0.8" stroke-linecap="round"/>
<path d="M23 26L21 28" stroke="black" stroke-width="0.8" stroke-linecap="round"/>
<path d="M19 30L17 32" stroke="black" stroke-width="0.8" stroke-linecap="round"/>
<path d="M16 29H24" stroke="black" stroke-width="0.8" stroke-linecap="round"/>
<path d="M20 25L20 33" stroke="black" stroke-width="0.8" stroke-linecap="round"/>
<path d="M28 11L30 13" stroke="black" stroke-width="0.8" stroke-linecap="round"/>
<path d="M32 15L34 17" stroke="black" stroke-width="0.8" stroke-linecap="round"/>
<path d="M34 11L32 13" stroke="black" stroke-width="0.8" stroke-linecap="round"/>
<path d="M30 15L28 17" stroke="black" stroke-width="0.8" stroke-linecap="round"/>
<path d="M27 14H35" stroke="black" stroke-width="0.8" stroke-linecap="round"/>
<path d="M31 10L31 18" stroke="black" stroke-width="0.8" stroke-linecap="round"/>
</svg>
