<svg width="44" height="44" viewBox="0 0 44 44" fill="none" xmlns="http://www.w3.org/2000/svg">
<circle cx="22" cy="22" r="21.25" fill="black" stroke="black" stroke-width="1.5"/>
<path d="M31.603 17.0993C33.5827 20.2423 33.8622 24.4255 31.9791 28.1273M27.4324 19.1551C29.1034 21.1082 29.3394 23.7078 27.7499 26.0081M20.3796 28.2183L16.7575 25.3531C16.5808 25.2134 16.3621 25.1373 16.1368 25.1374L11.7503 25.1386C11.1979 25.1388 10.75 24.691 10.75 24.1386V19.8605C10.75 19.3082 11.1977 18.8605 11.75 18.8605H16.1371C16.3622 18.8605 16.5807 18.7846 16.7573 18.645L20.3798 15.781C21.0355 15.2626 22 15.7296 22 16.5654V27.434C22 28.2699 21.0352 28.7369 20.3796 28.2183Z" stroke="#FFFCF1" stroke-width="1.5" stroke-linecap="round" stroke-linejoin="round"/>
</svg>
