<svg width="50" height="45" viewBox="0 0 50 45" fill="none" xmlns="http://www.w3.org/2000/svg">
<path d="M29.0952 24C27.5436 27.9171 26.0038 32.9488 27.715 33.9883C30.6235 35.7551 31.7869 29.8659 35.2771 29.8659C38.1856 29.8659 38.1856 34.5772 38.7673 36.9329C39.349 39.2886 39.3489 44 36.4405 44C33.4743 44 34.6954 39.8775 31.7869 38.6997C29.4954 37.7718 28.2402 40.455 25.3882 39.8775C22.4795 39.2886 24.2249 31.6326 20.153 31.6326C17.1869 31.6326 16.0811 34.5772 16.6627 37.5219C17.2442 40.4665 15.4992 41.0554 13.1724 41.0554C10.8456 41.0554 8.51894 39.2886 6.19213 38.6997C3.86533 38.1108 1.65034 35.0531 3.86533 32.8105C5.61032 31.0437 9.10054 33.3994 11.4273 32.8105C13.7541 32.2216 13.1726 27.5102 15.4994 26.3323C17.8262 25.1545 19.5713 26.9212 21.8981 26.3323C23.3316 25.9695 24.1671 21.8576 24.564 19" stroke="black" stroke-width="0.8" stroke-linecap="round"/>
<path d="M24.5 18.6976C20.727 18.5445 16.5818 19.892 12.4322 19.6184C5.33577 19.1505 -1.0061 15.7916 1.59597 9.23372C2.83319 6.11559 6.91864 6.72448 10.1746 6.07327C14.0993 5.28831 16.5923 4.18341 21.9138 2.36438C28.2349 0.203662 32.1069 0.921854 35.1723 2.36439C47.4073 8.1219 51.2618 24.5851 44.0377 27.294C38.7736 29.268 32.3108 27.6459 29.1914 24" stroke="black" stroke-width="0.8" stroke-linecap="round"/>
<path d="M43.2063 23.8431C42.0745 24.5386 40.1934 24.2325 38.6684 22.8186C37.1734 21.4323 36.0892 19.0158 36.6373 15.681C37.0744 13.0211 36.1701 10.8659 35.5429 9.31903C35.3845 8.92846 35.2473 8.58463 35.1469 8.2757C35.0459 7.96516 34.9916 7.71495 34.9862 7.51114C34.9811 7.31509 35.0214 7.17848 35.0981 7.07041C35.178 6.95808 35.3269 6.83545 35.6114 6.72458C36.1774 6.50392 36.9234 6.61824 37.8045 7.08708C38.6762 7.55098 39.6127 8.32853 40.5089 9.30008C42.3051 11.2473 43.8646 13.896 44.3809 16.1465C44.7448 17.7329 45.0618 19.2972 44.9724 20.6607C44.8845 22.0006 44.4082 23.1043 43.2063 23.8431Z" stroke="black" stroke-width="0.8"/>
<path d="M26.6996 4.5496C28.1159 4.92034 29.0056 6.60724 28.5321 8.41607C28.0586 10.2249 26.4562 11.2604 25.0399 10.8897C23.6237 10.5188 22.7351 8.83131 23.2086 7.02252C23.6821 5.21378 25.2833 4.17901 26.6996 4.5496Z" fill="#FFFCF2" stroke="black" stroke-width="0.8"/>
<ellipse cx="24.8483" cy="7.25129" rx="1.78497" ry="2.08246" transform="rotate(9.45912 24.8483 7.25129)" fill="black"/>
</svg>
