<svg width="486" height="647" viewBox="0 0 486 647" fill="none" xmlns="http://www.w3.org/2000/svg">
<circle cx="149.709" cy="341.404" r="87.9041" stroke="black" stroke-linecap="round"/>
<path d="M62.2119 335.963C67.3499 333.394 79.8927 327.622 88.9598 325.083C98.0269 322.544 186.129 309.518 229.046 303.322" stroke="black" stroke-linecap="round"/>
<circle cx="354.625" cy="341.404" r="87.9041" stroke="black" stroke-linecap="round"/>
<path d="M280.729 335.983V326.877C280.276 324.807 278.009 321.909 274.382 321.909C270.737 321.909 268.035 324.807 268.035 327.291V335.983C268.035 338.467 271.209 340.95 274.382 340.95C278.009 340.95 280.729 338.053 280.729 335.983Z" stroke="black" stroke-linecap="round"/>
<path d="M236.299 335.983V326.877C235.846 324.807 233.579 321.909 229.952 321.909C226.308 321.909 223.605 324.807 223.605 327.291V335.983C223.605 338.467 226.779 340.95 229.952 340.95C233.579 340.95 236.299 338.053 236.299 335.983Z" stroke="black" stroke-linecap="round"/>
<line x1="79.1989" y1="289.942" x2="234.252" y2="364.764" stroke="black" stroke-linecap="round"/>
<path d="M279.519 385.164L370.04 427.995" stroke="black" stroke-linecap="round"/>
<line x1="236.971" y1="355.235" x2="272.345" y2="372.922" stroke="black" stroke-linecap="round"/>
<path d="M67.6523 274.307L83.9731 282.921" stroke="black" stroke-linecap="round"/>
<path d="M280.728 294.256L411.687 275.284M232.22 310.577L274.382 304.23" stroke="black" stroke-linecap="round"/>
<path d="M420.381 282.376L440.851 279.295" stroke="black" stroke-linecap="round"/>
<path d="M225.872 297.428C225.419 295.161 224.512 285.641 226.779 279.294C229.984 270.318 238.113 260.707 253.074 260.707C268.034 260.707 275.288 269.32 278.008 277.027C280.184 283.193 279.821 290.628 279.821 294.255" stroke="black" stroke-linecap="round"/>
<path d="M71.2786 381.3C68.105 384.926 63.3904 397.62 68.1051 421.195C72.6385 443.862 94.3995 478.317 108.907 497.358" stroke="black" stroke-linecap="round"/>
<path d="M376.386 427.087C385.302 435.55 403.5 458.085 405.4 480.13C407.667 506.424 400.867 522.745 386.36 539.066C377.589 548.933 347.976 575.183 333.771 586.668" stroke="black" stroke-linecap="round"/>
<path d="M117 84L122.5 77H170.5L163 84H155C154.5 91.5 152.5 105 152 113C151.816 116.787 151.585 118.977 152.5 119.5C155.3 121.1 162.167 118.167 164.5 116.5C162 119.833 155.7 126.5 150.5 126.5C145.3 126.5 144.667 121.833 145 119.5L148.5 84H133.5L129.5 122L122.5 126.5L127 84H117Z" fill="black"/>
<path d="M184.952 83.984C185.411 83.984 185.8 83.9147 186.12 83.776C186.451 83.6267 186.717 83.4187 186.92 83.152C187.133 82.8747 187.272 82.5493 187.336 82.176C187.411 81.792 187.4 81.4667 187.304 81.2C187.219 80.9333 187.037 80.7307 186.76 80.592C186.493 80.4533 186.131 80.384 185.672 80.384H183.192L182.472 83.984H184.952ZM189.272 82.176C189.165 82.7093 188.931 83.2373 188.568 83.76C188.205 84.2827 187.699 84.7147 187.048 85.056C186.408 85.3973 185.608 85.568 184.648 85.568H182.152L181.272 90H179.368L181.608 78.8H185.992C186.877 78.8 187.581 78.9547 188.104 79.264C188.627 79.5627 188.979 79.9733 189.16 80.496C189.352 81.008 189.389 81.568 189.272 82.176ZM192.629 90.112C191.829 90.112 191.163 89.936 190.629 89.584C190.096 89.232 189.723 88.7413 189.509 88.112C189.296 87.4827 189.269 86.7573 189.429 85.936C189.589 85.1573 189.893 84.464 190.341 83.856C190.8 83.248 191.355 82.768 192.005 82.416C192.667 82.064 193.371 81.888 194.117 81.888C194.875 81.888 195.509 82.0533 196.021 82.384C196.533 82.7147 196.891 83.1787 197.093 83.776C197.296 84.3627 197.323 85.0453 197.173 85.824C197.141 85.952 197.104 86.0907 197.061 86.24C197.029 86.3787 196.987 86.528 196.933 86.688H191.237C191.216 87.0613 191.269 87.3867 191.397 87.664C191.536 87.9307 191.733 88.1387 191.989 88.288C192.256 88.4373 192.581 88.512 192.965 88.512C193.403 88.512 193.813 88.4213 194.197 88.24C194.592 88.0587 194.885 87.8187 195.077 87.52L196.565 88.048C196.117 88.688 195.541 89.1947 194.837 89.568C194.144 89.9307 193.408 90.112 192.629 90.112ZM195.317 85.216C195.381 84.8853 195.355 84.5867 195.237 84.32C195.12 84.0533 194.933 83.8453 194.677 83.696C194.432 83.536 194.139 83.456 193.797 83.456C193.499 83.456 193.2 83.5307 192.901 83.68C192.613 83.8293 192.352 84.0373 192.117 84.304C191.883 84.56 191.696 84.864 191.557 85.216H195.317ZM199.31 82H200.942L200.894 82.992C201.16 82.7253 201.454 82.5067 201.774 82.336C202.104 82.1547 202.44 82.032 202.782 81.968C203.123 81.904 203.459 81.9147 203.79 82L203.47 83.664C203.214 83.568 202.92 83.5467 202.59 83.6C202.27 83.6427 201.955 83.76 201.646 83.952C201.336 84.1333 201.059 84.3947 200.814 84.736C200.579 85.0667 200.414 85.4773 200.318 85.968L199.518 90H197.71L199.31 82ZM206.128 82L207.008 88.08L210.336 82H212.24L207.616 90H205.632L204.192 82H206.128ZM216.526 90L216.558 89.024C216.238 89.3653 215.88 89.6267 215.486 89.808C215.102 89.9893 214.616 90.08 214.03 90.08C213.475 90.08 213.011 89.9893 212.638 89.808C212.275 89.616 212.014 89.3547 211.854 89.024C211.704 88.6827 211.678 88.288 211.774 87.84C211.902 87.168 212.259 86.608 212.846 86.16C213.432 85.7013 214.216 85.4187 215.198 85.312L217.342 85.088L217.47 84.464C217.523 84.208 217.454 83.9787 217.262 83.776C217.08 83.5627 216.744 83.456 216.254 83.456C215.838 83.456 215.448 83.5627 215.086 83.776C214.734 83.9787 214.462 84.288 214.27 84.704L212.814 84.128C213.155 83.424 213.667 82.8747 214.35 82.48C215.032 82.0853 215.806 81.888 216.67 81.888C217.715 81.888 218.446 82.1493 218.862 82.672C219.278 83.1947 219.406 83.8613 219.246 84.672L218.19 90H216.526ZM217.07 86.48L215.102 86.72C214.696 86.7733 214.371 86.8907 214.126 87.072C213.88 87.2427 213.731 87.4613 213.678 87.728C213.635 87.9733 213.694 88.1867 213.854 88.368C214.014 88.5387 214.27 88.624 214.622 88.624C215.059 88.624 215.443 88.544 215.774 88.384C216.115 88.224 216.387 87.9947 216.59 87.696C216.803 87.3973 216.958 87.0293 217.054 86.592L217.07 86.48ZM221.539 87.424C221.55 87.7227 221.63 87.952 221.779 88.112C221.939 88.272 222.126 88.384 222.339 88.448C222.563 88.5013 222.776 88.528 222.979 88.528C223.395 88.528 223.736 88.448 224.003 88.288C224.27 88.1173 224.43 87.904 224.483 87.648C224.526 87.4347 224.478 87.2693 224.339 87.152C224.211 87.0347 224.03 86.944 223.795 86.88C223.56 86.8053 223.31 86.7307 223.043 86.656C222.776 86.5813 222.488 86.496 222.179 86.4C221.88 86.304 221.603 86.1707 221.347 86C221.091 85.8293 220.899 85.6107 220.771 85.344C220.643 85.0773 220.616 84.7467 220.691 84.352C220.787 83.8507 221.011 83.4187 221.363 83.056C221.726 82.6827 222.163 82.3947 222.675 82.192C223.198 81.9893 223.758 81.888 224.355 81.888C225.07 81.888 225.656 82.0373 226.115 82.336C226.574 82.6347 226.867 83.072 226.995 83.648L225.299 84.16C225.267 84.0107 225.187 83.8827 225.059 83.776C224.931 83.6693 224.771 83.5947 224.579 83.552C224.398 83.4987 224.211 83.472 224.019 83.472C223.667 83.472 223.358 83.5413 223.091 83.68C222.835 83.8187 222.68 84.016 222.627 84.272C222.606 84.4 222.622 84.512 222.675 84.608C222.739 84.704 222.835 84.784 222.963 84.848C223.091 84.9013 223.246 84.9547 223.427 85.008C223.608 85.0507 223.806 85.104 224.019 85.168C224.339 85.264 224.654 85.3707 224.963 85.488C225.283 85.5947 225.56 85.7333 225.795 85.904C226.04 86.0747 226.222 86.2987 226.339 86.576C226.456 86.8533 226.478 87.2053 226.403 87.632C226.318 88.0907 226.104 88.512 225.763 88.896C225.422 89.2693 224.979 89.568 224.435 89.792C223.902 90.0053 223.294 90.112 222.611 90.112C221.822 90.112 221.176 89.9413 220.675 89.6C220.184 89.2587 219.907 88.7093 219.843 87.952L221.539 87.424ZM229.161 82H230.969L229.385 90H227.577L229.161 82ZM230.313 80.784C229.982 80.784 229.726 80.672 229.545 80.448C229.363 80.224 229.305 79.9573 229.369 79.648C229.433 79.3173 229.598 79.04 229.865 78.816C230.142 78.592 230.446 78.48 230.777 78.48C231.097 78.48 231.347 78.592 231.529 78.816C231.71 79.04 231.769 79.3173 231.705 79.648C231.641 79.9573 231.475 80.224 231.209 80.448C230.942 80.672 230.643 80.784 230.313 80.784ZM234.27 82L235.15 88.08L238.478 82H240.382L235.758 90H233.774L232.334 82H234.27ZM243.467 90.112C242.667 90.112 242.001 89.936 241.467 89.584C240.934 89.232 240.561 88.7413 240.347 88.112C240.134 87.4827 240.107 86.7573 240.267 85.936C240.427 85.1573 240.731 84.464 241.179 83.856C241.638 83.248 242.193 82.768 242.843 82.416C243.505 82.064 244.209 81.888 244.955 81.888C245.713 81.888 246.347 82.0533 246.859 82.384C247.371 82.7147 247.729 83.1787 247.931 83.776C248.134 84.3627 248.161 85.0453 248.011 85.824C247.979 85.952 247.942 86.0907 247.899 86.24C247.867 86.3787 247.825 86.528 247.771 86.688H242.075C242.054 87.0613 242.107 87.3867 242.235 87.664C242.374 87.9307 242.571 88.1387 242.827 88.288C243.094 88.4373 243.419 88.512 243.803 88.512C244.241 88.512 244.651 88.4213 245.035 88.24C245.43 88.0587 245.723 87.8187 245.915 87.52L247.403 88.048C246.955 88.688 246.379 89.1947 245.675 89.568C244.982 89.9307 244.246 90.112 243.467 90.112ZM246.155 85.216C246.219 84.8853 246.193 84.5867 246.075 84.32C245.958 84.0533 245.771 83.8453 245.515 83.696C245.27 83.536 244.977 83.456 244.635 83.456C244.337 83.456 244.038 83.5307 243.739 83.68C243.451 83.8293 243.19 84.0373 242.955 84.304C242.721 84.56 242.534 84.864 242.395 85.216H246.155ZM181.608 94.8H183.512L182.552 99.536H187.832L188.792 94.8H190.68L188.44 106H186.552L187.512 101.12H182.248L181.272 106H179.368L181.608 94.8ZM197.222 106H195.558L195.606 105.2C195.286 105.488 194.923 105.712 194.518 105.872C194.113 106.032 193.702 106.112 193.286 106.112C192.657 106.112 192.139 105.984 191.734 105.728C191.339 105.461 191.067 105.077 190.918 104.576C190.769 104.064 190.769 103.435 190.918 102.688L191.846 98H193.654L192.774 102.448C192.635 103.109 192.667 103.616 192.87 103.968C193.073 104.309 193.446 104.48 193.99 104.48C194.545 104.48 195.003 104.309 195.366 103.968C195.729 103.616 195.979 103.099 196.118 102.416L196.998 98H198.806L197.222 106ZM200.591 98H202.223V98.752C202.532 98.4853 202.884 98.2773 203.279 98.128C203.674 97.968 204.084 97.888 204.511 97.888C205.044 97.888 205.503 98 205.887 98.224C206.271 98.4373 206.559 98.752 206.751 99.168C207.103 98.752 207.54 98.4373 208.063 98.224C208.586 98 209.124 97.888 209.679 97.888C210.308 97.888 210.826 98.0213 211.231 98.288C211.647 98.544 211.93 98.928 212.079 99.44C212.239 99.9413 212.244 100.571 212.095 101.328L211.167 106H209.343L210.223 101.568C210.362 100.896 210.319 100.389 210.095 100.048C209.882 99.7067 209.503 99.536 208.959 99.536C208.404 99.536 207.935 99.712 207.551 100.064C207.178 100.405 206.927 100.917 206.799 101.6L205.919 106H204.111L204.991 101.568C205.119 100.896 205.087 100.389 204.895 100.048C204.703 99.7067 204.335 99.536 203.791 99.536C203.247 99.536 202.794 99.712 202.431 100.064C202.068 100.405 201.823 100.912 201.695 101.584L200.815 106H199.007L200.591 98ZM217.611 106L217.643 105.024C217.323 105.365 216.966 105.627 216.571 105.808C216.187 105.989 215.702 106.08 215.115 106.08C214.561 106.08 214.097 105.989 213.723 105.808C213.361 105.616 213.099 105.355 212.939 105.024C212.79 104.683 212.763 104.288 212.859 103.84C212.987 103.168 213.345 102.608 213.931 102.16C214.518 101.701 215.302 101.419 216.283 101.312L218.427 101.088L218.555 100.464C218.609 100.208 218.539 99.9787 218.347 99.776C218.166 99.5627 217.83 99.456 217.339 99.456C216.923 99.456 216.534 99.5627 216.171 99.776C215.819 99.9787 215.547 100.288 215.355 100.704L213.899 100.128C214.241 99.424 214.753 98.8747 215.435 98.48C216.118 98.0853 216.891 97.888 217.755 97.888C218.801 97.888 219.531 98.1493 219.947 98.672C220.363 99.1947 220.491 99.8613 220.331 100.672L219.275 106H217.611ZM218.155 102.48L216.187 102.72C215.782 102.773 215.457 102.891 215.211 103.072C214.966 103.243 214.817 103.461 214.763 103.728C214.721 103.973 214.779 104.187 214.939 104.368C215.099 104.539 215.355 104.624 215.707 104.624C216.145 104.624 216.529 104.544 216.859 104.384C217.201 104.224 217.473 103.995 217.675 103.696C217.889 103.397 218.043 103.029 218.139 102.592L218.155 102.48ZM222.545 98H224.177L224.161 98.784C224.481 98.5067 224.838 98.288 225.233 98.128C225.638 97.968 226.054 97.888 226.481 97.888C227.11 97.888 227.622 98.0213 228.017 98.288C228.422 98.544 228.694 98.928 228.833 99.44C228.982 99.9413 228.982 100.571 228.833 101.328L227.905 106H226.097L226.961 101.568C227.099 100.896 227.067 100.389 226.865 100.048C226.662 99.7067 226.289 99.536 225.745 99.536C225.201 99.536 224.747 99.712 224.385 100.064C224.022 100.405 223.777 100.912 223.649 101.584L222.769 106H220.961L222.545 98ZM234.367 100.4C234.537 99.5573 234.836 98.7893 235.263 98.096C235.7 97.392 236.228 96.7893 236.847 96.288C237.476 95.776 238.159 95.3813 238.895 95.104C239.641 94.8267 240.404 94.688 241.183 94.688C242.281 94.688 243.225 94.9493 244.015 95.472C244.815 95.9947 245.343 96.7467 245.599 97.728L243.951 98.256C243.801 97.7867 243.567 97.408 243.247 97.12C242.927 96.832 242.559 96.624 242.143 96.496C241.737 96.368 241.327 96.304 240.911 96.304C240.185 96.304 239.503 96.4747 238.863 96.816C238.223 97.1467 237.673 97.6213 237.215 98.24C236.767 98.848 236.463 99.568 236.303 100.4C236.143 101.221 236.164 101.941 236.367 102.56C236.58 103.168 236.937 103.643 237.439 103.984C237.951 104.325 238.564 104.496 239.279 104.496C239.705 104.496 240.153 104.432 240.623 104.304C241.103 104.165 241.572 103.931 242.031 103.6C242.489 103.259 242.916 102.805 243.311 102.24L244.751 102.736C244.036 103.888 243.167 104.741 242.143 105.296C241.119 105.84 240.041 106.112 238.911 106.112C238.132 106.112 237.428 105.973 236.799 105.696C236.169 105.419 235.641 105.024 235.215 104.512C234.799 104 234.511 103.397 234.351 102.704C234.201 102 234.207 101.232 234.367 100.4ZM249.162 106.112C248.394 106.112 247.738 105.947 247.194 105.616C246.661 105.275 246.282 104.8 246.058 104.192C245.834 103.573 245.802 102.848 245.962 102.016C246.133 101.173 246.458 100.443 246.938 99.824C247.418 99.2053 247.994 98.7307 248.666 98.4C249.349 98.0587 250.074 97.888 250.842 97.888C251.61 97.888 252.266 98.0587 252.81 98.4C253.365 98.7307 253.759 99.2053 253.994 99.824C254.229 100.432 254.266 101.152 254.106 101.984C253.935 102.827 253.605 103.557 253.114 104.176C252.623 104.795 252.031 105.275 251.338 105.616C250.655 105.947 249.93 106.112 249.162 106.112ZM249.466 104.496C249.839 104.496 250.213 104.405 250.586 104.224C250.959 104.043 251.29 103.771 251.578 103.408C251.866 103.035 252.063 102.56 252.17 101.984C252.277 101.429 252.266 100.971 252.138 100.608C252.01 100.235 251.797 99.9573 251.498 99.776C251.21 99.5947 250.874 99.504 250.49 99.504C250.117 99.504 249.749 99.5947 249.386 99.776C249.034 99.9573 248.725 100.235 248.458 100.608C248.202 100.971 248.015 101.44 247.898 102.016C247.791 102.571 247.791 103.035 247.898 103.408C248.015 103.771 248.213 104.043 248.49 104.224C248.767 104.405 249.093 104.496 249.466 104.496ZM256.265 98H257.897V98.752C258.206 98.4853 258.558 98.2773 258.953 98.128C259.347 97.968 259.758 97.888 260.185 97.888C260.718 97.888 261.177 98 261.561 98.224C261.945 98.4373 262.233 98.752 262.425 99.168C262.777 98.752 263.214 98.4373 263.737 98.224C264.259 98 264.798 97.888 265.353 97.888C265.982 97.888 266.499 98.0213 266.905 98.288C267.321 98.544 267.603 98.928 267.753 99.44C267.913 99.9413 267.918 100.571 267.769 101.328L266.841 106H265.017L265.897 101.568C266.035 100.896 265.993 100.389 265.769 100.048C265.555 99.7067 265.177 99.536 264.633 99.536C264.078 99.536 263.609 99.712 263.225 100.064C262.851 100.405 262.601 100.917 262.473 101.6L261.593 106H259.785L260.665 101.568C260.793 100.896 260.761 100.389 260.569 100.048C260.377 99.7067 260.009 99.536 259.465 99.536C258.921 99.536 258.467 99.712 258.105 100.064C257.742 100.405 257.497 100.912 257.369 101.584L256.489 106H254.681L256.265 98ZM270.341 104.816L270.565 104.768L269.685 109.2H267.877L270.101 98H271.733L271.669 98.992C271.893 98.7787 272.144 98.592 272.421 98.432C272.709 98.2613 273.024 98.128 273.365 98.032C273.706 97.936 274.08 97.888 274.485 97.888C275.178 97.888 275.76 98.0587 276.229 98.4C276.698 98.7413 277.024 99.2213 277.205 99.84C277.386 100.448 277.392 101.168 277.221 102C277.061 102.821 276.768 103.541 276.341 104.16C275.925 104.779 275.413 105.259 274.805 105.6C274.197 105.941 273.541 106.112 272.837 106.112C272.197 106.112 271.669 105.989 271.253 105.744C270.837 105.488 270.533 105.179 270.341 104.816ZM275.285 102C275.445 101.264 275.376 100.667 275.077 100.208C274.789 99.7493 274.33 99.52 273.701 99.52C273.328 99.52 272.96 99.616 272.597 99.808C272.245 100 271.936 100.277 271.669 100.64C271.402 101.003 271.216 101.456 271.109 102C271.002 102.533 271.008 102.987 271.125 103.36C271.242 103.723 271.44 104 271.717 104.192C272.005 104.384 272.341 104.48 272.725 104.48C273.141 104.48 273.525 104.379 273.877 104.176C274.229 103.963 274.528 103.669 274.773 103.296C275.029 102.923 275.2 102.491 275.285 102ZM284.654 106H282.99L283.038 105.2C282.718 105.488 282.356 105.712 281.95 105.872C281.545 106.032 281.134 106.112 280.718 106.112C280.089 106.112 279.572 105.984 279.166 105.728C278.772 105.461 278.5 105.077 278.35 104.576C278.201 104.064 278.201 103.435 278.35 102.688L279.278 98H281.086L280.206 102.448C280.068 103.109 280.1 103.616 280.302 103.968C280.505 104.309 280.878 104.48 281.422 104.48C281.977 104.48 282.436 104.309 282.798 103.968C283.161 103.616 283.412 103.099 283.55 102.416L284.43 98H286.238L284.654 106ZM288.552 98L289 95.76H290.84L290.392 98H292.264L291.944 99.584H290.072L289.368 103.136C289.272 103.616 289.298 103.952 289.448 104.144C289.597 104.325 289.81 104.427 290.088 104.448C290.376 104.459 290.68 104.443 291 104.4L290.68 105.936C290.2 106.032 289.741 106.059 289.304 106.016C288.877 105.984 288.509 105.867 288.2 105.664C287.89 105.451 287.672 105.141 287.544 104.736C287.416 104.331 287.416 103.797 287.544 103.136L288.248 99.584H287.128L287.432 98H288.552ZM295.469 106.112C294.669 106.112 294.002 105.936 293.469 105.584C292.935 105.232 292.562 104.741 292.349 104.112C292.135 103.483 292.109 102.757 292.269 101.936C292.429 101.157 292.733 100.464 293.181 99.856C293.639 99.248 294.194 98.768 294.845 98.416C295.506 98.064 296.21 97.888 296.957 97.888C297.714 97.888 298.349 98.0533 298.861 98.384C299.373 98.7147 299.73 99.1787 299.933 99.776C300.135 100.363 300.162 101.045 300.013 101.824C299.981 101.952 299.943 102.091 299.901 102.24C299.869 102.379 299.826 102.528 299.773 102.688H294.077C294.055 103.061 294.109 103.387 294.237 103.664C294.375 103.931 294.573 104.139 294.829 104.288C295.095 104.437 295.421 104.512 295.805 104.512C296.242 104.512 296.653 104.421 297.037 104.24C297.431 104.059 297.725 103.819 297.917 103.52L299.405 104.048C298.957 104.688 298.381 105.195 297.677 105.568C296.983 105.931 296.247 106.112 295.469 106.112ZM298.157 101.216C298.221 100.885 298.194 100.587 298.077 100.32C297.959 100.053 297.773 99.8453 297.517 99.696C297.271 99.536 296.978 99.456 296.637 99.456C296.338 99.456 296.039 99.5307 295.741 99.68C295.453 99.8293 295.191 100.037 294.957 100.304C294.722 100.56 294.535 100.864 294.397 101.216H298.157ZM302.149 98H303.781L303.733 98.992C304 98.7253 304.293 98.5067 304.613 98.336C304.944 98.1547 305.28 98.032 305.621 97.968C305.962 97.904 306.298 97.9147 306.629 98L306.309 99.664C306.053 99.568 305.76 99.5467 305.429 99.6C305.109 99.6427 304.794 99.76 304.485 99.952C304.176 100.133 303.898 100.395 303.653 100.736C303.418 101.067 303.253 101.477 303.157 101.968L302.357 106H300.549L302.149 98ZM312.652 94.8H314.556L312.316 106H310.412L312.652 94.8ZM315.83 98H317.462L317.446 98.784C317.766 98.5067 318.123 98.288 318.518 98.128C318.923 97.968 319.339 97.888 319.766 97.888C320.395 97.888 320.907 98.0213 321.302 98.288C321.707 98.544 321.979 98.928 322.118 99.44C322.267 99.9413 322.267 100.571 322.118 101.328L321.19 106H319.382L320.246 101.568C320.384 100.896 320.352 100.389 320.15 100.048C319.947 99.7067 319.574 99.536 319.03 99.536C318.486 99.536 318.032 99.712 317.67 100.064C317.307 100.405 317.062 100.912 316.934 101.584L316.054 106H314.246L315.83 98ZM324.975 98L325.423 95.76H327.263L326.815 98H328.687L328.367 99.584H326.495L325.791 103.136C325.695 103.616 325.722 103.952 325.871 104.144C326.021 104.325 326.234 104.427 326.511 104.448C326.799 104.459 327.103 104.443 327.423 104.4L327.103 105.936C326.623 106.032 326.165 106.059 325.727 106.016C325.301 105.984 324.933 105.867 324.623 105.664C324.314 105.451 324.095 105.141 323.967 104.736C323.839 104.331 323.839 103.797 323.967 103.136L324.671 99.584H323.551L323.855 98H324.975ZM331.893 106.112C331.093 106.112 330.426 105.936 329.893 105.584C329.359 105.232 328.986 104.741 328.773 104.112C328.559 103.483 328.533 102.757 328.693 101.936C328.853 101.157 329.157 100.464 329.605 99.856C330.063 99.248 330.618 98.768 331.269 98.416C331.93 98.064 332.634 97.888 333.381 97.888C334.138 97.888 334.773 98.0533 335.285 98.384C335.797 98.7147 336.154 99.1787 336.357 99.776C336.559 100.363 336.586 101.045 336.437 101.824C336.405 101.952 336.367 102.091 336.325 102.24C336.293 102.379 336.25 102.528 336.197 102.688H330.501C330.479 103.061 330.533 103.387 330.661 103.664C330.799 103.931 330.997 104.139 331.253 104.288C331.519 104.437 331.845 104.512 332.229 104.512C332.666 104.512 333.077 104.421 333.461 104.24C333.855 104.059 334.149 103.819 334.341 103.52L335.829 104.048C335.381 104.688 334.805 105.195 334.101 105.568C333.407 105.931 332.671 106.112 331.893 106.112ZM334.581 101.216C334.645 100.885 334.618 100.587 334.501 100.32C334.383 100.053 334.197 99.8453 333.941 99.696C333.695 99.536 333.402 99.456 333.061 99.456C332.762 99.456 332.463 99.5307 332.165 99.68C331.877 99.8293 331.615 100.037 331.381 100.304C331.146 100.56 330.959 100.864 330.821 101.216H334.581ZM338.573 98H340.205L340.157 98.992C340.424 98.7253 340.717 98.5067 341.037 98.336C341.368 98.1547 341.704 98.032 342.045 97.968C342.386 97.904 342.722 97.9147 343.053 98L342.733 99.664C342.477 99.568 342.184 99.5467 341.853 99.6C341.533 99.6427 341.218 99.76 340.909 99.952C340.6 100.133 340.322 100.395 340.077 100.736C339.842 101.067 339.677 101.477 339.581 101.968L338.781 106H336.973L338.573 98ZM347.343 106L347.375 105.024C347.055 105.365 346.698 105.627 346.303 105.808C345.919 105.989 345.434 106.08 344.847 106.08C344.292 106.08 343.828 105.989 343.455 105.808C343.092 105.616 342.831 105.355 342.671 105.024C342.522 104.683 342.495 104.288 342.591 103.84C342.719 103.168 343.076 102.608 343.663 102.16C344.25 101.701 345.034 101.419 346.015 101.312L348.159 101.088L348.287 100.464C348.34 100.208 348.271 99.9787 348.079 99.776C347.898 99.5627 347.562 99.456 347.071 99.456C346.655 99.456 346.266 99.5627 345.903 99.776C345.551 99.9787 345.279 100.288 345.087 100.704L343.631 100.128C343.972 99.424 344.484 98.8747 345.167 98.48C345.85 98.0853 346.623 97.888 347.487 97.888C348.532 97.888 349.263 98.1493 349.679 98.672C350.095 99.1947 350.223 99.8613 350.063 100.672L349.007 106H347.343ZM347.887 102.48L345.919 102.72C345.514 102.773 345.188 102.891 344.943 103.072C344.698 103.243 344.548 103.461 344.495 103.728C344.452 103.973 344.511 104.187 344.671 104.368C344.831 104.539 345.087 104.624 345.439 104.624C345.876 104.624 346.26 104.544 346.591 104.384C346.932 104.224 347.204 103.995 347.407 103.696C347.62 103.397 347.775 103.029 347.871 102.592L347.887 102.48ZM354.133 106.112C353.365 106.112 352.719 105.941 352.197 105.6C351.685 105.248 351.322 104.768 351.109 104.16C350.906 103.552 350.885 102.843 351.045 102.032C351.205 101.211 351.514 100.491 351.973 99.872C352.431 99.2533 352.991 98.768 353.653 98.416C354.314 98.064 355.034 97.888 355.813 97.888C356.634 97.888 357.322 98.0853 357.877 98.48C358.442 98.864 358.794 99.3867 358.933 100.048L357.189 100.592C357.114 100.261 356.927 100 356.629 99.808C356.341 99.6053 355.983 99.504 355.557 99.504C355.13 99.504 354.741 99.6107 354.389 99.824C354.037 100.027 353.738 100.315 353.493 100.688C353.247 101.061 353.077 101.504 352.981 102.016C352.831 102.784 352.895 103.392 353.173 103.84C353.461 104.277 353.935 104.496 354.597 104.496C355.002 104.496 355.391 104.405 355.765 104.224C356.149 104.032 356.458 103.765 356.693 103.424L358.181 103.984C357.754 104.635 357.173 105.152 356.437 105.536C355.711 105.92 354.943 106.112 354.133 106.112ZM361.282 98L361.73 95.76H363.57L363.122 98H364.994L364.674 99.584H362.802L362.098 103.136C362.002 103.616 362.028 103.952 362.178 104.144C362.327 104.325 362.54 104.427 362.818 104.448C363.106 104.459 363.41 104.443 363.73 104.4L363.41 105.936C362.93 106.032 362.471 106.059 362.034 106.016C361.607 105.984 361.239 105.867 360.93 105.664C360.62 105.451 360.402 105.141 360.274 104.736C360.146 104.331 360.146 103.797 360.274 103.136L360.978 99.584H359.858L360.162 98H361.282ZM366.471 98H368.279L366.695 106H364.887L366.471 98ZM367.623 96.784C367.292 96.784 367.036 96.672 366.855 96.448C366.673 96.224 366.615 95.9573 366.679 95.648C366.743 95.3173 366.908 95.04 367.175 94.816C367.452 94.592 367.756 94.48 368.087 94.48C368.407 94.48 368.657 94.592 368.839 94.816C369.02 95.04 369.079 95.3173 369.015 95.648C368.951 95.9573 368.785 96.224 368.519 96.448C368.252 96.672 367.953 96.784 367.623 96.784ZM372.316 106.112C371.548 106.112 370.892 105.947 370.348 105.616C369.815 105.275 369.436 104.8 369.212 104.192C368.988 103.573 368.956 102.848 369.116 102.016C369.287 101.173 369.612 100.443 370.092 99.824C370.572 99.2053 371.148 98.7307 371.82 98.4C372.503 98.0587 373.228 97.888 373.996 97.888C374.764 97.888 375.42 98.0587 375.964 98.4C376.519 98.7307 376.913 99.2053 377.148 99.824C377.383 100.432 377.42 101.152 377.26 101.984C377.089 102.827 376.759 103.557 376.268 104.176C375.777 104.795 375.185 105.275 374.492 105.616C373.809 105.947 373.084 106.112 372.316 106.112ZM372.62 104.496C372.993 104.496 373.367 104.405 373.74 104.224C374.113 104.043 374.444 103.771 374.732 103.408C375.02 103.035 375.217 102.56 375.324 101.984C375.431 101.429 375.42 100.971 375.292 100.608C375.164 100.235 374.951 99.9573 374.652 99.776C374.364 99.5947 374.028 99.504 373.644 99.504C373.271 99.504 372.903 99.5947 372.54 99.776C372.188 99.9573 371.879 100.235 371.612 100.608C371.356 100.971 371.169 101.44 371.052 102.016C370.945 102.571 370.945 103.035 371.052 103.408C371.169 103.771 371.367 104.043 371.644 104.224C371.921 104.405 372.247 104.496 372.62 104.496ZM379.419 98H381.051L381.035 98.784C381.355 98.5067 381.712 98.288 382.107 98.128C382.512 97.968 382.928 97.888 383.355 97.888C383.984 97.888 384.496 98.0213 384.891 98.288C385.296 98.544 385.568 98.928 385.707 99.44C385.856 99.9413 385.856 100.571 385.707 101.328L384.779 106H382.971L383.835 101.568C383.973 100.896 383.941 100.389 383.739 100.048C383.536 99.7067 383.163 99.536 382.619 99.536C382.075 99.536 381.621 99.712 381.259 100.064C380.896 100.405 380.651 100.912 380.523 101.584L379.643 106H377.835L379.419 98ZM183.512 110.8L181.592 120.416H186.616L186.296 122H179.368L181.608 110.8H183.512ZM192.22 122L192.252 121.024C191.932 121.365 191.575 121.627 191.18 121.808C190.796 121.989 190.311 122.08 189.724 122.08C189.169 122.08 188.705 121.989 188.332 121.808C187.969 121.616 187.708 121.355 187.548 121.024C187.399 120.683 187.372 120.288 187.468 119.84C187.596 119.168 187.953 118.608 188.54 118.16C189.127 117.701 189.911 117.419 190.892 117.312L193.036 117.088L193.164 116.464C193.217 116.208 193.148 115.979 192.956 115.776C192.775 115.563 192.439 115.456 191.948 115.456C191.532 115.456 191.143 115.563 190.78 115.776C190.428 115.979 190.156 116.288 189.964 116.704L188.508 116.128C188.849 115.424 189.361 114.875 190.044 114.48C190.727 114.085 191.5 113.888 192.364 113.888C193.409 113.888 194.14 114.149 194.556 114.672C194.972 115.195 195.1 115.861 194.94 116.672L193.884 122H192.22ZM192.764 118.48L190.796 118.72C190.391 118.773 190.065 118.891 189.82 119.072C189.575 119.243 189.425 119.461 189.372 119.728C189.329 119.973 189.388 120.187 189.548 120.368C189.708 120.539 189.964 120.624 190.316 120.624C190.753 120.624 191.137 120.544 191.468 120.384C191.809 120.224 192.081 119.995 192.284 119.696C192.497 119.397 192.652 119.029 192.748 118.592L192.764 118.48ZM198.53 115.184C198.85 114.821 199.271 114.517 199.794 114.272C200.316 114.016 200.898 113.888 201.538 113.888C202.242 113.888 202.828 114.059 203.298 114.4C203.767 114.741 204.087 115.221 204.258 115.84C204.439 116.459 204.444 117.179 204.274 118C204.114 118.821 203.82 119.541 203.394 120.16C202.978 120.779 202.466 121.259 201.858 121.6C201.25 121.941 200.594 122.112 199.89 122.112C199.292 122.112 198.802 122.005 198.418 121.792C198.034 121.579 197.735 121.317 197.522 121.008L197.202 122H195.57L197.858 110.48H199.666L198.722 115.232L198.53 115.184ZM202.338 118C202.498 117.264 202.428 116.667 202.13 116.208C201.842 115.749 201.383 115.52 200.754 115.52C200.38 115.52 200.012 115.616 199.65 115.808C199.298 116 198.988 116.283 198.722 116.656C198.455 117.019 198.268 117.467 198.162 118C198.055 118.533 198.06 118.987 198.178 119.36C198.295 119.723 198.492 120 198.77 120.192C199.058 120.384 199.394 120.48 199.778 120.48C200.194 120.48 200.578 120.379 200.93 120.176C201.282 119.963 201.58 119.669 201.826 119.296C202.082 118.923 202.252 118.491 202.338 118ZM208.317 122.112C207.549 122.112 206.893 121.947 206.349 121.616C205.816 121.275 205.437 120.8 205.213 120.192C204.989 119.573 204.957 118.848 205.117 118.016C205.288 117.173 205.613 116.443 206.093 115.824C206.573 115.205 207.149 114.731 207.821 114.4C208.504 114.059 209.229 113.888 209.997 113.888C210.765 113.888 211.421 114.059 211.965 114.4C212.52 114.731 212.914 115.205 213.149 115.824C213.384 116.432 213.421 117.152 213.261 117.984C213.09 118.827 212.76 119.557 212.269 120.176C211.778 120.795 211.186 121.275 210.493 121.616C209.81 121.947 209.085 122.112 208.317 122.112ZM208.621 120.496C208.994 120.496 209.368 120.405 209.741 120.224C210.114 120.043 210.445 119.771 210.733 119.408C211.021 119.035 211.218 118.56 211.325 117.984C211.432 117.429 211.421 116.971 211.293 116.608C211.165 116.235 210.952 115.957 210.653 115.776C210.365 115.595 210.029 115.504 209.645 115.504C209.272 115.504 208.904 115.595 208.541 115.776C208.189 115.957 207.88 116.235 207.613 116.608C207.357 116.971 207.17 117.44 207.053 118.016C206.946 118.571 206.946 119.035 207.053 119.408C207.17 119.771 207.368 120.043 207.645 120.224C207.922 120.405 208.248 120.496 208.621 120.496ZM215.42 114H217.052L217.004 114.992C217.27 114.725 217.564 114.507 217.884 114.336C218.214 114.155 218.55 114.032 218.892 113.968C219.233 113.904 219.569 113.915 219.9 114L219.58 115.664C219.324 115.568 219.03 115.547 218.7 115.6C218.38 115.643 218.065 115.76 217.756 115.952C217.446 116.133 217.169 116.395 216.924 116.736C216.689 117.067 216.524 117.477 216.428 117.968L215.628 122H213.82L215.42 114ZM224.19 122L224.222 121.024C223.902 121.365 223.545 121.627 223.15 121.808C222.766 121.989 222.281 122.08 221.694 122.08C221.139 122.08 220.675 121.989 220.302 121.808C219.939 121.616 219.678 121.355 219.518 121.024C219.369 120.683 219.342 120.288 219.438 119.84C219.566 119.168 219.923 118.608 220.51 118.16C221.097 117.701 221.881 117.419 222.862 117.312L225.006 117.088L225.134 116.464C225.187 116.208 225.118 115.979 224.926 115.776C224.745 115.563 224.409 115.456 223.918 115.456C223.502 115.456 223.113 115.563 222.75 115.776C222.398 115.979 222.126 116.288 221.934 116.704L220.478 116.128C220.819 115.424 221.331 114.875 222.014 114.48C222.697 114.085 223.47 113.888 224.334 113.888C225.379 113.888 226.11 114.149 226.526 114.672C226.942 115.195 227.07 115.861 226.91 116.672L225.854 122H224.19ZM224.734 118.48L222.766 118.72C222.361 118.773 222.035 118.891 221.79 119.072C221.545 119.243 221.395 119.461 221.342 119.728C221.299 119.973 221.358 120.187 221.518 120.368C221.678 120.539 221.934 120.624 222.286 120.624C222.723 120.624 223.107 120.544 223.438 120.384C223.779 120.224 224.051 119.995 224.254 119.696C224.467 119.397 224.622 119.029 224.718 118.592L224.734 118.48ZM229.652 114L230.1 111.76H231.94L231.492 114H233.364L233.044 115.584H231.172L230.468 119.136C230.372 119.616 230.398 119.952 230.548 120.144C230.697 120.325 230.91 120.427 231.188 120.448C231.476 120.459 231.78 120.443 232.1 120.4L231.78 121.936C231.3 122.032 230.841 122.059 230.404 122.016C229.977 121.984 229.609 121.867 229.3 121.664C228.99 121.451 228.772 121.141 228.644 120.736C228.516 120.331 228.516 119.797 228.644 119.136L229.348 115.584H228.228L228.532 114H229.652ZM236.553 122.112C235.785 122.112 235.129 121.947 234.585 121.616C234.051 121.275 233.673 120.8 233.449 120.192C233.225 119.573 233.193 118.848 233.353 118.016C233.523 117.173 233.849 116.443 234.329 115.824C234.809 115.205 235.385 114.731 236.057 114.4C236.739 114.059 237.465 113.888 238.233 113.888C239.001 113.888 239.657 114.059 240.201 114.4C240.755 114.731 241.15 115.205 241.385 115.824C241.619 116.432 241.657 117.152 241.497 117.984C241.326 118.827 240.995 119.557 240.505 120.176C240.014 120.795 239.422 121.275 238.729 121.616C238.046 121.947 237.321 122.112 236.553 122.112ZM236.857 120.496C237.23 120.496 237.603 120.405 237.977 120.224C238.35 120.043 238.681 119.771 238.969 119.408C239.257 119.035 239.454 118.56 239.561 117.984C239.667 117.429 239.657 116.971 239.529 116.608C239.401 116.235 239.187 115.957 238.889 115.776C238.601 115.595 238.265 115.504 237.881 115.504C237.507 115.504 237.139 115.595 236.777 115.776C236.425 115.957 236.115 116.235 235.849 116.608C235.593 116.971 235.406 117.44 235.289 118.016C235.182 118.571 235.182 119.035 235.289 119.408C235.406 119.771 235.603 120.043 235.881 120.224C236.158 120.405 236.483 120.496 236.857 120.496ZM243.655 114H245.287L245.239 114.992C245.506 114.725 245.799 114.507 246.119 114.336C246.45 114.155 246.786 114.032 247.127 113.968C247.469 113.904 247.805 113.915 248.135 114L247.815 115.664C247.559 115.568 247.266 115.547 246.935 115.6C246.615 115.643 246.301 115.76 245.991 115.952C245.682 116.133 245.405 116.395 245.159 116.736C244.925 117.067 244.759 117.477 244.663 117.968L243.863 122H242.055L243.655 114ZM254.73 114H256.634L249.706 125.2H247.898L250.026 121.776L248.458 114H250.458L251.434 119.664L254.73 114Z" fill="black"/>
</svg>
