<svg width="486" height="648" viewBox="0 0 486 648" fill="none" xmlns="http://www.w3.org/2000/svg">
<path d="M187.952 341.861C189.295 341.185 192.654 341.185 195.34 343.892C198.699 347.276 204.744 356.074 208.103 363.519L210.118 368.256M193.997 362.165C196.012 364.195 196.684 364.872 198.027 366.903C199.714 369.451 200.042 370.286 200.714 371.64" stroke="black" stroke-linecap="round"/>
<path d="M186.609 357.427C187.952 360.134 187.281 362.842 185.937 364.872C184.673 366.783 183.026 367.353 182.579 367.579" stroke="black" stroke-linecap="round"/>
<path d="M97.2707 546.25C94.136 556.402 86.6576 582.526 81.8213 605.807C76.985 629.089 75.7759 643.03 75.7759 647.091" stroke="black" stroke-linecap="round"/>
<path d="M111.377 385.852C90.5538 410.893 51.4601 470.585 61.6701 509.027C71.8801 547.468 103.54 549.408 119.437 544.897C130.185 541.846 143.888 537.587 155.71 519.179C167.532 500.77 183.922 463.231 190.639 446.763C193.774 446.537 202.461 444.868 212.134 439.995C215.492 438.19 222.747 434.31 224.896 433.227C227.046 432.144 231.222 435.398 233.629 436.611C240.346 439.995 255.795 443.379 261.169 434.58C267.153 424.782 260.497 416.307 258.482 414.277C256.839 412.621 252.436 410.216 249.078 409.539C247.092 409.139 241.017 408.863 238.331 409.539" stroke="black" stroke-linecap="round"/>
<path d="M96.5991 468.42C103.54 458.719 121.856 435.122 139.589 418.338C161.755 397.357 183.922 378.407 203.401 370.963C222.881 363.518 232.957 368.932 234.972 370.286C236.584 371.369 238.778 373.895 239.674 375.024M225.568 379.761C227.807 378.182 234.166 375.159 241.689 375.7C251.093 376.377 255.795 381.115 257.138 384.499C258.213 387.206 258.034 392.394 257.81 394.65" stroke="black" stroke-linecap="round"/>
<path d="M234.3 392.621C238.331 391.041 248.675 388.966 255.123 393.298C261.572 397.629 261.975 400.742 262.512 403.45C262.96 405.706 262.512 410.217 259.154 413.601" stroke="black" stroke-linecap="round"/>
<path d="M148.994 316.143C147.65 313.436 144.963 305.179 144.963 293.809C144.963 282.439 146.307 271.926 146.978 268.091C140.037 249.367 129.917 210.971 144.963 207.181C163.771 202.443 184.594 225.454 189.296 227.484C193.998 229.515 195.342 223.424 217.508 219.363C239.675 215.302 260.498 216.656 264.528 215.302C268.558 213.949 288.038 176.048 306.174 178.079C321.236 179.765 324.982 217.333 324.982 233.576C324.982 249.2 338.225 255.909 342.447 278.243C347.82 306.668 346.477 335.093 353.194 356.751C359.911 378.408 384.093 412.924 400.214 475.188C416.335 537.453 425.739 584.828 429.098 643.031V646.415M171.16 491.431C179.892 510.832 204.343 550.853 232.286 555.725C249.995 558.814 265.582 555.813 276.619 551.822M322.295 512.411C319.346 516.656 315.117 521.734 310.653 526.624M275.947 464.359C277.738 462.78 281.187 458.404 283.336 450.824C286.023 441.348 290.053 429.843 296.77 422.398C301.472 417.187 306.174 412.472 308.189 410.216M292.068 544.22C293.818 543.011 296.153 541.053 298.785 538.627L292.068 544.22Z" stroke="black" stroke-linecap="round"/>
<path d="M126.155 367.579C123.692 367.579 118.766 370.286 116.079 373.67C111.946 378.875 108.69 389.236 113.392 403.449C117.154 414.819 125.259 425.331 128.842 429.166" stroke="black" stroke-linecap="round"/>
<path d="M148.993 355.397C148.769 354.495 147.381 352.555 143.619 352.013C138.917 351.336 135.238 353.69 131.528 357.428C129.513 359.458 124.812 367.579 124.14 378.408C123.804 383.812 124.811 387.206 125.483 389.236M140.261 383.822C138.917 379.085 140.261 370.963 142.947 364.872C146.882 355.953 151.814 352.555 157.725 352.013C163.636 351.472 169.144 356.074 169.144 361.488M157.725 381.115C157.725 372.993 160.412 366.902 165.786 363.518C171.65 359.825 176.757 362.842 178.548 364.195C180.339 365.549 182.713 367.985 183.25 372.317C183.788 376.648 183.474 379.761 183.25 381.115" stroke="black" stroke-linecap="round"/>
<path d="M144.29 352.013C140.484 344.117 138.244 326.973 148.32 317.497C158.691 307.744 169.143 310.729 173.845 314.114C178.547 317.497 187.279 326.972 185.936 337.124M196.684 446.087C197.131 450.599 202.326 462.33 219.522 473.158C241.017 486.694 239.001 480.603 254.451 493.462C266.81 503.749 272.587 524.82 273.931 534.069C275.05 534.52 278.229 535.152 281.991 534.069C285.753 532.986 288.484 531.362 289.38 530.685C288.932 523.015 285.618 504.426 275.946 491.431C263.855 475.189 255.794 464.36 236.986 452.178M277.289 535.423C277.513 537.227 277.558 541.649 275.946 544.898C274.334 548.146 276.17 551.214 277.289 552.342C281.991 555.726 290.723 557.08 298.112 557.757C303.464 558.247 310.875 559.11 312.218 555.726C313.293 553.019 310.875 551.44 309.531 550.989C302.366 548.733 289.38 544.221 288.036 539.483C287.096 536.165 287.365 533.269 287.365 531.916" stroke="black" stroke-linecap="round"/>
<path d="M164.442 322.235C165.114 323.137 166.189 325.619 165.114 328.326C163.77 331.71 157.725 335.094 156.382 342.538C155.307 348.494 155.486 351.337 155.71 352.013" stroke="black" stroke-linecap="round"/>
<path d="M179.22 364.194C180.115 364.42 182.578 363.924 185.265 360.134C188.624 355.396 189.295 343.891 185.937 337.8C182.578 331.709 181.235 329.678 177.205 326.294" stroke="black" stroke-linecap="round"/>
<path d="M164.441 322.235C164.665 322.912 166.054 324.536 169.815 325.619C173.577 326.702 176.308 326.521 177.204 326.296" stroke="black" stroke-linecap="round"/>
<path d="M248.406 440.672C256.243 445.41 270.438 456.915 277.962 467.744C285.485 478.572 298.561 505.644 304.158 517.826C304.158 518.954 303.218 521.481 299.456 522.563C295.695 523.646 293.411 523.24 291.396 523.24C290.052 521.21 287.231 515.119 286.694 515.119M294.083 523.917C294.531 524.819 295.292 527.436 294.754 530.685C294.083 534.746 294.754 536.776 296.77 538.13C298.785 539.483 310.204 539.483 316.921 538.806C323.638 538.13 329.012 537.453 331.027 535.422C333.042 533.392 333.042 530.685 331.027 529.331C329.012 527.978 312.549 528.177 308.86 525.947C305.502 523.917 304.83 520.082 304.158 519.18" stroke="black" stroke-linecap="round"/>
<path d="M182.452 103.583C181.363 103.583 180.51 103.286 179.891 102.692C179.297 102.073 179 101.22 179 100.131V80.8273C179 79.7137 179.297 78.8599 179.891 78.2659C180.485 77.672 181.326 77.375 182.415 77.375C183.529 77.375 184.37 77.672 184.94 78.2659C185.533 78.8599 185.83 79.7137 185.83 80.8273V97.9034H194.888C195.829 97.9034 196.546 98.1508 197.041 98.6458C197.561 99.116 197.821 99.8089 197.821 100.725C197.821 101.64 197.561 102.346 197.041 102.841C196.546 103.336 195.829 103.583 194.888 103.583H182.452Z" fill="black"/>
<path d="M263.449 104.33C261.16 104.967 259.298 104.83 257.863 103.92C256.445 102.979 255.39 101.269 254.7 98.7892L250.438 83.4834C250.146 82.4344 250.197 81.5594 250.593 80.8584C250.989 80.1573 251.687 79.6674 252.689 79.3886C253.714 79.1031 254.577 79.1582 255.278 79.5538C256.003 79.9428 256.511 80.6618 256.803 81.7108L261.006 96.802C261.251 97.6841 261.598 98.2813 262.044 98.5937C262.515 98.8994 263.024 98.9759 263.572 98.8232C263.739 98.7767 263.903 98.7184 264.063 98.648C264.241 98.5472 264.433 98.4551 264.641 98.3715C265.046 98.2586 265.388 98.3306 265.665 98.5874C265.966 98.8376 266.249 99.4395 266.514 100.393C266.747 101.228 266.756 101.906 266.541 102.428C266.321 102.926 265.881 103.331 265.223 103.643C265.039 103.72 264.774 103.832 264.43 103.979C264.086 104.126 263.759 104.243 263.449 104.33Z" fill="black"/>
<path d="M273.066 103.804C271.952 103.804 271.061 103.47 270.393 102.802C269.749 102.134 269.428 101.255 269.428 100.166C269.428 99.1021 269.749 98.2483 270.393 97.6049C271.061 96.9367 271.952 96.6026 273.066 96.6026C274.229 96.6026 275.12 96.9367 275.738 97.6049C276.382 98.2483 276.704 99.1021 276.704 100.166C276.704 101.255 276.382 102.134 275.738 102.802C275.12 103.47 274.229 103.804 273.066 103.804Z" fill="black"/>
<path d="M287.487 103.99C286.076 103.99 284.827 103.73 283.738 103.21C282.674 102.691 281.832 101.985 281.213 101.094C280.619 100.179 280.322 99.1393 280.322 97.9761C280.322 96.6397 280.669 95.5879 281.362 94.8208C282.055 94.0536 283.169 93.5091 284.703 93.1874C286.237 92.8409 288.279 92.6677 290.828 92.6677H292.87V95.7859H290.828C289.863 95.7859 289.059 95.8602 288.415 96.0087C287.796 96.1324 287.339 96.3428 287.042 96.6397C286.745 96.912 286.596 97.2708 286.596 97.7163C286.596 98.2855 286.794 98.7557 287.19 99.1269C287.611 99.4981 288.205 99.6837 288.972 99.6837C289.591 99.6837 290.135 99.5476 290.605 99.2754C291.1 99.0032 291.496 98.6319 291.793 98.1617C292.09 97.6668 292.239 97.0976 292.239 96.4541V92.148C292.239 91.2571 292.004 90.626 291.533 90.2548C291.088 89.8836 290.308 89.698 289.195 89.698C288.601 89.698 287.933 89.7722 287.19 89.9207C286.448 90.0444 285.619 90.2795 284.703 90.626C284.035 90.8735 283.465 90.9106 282.995 90.7374C282.525 90.5641 282.154 90.2672 281.882 89.8464C281.634 89.4257 281.51 88.9679 281.51 88.4729C281.535 87.978 281.696 87.5078 281.993 87.0623C282.315 86.6168 282.797 86.2704 283.441 86.0229C284.629 85.5774 285.718 85.2805 286.707 85.132C287.722 84.9835 288.65 84.9092 289.492 84.9092C291.521 84.9092 293.191 85.2062 294.503 85.8002C295.84 86.3694 296.829 87.2603 297.473 88.4729C298.141 89.6608 298.475 91.1952 298.475 93.076V100.575C298.475 101.664 298.215 102.493 297.696 103.062C297.176 103.631 296.421 103.916 295.431 103.916C294.416 103.916 293.637 103.631 293.092 103.062C292.573 102.493 292.313 101.664 292.313 100.575V99.6095L292.536 100.129C292.412 100.921 292.127 101.602 291.682 102.171C291.236 102.74 290.655 103.186 289.937 103.507C289.219 103.829 288.403 103.99 287.487 103.99Z" fill="black"/>
<path d="M303.325 103.916C302.286 103.916 301.481 103.606 300.912 102.988C300.343 102.369 300.058 101.478 300.058 100.315V88.5843C300.058 87.4211 300.343 86.5302 300.912 85.9115C301.481 85.2928 302.286 84.9835 303.325 84.9835C304.389 84.9835 305.206 85.2928 305.775 85.9115C306.369 86.5302 306.666 87.4211 306.666 88.5843V100.315C306.666 101.478 306.381 102.369 305.812 102.988C305.243 103.606 304.414 103.916 303.325 103.916ZM303.325 82.3478C302.162 82.3478 301.259 82.0756 300.615 81.5312C299.996 80.9867 299.687 80.1948 299.687 79.1554C299.687 78.1407 299.996 77.3611 300.615 76.8167C301.259 76.2722 302.162 76 303.325 76C304.538 76 305.453 76.2722 306.072 76.8167C306.691 77.3611 307 78.1407 307 79.1554C307 80.1948 306.691 80.9867 306.072 81.5312C305.453 82.0756 304.538 82.3478 303.325 82.3478Z" fill="black"/>
<path d="M240.768 103.599C239.363 103.473 238.142 103.103 237.103 102.488C236.09 101.876 235.315 101.098 234.778 100.155C234.268 99.1904 234.065 98.1286 234.169 96.9701C234.288 95.639 234.727 94.6224 235.485 93.9201C236.244 93.2177 237.402 92.7748 238.959 92.5913C240.518 92.3831 242.567 92.3927 245.106 92.6201L247.14 92.8023L246.861 95.9081L244.828 95.7259C243.866 95.6398 243.059 95.642 242.405 95.7325C241.777 95.8005 241.302 95.9692 240.98 96.2385C240.66 96.4831 240.48 96.8273 240.44 97.271C240.39 97.8379 240.545 98.3239 240.906 98.729C241.292 99.1362 241.867 99.3741 242.631 99.4426C243.248 99.4978 243.802 99.4108 244.295 99.1816C244.812 98.9546 245.239 98.6202 245.577 98.1783C245.917 97.7118 246.116 97.1582 246.173 96.5173L246.557 92.2283C246.637 91.341 246.459 90.6914 246.024 90.2797C245.613 89.8703 244.853 89.6158 243.744 89.5165C243.152 89.4635 242.48 89.4778 241.728 89.5595C240.977 89.6165 240.13 89.7767 239.187 90.0401C238.5 90.227 237.93 90.2132 237.477 89.9987C237.024 89.7842 236.681 89.4553 236.447 89.0119C236.238 88.5708 236.156 88.1038 236.2 87.6108C236.269 87.12 236.471 86.666 236.806 86.2488C237.166 85.8339 237.678 85.5318 238.341 85.3427C239.564 85.005 240.675 84.8064 241.674 84.7468C242.698 84.6894 243.629 84.6983 244.467 84.7734C246.488 84.9544 248.126 85.3992 249.379 86.1078C250.659 86.794 251.566 87.7697 252.099 89.0349C252.658 90.2777 252.854 91.8357 252.686 93.7091L252.017 101.178C251.92 102.262 251.587 103.065 251.019 103.585C250.45 104.106 249.673 104.322 248.687 104.234C247.677 104.143 246.926 103.79 246.434 103.175C245.967 102.561 245.782 101.713 245.879 100.628L245.966 99.6667L246.141 100.204C245.947 100.982 245.603 101.634 245.108 102.162C244.614 102.689 243.995 103.081 243.251 103.337C242.508 103.593 241.68 103.681 240.768 103.599Z" fill="black"/>
<path d="M220.411 104.557C219.327 104.658 218.461 104.44 217.815 103.904C217.166 103.343 216.791 102.52 216.69 101.436L214.873 81.9204C214.77 80.8115 214.986 79.9339 215.522 79.2874C216.083 78.6386 216.906 78.2638 217.99 78.1628L227.083 77.3161C230.04 77.0407 232.39 77.5924 234.134 78.971C235.901 80.3227 236.908 82.3291 237.155 84.9904C237.403 87.6516 236.785 89.8219 235.301 91.5011C233.839 93.1533 231.63 94.1171 228.673 94.3925L222.944 94.926L223.491 100.803C223.592 101.887 223.388 102.764 222.879 103.432C222.367 104.077 221.544 104.452 220.411 104.557ZM222.459 89.7144L227.005 89.291C228.286 89.1717 229.247 88.8089 229.886 88.2025C230.523 87.5715 230.79 86.7016 230.687 85.5927C230.582 84.4592 230.159 83.6535 229.418 83.1757C228.678 82.6978 227.667 82.5185 226.385 82.6379L221.839 83.0612L222.459 89.7144Z" fill="black"/>
<path d="M210.102 101.466C208.173 102.579 206.31 103.212 204.512 103.365C202.723 103.483 201.094 103.137 199.626 102.327C198.158 101.517 196.936 100.266 195.958 98.5728C195.018 96.9439 194.549 95.3145 194.55 93.6845C194.561 92.0207 194.991 90.4871 195.838 89.0836C196.694 87.6462 197.926 86.4635 199.533 85.5355C200.712 84.8549 201.895 84.4291 203.082 84.2581C204.257 84.0656 205.398 84.1357 206.504 84.4685C207.598 84.7798 208.608 85.3401 209.532 86.1494C210.478 86.9464 211.31 87.9664 212.028 89.2095C212.275 89.6381 212.343 90.0276 212.231 90.3781C212.106 90.7071 211.787 91.0201 211.273 91.3171L201.435 96.9967L199.876 94.2962L207.013 90.1757L206.74 90.8906C206.282 90.0976 205.804 89.5165 205.305 89.1473C204.806 88.7781 204.268 88.5886 203.691 88.5789C203.135 88.5569 202.546 88.7252 201.925 89.0841C201.26 89.4677 200.774 89.9625 200.467 90.5686C200.169 91.1409 200.064 91.8013 200.154 92.5499C200.243 93.2985 200.547 94.1229 201.067 95.023L201.234 95.3124C202.113 96.8341 203.076 97.7353 204.124 98.0161C205.181 98.2631 206.417 97.9783 207.831 97.1616C208.303 96.8894 208.808 96.5264 209.346 96.0728C209.893 95.5854 210.384 95.0736 210.817 94.5376C211.251 94.0015 211.714 93.691 212.208 93.6059C212.69 93.4994 213.137 93.5557 213.549 93.7749C213.97 93.9603 214.315 94.2611 214.584 94.6774C214.841 95.0722 214.98 95.5351 215 96.066C215.009 96.5756 214.828 97.0798 214.459 97.5787C213.907 98.3547 213.252 99.0759 212.493 99.7423C211.757 100.396 210.959 100.971 210.102 101.466Z" fill="black"/>
</svg>
