<svg width="486" height="647" viewBox="0 0 486 647" fill="none" xmlns="http://www.w3.org/2000/svg">
<circle cx="329.46" cy="456.531" r="17.0408" stroke="black"/>
<path d="M163.37 446.664C162.274 457.079 156.354 476.045 148.022 481.746C137.607 488.872 88.2744 487.776 76.7632 489.42C65.2521 491.065 50.9998 493.805 51 503.672C51.0002 513.329 57.0293 512.991 60.8663 512.991C81.8324 512.633 116.468 511.111 139.252 509.943M332.749 473.524C334.028 475.534 336.805 481.417 337.682 488.872C338.559 496.327 335.855 503.307 334.393 505.865C335.307 505.865 339.623 506.22 348.645 503.672C355.223 501.814 355.039 500.579 360.157 501.814C365.274 503.05 417.043 540.767 418.26 544.57C419.477 548.372 414.972 552.282 407.846 551.734C400.72 551.185 396.882 550.813 384.275 544.783C371.667 538.754 366.734 530.531 357.964 528.339C349.193 526.146 317.4 535.465 303.697 530.531C289.993 525.598 288.897 506.961 276.837 502.028C266.488 497.794 221.017 499.212 195.163 500.046M139.252 509.943C151.414 509.319 160.2 508.796 161.726 508.605C166.111 508.057 173.237 505.591 175.978 504.22C179.267 502.576 180.325 500.485 184.2 500.383C187.154 500.305 190.891 500.184 195.163 500.046M139.252 509.943C120.615 518.267 83.2309 537.438 82.7923 547.524C82.3538 557.61 88.0911 557.939 91.0146 556.843C103.439 550.447 130.481 536.78 139.252 533.272C150.215 528.887 162.274 522.857 172.141 517.924C180.034 513.977 190.778 504.361 195.163 500.046M208.319 435.701C207.771 440.635 207.222 448.857 211.059 453.79C215.628 459.665 225.677 460.734 229.697 460.916C239.38 462.743 261.49 465.674 268.067 463.481C276.29 460.741 281.812 457.689 287.8 456.531C294.379 455.259 302.601 455.259 312.467 457.627M178.171 441.183L184.2 447.213M184.2 447.213L190.23 441.183M184.2 447.213V456.801" stroke="black" stroke-linecap="round"/>
<path d="M154.052 409.39C154.417 408.66 157.341 406.849 161.178 407.198C167.207 407.746 169.4 412.086 169.4 415.42C169.4 419.257 167.207 423.642 162.822 424.738C158.985 425.698 155.331 424.921 154.6 424.191" stroke="black" stroke-linecap="round"/>
<path d="M211.609 423.642C211.172 424.333 207.682 425.546 203.898 424.818C197.953 423.673 196.534 419.257 196.534 415.819C196.534 411.982 199.55 407.963 204.005 407.2C207.223 406.649 211.609 407.746 212.704 408.842" stroke="black" stroke-linecap="round"/>
<path d="M62.0029 502.576C60.5412 503.855 58.1655 506.413 57.0696 508.605C56.2612 510.223 56.5214 511.529 56.5214 511.894" stroke="black" stroke-linecap="round"/>
<path d="M71.8295 504.768C70.6686 505.822 68.7818 507.928 67.9114 509.734C67.2694 511.066 67.4761 512.141 67.4761 512.442" stroke="black" stroke-linecap="round"/>
<path d="M93.7557 544.234C92.8473 545.512 91.5651 548.955 91.5637 551.909C91.5631 553.006 91.5636 555.198 92.1415 555.952" stroke="black" stroke-linecap="round"/>
<path d="M340.423 469.687C342.981 470.783 348.097 474.993 349.741 480.65C351.494 486.679 350.29 493.074 349.741 495.45C353.03 493.257 360.924 488.762 366.186 488.324C372.764 487.776 383.727 495.45 399.075 500.931C414.423 506.413 433.06 511.346 434.156 515.731C435.253 520.117 432.512 524.874 423.193 525.422C415.739 525.861 396.517 522.126 387.564 519.568" stroke="black" stroke-linecap="round"/>
<path d="M153.504 413.227C154.051 399.524 166.66 390.205 183.104 390.205C199.548 390.205 213.253 399.524 213.253 411.035C213.253 422.546 207.223 455.435 184.2 457.079C161.178 458.724 152.957 426.931 153.504 413.227Z" stroke="black" stroke-linecap="round"/>
<path d="M273.001 392.399L271.356 382.532C314.295 377.599 401.722 369.5 408.942 369.924C418.261 370.472 424.838 372.117 426.483 382.532C428.127 392.947 411.135 394.043 395.238 395.688C382.521 397.003 309.544 400.621 274.645 402.265L273.001 392.399ZM273.001 392.399L402.912 382.532" stroke="black" stroke-linecap="round"/>
<path d="M233.941 346.548L231.172 336.936C273.258 327.095 345.905 313.625 353.031 312.367C360.157 311.109 369.932 309.337 372.764 319.493C375.596 329.65 360.41 334.668 344.808 338.13C332.327 340.9 271.188 350.511 236.71 356.16L233.941 346.548ZM233.941 346.548L353.031 323.331" stroke="black" stroke-linecap="round"/>
<circle cx="205.03" cy="416.516" r="1.14445" fill="#3A86FE" stroke="black"/>
<circle cx="161.178" cy="416.516" r="1.14445" fill="#3A86FE" stroke="black"/>
<path d="M209.859 74.759C209.897 74.7819 209.939 74.9578 210.027 75.0305C210.13 75.1146 210.271 75.1299 210.347 75.1911C210.454 75.279 210.496 75.4549 210.595 75.5046C210.847 75.6308 211.126 75.4396 211.283 75.5352C211.508 75.6767 211.871 76.3649 212.046 76.4682C212.222 76.5714 212.375 76.4414 212.493 76.4605C212.516 76.4605 212.898 76.6708 212.913 76.6861C212.959 76.7435 212.921 76.9003 212.974 76.9844C213.547 77.8906 213.295 77.7415 213.417 78.7165C213.451 78.9995 213.699 79.4851 213.738 79.7642C213.822 80.376 213.722 80.9496 213.085 81.1484C213.077 81.5996 213.005 82.5135 213.489 82.7506C213.665 82.8347 213.932 82.7659 214.15 82.8117C214.433 82.8691 214.597 83.1559 214.665 83.1788C214.791 83.2209 215.78 83.2209 215.941 83.1903C216.181 83.1444 216.235 82.8997 216.387 82.8309C216.88 82.6091 217.357 83.0794 217.869 82.9532L218.04 82.5555C218.354 82.7391 218.835 82.5441 219.083 82.5785C219.22 82.5976 219.35 82.9035 219.499 82.9417C219.633 82.9762 219.846 82.7391 220.198 82.7926C220.644 82.8614 220.74 83.2744 220.946 83.3356C221.618 83.5306 221.572 83.2247 221.931 82.9035C222.099 82.7506 222.969 82.0929 223.141 82.0241C223.279 81.9705 223.584 82.1082 223.821 82.0661C224.008 82.0317 224.035 81.8558 224.302 81.8214C224.451 81.8023 225.153 81.7985 225.26 81.8405C225.352 81.8749 225.356 81.9935 225.421 82.0432C225.466 82.0776 225.573 82.0546 225.608 82.0891C225.741 82.2267 225.65 82.5479 226.218 82.395C226.295 82.3758 226.322 82.0546 226.799 82.1923C227.02 82.2573 227.055 82.567 227.215 82.6244C227.33 82.6626 228.028 82.6626 228.166 82.6358C228.341 82.6014 228.387 82.4485 228.505 82.4102C228.704 82.3491 228.952 82.4408 229.116 82.395C229.2 82.372 229.2 82.2229 229.254 82.1885C229.284 82.1694 229.754 82.1426 229.937 81.9935C230.185 81.7946 230.227 81.4926 230.43 81.2746L235.385 81.267C235.534 80.9764 236.126 80.984 236.405 80.8196C236.493 80.7699 236.519 80.5978 236.607 80.5328C236.687 80.4754 236.802 80.5175 236.893 80.4296C237.096 80.2269 237.191 79.5998 237.291 79.5233C237.363 79.4698 237.489 79.5654 237.565 79.5501C237.672 79.5272 237.722 79.3666 237.898 79.3322C238.024 79.3054 238.902 79.313 238.963 79.3474C239.276 79.9745 239.318 80.7813 239.688 81.397C239.822 81.6226 240.085 81.7793 240.177 81.9552C240.288 82.177 240.23 82.3758 240.307 82.5479C240.353 82.6511 240.528 82.7085 240.57 82.8462C240.696 83.2591 240.444 83.5382 240.444 83.6377C240.444 83.7218 240.86 83.8747 240.742 84.5171C240.673 84.888 240.513 85.0677 240.582 85.5725C240.635 85.974 241.013 85.9013 240.902 86.6087C240.83 87.0675 240.639 86.9031 240.349 87.0216C240.261 87.0561 240.227 87.1822 240.062 87.2167C239.803 87.2702 239.356 87.1249 239.222 87.1784C238.879 87.3161 238.608 87.8285 238.375 88.0273C237.894 88.4402 237.222 88.6238 236.599 89.1515C235.939 89.7135 235.385 90.3406 234.66 90.8721C234.576 90.9333 234.576 91.1054 234.416 91.1551C234.141 91.2392 233.996 90.9945 233.709 90.9945C233.469 90.9945 233.362 91.1398 233.152 91.1704C232.812 91.2163 232.201 91.0633 231.934 91.2392C231.781 91.3386 231.808 91.5528 231.621 91.5719C231.147 91.6292 228.983 91.6483 228.567 91.5642C228.395 91.5298 228.334 91.3654 228.25 91.3539C228.15 91.3386 228.005 91.4457 227.853 91.396C227.746 91.3616 227.753 91.1819 227.665 91.1589C227.513 91.1207 226.497 91.1436 226.356 91.2048C226.287 91.2354 226.23 91.3654 226.134 91.3922C225.986 91.4342 225.841 91.3119 225.753 91.331C225.657 91.3501 225.661 91.5413 225.573 91.5642C225.466 91.591 224.917 91.5833 224.783 91.5642C224.611 91.5413 223.599 90.9524 223.355 90.8186C223.248 90.7612 223.233 90.6159 223.16 90.5968C222.874 90.5165 222.301 90.6618 221.973 90.5968C221.801 90.5624 221.74 90.4018 221.652 90.3865C221.442 90.3559 221.022 90.528 220.736 90.3636C220.484 90.7154 220.232 91.2927 219.72 91.1589L218.632 90.2297C218.487 90.1686 218.243 90.3253 218.048 90.2756C217.991 90.2603 217.956 90.1189 217.853 90.0539C217.582 89.8818 217.216 89.6103 217.067 90.0309H216.952C216.949 89.9621 216.597 89.6371 216.567 89.6294C216.391 89.5797 216.086 89.66 215.864 89.6294C215.738 89.6103 215.643 89.4956 215.463 89.4688C215.07 89.4115 214.574 89.4688 214.253 89.7135C214.161 89.7824 214.131 89.9468 214.055 89.9965C213.955 90.0577 212.821 90.0692 212.65 90.0347C212.493 90.0041 212.451 89.8856 212.367 89.8474C211.985 89.6868 212.004 90.0118 211.909 90.0386C211.596 90.1227 211.527 89.8856 211.405 89.8397C211.317 89.8091 211.21 89.8894 211.13 89.8627C211.004 89.8244 211.035 89.4765 210.492 89.6485C210.286 89.7135 210.267 89.7403 210 89.8091C209.87 89.8436 209.988 90.1036 209.511 90.0386C209.11 89.985 209.122 89.6562 209.015 89.6294C208.816 89.5797 207.297 89.6141 207.175 89.7059C207.083 89.7747 207.064 89.9736 206.926 90.0194C206.732 90.0883 206.43 89.9927 206.216 90.0347C206.037 90.0692 205.983 90.2336 205.876 90.2642C205.701 90.3139 205.575 90.1418 205.411 90.2642C204.659 90.8262 205.17 92.5699 204.002 92.3175C203.914 92.3901 203.941 92.5813 203.88 92.6808C203.444 93.3958 202.177 93.8164 202.494 94.8832C202.505 94.9215 202.96 95.4874 202.994 95.5103C203.15 95.6212 203.536 95.6135 203.735 95.7741C203.933 95.9347 204.116 96.1297 204.38 96.3362C204.548 96.4662 204.464 96.6651 204.846 96.7148C205.571 96.8142 205.392 96.3783 205.735 96.3095C206.132 96.2292 206.277 96.298 206.537 96.558L207.094 96.3018C207.155 96.4739 207.579 96.7415 207.736 96.7186C207.812 96.7071 207.805 96.5045 207.908 96.4777C207.988 96.4586 208.202 96.5809 208.381 96.5504C208.553 96.5236 208.61 96.3401 208.786 96.3056C209.141 96.2406 209.82 96.2253 210.137 96.145C210.229 96.1221 210.214 95.9424 210.317 95.9156C210.626 95.8353 210.828 96.0839 210.97 96.1259C211.069 96.1565 211.603 96.2903 211.68 96.298C211.909 96.3286 212.409 96.3324 212.634 96.298C213.096 96.2253 213.241 95.7053 213.707 95.6021C214.49 95.4262 215.727 95.6862 216.563 95.583L217.239 94.7876C217.548 94.6959 217.64 95.0553 217.785 95.017C217.995 94.2905 218.766 94.7494 219.297 94.6156C219.388 94.5926 219.396 94.3938 219.472 94.3708C219.591 94.3402 219.682 94.5735 219.877 94.6117C220.056 94.6461 220.652 94.6423 220.843 94.6194C220.938 94.6079 221.297 94.2485 221.484 94.2141C221.71 94.1682 224.26 94.1644 224.439 94.2141C224.512 94.2332 224.52 94.3632 224.584 94.4052C224.821 94.5582 225.046 94.8259 225.073 94.845C225.241 94.9406 225.592 94.6538 225.741 95.0247C225.81 95.1929 225.814 95.7627 225.787 95.9539C225.726 96.3974 225.539 96.6727 225.619 97.2424C225.646 97.4298 225.76 97.5292 225.787 97.7166C225.86 98.2481 225.715 98.9325 225.791 99.4831L226.108 99.6629C226.142 100.122 226.093 100.485 225.894 100.894C225.829 101.032 225.653 101.066 225.619 101.269C225.569 101.559 225.753 101.663 225.787 101.904C225.818 102.118 225.818 103.162 225.768 103.341C225.688 103.617 225.298 103.597 225.302 103.682C225.909 104.098 225.52 104.508 225.459 104.966C225.428 105.192 225.436 105.842 225.524 106.037C225.627 106.274 225.833 106.247 225.791 106.664C225.772 106.84 225.65 106.932 225.627 107.069C225.543 107.547 225.573 108.14 225.443 108.656C225.344 109.05 224.917 109.104 224.855 109.195C224.825 109.245 224.504 110.235 224.497 110.293C224.466 110.518 224.63 110.629 224.661 110.843C224.687 111.031 224.687 111.715 224.653 111.891C224.619 112.067 224.233 112.438 224.176 112.782C224.08 113.363 224.344 114.25 223.897 114.759C223.775 114.897 223.565 114.897 223.538 114.923C223.477 114.992 223.58 115.424 223.485 115.635C223.428 115.757 222.84 116.223 222.679 116.361C222.599 116.43 222.473 116.415 222.393 116.495C222.37 116.518 222.099 117.015 222.084 117.053C222.038 117.198 222.213 117.133 222.236 117.218C222.469 118.12 222.5 118.85 221.984 119.688C221.832 119.936 221.469 120.212 221.32 120.472C221.091 120.873 221.049 121.687 220.385 121.542C220.343 121.707 219.823 122.628 219.747 122.682C219.522 122.835 219.006 122.617 218.953 122.647C218.919 122.666 218.617 123.175 218.472 123.278C218.136 123.519 217.838 123.374 217.552 123.458C217.441 123.492 217.38 123.645 217.277 123.672C217.128 123.714 216.983 123.592 216.895 123.611C216.8 123.63 216.803 123.821 216.716 123.844C216.536 123.89 214.883 123.878 214.639 123.844C214.394 123.81 214.333 123.645 214.245 123.63C214.089 123.607 213.738 123.756 213.528 123.668L213.436 123.599C213.291 123.053 213.157 122.655 212.596 122.429C212.917 122.234 212.993 121.768 213.153 121.542C213.272 121.374 214.356 120.062 214.444 120.013C214.532 119.963 214.642 120.051 214.715 120.036C214.875 119.997 215.116 119.657 215.49 119.818L215.33 119.256C215.838 119.271 216.128 118.716 215.811 118.292C215.906 118.284 215.986 118.246 216.051 118.173C216.784 117.336 217.892 115.39 218.056 114.3C218.105 113.971 218.021 113.585 218.056 113.256C218.147 112.468 218.25 112.686 218.063 111.803C217.914 111.103 218.182 111.268 217.502 110.832C217.395 110.763 217.494 110.648 217.22 110.633C216.635 110.603 216.349 111.184 216.005 111.524C215.914 111.616 215.731 111.616 215.685 111.685C215.616 111.788 215.67 112.006 215.605 112.17C215.517 112.388 215.112 112.698 214.967 112.901C214.849 113.073 214.814 113.294 214.669 113.489C214.478 113.746 213.81 114.537 213.554 114.625C213.016 114.812 212.966 114.484 212.798 114.461C212.756 114.457 212.115 114.422 212.077 114.426C212.008 114.434 212.016 114.621 211.901 114.659C211.729 114.721 211.477 114.625 211.283 114.686C211.161 114.724 211.107 114.9 210.943 114.912C210.836 114.919 210.706 114.824 210.626 114.839C210.599 114.847 210.233 115.137 210.175 115.183C210.069 115.275 209.828 115.627 209.801 115.635C209.683 115.665 208.908 115.657 208.774 115.635C208.602 115.6 208.541 115.44 208.457 115.424C208.347 115.409 208.152 115.508 207.969 115.478C207.785 115.447 207.808 115.294 207.701 115.237C207.53 115.141 207.056 114.939 206.888 114.877C206.793 114.843 206.652 114.946 206.56 114.877C206.457 114.801 206.365 114.193 206.304 114.124C206.274 114.086 205.628 113.681 205.514 113.589L204.792 112.774C204.525 112.885 204.029 112.725 203.88 112.751C203.815 112.763 203.257 113.447 202.96 113.39C202.91 113.688 202.982 114.002 202.944 114.3C202.898 114.644 202.578 115.394 202.391 115.677C201.936 116.35 201.146 116.98 200.699 117.688C200.55 117.78 198.939 117.749 198.695 117.68C198.18 117.543 198.37 117.382 198.264 117.065C198.042 116.418 197.771 115.998 197.622 115.294C197.603 115.206 197.485 115.13 197.485 115.03C197.485 114.931 197.737 114.564 197.683 114.342L197.771 114.273C197.874 114.281 197.981 114.354 198.084 114.346C198.405 114.319 199.1 113.168 199.229 112.836C199.585 111.926 200.348 109.497 200.218 108.587C200.123 107.911 199.943 107.238 200.05 106.496C200.077 106.301 200.214 106.19 200.226 106.018C200.241 105.785 200.081 105.674 200.05 105.46C199.951 104.748 200.077 103.433 200.237 102.741C200.283 102.538 200.505 102.355 200.543 102.079C200.6 101.636 200.631 100.906 200.237 100.63C200.451 100.171 200.585 99.682 200.547 99.1734L200.222 98.9364C200.432 98.7681 200.413 98.3781 200.386 98.1257C200.344 97.7434 200.05 97.0436 199.852 96.7301C199.653 96.4165 199.52 96.2368 199.138 96.3209C198.958 96.363 198.909 96.5159 198.806 96.5389C198.645 96.5733 198.034 96.6995 197.893 96.7645C197.847 96.7836 197.126 97.296 197.091 97.3304C196.996 97.426 196.698 98.0454 196.45 98.2978C195.602 99.1581 195.541 98.5999 194.736 98.8369C194.258 98.9784 194.018 99.6132 193.793 99.747C193.644 99.8349 193.445 99.7546 193.285 99.8043C193.17 99.8388 193.121 99.9955 192.945 100.03C192.441 100.129 192.159 99.9802 191.907 99.5405C191.448 98.7337 191.834 97.143 191.704 96.2024C191.678 96.0112 191.54 95.9118 191.536 95.8047C191.536 95.755 191.685 95.7741 191.7 95.713C191.739 95.5562 191.67 95.3382 191.7 95.1623C191.75 94.8909 192.605 94.2026 192.747 93.8699L194.037 93.8814C194.083 93.6099 194.27 93.0517 194.514 92.9064C194.602 92.8566 194.713 92.9446 194.785 92.9293C194.896 92.9025 194.946 92.7458 195.118 92.7113C195.373 92.6578 195.736 92.7725 195.984 92.696C196.152 92.6425 196.221 92.3825 196.355 92.264C196.461 92.1684 196.61 92.1569 196.717 92.0651C196.824 91.9734 196.923 91.6981 197.088 91.6292C197.362 91.5145 197.676 91.6407 197.954 91.5681C198.267 91.2239 198.615 90.6312 198.935 90.333C199.077 90.1992 199.527 90.1265 199.581 89.7747C199.581 89.5032 199.039 89.4229 198.863 89.2815C198.745 89.1859 198.661 88.9373 198.538 88.8914C198.443 88.8532 198.271 88.9641 198.111 88.9182C197.702 88.7997 198.027 88.7614 197.37 88.7767C196.786 88.7882 197.11 88.7882 196.71 88.9144C196.538 88.9679 196.057 88.9641 195.915 88.857C195.805 88.7729 195.789 88.5205 195.602 88.5244C195.16 88.8112 194.495 89.5185 193.923 89.3235C193.8 89.2815 193.85 89.0979 193.674 89.0865C193.357 89.0635 193.323 89.2853 193.182 89.3159C193.105 89.3312 192.999 89.2356 192.911 89.2929C192.853 89.3312 192.853 89.4918 192.789 89.5032C192.579 89.5415 192.502 89.3006 192.395 89.2891C192.3 89.2776 192.155 89.3771 192.002 89.3312C191.876 89.2929 191.849 89.0941 191.75 89.0138C191.651 88.9335 191.51 88.9259 191.384 88.8188C191.132 88.5932 190.784 87.6334 190.738 87.2931C190.715 87.1249 190.704 85.7866 190.754 85.7292C190.773 85.7101 190.96 85.6948 191.067 85.6031C191.399 85.3239 191.353 85.083 191.91 84.9148C192.025 84.8804 192.182 84.9377 192.292 84.9148C192.384 84.8918 192.376 84.7045 192.472 84.6815C192.808 84.5974 194.167 84.8574 194.717 84.7504C194.969 84.7007 195.202 84.3374 195.602 84.3374C196.049 84.3374 196.282 84.7465 196.408 84.758C196.633 84.781 196.694 84.5477 196.893 84.5095C197.091 84.4712 197.32 84.5362 197.53 84.5018C197.809 84.4598 199.019 83.5497 199.088 83.3241C199.218 82.8882 199 82.7391 198.947 82.4523C198.916 82.2994 198.974 82.1196 198.939 81.9782C198.653 80.854 197.813 79.8522 198.344 78.6324C198.389 78.5215 198.664 78.3342 198.771 78.1736C198.909 77.9709 198.997 77.6268 199.145 77.4968C199.378 77.2903 199.798 77.3171 200.016 77.2635C200.077 77.2482 200.043 77.1603 200.424 77.0762C200.547 77.0494 200.608 76.8544 200.757 76.8544L200.867 76.8697C200.921 77.3323 201.784 77.3515 202.108 77.2635C202.2 77.2406 202.185 77.0609 202.291 77.0341C202.685 76.9347 202.811 76.8009 203.112 76.7167C203.273 76.6708 203.498 76.732 203.597 76.6785C203.647 76.6517 204.021 76.0629 204.136 75.9673C204.376 75.7608 204.781 75.7876 205.006 75.734C205.098 75.7111 205.09 75.5237 205.185 75.5008C205.388 75.4511 206.384 75.6461 206.789 75.5696C206.965 75.5352 207.224 75.2522 207.453 75.1911C207.614 75.149 207.847 75.2102 207.938 75.1528C207.98 75.1261 207.988 74.9616 208.079 74.9387C208.16 74.9196 208.373 75.0419 208.553 75.0114C208.725 74.9846 208.778 74.8049 208.961 74.7666C209.08 74.7437 209.805 74.7437 209.87 74.7819L209.859 74.759ZM206.758 80.5137C206.72 80.4907 206.713 80.3493 206.61 80.311C206.277 80.1887 205.563 80.4563 205.334 79.8981C205.254 80.0816 205.01 80.0892 204.918 80.1657C204.788 80.2766 204.51 80.7622 204.41 80.8234C204.204 80.9496 203.696 80.8005 203.422 80.8808C203.36 80.8999 202.414 81.462 202.36 81.5078C202.036 81.7602 201.868 82.3491 201.711 82.7161C202.097 83.2018 202.356 83.5459 203.066 83.3624C203.158 83.3394 203.15 83.152 203.246 83.1291C203.345 83.1023 203.922 83.2553 204.204 83.1979C204.422 83.1559 204.498 82.8691 204.834 82.9532L205.09 83.1979C205.342 82.8156 205.728 83.0106 206.113 82.9341C206.77 82.8041 207.293 81.3511 207.125 80.7622C207.045 80.4831 206.831 80.5596 206.758 80.5175V80.5137ZM219.041 97.1239L218.602 97.3648C218.594 97.6631 217.777 98.6381 217.552 98.6572C217.437 98.6687 217.254 98.5463 217.204 98.5807C217.189 98.5922 217.105 98.8102 216.998 98.9019C216.403 99.4181 216.12 99.1199 215.46 99.2117C215.28 99.2384 215.192 99.3455 215.059 99.3723C214.887 99.4067 214.696 99.3417 214.516 99.3914C214.307 99.4487 213.955 99.9191 213.814 99.9802C213.715 100.022 213.615 99.9458 213.547 99.9611C213.367 100.007 213.321 100.294 212.909 100.164C212.749 100.114 212.707 99.8655 212.424 99.9496L211.84 100.581L211.363 100.179C211.298 100.435 211.111 100.294 210.928 100.386C210.584 100.558 210.294 100.867 209.84 100.913C209.19 100.974 208.919 100.248 208.351 100.099L208.091 100.726C207.85 100.695 207.682 100.86 207.503 100.902C207.335 100.94 206.533 101.032 206.422 101.104C206.296 101.185 206.327 101.437 205.861 101.307C205.747 101.403 206.491 101.858 206.621 101.873C207.278 101.961 207.35 101.533 207.598 101.487C207.667 101.475 208.893 101.487 208.958 101.498C209.045 101.514 209.099 101.659 209.213 101.693C209.733 101.846 209.595 101.85 210.015 102.091C211.168 102.76 210.993 102.274 211.775 101.483C212.176 101.533 212.829 101.621 213.211 101.544C213.386 101.51 213.436 101.353 213.551 101.319C213.707 101.273 213.875 101.334 214.001 101.307C214.093 101.284 214.077 101.104 214.181 101.078C214.249 101.059 214.497 101.146 214.623 101.104L214.738 101.307L214.94 101.066H215.055C215.188 101.124 215.601 101.54 215.639 101.552C215.83 101.601 216.055 101.487 216.189 101.502C216.67 101.567 216.681 103.234 216.632 103.605C216.555 104.171 216.227 104.657 215.826 105.054C215.708 105.173 214.914 105.704 214.875 105.75C214.83 105.804 214.868 105.961 214.814 106.048C214.635 106.331 214.356 106.542 214.2 106.844C213.482 106.874 212.89 106.794 212.21 107.066C212.115 107.104 212.05 107.295 211.928 107.264C211.817 107.238 211.745 106.794 211.458 106.871C211.096 107.207 210.76 107.616 210.271 107.784C210.156 107.823 210.038 107.731 209.954 107.784C209.904 107.819 209.897 107.945 209.859 107.968C209.801 108.002 208.916 108.01 208.79 107.987C208.618 107.953 208.557 107.792 208.469 107.781C208.297 107.754 207.931 107.884 207.663 107.827C207.484 107.792 207.423 107.62 207.331 107.605C207.224 107.586 207.075 107.696 206.953 107.674C206.839 107.654 205.869 105.903 205.854 107.425H205.533C205.506 107.647 205.785 107.708 205.838 107.884C205.968 108.324 205.827 108.786 205.533 109.115C205.96 108.951 206.029 109.325 206.212 109.36C207.007 109.509 207.232 109.05 207.827 108.958C208.129 108.912 208.606 109.019 208.851 108.958C208.927 108.939 208.87 108.859 209.259 108.771C209.412 108.737 209.462 108.477 209.832 108.549C209.901 108.664 209.87 108.775 209.95 108.916C210.492 109.872 211.015 109.073 211.687 108.958C211.932 108.916 212.711 109.016 212.909 109.134C212.955 109.161 212.959 109.314 213.058 109.348C213.218 109.402 213.768 109.379 214.035 109.536C214.077 109.562 214.081 109.708 214.184 109.746C214.394 109.822 214.612 109.689 214.742 109.708C214.841 109.723 214.906 109.891 214.99 109.914C215.12 109.945 215.196 109.715 215.311 109.696C215.398 109.681 215.521 109.769 215.624 109.761C215.792 109.746 215.841 109.57 215.963 109.536C216.12 109.49 216.288 109.551 216.414 109.524C216.506 109.501 216.498 109.314 216.593 109.291C216.628 109.283 217.277 109.306 217.319 109.314C217.426 109.329 217.544 109.608 217.758 109.524C217.666 109.211 217.956 109.123 218.033 108.954C218.166 108.66 218.186 108.32 218.285 108.079C218.346 107.926 218.586 107.723 218.728 107.624C218.766 107.387 218.502 107.322 218.441 107.188C218.38 107.054 218.415 106.905 218.38 106.767C218.357 106.676 218.243 106.614 218.235 106.507C218.235 106.465 218.361 106.481 218.392 106.4C218.819 105.36 218.819 104.55 219.064 103.548C219.35 102.378 220.06 101.624 219.843 100.309C219.797 100.034 219.403 99.4831 219.381 99.3226C219.369 99.227 219.503 99.1314 219.526 99.009C219.598 98.6266 218.926 97.6172 219.041 97.1239Z" fill="black"/>
<path d="M288.947 76.8658C288.992 76.8925 289.023 77.0034 289.115 77.0569C289.523 77.2825 289.871 77.1831 290.084 77.6993C290.527 78.7738 290.294 80.6818 289.672 81.676C289.405 82.1004 288.943 82.4866 288.656 82.9149C288.523 82.9799 287.064 82.9875 286.843 82.9569C286.534 82.9149 285.827 82.6128 285.644 82.5822C285.407 82.544 284.812 82.7466 284.556 82.5899C284.457 82.5287 284.35 82.219 284.193 82.1463L284.071 82.1845C283.991 82.521 283.735 82.3298 283.487 82.4025C283.35 82.4446 283.296 82.6587 283.071 82.6357C282.964 82.6243 282.697 82.2419 282.429 82.2228C282.315 82.3948 282.204 82.6625 281.945 82.6357C281.551 82.2343 281.261 82.1998 280.746 82.1425L280.498 82.3872L280.383 82.1845C280.257 82.2266 280.009 82.1425 279.94 82.1578C279.81 82.1922 279.929 82.4522 279.451 82.3872C279.138 82.3451 279.123 82.1501 278.883 82.001C278.707 82.1081 278.447 81.9781 278.34 82.001C278.233 82.0239 278.191 82.1769 278.081 82.2037C277.894 82.2457 277.584 82.3145 277.39 82.4025C277.222 82.479 277.226 82.5975 276.974 82.6319C276.355 82.7199 276.221 82.6128 275.847 82.1769L274.003 82.1578C273.931 82.1769 273.209 83.1672 273.045 83.324C272.969 83.3967 272.781 83.3775 272.667 83.5496C272.266 84.1461 272.045 84.9797 271.945 85.6565C271.911 85.8897 272.075 85.97 272.106 86.1344C272.201 86.6621 272.178 87.3886 272.293 87.9584C272.377 88.3675 272.633 88.5281 272.949 88.7537L273.957 88.704L274.332 88.1113C274.412 88.0807 275.336 88.0731 275.431 88.0998C275.527 88.1266 275.515 88.4593 276.088 88.3407C276.263 88.3063 276.309 88.1534 276.428 88.1151C276.676 88.0387 276.882 88.1151 277.187 87.9316C277.287 87.8742 277.302 87.7251 277.378 87.706C277.504 87.6754 277.932 87.8475 278.241 87.7557C278.707 87.618 278.783 86.9718 279.383 87.5377L279.631 87.2892C279.871 87.3772 280.246 87.4307 280.494 87.3542C280.635 87.3121 280.715 87.1286 280.833 87.0483C281.486 86.5895 282.288 86.6392 282.93 86.0924C283.044 85.993 283.075 85.863 283.17 85.7635C283.296 85.8094 283.422 85.8477 283.563 85.8515C284.151 85.863 285.358 85.7253 285.824 85.798C285.911 85.8133 285.969 85.9586 286.076 85.993C286.4 86.0924 286.713 85.8209 286.854 86.253C287.072 86.9145 286.977 87.3007 287.068 87.8934C287.087 88.0195 287.202 88.1151 287.229 88.2948C287.274 88.6237 287.125 89.3846 287.049 89.7326C286.984 90.0193 286.484 90.3941 286.213 90.4323C286.034 90.4591 285.762 90.3367 285.713 90.3635C285.69 90.3788 285.675 90.5011 285.614 90.5432C285.132 90.872 284.789 91.1167 284.239 91.4074C283.8 91.6406 283.823 91.48 283.411 91.5603C283.235 91.5947 283.002 91.8624 282.8 91.9197C282.578 91.9809 282.265 92.0306 282.009 92.1683C281.903 92.2256 281.574 92.5162 281.544 92.5201C281.074 92.6233 280.295 92.4474 279.787 92.5201C279.574 92.5506 279.47 92.6959 279.23 92.6959C278.989 92.6959 278.883 92.5506 278.673 92.5201C277.569 92.3671 276.076 92.6806 274.965 92.5277C274.717 92.4933 274.66 92.325 274.572 92.3136C274.526 92.3059 273.732 92.2792 273.686 92.2906C273.591 92.3136 273.595 92.5009 273.507 92.5239C273.331 92.5698 273.026 92.4933 272.804 92.5239C272.247 92.608 271.697 92.8107 271.285 93.0554C270.724 93.3842 270.605 93.4875 270.002 93.6633C269.979 93.671 269.578 93.8889 269.563 93.9081C269.456 94.0342 269.261 95.0743 269.173 95.3343C269.04 95.7396 268.776 95.4834 268.62 95.6593C268.586 95.7014 268.131 96.5541 268.12 96.6076C267.994 97.162 268.288 97.9077 267.94 98.3589C267.94 98.4506 268.746 98.7374 268.876 98.8292C268.948 98.8789 268.994 99.0433 269.154 99.1542C269.399 99.3263 269.739 99.3148 269.849 99.3836C269.895 99.4104 269.899 99.5633 269.998 99.5978C270.262 99.6895 270.342 99.4066 270.552 99.3645C270.685 99.3377 271.632 99.3339 271.739 99.3645C271.816 99.3874 271.823 99.5213 271.884 99.5557C272.071 99.6551 272.537 99.9992 272.575 100.011C272.801 100.076 273.125 99.9381 273.285 99.9648C273.32 99.9687 273.686 100.229 273.812 100.29C274.099 100.424 274.026 100.362 274.286 100.535C274.53 100.695 275.133 100.496 275.374 100.531C275.446 100.542 275.775 100.829 275.954 100.879C276.115 100.925 276.275 100.871 276.401 100.898C276.489 100.917 276.454 101.104 276.653 101.143C276.783 101.165 277.161 101.162 277.283 101.123C277.394 101.089 277.447 100.948 277.558 100.913C277.913 100.806 278.512 100.814 278.814 100.737C278.905 100.714 278.898 100.527 278.993 100.504C279.077 100.485 279.287 100.607 279.467 100.577C279.696 100.542 279.719 100.263 280.196 100.324C280.379 100.347 280.326 100.527 280.448 100.561C280.528 100.584 280.627 100.508 280.719 100.538C280.849 100.58 281.085 100.848 281.326 100.89C281.704 100.955 282.071 100.63 282.609 100.733C282.857 100.779 282.804 101.078 283.094 101.135C283.731 101.257 284.827 101.081 285.507 101.089C285.835 101.506 286.473 101.177 286.858 101.311C286.969 101.349 286.961 101.521 287.045 101.54C287.301 101.605 287.74 101.46 287.916 101.49C288.004 101.506 288.057 101.651 288.172 101.686C288.252 101.708 288.355 101.636 288.435 101.67C288.809 101.823 288.962 102.217 289.351 102.351L290.607 103.919C290.63 104.427 289.97 104.878 289.84 105.165C289.745 105.379 289.844 105.616 289.783 105.83C289.737 105.987 288.92 106.584 288.748 106.653C288.63 106.698 288.519 106.595 288.431 106.653C287.931 106.974 287.549 106.905 286.946 107.02C286.767 107.054 286.713 107.238 286.541 107.264C286.362 107.291 286.148 107.173 286.068 107.192C285.98 107.215 285.972 107.375 285.927 107.406C285.843 107.455 285.686 107.402 285.602 107.444C285.423 107.532 285.125 107.815 284.93 107.83C284.808 107.842 284.377 107.601 284.335 107.471C283.735 107.173 283.277 107.272 282.601 107.268C282.471 107.268 282.269 107.18 282.208 107.195C282.113 107.218 282.116 107.406 282.029 107.429C281.841 107.478 281.536 107.387 281.322 107.429C281.147 107.463 281.097 107.631 280.917 107.666C280.639 107.723 280.07 107.505 280.005 107.719C279.963 107.868 280.055 108.063 279.91 108.19C279.661 108.408 278.982 108.442 278.661 108.396C278.413 108.362 278.356 108.197 278.268 108.182C278.035 108.148 277.516 108.32 277.229 108.22C277.115 108.178 277.119 107.995 277.054 107.983C276.848 107.949 276.771 108.19 276.576 108.228C276.412 108.258 275.511 108.251 275.412 108.186C275.362 108.151 275.355 108.029 275.313 108.006C274.988 107.811 274.53 107.83 274.164 107.83C274.015 107.83 273.755 107.742 273.69 107.758C273.56 107.788 273.43 108.239 273.205 108.228C273.125 108.209 273.007 107.891 272.885 107.815C272.827 107.781 272.598 107.765 272.354 107.635C271.487 107.176 270.72 107.693 269.91 107.211C269.38 107.195 268.024 107.398 267.589 107.245C267.455 107.199 267.44 107.012 267.337 106.935C267.234 106.859 267.085 106.836 266.967 106.744C266.795 106.607 266.871 106.327 266.47 106.473C266.356 106.515 266.291 106.66 266.195 106.687C266.047 106.729 265.902 106.607 265.814 106.626C265.718 106.645 265.722 106.84 265.634 106.859C265.386 106.916 265.111 106.855 264.863 107.008C264.664 106.958 264.443 106.503 264.386 106.469C264.298 106.419 264.153 106.469 264.061 106.435C263.951 106.389 263.893 106.274 263.844 106.255C263.741 106.217 263.374 106.331 263.156 106.289C262.977 106.255 262.916 106.083 262.824 106.067C262.744 106.052 262.614 106.155 262.568 106.121C262.534 106.094 262.538 105.941 262.427 105.899C262.328 105.865 261.679 105.865 261.553 105.888C261.377 105.922 261.331 106.079 261.217 106.106C261.148 106.121 261.037 106.041 260.946 106.083C260.843 106.132 260.816 106.305 260.74 106.366C259.522 107.322 259.117 108.453 258.094 109.513C257.876 109.738 257.242 110.113 257.212 110.159C257.105 110.312 256.918 110.866 256.803 111.038C256.761 111.103 256.395 111.551 256.368 111.566C256.173 111.685 255.795 111.532 255.639 111.642C255.566 111.696 255.479 112.197 255.318 112.365C255.291 112.392 254.711 112.759 254.677 112.77C254.566 112.813 254.463 112.728 254.364 112.77C254.211 112.835 254.215 113.057 253.89 112.9C253.741 113.118 253.272 113.814 253.073 113.898C252.753 114.036 252.447 113.837 252.313 113.872C252.214 113.895 252.226 114.082 252.134 114.105C252.023 114.132 251.871 114.078 251.748 114.105C251.714 114.113 251.176 114.288 251.145 114.3C251.057 114.342 250.702 114.831 250.443 114.896C250.29 114.935 250.145 114.816 250.065 114.835C249.973 114.854 249.988 115.026 249.878 115.065C249.565 115.179 248.931 115.179 248.736 115.267C248.518 115.367 248.404 115.856 247.927 115.99C247.797 116.024 247.663 115.933 247.625 115.959C247.591 115.982 247.587 116.112 247.533 116.151C247.323 116.292 246.545 116.116 246.224 116.208C245.949 116.288 245.239 116.934 244.918 116.996C244.773 117.022 243.922 117.022 243.807 116.984L243.231 116.353L242.975 116.598C242.62 116.686 242.475 116.319 242.349 116.353C242.272 116.372 242.265 116.571 242.173 116.598C241.509 116.766 240.76 116.181 240.776 115.508C240.776 115.325 241.051 114.763 241.1 114.541C241.146 114.342 241.23 113.933 241.264 113.734C241.314 113.436 241.157 113.382 241.104 113.138C241.585 113.153 241.883 112.449 242.226 112.124C243.101 111.298 244.231 110.755 245.392 110.484C245.483 110.461 245.476 110.274 245.571 110.251C245.754 110.205 246.537 110.415 246.915 110.304C247.205 110.22 247.514 109.765 247.614 109.711C247.732 109.65 247.892 109.807 248.095 109.719C248.27 109.643 248.412 109.295 248.587 109.161C248.671 109.1 248.858 109.027 248.969 108.977C249.274 108.832 249.82 108.736 250.099 108.503C250.378 108.27 251.111 107.157 251.313 107.062C251.607 106.928 252.084 107.115 252.359 106.981C252.481 106.92 252.966 106.182 253.157 106.01C253.402 105.788 253.986 105.528 254.261 105.307C254.661 104.985 255.085 104.419 255.368 103.957C255.437 103.842 255.387 103.62 255.543 103.574C255.601 103.559 255.708 103.643 255.815 103.601C256.196 103.448 256.597 101.999 256.998 101.884C257.185 101.831 257.365 101.934 257.544 101.785C257.586 101.751 258.101 101.108 258.113 101.066C258.189 100.814 257.903 100.527 258.105 100.5C258.243 100.481 258.518 100.657 258.812 100.565C259.052 100.489 259.205 100.412 259.533 100.32C259.751 100.259 259.919 99.9648 260.194 99.9419C260.232 99.6436 260.427 99.4142 260.533 99.1504C260.595 99.0013 260.541 98.8254 260.648 98.6189C260.953 98.0147 262.16 97.6974 262.007 96.5961L261.847 96.5579C261.717 97.1812 261.263 96.8485 261.011 96.8982C260.9 96.9212 260.854 97.12 260.602 97.1315C260.472 97.1353 260.209 97.0206 260.171 97.0512C260.136 97.0779 259.785 97.6438 259.743 97.6706C259.35 97.9038 258.911 96.9364 258.411 97.055C257.834 98.0224 256.651 98.5959 256.246 99.6819C256.147 99.9457 256.36 100.225 255.86 100.19C255.49 100.164 255.543 99.8539 255.368 99.7928C255.173 99.7278 254.917 99.8386 254.7 99.7392C254.429 99.6169 254.581 99.2154 254.058 99.4219C253.535 99.6283 253.211 100.267 252.459 100.011L252.13 99.0089L251.638 99.0204C251.588 98.5195 251.336 98.6074 251.126 98.4048C250.733 98.0262 250.546 97.6782 250.561 97.1162C249.423 97.0397 249.752 96.4623 249.629 95.7167C249.61 95.5943 249.496 95.5064 249.477 95.3878C249.423 95.0399 249.53 94.6346 249.45 94.2866C249.397 94.061 249.118 93.5104 248.828 93.6595V93.541C249.179 93.3651 249.16 92.8336 249.355 92.6156C249.431 92.5315 249.565 92.5545 249.633 92.4742C249.717 92.3786 250.015 91.9159 250.042 91.8968C250.091 91.8662 250.225 91.9847 250.351 91.935C250.385 91.9236 250.645 91.6597 250.676 91.6138C250.821 91.3921 250.989 90.9409 251.122 90.6923C251.218 90.5164 251.424 90.4285 251.397 90.1685C251.107 89.7058 251.103 89.0864 250.824 88.6466C250.477 88.0998 250.29 88.4593 249.755 88.2834C249.603 88.5128 249.026 88.899 248.763 88.7346C248.725 88.7116 248.721 88.5587 248.618 88.5243C248.152 88.3637 247.946 88.8187 247.724 87.966C247.583 87.423 247.625 87.5798 247.423 87.1401C247.102 86.448 248.11 84.9567 247.56 84.1996L248.328 83.2972C248.442 82.5784 248.717 81.8251 248.824 81.1368C248.873 80.8042 248.755 80.3262 248.843 80.0318C248.854 79.9936 249.305 79.4315 249.343 79.4047C249.587 79.2441 249.851 79.3932 250.065 79.3206C250.183 79.2785 250.164 79.0988 250.244 79.0912C250.305 79.0873 250.389 79.1829 250.515 79.1332C250.973 78.9573 250.431 78.2538 251.283 78.357C251.477 78.3799 251.47 78.682 251.699 78.7508C252.061 78.8579 252.672 78.6935 253.05 78.7661C253.249 78.8044 253.218 78.9879 253.306 79.0109C253.497 79.0606 253.73 78.942 253.856 78.9611C253.944 78.9726 254.009 79.1409 254.177 79.1715C254.562 79.2441 254.849 78.8235 255.139 78.77C255.295 78.7394 256.128 78.747 256.223 78.812C256.28 78.8503 256.284 78.9803 256.315 79.0032C256.364 79.0376 256.49 78.9344 256.57 78.9497C256.601 78.9535 256.983 79.225 257.113 79.2862C257.242 79.3473 257.407 79.3015 257.491 79.3512C257.578 79.4047 257.498 79.6035 257.872 79.5806C258.124 79.5653 258.155 79.3856 258.289 79.3473C258.476 79.2938 258.693 79.3626 258.896 79.3129C259.083 79.267 259.27 78.9841 259.407 78.9535C259.976 78.8235 260.182 79.4162 260.537 79.7182L262.855 79.7412C263.008 79.7718 262.992 79.5271 263.099 79.5041C263.34 79.4429 264.332 79.6838 264.768 79.5576C264.951 79.5041 265.588 78.965 265.68 78.9497C266.085 78.877 265.909 79.0606 266.493 78.7891C266.932 78.5864 266.726 78.6705 267.028 78.4411C267.154 78.3455 267.746 78.3264 267.902 78.3646C267.99 78.3876 267.956 78.5711 268.158 78.6094C268.33 78.64 269.448 78.6361 269.59 78.5902C269.708 78.5558 269.754 78.3991 269.929 78.3646C270.063 78.3379 270.838 78.3341 270.956 78.3646C271.063 78.3914 271.098 78.8158 271.537 78.7776C271.693 78.8044 271.678 78.5635 271.781 78.5367C271.865 78.5138 272.186 78.6514 272.419 78.6055C272.591 78.5711 272.64 78.4182 272.759 78.3799C273.144 78.2614 273.751 78.5099 274.034 77.9746C274.213 78.0932 274.522 77.9708 274.637 78.009C274.767 78.0549 275.019 78.3379 275.244 78.3646C275.481 78.3952 275.557 78.2346 275.721 78.2079C275.901 78.1773 276.115 78.2423 276.263 78.2079C276.344 78.1888 276.378 77.9937 276.473 77.9173C276.588 77.8255 276.741 77.8102 276.836 77.7184C277.275 77.3017 277.409 76.621 278.191 76.839C278.26 76.8581 278.279 77.0034 278.386 77.0608C278.577 77.164 278.993 77.4775 279.031 77.4852C279.169 77.5158 279.322 77.4202 279.421 77.4317C279.505 77.4431 279.566 77.6114 279.814 77.6458C280.062 77.6802 280.402 77.5693 280.547 77.5923C280.669 77.6114 280.696 77.8064 281.105 77.8102C281.628 77.8102 281.715 77.4584 281.918 77.4202C282.009 77.4011 282.174 77.4852 282.307 77.4852C282.804 77.4814 283.735 77.5655 284.159 77.4814C284.193 77.4737 284.793 77.2405 284.823 77.2214C284.896 77.1755 284.884 76.9078 285.205 77.0378C285.32 77.0837 285.369 77.2099 285.526 77.2405C286.148 77.3628 286.308 76.7434 286.652 76.6784C287.019 76.6096 287.152 76.8505 287.454 76.8505C287.698 76.8505 287.778 76.7128 287.939 76.6822C288.313 76.6172 288.668 76.6822 288.989 76.8696L288.947 76.8658ZM260.812 84.5132C260.568 84.3794 260.301 84.2532 260.014 84.3411C259.85 84.3908 259.751 84.6394 259.632 84.6891C259.403 84.7808 259.277 84.7464 258.953 84.9644C258.865 85.0217 258.777 85.1862 258.701 85.2015C258.605 85.2168 258.491 85.0256 258.315 85.0409C258.151 85.0562 258.086 85.2473 257.972 85.2779C257.823 85.32 257.678 85.1976 257.59 85.2168C257.494 85.2359 257.498 85.4271 257.41 85.45C257.166 85.515 256.758 85.385 256.479 85.4653C256.2 85.5456 255.776 86.058 255.417 86.0121C255.181 86.1077 255.731 86.318 255.784 86.3677C256.326 86.8724 256.517 87.1363 257.231 87.4957C257.842 87.8054 258.407 88.1419 259.018 88.5281C259.14 88.6046 259.361 88.8455 259.533 88.8952C260.068 89.0443 261.251 88.8531 261.851 88.8646L262.427 89.4573C262.756 89.5223 263.126 89.4267 263.45 89.4764C263.599 89.4993 263.687 89.6217 263.931 89.6408C264.516 89.6829 264.344 89.4917 264.565 89.3387C265.042 89.0099 265.455 89.1131 265.348 88.3025C265.321 88.1075 265.172 87.9889 265.172 87.8245C265.172 87.6104 265.459 87.2357 265.497 87.0139C265.531 86.8112 265.531 86.0083 265.459 85.8515C265.447 85.8285 265.184 85.4768 265.161 85.4653C264.936 85.3315 264.302 85.6029 263.767 85.2091C263.676 85.1403 263.649 84.9759 263.565 84.9261C263.534 84.9109 263 84.6814 262.966 84.6738C262.5 84.6011 261.564 84.8267 261.03 84.7235C260.85 84.6891 260.862 84.54 260.805 84.5094L260.812 84.5132Z" fill="black"/>
<path d="M274.508 164.834C274.351 164.987 275.004 165.507 275.107 165.641C275.203 165.763 275.199 165.97 275.252 166.02C275.748 166.517 276.424 167.064 276.84 167.687C276.882 167.748 277.226 168.444 277.234 168.497C277.356 169.243 276.928 169.312 276.592 169.778C276.504 169.901 276.527 170.069 276.436 170.187C276.317 170.344 275.672 171.105 275.561 171.185C274.882 171.667 274.534 171.136 274.015 170.91C273.187 170.551 272.919 170.459 272.125 169.901C271.614 169.541 271.091 169.09 270.571 168.723C270.491 168.666 270.468 168.532 270.4 168.494C270.235 168.398 269.453 168.214 269.292 168.306C269.117 168.409 268.639 169.434 268.372 169.637C267.891 169.56 267.574 170.356 267.082 170.207C266.952 170.168 266.872 169.947 266.746 169.977C266.631 170.092 266.597 170.23 266.456 170.333C266.181 170.539 264.157 171.124 263.764 171.182C262.836 171.319 262.21 170.784 261.317 170.864C261.172 170.191 261.603 169.966 261.931 169.507C262.531 168.666 263.317 167.951 263.871 167.018C264.234 166.406 264.115 166.1 264.218 165.511C264.268 165.217 264.604 164.888 264.508 164.475C264.39 163.966 264.104 164.184 263.775 164.184C262.325 164.184 260.878 164.173 259.427 164.184C258.808 164.188 259.11 164.295 258.934 164.345C258.61 164.433 257.949 164.261 257.598 164.345C257.537 164.36 257.548 164.49 257.487 164.502C256.422 164.735 255.315 164.639 254.2 164.819C253.933 164.865 253.578 164.765 253.337 164.838C253.211 164.876 253.142 165.068 253.001 165.068C252.86 165.068 252.787 164.876 252.665 164.838C252.516 164.792 251.256 164.788 251.073 164.823C250.855 164.865 250.825 165.11 250.512 165.068C250.321 165.041 250.229 164.788 250.107 164.823C250.046 164.838 250.023 164.995 249.958 165.037C249.565 165.312 249.321 165.427 248.908 165.553C248.729 165.607 248.633 165.729 248.416 165.718C248.275 165.714 248.317 165.584 248.236 165.553C248.133 165.515 248.007 165.572 247.847 165.473C247.312 165.14 247.19 164.184 246.438 163.821C246.331 163.767 246.121 163.905 246.125 163.657C246.312 163.611 246.419 163.19 246.442 163.175C246.629 163.056 247.118 163.018 247.228 162.953C247.251 162.938 247.545 162.54 247.553 162.513C247.591 162.387 247.538 162.15 247.58 162.097C247.599 162.074 247.767 162.074 247.851 162.009C248 161.894 248.072 161.695 248.16 161.63C248.851 161.106 249.878 160.67 250.638 160.231C250.733 160.177 250.741 160.039 250.836 160.005C251.104 159.913 251.39 159.997 251.844 159.821C252.669 159.496 252.661 159.626 253.475 159.504C253.677 159.473 254.166 159.221 254.368 159.19C254.799 159.129 255.513 159.278 255.876 159.19C255.968 159.168 255.941 158.961 256.132 158.942C256.411 158.911 256.369 159.164 256.472 159.19C256.922 159.313 256.827 158.888 257.117 158.804C257.407 158.72 257.797 158.869 257.987 158.835C258.087 158.82 258.132 158.663 258.236 158.644C258.316 158.628 258.446 158.732 258.491 158.697C258.537 158.663 258.499 158.502 258.705 158.46C259.053 158.391 259.083 158.609 259.27 158.667C259.526 158.751 259.992 158.437 260.259 158.326C260.377 158.277 260.538 158.323 260.675 158.261C260.797 158.208 260.82 158.032 261.038 157.982C261.496 157.883 261.569 158.254 262 158.307L262.13 158.265L262.214 157.99C262.29 157.917 262.92 158.036 263.119 157.967C263.229 157.929 263.222 157.757 263.306 157.737C263.39 157.718 264.15 157.715 264.237 157.737C264.352 157.764 264.314 158.059 264.57 157.978C264.642 157.955 264.696 157.783 264.783 157.707C264.848 157.65 264.99 157.661 265.054 157.577C265.394 157.118 265.169 156.132 264.757 155.745C264.402 155.738 264.211 155.516 263.848 155.558C263.669 155.581 263.577 155.699 263.443 155.722C262.981 155.799 262.729 155.676 262.325 156.097H260.309C260.232 156.086 259.969 155.803 259.919 155.722C259.415 154.87 259.011 152.935 259.144 151.983C259.293 150.904 259.564 149.845 259.717 148.771C259.919 147.303 259.744 145.918 259.305 144.5L259.557 143.051L259.305 142.963C259.293 142.703 259.343 142.42 259.305 142.167C259.263 141.873 259.064 141.334 258.984 140.959C258.858 140.382 258.633 139.292 258.583 138.707C258.552 138.378 258.636 137.976 258.583 137.659C258.545 137.453 258.266 137.147 258.262 137.009C258.262 136.963 258.411 136.979 258.426 136.917C258.468 136.741 258.381 136.554 258.468 136.328C258.507 136.229 258.881 135.808 258.984 135.717C259.087 135.625 260.045 134.944 260.11 134.921C260.251 134.872 260.74 135.021 261.019 134.94C261.183 134.891 261.271 134.654 261.397 134.596C261.565 134.52 264.757 134.497 265.051 134.554C265.077 134.558 265.49 134.726 265.57 134.757C265.684 134.803 265.707 134.963 265.936 134.963C266.165 134.963 266.192 134.803 266.303 134.757C267.04 134.451 268.063 134.531 268.914 134.547C269.059 134.547 269.243 134.638 269.304 134.635C269.365 134.631 269.373 134.482 269.437 134.443C269.987 134.118 270.403 134.103 270.835 134.6C271.686 134.6 272.835 134.436 273.656 134.547C273.904 134.581 273.965 134.749 274.049 134.761C274.183 134.78 274.374 134.658 274.599 134.726C274.714 134.761 274.763 134.914 274.939 134.952C275.523 135.07 275.63 134.703 275.901 134.703C276.142 134.703 276.18 134.895 276.321 134.937C276.795 135.086 276.791 134.734 276.882 134.711C277.188 134.631 277.795 134.814 277.982 134.776C278.085 134.757 278.146 134.573 278.318 134.55C278.478 134.528 278.623 134.642 278.711 134.638C278.768 134.638 278.841 134.348 279.001 134.275C279.398 134.095 279.647 134.363 279.998 134.401C280.922 134.501 281.716 134.107 282.64 134.248C283.575 135.178 283.35 136.156 282.835 137.231C282.751 137.407 282.522 137.586 282.476 137.755C282.384 138.103 282.51 138.588 282.46 138.948C282.216 140.68 282.403 142.313 282.14 144.018C282.063 144.523 282.124 145.177 282.14 145.62C282.174 146.515 281.85 146.84 281.808 147.471C281.781 147.838 281.953 147.96 281.983 148.274C282.021 148.691 281.85 148.84 281.815 149.161C281.693 150.224 281.865 151.616 281.88 152.698C281.827 152.992 280.8 153.696 280.609 153.994C280.418 154.292 280.303 154.809 280.078 155.153C279.872 155.474 279.524 155.749 279.326 156.089C278.7 156.024 278.062 156.044 277.428 156.044C277.299 156.044 277.1 156.132 277.035 156.116C276.94 156.093 276.943 155.906 276.856 155.883C276.688 155.837 276.428 155.925 276.245 155.883C276.02 155.829 275.428 155.604 275.107 155.558C274.626 155.489 273.981 155.638 273.5 155.558C273.08 155.485 272.992 155.03 272.545 155.16C272.45 155.187 272.404 155.485 272.19 155.546C271.896 155.631 271.465 155.516 271.121 155.726C271.346 156.3 271.495 156.938 271.9 157.416C272.232 157.474 272.778 157.34 273.072 157.416C273.16 157.439 273.126 157.623 273.328 157.661C274.053 157.799 276.18 157.462 276.684 157.741C276.768 157.787 276.779 157.913 276.825 157.936C277.257 158.17 279.544 157.829 280.223 157.982C280.265 157.99 280.746 158.403 280.903 158.445C281.059 158.487 281.296 158.426 281.391 158.479C281.433 158.506 281.437 158.667 281.521 158.682C281.613 158.697 281.872 158.583 282.09 158.625C282.247 158.655 282.69 158.965 282.831 159.011C283.079 159.091 283.308 158.957 283.461 158.98C283.499 158.984 283.957 159.278 284.121 159.328C284.667 159.489 285.488 159.504 285.981 159.879C286.114 159.982 286.171 160.188 286.282 160.223C286.427 160.269 286.599 160.208 286.737 160.238C286.801 160.253 286.756 160.383 286.908 160.403C287.252 160.448 288.172 160.318 288.504 160.219C288.607 160.188 288.665 160.047 288.779 160.013C289.493 159.798 290.249 159.821 291.016 159.676C291.501 159.584 291.681 159.894 291.833 160.299C292.162 161.186 291.669 163.576 291.058 164.307C290.719 164.712 290.123 164.926 289.718 165.178C289.669 165.209 289.337 165.542 289.31 165.546C288.745 165.672 288.153 165.783 287.58 165.893C284.973 166.387 283.083 166.314 280.559 165.553C280.319 165.48 279.83 165.45 279.608 165.377C279.502 165.343 279.509 165.167 279.421 165.144C278.772 164.976 277.211 165.358 276.634 165.056C276.554 165.014 276.401 164.823 276.382 164.823H274.492L274.508 164.834ZM263.634 138.776C263.39 138.665 262.756 138.795 262.454 138.753C262.286 139.361 262.019 139.835 262.855 140.068C263.397 140.221 263.619 139.904 264.096 140.435C265.738 140.271 267.819 140.657 269.407 140.443C269.567 140.42 269.51 140.271 269.563 140.271C269.682 140.278 269.754 140.408 269.888 140.431C270.38 140.515 270.533 140.328 270.854 140.278C271.14 140.232 271.56 140.336 271.797 140.278C271.889 140.255 271.892 139.93 272.209 140.041C272.343 140.087 272.27 140.412 272.763 140.259C272.889 140.221 272.923 140.064 273.103 140.064C273.309 140.064 273.446 140.382 273.985 140.275C274.118 140.248 274.195 140.118 274.309 140.114C274.34 140.114 274.309 140.351 274.794 140.282C274.97 140.259 275.004 139.923 275.317 139.915L275.267 139.712C274.863 139.82 274.943 139.582 274.802 139.468C274.569 139.28 274.447 139.575 274.149 139.563C274.004 139.556 274.042 139.41 273.977 139.395C273.511 139.284 272.66 139.464 272.137 139.399C271.984 139.38 272.06 139.246 271.908 139.227C270.235 139.017 268.441 139.403 266.681 139.066C266.44 139.02 266.15 138.787 265.875 138.745C265.184 138.642 265.387 138.978 265.135 139.055C264.776 139.166 264.088 139.017 263.722 138.902C263.653 138.879 263.657 138.783 263.638 138.772L263.634 138.776ZM268.937 144.572C268.464 144.358 265.696 144.664 264.894 144.549C264.715 144.523 264.619 144.408 264.493 144.389C263.688 144.259 263.405 144.58 262.851 145.069C262.977 145.287 263.111 145.199 263.294 145.265L263.336 145.59C263.413 145.67 265.219 145.544 265.547 145.59C267.231 145.827 268.365 145.769 270.041 145.59C271.564 145.425 273.397 145.72 274.954 145.601C275.283 145.383 275.768 145.085 275.6 144.622L275.504 144.557C275.099 144.572 274.615 144.496 274.225 144.538C273.683 144.595 272.965 144.989 272.457 144.913C272.316 144.894 272.236 144.626 271.736 144.695C271.549 144.722 271.598 144.909 271.495 144.932C271.465 144.939 270.888 144.917 270.85 144.909C270.766 144.897 270.705 144.748 270.598 144.714C270.117 144.572 269.934 145.02 269.567 144.901C269.43 144.855 269.052 144.611 268.941 144.565L268.937 144.572ZM264.444 150.04C264.18 149.88 263.817 150.128 263.752 150.404C263.714 150.568 263.794 150.687 263.783 150.786C263.772 150.885 263.611 150.924 263.657 151.065H269.651C270.445 150.648 271.682 151.073 272.465 150.954C272.553 150.939 272.61 150.774 272.858 150.74C273.641 150.633 274.664 150.828 275.474 150.744C275.516 150.518 275.412 150.614 275.302 150.557C274.519 150.159 272.454 150.602 271.495 150.419C271.22 150.365 271.201 150.048 270.854 150.014C270.38 149.968 270.457 150.235 270.354 150.262C270.3 150.277 269.323 150.427 269.247 150.43C268.83 150.449 268.422 150.17 267.803 150.262C267.647 150.285 267.548 150.461 267.33 150.423C267.296 150.415 266.952 150.059 266.753 150.021C266.593 149.991 265.871 149.991 265.711 150.021C265.524 150.056 265.497 150.228 265.234 150.266C265.108 150.285 264.699 150.285 264.596 150.251C264.493 150.216 264.489 150.063 264.451 150.04H264.444Z" fill="black"/>
<path d="M225.321 137.927L225.508 137.946C225.569 137.927 225.573 137.782 225.63 137.743C225.752 137.667 227.463 137.671 227.638 137.743C227.707 137.77 227.757 137.896 227.86 137.927C228.161 138.019 228.574 137.801 228.811 138.099C228.967 137.682 229.544 137.579 229.925 137.713C230.036 137.751 230.028 137.923 230.112 137.942C230.242 137.977 231.174 137.957 231.262 137.896C231.319 137.862 231.315 137.717 231.395 137.697C231.498 137.671 232.056 137.678 232.189 137.697C232.453 137.732 232.48 137.908 232.667 137.942C234.255 138.252 236.206 138.325 237.806 138.099C238.355 138.022 241.486 138.015 241.967 138.126C242.024 138.137 242.674 138.489 242.727 138.535C242.819 138.611 243.292 139.353 243.349 139.479C243.525 139.862 244.143 141.567 244.197 141.934C244.231 142.167 244.235 143.162 244.159 143.337C244.017 143.659 243.597 143.552 243.563 143.586C243.544 143.605 243.567 143.8 243.517 143.9C243.189 144.534 242.803 144.985 242.231 145.433C242.158 145.486 242.051 145.463 241.99 145.509C241.856 145.616 241.776 145.861 241.658 145.903C241.398 145.991 240.875 145.831 240.742 145.88C240.589 145.938 240.413 146.289 240.299 146.393C240.196 146.484 240.051 146.503 239.936 146.591C239.844 146.66 239.81 146.84 239.764 146.863C239.676 146.913 239.505 146.851 239.466 146.886C239.451 146.897 239.444 147.131 239.386 147.253C239.321 147.391 239.157 147.452 239.142 147.505C239.092 147.7 239.165 147.914 238.978 148.129C239.692 148.343 239.382 148.786 239.466 149.333C239.482 149.44 239.577 149.517 239.6 149.601C239.749 150.205 239.821 150.824 239.978 151.39C240.024 151.551 240.318 152.178 240.329 152.243C240.352 152.354 240.226 152.514 240.28 152.698C240.314 152.816 240.493 152.874 240.509 153.038C240.524 153.18 240.409 153.352 240.417 153.52C240.429 153.772 240.627 153.807 240.665 154.002C240.703 154.197 240.7 155.072 240.673 155.294C240.639 155.558 240.463 155.589 240.429 155.772C240.364 156.109 240.528 156.785 240.49 156.969C240.482 156.996 240.287 157.439 240.272 157.462C239.825 158.193 239.306 158.946 238.867 159.68C238.684 159.99 238.413 161.118 238.222 161.29C238.199 161.313 237.775 161.561 237.714 161.588C237.263 161.798 236.908 161.73 236.443 162.165C236.183 162.41 235.862 162.85 235.564 163.06C235.324 163.228 234.999 163.401 234.705 163.336C234.488 163.286 234.488 163.007 234.32 162.942C234.175 162.888 233.686 162.812 233.491 162.731C233.033 162.544 232.564 162.165 232.186 161.772C232.079 161.661 231.376 160.812 231.361 160.747C231.174 160.127 231.834 159.202 232.273 158.797C232.609 158.483 233.293 158.307 233.598 158.036C233.957 157.718 234.366 157.038 234.721 156.655C234.835 156.533 235.019 156.541 235.125 156.418C235.305 156.22 236.485 154.866 236.53 154.767C236.55 154.728 236.725 154.009 236.737 153.925C236.771 153.681 236.767 152.878 236.729 152.637C236.641 152.113 235.977 151.333 235.412 151.298C234.915 151.264 234.858 151.601 234.373 151.474L234.24 151.868C234.011 151.899 233.736 151.815 233.522 151.914C233.339 151.998 233.216 152.396 233.033 152.48C232.911 152.533 232.796 152.449 232.712 152.48C232.323 152.633 232.033 152.859 231.693 153.057C231.445 153.203 230.403 153.757 230.177 153.795C229.952 153.834 229.315 153.723 229.211 153.876C229.047 154.583 228.91 155.367 229.013 156.101C229.257 157.829 229.887 159.592 229.704 161.416C229.673 161.737 229.15 162.288 229.166 162.701C229.181 163.01 229.593 163.183 229.654 163.511C229.727 163.913 229.719 165.817 229.662 166.249C229.624 166.536 229.372 166.842 229.334 167.129C229.219 167.989 229.479 169.193 229.334 170.027C229.284 170.302 228.914 170.769 228.86 171.082C228.818 171.327 228.902 171.599 228.822 171.847C228.757 172.042 228.555 172.061 228.536 172.142C228.421 172.562 228.822 174.757 227.711 174.405C227.593 174.367 227.547 174.214 227.371 174.18C227.211 174.149 226.493 174.149 226.329 174.18C226.165 174.21 225.89 174.489 225.665 174.558C225.516 174.604 225.344 174.55 225.214 174.593C225.103 174.627 225.115 174.803 225.027 174.826C224.932 174.849 224.512 174.845 224.393 174.826C224.095 174.784 223.904 174.436 223.473 174.581C223.549 174.176 223.271 173.851 223.156 173.487C222.835 172.451 223.141 171.404 222.996 170.348C222.969 170.146 222.851 170.046 222.824 169.794C222.786 169.431 222.778 168.368 222.835 168.02C222.881 167.725 223.149 167.641 223.16 167.37C223.171 167.075 222.877 166.739 222.835 166.479C222.793 166.219 222.797 164.949 222.874 164.754C222.927 164.62 223.213 164.398 223.271 164.265C223.401 163.947 223.523 163.278 223.469 162.942C223.45 162.808 223.156 162.127 223.168 162.07C223.221 161.737 223.259 161.362 223.32 161.011C223.359 160.777 223.603 160.472 223.641 160.204C223.729 159.55 223.481 157.608 223.679 157.183C223.736 157.061 223.916 157.034 223.958 156.82C224.084 156.17 223.859 155.164 223.958 154.484C224.03 153.964 224.21 153.581 224.13 152.954C224.111 152.801 223.977 152.878 223.958 152.725C223.916 152.403 224.015 152.002 223.958 151.677C223.901 151.352 223.542 150.755 223.485 150.381C223.378 149.654 223.599 149.849 223.206 149.13C222.984 148.721 222.939 148.331 222.797 148.01C222.732 147.865 222.343 147.674 222.37 147.501C222.637 146.981 222.881 146.351 223.324 145.949C223.527 145.766 224.21 145.41 224.492 145.192C224.596 145.112 224.611 144.928 224.744 144.878C224.855 144.84 226.107 144.833 226.26 144.863C226.459 144.901 226.424 145.085 226.516 145.108C226.741 145.165 227.15 145.043 227.367 145.104C227.455 145.127 227.451 145.28 227.497 145.307C227.554 145.341 227.677 145.257 227.818 145.307C227.917 145.341 228.772 145.857 228.826 145.907C228.933 146.003 229.574 146.729 229.608 146.813C229.818 147.326 229.513 147.501 229.387 147.918C229.311 148.167 229.315 148.446 229.177 148.683L229.54 149.203C229.75 148.974 230.028 148.912 230.269 148.721C230.437 148.584 230.632 148.259 230.72 148.201C230.933 148.071 231.43 147.93 231.64 147.758C231.8 147.624 232.029 147.18 232.189 147.058C232.712 146.656 233.465 146.496 233.881 145.815C234.163 145.353 234.056 145.574 234.415 145.219C234.545 145.089 235.461 144.01 235.461 143.93C235.461 143.682 235.152 143.632 235.003 143.54C234.95 143.506 234.938 143.372 234.847 143.341C234.263 143.146 232.674 143.464 231.964 143.33C231.727 143.284 231.75 143.039 231.605 142.967L225.126 143.001C225.031 143.261 224.87 143.265 224.699 143.38C224.634 143.425 224.626 143.552 224.554 143.571C224.397 143.613 222.729 143.586 222.603 143.529C222.442 143.456 222.343 143.162 222.206 143.039C222.007 142.867 221.77 142.898 221.633 142.569C221.53 142.32 221.583 142.171 221.537 141.938C221.522 141.861 221.415 141.781 221.392 141.67C221.366 141.521 221.541 141.605 221.564 141.441C221.633 140.909 221.324 140.772 221.4 140.393C221.423 140.282 221.511 140.21 221.534 140.122C221.625 139.762 221.782 139.227 221.919 138.898C221.957 138.806 222.557 138.137 222.656 138.107C223.309 137.915 224.206 138.325 224.905 137.9C225.031 137.824 225.13 137.399 225.348 137.912L225.321 137.927Z" fill="black"/>
<path d="M216.173 142.745C216.551 142.974 216.719 142.982 217.108 142.775C217.471 143.33 217.7 143.54 217.597 144.267C217.525 144.771 217.414 145.528 217.223 145.983C216.876 146.809 216.15 147.964 215.616 148.721C215.49 148.897 214.993 149.364 214.951 149.509C214.894 149.7 214.997 149.849 214.982 149.979C214.967 150.102 214.669 150.733 214.634 150.882C214.543 151.283 214.535 152.465 214.619 152.874C214.654 153.05 214.822 153.111 214.841 153.206C214.867 153.333 214.734 153.566 214.795 153.826C214.97 154.579 215.215 154.92 215.268 155.78C215.276 155.902 215.421 155.971 215.406 156.082C215.375 156.323 215.016 156.766 215.02 156.82C215.02 156.919 215.142 156.996 215.158 157.076C215.192 157.256 215.043 157.615 215.119 157.933C215.161 158.108 215.318 158.185 215.348 158.43C215.398 158.827 215.226 159.374 215.261 159.638C215.283 159.806 215.467 159.864 215.505 160.047C215.589 160.479 215.387 161.362 215.444 161.645C215.463 161.737 215.616 161.802 215.65 161.913C215.738 162.185 215.574 162.468 215.604 162.613C215.623 162.708 215.78 162.77 215.814 162.88C215.875 163.076 215.757 163.259 215.787 163.397C215.814 163.519 215.963 163.592 215.99 163.825C216.123 164.85 215.597 165.657 215.268 166.57C215.012 166.777 214.703 166.773 214.577 166.448C214.356 166.85 214.069 166.517 213.783 166.616C213.68 166.651 213.68 166.8 213.634 166.827C213.607 166.842 213.081 166.999 213.046 167.002C212.653 167.064 212.256 167.006 211.905 166.827C211.95 166.536 211.641 166.383 211.595 166.203C211.55 166.039 211.702 165.974 211.721 165.836C211.798 165.278 211.385 163.97 210.836 163.745C210.706 163.691 210.599 163.771 210.519 163.741C210.347 163.672 210.175 163.596 209.98 163.519C209.95 163.508 209.98 163.324 209.759 163.381C209.717 163.393 209.797 163.569 209.438 163.55C209.079 163.531 209.091 163.355 208.938 163.313C208.797 163.274 208.663 163.381 208.56 163.366C208.388 163.339 208.32 162.957 208.155 162.93C207.705 162.957 206.972 163.06 206.544 162.98C206.357 162.942 206.33 162.77 206.067 162.735C205.88 162.708 204.834 162.716 204.735 162.781C204.685 162.812 204.677 162.934 204.635 162.961C204.605 162.98 204.005 163.152 203.971 163.152C203.73 163.152 203.677 162.949 203.574 162.934C203.368 162.903 202.921 163.064 202.638 162.942C202.528 163.129 202.138 163.469 201.944 163.527C201.669 163.607 201.241 163.469 201.004 163.553C200.89 163.596 200.897 163.748 200.863 163.775C200.813 163.81 200.687 163.706 200.607 163.722C200.352 163.764 199.954 164.295 199.893 164.33C199.576 164.509 199.263 164.456 198.931 164.532C198.599 164.609 198.03 165.121 197.679 165.293C196.877 165.691 196.32 165.695 195.423 165.626C195.384 165.018 194.602 164.88 194.407 164.429C194.376 164.36 194.06 163.397 194.048 163.339C193.918 162.575 194.174 162.246 194.682 161.73C194.938 161.47 195.255 161.282 195.56 160.919C196.007 160.384 196.037 160.407 196.511 159.978C196.595 159.902 197.717 158.388 197.763 158.292C197.816 158.177 197.816 157.929 197.828 157.913C197.866 157.879 198.03 157.963 198.152 157.856C198.194 157.818 198.435 157.099 198.462 156.977C198.538 156.633 198.347 156.357 198.786 156.093L198.465 155.852C198.66 155.68 198.801 155.497 198.924 155.264C199.321 154.514 199.592 153.692 199.584 152.87C199.584 152.549 199.783 152.373 199.431 152.147C199.489 152.071 199.626 152.006 199.638 151.91C199.657 151.776 199.611 150.641 199.584 150.461C199.534 150.105 199.237 149.452 199.13 149.065C199.084 148.901 199.137 148.729 199.065 148.564C199.05 148.53 198.595 148.033 198.557 148.006C197.835 147.498 196.64 147.306 195.911 146.851C195.839 146.806 195.808 146.569 195.568 146.63C195.484 146.374 195.713 146.442 195.732 146.278C195.82 145.59 195.545 145.513 196.026 144.802C196.236 144.492 196.572 144.286 196.705 143.911C197.041 143.838 197.423 143.961 197.755 143.873C197.981 143.815 198.683 143.169 198.859 142.967C199.317 142.737 202.486 143.051 203.326 142.932C203.513 142.905 203.612 142.791 203.799 142.764C204.024 142.733 205.028 142.737 205.177 142.844C205.361 142.978 205.452 143.517 205.819 143.257C206.105 143.055 205.91 142.795 206.617 142.932C206.911 142.99 206.941 143.307 207.037 143.334C207.346 143.422 207.296 143.173 207.419 143.123C207.705 143.009 207.785 143.322 207.839 143.334C207.987 143.372 208.216 143.292 208.369 143.33C208.465 143.353 208.404 143.563 208.705 143.582L209.747 143.123C210.145 143.123 210.286 143.165 210.633 143.33L210.759 142.932C210.801 142.89 211.401 142.967 211.584 142.913C211.687 142.882 212.218 142.378 212.26 142.366C212.428 142.32 215.074 142.324 215.295 142.366C215.467 142.401 215.532 142.565 215.612 142.577C215.711 142.588 215.852 142.485 216.005 142.538C216.097 142.569 216.112 142.71 216.165 142.741L216.173 142.745ZM203.826 147.226C203.749 147.18 203.616 147.215 203.532 147.161C203.356 147.05 203.364 146.744 202.883 146.882C202.952 147.628 202.6 148.247 202.726 149.012C202.696 149.13 203.226 149.524 203.265 149.536C203.551 149.597 204.021 149.471 204.276 149.536C204.357 149.559 204.357 149.7 204.41 149.735C204.693 149.918 208.022 149.681 208.717 149.773C208.984 149.807 209.495 150.132 209.591 150.148C209.851 150.19 210.397 149.991 210.725 150.148C211.305 150.063 211.026 148.423 211.068 147.979C211.038 147.892 210.717 147.681 210.614 147.628C210.385 147.505 210.083 147.475 209.954 147.398C209.896 147.364 209.896 147.222 209.816 147.199C209.305 147.062 209.251 147.425 209.175 147.444C208.625 147.586 208.495 147.257 208.224 147.203C207.861 147.131 207.338 147.253 206.945 147.199C206.747 147.173 206.319 146.894 206.281 146.882C205.765 146.76 204.872 146.981 204.414 147.253C204.303 147.318 204.337 147.563 203.975 147.429C203.875 147.391 203.872 147.253 203.822 147.222L203.826 147.226ZM202.558 156.262C202.486 156.594 202.612 157.149 202.558 157.508H206.857C206.907 157.508 207.361 158.101 207.583 158.151C207.747 158.193 207.732 157.936 207.839 157.91C208.4 157.768 210.167 158.093 210.561 157.837C210.664 157.768 211.046 156.893 211.072 156.74C211.107 156.529 211.114 155.742 211.072 155.539C211.026 155.306 210.351 154.694 210.133 154.629C209.667 154.495 208.801 154.709 208.3 154.61C208.041 154.56 207.808 154.136 207.331 154.445C207.193 154.533 207.159 154.828 207.018 154.774C206.892 154.724 206.827 154.468 206.735 154.415C206.464 154.25 205.616 154.468 205.326 154.422C205.238 154.407 205.177 154.247 205.006 154.212C204.834 154.178 204.047 154.182 203.883 154.212C203.669 154.254 203.627 154.514 203.333 154.384L203.234 154.449C203.177 154.606 203.215 154.778 203.158 154.939C203.036 155.294 202.616 155.983 202.554 156.265L202.558 156.262Z" fill="black"/>
<path d="M276.921 132.551C277.051 133.216 276.379 132.608 276.073 132.554C275.768 132.501 275.336 132.616 275.05 132.535C274.703 132.436 274.97 132.402 274.393 132.394C274.107 132.39 273.37 132.31 273.179 132.34C273.091 132.356 273.034 132.505 272.927 132.535C272.767 132.581 271.679 132.585 271.499 132.551C271.32 132.516 271.266 132.356 271.179 132.34C271.026 132.317 269.957 132.337 269.724 132.348C269.491 132.359 269.579 132.554 269.407 132.554L268.85 132.226C268.762 132.451 268.208 132.654 268.017 132.532C267.975 132.505 267.979 132.359 267.872 132.325C267.559 132.226 267.33 132.543 267.242 132.554C266.17 132.688 264.764 132.402 263.695 132.543C263.34 132.589 261.16 133.254 260.924 133.396C260.794 133.472 260.645 133.69 260.32 133.717C259.958 133.747 259.469 133.598 259.072 133.717C258.488 133.346 258.69 133.002 258.591 132.516C258.553 132.337 258.45 131.912 258.4 131.744C258.335 131.534 258.053 131.423 258.041 131.231C258.022 130.952 258.266 130.601 258.293 130.318C258.568 130.203 259.408 129.499 259.519 129.251C259.618 129.037 259.526 128.792 259.564 128.57C259.656 128.062 259.816 127.381 259.878 126.872C259.927 126.475 259.801 125.106 259.702 124.724C259.648 124.513 259.362 124.353 259.32 124.138C259.274 123.89 259.282 122.548 259.335 122.307C259.37 122.158 259.679 121.783 259.801 121.726C260.042 121.615 260.233 121.764 260.366 121.718C260.546 121.657 260.897 121.21 261.122 121.114C261.538 120.934 262.256 121.08 262.722 121.053C263.077 121.278 263.085 122.032 263.424 122.204C263.497 122.238 263.589 122.188 263.661 122.219C264.348 122.49 264.421 122.322 265.062 122.414C265.246 122.441 265.746 122.735 265.788 122.739C266.086 122.766 266.192 122.598 266.429 122.567C266.777 122.517 267.307 122.643 267.624 122.567C267.972 122.487 268.124 122.341 268.682 122.41C269.888 122.567 271.973 122.731 273.195 122.575C273.343 122.555 273.301 122.425 273.366 122.41C273.55 122.368 273.786 122.445 273.977 122.406C274.008 122.399 274.355 122.058 274.474 122.039C274.561 122.024 274.878 122.089 275.042 122.093C275.722 122.104 276.058 122.257 276.707 122.433C277.413 122.624 277.772 122.483 278.414 122.575C279.105 122.674 279.506 123.018 280.349 122.896C280.62 122.858 280.704 122.685 281.071 122.728C281.178 122.739 282.22 123.236 282.319 123.328C282.373 123.378 282.82 123.901 282.835 123.94C282.919 124.131 282.9 124.479 283.045 124.704C283.045 124.907 282.785 125.217 282.64 125.354C282.4 125.58 282.067 125.576 281.911 125.672C281.854 125.706 281.857 125.852 281.777 125.874C281.678 125.901 281.185 125.894 281.071 125.874C280.891 125.84 280.846 125.672 280.666 125.634C280.506 125.603 279.681 125.611 279.582 125.676C279.414 125.787 278.715 126.15 278.498 126.196C278.234 126.249 275.531 126.238 275.401 126.154C275.344 126.115 275.344 125.962 275.268 125.947C275.058 125.905 274.852 126.173 274.638 125.794C274.412 126.142 274.286 125.951 273.992 125.947C273.855 125.947 273.664 126.016 273.588 126.004C273.489 125.989 273.424 125.817 273.351 125.809C273.279 125.802 273.156 125.951 273.069 125.982C272.767 126.081 272.725 125.817 272.629 125.809C272.545 125.802 272.423 125.978 272.309 125.997C272.229 126.008 272.106 125.928 271.996 125.959C271.862 126.001 271.916 126.272 271.667 126.196C271.614 126.054 271.305 125.825 271.179 125.821C271.06 125.817 270.942 126.031 270.74 126.001C270.392 125.951 270.071 125.802 269.77 125.672C269.377 125.504 269.365 125.783 269.151 125.852C268.838 125.955 268.315 125.886 268.201 126.196H268.044C267.891 125.775 267.639 126.024 267.395 125.993C267.288 125.978 267.158 125.798 267.074 125.806C267.013 125.809 266.952 125.955 266.876 125.982C266.089 126.268 265.238 126.131 264.436 126.368C264.283 126.414 264.283 126.57 264.196 126.651C264.127 126.716 263.974 126.651 263.913 126.811C263.852 126.972 263.688 127.534 263.772 127.649C263.944 127.645 264.432 127.882 264.501 127.882C264.608 127.882 264.703 127.74 264.826 127.725C265.986 127.568 266.547 127.519 267.72 127.717C268.464 127.844 268.392 127.477 268.846 127.404C269.434 127.312 269.735 127.477 270.213 127.557C270.48 127.603 270.915 127.488 271.133 127.599C271.362 127.717 271.236 128.192 271.572 128.207L271.774 127.844L271.454 127.721C271.454 127.358 271.713 127.576 271.874 127.542C273.065 127.293 273.931 127.381 275.115 127.557C275.363 127.595 276.917 127.454 277.2 127.4C277.379 127.366 277.425 127.19 277.604 127.19C277.692 127.19 278.627 127.76 278.738 127.89C279.185 127.679 279.265 127.477 279.861 127.557C280.124 127.595 280.804 128.123 281.082 128.184C281.453 128.268 282.045 128.119 282.335 128.218C282.373 128.23 282.842 128.784 282.854 128.826C282.911 129.021 282.904 130.249 282.877 130.505C282.846 130.796 282.671 131.193 282.579 131.48C282.56 131.545 282.625 131.644 282.587 131.74C282.579 131.763 282.331 132.088 282.304 132.111C282.224 132.184 281.052 132.853 280.975 132.868C280.678 132.922 278.864 132.925 278.57 132.868C278.368 132.83 278.204 132.547 278.165 132.547H276.921V132.551Z" fill="black"/>
<path d="M211.42 136.153C211.588 136.256 212.374 136.103 212.634 136.168C212.726 136.191 212.718 136.378 212.813 136.401C212.92 136.428 213.726 136.286 214.02 136.325C214.283 136.359 214.31 136.535 214.497 136.569C215.051 136.676 215.677 136.554 216.326 136.749C216.471 136.791 216.731 137.066 216.849 137.128C216.944 137.177 217.09 137.093 217.277 137.246C217.544 137.468 217.387 137.831 217.433 138.137C217.452 138.263 217.571 138.359 217.593 138.539C217.639 138.86 217.624 140.221 217.498 140.466C217.429 140.6 216.883 141.211 216.742 141.238H210.973C210.687 140.775 209.855 141.074 209.347 141.001C208.671 140.905 207.926 140.726 207.266 140.592C206.518 140.439 206.361 140.416 205.59 140.592C205.494 140.615 205.536 140.898 205.17 140.84C204.971 140.81 205.002 140.611 204.914 140.592C204.788 140.565 204.632 140.619 204.467 140.573C204.288 140.523 203.956 140.236 203.887 140.225C203.799 140.213 203.62 140.286 203.482 140.282C202.994 140.267 202.78 140.328 202.291 140.435C202.23 140.45 202.242 140.58 202.18 140.592C202.131 140.603 201.428 140.645 201.386 140.642C201.215 140.615 201.157 140.328 201.05 140.263C200.955 140.206 200.825 140.271 200.76 140.244C200.611 140.187 200.573 140.018 200.344 140.018C200.046 140.018 200.103 140.252 200.008 140.274C199.932 140.29 199.813 140.198 199.68 140.244C199.588 140.274 199.592 140.416 199.523 140.431C199.256 140.492 197.442 140.481 197.122 140.439C196.973 140.42 197.015 140.286 196.95 140.274C196.767 140.232 196.534 140.317 196.339 140.255C196.297 140.244 195.755 139.995 195.675 139.957C195.484 139.862 194.808 139.181 194.766 139.009C194.732 138.86 194.877 138.779 194.881 138.707C194.892 138.393 194.938 137.541 195.01 137.273C195.133 136.845 195.419 136.703 195.682 136.493C195.782 136.413 195.801 136.225 195.934 136.179C196.179 136.095 196.602 136.233 196.87 136.149C197.389 135.988 197.664 135.889 198.237 135.763C198.309 135.747 198.928 135.369 198.973 135.361C199.535 135.254 202.784 135.277 203.402 135.361C203.669 135.395 203.689 135.575 203.956 135.613C205.185 135.778 206.842 135.434 208.064 135.606C208.774 135.705 209.53 135.82 210.232 135.927C210.515 135.969 211.13 135.854 211.313 135.973C211.363 136.007 211.374 136.13 211.408 136.153H211.42Z" fill="black"/>
</svg>
