<svg width="486" height="647" viewBox="0 0 486 647" fill="none" xmlns="http://www.w3.org/2000/svg">
<path d="M193.5 369V366H199.5V369H193.5ZM193.5 381H190.5V369H193.5V372H199.5V369H202.5V381H199.5V375H193.5V381ZM208.5 375H205.5V369H208.5V375ZM211.5 375V369H214.5V375H211.5ZM217.5 375V369H220.5V375H217.5ZM211.5 381H208.5V375H211.5V381ZM217.5 381H214.5V375H217.5V381ZM226.5 381V378H229.5V381H226.5ZM223.5 384V381H226.5V384H223.5ZM241.5 369V366H250.5V369H241.5ZM238.5 372V369H241.5V372H238.5ZM241.5 372H247.5V375H241.5V372ZM250.5 378H247.5V375H250.5V378ZM247.5 378V381H238.5V378H247.5ZM256.5 381H253.5V369H259.5V372H256.5V381ZM262.5 381H259.5V372H262.5V381ZM268.5 381V378H265.5V372H268.5V378H271.5V372H268.5V369H274.5V381H268.5ZM283.5 378V381H280.5V384H277.5V369H283.5V372H280.5V378H283.5ZM286.5 378H283.5V372H286.5V378ZM292.5 375H289.5V366H292.5V375ZM289.5 381V378H292.5V381H289.5Z" fill="black"/>
<path d="M239.628 304.734C243.87 303.661 245.814 288.181 246.256 283.259L259.514 291.312C255.978 298.918 247.582 318.962 252.885 322.183C259.514 326.209 262.165 312.787 270.12 312.787C276.748 312.787 276.748 323.525 278.074 328.894C279.4 334.263 279.399 345 272.771 345C266.011 345 268.794 335.605 262.165 332.92C256.943 330.806 254.082 336.921 247.582 335.605C240.953 334.263 244.931 316.814 235.651 316.814C228.891 316.814 226.37 323.525 227.696 330.236C229.021 336.947 225.044 338.289 219.742 338.289C214.439 338.289 209.136 334.263 203.833 332.92C198.53 331.578 193.482 324.61 198.53 319.498C202.507 315.472 210.461 320.841 215.764 319.498C221.067 318.156 219.742 307.419 225.045 304.734C230.348 302.05 234.325 306.076 239.628 304.734Z" fill="#FFFCF2" stroke="black" stroke-width="2" stroke-linecap="round" stroke-dasharray="3 3"/>
<path d="M290.086 306.926C273.621 313.1 252.012 303.839 252.012 288.404C241.819 285.16 229.945 290.217 218.055 289.433C201.881 288.366 187.428 280.711 193.358 265.765C196.178 258.659 205.489 260.047 212.909 258.562C221.854 256.773 227.536 254.255 239.664 250.11C254.07 245.185 262.895 246.822 269.881 250.11C297.765 263.231 306.55 300.752 290.086 306.926Z" fill="#FFFCF2"/>
<path d="M290.086 306.926C273.621 313.1 252.012 303.839 252.012 288.404C241.819 285.16 229.945 290.217 218.055 289.433C201.881 288.366 187.428 280.711 193.358 265.765C196.178 258.659 205.489 260.047 212.909 258.562C221.854 256.773 227.536 254.255 239.664 250.11C254.07 245.185 262.895 246.822 269.881 250.11C297.765 263.231 306.55 300.752 290.086 306.926Z" fill="#FFFCF2"/>
<path d="M290.086 306.926C273.621 313.1 252.012 303.839 252.012 288.404C241.819 285.16 229.945 290.217 218.055 289.433C201.881 288.366 187.428 280.711 193.358 265.765C196.178 258.659 205.489 260.047 212.909 258.562C221.854 256.773 227.536 254.255 239.664 250.11C254.07 245.185 262.895 246.822 269.881 250.11C297.765 263.231 306.55 300.752 290.086 306.926Z" stroke="black" stroke-width="2" stroke-linecap="round" stroke-dasharray="3 3"/>
<path d="M291.756 281.315C293.409 288.518 294.785 296.078 288.669 299.838C282.553 303.597 269.729 296.075 272.32 280.311C274.219 268.752 264.508 261.551 270.55 259.196C277.157 256.621 289.314 270.669 291.756 281.315Z" stroke="black" stroke-width="2" stroke-linecap="round" stroke-dasharray="3 3"/>
<path d="M247.274 255.366L254.317 267.915M243.988 265.019L257.134 258.262" stroke="black" stroke-width="2" stroke-linecap="round" stroke-dasharray="3 3"/>
</svg>
