<svg width="486" height="647" viewBox="0 0 486 647" fill="none" xmlns="http://www.w3.org/2000/svg">
<g clip-path="url(#clip0_1752_748)">
<g clip-path="url(#clip1_1752_748)">
<path d="M302.639 127.536C302.492 127.083 299.996 126.695 299.298 126.433C297.037 125.586 295.011 123.757 295.23 121.164C296.453 121.518 297.447 121.513 298.691 121.999C300.783 122.813 300.482 123.512 301.574 125.057C301.82 125.406 301.574 125.783 302.339 125.614L301.411 119.433C297.709 119.05 294.771 118.586 292.86 115.091C294.17 114.169 296.851 114.589 298.162 115.414C299.254 116.102 299.554 117.674 300.859 117.609C300.313 116.457 299.21 111.974 298.009 111.75C297.528 111.662 295.776 112.061 294.782 111.968C292.789 111.793 290.638 110.679 289.89 108.714C292.51 107.54 295.202 107.938 297.299 109.893L295.819 106.338C296.682 105.967 297.234 109.222 297.894 108.413C297.78 106.693 297.823 105.541 298.73 104.056C299.636 102.571 301.307 100.632 301.722 103.548C302.137 106.464 300.482 108.741 298.539 110.679C299.521 112.41 299.745 114.737 301.159 116.124C301.034 113.153 302.727 111.236 305.211 109.931C305.686 109.839 305.839 110.259 305.904 110.636C306.445 113.672 303.862 116.675 301.438 118.095C301.531 118.515 302.792 124.418 303.234 123.834C303.311 121.043 306.003 119.012 308.575 118.499C309.159 122.348 306.325 124.56 303.202 126.045L302.994 126.4C302.961 126.673 303.24 126.87 303.24 126.946V131.544C304.299 131.604 304.321 130.37 304.856 129.747C305.981 128.437 308.078 127.651 309.765 127.53C310.649 128.066 308.837 131.134 308.296 131.702C306.931 133.133 304.916 133.57 303.218 134.405L302.35 139.396C303.223 139.98 303.671 138.55 304.43 137.916C305.806 136.764 307.526 136.316 309.333 136.584C310.376 136.737 309.257 138.211 309 138.632C307.384 141.313 304.747 141.635 301.902 142.208L300.28 147.259C301.291 147.079 301.678 146.101 302.634 145.61C304.277 144.764 306.696 144.496 308.28 145.626C306.5 149.542 302.879 149.591 299.09 149.776C298.844 149.896 296.589 154.046 296.868 154.669C299.303 152.605 302.235 152.37 305.02 153.932C302.967 157.552 298.839 157.47 295.246 156.585L291.981 160.752C292.718 161.079 293.373 160.386 294.192 160.299C296.502 160.042 298.233 160.539 300.269 161.505C300.936 162.499 297.447 164.061 296.578 164.165C295.219 164.334 293.592 164.05 292.27 163.711C291.44 163.498 290.954 162.685 289.813 163.023C288.972 163.269 287.738 165.475 286.63 165.792L286.788 166.54C288.896 165.655 292.669 166.747 294.056 168.457C294.858 169.439 292.51 170.193 291.751 170.319C288.612 170.854 286.57 169.423 283.84 168.32L279.815 170.395C279.4 170.815 279.837 170.936 280.252 170.985C281.235 171.099 281.879 170.886 282.993 171.214C283.823 171.46 287.858 174.234 287.225 175.129C283.037 176.844 279.815 174.747 276.687 172.153C275.578 172.776 273.853 173.043 272.886 173.693C271.543 174.594 274.022 174.518 274.492 174.671C276.463 175.32 278.729 177.625 279.22 179.574C274.939 180.928 271.581 178.061 269.233 174.862C268.207 174.933 262.572 176.827 262.321 175.566C262.277 175.004 262.67 174.965 263.074 174.845C263.79 174.632 267.339 174.332 267.617 173.901C267.879 169.947 268.851 165.377 273.29 164.454V168.751C273.29 168.948 272.444 170.646 272.231 170.957C271.914 171.416 269.108 173.726 271.221 173.218C271.663 173.109 274.645 171.951 274.797 171.749C275.403 170.957 274.923 167.921 275.065 166.682C275.256 165 276.938 161.707 278.778 161.494C279.444 161.418 279.116 161.587 279.226 161.931C279.673 163.318 279.733 166.485 279.149 167.801C278.762 168.669 277.588 169.385 277.44 170.39C277.702 170.619 281.683 168.478 281.918 168.194C282.649 167.293 281.459 165.36 281.322 164.29C280.967 161.544 281.808 159.223 283.823 157.35C284.418 157.23 284.184 157.486 284.326 157.727C285.374 159.48 285.789 162.057 285.172 164.039C284.992 164.618 283.053 167.266 284.948 166.19C285.232 166.027 288.028 163.624 288.131 163.444C288.803 162.303 287.476 161.085 287.077 159.72C286.455 157.607 286.324 155.543 287.465 153.582C288.126 152.441 288.448 152.239 289.251 153.391C290.938 155.81 291.244 158.245 289.895 160.899C290.599 161.555 293.362 157.612 293.761 156.897C291.391 154.074 289.409 150.421 291.828 146.964C294.689 148.597 295.268 151.606 294.935 154.674C295.475 154.794 295.514 154.511 295.77 154.177C296.076 153.784 297.834 150.595 297.818 150.372C296.032 148.482 293.766 146.364 293.75 143.557C293.75 142.727 294.285 141.695 294.045 140.739C296.78 142.148 298.839 144.611 298.495 147.854C298.872 147.772 299.145 147.374 299.314 147.046C299.685 146.32 301.001 143.082 300.493 142.596C300.16 142.274 298.964 141.831 298.353 141.329C296.223 139.587 295.175 137.288 295.53 134.52C298.5 135.361 301.012 137.818 300.87 141.04C302.11 140.433 301.607 138.976 301.782 137.949C301.897 137.261 302.415 136.48 302.355 135.858C302.246 134.738 300.652 134.727 299.822 134.23C297.468 132.822 295.694 130.938 295.83 127.995C298.708 128.229 301.771 130.19 301.76 133.335H302.65V127.552L302.639 127.536Z" fill="black"/>
<path d="M212.496 164.154C216.87 165.694 218.186 169.56 218.169 173.901C218.355 174.201 222.03 174.687 222.712 174.845C223.1 174.933 223.564 175.069 223.466 175.566C223.204 176.909 217.776 174.84 216.832 174.9C214.091 177.881 211.879 180.65 207.309 179.869C205.736 179.601 207.751 177.177 208.341 176.544C209.744 175.036 211.393 174.534 213.381 174.234C213.747 173.748 209.564 172.344 209.133 172.224C205.96 174.894 202.984 176.866 198.725 175.146C198.114 174.763 199.484 173.426 199.883 173.06C201.707 171.394 203.771 170.69 206.261 170.974C205.72 170.231 202.717 168.347 201.936 168.304C201.314 168.271 199.681 169.521 198.753 169.838C196.236 170.706 193.877 170.619 191.578 169.205C191.196 168.817 191.518 168.724 191.753 168.473C193.407 166.671 196.645 165.928 198.998 166.234L199.146 165.644L195.695 162.723C192.255 164.574 188.433 164.94 185.512 161.937C187.439 160.129 189.607 159.884 192.097 160.392C192.757 160.528 194.024 161.658 193.817 160.157L190.759 156.667C187.346 157.175 184.796 157.765 181.973 155.39C181.449 154.953 180.226 154.145 181.133 153.719C183.147 152.774 185.801 152.769 187.789 153.719C187.963 153.801 189.831 155.422 189.356 154.232C188.831 152.916 187.166 151.273 186.948 149.667C183.328 149.591 178.708 149.438 177.791 145.184C179.62 144.796 181.406 144.807 183.136 145.621C184.19 146.118 184.731 147.543 185.807 147.106L183.906 142.186C180.532 141.788 176.672 140.346 176.022 136.584C178.719 136.36 181.919 136.922 182.847 139.844L183.437 139.685L182.711 134.192C179.243 133.329 175.705 131.484 176.022 127.394C178.49 127.814 181.487 129.076 181.952 131.839L182.743 131.407L182.694 126.198C179.751 124.473 176.884 122.31 177.207 118.499C179.877 118.876 182.47 121.016 182.541 123.834C183.044 123.938 183.147 123.708 183.366 123.326C183.595 122.922 184.392 118.422 184.289 118.106C181.733 116.091 179.118 113.421 180.166 109.899C182.803 110.417 184.802 113.142 184.458 115.834H185.501L185.206 117.609C185.539 117.98 186.997 115.834 187.428 115.534C188.771 114.606 191.529 114.136 192.916 115.097C191.414 118.182 189.541 118.624 186.467 119.318C185.785 119.471 184.594 119.143 184.36 119.88C184.125 120.618 184.152 122.42 183.994 123.37C183.868 124.134 183.24 124.746 183.426 125.619C183.874 126.138 185.228 123.397 185.501 123.102C186.298 122.239 188.973 121 190.087 121.158C191.316 121.333 190.59 122.572 190.191 123.342C188.924 125.8 186.112 126.946 183.475 127.154C182.934 127.503 182.929 133.149 183.573 133.335L185.304 130.173C186.658 129.158 188.187 128.137 189.945 127.995C190.169 130.244 189.012 132.166 187.259 133.461C186.151 134.28 184.807 134.509 183.748 135.306C183.846 136.082 184.108 141.034 184.758 141.04C185.419 140.368 185.168 139.412 185.484 138.511C186.036 136.928 188.466 134.695 190.24 134.82C190.693 138.025 189.367 139.675 187.122 141.635C185.894 142.705 184.916 142.225 185.402 144.256C185.528 144.769 186.844 148.155 187.128 148.16C187.843 147.368 187.324 146.276 187.652 145.14C188.1 143.606 190.136 141.449 191.72 141.051C193.085 145.097 190.551 147.603 188.171 150.382C188.198 150.901 190.47 155.368 191.13 154.691C190.076 151.584 191.48 148.815 193.948 146.992C196.399 150.18 194.521 154.096 192.151 156.744C192.02 157.334 194.477 160.179 195.029 160.725C195.422 161.118 195.422 161.363 196.17 161.216C194.674 158.229 194.674 156.76 196.356 153.839C196.651 153.326 197.126 152.365 197.775 152.643C200.091 155.422 199.501 157.629 198.474 160.703C198.179 161.587 197.055 162.718 197.743 163.504C198.141 163.957 201.39 166.638 201.805 166.261C201.772 165.497 201.084 165.224 200.768 164.487C200.03 162.767 200.358 159.021 201.483 157.547C202.187 156.629 203.765 159.212 204 159.769C204.967 162.084 204.721 165.126 203.634 167.354C203.547 168.238 206.757 169.833 207.544 170.166C209.209 170.865 207.402 169.085 207.189 168.735C206.091 166.922 206.053 165.284 206.288 163.187C206.343 162.679 206.381 161.495 206.992 161.511C209.509 161.582 211.011 166.043 211.022 168.189C211.027 169.341 210.383 170.472 210.847 171.602L215.445 173.076C214.97 172.181 213.921 171.673 213.414 170.81C213.266 170.559 212.48 168.604 212.48 168.478V164.181L212.496 164.154Z" fill="black"/>
<path d="M268.502 116.457C269.267 116.954 269.228 123.878 270.167 125.319C270.26 125.461 270.544 125.707 270.615 125.614L271.931 116.697L274.574 116.408L276.698 125.603C277.233 125.603 277.79 118.095 278.249 117.079C278.729 116.015 280.012 116.495 280.995 116.419L278.336 130.217L275.065 130.354C274.705 127.765 274.301 125.139 273.793 122.573C273.722 122.212 273.673 121.59 273.138 121.753L271.472 130.321H268.267L265.564 116.566L268.497 116.451L268.502 116.457Z" fill="black"/>
<path d="M240.365 125.308L241.834 116.544L244.674 116.702L246.301 125.603C246.721 126.056 246.836 125.565 246.89 125.161C247.245 122.387 247.633 119.635 248.103 116.877C248.458 116.173 250.582 116.227 250.92 116.697L248.348 130.315L244.952 130.07C244.493 129.398 244.018 123.615 243.576 122.256C243.445 121.852 243.172 121.671 242.746 121.753L241.414 130.059C241.004 130.916 239.11 130.747 238.285 130.512C237.586 130.053 235.872 118.193 235.626 116.418C236.363 116.522 238.012 116.129 238.449 116.708C239.465 118.051 238.345 123.779 240.365 125.313V125.308Z" fill="black"/>
<path d="M216.646 116.419L220.162 116.462C221.282 118.384 221.686 121.699 222.8 123.452C222.991 123.752 222.778 123.97 223.466 123.834V117.161C223.466 117.079 223.772 116.468 223.963 116.408L226.131 116.419V130.206C225.628 130.938 223.455 130.774 222.942 130.277L219.606 122.644V130.354H216.641V116.419H216.646Z" fill="black"/>
<path d="M256.899 116.189C258.636 115.894 260.061 116.009 261.431 117.15C264.576 119.766 264.451 128.082 260.743 130.113C259.001 131.069 257.325 131.074 255.583 130.113C251.739 127.989 251.734 117.074 256.899 116.189ZM257.057 127.591C260.541 130.479 262.212 119.558 258.264 118.848C254.988 119.362 255.217 126.067 257.057 127.591Z" fill="black"/>
<path d="M210.973 116.457L214.276 130.354L211.29 130.228L210.749 128.399C210.236 127.722 208.232 127.924 207.446 128.12L206.85 130.343L203.896 130.354L207.003 116.708L210.973 116.457ZM209.231 120.268C208.467 120.186 208.762 120.268 208.631 120.7C208.45 121.3 207.571 125.428 207.751 125.603H210.127L209.231 120.268Z" fill="black"/>
<path d="M254.523 134.869C256.358 134.498 258.52 135.312 258.761 137.316C258.979 139.129 259.044 147.254 258.695 148.821C258.193 151.065 254.512 151.682 252.984 150.208C252.53 149.771 252.012 148.078 251.935 147.401C251.706 145.348 251.722 140.314 252.012 138.288C252.23 136.759 252.874 135.208 254.523 134.869ZM255.108 136.912C254.491 137.212 254.136 137.862 254.026 138.523C253.77 140.09 253.814 145.452 254.005 147.112C254.289 149.596 256.582 149.695 256.959 147.385C257.215 145.812 257.177 140.456 256.98 138.796C256.866 137.802 256.303 136.573 255.108 136.917V136.912Z" fill="black"/>
<path d="M237.324 134.869C239.338 134.46 241.31 135.492 241.561 137.61C241.812 139.729 241.817 146.216 241.484 148.22C241.222 149.793 240.065 151.027 238.416 151.092C236.379 151.174 234.965 149.651 234.73 147.707C234.495 145.763 234.484 139.451 234.806 137.687C235.036 136.426 236.035 135.137 237.324 134.869ZM237.176 137.245C236.849 137.578 236.838 138.326 236.799 138.79C236.63 140.788 236.548 145.512 236.799 147.417C237.083 149.596 239.393 149.58 239.753 147.079C239.961 145.643 239.955 138.719 239.42 137.687C238.956 136.797 237.875 136.557 237.187 137.25H237.176V137.245Z" fill="black"/>
<path d="M232.661 150.808H226.436C226.594 150.049 226.136 149.269 226.136 148.58C226.141 145.228 230.935 142.836 230.908 138.795C230.881 135.23 227.239 136.95 228.216 140.133H226.436C226.321 137.539 226.207 134.771 229.548 134.771C233.753 134.771 233.414 139.784 231.995 142.579C231.192 144.163 227.97 146.669 228.544 148.537C228.828 149.476 231.432 148.193 232.382 148.859L232.661 150.803V150.808Z" fill="black"/>
<path d="M249.861 150.808H243.636C243.724 149.536 243.445 148.204 243.773 146.942C244.221 145.25 246.388 143.633 247.256 142.121C248.125 140.608 249.047 136.169 246.203 136.851C245.629 136.988 245.225 139.516 245.416 140.133H243.636C243.658 139.118 243.56 138.102 243.718 137.086C243.937 135.699 245.384 134.771 246.749 134.771C251.144 134.76 250.582 139.653 249.184 142.569C248.392 144.218 245.22 146.915 245.744 148.537C246.083 149.591 248.583 148.16 249.583 148.859L249.861 150.803V150.808Z" fill="black"/>
<path d="M188.181 110.188C189.038 110.068 189.437 109.276 190.24 108.839C191.872 107.955 194.346 107.644 195.886 108.861C195.017 110.538 193.156 111.772 191.294 111.968C189.262 112.181 187.859 110.98 186.696 112.858L187.242 110.407C185.058 108.157 182.759 105.039 184.769 101.894C185.353 101.763 187.559 104.515 187.744 105.143C188.05 106.169 187.777 107.223 187.903 108.261C187.968 108.818 188.64 109.309 188.181 110.194V110.188Z" fill="black"/>
<path d="M192.408 101.823L192.943 102.041L192.332 103.368C194.292 102.871 194.985 101.965 197.224 102.183C199.463 102.401 201.467 103.554 198.469 104.913C195.471 106.273 193.407 104.558 190.551 105.148C192.364 103.264 190.595 102.74 189.902 100.905C189.274 99.2399 189.197 98.115 189.645 96.3895C189.727 96.0674 190.202 94.5876 190.693 94.7787C192.681 96.668 193.467 99.2235 192.403 101.828H192.408V101.823Z" fill="black"/>
<path d="M294.93 104.848C291.79 105.236 287.679 106.672 285.74 103.226C285.904 102.489 289.584 102.09 290.343 102.178C291.834 102.352 292.325 103.603 293.745 103.668C293.92 103.117 293.248 102.937 293.199 102.582C293.15 102.227 293.608 101.992 293.636 101.741C293.679 101.32 292.718 100.086 292.866 98.8086C292.948 98.1097 294.608 94.5932 295.378 94.7788C296.699 96.1221 296.688 98.6339 296.191 100.332C295.694 102.03 293.598 103.286 294.941 104.859L294.93 104.848Z" fill="black"/>
<path d="M229.696 130.354V117.161C229.696 116.075 232.099 116.156 232.661 116.866V130.206L232.192 130.621L229.696 130.359V130.354Z" fill="black"/>
<path d="M197.672 97.7327C198.917 97.7 199.708 96.7826 201.041 96.8591C202.373 96.9355 206.659 98.4153 204.273 99.7367C201.346 101.358 198.9 99.5838 196.192 98.6173C197.208 97.0884 195.881 95.6851 195.673 93.9487C195.509 92.5835 195.673 91.4914 196.268 90.2519C196.956 88.8322 197.388 88.1606 198.229 89.9079C199.659 92.8729 198.294 94.8769 197.672 97.7273V97.7327Z" fill="black"/>
<path d="M289.589 98.6229C286.515 99.999 283.872 101.184 280.694 99.2127C280.061 98.339 283.845 96.9739 284.484 96.9084C286.013 96.7555 286.968 97.5472 288.399 97.7329C287.241 94.3856 286.171 92.256 288.109 88.8433C290.239 89.4712 290.337 92.4144 290.102 94.2546C289.906 95.789 288.633 97.378 289.584 98.6229H289.589Z" fill="black"/>
<path d="M282.852 92.933C282.934 93.0586 283.578 92.8565 283.365 93.4353C281.001 95.6687 278.298 96.7771 275.065 95.6577C275.884 92.4688 279.718 92.3432 282.48 92.9876C280.619 89.9789 278.931 88.1332 280.406 84.3928C282.824 84.6931 283.594 88.0568 283.37 90.1809C283.289 90.929 282.513 92.4252 282.857 92.933H282.852Z" fill="black"/>
<path d="M205.376 84.3929C205.464 84.4693 205.922 86.3805 205.95 86.6426C206.283 89.5585 204.399 90.5413 203.602 92.9876C206.55 92.2122 209.237 92.6491 211.006 95.2155C208.134 97.214 204.797 95.4721 202.471 93.4408C203.684 92.2832 202.439 90.8963 202.406 89.5694C202.389 88.8704 202.728 87.5654 202.996 86.8992C203.247 86.2767 204.672 83.8031 205.376 84.3929Z" fill="black"/>
<path d="M234.839 83.1044C234.272 82.5037 232.983 80.7564 232.732 80.0247C232.606 79.6588 232.399 78.9162 233.098 79.0636C236.33 86.3806 246.918 87.7621 251.466 81.1168C252.088 80.2103 252.531 78.7087 253.109 78.0207C254.294 76.6228 253.716 78.9926 253.355 79.7517C249.942 86.9431 240.453 89.0945 234.834 83.1098H234.839V83.1044Z" fill="black"/>
<path d="M232.065 68.978C232.076 69.4804 232.229 69.6224 231.645 69.5459C230.728 69.4312 229.565 68.7869 228.8 69.7207L229.69 72.5273L228.543 72.4891L227.916 68.9726C226.256 68.8251 222.04 69.049 223.455 71.5117C224.694 73.674 229.117 75.1047 231.476 74.3129V75.1975C229.663 75.1975 228.172 75.3831 226.436 74.7497C222.701 73.3955 219.267 68.7432 225.125 67.8095C225.518 67.7494 228.429 67.4928 228.598 67.5365C229.177 67.673 230.859 69.2893 232.065 68.9726V68.978Z" fill="black"/>
<path d="M232.071 66.5974L233.551 67.6404C231.563 68.11 230.416 65.7511 229.084 64.9921C228.09 64.4242 225.813 64.6699 226.589 63.3375C227.921 63.6652 229.313 63.7525 230.657 64.0146C232.742 64.4296 236.144 66.2698 233.338 62.2236C233.054 61.8086 231.951 60.3998 231.645 60.0613C230.777 59.1111 229.707 58.4668 228.817 57.5549L229.597 56.8614C231.143 56.5393 235.254 63.3266 235.276 64.73C235.303 66.4882 232.005 64.9047 232.076 66.592H232.071V66.5974Z" fill="black"/>
<path d="M246.596 158.519C248.632 158.311 248.409 160.588 249.419 161.779C250.09 161.904 249.828 161.489 249.861 161.047C249.91 160.31 249.823 159.551 249.861 158.819H251.046V165.639C248.458 166.212 249.588 163.253 247.786 162.379L247.502 165.508L246.596 165.639V158.524V158.519Z" fill="black"/>
<path d="M246.939 63.8836L245.825 60.6728C246.437 59.8647 246.644 58.6361 247.185 57.8552C247.725 57.0744 248.73 56.6867 249.271 56.086C249.642 55.6711 249.658 54.7974 250.303 54.4534C254.654 57.6423 252.094 64.2713 246.939 63.8836ZM247.261 62.382C249.527 63.4413 251.504 60.9677 251.346 58.7562C251.193 56.6649 250.614 56.4737 248.987 57.5822C247.36 58.6907 246.18 60.4708 247.261 62.382Z" fill="black"/>
<path d="M233.251 158.813L234.605 159.092L234.736 161.189H236.516L236.658 159.103C237.073 158.491 238.001 158.966 238.001 159.261V165.191C235.834 166.966 236.735 162.881 236.522 162.669H234.911L234.6 165.344C234.185 165.956 233.256 165.481 233.256 165.191V158.819H233.251V158.813Z" fill="black"/>
<path d="M232.065 92.8458L232.764 92.4363C234.774 93.1898 234.211 95.9255 235.773 97.1377C236.832 97.1978 234.992 92.3981 236.81 92.6984L236.772 100.07L235.669 100.059C234.741 98.5957 234.735 96.335 233.25 95.3631V99.6605L232.803 100.103L232.065 99.6605V92.8404V92.8458Z" fill="black"/>
<path d="M255.49 59.4877C255.577 60.7109 254.245 61.2842 253.59 62.1797C253.202 62.7094 251.405 65.1775 251.935 65.7127C252.76 65.8874 254.862 65.1011 255.178 66.2041C255.419 67.0286 253.742 67.9733 254.01 68.9725C255.151 69.464 256.576 69.1855 257.647 68.6122C258.531 68.1371 259.563 66.4061 259.831 66.3242C260.884 66.0075 261.381 67.1105 260.388 68.0879C258.564 69.8681 255.168 69.9172 252.825 69.5677L253.71 67.3617C253.404 66.3024 250.805 67.8531 251.051 65.5925C251.149 64.6533 254.436 58.4339 255.49 59.4877Z" fill="black"/>
<path d="M259.051 165.634C258.215 166.447 256.058 162.428 255.452 165.595L254.011 165.634L255.769 158.945L257.724 159.108L259.051 165.634ZM256.976 160.889C256.058 160.67 256.348 162.095 255.834 162.576L256.271 163.226L257.271 163.258L256.976 160.889Z" fill="black"/>
<path d="M243.625 62.4529C242.778 62.7095 242.38 61.0714 241.997 60.9731L240.376 62.6221C239.628 63.0371 238.175 60.6782 237.837 60.0885C237.405 59.3404 235.27 55.3706 237.111 55.7911L239.218 61.5246H240.332L241.408 58.8981L243.477 60.9731C244.607 59.4714 244.471 57.604 244.149 55.8621C244.078 55.4853 243.707 55.1195 243.679 54.841C243.603 54.0492 244.547 53.4049 245.104 54.9065C246.049 57.4565 244.482 60.0939 243.625 62.4583V62.4529Z" fill="black"/>
<path d="M272.395 81.1331C275.453 81.9903 276.889 86.1075 275.508 88.8378C273.056 86.7191 271.189 84.6387 272.395 81.1331Z" fill="black"/>
<path d="M209.831 88.5428C209.558 85.6542 210.47 82.438 213.244 81.1384C214.696 83.9342 212.873 87.8657 209.831 88.5428Z" fill="black"/>
<path d="M276.244 89.4384C275.261 92.4799 271.734 93.4027 268.835 92.9932C268.299 92.4745 270.871 90.1046 271.423 89.8043C273.164 88.8596 274.409 89.4384 276.244 89.4384Z" fill="black"/>
<path d="M216.941 92.9933C215.647 92.8786 214.096 93.2608 212.867 92.7694C212.289 92.5346 209.198 90.0501 209.826 89.4385C212.693 89.0672 216.367 89.7388 216.941 92.9933Z" fill="black"/>
<path d="M243.63 100.108L242.484 100.075L242.183 98.8032C241.948 98.4537 240.43 98.5574 240.07 98.7759C239.437 99.1526 239.874 100.507 238.596 100.114C238.334 99.857 239.846 94.3365 240.092 93.4574C240.179 93.1352 240.163 92.8513 240.556 92.7202L241.998 93.3045L243.636 100.114L243.63 100.108ZM241.113 94.1836C240.693 94.1945 239.448 97.6182 240.818 97.7548C242.762 97.9513 241.397 94.1727 241.113 94.1836Z" fill="black"/>
<path d="M228.134 158.562C229.057 158.393 229.707 158.895 230.28 159.556C229.761 160.277 228.882 159.835 228.211 160.146C226.911 160.747 227.02 164.247 228.495 164.618C229.117 164.776 229.794 164.083 230.286 164.897C228.719 167.403 225.999 165.12 225.83 162.811C225.726 161.347 226.447 158.868 228.134 158.562Z" fill="black"/>
<path d="M262.905 72.5328C260.765 72.4455 258.674 72.1779 256.517 72.2216C255.501 72.2434 254.633 72.5492 253.574 72.5437C253.126 72.5437 252.383 72.7949 252.531 72.096C255.572 70.7036 258.952 70.9711 262.168 70.4524C263.189 70.5179 262.894 71.7902 262.911 72.5383L262.905 72.5328Z" fill="black"/>
<path d="M256.675 93.2881L254.906 93.1242C252.427 95.4122 256.2 95.6961 256.817 97.1486C258.231 100.479 253.241 101.217 253.126 99.6659C253.072 98.9014 254.966 99.786 255.512 99.3928C255.862 99.1417 255.873 98.2953 255.796 97.8912C255.594 96.821 252.433 96.3186 253.388 93.7304C254.278 91.3223 257.412 92.6546 256.675 93.2935V93.2881Z" fill="black"/>
<path d="M223.766 92.6982H226.731C226.944 93.7357 225.59 93.1078 225.022 93.6593C223.832 94.8169 225.251 96.3021 226.731 96.111C226.747 97.0502 225.399 96.6898 225.077 97.1267L224.809 99.8241L223.914 100.108C223.253 99.7204 223.761 99.4856 223.761 99.3709V92.6982H223.766Z" fill="black"/>
<path d="M214.276 87.6529C215.15 85.3486 218.197 84.5514 220.206 86.0311C219.016 87.9368 216.291 88.3518 214.276 87.6529Z" fill="black"/>
<path d="M267.879 85.365C269.288 85.3213 270.795 86.2714 271.794 87.2106C270.304 88.9252 266.744 88.0188 265.87 86.0312C265.952 85.6489 267.508 85.3759 267.874 85.365H267.879Z" fill="black"/>
<path d="M241.556 158.961C241.648 158.639 242.233 158.409 242.588 158.524C243.56 158.83 242.73 160.719 242.741 161.336C242.768 162.718 243.303 164.066 242.741 165.639C242.407 165.759 241.556 165.508 241.556 165.191V158.966V158.961Z" fill="black"/>
<path d="M260.53 99.6659C260.465 99.8952 259.864 100.267 259.645 100.108L259.383 93.4628L258.16 93.288C258.122 92.5946 258.062 92.7638 258.603 92.6929C259.569 92.5673 260.727 92.7802 261.72 92.6929L260.536 93.7303V99.6604H260.53V99.6659Z" fill="black"/>
<path d="M246.3 92.6982V98.4809C246.3 98.5628 246.606 99.1743 246.797 99.2344L248.375 99.2235V100.108H245.41V92.6982H246.3Z" fill="black"/>
<path d="M229.991 100.108C229.647 100.228 228.806 99.977 228.806 99.6658V93.1405L229.253 92.6982L229.991 93.1405V100.108Z" fill="black"/>
<path d="M250.155 93.1407C250.226 92.8949 250.723 92.6001 251.045 92.6984C250.805 95.2102 251.52 97.6619 251.045 100.108C250.767 100.234 250.155 99.8461 250.155 99.6659V93.1407Z" fill="black"/>
<path d="M234.14 56.5227L237.7 63.6377C236.909 63.807 237.045 63.5612 236.723 63.2718C235.26 61.9395 234.375 58.5922 232.961 56.9705L234.135 56.5282H234.14V56.5227Z" fill="black"/>
<path d="M248.867 71.9922C252.771 70.7473 250.33 75.8855 248.365 72.6857C248.316 72.3362 248.556 72.0905 248.867 71.9922Z" fill="black"/>
</g>
<path d="M295.561 552.921C291.501 553.064 284.143 553.969 284.422 556.183C284.7 558.397 299.587 560.659 311.081 560.5M322.719 553.149C329.88 553.342 343.887 555.157 342.081 557C340.94 558.164 334.99 559.066 328.001 559.664" stroke="black" stroke-width="0.5" stroke-linecap="round"/>
<path d="M299.082 554.662C296.883 554.662 294.364 555.09 295.223 556.045C296.082 557 303.44 557.62 309.582 557.5C315.582 557.383 320.145 556.739 321.582 556.5C324.582 556 324.404 554.04 320.582 554" stroke="black" stroke-width="0.5" stroke-linecap="round"/>
<path d="M278.274 552.715C273.197 553.23 268.138 555.076 268.163 556.852C268.187 558.628 271.261 560.362 280.423 561.123" stroke="black" stroke-width="0.5" stroke-linecap="round"/>
<path d="M269.124 552.842C263.043 554.258 262.05 555.994 262.066 557.141" stroke="black" stroke-width="0.5" stroke-linecap="round"/>
<path d="M339.032 561.374C341.065 561.346 344.514 560.766 346.136 560.388C347.757 560.01 349.51 559.305 350.184 559" stroke="black" stroke-width="0.5" stroke-linecap="round"/>
<path d="M300.671 538.438C302.367 541.096 305.043 540.677 306.459 541.551C307.833 542.399 308.768 545.735 308.403 547.504C308.262 548.364 308.392 550.385 310.042 551.589C312.105 553.093 314.919 553.28 316.18 552.272C317.317 551.363 318.051 549.054 314.572 546.676" stroke="black" stroke-linecap="round"/>
<path d="M308.416 544.716C309.073 545.405 310.831 546.352 311.987 546.215C313.688 546.012 317.682 547.245 319.33 549.94C319.779 550.675 320.581 553 320.081 554.5" stroke="black" stroke-linecap="round"/>
<path d="M302.611 540.326C304.692 543.107 303.31 544.785 302.156 544.418C301.002 544.05 297.258 542.428 295.442 538.891C294.141 536.359 295.34 531.814 297.925 533.75C298.922 534.496 299.621 536.408 300.67 538.437" stroke="black" stroke-linecap="round"/>
<path d="M297.422 533.496C295.922 532.496 292.163 531.876 288.922 533.496C285.101 535.406 283.271 541.043 284.422 544.496C285.422 547.496 285.922 548.496 291.422 550.996C295.822 552.996 299.255 554.83 300.422 555.496" stroke="black" stroke-linecap="round"/>
<path d="M289.223 387.721C286.257 392.119 278.79 406.131 278.79 417.484C278.79 434.667 292.023 456.274 289.53 474.555C288.631 481.151 286.461 488.363 286.461 493.272C286.461 498.182 287.359 500.636 288.609 502.477C294.439 511.069 293.947 496.04 297.2 491.431C300.882 486.215 303.899 483.657 302.109 480.078C301.189 478.237 299.348 477.931 298.427 477.624C300.166 472.203 303.567 461.975 304.257 456.452C304.748 452.525 305.485 437.122 302.416 429.144" stroke="black" stroke-linecap="round"/>
<path d="M303.031 398.154C300.372 401.631 296.062 410.891 298.429 420.553C302.111 435.588 326.657 452.157 333.715 459.214C338.624 464.123 343.84 472.101 343.533 485.295C343.312 494.806 332.487 501.864 334.635 508.921C336.958 516.553 349.917 516.569 355.5 510.148C361.636 503.091 358.261 497.568 361.636 492.659C365.012 487.749 366.239 485.295 365.625 479.772C364.879 473.053 356.944 471.328 353.966 467.498C347.522 459.214 342.918 443.849 337.09 433.747C332.487 425.769 330.339 420.553 321.441 413.189" stroke="black" stroke-linecap="round"/>
<path d="M341.078 499.409C340.594 498.442 341.772 496.667 342.612 495.42C343.121 494.664 345.583 493.001 348.431 494.495C351.992 496.363 349.362 500.925 347.291 501.101C346.446 501.172 345.628 500.258 344.453 500.023C342.919 499.716 341.691 500.636 341.078 499.409Z" stroke="black" stroke-linecap="round"/>
<path d="M343.226 488.67C343.737 488.261 345.373 487.442 348.135 487.749C350.65 488.029 351.51 489.59 352.737 489.283C353.965 488.977 356.726 486.522 357.647 482.226C358.603 477.766 357.954 471.794 356.419 469.646" stroke="black" stroke-linecap="round"/>
<path d="M283.394 398.767C284.416 397.131 287.566 393.858 291.985 393.858C297.508 393.858 297.508 398.461 303.031 397.847C308.554 397.233 310.088 390.79 314.384 391.097C318.679 391.403 319.293 394.165 323.282 396.62C327.271 399.074 336.569 399.688 337.089 408.279C337.58 416.38 332.589 420.45 330.032 421.473" stroke="black" stroke-linecap="round"/>
<path d="M349.976 364.709C353.556 367.88 357.738 379.086 356.727 388.949C355.499 400.915 348.749 407.666 345.988 415.643C344.713 419.325 344.76 423.928 341.078 428.837C339.237 431.292 336.476 432.212 336.169 431.906" stroke="black" stroke-linecap="round"/>
<path d="M282.473 436.815C283.7 438.758 287.795 442.277 293.212 442.031C299.962 441.724 302.724 439.27 303.951 437.429" stroke="black" stroke-width="0.8" stroke-linecap="round"/>
<path d="M310.395 438.349C313.361 439.679 321.134 439.883 326.657 436.201C332.256 432.468 332.18 427.303 332.18 425.462" stroke="black" stroke-width="0.8" stroke-linecap="round"/>
<path d="M295.36 278.182C294.235 277.057 291.678 276.034 290.144 277.568C288.426 279.287 290.144 286.466 297.814 288.307" stroke="black" stroke-linecap="round"/>
<path d="M294.746 274.193C295.564 279.818 298.32 291.763 301.496 295.671C305.485 300.581 313.77 303.649 319.293 302.729C324.816 301.808 333.714 296.899 336.169 288.614" stroke="black" stroke-linecap="round"/>
<path d="M294.746 274.193H298.735C298.53 273.579 298.121 271.984 298.121 270.511C298.121 269.038 298.53 267.852 298.735 267.443C299.042 268.772 299.901 271.8 300.883 273.272C301.865 274.745 302.519 275.318 302.724 275.42C303.644 275.625 306.099 276.034 308.554 276.034C311.008 276.034 313.258 275.625 314.077 275.42C313.872 274.5 313.77 272.966 314.077 271.431C314.336 270.135 315.509 268.363 315.918 267.749C316.224 268.772 317.084 271.125 318.065 272.352C319.047 273.579 320.725 274.704 321.441 275.113C322.157 275.113 324.018 275.052 325.736 274.807C327.455 274.561 328.498 273.886 328.805 273.579C328.498 272.966 328.498 272.352 328.498 271.431C328.498 270.94 328.498 269.59 328.805 268.977C329.725 270.511 331.222 272.621 332.487 273.886C333.714 275.113 335.248 275.727 335.862 276.034" stroke="black" stroke-linecap="round"/>
<path d="M334.328 279.102C335.044 277.159 337.09 273.886 339.851 273.579C343.219 273.205 346.295 275.113 345.681 280.023C345.067 284.932 339.237 288 336.169 288.614" stroke="black" stroke-linecap="round"/>
<path d="M313.463 302.729C313.565 304.467 314.138 308.497 315.611 310.706C317.084 312.915 318.475 314.286 318.986 314.695" stroke="black" stroke-linecap="round"/>
<path d="M311.622 302.115C310.088 304.058 307.285 309.262 310.088 313.468C311.929 316.229 316.225 315.923 317.452 313.468" stroke="black" stroke-linecap="round"/>
<path d="M332.18 295.671L332.487 299.353C332.282 300.172 331.259 302.238 328.805 303.956C325.736 306.104 322.975 307.331 321.134 310.399C319.661 312.854 318.066 317.457 317.759 321.445" stroke="black" stroke-linecap="round"/>
<path d="M319.906 313.775C320.111 313.468 320.827 312.916 322.054 313.161C323.588 313.468 323.281 316.229 327.27 315.922C331.259 315.616 333.714 314.081 335.555 308.865C337.028 304.692 335.862 299.66 332.793 299.047" stroke="black" stroke-linecap="round"/>
<path d="M308.86 309.786C307.531 313.059 304.933 322.059 305.178 331.878C305.424 341.696 308.553 351.72 310.088 355.504" stroke="black" stroke-linecap="round"/>
<path d="M309.475 301.501C307.327 304.467 302.909 312.915 302.418 322.98C301.927 333.044 305.179 343.537 308.247 349.981" stroke="black" stroke-linecap="round"/>
<path d="M342.306 302.115C341.181 304.263 338.808 309.909 338.317 315.309C337.826 320.709 337.703 330.651 339.544 337.708" stroke="black" stroke-linecap="round"/>
<path d="M339.237 301.501C338.01 303.035 336.537 306.349 335.555 309.786C334.328 314.081 334.328 325.127 335.555 331.264C336.537 336.173 337.601 339.037 338.01 339.855" stroke="black" stroke-linecap="round"/>
<circle cx="317.759" cy="323.593" r="1.64784" stroke="black"/>
<path d="M317.453 325.434C317.248 326.355 316.839 328.809 316.839 331.264C316.839 333.719 317.657 336.992 318.066 338.321" stroke="black" stroke-linecap="round"/>
<path d="M308.554 302.422C303.133 304.263 291.249 311.197 287.076 324.207C281.86 340.469 286.155 347.22 287.076 348.754C287.996 350.288 287.076 350.595 287.383 351.822C287.69 353.049 291.065 354.89 294.133 355.504C297.201 356.118 303.434 356.194 304.872 354.277C305.793 353.049 305.384 352.027 304.872 351.822" stroke="black" stroke-linecap="round"/>
<path d="M299.655 353.356C300.678 353.356 303.153 353.049 304.871 351.822C306.59 350.595 307.224 348.856 307.326 348.14" stroke="black" stroke-linecap="round"/>
<path d="M334.941 300.581C340.771 300.99 354.824 305.06 360.715 315.615C366.607 326.17 363.784 342.617 359.795 349.674C360.204 350.185 360.286 352.129 358.568 353.356C356.42 354.89 353.658 355.811 349.056 356.424C344.701 357.005 337.396 355.504 337.089 353.356C336.782 351.208 337.907 349.981 338.317 349.674" stroke="black" stroke-linecap="round"/>
<path d="M342.919 334.026C340.566 336.378 335.923 341.696 336.169 344.151C336.475 347.219 339.237 349.981 339.237 351.208" stroke="black" stroke-linecap="round"/>
<path d="M310.088 355.504C313.156 357.038 319.538 357.529 324.202 357.038C328.866 356.547 334.737 354.379 337.089 353.356" stroke="black" stroke-linecap="round"/>
<path d="M309.781 355.197C309.576 355.913 309.167 357.775 309.167 359.493C309.167 361.211 309.576 362.868 309.781 363.482" stroke="black" stroke-linecap="round"/>
<path d="M309.781 363.789C309.474 364.095 308.922 364.709 307.94 365.936C306.958 367.164 305.588 369.312 305.485 369.618" stroke="black" stroke-linecap="round"/>
<path d="M357.955 353.97C356.625 356.322 352.984 361.886 349.057 365.323C344.148 369.618 316.225 376.982 312.85 379.13C309.475 381.278 309.543 380.426 305.793 383.426C302.725 385.88 299.043 386.801 297.509 385.267C293.95 381.709 291.679 382.812 291.372 379.744C291.098 376.996 296.588 376.062 299.043 373.607" stroke="black" stroke-linecap="round"/>
<path d="M294.439 376.368C294.132 375.857 294.482 374.272 295.973 372.993C298.121 371.152 298.487 369.733 299.962 369.311C302.11 368.698 304.258 370.539 308.246 369.004C312.235 367.47 316.838 363.175 323.895 361.027C329.541 359.309 335.043 358.061 337.089 357.652" stroke="black" stroke-linecap="round"/>
<path d="M336.476 357.652C336.782 356.629 337.457 354.522 337.703 354.277" stroke="black" stroke-linecap="round"/>
<path d="M288.609 353.356C288.711 353.663 288.854 354.767 288.609 356.731C288.302 359.186 286.154 362.561 285.234 366.243C284.718 368.307 284.436 370.389 284.313 371.766" stroke="black" stroke-linecap="round"/>
<path d="M303.644 355.504C303.542 356.731 303.153 359.554 302.417 361.027" stroke="black" stroke-linecap="round"/>
<path d="M300.576 358.572C301.395 359.084 302.786 360.904 301.804 364.095C301.143 366.243 299.656 369.005 298.735 369.925" stroke="black" stroke-linecap="round"/>
<path d="M295.974 372.686C295.565 371.459 294.01 369.127 291.065 369.618C287.383 370.232 286.769 370.845 286.156 371.459C285.542 372.073 284.928 373.914 283.394 374.528C281.86 375.141 281.553 376.062 281.86 376.675C282.167 377.289 284.315 377.596 286.156 376.675C287.996 375.755 288.814 374.528 289.224 373.914" stroke="black" stroke-linecap="round"/>
<path d="M282.78 374.834C281.552 374.323 278.914 373.791 278.177 375.755C277.257 378.21 280.632 380.357 279.711 382.198C278.791 384.039 279.405 388.151 280.632 388.642C282.166 389.256 284.928 392.938 286.769 391.097" stroke="black" stroke-linecap="round"/>
<path d="M282.78 377.289C283.292 378.516 284.069 381.339 283.087 382.812C281.86 384.653 287.996 383.426 287.076 385.574C286.155 387.721 285.849 387.415 286.462 388.642C286.953 389.624 287.383 390.176 286.769 391.097" stroke="black" stroke-linecap="round"/>
<path d="M288.304 387.721C288.917 387.721 290.452 387.353 291.679 385.88C292.906 384.408 292.804 382.812 292.599 382.198" stroke="black" stroke-linecap="round"/>
<path d="M290.758 259.158C288.61 262.84 285.296 271.984 286.769 282.784C287.382 286.466 289.716 293.28 292.292 296.285C294.133 298.433 297.508 302.115 298.121 301.194C298.735 300.274 299.656 299.967 300.576 301.194" stroke="black" stroke-linecap="round"/>
<path d="M305.178 299.047C303.849 299.353 301.328 300.75 299.349 302.729C297.201 304.876 295.667 307.331 294.746 311.627" stroke="black" stroke-linecap="round"/>
<path d="M355.807 309.479C362.864 313.57 376.364 329.116 377.285 343.844C378.357 360.995 376.364 379.437 356.42 392.631" stroke="black" stroke-linecap="round"/>
<path d="M334.941 299.967C335.248 299.865 335.985 299.415 336.476 298.433C336.967 297.451 337.294 295.774 337.396 295.058C338.214 295.569 339.789 296.776 339.544 297.512C339.237 298.433 342.919 297.206 343.533 294.444C344.024 292.235 345.374 294.546 345.987 295.978C348.238 295.262 352.292 291.834 353.045 284.012C354.579 268.056 349.669 262.533 345.987 257.624" stroke="black" stroke-linecap="round"/>
<path d="M328.497 249.033C328.828 248.371 329.829 246.931 331.5 245.626C331.894 245.318 332.325 245.018 332.793 244.737C335.861 242.896 341.691 242.282 344.759 239.521C347.214 237.312 348.441 237.987 348.748 238.6C349.771 240.135 350.839 244.752 349.975 249.646C349.055 254.862 346.6 257.624 342.918 259.465" stroke="black" stroke-linecap="round"/>
<path d="M305 246.5C306.841 245.068 311.331 242.674 316.225 242.282C323.895 241.669 328.498 243.816 331.259 245.657" stroke="black" stroke-linecap="round"/>
<path d="M307 249.832C306.704 249.087 305.222 247.096 301.666 245.085C297.222 242.573 290.11 242.573 285.665 242.014C282.81 241.656 284.183 248.157 285.665 250.67C287.805 254.298 289.813 254.858 290.703 257.37C291.227 258.854 291.888 260.442 292.48 261" stroke="black" stroke-linecap="round"/>
<path d="M290 247C290.733 247.711 292.68 249.274 294.6 249.842C297 250.553 298.4 251.026 299.4 252.211C300.2 253.158 300.8 254.579 301 256" stroke="black" stroke-width="0.8" stroke-linecap="round"/>
<path d="M347 242C347 242.431 346.451 243.759 344.255 245.621C341.51 247.948 339.985 247.948 337.851 250.534C336.143 252.603 335.919 255.707 336.021 257" stroke="black" stroke-width="0.8" stroke-linecap="round"/>
<path d="M349.363 294.137C363.171 296.592 386.306 306.84 390.479 333.105C394.184 356.425 388.331 376.676 355.807 395.393" stroke="black" stroke-linecap="round"/>
<path d="M346.908 303.649C348.136 302.013 352.308 300.09 356.727 301.808C361.145 303.527 361.943 309.172 360.409 312.547" stroke="black" stroke-linecap="round"/>
<path d="M372.989 304.57C372.375 306.001 371.884 309.847 374.83 313.775C377.776 317.702 382.399 317.457 384.342 316.843" stroke="black" stroke-linecap="round"/>
<path d="M391.092 344.151C389.251 344.253 385.324 345.501 384.342 349.674C383.36 353.847 386.183 358.572 389.251 359.493" stroke="black" stroke-linecap="round"/>
<path d="M305.179 393.858C306.304 391.506 309.045 386.187 311.009 383.733" stroke="black" stroke-width="0.8" stroke-linecap="round"/>
<path d="M299.992 281.265C300.606 282.39 301.958 283.981 303.031 284.625C304.565 285.546 306.099 285.546 307.02 285.239" stroke="black" stroke-linecap="round"/>
<path d="M318.065 284.932C318.884 285.239 320.999 285.716 322.668 285.239C324.816 284.625 326.043 283.705 327.27 282.171" stroke="black" stroke-linecap="round"/>
<path d="M311.315 290.455C311.315 290.66 311.438 291.437 311.929 291.682C312.42 291.928 312.747 291.682 312.85 291.682" stroke="black" stroke-linecap="round"/>
<path d="M312.85 295.978C313.259 295.978 314.073 296.13 314.384 296.285C314.997 296.592 314.997 296.899 314.997 297.206" stroke="black" stroke-linecap="round"/>
<path d="M294.133 375.141C293.006 374.878 291.061 374.319 289.531 373.914M285.235 372.38C268.16 367.853 235.807 359.985 192.192 362.491C139.666 365.51 94.9981 396.619 79.9633 414.416C79.5541 414.927 78.8144 416.107 79.0428 416.564C79.2884 417.054 79.861 416.666 80.2701 416.257" stroke="black" stroke-linecap="round"/>
<path d="M80.5762 415.818C95.611 398.022 138.817 369.13 191.343 366.111C231.739 363.79 261.42 370.268 278.791 374.799M291.678 378.209C290.205 377.866 288.41 377.386 286.298 376.814" stroke="black" stroke-linecap="round"/>
<path d="M81 416C82.6358 420.893 90.0171 433.074 106.456 442.654C127.006 454.629 167.184 476.647 177.305 516.048C185.402 547.57 186.2 608.758 179.452 647" stroke="black" stroke-width="0.6" stroke-linecap="round"/>
<path d="M336.782 282.784C336.885 282.068 337.335 280.391 338.316 279.409C339.298 278.427 340.362 278.182 340.771 278.182" stroke="black" stroke-width="0.8" stroke-linecap="round"/>
<path d="M292.904 281.25C293.416 281.25 294.132 281.25 295.052 281.864C295.623 282.244 296.279 282.784 296.586 283.398" stroke="black" stroke-width="0.8" stroke-linecap="round"/>
</g>
<defs>
<clipPath id="clip0_1752_748">
<rect width="486" height="647" fill="white"/>
</clipPath>
<clipPath id="clip1_1752_748">
<rect width="134" height="126" fill="white" transform="translate(176 54)"/>
</clipPath>
</defs>
</svg>
