<svg width="486" height="647" viewBox="0 0 486 647" fill="none" xmlns="http://www.w3.org/2000/svg">
<path d="M242.793 377.129C242.864 377.396 243.138 377.554 243.405 377.483C243.672 377.411 243.83 377.137 243.758 376.871L242.793 377.129ZM204.423 232L203.94 232.129L242.793 377.129L243.275 377L243.758 376.871L204.906 231.871L204.423 232Z" fill="black"/>
<path d="M78.2744 434.164C74.93 435.143 66.6616 437.035 65.5045 441.504C63.2242 450.312 87.3953 448.11 87.3953 456.919C87.3953 464.259 55.8303 464.291 55.0157 476.737C54.103 490.683 93.1688 492.433 95.6045 499.491C97.8842 506.097 85.1152 505.363 84.2031 512.703C83.2909 520.043 94.6924 516.373 94.6924 522.98C94.6924 529.586 87.5453 528.536 86.0274 535.458C83.2909 547.936 146.683 539.128 141.21 551.606C136.832 561.588 188.64 583.902 222.845 583.902C227.224 583.902 226.22 591.683 232.422 593.445C240.175 595.647 251.577 589.04 259.33 589.04C267.083 589.04 269.363 597.849 276.204 595.647C283.045 593.445 281.676 583.902 289.429 580.232C297.182 576.562 307.216 580.232 313.144 575.094C319.274 569.782 307.672 568.488 314.513 562.616C319.073 558.701 337.315 567.02 347.349 562.616C357.382 558.212 361.487 551.606 371.52 547.936C381.553 544.266 393.411 547.202 397.059 539.128C401.039 530.32 380.162 521.584 382.009 515.639C384.746 506.831 413.521 510.034 419 503.735C422.192 500.065 409.308 496.539 412.5 493.603C417.517 488.989 436.5 490.611 436.5 479.851C436.5 471.89 416.556 470.881 414 466.824C410.808 461.758 427 462.481 425 456.691C422.89 450.584 410 451.625 409 448.73C407.5 444.388 414.206 444.462 414 441.493C413.699 437.15 405.5 439.321 407.548 433.43" stroke="url(#paint0_linear_1724_1712)" stroke-linecap="round"/>
<path d="M85 472.59C87.8884 473.079 94.1212 473.764 95.9454 472.59C98.2257 471.122 97.3136 470.388 99.1378 468.92C100.597 467.745 104.306 467.941 105.979 468.186" stroke="#B2AD9A" stroke-linecap="round"/>
<path d="M105.638 522.98L122.968 513.438M166.75 559.68C166.75 559.68 173.134 558.946 176.783 556.01C180.431 553.074 182.5 551.5 182.5 551.5C183.108 551.255 185.5 549.674 185.5 548.5C185.5 547.326 182 545.5 180 546.5" stroke="#CCC9BD" stroke-linecap="round"/>
<path d="M230.142 563.35C229.534 562.861 227.862 561.882 226.949 563.35C226.019 564.847 227.101 566.286 227.861 567.02L238.807 575.828" stroke="#CCC9BD" stroke-linecap="round"/>
<path d="M314.968 547.202C312.84 546.468 307.79 544.889 307.215 547.202C306.303 550.872 313.752 551.851 317.705 553.074" stroke="#C1BCAD" stroke-linecap="round"/>
<path d="M353.277 514.172L370.152 517.108" stroke="#ADA793" stroke-linecap="round"/>
<path d="M377.904 465.727C377.904 465.727 385 465 389 467C393 469 398.883 465.727 398.883 465.727" stroke="url(#paint1_linear_1724_1712)" stroke-linecap="round"/>
<path d="M212.812 479.673C213.42 477.226 215.822 471.746 220.565 469.397C226.493 466.461 235.029 468.86 243.823 467.195C251.576 465.727 262.044 463.699 262.978 456.184C263.434 452.514 260.394 451.781 257.961 452.515" stroke="url(#paint2_linear_1724_1712)" stroke-linecap="round"/>
<path d="M294.902 433.43C288.061 434.164 271.78 442.878 269.5 447.283C266.989 452.133 274.041 452.189 271.643 456.185C269 460.589 251.463 459.137 241.543 460.589C236.526 461.323 227.861 464.993 227.861 472.333C227.861 479.673 247.105 478.363 246.104 484.811C245.192 490.683 246.104 492.151 247.472 492.885C249.407 493.923 265.258 497.289 260.698 503.161C256.137 509.033 229.686 516.373 228.773 525.182C227.861 533.99 256.922 538.882 259.329 543.532C261.61 547.936 256.897 549.893 256.137 550.138" stroke="url(#paint3_linear_1724_1712)" stroke-linecap="round"/>
<path d="M238.807 467.929C229.686 471.599 229.23 484.811 233.334 492.151C237.199 499.063 245.647 495.821 244.735 501.693C243.823 507.566 201.866 517.842 201.41 527.384C200.954 536.926 225.125 537.66 224.669 543.532C224.304 548.23 211.748 555.276 205.515 558.212" stroke="url(#paint4_linear_1724_1712)" stroke-linecap="round"/>
<path d="M78.2746 433.43C51.8234 353.818 91.9561 191.043 243.368 188M83.747 377.144H101.989M106.55 288.403L121.558 298.038" stroke="black" stroke-linecap="round"/>
<path d="M161.277 225.017L171.311 242.258M242.912 200.17V220.453" stroke="black" stroke-linecap="round"/>
<path d="M407.549 433.43C434 353.818 392.954 191.043 242.456 188M402.076 377.144H383.834M379.273 288.403L364.265 298.038" stroke="black" stroke-linecap="round"/>
<path d="M324.546 225.017L314.513 242.258M242.911 200.17V220.453" stroke="black" stroke-linecap="round"/>
<path d="M141.195 443.572C143.932 436.473 146.717 426.896 149.881 420.946C152.141 416.696 156.738 412.686 160.738 411.864M175.5 411.864C179.5 411.864 183 415 185 417C186 418 189 423 190.5 425.5" stroke="black" stroke-linecap="round"/>
<path d="M152.597 443.065L155.595 436.193" stroke="black" stroke-linecap="round"/>
<path d="M156.644 428.602C156.316 431.339 155.767 434.656 155.563 438.715C155.5 439.984 155.309 443.79 155.688 447.631" stroke="black" stroke-linecap="round"/>
<path d="M180.021 445.723C180.021 445.511 180.021 444.579 180.021 442.546C180.021 440.513 179.5 431 179 428C178.894 427.367 178.605 426.5 179.5 426.5" stroke="black" stroke-linecap="round"/>
<path d="M168.285 393.5C173.64 393.5 178.069 398.345 178.069 404.436C178.069 410.526 173.641 415.371 168.285 415.371C162.93 415.371 158.5 410.526 158.5 404.436C158.5 398.345 162.93 393.5 168.285 393.5Z" stroke="black"/>
<path d="M155.5 447.5C156.892 448.552 161.745 449.657 167.165 449.657C173.119 449.657 177.752 447.803 180 446" stroke="#8B8266" stroke-linecap="round"/>
<path d="M141.195 443.572C141.803 444.248 144.844 444.992 148.492 444.586C150.316 444.383 152.141 443.572 152.597 443.065" stroke="#948C72" stroke-linecap="round"/>
<path d="M181 443.5C183 442 187.924 442.387 189 444C191 447 200.588 446.014 201.5 445" stroke="#8B8266" stroke-linecap="round"/>
<path d="M347.692 447.089C346.647 455.326 345.579 456.896 340.902 457.459" stroke="black" stroke-linecap="round"/>
<path d="M345.438 468.919C345.984 465.095 345.504 457.509 340 457.318" stroke="black" stroke-linecap="round"/>
<path d="M347.592 448.305C347.088 455.907 349.114 458.075 353.178 458.712" stroke="black" stroke-linecap="round"/>
<path d="M345.433 468.915C346.312 465.337 347.141 459.11 352.728 458.643" stroke="black" stroke-linecap="round"/>
<path d="M344.85 469.928C342.866 469.485 338.76 468.865 338.2 469.928C337.5 471.256 340.3 472.142 340.3 473.913C340.3 475.684 332.25 474.034 329.8 474.919C327.84 475.628 329.8 477.455 332.25 477.455" stroke="url(#paint5_linear_1724_1712)" stroke-linecap="round"/>
<path d="M171.168 406.392C171.046 407.25 169.992 407.808 168.813 407.64C167.635 407.472 166.778 406.641 166.9 405.784C167.023 404.927 167.387 405.96 168.566 406.128C169.745 406.296 171.291 405.535 171.168 406.392Z" fill="black"/>
<path d="M175.051 405.818C175.173 406.675 175.998 407.267 176.894 407.139C177.79 407.011 178.417 406.213 178.295 405.356C178.173 404.498 177.928 405.515 177.033 405.642C176.137 405.77 174.929 404.961 175.051 405.818Z" fill="black"/>
<rect x="221" y="356.027" width="3" height="107.753" rx="1.5" transform="rotate(-42.5067 221 356.027)" fill="black"/>
<rect x="264.059" y="270.023" width="4" height="126.152" rx="2" transform="rotate(12.1099 264.059 270.023)" fill="#FFFCF2" stroke="black"/>
<circle cx="243" cy="377" r="7.5" fill="#FFFCF2" stroke="black"/>
<path d="M141 443.5C137.351 444.968 137.764 449 140.5 450C143.995 451.277 145.577 450.766 147.402 451.5C148.859 452.086 150.5 454.902 147.402 456.148C145.146 457.056 142.916 458.421 143.753 460.552C145.5 465 154.309 460.912 153.33 466.424C152.419 471.562 135.643 469.268 138.281 476.701C140.105 481.839 151.506 481.839 149.682 485.509C147.055 490.793 141.929 486.977 141.929 492.115C141.929 497.253 149.102 498.576 153.33 497.987C157.559 497.397 165.188 494.317 159.715 485.509C156.427 480.216 163.82 475.233 170.205 474.499C173.377 474.134 174.309 472.296 172.261 469.36C170.476 466.802 172.448 464.288 178.414 463.488C189.346 462.022 191.642 457.692 188.903 455.414C186 453 186.903 451.8 188.903 451.5C192.736 450.926 210 451.5 201.5 445" stroke="url(#paint6_linear_1724_1712)" stroke-linecap="round"/>
<path d="M107.078 112.277L108.876 109.386C123.525 106.113 132.038 98.0732 132.474 93.9928C133.284 86.4149 127.936 84.3335 124.851 82.5332L126.051 80.5294C134.788 81.835 145.899 88.3859 144.715 95.3537C143.427 102.924 120.532 110.737 107.078 112.277Z" fill="black"/>
<path d="M105.818 111.523L107.517 108.573C103.481 94.1159 106.545 82.8137 109.935 80.5018C116.232 76.2082 120.592 79.9381 123.637 81.8072L124.836 79.8031C119.557 72.7187 108.535 66.0205 102.953 70.3565C96.889 75.0675 100.819 98.9378 105.818 111.523Z" fill="black"/>
<path d="M181.602 88.5795H177.352C177.231 87.8826 177.007 87.2652 176.682 86.7273C176.356 86.1818 175.951 85.7197 175.466 85.3409C174.981 84.9621 174.428 84.678 173.807 84.4886C173.193 84.2917 172.53 84.1932 171.818 84.1932C170.553 84.1932 169.432 84.5114 168.454 85.1477C167.477 85.7765 166.712 86.7008 166.159 87.9205C165.606 89.1326 165.329 90.6136 165.329 92.3636C165.329 94.1439 165.606 95.6439 166.159 96.8636C166.72 98.0758 167.485 98.9924 168.454 99.6136C169.432 100.227 170.549 100.534 171.807 100.534C172.504 100.534 173.155 100.443 173.761 100.261C174.375 100.072 174.924 99.7955 175.409 99.4318C175.901 99.0682 176.314 98.6212 176.648 98.0909C176.989 97.5606 177.223 96.9545 177.352 96.2727L181.602 96.2955C181.443 97.4015 181.098 98.4394 180.568 99.4091C180.045 100.379 179.36 101.235 178.511 101.977C177.663 102.712 176.67 103.288 175.534 103.705C174.398 104.114 173.136 104.318 171.75 104.318C169.704 104.318 167.879 103.845 166.273 102.898C164.667 101.951 163.401 100.583 162.477 98.7955C161.553 97.0076 161.091 94.8636 161.091 92.3636C161.091 89.8561 161.557 87.7121 162.489 85.9318C163.42 84.1439 164.689 82.7765 166.295 81.8295C167.901 80.8826 169.72 80.4091 171.75 80.4091C173.045 80.4091 174.25 80.5909 175.364 80.9545C176.477 81.3182 177.47 81.8523 178.341 82.5568C179.212 83.2538 179.928 84.1098 180.489 85.125C181.057 86.1326 181.428 87.2841 181.602 88.5795ZM185.783 104V80.7273H189.999V90.5795H200.783V80.7273H205.01V104H200.783V94.1136H189.999V104H185.783ZM214.131 80.7273V104H209.915V80.7273H214.131ZM227.274 104V80.7273H236.001C237.789 80.7273 239.289 81.0606 240.501 81.7273C241.721 82.3939 242.642 83.3106 243.263 84.4773C243.892 85.6364 244.206 86.9545 244.206 88.4318C244.206 89.9242 243.892 91.25 243.263 92.4091C242.634 93.5682 241.706 94.4811 240.479 95.1477C239.251 95.8068 237.74 96.1364 235.945 96.1364H230.161V92.6705H235.376C236.422 92.6705 237.278 92.4886 237.945 92.125C238.611 91.7614 239.104 91.2614 239.422 90.625C239.748 89.9886 239.911 89.2576 239.911 88.4318C239.911 87.6061 239.748 86.8788 239.422 86.25C239.104 85.6212 238.608 85.1326 237.933 84.7841C237.267 84.428 236.407 84.25 235.354 84.25H231.49V104H227.274ZM248.188 104V80.7273H252.404V100.466H262.654V104H248.188ZM270.497 104H265.997L274.19 80.7273H279.394L287.599 104H283.099L276.883 85.5H276.701L270.497 104ZM270.644 94.875H282.917V98.2614H270.644V94.875ZM287.018 80.7273H291.78L297.473 91.0227H297.7L303.393 80.7273H308.155L299.689 95.3182V104H295.484V95.3182L287.018 80.7273ZM319.661 104V101.455L327.536 93.2955C328.377 92.4091 329.07 91.6326 329.616 90.9659C330.169 90.2917 330.582 89.6515 330.854 89.0455C331.127 88.4394 331.263 87.7955 331.263 87.1136C331.263 86.3409 331.082 85.6742 330.718 85.1136C330.354 84.5455 329.858 84.1098 329.229 83.8068C328.601 83.4962 327.892 83.3409 327.104 83.3409C326.271 83.3409 325.544 83.5114 324.923 83.8523C324.301 84.1932 323.824 84.6742 323.491 85.2955C323.157 85.9167 322.991 86.6439 322.991 87.4773H319.638C319.638 86.0606 319.964 84.822 320.616 83.7614C321.267 82.7008 322.161 81.8788 323.298 81.2955C324.434 80.7045 325.726 80.4091 327.173 80.4091C328.635 80.4091 329.923 80.7008 331.036 81.2841C332.157 81.8598 333.032 82.6477 333.661 83.6477C334.29 84.6402 334.604 85.7614 334.604 87.0114C334.604 87.875 334.441 88.7197 334.116 89.5455C333.798 90.3712 333.241 91.2917 332.445 92.3068C331.65 93.3144 330.544 94.5379 329.127 95.9773L324.502 100.818V100.989H334.979V104H319.661ZM346.108 104.386C344.313 104.379 342.779 103.905 341.506 102.966C340.233 102.027 339.26 100.659 338.586 98.8636C337.911 97.0682 337.574 94.9053 337.574 92.375C337.574 89.8523 337.911 87.697 338.586 85.9091C339.268 84.1212 340.245 82.7576 341.518 81.8182C342.798 80.8788 344.328 80.4091 346.108 80.4091C347.889 80.4091 349.415 80.8826 350.688 81.8295C351.961 82.7689 352.934 84.1326 353.608 85.9205C354.29 87.7008 354.631 89.8523 354.631 92.375C354.631 94.9129 354.294 97.0795 353.62 98.875C352.946 100.663 351.972 102.03 350.699 102.977C349.427 103.917 347.896 104.386 346.108 104.386ZM346.108 101.352C347.684 101.352 348.915 100.583 349.802 99.0455C350.696 97.5076 351.143 95.2841 351.143 92.375C351.143 90.4432 350.938 88.8106 350.529 87.4773C350.127 86.1364 349.548 85.1212 348.79 84.4318C348.04 83.7348 347.146 83.3864 346.108 83.3864C344.54 83.3864 343.309 84.1591 342.415 85.7045C341.521 87.25 341.071 89.4735 341.063 92.375C341.063 94.3144 341.264 95.9545 341.665 97.2955C342.074 98.6288 342.654 99.6402 343.404 100.33C344.154 101.011 345.055 101.352 346.108 101.352ZM357.382 104V101.455L365.257 93.2955C366.098 92.4091 366.791 91.6326 367.337 90.9659C367.89 90.2917 368.303 89.6515 368.576 89.0455C368.848 88.4394 368.985 87.7955 368.985 87.1136C368.985 86.3409 368.803 85.6742 368.439 85.1136C368.076 84.5455 367.579 84.1098 366.951 83.8068C366.322 83.4962 365.613 83.3409 364.826 83.3409C363.992 83.3409 363.265 83.5114 362.644 83.8523C362.023 84.1932 361.545 84.6742 361.212 85.2955C360.879 85.9167 360.712 86.6439 360.712 87.4773H357.36C357.36 86.0606 357.685 84.822 358.337 83.7614C358.988 82.7008 359.882 81.8788 361.019 81.2955C362.155 80.7045 363.447 80.4091 364.894 80.4091C366.356 80.4091 367.644 80.7008 368.757 81.2841C369.879 81.8598 370.754 82.6477 371.382 83.6477C372.011 84.6402 372.326 85.7614 372.326 87.0114C372.326 87.875 372.163 88.7197 371.837 89.5455C371.519 90.3712 370.962 91.2917 370.166 92.3068C369.371 93.3144 368.265 94.5379 366.848 95.9773L362.223 100.818V100.989H372.701V104H357.382ZM384.557 80.7273V104H381.034V84.25H380.898L375.33 87.8864V84.5227L381.136 80.7273H384.557Z" fill="black"/>
<path d="M179.5 428.5C182.833 427.167 190.635 425.11 195.5 426.5C202.5 428.5 208.414 433.608 204.5 438.5C203.382 439.897 200.5 441.5 201.5 444.5" stroke="black" stroke-linecap="round"/>
<path d="M180 438C180.133 437.259 180.884 436.128 181.6 435.333C182.432 434.409 183.6 434 184 434" stroke="black" stroke-width="0.8" stroke-linecap="round"/>
<path d="M123.442 441.5C123.942 442.5 125.442 442.875 125.942 443C127.942 443.5 129.942 443 130.442 442" stroke="#8E866B" stroke-width="0.8" stroke-linecap="round"/>
<path d="M112.442 415.5L112.909 432.302C112.93 433.04 113.35 433.718 114.038 433.984C117.81 435.445 122.186 435.127 125.942 434C130.247 432.709 132.742 429.564 133.99 427.438C134.329 426.862 134.301 426.151 133.97 425.571L125.942 411.5" stroke="black" stroke-linecap="round"/>
<path d="M118.732 411.43C120.671 410.903 122.479 410.696 123.826 410.776C124.502 410.816 125.034 410.927 125.401 411.086C125.774 411.246 125.901 411.42 125.935 411.544C125.968 411.668 125.947 411.881 125.707 412.209C125.47 412.531 125.068 412.896 124.506 413.273C123.385 414.025 121.721 414.762 119.782 415.29C117.844 415.817 116.036 416.024 114.689 415.944C114.013 415.904 113.482 415.793 113.115 415.634C112.741 415.473 112.615 415.3 112.581 415.176C112.547 415.052 112.569 414.839 112.809 414.511C113.045 414.189 113.448 413.824 114.01 413.447C115.131 412.695 116.794 411.958 118.732 411.43Z" stroke="black"/>
<path d="M122.442 435C122.776 435.167 123.442 435.7 123.442 436.5C123.442 437.5 122.442 438 122.942 440C123.099 440.627 123.261 441.121 123.41 441.5" stroke="black" stroke-linecap="round"/>
<path d="M128.773 433C128.554 433.302 128.209 434.082 128.578 434.792C129.039 435.68 130.156 435.662 130.635 437.668C131.017 439.272 130.706 441.275 130.635 441.5" stroke="black" stroke-linecap="round"/>
<path d="M123.5 442C122 442 119.543 443.5 119.943 445.5C120.443 448 120.443 449 118.443 449.5C116.443 450 112.14 449.228 110.443 450.5C108.443 452 108.442 454.611 110.943 456C115.443 458.499 120.131 457.07 123.443 455C127.442 452.5 125.943 450.5 124.943 449.5C123.943 448.5 123.443 448 124.443 447C125.443 446 132 444.5 130.5 442" stroke="url(#paint7_linear_1724_1712)" stroke-width="0.8" stroke-linecap="round"/>
<defs>
<linearGradient id="paint0_linear_1724_1712" x1="248.675" y1="433.43" x2="248.675" y2="596" gradientUnits="userSpaceOnUse">
<stop stop-color="#8A8165"/>
<stop offset="0.966346" stop-color="#CCC9BD"/>
</linearGradient>
<linearGradient id="paint1_linear_1724_1712" x1="383" y1="465" x2="397.5" y2="466.5" gradientUnits="userSpaceOnUse">
<stop stop-color="#8A8165"/>
<stop offset="1" stop-color="#CCC9BD"/>
</linearGradient>
<linearGradient id="paint2_linear_1724_1712" x1="237.918" y1="452.259" x2="237.918" y2="479.673" gradientUnits="userSpaceOnUse">
<stop stop-color="#8A8165"/>
<stop offset="0.966346" stop-color="#CCC9BD"/>
</linearGradient>
<linearGradient id="paint3_linear_1724_1712" x1="261.382" y1="433.43" x2="261.382" y2="550.138" gradientUnits="userSpaceOnUse">
<stop stop-color="#8A8165"/>
<stop offset="0.966346" stop-color="#CCC9BD"/>
</linearGradient>
<linearGradient id="paint4_linear_1724_1712" x1="223.103" y1="467.929" x2="223.103" y2="558.212" gradientUnits="userSpaceOnUse">
<stop stop-color="#8A8165"/>
<stop offset="0.966346" stop-color="#CCC9BD"/>
</linearGradient>
<linearGradient id="paint5_linear_1724_1712" x1="336.925" y1="469.341" x2="336.925" y2="477.455" gradientUnits="userSpaceOnUse">
<stop stop-color="#8A8165"/>
<stop offset="0.966346" stop-color="#CCC9BD"/>
</linearGradient>
<linearGradient id="paint6_linear_1724_1712" x1="165.586" y1="440" x2="165.586" y2="498.117" gradientUnits="userSpaceOnUse">
<stop stop-color="#8A8165"/>
<stop offset="0.966346" stop-color="#CCC9BD"/>
</linearGradient>
<linearGradient id="paint7_linear_1724_1712" x1="119.778" y1="441.5" x2="119.778" y2="457.328" gradientUnits="userSpaceOnUse">
<stop stop-color="#8E866B"/>
<stop offset="1" stop-color="#A19A84"/>
</linearGradient>
</defs>
</svg>
