<svg width="293" height="66" viewBox="0 0 293 66" fill="none" xmlns="http://www.w3.org/2000/svg">
<g clip-path="url(#clip0_1856_792)">
<path d="M11.0785 53.2766L12.8758 50.3855C27.5248 47.1132 36.0384 39.073 36.4744 34.9927C37.284 27.4148 31.9364 25.3334 28.8507 23.533L30.0506 21.5293C38.7884 22.8349 49.8995 29.3857 48.7147 36.3536C47.4275 43.9239 24.5323 51.7372 11.0785 53.2766Z" fill="#CF0000"/>
<path d="M9.81813 52.5228L11.5172 49.5729C7.4806 35.1159 10.5448 23.8137 13.9352 21.5018C20.2316 17.2082 24.5924 20.9381 27.637 22.8072L28.8362 20.8031C23.5574 13.7187 12.5346 7.02049 6.95306 11.3565C0.888951 16.0675 4.81892 39.9378 9.81813 52.5228Z" fill="#CF0000"/>
<path d="M85.6022 29.5795H81.3522C81.231 28.8826 81.0075 28.2652 80.6817 27.7273C80.356 27.1818 79.9506 26.7197 79.4658 26.3409C78.981 25.9621 78.4279 25.678 77.8067 25.4886C77.1931 25.2917 76.5302 25.1932 75.8181 25.1932C74.5529 25.1932 73.4317 25.5114 72.4544 26.1477C71.4772 26.7765 70.712 27.7008 70.159 28.9205C69.606 30.1326 69.3294 31.6136 69.3294 33.3636C69.3294 35.1439 69.606 36.6439 70.159 37.8636C70.7196 39.0758 71.4847 39.9924 72.4544 40.6136C73.4317 41.2273 74.5491 41.5341 75.8067 41.5341C76.5037 41.5341 77.1552 41.4432 77.7613 41.2614C78.3749 41.072 78.9241 40.7955 79.409 40.4318C79.9014 40.0682 80.3143 39.6212 80.6476 39.0909C80.9885 38.5606 81.2234 37.9545 81.3522 37.2727L85.6022 37.2955C85.4431 38.4015 85.0984 39.4394 84.5681 40.4091C84.0453 41.3788 83.3597 42.2348 82.5113 42.9773C81.6628 43.7121 80.6703 44.2879 79.534 44.7045C78.3976 45.1136 77.1363 45.3182 75.7499 45.3182C73.7044 45.3182 71.8787 44.8447 70.2726 43.8977C68.6666 42.9508 67.4014 41.5833 66.4772 39.7955C65.5529 38.0076 65.0908 35.8636 65.0908 33.3636C65.0908 30.8561 65.5567 28.7121 66.4885 26.9318C67.4203 25.1439 68.6893 23.7765 70.2953 22.8295C71.9014 21.8826 73.7196 21.4091 75.7499 21.4091C77.0453 21.4091 78.2499 21.5909 79.3635 21.9545C80.4772 22.3182 81.4696 22.8523 82.3408 23.5568C83.212 24.2538 83.9279 25.1098 84.4885 26.125C85.0567 27.1326 85.4279 28.2841 85.6022 29.5795ZM89.783 45V21.7273H93.9989V31.5795H104.783V21.7273H109.01V45H104.783V35.1136H93.9989V45H89.783ZM118.131 21.7273V45H113.915V21.7273H118.131ZM131.274 45V21.7273H140.001C141.789 21.7273 143.289 22.0606 144.501 22.7273C145.721 23.3939 146.642 24.3106 147.263 25.4773C147.892 26.6364 148.206 27.9545 148.206 29.4318C148.206 30.9242 147.892 32.25 147.263 33.4091C146.634 34.5682 145.706 35.4811 144.479 36.1477C143.251 36.8068 141.74 37.1364 139.945 37.1364H134.161V33.6705H139.376C140.422 33.6705 141.278 33.4886 141.945 33.125C142.611 32.7614 143.104 32.2614 143.422 31.625C143.748 30.9886 143.911 30.2576 143.911 29.4318C143.911 28.6061 143.748 27.8788 143.422 27.25C143.104 26.6212 142.608 26.1326 141.933 25.7841C141.267 25.428 140.407 25.25 139.354 25.25H135.49V45H131.274ZM152.188 45V21.7273H156.404V41.4659H166.654V45H152.188ZM174.497 45H169.997L178.19 21.7273H183.394L191.599 45H187.099L180.883 26.5H180.701L174.497 45ZM174.644 35.875H186.917V39.2614H174.644V35.875ZM191.018 21.7273H195.78L201.473 32.0227H201.7L207.393 21.7273H212.155L203.689 36.3182V45H199.484V36.3182L191.018 21.7273Z" fill="white"/>
<path d="M223.661 45V42.4545L231.536 34.2955C232.377 33.4091 233.07 32.6326 233.616 31.9659C234.169 31.2917 234.582 30.6515 234.854 30.0455C235.127 29.4394 235.263 28.7955 235.263 28.1136C235.263 27.3409 235.082 26.6742 234.718 26.1136C234.354 25.5455 233.858 25.1098 233.229 24.8068C232.601 24.4962 231.892 24.3409 231.104 24.3409C230.271 24.3409 229.544 24.5114 228.923 24.8523C228.301 25.1932 227.824 25.6742 227.491 26.2955C227.157 26.9167 226.991 27.6439 226.991 28.4773H223.638C223.638 27.0606 223.964 25.822 224.616 24.7614C225.267 23.7008 226.161 22.8788 227.298 22.2955C228.434 21.7045 229.726 21.4091 231.173 21.4091C232.635 21.4091 233.923 21.7008 235.036 22.2841C236.157 22.8598 237.032 23.6477 237.661 24.6477C238.29 25.6402 238.604 26.7614 238.604 28.0114C238.604 28.875 238.441 29.7197 238.116 30.5455C237.798 31.3712 237.241 32.2917 236.445 33.3068C235.65 34.3144 234.544 35.5379 233.127 36.9773L228.502 41.8182V41.9886H238.979V45H223.661ZM250.108 45.3864C248.313 45.3788 246.779 44.9053 245.506 43.9659C244.233 43.0265 243.26 41.6591 242.586 39.8636C241.911 38.0682 241.574 35.9053 241.574 33.375C241.574 30.8523 241.911 28.697 242.586 26.9091C243.268 25.1212 244.245 23.7576 245.518 22.8182C246.798 21.8788 248.328 21.4091 250.108 21.4091C251.889 21.4091 253.415 21.8826 254.688 22.8295C255.961 23.7689 256.934 25.1326 257.608 26.9205C258.29 28.7008 258.631 30.8523 258.631 33.375C258.631 35.9129 258.294 38.0795 257.62 39.875C256.946 41.6629 255.972 43.0303 254.699 43.9773C253.427 44.9167 251.896 45.3864 250.108 45.3864ZM250.108 42.3523C251.684 42.3523 252.915 41.5833 253.802 40.0455C254.696 38.5076 255.143 36.2841 255.143 33.375C255.143 31.4432 254.938 29.8106 254.529 28.4773C254.127 27.1364 253.548 26.1212 252.79 25.4318C252.04 24.7348 251.146 24.3864 250.108 24.3864C248.54 24.3864 247.309 25.1591 246.415 26.7045C245.521 28.25 245.071 30.4735 245.063 33.375C245.063 35.3144 245.264 36.9545 245.665 38.2955C246.074 39.6288 246.654 40.6402 247.404 41.3295C248.154 42.0114 249.055 42.3523 250.108 42.3523ZM261.382 45V42.4545L269.257 34.2955C270.098 33.4091 270.791 32.6326 271.337 31.9659C271.89 31.2917 272.303 30.6515 272.576 30.0455C272.848 29.4394 272.985 28.7955 272.985 28.1136C272.985 27.3409 272.803 26.6742 272.439 26.1136C272.076 25.5455 271.579 25.1098 270.951 24.8068C270.322 24.4962 269.613 24.3409 268.826 24.3409C267.992 24.3409 267.265 24.5114 266.644 24.8523C266.023 25.1932 265.545 25.6742 265.212 26.2955C264.879 26.9167 264.712 27.6439 264.712 28.4773H261.36C261.36 27.0606 261.685 25.822 262.337 24.7614C262.988 23.7008 263.882 22.8788 265.019 22.2955C266.155 21.7045 267.447 21.4091 268.894 21.4091C270.356 21.4091 271.644 21.7008 272.757 22.2841C273.879 22.8598 274.754 23.6477 275.382 24.6477C276.011 25.6402 276.326 26.7614 276.326 28.0114C276.326 28.875 276.163 29.7197 275.837 30.5455C275.519 31.3712 274.962 32.2917 274.166 33.3068C273.371 34.3144 272.265 35.5379 270.848 36.9773L266.223 41.8182V41.9886H276.701V45H261.382ZM288.557 21.7273V45H285.034V25.25H284.898L279.33 28.8864V25.5227L285.136 21.7273H288.557Z" fill="#CF0000"/>
<mask id="mask0_1856_792" style="mask-type:alpha" maskUnits="userSpaceOnUse" x="-6" y="-2" width="54" height="71">
<rect x="47.5537" y="9.60437" width="69" height="21" transform="rotate(120.9 47.5537 9.60437)" fill="#D9D9D9"/>
</mask>
<g mask="url(#mask0_1856_792)">
<path d="M11.0699 53.2628L12.867 50.3716C27.5158 47.0983 36.0289 39.0576 36.4646 34.9772C37.2737 27.3993 31.926 25.3182 28.8401 23.5181L30.0398 21.5142C38.7777 22.8193 49.8893 29.3693 48.705 36.3372C47.4183 43.9076 24.5237 51.7225 11.0699 53.2628Z" fill="white"/>
<path d="M9.81041 52.5095L11.5093 49.5594C7.47169 35.1027 10.5352 23.8004 13.9254 21.4882C20.2214 17.1942 24.5825 20.9238 27.6272 22.7926L28.8263 20.7884C23.5471 13.7044 12.5237 7.00697 6.94251 11.3434C0.878732 16.0548 4.81034 39.9248 9.81041 52.5095Z" fill="white"/>
</g>
</g>
<defs>
<clipPath id="clip0_1856_792">
<rect width="293" height="66" fill="white"/>
</clipPath>
</defs>
</svg>
