<svg width="146" height="137" viewBox="0 0 146 137" fill="none" xmlns="http://www.w3.org/2000/svg">
<g clip-path="url(#clip0_1795_893)">
<path d="M137.98 79.9558C137.82 79.463 135.101 79.0414 134.339 78.7564C131.876 77.8362 129.669 75.8472 129.907 73.0271C131.24 73.413 132.323 73.4071 133.679 73.9355C135.958 74.8201 135.63 75.5801 136.82 77.2603C137.088 77.6403 136.82 78.0499 137.653 77.8659L136.642 71.145C132.608 70.7294 129.408 70.2247 127.325 66.425C128.753 65.4216 131.674 65.8787 133.102 66.7753C134.292 67.5233 134.619 69.2332 136.041 69.162C135.446 67.9093 134.244 63.0348 132.935 62.7914C132.412 62.6964 130.502 63.1298 129.419 63.0289C127.248 62.8389 124.904 61.6277 124.089 59.4904C126.945 58.2139 129.877 58.6473 132.162 60.7728L130.55 56.9077C131.49 56.504 132.091 60.0425 132.81 59.1638C132.686 57.2936 132.733 56.0409 133.721 54.426C134.708 52.8111 136.529 50.7034 136.981 53.8738C137.433 57.0442 135.63 59.52 133.512 61.6277C134.583 63.5098 134.827 66.039 136.368 67.5471C136.231 64.3173 138.076 62.2333 140.782 60.8143C141.3 60.7134 141.467 61.1706 141.538 61.5802C142.127 64.8813 139.313 68.1467 136.672 69.6904C136.773 70.1476 138.147 76.5656 138.629 75.9304C138.712 72.8965 141.645 70.6878 144.447 70.1298C145.084 74.3154 141.996 76.72 138.593 78.3349L138.367 78.7208C138.331 79.0177 138.635 79.2314 138.635 79.3145V84.3136C139.789 84.3789 139.813 83.0371 140.396 82.3603C141.621 80.9354 143.906 80.0804 145.744 79.9498C146.708 80.5317 144.733 83.8683 144.144 84.4858C142.656 86.0413 140.461 86.5163 138.611 87.4247L137.665 92.8513C138.617 93.4865 139.105 91.931 139.932 91.2423C141.431 89.9895 143.305 89.5027 145.274 89.7936C146.41 89.9599 145.191 91.5629 144.911 92.0201C143.15 94.9352 140.277 95.2855 137.177 95.9089L135.41 101.401C136.511 101.205 136.933 100.142 137.974 99.6078C139.765 98.6875 142.401 98.3966 144.126 99.6256C142.186 103.883 138.242 103.936 134.113 104.138C133.846 104.268 131.389 108.781 131.692 109.458C134.345 107.213 137.54 106.958 140.574 108.656C138.337 112.592 133.84 112.503 129.925 111.541L126.367 116.071C127.171 116.428 127.885 115.674 128.777 115.579C131.293 115.3 133.179 115.84 135.398 116.891C136.124 117.971 132.323 119.669 131.377 119.782C129.895 119.966 128.122 119.658 126.683 119.289C125.778 119.058 125.249 118.173 124.006 118.541C123.089 118.809 121.745 121.207 120.537 121.551L120.71 122.365C123.006 121.403 127.117 122.591 128.628 124.449C129.503 125.518 126.945 126.337 126.118 126.473C122.697 127.055 120.472 125.5 117.497 124.3L113.113 126.557C112.66 127.014 113.136 127.144 113.588 127.198C114.659 127.322 115.361 127.091 116.575 127.447C117.479 127.714 121.876 130.73 121.186 131.704C116.623 133.568 113.113 131.288 109.704 128.468C108.496 129.145 106.616 129.436 105.563 130.143C104.099 131.122 106.8 131.039 107.312 131.205C109.46 131.912 111.929 134.417 112.464 136.537C107.8 138.009 104.141 134.892 101.583 131.413C100.465 131.49 94.3249 133.551 94.0512 132.179C94.0036 131.567 94.432 131.526 94.8722 131.395C95.6516 131.164 99.5186 130.837 99.822 130.368C100.108 126.07 101.167 121.1 106.003 120.097V124.769C106.003 124.983 105.081 126.83 104.849 127.168C104.504 127.667 101.446 130.178 103.748 129.626C104.23 129.507 107.479 128.249 107.645 128.029C108.306 127.168 107.782 123.867 107.937 122.519C108.145 120.691 109.977 117.111 111.982 116.879C112.708 116.796 112.351 116.98 112.47 117.354C112.958 118.862 113.023 122.306 112.387 123.736C111.964 124.68 110.685 125.458 110.525 126.551C110.81 126.8 115.147 124.473 115.403 124.164C116.2 123.184 114.903 121.082 114.755 119.919C114.368 116.932 115.284 114.409 117.479 112.373C118.128 112.242 117.872 112.521 118.027 112.782C119.169 114.688 119.621 117.49 118.949 119.646C118.752 120.275 116.64 123.155 118.705 121.985C119.014 121.807 122.06 119.194 122.173 118.999C122.905 117.758 121.459 116.434 121.025 114.949C120.347 112.652 120.204 110.407 121.447 108.276C122.167 107.035 122.518 106.815 123.393 108.068C125.231 110.698 125.564 113.346 124.095 116.232C124.862 116.944 127.873 112.658 128.307 111.88C125.725 108.81 123.565 104.838 126.201 101.08C129.318 102.855 129.949 106.127 129.586 109.463C130.175 109.594 130.217 109.285 130.496 108.923C130.829 108.496 132.745 105.028 132.727 104.785C130.782 102.731 128.313 100.427 128.295 97.3754C128.295 96.4729 128.878 95.3508 128.616 94.3118C131.597 95.8436 133.84 98.5213 133.465 102.048C133.875 101.959 134.173 101.525 134.357 101.169C134.762 100.38 136.196 96.8588 135.642 96.3304C135.279 95.9801 133.977 95.4992 133.31 94.953C130.99 93.0591 129.848 90.5595 130.234 87.5494C133.471 88.4637 136.207 91.1354 136.053 94.6383C137.403 93.9793 136.856 92.3941 137.046 91.2779C137.171 90.5298 137.736 89.6808 137.671 89.004C137.552 87.7869 135.815 87.775 134.911 87.2347C132.346 85.7029 130.413 83.6546 130.562 80.4545C133.697 80.7098 137.034 82.8412 137.023 86.261H137.992V79.9736L137.98 79.9558Z" fill="black"/>
<path d="M39.7646 119.77C44.5299 121.445 45.9637 125.648 45.9459 130.368C46.1481 130.695 50.152 131.223 50.8956 131.395C51.318 131.49 51.8237 131.639 51.7166 132.179C51.431 133.64 45.5175 131.389 44.4883 131.455C41.5018 134.696 39.0923 137.707 34.1128 136.858C32.3995 136.567 34.5947 133.93 35.2372 133.242C36.7662 131.603 38.5629 131.057 40.7284 130.73C41.127 130.202 36.5699 128.676 36.0999 128.545C32.6434 131.449 29.401 133.592 24.7607 131.722C24.0943 131.306 25.5876 129.852 26.0219 129.454C28.0089 127.643 30.2577 126.877 32.9706 127.186C32.3816 126.378 29.1095 124.33 28.2588 124.283C27.5806 124.247 25.8018 125.607 24.7904 125.951C22.0478 126.895 19.4777 126.8 16.9731 125.262C16.5567 124.841 16.9077 124.74 17.1635 124.467C18.9661 122.507 22.494 121.7 25.0581 122.032L25.2187 121.391L21.4588 118.215C17.7108 120.228 13.5464 120.625 10.3635 117.36C12.4636 115.395 14.8254 115.127 17.5383 115.68C18.2581 115.828 19.6384 117.057 19.4123 115.424L16.0807 111.631C12.3625 112.183 9.58417 112.824 6.50842 110.241C5.9373 109.766 4.60467 108.888 5.59224 108.424C7.78751 107.397 10.6788 107.391 12.8444 108.424C13.0347 108.513 15.0694 110.277 14.5518 108.983C13.9807 107.552 12.1661 105.765 11.9282 104.019C7.98383 103.936 2.95078 103.77 1.95131 99.1447C3.9443 98.7231 5.8897 98.735 7.77561 99.6196C8.92381 100.16 9.51278 101.71 10.6848 101.235L8.61445 95.8852C4.93783 95.4517 0.731722 93.8843 0.0237639 89.7936C2.96268 89.5502 6.44893 90.1617 7.4603 93.3381L8.10282 93.1659L7.31157 87.1931C3.53381 86.2551 -0.321291 84.2483 0.0237639 79.8014C2.71281 80.2585 5.97894 81.63 6.48463 84.6342L7.34726 84.1652L7.29372 78.5011C4.08709 76.625 0.963742 74.2739 1.31475 70.1297C4.22392 70.5394 7.0498 72.8668 7.12714 75.9304C7.67447 76.0432 7.78751 75.7938 8.02548 75.3782C8.27534 74.9388 9.14393 70.0466 9.03089 69.7023C6.24666 67.5115 3.39698 64.6082 4.53923 60.7787C7.4127 61.3427 9.59012 64.3054 9.21532 67.2324H10.3516L10.0304 69.162C10.3933 69.5657 11.9817 67.2324 12.4517 66.9059C13.9152 65.8966 16.9196 65.386 18.4307 66.4309C16.7946 69.7854 14.7541 70.2663 11.4046 71.0203C10.661 71.1866 9.36405 70.8303 9.10823 71.6318C8.85242 72.4334 8.88216 74.3926 8.70964 75.4257C8.5728 76.2569 7.88864 76.9219 8.09092 77.8718C8.57875 78.4358 10.0542 75.4554 10.3516 75.1348C11.2202 74.1967 14.1353 72.849 15.349 73.0211C16.6876 73.2111 15.8963 74.5589 15.462 75.396C14.0818 78.0677 11.0179 79.3145 8.14446 79.5401C7.55549 79.9201 7.54954 86.0591 8.25155 86.261L10.1375 82.8234C11.6129 81.7191 13.2786 80.6088 15.1943 80.4545C15.4382 82.9006 14.177 84.9905 12.2673 86.3976C11.0596 87.2881 9.59607 87.5375 8.44192 88.4043C8.54901 89.2474 8.83457 94.6324 9.54253 94.6383C10.2624 93.9081 9.98872 92.8691 10.3338 91.8894C10.9346 90.1677 13.5821 87.7394 15.5156 87.8759C16.0093 91.361 14.5637 93.1541 12.1185 95.2855C10.78 96.4492 9.71506 95.9267 10.2445 98.1353C10.3814 98.6934 11.8151 102.374 12.1245 102.38C12.9038 101.52 12.3387 100.332 12.6956 99.0972C13.1835 97.4288 15.4025 95.0836 17.1278 94.6502C18.6151 99.0497 15.8547 101.775 13.2608 104.797C13.2905 105.361 15.7654 110.217 16.4853 109.481C15.3371 106.103 16.866 103.093 19.5551 101.11C22.2263 104.577 20.1797 108.834 17.5978 111.714C17.455 112.355 20.1322 115.448 20.733 116.042C21.1614 116.469 21.1614 116.736 21.9764 116.576C20.3463 113.329 20.3463 111.731 22.1787 108.555C22.4999 107.997 23.0175 106.952 23.7255 107.255C26.248 110.277 25.6054 112.675 24.487 116.018C24.1657 116.98 22.9402 118.209 23.6898 119.064C24.1241 119.557 27.6639 122.472 28.116 122.062C28.0803 121.231 27.3307 120.934 26.9857 120.133C26.1825 118.262 26.5395 114.189 27.765 112.586C28.5325 111.589 30.2518 114.397 30.5076 115.003C31.5606 117.52 31.2929 120.827 30.109 123.25C30.0138 124.211 33.512 125.945 34.3687 126.307C36.1832 127.067 34.214 125.132 33.982 124.752C32.7862 122.78 32.7445 120.999 33.0003 118.719C33.0598 118.167 33.1015 116.879 33.7678 116.897C36.5104 116.974 38.1464 121.825 38.1583 124.158C38.1643 125.411 37.4623 126.64 37.9679 127.869L42.9772 129.472C42.4596 128.498 41.3174 127.946 40.7641 127.008C40.6034 126.735 39.7468 124.609 39.7468 124.473V119.8L39.7646 119.77Z" fill="black"/>
<path d="M100.786 67.9093C101.619 68.4495 101.577 75.9779 102.6 77.5453C102.701 77.6996 103.011 77.9668 103.088 77.8659L104.522 68.1705L107.401 67.8558L109.716 77.854C110.299 77.854 110.905 69.6904 111.405 68.5861C111.929 67.4284 113.327 67.9508 114.398 67.8677L111.5 82.8709L107.937 83.0193C107.544 80.2051 107.104 77.3494 106.551 74.5589C106.473 74.167 106.42 73.4902 105.837 73.6683L104.022 82.9837H100.53L97.5851 68.028L100.78 67.9033L100.786 67.9093Z" fill="black"/>
<path d="M70.1294 77.5334L71.7297 68.0042L74.8233 68.1764L76.5962 77.854C77.0543 78.3468 77.1792 77.8124 77.2387 77.3731C77.6254 74.357 78.0478 71.3647 78.5594 68.3664C78.9461 67.6005 81.2604 67.6599 81.6292 68.1705L78.8272 82.9778L75.1267 82.7106C74.627 81.9803 74.1094 75.6929 73.6275 74.2145C73.4848 73.7752 73.1873 73.5792 72.7232 73.6683L71.2716 82.6987C70.8254 83.6309 68.7611 83.4468 67.8627 83.1915C67.1012 82.6928 65.2332 69.7973 64.9655 67.8677C65.7686 67.9805 67.5653 67.553 68.0412 68.1824C69.1478 69.6429 67.9282 75.871 70.1294 77.5393V77.5334Z" fill="black"/>
<path d="M44.286 67.8677L48.1173 67.9152C49.3369 70.0051 49.7771 73.6089 50.9908 75.5148C51.199 75.8413 50.967 76.0788 51.7166 75.9304V68.6752C51.7166 68.5861 52.0497 67.9211 52.2579 67.8558L54.6198 67.8677V82.859C54.0725 83.6546 51.7047 83.4765 51.1454 82.9362L47.5105 74.6361V83.0193H44.28V67.8677H44.286Z" fill="black"/>
<path d="M88.1437 67.6183C90.0356 67.2977 91.5883 67.4224 93.0816 68.6633C96.5083 71.5072 96.3715 80.5495 92.332 82.7581C90.4342 83.7971 88.6077 83.803 86.7099 82.7581C82.5217 80.4485 82.5157 68.5802 88.1437 67.6183ZM88.3162 80.0151C92.1118 83.1559 93.9323 71.2816 89.631 70.5097C86.0615 71.0678 86.3113 78.3587 88.3162 80.0151Z" fill="black"/>
<path d="M38.1047 67.9092L41.704 83.0193L38.4498 82.8828L37.8608 80.8938C37.3016 80.1576 35.1182 80.3773 34.2615 80.591L33.6131 83.0074L30.3945 83.0193L33.7796 68.1823L38.1047 67.9092ZM36.2069 72.0534C35.374 71.9643 35.6953 72.0534 35.5525 72.5224C35.3562 73.1755 34.3984 77.664 34.5947 77.854H37.1826L36.2069 72.0534Z" fill="black"/>
<path d="M85.5558 87.9294C87.5547 87.5256 89.9106 88.4103 90.1724 90.5892C90.4103 92.5603 90.4817 101.395 90.101 103.099C89.5536 105.539 85.5439 106.21 83.8781 104.607C83.3843 104.132 82.8191 102.291 82.7358 101.555C82.486 99.3228 82.5038 93.8487 82.8191 91.646C83.0571 89.9836 83.7591 88.2975 85.5558 87.9294ZM86.1923 90.1499C85.5201 90.4764 85.1334 91.1829 85.0144 91.9013C84.7348 93.6053 84.7824 99.4356 84.9906 101.24C85.3 103.942 87.7986 104.049 88.2091 101.537C88.4887 99.8274 88.4471 94.0031 88.2329 92.1982C88.108 91.1176 87.4952 89.7818 86.1923 90.1558V90.1499Z" fill="black"/>
<path d="M66.8157 87.9294C69.011 87.4841 71.1586 88.6062 71.4323 90.9098C71.706 93.2134 71.7119 100.267 71.349 102.446C71.0634 104.156 69.8022 105.497 68.0055 105.569C65.7865 105.658 64.2456 104.001 63.9898 101.888C63.734 99.774 63.7221 92.9106 64.0731 90.9929C64.323 89.6214 65.4117 88.2203 66.8157 87.9294ZM66.6551 90.512C66.2981 90.8742 66.2862 91.6876 66.2446 92.1922C66.0601 94.3652 65.9709 99.5009 66.2446 101.573C66.5539 103.942 69.0704 103.924 69.4631 101.205C69.6892 99.6434 69.6832 92.115 69.1002 90.9929C68.5945 90.0252 67.4166 89.7639 66.667 90.518H66.6551V90.512Z" fill="black"/>
<path d="M61.7351 105.26H54.9529C55.1255 104.435 54.6257 103.586 54.6257 102.838C54.6317 99.1922 59.8551 96.5917 59.8254 92.1982C59.7956 88.3212 55.8275 90.1914 56.8924 93.6528H54.9529C54.828 90.8327 54.7031 87.8225 58.344 87.8225C62.9249 87.8225 62.5561 93.2728 61.0093 96.3127C60.1347 98.0344 56.6247 100.76 57.2493 102.79C57.5587 103.811 60.3965 102.416 61.4317 103.14L61.7351 105.254V105.26Z" fill="black"/>
<path d="M80.4751 105.26H73.693C73.7882 103.877 73.4848 102.428 73.8418 101.056C74.3296 99.2159 76.6914 97.4585 77.6374 95.8139C78.5833 94.1693 79.5887 89.3424 76.4892 90.0846C75.8645 90.233 75.4242 92.9819 75.6325 93.6528H73.693C73.7168 92.5485 73.6097 91.4442 73.7823 90.3399C74.0202 88.8318 75.5968 87.8225 77.0841 87.8225C81.8732 87.8106 81.2604 93.1303 79.7374 96.3008C78.8748 98.0938 75.4183 101.027 75.9894 102.79C76.3583 103.936 79.083 102.38 80.1717 103.14L80.4751 105.254V105.26Z" fill="black"/>
<path d="M13.2727 61.0934C14.2067 60.9628 14.641 60.1019 15.5155 59.6269C17.2944 58.6651 19.9894 58.3267 21.667 59.6507C20.7211 61.4734 18.6924 62.8152 16.6637 63.0289C14.4506 63.2605 12.9217 61.9543 11.6545 63.9967L12.2494 61.3309C9.86972 58.8848 7.36509 55.4946 9.55441 52.0748C10.191 51.9323 12.5945 54.9247 12.7967 55.6075C13.1299 56.7236 12.8324 57.8695 12.9693 58.9976C13.0407 59.6032 13.7724 60.1375 13.2727 61.0993V61.0934Z" fill="black"/>
<path d="M17.8774 51.9977L18.4605 52.2352L17.7941 53.6779C19.9299 53.1376 20.6855 52.152 23.1247 52.3895C25.5638 52.627 27.7472 53.8797 24.4811 55.3581C21.215 56.8365 18.9661 54.9722 15.8547 55.6134C17.8298 53.5651 15.9023 52.9951 15.1467 51.0002C14.4626 49.1894 14.3793 47.9663 14.8671 46.0902C14.9564 45.7399 15.4739 44.1309 16.0094 44.3387C18.1749 46.393 19.0316 49.1716 17.8715 52.0036H17.8774V51.9977Z" fill="black"/>
<path d="M129.58 55.2868C126.159 55.7084 121.679 57.2698 119.568 53.5235C119.746 52.722 123.756 52.2886 124.583 52.3836C126.207 52.5735 126.742 53.9332 128.289 54.0044C128.479 53.4047 127.748 53.2088 127.694 52.8229C127.641 52.437 128.14 52.1817 128.17 51.9086C128.218 51.4514 127.171 50.1096 127.331 48.7203C127.42 47.9604 129.229 44.1368 130.068 44.3387C131.508 45.7992 131.496 48.5303 130.954 50.3768C130.413 52.2232 128.128 53.5888 129.592 55.2987L129.58 55.2868Z" fill="black"/>
<path d="M58.5046 83.0193V68.6751C58.5046 67.4936 61.1223 67.5827 61.7351 68.3545V82.859L61.2234 83.3103L58.5046 83.0253V83.0193Z" fill="black"/>
<path d="M23.6124 47.5507C24.9689 47.5151 25.8315 46.5176 27.2831 46.6008C28.7347 46.6839 33.4049 48.2929 30.805 49.7297C27.6163 51.493 24.951 49.5634 22.0002 48.5125C23.1067 46.8501 21.6611 45.3243 21.435 43.4363C21.2565 41.952 21.435 40.7645 22.0835 39.4168C22.8331 37.8731 23.3031 37.1429 24.2193 39.0428C25.7779 42.2666 24.2906 44.4456 23.6124 47.5448V47.5507Z" fill="black"/>
<path d="M123.762 48.5185C120.412 50.0146 117.533 51.303 114.07 49.1597C113.38 48.2097 117.503 46.7254 118.199 46.6542C119.865 46.488 120.906 47.3488 122.465 47.5507C121.204 43.9112 120.038 41.5957 122.15 37.885C124.47 38.5678 124.577 41.7679 124.321 43.7687C124.107 45.4371 122.721 47.1648 123.756 48.5185H123.762Z" fill="black"/>
<path d="M116.42 42.332C116.51 42.4685 117.212 42.2488 116.98 42.8782C114.404 45.3065 111.459 46.5117 107.937 45.2946C108.829 41.8273 113.006 41.6907 116.016 42.3913C113.987 39.12 112.149 37.1132 113.755 33.0462C116.391 33.3728 117.229 37.0301 116.986 39.3396C116.896 40.153 116.052 41.7798 116.426 42.332H116.42Z" fill="black"/>
<path d="M32.0068 33.0462C32.102 33.1294 32.6017 35.2074 32.6314 35.4924C32.9943 38.6628 30.9419 39.7315 30.0733 42.3913C33.2859 41.5483 36.2129 42.0232 38.1404 44.8137C35.0111 46.9867 31.3762 45.0927 28.8418 42.8841C30.1625 41.6254 28.8061 40.1174 28.7704 38.6747C28.7526 37.9147 29.1214 36.4957 29.4129 35.7714C29.6866 35.0946 31.2393 32.405 32.0068 33.0462Z" fill="black"/>
<path d="M64.1088 31.6451C63.4901 30.992 62.0861 29.0921 61.8124 28.2965C61.6756 27.8987 61.4495 27.0913 62.211 27.2516C65.733 35.2074 77.2685 36.7095 82.2242 29.484C82.9025 28.4984 83.3843 26.8657 84.015 26.1176C85.3059 24.5977 84.6753 27.1744 84.2827 27.9997C80.5644 35.8189 70.2247 38.1581 64.1029 31.651H64.1088V31.6451Z" fill="black"/>
<path d="M61.0866 16.2856C61.0985 16.8318 61.2651 16.9862 60.6286 16.9031C59.6291 16.7784 58.3619 16.0778 57.529 17.0931L58.4987 20.1448L57.2494 20.1032L56.5652 16.2797C54.7567 16.1194 50.1639 16.3628 51.7047 19.0405C53.0552 21.3916 57.8741 22.9471 60.4441 22.0862V23.048C58.469 23.048 56.8448 23.2499 54.953 22.5612C50.8837 21.0888 47.1417 16.0303 53.5252 15.0151C53.9535 14.9498 57.1245 14.6707 57.3089 14.7182C57.9395 14.8666 59.7719 16.624 61.0866 16.2797V16.2856Z" fill="black"/>
<path d="M61.0925 13.697L62.7048 14.831C60.5392 15.3416 59.2899 12.7768 57.8383 11.9515C56.7555 11.334 54.2747 11.6012 55.1195 10.1525C56.5711 10.5088 58.0882 10.6038 59.5517 10.8887C61.8243 11.34 65.5307 13.3408 62.4727 8.94136C62.1634 8.49014 60.9616 6.95835 60.6285 6.59024C59.6826 5.55718 58.5165 4.85659 57.5468 3.86509L58.3975 3.11107C60.0812 2.76077 64.5609 10.1407 64.5847 11.6665C64.6145 13.5783 61.0211 11.8565 61.0985 13.6911H61.0925V13.697Z" fill="black"/>
<path d="M76.9175 113.643C79.1365 113.418 78.8926 115.893 79.9932 117.188C80.725 117.324 80.4394 116.873 80.4751 116.392C80.5287 115.591 80.4335 114.765 80.4751 113.97H81.7661V121.385C78.9462 122.009 80.1777 118.791 78.2144 117.841L77.9051 121.243L76.9175 121.385V113.649V113.643Z" fill="black"/>
<path d="M77.2923 10.7463L76.0786 7.25523C76.7449 6.37653 76.971 5.04066 77.56 4.19165C78.1489 3.34264 79.2436 2.9211 79.8326 2.26801C80.2371 1.81678 80.255 0.866839 80.957 0.492798C85.6985 3.9601 82.9083 11.1678 77.2923 10.7463ZM77.6433 9.11356C80.1122 10.2654 82.2658 7.57583 82.0933 5.17128C81.9267 2.89735 81.2961 2.68955 79.5232 3.89479C77.7503 5.10004 76.4653 7.03555 77.6433 9.11356Z" fill="black"/>
<path d="M62.3776 113.964L63.853 114.267L63.9958 116.546H65.9352L66.0899 114.278C66.542 113.614 67.5534 114.13 67.5534 114.451V120.898C65.1916 122.828 66.1732 118.387 65.9411 118.155H64.1861L63.847 121.065C63.3949 121.73 62.3835 121.213 62.3835 120.898V113.97H62.3776V113.964Z" fill="black"/>
<path d="M61.0867 42.237L61.8482 41.7917C64.0375 42.611 63.4247 45.5855 65.1262 46.9036C66.2803 46.9689 64.2755 41.7501 66.2565 42.0767L66.2149 50.0918L65.0132 50.08C64.0018 48.4888 63.9958 46.0308 62.3777 44.974V49.6466L61.8898 50.1275L61.0867 49.6466V42.231V42.237Z" fill="black"/>
<path d="M86.6088 5.96685C86.704 7.29677 85.2524 7.92018 84.5385 8.89387C84.1161 9.46978 82.1588 12.1534 82.7359 12.7352C83.6342 12.9252 85.9247 12.0703 86.2697 13.2696C86.5315 14.1661 84.7051 15.1932 84.9966 16.2797C86.24 16.814 87.7927 16.5112 88.9588 15.8878C89.9225 15.3713 91.0469 13.4892 91.3385 13.4002C92.4867 13.0558 93.028 14.2551 91.9453 15.3179C89.9582 17.2534 86.2578 17.3068 83.7056 16.9268L84.6694 14.5282C84.3362 13.3764 81.5044 15.0626 81.7721 12.6046C81.8792 11.5834 85.4606 4.82098 86.6088 5.96685Z" fill="black"/>
<path d="M90.4877 121.379C89.5775 122.264 87.2275 117.894 86.5672 121.338L84.9966 121.379L86.9122 114.106L89.0421 114.284L90.4877 121.379ZM88.227 116.22C87.2275 115.982 87.5429 117.532 86.9836 118.055L87.4596 118.761L88.5483 118.797L88.227 116.22Z" fill="black"/>
<path d="M73.6812 9.19073C72.759 9.46977 72.3247 7.68862 71.9083 7.58176L70.1414 9.37478C69.3263 9.826 67.7438 7.26115 67.375 6.61994C66.905 5.80654 64.5788 1.49023 66.5837 1.94739L68.8801 8.18141H70.0938L71.2658 5.32563L73.5205 7.58176C74.752 5.94904 74.6033 3.91853 74.2523 2.02457C74.1749 1.61491 73.7704 1.21712 73.7407 0.914323C73.6574 0.0534347 74.6866 -0.64715 75.2934 0.985569C76.3226 3.75822 74.6152 6.62587 73.6812 9.19666V9.19073Z" fill="black"/>
<path d="M105.028 29.5017C108.359 30.4339 109.924 34.9105 108.419 37.8791C105.747 35.5755 103.713 33.3134 105.028 29.5017Z" fill="black"/>
<path d="M36.8614 37.5585C36.5639 34.4177 37.5574 30.9207 40.5796 29.5077C42.1621 32.5475 40.1751 36.8223 36.8614 37.5585Z" fill="black"/>
<path d="M109.222 38.5322C108.151 41.8392 104.308 42.8425 101.149 42.3973C100.566 41.8332 103.368 39.2565 103.969 38.93C105.866 37.9028 107.223 38.5322 109.222 38.5322Z" fill="black"/>
<path d="M44.6072 42.3973C43.1973 42.2726 41.5077 42.6882 40.1691 42.1539C39.5385 41.8986 36.1712 39.1971 36.8554 38.5322C39.9787 38.1285 43.9826 38.8587 44.6072 42.3973Z" fill="black"/>
<path d="M73.6871 50.1334L72.4378 50.0978L72.1106 48.7144C71.8548 48.3344 70.2009 48.4472 69.8082 48.6847C69.1181 49.0944 69.5941 50.5668 68.2019 50.1393C67.9164 49.8603 69.5643 43.8578 69.832 42.9019C69.9272 42.5516 69.9094 42.2429 70.3377 42.1004L71.9083 42.7357L73.6931 50.1393L73.6871 50.1334ZM70.9445 43.6916C70.4864 43.7034 69.13 47.426 70.6233 47.5745C72.7412 47.7882 71.2539 43.6797 70.9445 43.6916Z" fill="black"/>
<path d="M56.8032 113.691C57.8086 113.507 58.5166 114.053 59.1412 114.771C58.5761 115.555 57.6182 115.074 56.8865 115.412C55.4706 116.066 55.5895 119.871 57.1958 120.275C57.874 120.447 58.6117 119.693 59.1472 120.578C57.4398 123.303 54.477 120.821 54.2926 118.31C54.1796 116.719 54.9649 114.023 56.8032 113.691Z" fill="black"/>
<path d="M94.6878 20.1507C92.3557 20.0557 90.0772 19.7648 87.7272 19.8123C86.6207 19.8361 85.6747 20.1685 84.5206 20.1626C84.0328 20.1626 83.2237 20.4357 83.3843 19.6758C86.698 18.1618 90.3806 18.4527 93.8847 17.8887C94.9972 17.9599 94.6759 19.3433 94.6938 20.1567L94.6878 20.1507Z" fill="black"/>
<path d="M87.8998 42.7179L85.9722 42.5398C83.2712 45.0274 87.3822 45.3362 88.0544 46.9155C89.5953 50.5371 84.1577 51.3386 84.0328 49.6525C83.9733 48.8213 86.0376 49.7831 86.6326 49.3556C87.0133 49.0825 87.0252 48.1623 86.9419 47.7229C86.7218 46.5592 83.2772 46.013 84.3183 43.1988C85.288 40.5805 88.7029 42.0292 87.8998 42.7238V42.7179Z" fill="black"/>
<path d="M52.0438 42.0767H55.2742C55.5062 43.2047 54.0308 42.5219 53.4121 43.1216C52.1151 44.3803 53.6619 45.9952 55.2742 45.7874C55.292 46.8086 53.8226 46.4167 53.4716 46.8917L53.1801 49.8247L52.2044 50.1334C51.4845 49.7118 52.0378 49.4565 52.0378 49.3319V42.0767H52.0438Z" fill="black"/>
<path d="M41.704 36.5907C42.6559 34.0853 45.9755 33.2184 48.1648 34.8274C46.8679 36.8995 43.8992 37.3507 41.704 36.5907Z" fill="black"/>
<path d="M100.108 34.103C101.643 34.0556 103.285 35.0886 104.373 36.1098C102.749 37.9741 98.8702 36.9885 97.9183 34.8274C98.0076 34.4118 99.7031 34.1149 100.102 34.103H100.108Z" fill="black"/>
<path d="M71.4264 114.124C71.5275 113.774 72.1641 113.524 72.5508 113.649C73.6098 113.982 72.7055 116.036 72.7174 116.707C72.7471 118.209 73.3301 119.675 72.7174 121.385C72.3545 121.516 71.4264 121.243 71.4264 120.898V114.13V114.124Z" fill="black"/>
<path d="M92.1 49.6525C92.0286 49.9019 91.3742 50.3056 91.1362 50.1334L90.8506 42.9079L89.518 42.7179C89.4764 41.9639 89.4109 42.1479 89.9999 42.0707C91.0529 41.9342 92.3142 42.1657 93.3969 42.0707L92.1059 43.1988V49.6466H92.1V49.6525Z" fill="black"/>
<path d="M76.5963 42.0767V48.3641C76.5963 48.4532 76.9295 49.1181 77.1377 49.1834L78.857 49.1716V50.1334H75.6266V42.0767H76.5963Z" fill="black"/>
<path d="M58.8259 50.1334C58.4511 50.264 57.5349 49.9909 57.5349 49.6525V42.5576L58.0227 42.0767L58.8259 42.5576V50.1334Z" fill="black"/>
<path d="M80.7964 42.5576C80.8737 42.2904 81.4151 41.9698 81.7661 42.0767C81.5043 44.8078 82.2837 47.4735 81.7661 50.1334C81.4627 50.2699 80.7964 49.8484 80.7964 49.6525V42.5576Z" fill="black"/>
<path d="M63.3473 2.74298L67.2262 10.4791C66.3635 10.6632 66.5123 10.396 66.1613 10.0813C64.5669 8.63265 63.6031 4.99317 62.0623 3.22983L63.3413 2.74892H63.3473V2.74298Z" fill="black"/>
<path d="M79.3924 19.5629C83.6461 18.2093 80.9868 23.7961 78.8451 20.317C78.7916 19.937 79.0533 19.6698 79.3924 19.5629Z" fill="black"/>
</g>
<defs>
<clipPath id="clip0_1795_893">
<rect width="146" height="137" fill="white"/>
</clipPath>
</defs>
</svg>
